<svg version="1.1" xmlns="http://www.w3.org/2000/svg" xmlns:xlink="http://www.w3.org/1999/xlink" width="127.03578" height="176.03205" viewBox="0,0,127.03578,176.03205"><g transform="translate(-157.66419,-42.78047)"><g data-paper-data="{&quot;isPaintingLayer&quot;:true}" fill-rule="nonzero" stroke="none" stroke-width="0.5" stroke-linecap="butt" stroke-linejoin="miter" stroke-miterlimit="10" stroke-dasharray="" stroke-dashoffset="0" style="mix-blend-mode: normal"><path d="M282.19997,175.62059c-2.5,0 -2.5,-2.5 -2.5,-2.5l0.26393,-0.15988c-1.72568,-3.46932 -2.36035,-8.1531 -5.50096,-10.75609c-1.05526,-0.87462 -2.29187,-1.50481 -3.41123,-2.29575c-2.29566,-1.62212 -3.96746,-3.61369 -6.43866,-3.86838c-0.0899,0.30862 -0.17266,0.62985 -0.24876,0.9618c-0.46454,-0.31336 -0.93547,-0.60874 -1.41312,-0.88287c-0.31189,0.02137 -1.57958,0.04168 -2.28036,-0.95422c-0.82117,-0.16678 -1.68246,-0.22331 -2.47603,-0.48591c-2.91621,-0.96501 -4.41428,-2.39025 -7.59523,-2.89906c-3.1597,-0.50541 -6.39968,0.03228 -9.59954,0.03228c0,0 -0.2027,0 -0.49266,-0.05772c0.0215,0.88338 -0.01079,1.75625 -0.00734,2.55772c0.03527,8.19438 0.54296,16.43872 -1.04855,24.49029c0,0 -0.00067,0.00333 -0.00207,0.00971c0.036,0 0.07199,0 0.10799,0c0.98933,-0.45482 1.66153,-1.585 2.71817,-1.89273c1.32035,-0.38452 2.77422,-0.33344 4.12492,-0.07499c1.53433,0.29359 3.22487,0.6345 4.36731,1.69995c1.00219,0.93465 0.98232,2.56014 1.54193,3.81106c1.9459,4.34979 2.31778,6.29639 2.1903,10.95671c-0.03611,1.31993 0.29309,2.72794 -0.1903,3.95671c-0.97963,2.49017 -3.72924,3.90255 -5.09525,6.20356c-0.64609,1.08832 -1.77717,2.65325 -1.01026,3.66009c0.49361,0.64804 1.48324,0.68172 2.18256,1.09952c3.13562,1.8733 6.36749,3.55918 9.33771,5.6874l2.27554,-0.10727c0,0 2.5,0 2.5,2.5c0,2.5 -2.5,2.5 -2.5,2.5l-3.72446,-0.10727c-3.51393,-2.22008 -7.28268,-3.88946 -10.66229,-6.3126c-1.29877,-0.93121 -3.05208,-1.49756 -3.81744,-2.90048c-1.12743,-2.06663 -0.06637,-6.44003 0.98974,-8.33991c0.90333,-1.62505 2.12484,-3.05842 3.32581,-4.47774c0.44294,-0.52347 1.31715,-0.68491 1.57894,-1.3187c0.26114,-0.63224 -0.16451,-1.35973 -0.1903,-2.04329c-0.0682,-1.80739 0.58573,-3.69296 0.06688,-5.42562c-0.38971,-1.30138 -1.36981,-2.35726 -1.87658,-3.61767c-0.69994,-1.74085 -1.17886,-3.66447 -3.96584,-2.56398c-0.7292,0.28794 -1.29023,0.91666 -1.91405,1.40685c-0.24519,0.23208 -0.52667,0.38727 -0.79345,0.49103c-0.09457,0.04026 -0.19189,0.07468 -0.2925,0.10212c-1.35933,0.37083 -2.80687,0.13548 -4.22427,0.10727c-2.8334,0 -5.6668,0 -8.50019,0c-2.09215,0 -4.27137,-0.70762 -6.27554,-0.10727c-1.10721,0.33166 -3.00007,2.22452 -3.33173,3.33173c-0.50471,1.68491 0.1107,3.51667 0.10727,5.27554c-0.00644,3.30442 0.19168,5.71575 -1.26536,9.0617c-0.19165,0.4401 -4.42848,4.76277 -4.92031,5.06492c-0.83106,0.51057 -2.03401,0.25233 -2.79684,0.86014c-0.8289,0.66044 -0.93748,1.94131 -1.67474,2.7027c-1.28592,1.32802 -2.87683,2.32224 -4.31524,3.48335l-3.23157,1.96507c0,0 -2.13788,1.29594 -3.43382,-0.84194c-1.29594,-2.13788 0.84194,-3.43382 0.84194,-3.43382l2.95974,-1.78798c1.16448,-0.9212 2.46516,-1.6925 3.49345,-2.7636c0.93141,-0.97018 1.2764,-2.45548 2.32526,-3.2973c1.81923,-1.46013 5.19332,-1.56908 6.32169,-4.26913c2.50695,-5.99884 -1.75332,-12.33052 3.42803,-17.51187c3.58828,-3.58828 7.21893,-2.73223 11.76777,-2.73223c2.18215,0 4.36429,0 6.54644,0c-0.08652,-0.54715 0.00211,-0.99029 0.00211,-0.99029c1.30648,-6.44934 0.95099,-12.84523 0.95144,-19.41274c0.00003,-0.4257 0.17543,-2.1119 0.23585,-3.87969c-1.23584,-0.65429 -1.23584,-2.21727 -1.23584,-2.21727c0.00887,-0.93412 0.09626,-1.81669 0.23088,-2.67119c-2.59575,-1.94342 -7.7826,-2.84581 -10.73088,-2.82881c-1.68227,0.0097 -3.47716,-0.80458 -5.04329,-0.1903c-0.58382,0.22899 -0.75793,1.00254 -1.18894,1.45807c-1.82261,1.92629 -3.26963,4.19621 -4.60549,6.48705c-1.43133,2.45457 -3.70915,4.40076 -6.0639,5.99097c-2.10046,0.71496 -4.20286,1.42427 -6.30781,2.12592l-1.79057,0.12829c0,0 -2.5,0 -2.5,-2.5c0,-2.5 2.5,-2.5 2.5,-2.5l0.20943,0.12829c1.89508,-0.63169 3.79223,-1.25722 5.69219,-1.87408c4.37644,-2.85798 5.53855,-7.86949 9.33061,-11.52198c0.90988,-0.87639 1.63961,-2.06901 2.81106,-2.54193c1.22441,-0.49431 2.63677,-0.15419 3.95671,-0.1903c4.32902,-0.11842 10.50791,0.29373 14.90501,2.63865c0.24461,-1.04992 0.46112,-2.13253 0.58833,-3.29379c0.60099,-5.48626 0.23134,-11.30506 0.07032,-16.94334c-1.8859,-0.47066 -3.82216,-0.79401 -5.57504,-1.61523l-0.00002,-0.00005c-1.46233,-0.6851 -2.92487,-1.54235 -3.97538,-2.7688c-0.73725,-0.86073 -0.55432,-2.23283 -1.13986,-3.20316c-0.48712,-0.80722 -1.52243,-1.18709 -2,-2c-1.75419,-2.98598 -2.34637,-7.34173 -3.27367,-10.61536c-0.71823,-2.53553 -2.11118,-4.84211 -0.9094,-7.65568c1.54877,-3.62592 4.47745,-3.63536 7.70336,-4.46865c4.04074,-1.04377 7.47587,-1.07464 11.60634,-1.07464c0.91388,0 6.49925,-0.04804 6.95671,0.1903c1.80806,0.94202 2.96929,2.79451 4.45393,4.19176c1.82262,2.3471 4.16499,4.30322 5.73124,6.82863c0.59321,0.95648 0.59947,2.18481 1.1039,3.19093c1.93058,3.85067 5.26665,7.10298 1.74098,11.61586c-1.05509,1.35053 -2.66503,2.25408 -4.26231,2.87525c-1.03293,0.40169 -2.23139,-0.11074 -3.324,0.07499c-1.03919,0.17665 -1.95936,0.83216 -3,1c-2.13838,0.34488 -4.57956,0.20342 -6.89885,0.1019c0.00182,0.32728 0.00513,0.65553 0.00971,0.98465c0.02457,0.17393 0.02932,0.36156 0.00902,0.56364c0.11439,6.35105 0.64793,13.00367 -0.05252,19.23143c-0.21266,1.89079 -0.70129,3.57535 -1.13854,5.24899c0.3816,-0.09832 0.67072,-0.09832 0.67072,-0.09832c0.49542,0 10.1432,-0.00996 10.40046,0.03228c2.94672,0.48388 5.57378,2.15076 8.40477,3.10094c1.39392,0.46785 2.95527,0.44953 4.26921,1.10943c0.02666,0.01339 0.0533,0.02683 0.07991,0.04033c3.96255,0.13523 6.17213,2.16673 9.78285,4.73001c3.27752,2.32674 4.00845,2.21718 6.16173,5.32455c2.05,2.95831 2.74089,6.40082 4.3371,9.5746l0.26393,2.39594c0,0 0,2.5 -2.5,2.5zM243.5,111.3125c0,2.5 -2.5,2.5 -2.5,2.5c-0.36468,0 -1.12835,0 -2,0c1.85659,0 2.33441,1.37877 2.45738,2.08846c2.07504,0.11549 4.27031,0.26731 6.14216,-0.05618c1.0387,-0.17951 1.95963,-0.83045 3,-1c2.33005,-0.37973 2.72767,0.92641 4.41369,-1.04977c1.71716,-2.01267 -1.56243,-4.98689 -2.25902,-6.38414c-0.43852,-0.87959 -0.38316,-1.97069 -0.8961,-2.80907c-1.39421,-2.27877 -3.56061,-3.98924 -5.19769,-6.10031c-0.87238,-0.95977 -1.49373,-2.23112 -2.61713,-2.87931c-1.45714,-0.84075 -3.361,0.1903 -5.04329,0.1903c-3.73691,0 -6.73978,0.05021 -10.39366,0.92536c-1.47864,0.35415 -3.83958,0.08122 -4.29664,1.53135c-0.31527,1.00025 0.956,3.87759 1.0906,4.34432c0.77415,2.68448 1.21337,6.92636 2.72633,9.38464c0.49416,0.80293 1.51716,1.19021 2,2c0.49952,0.83776 0.29223,2.00386 0.86014,2.79684c0.83208,1.16185 2.69055,1.76317 4.58327,2.19514c-0.04502,-0.20254 -0.07003,-0.42759 -0.07003,-0.67765c0,-1.08318 0.46931,-1.69705 1.00126,-2.04495c0.01456,-0.33699 0.19762,-2.45505 2.49874,-2.45505c-1.51849,0 -3.36468,0 -4,0c0,0 -2.5,0 -2.5,-2.5c0,-2.5 2.5,-2.5 2.5,-2.5c1,0 2,0 3,0h3c0,0 2.5,0 2.5,2.5z" fill="#f0ff00"/><path d="M231.5,102.3125c0,-1.38071 1.11929,-2.5 2.5,-2.5c1.38071,0 2.5,1.11929 2.5,2.5c0,1.38071 -1.11929,2.5 -2.5,2.5c-1.38071,0 -2.5,-1.11929 -2.5,-2.5z" fill="#f0ff00"/><path d="M238.5,104.3125c0,-1.38071 1.11929,-2.5 2.5,-2.5c1.38071,0 2.5,1.11929 2.5,2.5c0,1.38071 -1.11929,2.5 -2.5,2.5c-1.38071,0 -2.5,-1.11929 -2.5,-2.5z" fill="#f0ff00"/><path d="M209.94313,159.07297c0.31009,2.48069 -2.17061,2.79078 -2.17061,2.79078l-2.31289,0.27685c-0.80806,0.26935 -1.62837,0.50854 -2.45725,0.71323c1.26683,2.59576 2.16015,5.22672 3.50134,7.87082l0.26393,1.43751c0,0 0,2.5 -2.5,2.5c-1.95123,0 -2.37954,-1.52292 -2.47356,-2.1915c-1.28113,-2.69399 -2.13958,-5.31045 -3.508,-7.90569c-0.63408,0.36105 -1.2914,0.67785 -1.96451,0.94342l-2.43708,1.22238c0,0 -2.23607,1.11803 -3.3541,-1.11803c-1.11803,-2.23607 1.11803,-3.3541 1.11803,-3.3541l2.67456,-1.33344c1.38076,-0.48213 2.69726,-1.29081 3.70421,-2.35147c0,0 1.46173,-1.46173 3.05599,-0.39761c1.10667,-0.23766 2.19863,-0.55439 3.27039,-0.91164l2.79875,-0.36211c0,0 2.48069,-0.31009 2.79078,2.17061z" fill="#927100"/><path d="M173.42156,82.31358c0.25844,-0.09038 0.53626,-0.13952 0.82554,-0.13952c0.0089,0 0.0178,0.00005 0.02668,0.00014c-1.34441,-3.88695 -3.02779,-7.64032 -5.00247,-11.25734c1.52564,3.72369 2.92028,7.48156 4.15024,11.39672zM170.19033,59.99718c-0.21768,-1.7493 -0.65574,-3.46523 -1.056,-5.18616c-0.52192,-1.11294 -1.04563,-2.22136 -1.56726,-3.32468c-0.5098,1.59509 -0.97519,3.20702 -1.36503,4.83546c0.94679,1.8637 2.08879,3.66746 3.3832,5.47841c0.36389,0.54572 0.72175,1.09486 1.07342,1.6474c-0.16786,-1.14335 -0.32429,-2.29299 -0.46833,-3.45042zM202.14273,158.67898c0.01309,0.88265 0.14932,10.06466 0.14345,10.08882c-0.01246,0.05128 -0.02551,0.10235 -0.03913,0.15322l0.02672,0.00297l-0.31615,2.84532c-0.12362,1.2652 -1.19037,2.2539 -2.48804,2.2539c-1.1554,0 -2.12774,-0.7838 -2.41431,-1.84869l-0.79199,-2.69514l0.00893,-0.00263l-0.01571,-0.02087c-2.05441,-7.53215 -3.90865,-15.0721 -5.64153,-22.63571c-0.00802,0.18884 -0.01699,0.37722 -0.02695,0.56508c0.23113,1.70933 0.91878,3.45145 0.5149,5.1181c-0.03279,0.13532 -0.06924,0.26926 -0.10902,0.40194l0.04944,0.01141l-0.94713,4.10424c-0.05523,0.26471 -0.15232,0.51406 -0.28404,0.7408c-0.14621,1.24142 -1.202,2.20445 -2.48271,2.20445c-1.10287,0 -2.03894,-0.71414 -2.37101,-1.70521c-0.4535,0.46095 -1.08447,0.74678 -1.78219,0.74678c-1.18975,0 -2.18539,-0.83109 -2.43804,-1.9444l-0.62036,-2.48145c-5.6275,-20.25515 -11.70526,-40.53516 -15.89379,-61.14868c-1.1762,-5.78855 -2.32612,-11.58291 -3.55598,-17.36029c-0.77634,-3.6469 -1.70016,-6.54188 -1.24874,-10.33709l-0.14665,-4.98607c-0.00095,-0.0283 -0.00143,-0.05673 -0.00143,-0.08526c0,-1.1433 0.76747,-2.10736 1.81532,-2.40508c0.03188,-0.28246 0.06737,-0.56437 0.10655,-0.84569c-1.50781,-3.27054 -2.49617,-6.71958 -2.86411,-10.5799l-0.38529,-0.38622c0,0 -1.11803,-2.23607 1.11803,-3.3541l0,0.00001c2.23607,-1.11803 3.3541,1.11803 3.3541,1.11803l0.89262,2.1696c0.05313,0.61982 0.12658,1.22664 0.21942,1.82187c1.09577,-2.82287 2.98401,-5.28136 7.02711,-4.6041c1.45767,0.24418 3.71062,9.40673 3.95079,10.65413c0.02691,0.13978 0.05314,0.27971 0.07872,0.41976c2.38753,5.15148 4.69212,10.38991 6.55518,15.66058c1.36061,3.8492 2.41433,7.85299 3.41627,11.85843c0.18263,0.2495 0.32011,0.53413 0.40044,0.84185l0.67836,2.37595l-0.00118,0.00034l0.00192,0.00229c0.21365,0.75683 0.41313,1.51479 0.60071,2.27382c1.43076,2.79745 2.85012,5.61046 4.05536,8.47538c2.35359,5.59457 3.27271,11.81461 4.50364,17.7156c1.70169,8.15774 3.40337,16.31548 5.10506,24.47322c1.10601,5.30211 1.76851,10.17843 2.06671,15.34492c0.63875,-0.00179 2.28991,0.18935 2.53911,2.183c0.31009,2.48069 -2.17061,2.79078 -2.17061,2.79078c-0.06377,0.00164 -0.12804,0.00506 -0.19275,0.01zM177.89931,128.12974c-0.9734,-4.41217 -1.89671,-8.83574 -2.73592,-13.27939c-1.08285,-5.73378 -2.83205,-12.04919 -3.31417,-18.18383c-0.71177,-0.13382 -1.31712,-0.5693 -1.67817,-1.16858l-0.62091,-0.99346c2.36342,11.289 5.27777,22.48025 8.34918,33.62527zM177.98019,76.65971c0.01996,0.07958 0.03998,0.15916 0.06005,0.23872c0.0044,-0.00192 0.00881,-0.00383 0.01323,-0.00573c-0.02437,-0.07769 -0.0488,-0.15535 -0.07328,-0.23299zM196.47478,145.23181c-0.16204,-0.0287 -0.31869,-0.07301 -0.46834,-0.13132c0.20123,0.45455 0.40565,0.90753 0.61409,1.35876c0.02791,0.0545 0.05577,0.10904 0.08357,0.1636c-0.07121,-0.46323 -0.1479,-0.92695 -0.22932,-1.39103z" fill="#919191"/><path d="" fill="#927100"/><path d="" fill="#919191"/></g></g></svg>