<svg version="1.1" xmlns="http://www.w3.org/2000/svg" xmlns:xlink="http://www.w3.org/1999/xlink" width="332.0651" height="317.59611" viewBox="0,0,332.0651,317.59611"><g transform="translate(-73.55469,-36.75)"><g data-paper-data="{&quot;isPaintingLayer&quot;:true}" fill-rule="nonzero" stroke-linejoin="miter" stroke-miterlimit="10" stroke-dasharray="" stroke-dashoffset="0" style="mix-blend-mode: normal"><path d="M75,323v-286h330v286h-7.76518c-0.50513,-0.15048 -1.01159,-0.29482 -1.52363,-0.37088c-1.9783,-0.29384 -4.02078,0.28759 -6,0c-5.63668,-0.81904 -9.16667,-3.10866 -12.95988,0.37088z" fill="#ffffff" stroke="#000000" stroke-width="0.5" stroke-linecap="butt"/><text transform="translate(114.65669,195.5) scale(1.29167,1.29167)" font-size="40" xml:space="preserve" fill="#000000" fill-rule="nonzero" stroke="none" stroke-width="1" stroke-linecap="butt" stroke-linejoin="miter" stroke-miterlimit="10" stroke-dasharray="" stroke-dashoffset="0" font-family="Sans Serif" font-weight="normal" text-anchor="start" style="mix-blend-mode: normal"><tspan x="0" dy="0">пинтболл</tspan></text><path d="M95.61044,214.95763v-79.23729h265.67797v79.23729z" fill="#ffffff" stroke="none" stroke-width="0" stroke-linecap="butt"/><path d="M104.30469,42l-2.5,286.5" fill="none" stroke="#000000" stroke-width="0.5" stroke-linecap="round"/><path d="M73.80469,321.5v-282.5h29.5v282.5z" fill="#35ff00" stroke="#000000" stroke-width="0.5" stroke-linecap="butt"/><path d="M377.80469,43h25.5v280.50572c-0.1264,-0.00572 -0.19531,-0.00572 -0.19531,-0.00572h-3c-1.48819,0.13744 -2.91988,-0.6513 -4.39818,-0.87088c-1.9783,-0.29384 -4.02078,0.28759 -6,0c-5.11246,-0.74287 -8.49187,-2.69552 -11.9065,-0.45604z" fill="#ff0000" stroke="#000000" stroke-width="0.5" stroke-linecap="butt"/><path d="M258.5,180c0,10.21727 -8.28273,18.5 -18.5,18.5c-10.21727,0 -18.5,-8.28273 -18.5,-18.5c0,-10.21727 8.28273,-18.5 18.5,-18.5c10.21727,0 18.5,8.28273 18.5,18.5z" fill="#000000" stroke="#000000" stroke-width="0.5" stroke-linecap="butt"/><path d="M332,221v-74h8v74z" fill="#000000" stroke="#000000" stroke-width="0.5" stroke-linecap="butt"/><path d="M120,181v-65h7v65z" fill="#000000" stroke="#000000" stroke-width="0.5" stroke-linecap="butt"/><path d="M378.03646,46.33333v-9h27.33333v9z" fill="#ff0000" stroke="#000000" stroke-width="0.5" stroke-linecap="butt"/><text transform="translate(190.61468,317.58037) scale(0.6268,0.6268)" font-size="40" xml:space="preserve" fill="#ff0000" fill-rule="nonzero" stroke="none" stroke-width="1" stroke-linecap="butt" stroke-linejoin="miter" stroke-miterlimit="10" stroke-dasharray="" stroke-dashoffset="0" font-family="Sans Serif" font-weight="normal" text-anchor="start" style="mix-blend-mode: normal"><tspan x="0" dy="0"> </tspan><tspan x="0" dy="46.150000000000006px">теннис</tspan></text></g></g></svg>