<svg version="1.1" xmlns="http://www.w3.org/2000/svg" xmlns:xlink="http://www.w3.org/1999/xlink" width="55" height="56" viewBox="0,0,55,56"><g transform="translate(-212.5,-152)"><g data-paper-data="{&quot;isPaintingLayer&quot;:true}" fill-rule="nonzero" stroke-linecap="butt" stroke-linejoin="miter" stroke-miterlimit="10" stroke-dasharray="" stroke-dashoffset="0" style="mix-blend-mode: normal"><path d="M266.5,180c0,14.91169 -11.86445,27 -26.5,27c-14.63555,0 -26.5,-12.08831 -26.5,-27c0,-14.91169 11.86445,-27 26.5,-27c14.63555,0 26.5,12.08831 26.5,27z" fill="#000000" stroke="#000000" stroke-width="2"/><path d="M238.86868,165.97466c2.54596,1.26366 4.0043,2.81934 6.24725,4.72196c2.94826,2.50091 6.68613,4.06395 9.15183,7.13978c0.99975,1.24714 2.97068,2.36544 2.72594,3.94499c-0.28781,1.85754 -2.43842,2.91078 -3.95932,4.01537c-3.59268,2.60925 -9.09343,1.38523 -12.97501,3.65279c-1.60831,0.93955 -4.66846,4.11229 -6.88595,2.78218c-3.32318,-1.99334 -2.80987,-6.29082 -2.8401,-9.29423c0,-4.4737 -0.45832,-9.22195 0,-13.66667c0.15367,-1.49026 -0.32713,-3.37507 0.73223,-4.43443c1.05936,-1.05936 2.95629,-0.48816 4.43443,-0.73223l1.79057,0.46163c0,0 1.14402,0.38134 1.57811,1.40886zM235.39504,169.70452c0.06297,0.73584 -0.06171,1.49074 -0.06171,2.23298c0,3.66667 0,7.33333 0,11c-0.0176,1.34582 -0.10566,2.68981 -0.15345,4.03493c0.02098,-0.0917 0.05122,-0.16898 0.09407,-0.21364c0.66169,-0.68975 1.49967,-1.19914 2.33333,-1.66667c0.87422,-0.49028 1.81243,-0.86742 2.76126,-1.19046c3.68775,-1.25554 8.1548,-1.09347 11.63774,-2.47471c0.39514,-0.1567 -0.91171,0.16726 -1.27406,-0.05501c-1.49571,-0.91749 -2.58925,-2.38241 -4.01866,-3.4001c-3.494,-2.48759 -6.59853,-6.10657 -10.5317,-7.73647c0,0 -0.3947,-0.16916 -0.78683,-0.53084zM234.72754,168.70438c-0.03797,-0.11509 -0.06697,-0.2371 -0.0846,-0.36616c-0.01408,0.00873 -0.02803,0.0199 -0.04185,0.03372c-0.1116,0.1116 -0.02289,0.21884 0.12644,0.33244z" fill="#ffffff" stroke="none" stroke-width="0.5"/></g></g></svg>