<svg version="1.1" xmlns="http://www.w3.org/2000/svg" xmlns:xlink="http://www.w3.org/1999/xlink" width="244" height="116" viewBox="0,0,244,116"><g transform="translate(-118,-122)"><g data-paper-data="{&quot;isPaintingLayer&quot;:true}" fill-rule="nonzero" stroke-linejoin="miter" stroke-miterlimit="10" stroke-dasharray="" stroke-dashoffset="0" style="mix-blend-mode: normal"><path d="M118,238v-116h244v116z" fill="#000000" stroke="none" stroke-width="0" stroke-linecap="butt"/><path d="M314.10938,178l-147,2l60,-31" fill="none" stroke="#ffffff" stroke-width="0.5" stroke-linecap="round"/><path d="M167.10938,179l53,32" fill="none" stroke="#ffffff" stroke-width="0.5" stroke-linecap="round"/><path d="M229.46813,213.35876c-3.35876,3.35876 -6.71751,0 -6.71751,0l-1.13847,-1.31817c-2.91557,-0.77707 -5.73818,-1.78785 -8.5897,-2.77359c-2.01313,-1.31343 -3.8472,-2.93078 -6,-4c-1.08194,-0.53736 -2.38503,-0.58752 -3.4103,-1.22641c-1.60034,-0.99724 -2.35489,-3.07849 -4,-4c-0.91964,-0.51514 -2.09612,-0.45767 -3,-1c-0.80845,-0.48507 -1.19155,-1.51493 -2,-2c-0.90388,-0.54233 -2.10037,-0.45065 -3,-1c-0.98241,-0.5999 -1.62508,-1.63617 -2.51422,-2.36722c-1.56672,-1.28814 -3.74374,-1.59393 -5.48578,-2.63278c-0.80975,-0.48289 -1.20331,-1.49584 -2,-2c-1.78145,-1.12733 -4.17483,-0.94491 -6,-2c-0.81624,-0.47185 -1.20331,-1.49584 -2,-2c-2.01822,-1.27716 -5.72006,-1.77275 -8.00486,-2.53435c0,0 -4.50625,-1.50208 -3.00416,-6.00833c1.05072,-3.15215 3.5714,-3.36437 4.99142,-3.20728c0.31612,-0.04064 0.51483,-0.04064 0.51483,-0.04064c0.32987,0 0.65975,0 0.98962,0c1.83439,-0.0487 4.06591,-0.37475 5.51316,-1.29059c0.79669,-0.50416 1.17096,-1.55103 2,-2c1.46993,-0.79604 3.10088,-1.30227 4.73636,-1.64807c0.77899,-0.16471 1.62308,0.37563 2.38439,0.14248c2.06122,-0.63124 3.34199,-2.79664 5.28956,-3.72081c1.37132,-0.65073 2.83188,-1.15439 4.32605,-1.42167c0.64515,-0.1154 1.34126,0.55968 1.94312,0.30024c0.86579,-0.37322 1.12462,-1.64985 2,-2c0.92848,-0.37139 2.06596,0.35717 3,0c0.65851,-0.25181 0.71239,-1.29548 1.32052,-1.65216c5.03391,-2.95256 11.05536,-3.39411 16.12075,-6.5056c1.64858,0 3.45891,-0.37049 4.74165,-1.40605l3,-2c0,0 3.95224,-2.63483 6.58706,1.31741c2.63483,3.95224 -1.31741,6.58706 -1.31741,6.58706l-3,2c-2.19426,1.33662 -4.68904,2.59395 -7.25835,2.59395c-4.19382,3.15204 -9.62611,2.87753 -13.87925,5.4944c-1.01141,0.6223 -1.58203,1.89416 -2.67948,2.34784c-0.92415,0.38203 -2.07152,-0.37139 -3,0c-0.87538,0.35015 -1.11861,1.66527 -2,2c-1.79556,0.6819 -4.00899,-0.04194 -5.69944,0.86157c10.62723,0 21.25446,0 31.88169,0c8,0 16,0 24,0c3.5156,0 7.79399,0.67858 11.23913,0.06133c1.03757,-0.1859 1.95563,-0.85718 3,-1c8.25051,-1.1283 17.42497,-0.06133 25.76087,-0.06133c4.66667,0 9.33333,0 14,0c3.58514,0 7.11792,0.46717 10.49792,-0.75625l3.50208,-0.24375c0,0 4.75,0 4.75,4.75c0,4.75 -4.75,4.75 -4.75,4.75l-0.49792,-0.24375c-8.42678,2.6633 -18.69061,1.24375 -27.50208,1.24375c-6,0 -12,0 -18,0c-2.07981,0 -4.18247,-0.37076 -6.23913,-0.06133c-1.04236,0.15682 -1.95866,0.83653 -3,1c-4.03297,0.6331 -8.67318,0.06133 -12.76087,0.06133c-8,0 -16,0 -24,0c-12.2634,0 -24.52681,0 -36.79021,0c0.0901,0.07714 0.18532,0.1477 0.28743,0.20941c0.77107,0.46596 1.78937,0.3599 2.5897,0.77359c2.03294,1.05083 3.43666,3.06804 5.4103,4.22641c0.90908,0.53356 2.09612,0.45767 3,1c0.80845,0.48507 1.19155,1.51493 2,2c0.90388,0.54233 2.10739,0.43932 3,1c1.59675,1.00297 2.35554,3.07734 4,4c0.7857,0.44083 1.78491,0.36864 2.5897,0.77359c0.82863,0.41696 4.87748,3.22853 6,4c3.17147,0.99898 6.28745,2.08076 9.4103,3.22641l2.86153,2.68183c0,0 3.35876,3.35876 0,6.71751z" fill="#ffffff" stroke="none" stroke-width="0.5" stroke-linecap="butt"/></g></g></svg>