<svg version="1.1" xmlns="http://www.w3.org/2000/svg" xmlns:xlink="http://www.w3.org/1999/xlink" width="246.46774" height="235.17742" viewBox="0,0,246.46774,235.17742"><g transform="translate(-116.76613,-62.41129)"><g data-paper-data="{&quot;isPaintingLayer&quot;:true}" fill-rule="nonzero" stroke-linejoin="miter" stroke-miterlimit="10" stroke-dasharray="" stroke-dashoffset="0" style="mix-blend-mode: normal"><path d="M362.98387,180c0,64.80438 -55.06175,117.33871 -122.98387,117.33871c-67.92212,0 -122.98387,-52.53433 -122.98387,-117.33871c0,-64.80438 55.06175,-117.33871 122.98387,-117.33871c67.92212,0 122.98387,52.53433 122.98387,117.33871z" fill="#ffea00" stroke="#000000" stroke-width="0.5" stroke-linecap="butt"/><path d="" fill="#ffffff" stroke="#000000" stroke-width="0.5" stroke-linecap="butt"/><path d="" fill="#ffffff" stroke="#000000" stroke-width="0.5" stroke-linecap="butt"/><path d="M135.2495,117.90323l179.03226,156.45161" fill="none" stroke="#000000" stroke-width="0.5" stroke-linecap="round"/><path d="M223.15272,194.51613l106.45161,-93.54839" fill="none" stroke="#000000" stroke-width="0.5" stroke-linecap="round"/><text transform="translate(181.21724,106.6129) scale(0.5,0.5)" font-size="40" xml:space="preserve" fill="#000000" fill-rule="nonzero" stroke="none" stroke-width="1" stroke-linecap="butt" stroke-linejoin="miter" stroke-miterlimit="10" stroke-dasharray="" stroke-dashoffset="0" font-family="Sans Serif" font-weight="normal" text-anchor="start" style="mix-blend-mode: normal"><tspan x="0" dy="0">kriskin.net</tspan></text><path d="M177.99143,207.41935c0,6.68086 -4.87432,12.09677 -10.8871,12.09677c-6.01278,0 -10.8871,-5.41591 -10.8871,-12.09677c0,-6.68086 4.87432,-12.09677 10.8871,-12.09677c6.01278,0 10.8871,5.41591 10.8871,12.09677z" fill="#ff2400" stroke="none" stroke-width="0" stroke-linecap="butt"/><path d="M223.95917,146.93548c0,6.23547 -4.87432,11.29032 -10.8871,11.29032c-6.01278,0 -10.8871,-5.05485 -10.8871,-11.29032c0,-6.23547 4.87432,-11.29032 10.8871,-11.29032c6.01278,0 10.8871,5.05485 10.8871,11.29032z" fill="#00ff36" stroke="none" stroke-width="0" stroke-linecap="butt"/><path d="M319.12046,230c0,6.68086 -5.23538,12.09677 -11.69355,12.09677c-6.45817,0 -11.69355,-5.41591 -11.69355,-12.09677c0,-6.68086 5.23538,-12.09677 11.69355,-12.09677c6.45817,0 11.69355,5.41591 11.69355,12.09677z" fill="#00b7ff" stroke="none" stroke-width="0" stroke-linecap="butt"/><path d="M233.63659,242.90323c0,6.23547 -5.05485,11.29032 -11.29032,11.29032c-6.23547,0 -11.29032,-5.05485 -11.29032,-11.29032c0,-6.23547 5.05485,-11.29032 11.29032,-11.29032c6.23547,0 11.29032,5.05485 11.29032,11.29032z" fill="#8a00ff" stroke="none" stroke-width="0" stroke-linecap="butt"/></g></g></svg>