<svg version="1.1" xmlns="http://www.w3.org/2000/svg" xmlns:xlink="http://www.w3.org/1999/xlink" width="166.99821" height="156.20427" viewBox="0,0,166.99821,156.20427"><g transform="translate(-194.16847,-62.60825)"><g data-paper-data="{&quot;isPaintingLayer&quot;:true}" fill-rule="nonzero" stroke="none" stroke-width="0.5" stroke-linecap="butt" stroke-linejoin="miter" stroke-miterlimit="10" stroke-dasharray="" stroke-dashoffset="0" style="mix-blend-mode: normal"><path d="M195.8761,163.80921c-2.37171,-0.79057 -1.58114,-3.16228 -1.58114,-3.16228l1.3436,-3.67121c4.69815,-3.71494 10.16304,-5.95511 14.76098,-9.79211c0,0 0.93254,-0.77712 2.0395,-0.59852c0.53729,-0.70954 1.12434,-1.39607 1.79321,-2.04032c0.90988,-0.87639 1.63961,-2.06901 2.81106,-2.54193c1.22441,-0.49431 2.63677,-0.15419 3.95671,-0.1903c4.32902,-0.11842 10.50791,0.29373 14.90501,2.63865c0.24461,-1.04992 0.46112,-2.13253 0.58833,-3.29379c0.60099,-5.48626 0.23134,-11.30506 0.07032,-16.94334c-1.8859,-0.47066 -3.82216,-0.79401 -5.57504,-1.61523l-0.00002,-0.00005c-1.46233,-0.6851 -2.92487,-1.54235 -3.97538,-2.7688c-0.73725,-0.86073 -0.55432,-2.23283 -1.13986,-3.20316c-0.48712,-0.80722 -1.52243,-1.18709 -2,-2c-1.75419,-2.98598 -2.34637,-7.34173 -3.27367,-10.61536c-0.71823,-2.53553 -2.11118,-4.84211 -0.9094,-7.65568c1.54877,-3.62592 4.47745,-3.63536 7.70336,-4.46865c4.04074,-1.04377 7.47587,-1.07464 11.60634,-1.07464c0.91388,0 6.49925,-0.04804 6.95671,0.1903c1.80806,0.94202 2.96929,2.79451 4.45393,4.19176c1.82262,2.3471 4.16499,4.30322 5.73124,6.82863c0.59321,0.95648 0.59947,2.18481 1.1039,3.19093c1.93058,3.85067 5.26665,7.10298 1.74098,11.61586c-1.05509,1.35053 -2.66503,2.25408 -4.26231,2.87525c-1.03293,0.40169 -2.23139,-0.11074 -3.324,0.07499c-1.03919,0.17665 -1.95936,0.83216 -3,1c-2.13838,0.34488 -4.57956,0.20342 -6.89885,0.1019c0.00182,0.32728 0.00513,0.65553 0.00971,0.98465c0.02457,0.17393 0.02932,0.36156 0.00902,0.56364c0.11439,6.35105 0.64793,13.00367 -0.05252,19.23143c-0.21266,1.89079 -0.70129,3.57535 -1.13854,5.24899c0.3816,-0.09832 0.67072,-0.09832 0.67072,-0.09832c0.49542,0 10.1432,-0.00996 10.40046,0.03228c2.94672,0.48388 5.57378,2.15076 8.40477,3.10094c1.39392,0.46785 2.95527,0.44953 4.26921,1.10943c5.60903,2.81702 10.31932,8.11556 14.69334,12.48958l0.73223,3.76777c0,0 0,2.5 -2.5,2.5c-2.5,0 -2.5,-2.5 -2.5,-2.5l0.73223,-0.23223c-3.93758,-3.93758 -8.247,-8.99402 -13.30666,-11.51042c-1.14477,-0.56935 -2.51699,-0.48891 -3.73079,-0.89057c-2.91621,-0.96501 -4.41428,-2.39025 -7.59523,-2.89906c-3.1597,-0.50541 -6.39968,0.03228 -9.59954,0.03228c0,0 -0.2027,0 -0.49266,-0.05772c0.0215,0.88338 -0.01079,1.75625 -0.00734,2.55772c0.03527,8.19438 0.54296,16.43872 -1.04855,24.49029c0,0 -0.00067,0.00333 -0.00207,0.00971c0.036,0 0.07199,0 0.10799,0c0.98933,-0.45482 1.66153,-1.585 2.71817,-1.89273c1.32035,-0.38452 2.77422,-0.33344 4.12492,-0.07499c1.53433,0.29359 3.22487,0.6345 4.36731,1.69995c1.00219,0.93465 0.98232,2.56014 1.54193,3.81106c1.9459,4.34979 2.31778,6.29639 2.1903,10.95671c-0.03611,1.31993 0.29309,2.72794 -0.1903,3.95671c-0.97963,2.49017 -3.72924,3.90255 -5.09525,6.20356c-0.64609,1.08832 -1.77717,2.65325 -1.01026,3.66009c0.49361,0.64804 1.48324,0.68172 2.18256,1.09952c3.13562,1.8733 6.36749,3.55918 9.33771,5.6874l2.27554,-0.10727c0,0 2.5,0 2.5,2.5c0,2.5 -2.5,2.5 -2.5,2.5l-3.72446,-0.10727c-3.51393,-2.22008 -7.28268,-3.88946 -10.66229,-6.3126c-1.29877,-0.93121 -3.05208,-1.49756 -3.81744,-2.90048c-1.12743,-2.06663 -0.06637,-6.44003 0.98974,-8.33991c0.90333,-1.62505 2.12484,-3.05842 3.32581,-4.47774c0.44294,-0.52347 1.31715,-0.68491 1.57894,-1.3187c0.26114,-0.63224 -0.16451,-1.35973 -0.1903,-2.04329c-0.0682,-1.80739 0.58573,-3.69296 0.06688,-5.42562c-0.38971,-1.30138 -1.36981,-2.35726 -1.87658,-3.61767c-0.69994,-1.74085 -1.17886,-3.66447 -3.96584,-2.56398c-0.7292,0.28794 -1.29023,0.91666 -1.91405,1.40685c-0.24519,0.23208 -0.52667,0.38727 -0.79345,0.49103c-0.09457,0.04026 -0.19189,0.07468 -0.2925,0.10212c-1.35933,0.37083 -2.80687,0.13548 -4.22427,0.10727c-2.8334,0 -5.6668,0 -8.50019,0c-2.09215,0 -4.27137,-0.70762 -6.27554,-0.10727c-1.10721,0.33166 -3.00007,2.22452 -3.33173,3.33173c-0.50471,1.68491 0.1107,3.51667 0.10727,5.27554c-0.00644,3.30442 0.19168,5.71575 -1.26536,9.0617c-0.19165,0.4401 -4.42848,4.76277 -4.92031,5.06492c-0.83106,0.51057 -2.03401,0.25233 -2.79684,0.86014c-0.8289,0.66044 -0.93748,1.94131 -1.67474,2.7027c-1.28592,1.32802 -2.87683,2.32224 -4.31524,3.48335l-3.23157,1.96507c0,0 -2.13788,1.29594 -3.43382,-0.84194c-1.29594,-2.13788 0.84194,-3.43382 0.84194,-3.43382l2.95974,-1.78798c1.16448,-0.9212 2.46516,-1.6925 3.49345,-2.7636c0.93141,-0.97018 1.2764,-2.45548 2.32526,-3.2973c1.81923,-1.46013 5.19332,-1.56908 6.32169,-4.26913c2.50695,-5.99884 -1.75332,-12.33052 3.42803,-17.51187c3.58828,-3.58828 7.21893,-2.73223 11.76777,-2.73223c2.18215,0 4.36429,0 6.54644,0c-0.08652,-0.54715 0.00211,-0.99029 0.00211,-0.99029c1.30648,-6.44934 0.95099,-12.84523 0.95144,-19.41274c0.00003,-0.4257 0.17543,-2.1119 0.23585,-3.87969c-1.23584,-0.65429 -1.23584,-2.21727 -1.23584,-2.21727c0.00887,-0.93412 0.09626,-1.81669 0.23088,-2.67119c-2.59575,-1.94342 -7.7826,-2.84581 -10.73088,-2.82881c-1.68227,0.0097 -3.47716,-0.80458 -5.04329,-0.1903c-0.58382,0.22899 -0.75793,1.00254 -1.18894,1.45807c-1.24996,1.32106 -2.32326,2.80374 -3.30521,4.34395c-0.45033,-0.34124 -0.92974,-0.66184 -1.41717,-0.94833c-4.17727,3.31807 -8.95207,5.4217 -13.35064,8.42334l-0.6564,2.32879c0,0 -0.79057,2.37171 -3.16228,1.58114zM241.45738,115.90096c2.07504,0.11549 4.27031,0.26731 6.14216,-0.05618c1.0387,-0.17951 1.95963,-0.83045 3,-1c2.33005,-0.37973 2.72767,0.92641 4.41369,-1.04977c1.71716,-2.01267 -1.56243,-4.98689 -2.25902,-6.38414c-0.43852,-0.87959 -0.38316,-1.97069 -0.8961,-2.80907c-1.39421,-2.27877 -3.56061,-3.98924 -5.19769,-6.10031c-0.87238,-0.95977 -1.49373,-2.23112 -2.61713,-2.87931c-1.45714,-0.84075 -3.361,0.1903 -5.04329,0.1903c-0.02706,0 -0.05408,0 -0.08106,0.00001c-0.30262,-0.02757 -0.60914,-0.04166 -0.91895,-0.04166c-0.34625,0 -0.68839,0.0176 -1.02557,0.05195c-2.85546,0.03722 -5.39648,0.20333 -8.36809,0.91506c-1.47864,0.35415 -3.83958,0.08122 -4.29664,1.53135c-0.31527,1.00025 0.956,3.87759 1.0906,4.34432c0.77415,2.68448 1.21337,6.92636 2.72633,9.38464c0.49416,0.80293 1.51716,1.19021 2,2c0.49952,0.83776 0.29223,2.00386 0.86014,2.79684c0.83208,1.16185 2.69055,1.76317 4.58327,2.19514c-0.04502,-0.20254 -0.07003,-0.42759 -0.07003,-0.67765c0,-1.08318 0.46931,-1.69705 1.00126,-2.04495c0.00398,-0.09204 0.02052,-0.31693 0.08935,-0.59524c0.46046,0.06495 0.93099,0.09854 1.40937,0.09854c1.14244,0 2.24013,-0.19158 3.2627,-0.54435c0.10341,0.24659 0.16176,0.48451 0.19468,0.67449z" fill="#6700ff"/><path d="" fill="#6700ff"/><path d="" fill="#6700ff"/><path d="M242.16667,103.4375c0,-1.38071 1.11929,-2.5 2.5,-2.5c1.38071,0 2.5,1.11929 2.5,2.5c0,1.38071 -1.11929,2.5 -2.5,2.5c-1.38071,0 -2.5,-1.11929 -2.5,-2.5z" fill="#6700ff"/><path d="M234.5,101.10417c0,-1.38071 1.11929,-2.5 2.5,-2.5c1.38071,0 2.5,1.11929 2.5,2.5c0,1.38071 -1.11929,2.5 -2.5,2.5c-1.38071,0 -2.5,-1.11929 -2.5,-2.5z" fill="#6700ff"/><path d="M243.14154,109.79105c-0.35355,2.47487 -2.82843,2.12132 -2.82843,2.12132l-1.97978,-0.30821c-0.88889,0 -1.77778,0 -2.66667,0c0,0 -2.5,0 -2.5,-2.5c0,-2.5 2.5,-2.5 2.5,-2.5c0.88889,0 1.77778,0 2.66667,0l2.68689,0.35846c0,0 2.47487,0.35355 2.12132,2.82843z" fill="#6700ff"/><path d="" fill="#720000"/><path d="" fill="#720000"/><path d="" fill="#736767"/><path d="M296.0732,158.28387c0.21872,0.01402 0.44666,0.03711 0.67879,0.05949l1.01195,-2.02389l0.00766,0.00383c0.00314,-0.01253 0.00632,-0.02505 0.00953,-0.03757c0.40064,-1.56212 1.50008,-2.85122 2.29175,-4.26055c-0.12275,0.17375 -0.24425,0.34765 -0.36444,0.52163c-1.28274,1.85691 -2.46374,3.79409 -3.63523,5.73707zM304.00427,160.26512c-3.44591,4.59345 -11.48254,3.12456 -16.56003,3.90795l-3.74503,0.99867c-0.22189,0.06451 -0.45652,0.0991 -0.69922,0.0991c-1.20821,0 -2.21624,-0.85708 -2.44926,-1.99642c-0.71417,0.10013 -1.63688,-0.05778 -2.33738,-1.17859c-0.63962,-1.02339 -0.47645,-1.86151 -0.13651,-2.45476l-0.49637,-2.23368c-0.70271,-2.10901 -1.51373,-3.88028 -2.53435,-5.69142c-0.09838,0.01177 -0.19852,0.01782 -0.30008,0.01782c-1.38071,0 -2.5,-1.11929 -2.5,-2.5c0,-0.59107 0.20512,-1.13423 0.54806,-1.56218l3.07758,-3.91349c0.75935,-1.48363 2.06044,-2.62025 3.09078,-3.93028c3.68526,-4.68566 7.58954,-9.16699 11.47511,-13.68676l-0.00697,-0.15495c0,0 1.11803,-2.23607 3.3541,-1.11803c0.31056,0.15528 0.55642,0.33212 0.74956,0.52155c6.20925,-6.139 12.4799,-12.21453 18.90327,-18.13464c4.69172,-4.32413 9.41135,-10.01374 14.70652,-13.55428l3.67116,-3.38352c0.44605,-0.41376 1.04336,-0.66673 1.69976,-0.66673c0.10341,0 0.20536,0.00628 0.30548,0.01848c5.08719,-7.34425 10.17284,-14.68117 15.3367,-21.93671l2.87975,-4.04623c0.45128,-0.65125 1.20398,-1.07777 2.05631,-1.07777c1.38071,0 2.5,1.11929 2.5,2.5c0,0.41287 -0.10009,0.80237 -0.27732,1.14555l-0.79806,1.62939c0.34398,-0.17829 0.73465,-0.27902 1.14885,-0.27902c1.38071,0 2.5,1.11929 2.5,2.5c0,0.44864 -0.11817,0.86967 -0.32509,1.23367l-0.93168,1.71625c0.23873,-0.07573 0.49298,-0.11659 0.75677,-0.11659c1.38071,0 2.5,1.11929 2.5,2.5c0,0.57624 -0.19496,1.10694 -0.52251,1.52975l-2.53094,3.33849c-2.10198,2.77266 -4.25913,5.50558 -6.46216,8.2045c-1.62371,2.38531 -3.25571,4.7683 -4.97188,7.0771c-3.16835,4.26246 -6.4037,8.50434 -9.71458,12.69681c-8.07426,13.77423 -16.39266,27.46148 -24.78739,40.96604l-2.36429,3.80342c-0.43673,0.72914 -1.23449,1.21722 -2.14625,1.21722c-0.5677,0 -1.0912,-0.18922 -1.51087,-0.50803c-0.75488,2.48502 -1.93751,6.21704 -2.15152,6.50231zM280.45727,151.29716c-0.01497,-0.26524 -0.02349,-0.53459 -0.02645,-0.80632c-0.62339,-0.63089 -1.1074,-1.46138 -1.38162,-2.43593l-0.20905,0.24389c0.59319,1.0063 1.1277,1.9929 1.61711,2.99837zM306.1469,125.3224c-2.71354,3.25763 -5.78712,6.30879 -8.79778,9.15792c-0.1655,0.15662 -0.33096,0.31125 -0.4964,0.46399c0.62954,0.04631 1.19428,0.32575 1.60823,0.75234c2.41592,-2.9626 4.84259,-5.91614 7.29929,-8.84227c0.11468,-0.50987 0.24272,-1.02004 0.38666,-1.53198zM292.22846,140.08427l1.37532,-2.35768c-1.7903,1.42736 -3.61796,2.73363 -5.54459,4.07151c0.77804,0.02498 1.46628,0.40547 1.90762,0.98434c0.79506,-0.86987 1.55869,-1.76217 2.26166,-2.69817zM322.97919,105.26064c-0.34261,0.31577 -0.68522,0.63153 -1.02783,0.9473c0.06582,0.08207 0.12657,0.16839 0.18177,0.25847c0.2822,-0.40178 0.56421,-0.80371 0.84605,-1.20577zM337.69308,92.85586c-1.50798,2.17673 -3.01618,4.35403 -4.52666,6.52997c-0.66309,1.35478 -1.31501,2.71425 -1.95738,4.07777c0.88765,-1.13302 1.77179,-2.26774 2.65073,-3.40557c1.31328,-2.38137 2.59331,-4.7809 3.83332,-7.20217z" fill="#736767"/><path d="M288.93379,176.02472c-1.92055,1.60046 -3.52101,-0.32009 -3.52101,-0.32009l-1.66667,-2c-1.959,-2.35081 -3.85919,-4.71892 -5.96444,-6.9286c-2.34851,2.10284 -4.98848,3.80735 -7.51454,5.91536l-1.80989,0.78449c0,0 -2.37171,0.79057 -3.16228,-1.58114c-0.79057,-2.37171 1.58114,-3.16228 1.58114,-3.16228l0.19011,0.11782c2.51017,-2.08908 5.30032,-3.74496 7.62322,-5.93589c-1.21206,-0.94358 -2.36929,-1.96065 -3.45719,-3.04245l-1,-1c0,0 -1.76777,-1.76777 0,-3.53553c1.76777,-1.76777 3.53553,0 3.53553,0l1,1c1.08085,1.08789 2.24887,2.09576 3.48146,3.01031c0.58657,-0.21552 1.34321,-0.22497 2.20387,0.38979c1.68306,1.20219 0.97908,2.80221 0.68578,3.31893c2.28245,2.37231 4.33648,4.91404 6.44835,7.44828l1.66667,2c0,0 1.60046,1.92055 -0.32009,3.52101z" fill="#720000"/><path d="" fill="#919191"/><path d="" fill="#919191"/></g></g></svg>