<svg version="1.1" xmlns="http://www.w3.org/2000/svg" xmlns:xlink="http://www.w3.org/1999/xlink" width="55.75154" height="69.89633" viewBox="0,0,55.75154,69.89633"><g transform="translate(-212.12423,-145.05183)"><g data-paper-data="{&quot;isPaintingLayer&quot;:true}" fill-rule="nonzero" stroke-linejoin="miter" stroke-miterlimit="10" stroke-dasharray="" stroke-dashoffset="0" style="mix-blend-mode: normal"><path d="M254.19529,189.26124c-1.65494,-1.01367 -1.4154,-3.16951 -1.4154,-3.16951c0.55744,-4.06214 -1.17295,-6.988 -2.44384,-10.81177c-2.42566,-7.29818 -4.26277,-14.51208 -10.77764,-19.56413c-6.00369,-4.65565 -16.50166,-7.06222 -20.02363,1.94937c-0.68989,1.7652 -0.52154,5.4328 -0.51628,7.31844c0,8.10415 -0.86881,16.28101 4.17887,23.22833c2.46666,3.39496 6.0442,5.25073 8.9575,8.16099c2.4329,2.43036 4.28274,6.11906 7.24033,8.06913c2.1985,1.44957 4.34778,1.50364 6.76907,2.13935c1.91676,0.50325 3.69637,1.96253 5.67029,1.78686c2.55216,-0.22714 2.10832,-3.74485 2.69269,-5.11694c1.30681,-3.06837 3.52405,-7.24797 6.76065,-8.35674c-4.02986,-1.10711 -5.99098,-2.8232 -7.09262,-5.63337zM259.20333,181.98083c0.54038,0.89607 0.54038,1.88449 0.54038,1.88449l-0.01641,0.41141c-0.00975,3.90312 5.53702,7.24914 8.14848,10.03258c-2.23655,3.61214 -5.56139,7.69389 -7.30806,11.63563c-2.36596,5.3393 -0.534,7.15067 -7.67373,8.95177c-1.52053,0.38357 -6.78138,-1.48896 -8.39841,-1.91543c-3.63649,-0.95907 -5.16812,-0.71919 -8.78055,-3.04385c-3.44392,-2.21623 -5.50956,-6.15836 -8.30929,-8.96141c-2.03134,-2.03375 -4.60171,-3.47774 -6.62789,-5.51663c-4.20234,-4.22869 -7.37823,-10.30474 -8.33045,-16.24756c-0.70129,-4.37677 -0.0427,-9.7824 -0.0427,-14.22818c0.00744,-3.05462 -0.19584,-6.85334 0.96464,-9.7121c5.39871,-13.29939 20.69854,-12.22086 30.32753,-4.71475c7.51342,5.85695 10.07257,14.13477 12.91702,22.64198c1.06613,3.18859 2.12902,5.85437 2.58945,8.78207z" fill="#886841" stroke="none" stroke-width="0.5" stroke-linecap="butt"/><path d="M261.34196,194.93272c-3.2366,1.10877 -5.47309,5.3065 -6.7799,8.37487c-0.58437,1.37209 -0.15011,4.8947 -2.70227,5.12184c-1.97392,0.17568 -3.76411,-1.28026 -5.68087,-1.7835c-2.42129,-0.63571 -4.58718,-0.68817 -6.78568,-2.13774c-2.95759,-1.95007 -4.83437,-5.6454 -7.26727,-8.07575c-2.9133,-2.91026 -6.5214,-4.79657 -8.98806,-8.19153c-5.04768,-6.94732 -4.17333,-15.19143 -4.17333,-23.29557c-0.00526,-1.88564 -0.16454,-5.56355 0.52535,-7.32874c3.52197,-9.01159 14.06326,-6.62254 20.06694,-1.96689c6.51487,5.05205 8.41362,12.30445 10.83928,19.60263c1.27089,3.82377 3.00072,6.80604 2.44329,10.86818c0,0 -0.24389,2.16349 1.41105,3.17716c1.10164,2.81017 3.06162,4.52793 7.09148,5.63504z" data-paper-data="{&quot;noHover&quot;:false,&quot;origItem&quot;:[&quot;Path&quot;,{&quot;applyMatrix&quot;:true,&quot;selected&quot;:true,&quot;segments&quot;:[[[254.19529,189.26124],[1.10164,2.81017],[-1.65494,-1.01367],7],[[252.77989,186.09173],[0,0],[0.55744,-4.06214],7],[[250.33605,175.27996],[1.27089,3.82377],[-2.42566,-7.29818],7],[[239.55841,155.71583],[6.51487,5.05205],[-6.00369,-4.65565],7],[[219.53478,157.6652],[3.52197,-9.01159],[-0.68989,1.7652],7],[[219.0185,164.98363],[-0.00526,-1.88564],[0,8.10415],7],[[223.19738,188.21197],[-5.04768,-6.94732],[2.46666,3.39496],7],[[232.15487,196.37295],[-2.9133,-2.91026],[2.4329,2.43036],7],[[239.39521,204.44208],[-2.95759,-1.95007],[2.1985,1.44957],7],[[246.16428,206.58143],[-2.42129,-0.63571],[1.91676,0.50325],7],[[251.83457,208.36829],[-1.97392,0.17568],[2.55216,-0.22714],7],[[254.52725,203.25135],[-0.58437,1.37209],[1.30681,-3.06837],7],[[261.2879,194.89461],[-3.2366,1.10877],[-4.02986,-1.10711],7]],&quot;closed&quot;:true}]}" fill="#c0935c" stroke="none" stroke-width="0.5" stroke-linecap="butt"/><path d="M220.52457,157.94928l6.29389,10.73664" fill="none" stroke="#000000" stroke-width="1.5" stroke-linecap="round"/><path d="M230.15053,152.39584l6.66412,13.69848" fill="none" stroke="#000000" stroke-width="1.5" stroke-linecap="round"/></g></g></svg>