<svg version="1.1" xmlns="http://www.w3.org/2000/svg" xmlns:xlink="http://www.w3.org/1999/xlink" width="83" height="83" viewBox="0,0,83,83"><defs><linearGradient x1="197.375" y1="178.1328" x2="280.375" y2="178.1328" gradientUnits="userSpaceOnUse" id="color-1"><stop offset="0" stop-color="#8dc63f"/><stop offset="1" stop-color="#006838"/></linearGradient><radialGradient cx="238.875" cy="178.1328" r="33.9434" gradientUnits="userSpaceOnUse" id="color-2"><stop offset="0" stop-color="#d7df23"/><stop offset="1" stop-color="#009444"/></radialGradient></defs><g transform="translate(-197.375,-136.632)"><g data-paper-data="{&quot;isPaintingLayer&quot;:true}" fill-rule="nonzero" stroke="none" stroke-linecap="butt" stroke-linejoin="miter" stroke-miterlimit="10" stroke-dasharray="" stroke-dashoffset="0" style="mix-blend-mode: normal"><path d="M280.375,178.132c0,22.882 -18.616,41.5 -41.5,41.5c-22.883,0 -41.5,-18.618 -41.5,-41.5c0,-22.883 18.616,-41.5 41.5,-41.5c22.884,0 41.5,18.618 41.5,41.5z" fill="url(#color-1)" stroke-width="1"/><path d="M204.931,178.133c0,-18.74675 15.19725,-33.944 33.944,-33.944c18.74675,0 33.944,15.19725 33.944,33.944c0,18.74675 -15.19725,33.944 -33.944,33.944c-18.74675,0 -33.944,-15.19725 -33.944,-33.944z" fill="url(#color-2)" stroke-width="1"/><path d="M226.59231,185.0936c-2.5,0 -2.5,-2.5 -2.5,-2.5l0.12829,-0.05926c-2.50872,-7.59336 -3.95252,-17.07304 -3.95252,-25.01071c0,0 0,-2.5 2.5,-2.5c2.5,0 2.5,2.5 2.5,2.5c0,7.41188 1.31216,16.35083 3.69594,23.42957l0.12829,1.6404c0,0 0,2.5 -2.5,2.5z" fill="#ffffff" stroke-width="0.5"/><path d="M253.30267,185.39023c-2.37171,0.79057 -3.16228,-1.58114 -3.16228,-1.58114l-0.9044,-2.73743c-0.32764,-1.94917 -1.02515,-3.82602 -1.3243,-5.77977c-0.64916,-4.23964 -0.17916,-8.64685 -0.44279,-12.91697c-0.17023,-2.75732 -1.2823,-5.35728 -2.03467,-7.98871c0,0 -0.6868,-2.40381 1.71701,-3.09061c2.40381,-0.6868 3.09061,1.71701 3.09061,1.71701c0.86036,3.01348 1.99088,5.84884 2.21447,9.00787c0.29389,4.15209 -0.23038,8.45721 0.40704,12.57791c0.2756,1.78168 0.93137,3.48925 1.22519,5.26801l0.79526,2.36155c0,0 0.79057,2.37171 -1.58114,3.16228z" fill="#ffffff" stroke-width="0.5"/><path d="M264.25301,180.35754c2.23607,1.11803 1.11803,3.3541 1.11803,3.3541l-0.25717,0.4186c-1.26579,4.29025 -2.54551,6.16719 -6.24797,8.69902c-1.8128,0.9064 -3.43482,2.16727 -5.25541,3.05792c-1.59942,0.78244 -3.56345,0.56119 -5.17808,1.31173c-0.78082,0.36296 -1.22223,1.26293 -1.99712,1.63837c-1.69352,0.82053 -5.01689,1.40703 -6.91831,1.54696c-3.27798,0.24123 -6.28476,-0.79123 -9.48273,-1.29786c-2.77384,-0.43943 -6.76042,-1.29771 -9.121,-2.96939c-3.88017,-2.7478 -7.12914,-8.6912 -10.24126,-12.32132c0,0 -1.62698,-1.89814 0.27116,-3.52512c1.89814,-1.62698 3.52512,0.27116 3.52512,0.27116c2.04861,2.39048 3.99493,4.83457 5.98712,7.26935c1.13055,1.38171 1.84616,3.19369 3.31769,4.20455c1.78433,1.22573 4.93154,1.81795 7.02576,2.12958c2.79815,0.41638 5.511,1.48376 8.36368,1.25163c0.92912,-0.0756 4.06497,-0.52813 4.9793,-1.00252c0.84585,-0.43886 1.38186,-1.37251 2.25202,-1.76095c1.57373,-0.7025 3.48707,-0.44995 5.01987,-1.23775c1.69755,-0.87248 3.2354,-2.03732 4.94254,-2.89089c2.66292,-1.70658 3.11399,-2.69483 3.94998,-5.74808l0.59266,-1.28106c0,0 1.11803,-2.23607 3.3541,-1.11803z" fill="#ffffff" stroke-width="0.5"/></g></g></svg>