<svg version="1.1" xmlns="http://www.w3.org/2000/svg" xmlns:xlink="http://www.w3.org/1999/xlink" width="91.001" height="54.672" viewBox="0,0,91.001,54.672"><defs><linearGradient x1="195.1699" y1="176.1562" x2="286.1699" y2="176.1562" gradientUnits="userSpaceOnUse" id="color-1"><stop offset="0.012" stop-color="#a7a9ac"/><stop offset="1" stop-color="#414042"/></linearGradient><linearGradient x1="198.583" y1="176.1553" x2="282.7559" y2="176.1553" gradientUnits="userSpaceOnUse" id="color-2"><stop offset="0" stop-color="#d1d2d3"/><stop offset="1" stop-color="#a4a5a8"/></linearGradient></defs><g transform="translate(-195.169,-148.82)"><g data-paper-data="{&quot;isPaintingLayer&quot;:true}" fill-rule="nonzero" stroke-linejoin="miter" stroke-miterlimit="10" stroke-dasharray="" stroke-dashoffset="0" style="mix-blend-mode: normal"><path d="M286.17,194.887c0,4.752 -3.854,8.605 -8.605,8.605h-73.792c-4.752,0 -8.604,-3.854 -8.604,-8.605v-37.463c0,-4.752 3.852,-8.604 8.604,-8.604h73.791c4.754,0 8.605,3.852 8.605,8.604v37.463z" fill="url(#color-1)" stroke="none" stroke-width="1" stroke-linecap="butt"/><path d="M282.755,157.424v37.462c0,2.862 -2.327,5.19 -5.191,5.19h-73.791c-2.861,0 -5.19,-2.328 -5.19,-5.19v-37.463c0,-2.862 2.329,-5.19 5.19,-5.19h73.791c2.864,0 5.191,2.329 5.191,5.191z" fill="url(#color-2)" stroke="none" stroke-width="1" stroke-linecap="butt"/><path d="M221.55143,182.65955c-0.75307,-0.46126 -0.64407,-1.44226 -0.64407,-1.44226c0.25366,-1.84845 -0.53374,-3.17985 -1.11205,-4.91983c-1.10378,-3.32099 -1.93975,-6.60363 -4.90429,-8.90253c-2.73194,-2.11852 -7.50897,-3.21361 -9.11162,0.88705c-0.31393,0.80324 -0.23732,2.47216 -0.23493,3.33021c0,3.68774 -0.39535,7.40857 1.90157,10.5699c1.12244,1.54485 2.75037,2.38931 4.07605,3.7136c1.10708,1.10592 1.94883,2.78444 3.29466,3.6718c1.00041,0.65962 1.97843,0.68422 3.08022,0.9735c0.87221,0.229 1.68201,0.89304 2.58023,0.8131c1.16134,-0.10336 0.95937,-1.70407 1.22529,-2.32843c0.59466,-1.39624 1.6036,-3.29814 3.07639,-3.80268c-1.83376,-0.50379 -2.72616,-1.28468 -3.22745,-2.56343zM223.83031,179.34665c0.24589,0.40775 0.24589,0.85752 0.24589,0.85752l-0.00747,0.18721c-0.00444,1.77609 2.51959,3.29867 3.70791,4.56526c-1.01773,1.64368 -2.53068,3.50106 -3.32548,5.29472c-1.07661,2.42962 -0.24299,3.25386 -3.49188,4.07344c-0.6919,0.17454 -3.08582,-0.67754 -3.82164,-0.8716c-1.65476,-0.43642 -2.35172,-0.32726 -3.99553,-1.38509c-1.56714,-1.00848 -2.50709,-2.80232 -3.78109,-4.07783c-0.92435,-0.92544 -2.09398,-1.58252 -3.01598,-2.51031c-1.91224,-1.92424 -3.35741,-4.68911 -3.79072,-7.39335c-0.31912,-1.99162 -0.01943,-4.45142 -0.01943,-6.47444c0.00338,-1.38998 -0.08911,-3.11857 0.43895,-4.41943c2.45665,-6.0518 9.41873,-5.56102 13.80034,-2.14542c3.41893,2.66517 4.58345,6.43193 5.8778,10.30309c0.48514,1.45095 0.9688,2.66399 1.17831,3.99622z" fill="#886841" stroke="none" stroke-width="0.5" stroke-linecap="butt"/><path d="M224.80348,185.24032c-1.47279,0.50454 -2.49049,2.41469 -3.08515,3.81093c-0.26591,0.62436 -0.06831,2.2273 -1.22965,2.33066c-0.89822,0.07994 -1.71283,-0.58257 -2.58504,-0.81157c-1.10179,-0.28928 -2.08737,-0.31315 -3.08778,-0.97276c-1.34583,-0.88737 -2.19985,-2.5689 -3.30692,-3.67482c-1.32568,-1.32429 -2.96752,-2.18265 -4.08996,-3.7275c-2.29692,-3.16133 -1.89904,-6.91276 -1.89904,-10.6005c-0.00239,-0.85805 -0.07487,-2.53165 0.23905,-3.33489c1.60265,-4.10066 6.39939,-3.01354 9.13133,-0.89502c2.96455,2.2989 3.82856,5.59906 4.93234,8.92005c0.57831,1.73998 1.36546,3.09704 1.1118,4.94549c0,0 -0.11098,0.98448 0.64209,1.44574c0.50129,1.27875 1.39317,2.0604 3.22693,2.56419z" data-paper-data="{&quot;noHover&quot;:false,&quot;origItem&quot;:[&quot;Path&quot;,{&quot;applyMatrix&quot;:true,&quot;segments&quot;:[[[508.39057,378.52248],[2.20328,5.62033],[-3.30988,-2.02733]],[[505.55977,372.18347],[0,0],[1.11487,-8.12428]],[[500.6721,350.55992],[2.54177,7.64754],[-4.85131,-14.59636]],[[479.11682,311.43165],[13.02974,10.10411],[-12.00737,-9.3113]],[[439.06956,315.33039],[7.04393,-18.02317],[-1.37977,3.53039]],[[438.037,329.96726],[-0.01052,-3.77128],[0,16.20829]],[[446.39475,376.42393],[-10.09537,-13.89464],[4.93332,6.78992]],[[464.30975,392.7459],[-5.82661,-5.82052],[4.8658,4.86071]],[[478.79041,408.88416],[-5.91518,-3.90014],[4.397,2.89914]],[[492.32855,413.16287],[-4.84258,-1.27143],[3.83352,1.0065]],[[503.66914,416.73658],[-3.94784,0.35135],[5.10431,-0.45427]],[[509.05451,406.50271],[-1.16874,2.74418],[2.61362,-6.13674]],[[522.57581,389.78922],[-6.47319,2.21755],[-8.05972,-2.21423]]],&quot;closed&quot;:true}]}" fill="#c0935c" stroke="none" stroke-width="0.5" stroke-linecap="butt"/><path d="M206.2298,168.41125l2.86399,4.88564" fill="none" stroke="#000000" stroke-width="1.5" stroke-linecap="round"/><path d="M213.64249,172.1176l-3.03247,-6.2334" fill="none" stroke="#000000" stroke-width="1.5" stroke-linecap="round"/><text transform="translate(226.92369,180.07972) rotate(-0.36455) scale(0.24256,0.24256)" font-size="40" xml:space="preserve" fill="#ffffff" fill-rule="nonzero" stroke="none" stroke-width="1" stroke-linecap="butt" stroke-linejoin="miter" stroke-miterlimit="10" stroke-dasharray="" stroke-dashoffset="0" font-family="Sans Serif" font-weight="normal" text-anchor="start" style="mix-blend-mode: normal"><tspan x="0" dy="0">Погладить</tspan></text></g></g></svg>