<svg version="1.1" xmlns="http://www.w3.org/2000/svg" xmlns:xlink="http://www.w3.org/1999/xlink" width="286.78674" height="196.86209" viewBox="0,0,286.78674,196.86209"><g transform="translate(-99.60964,-60.54793)"><g data-paper-data="{&quot;isPaintingLayer&quot;:true}" stroke-linecap="butt" stroke-linejoin="miter" stroke-miterlimit="10" stroke-dasharray="" stroke-dashoffset="0" style="mix-blend-mode: normal"><g><path d="M385.0337,158.97898c0,53.60927 -63.58909,97.06837 -142.03051,97.06837c-78.44178,0 -142.03088,-43.4591 -142.03088,-97.06837c0,-53.60963 63.58909,-97.06837 142.03088,-97.06837c78.44142,0 142.03051,43.45874 142.03051,97.06837z" data-paper-data="{&quot;origPos&quot;:null}" fill="#4e9a06" fill-rule="evenodd" stroke="#231f20" stroke-width="2.72535"/><path d="M270.68279,67.51979c4.62487,1.22463 9.20944,2.57674 13.78375,3.99552c5.01684,1.46311 10.00583,3.12293 14.78309,5.29378c6.13267,2.50274 12.00744,5.71029 17.87891,8.78963c6.08065,3.39914 12.121,6.93199 17.87928,10.88758c5.4513,4.09186 10.82311,8.25919 15.7817,12.9848c3.64531,3.11634 6.81843,6.77593 9.98862,10.38791c3.62736,3.64458 6.65358,7.79432 9.7886,11.88618c2.34522,3.26543 5.7363,5.90847 7.19171,9.7886c-1.74921,1.2521 -2.09136,-1.99684 -2.89691,-2.99655c-4.32924,-4.41496 -8.1002,-9.40066 -12.28548,-13.98377c-3.41196,-3.94607 -7.132,-7.72435 -11.08723,-11.08686c-7.47635,-5.99493 -14.67942,-12.37047 -22.7734,-17.47998c-2.92695,-1.98878 -5.96819,-3.65557 -9.08965,-5.29378c-11.45245,-5.09413 -23.00162,-9.69922 -34.75959,-13.98377c-6.23084,-1.69829 -12.60015,-3.28082 -18.87825,-4.79448c-7.98444,-1.76056 -16.01651,-3.22697 -24.17166,-3.79551c-5.49819,-0.41578 -11.05023,0.037 -16.38101,1.49827c-9.99045,2.45475 -20.03438,4.64795 -29.76546,8.09068c-3.32221,0.87296 -6.23597,2.87273 -9.2893,4.39481c-7.48807,4.01713 -14.96296,8.23501 -22.2741,12.5855c-4.04827,2.28661 -7.71776,5.2011 -11.58653,7.79102c-5.4132,3.5171 -10.38168,7.73205 -15.18239,12.08583c-6.22315,5.24323 -11.16123,11.81365 -16.48101,17.97929c-4.06402,5.01464 -8.25076,9.94466 -12.28548,14.98237c0.09708,-0.5407 0.18902,-1.06015 0.29965,-1.59791c3.77389,-5.77696 7.84011,-11.36307 12.08583,-16.78067c2.58919,-3.442 5.40148,-6.62208 8.48997,-9.58895c7.14702,-6.88437 14.43655,-13.63869 22.2741,-19.67721c6.75798,-4.96885 13.89365,-9.44902 20.67618,-14.38306c4.99193,-3.16982 9.99851,-6.45503 15.28239,-9.08965c5.72421,-2.43644 11.44,-4.68751 17.27997,-6.79205c12.34482,-2.5097 25.41717,-3.89551 38.95476,-3.89551c9.17061,0 18.1053,0.61872 26.76892,1.79793zM235.62355,77.60732c0.91911,-0.05019 1.869,-0.08059 2.7969,0c4.56882,0.32456 9.23911,0.70151 13.78412,1.29863c5.18901,0.75976 10.31428,1.70232 15.48204,2.59689c10.55935,1.84518 20.78168,4.90621 30.96408,8.29033c9.45854,3.04564 18.64087,7.15691 27.46787,11.78654c4.93881,2.40786 9.35341,5.59453 14.08378,8.39033c4.11641,3.03062 8.33392,6.10043 12.18584,9.48895c4.1285,3.57717 7.94708,7.4932 11.88618,11.28688c2.52252,2.61117 5.35203,4.99412 7.69102,7.79066c1.70378,2.19649 3.86621,3.82847 5.59343,5.9931c-0.34398,2.95369 -3.85522,0.62569 -4.39481,-1.09861c-3.27422,-4.00101 -7.36975,-7.08841 -11.18687,-10.48792c-3.55849,-2.80386 -6.75029,-6.09713 -10.38791,-8.78963c-5.58135,-4.45416 -11.48396,-8.49291 -17.77964,-11.78654c-9.02701,-5.13846 -18.72073,-8.98525 -28.46684,-12.38549c-7.47672,-2.41372 -14.993,-4.44976 -22.7734,-5.49343c-7.73131,-1.3228 -15.46812,-2.71741 -23.27307,-3.49622c-4.32851,-0.39087 -8.68962,-1.03341 -12.9848,-1.69792c-4.52523,-0.85171 -9.03434,-0.46011 -13.58447,-0.09964c-6.09896,0.91582 -12.25984,1.48765 -18.27858,2.89654c-5.82678,1.33563 -11.79094,2.09099 -17.57963,3.59586c-6.35613,1.60341 -12.46791,4.34206 -18.37858,7.19171c-9.57577,4.22191 -18.9691,8.73944 -28.06754,13.98377c-3.06798,1.64627 -5.90481,3.6944 -8.68999,5.79345c-7.80641,5.65351 -15.18532,11.93784 -22.47374,18.27858c-1.99135,1.58363 -3.77829,3.54311 -5.19414,5.69344c-0.12858,0.52348 -0.40809,0.88028 -0.79896,1.19862c0.09451,-0.04323 0.20881,-0.06154 0.29929,-0.09964c9.83073,-7.21846 19.8351,-14.30467 29.76546,-21.37513c3.90394,-3.00607 8.19545,-5.35056 12.58513,-7.49137c10.12672,-4.58604 20.49961,-8.44455 30.76444,-12.68514c6.90745,-2.67784 14.29624,-3.68451 21.47514,-5.29415c7.28806,-1.63015 14.61422,-3.1504 21.97444,-4.39481c1.61184,-0.05605 3.18118,-0.12162 4.79448,-0.09964c7.75732,0.10404 15.43955,1.14733 23.17306,1.69829c5.49269,0.32566 11.03448,1.1151 16.48101,1.89757c8.11339,1.03597 16.08318,2.63022 24.07202,4.39481c6.88473,1.63418 13.7332,3.61747 20.27615,6.39276c8.30901,3.56692 16.98728,6.49167 24.47169,11.78618c5.04358,3.38705 10.03477,6.80561 14.88273,10.48792c5.73264,4.01933 11.02935,8.79732 16.78067,12.78515c1.55835,0.36523 1.44589,1.68254 0.59931,2.19759c1.88621,1.81734 -1.47703,3.2669 -2.7969,1.59791c-2.03091,-1.53454 -4.41423,-2.5141 -6.79205,-3.2962c-5.91287,-2.7621 -11.49128,-6.14805 -17.27997,-9.18929c-4.20249,-2.32654 -8.41561,-4.71059 -12.78515,-6.69205c-4.17575,-1.85471 -8.33026,-3.63322 -12.68514,-4.99412c-4.61315,-1.73309 -9.56771,-2.30529 -14.38343,-3.09655c-6.48361,-0.80921 -12.93168,-2.01956 -19.4772,-2.09758c-7.95587,-0.38025 -15.90735,-0.69382 -23.87238,-0.4993c-3.41526,-0.0359 -6.77887,-0.09195 -10.18826,0.19965c-4.43767,0.36193 -8.95741,0.40552 -13.38446,0.89896c-6.22974,0.533 -12.46974,1.35174 -18.67824,2.09758c-10.57107,1.32903 -21.13116,1.93677 -31.6634,3.59586c-4.29334,0.80116 -8.72259,1.32207 -12.9848,2.29723c-7.05471,1.42867 -13.85629,3.67022 -20.57617,6.29275c-5.40258,2.78701 -10.76266,5.92826 -16.281,8.48997c-6.06783,3.02915 -12.35691,5.49123 -18.77824,7.59138c-3.10901,1.09605 -6.36492,1.34259 -9.38894,2.69689c-1.53784,0.68979 -4.61498,1.60414 -5.29415,-0.59931c0.03663,-1.2217 0.81874,-1.87889 1.69829,-2.39724c0.22676,-1.15356 1.3968,-2.06754 2.49688,-2.69689c-1.1085,0.4286 -2.38955,0.1828 -2.49688,-1.39863c0.14836,-2.18733 2.53131,-3.22514 3.89551,-4.59446c5.95133,-6.4565 12.15104,-12.66683 18.77788,-18.37858c5.71542,-4.88496 11.59679,-9.59372 17.67963,-13.98377c7.33165,-4.87543 15.02597,-9.16768 22.7734,-13.28482c4.87617,-2.76613 10.04393,-4.82452 15.18239,-6.9917c5.18425,-1.98549 10.37912,-3.76803 15.68206,-5.39379c7.59431,-2.59469 15.4923,-4.16586 23.37271,-5.49379c2.75001,-0.32383 5.43298,-0.94842 8.19032,-1.09861zM298.05102,128.84829c2.65477,0.03553 5.24799,0.16375 7.89103,0.29965c5.49086,0.48538 11.04876,1.0008 16.48065,1.99794c4.82452,0.78247 9.20394,2.89031 13.68411,4.79448c8.4266,3.9827 16.55794,8.76325 25.27064,12.08583c6.07332,2.00747 12.35508,3.17055 18.5786,4.59446c0.01612,0.16668 0.08499,0.33299 0.09964,0.49967c-4.06915,0.2132 -8.12621,0.36486 -12.18584,0.29965c-5.38499,-0.66415 -11.00957,-0.38611 -16.18136,-2.2976c-5.10988,-1.71697 -9.82487,-4.14205 -14.68272,-6.4924c-3.57754,-1.5023 -7.05764,-3.68487 -10.98722,-3.99515c-2.909,-0.49124 -5.88466,0.01429 -8.79,0.29965c-4.75638,0.63887 -9.5798,0.66818 -14.28342,1.69792c-5.22564,0.63851 -10.31648,1.95618 -15.38204,3.39621c-2.67894,0.6114 -5.25312,1.40706 -7.79102,2.49688c-3.08447,0.95172 -6.29715,1.6514 -9.08928,3.39621c-2.64487,2.24888 -5.81616,3.7988 -8.68999,5.69344c-2.16865,1.05832 -4.21715,2.37416 -6.59241,2.89654c-5.29121,0.48428 -10.57327,1.12279 -15.8817,1.39827c-8.16394,0.24397 -16.30115,0.76159 -24.47132,0.59931c-7.51518,-0.36413 -14.96699,-1.19239 -22.47411,-1.69792c-2.46977,-0.21357 -5.20147,-0.1817 -7.39136,1.19862c-2.07707,1.45761 -3.68378,3.7325 -6.19274,4.49482c-3.9131,0.9693 -8.00569,0.5733 -11.98619,0.3993c-2.44523,0.00073 -4.79228,-0.48172 -7.19171,-0.89896c-6.45906,-1.51183 -12.86391,-3.51893 -19.37719,-4.79448c-7.84744,-1.6829 -15.71466,-2.42581 -23.67273,-3.29584c-1.49021,-0.44362 -3.51087,-0.05605 -5.09413,-0.29965c-0.94988,-0.14616 -1.68547,-0.49491 -2.29723,-1.39863c0.28683,-2.24302 3.48083,-1.26969 5.09413,-1.39827c3.58597,-0.32969 7.10087,-1.02461 10.68757,-1.39827c7.05691,-0.84292 13.99879,-2.60897 20.57617,-5.39379c4.78422,-2.29833 9.55195,-4.61278 14.58308,-6.29275c3.76034,-1.61293 7.81337,-2.20528 11.78618,-2.99655c5.13076,-1.24185 10.43846,-1.90966 15.68169,-2.39724c13.18261,-0.90776 26.36669,-0.97223 39.55407,-1.79793c10.39304,-0.84402 20.88718,-1.84958 31.26374,-2.89654c10.46667,-1.53491 20.90257,-2.30492 31.46375,-2.69689c2.64487,-0.07766 5.33591,-0.13627 7.99067,-0.09964zM111.66757,157.61515c2.17964,0.50626 4.37284,1.34185 6.59241,1.69792c5.61871,0.88907 11.06745,2.40896 16.38101,4.49482c7.08658,2.56209 13.93761,5.90225 20.97547,8.58998c9.28673,3.21378 18.67348,6.01288 28.16755,8.49034c4.67432,0.98981 9.42887,1.59608 14.18342,1.99758c8.52441,0.96124 17.06018,1.49498 25.5703,2.59689c6.11508,1.0781 12.42688,1.18873 18.57823,0.39966c5.7744,-0.4678 11.52755,-0.98285 17.27997,-1.69792c4.71022,-0.96527 9.52814,-0.27401 14.28342,-0.29965c3.15187,0.00513 6.58728,-0.02235 9.18929,-2.09758c2.44706,-1.71111 3.6977,-4.57358 5.19414,-7.09171c1.20485,-2.08843 3.03721,-3.78085 5.39379,-4.29517c4.29334,-0.90006 8.66068,-1.3609 12.88516,-2.59689c2.72217,-0.28647 4.57761,-2.26499 6.29238,-4.29517c2.08183,-2.0822 4.26294,-4.15524 6.19311,-6.39239c2.69689,-3.42002 6.11691,-6.15611 10.08826,-7.79102c1.5045,-0.25496 3.12843,-0.00696 4.39481,0.89896c4.17539,1.95435 6.9177,6.19604 11.18687,7.99067c2.20309,1.09788 4.6267,0.48465 6.99207,0.4993c6.488,-0.82533 13.13059,-1.78071 19.5772,-2.89654c2.19759,-0.06521 4.74832,-2.38771 6.59241,-0.29965c0.09634,0.32786 0.13261,0.63594 0.09964,0.89896c0.80262,-0.45058 1.59828,-0.93596 2.39724,-1.39827c0.00733,0.09964 -0.00733,0.20001 0,0.29965c-0.83852,0.48428 -1.66825,1.0041 -2.49725,1.49827c-0.45864,1.1422 -2.12433,1.58473 -3.49585,1.99758c-1.9408,1.14367 -3.8413,2.27379 -5.79345,3.39621c-0.9301,0.63484 -1.85654,1.28617 -2.79653,1.89757c-3.5497,2.52582 -7.18659,4.91243 -10.88758,7.19171c-2.48479,2.14191 -4.68641,4.64062 -7.09171,6.89206c-3.82591,3.53908 -7.64559,7.08035 -11.88618,10.08826c-2.06791,1.8298 -4.519,3.14601 -6.89206,4.49482c-3.58377,2.06315 -7.46976,3.38595 -11.28688,4.89448c-6.55101,2.23715 -13.06356,4.6571 -19.87686,5.89309c-5.69527,0.99531 -11.42535,1.78291 -17.17996,2.29723c-5.47914,0.69895 -10.99565,0.78211 -16.48101,1.39827c-5.74326,0.39966 -11.52975,0.57953 -17.27997,0.89896c-6.7448,0.23115 -13.42695,0.62019 -20.17651,0.39966c-8.0654,-1.01509 -16.03776,-2.57894 -23.97202,-4.39481c-8.21083,-2.15803 -16.54549,-4.10285 -24.67133,-6.59241c-6.58581,-2.39394 -13.09579,-5.02599 -19.0779,-8.79c-13.04561,-7.12248 -25.7802,-14.74719 -38.55546,-22.37374c-2.7273,-1.82504 -5.68135,-3.4017 -8.58998,-4.89448c-2.2551,0.30002 -3.82481,-3.49439 -1.19862,-4.19517c0.41065,0.0685 0.79163,0.20514 1.19862,0.29965zM380.05569,164.30756c-3.55043,6.29312 -7.15435,12.53238 -11.08723,18.5786c-3.17275,5.36375 -7.00086,10.25127 -10.98722,14.98274c-2.78921,3.59366 -5.90738,6.86678 -9.08965,10.08826c-9.35341,9.24168 -20.18787,16.9272 -31.66303,23.07305c-5.51101,2.57198 -10.90809,5.40075 -16.58065,7.59101c-8.96473,3.31855 -17.83569,6.74077 -27.06857,9.18966c-7.85843,1.70049 -15.87951,2.68664 -23.77237,4.19517c-0.36449,0.05055 -0.73375,0.05165 -1.09898,0.09964c-1.60085,0.03773 -3.17971,0.09927 -4.79448,0.09927c-10.29706,0 -20.32011,-0.81947 -29.96511,-2.29723c-8.44272,-2.48699 -16.95064,-4.94211 -25.071,-8.39033c-6.18432,-3.05699 -12.12723,-6.59937 -17.97892,-10.2879c-5.30587,-3.19876 -10.26702,-6.88986 -15.18239,-10.68757c-6.17369,-4.55966 -11.43231,-10.26483 -16.88031,-15.68169c-5.35166,-5.14688 -10.28278,-10.70735 -14.88273,-16.58102c-5.60699,-6.71293 -10.46118,-14.01564 -15.08275,-21.47477c-0.29416,-0.58979 -0.72642,-1.13268 -1.09861,-1.69829c-0.01465,-0.02344 0.01465,-0.07766 0,-0.09964c-0.09891,-1.06308 -0.15312,-2.12323 -0.19965,-3.1962l7.79102,8.29033c11.0407,11.99682 23.02653,23.18295 35.25889,33.86063c7.15582,5.25788 14.76075,9.76442 22.47411,14.08378c4.93661,2.60421 9.66808,5.54874 14.58308,8.19069c3.57241,1.6514 7.44631,2.72217 11.18687,3.89515c7.2441,1.94776 14.40871,3.98783 21.77479,5.39379c5.25715,0.89933 10.62273,2.10015 15.98134,1.89794c6.91257,-0.16595 13.60389,-1.5089 20.47617,-2.19759c6.60413,-0.67001 13.20569,-1.79243 19.67721,-3.2962c11.20079,-2.01772 21.86418,-6.34404 32.56237,-10.1879c6.08468,-1.99098 11.67262,-5.2022 17.27997,-8.29033c5.9865,-3.25408 11.57334,-7.15472 16.88031,-11.48689c3.62919,-2.70239 6.79718,-5.97405 9.98825,-9.18929c4.35012,-5.02526 8.65482,-10.13661 12.98516,-15.18239c4.63219,-5.49526 9.19442,-11.06122 13.78375,-16.58065c-0.03407,1.1063 -0.10953,2.20015 -0.19965,3.2962z" fill="#356804" fill-rule="nonzero" stroke="none" stroke-width="1"/><path d="M162.87081,107.33725c-12.39611,7.03859 -18.14194,17.8192 -22.63932,12.5137c-4.49812,-5.30587 1.90783,-15.3073 14.3043,-22.3459c12.39281,-7.03676 26.08279,-8.44565 30.58054,-3.14015c4.49812,5.30587 -9.85601,5.93778 -22.24552,12.97234z" fill="#bfef90" fill-rule="evenodd" stroke="none" stroke-width="1"/></g></g></g></svg>