<svg version="1.1" xmlns="http://www.w3.org/2000/svg" xmlns:xlink="http://www.w3.org/1999/xlink" width="126.61729" height="144.74772" viewBox="0,0,126.61729,144.74772"><defs><linearGradient x1="175.40213" y1="173.54995" x2="238.96551" y2="173.54995" gradientUnits="userSpaceOnUse" id="color-1"><stop offset="0" stop-color="#fff532"/><stop offset="1" stop-color="#e6d735"/></linearGradient><linearGradient x1="172.28362" y1="180.37717" x2="260.30481" y2="180.37717" gradientUnits="userSpaceOnUse" id="color-2"><stop offset="0" stop-color="#fff532"/><stop offset="1" stop-color="#e6d735"/></linearGradient><linearGradient x1="174.82101" y1="203.86178" x2="289.24864" y2="203.86178" gradientUnits="userSpaceOnUse" id="color-3"><stop offset="0" stop-color="#fff532"/><stop offset="1" stop-color="#e6d735"/></linearGradient></defs><g transform="translate(-169.18385,-106.12465)"><g data-paper-data="{&quot;isPaintingLayer&quot;:true}" fill-rule="evenodd" stroke="none" stroke-width="1" stroke-linecap="butt" stroke-linejoin="miter" stroke-miterlimit="10" stroke-dasharray="" stroke-dashoffset="0" style="mix-blend-mode: normal"><g><g><path d="M199.93652,107.97791c27.85777,10.79409 42.26075,32.03595 44.08503,53.09771c2.17759,25.86859 -20.39603,65.36254 -49.14046,57.53331c-1.13809,2.36199 -6.43611,12.00304 -10.814,18.19337l-10.55208,0.15417c-2.99199,-6.8914 -0.15699,-19.04398 12.28565,-25.41285c-2.74768,-2.62864 -4.55926,-10.36632 -0.1812,-16.55658c8.26186,-11.58498 16.87627,-21.19342 16.46063,-37.1806c-0.38953,-12.81305 -11.91667,-24.04809 -16.36785,-36.7007c-5.48197,-15.4076 3.22711,-17.1524 14.22428,-13.12781z" fill="#272525"/><path d="M178.21291,236.05891c-2.14491,-2.8803 -3.77966,-8.2143 -2.14757,-11.37213c1.06324,-0.56147 14.01517,-12.21497 12.12161,-14.49224c-4.83404,-5.65126 14.06102,-25.68136 16.9113,-42.32274c3.97043,-23.00641 -12.32227,-35.20304 -14.66373,-50.15096c-1.29242,-8.19016 6.67225,-6.91138 8.80814,-6.03272c32.94221,14.21761 38.80377,37.60626 39.64576,50.93846c1.14459,17.45234 -10.64989,33.57745 -22.57165,45.15531c-2.45308,2.32046 -7.89523,6.24166 -11.05211,7.44034c-4.9908,1.60952 -5.96225,1.5429 -10.97923,-0.02155c-0.77051,-0.15056 -16.07253,20.85822 -16.07253,20.85822z" fill="url(#color-1)"/><path d="M195.62362,209.92422c-0.69481,0.87945 -1.94302,-0.13347 -1.30676,-0.87059c20.57661,-25.33173 28.06247,-54.051 14.12802,-76.43181c-2.89919,-4.68889 -9.69317,-11.64605 -11.25135,-13.11951c-1.70075,-1.53191 0.33428,-2.02663 1.95092,-0.69573c1.47441,1.27258 2.66407,2.42783 4.75833,4.62125c17.37522,18.46893 28.81427,41.6545 -8.27916,86.49639z" fill="#272525"/></g><g><path d="M190.30756,215.562c-1.96909,-3.30721 -0.97523,-11.38928 5.47186,-15.72932c11.97309,-8.06053 23.4696,-14.15258 28.79097,-29.11155c4.23353,-11.91008 -2.68867,-26.24526 -2.55904,-39.51077c0.32972,-16.17999 9.26602,-14.83452 18.25451,-7.14119c22.54266,19.26263 28.76458,43.79839 23.1351,63.95796c-7.01827,24.74956 -42.29944,53.85475 -67.0102,37.02982c-2.97207,2.773 -20.64605,17.81129 -23.46051,16.15405c-7.78997,-4.53652 -4.09528,-25.65863 17.37732,-25.64899z" fill="#272525"/><path d="M174.32698,235.7922c-2.54673,-2.71258 -3.5363,-6.7823 1.99786,-11.33168c3.51639,-2.8821 17.73535,-6.68872 16.70439,-9.44378c-2.64878,-6.91662 22.40416,-19.25238 31.00853,-33.69305c11.77654,-20.12815 0.67473,-36.84877 3.67635,-51.42997c1.62205,-7.99007 8.73345,-4.23212 10.43396,-2.70012c26.2122,24.10202 23.60725,47.83676 19.70885,60.55074c-5.19528,16.67556 -21.85719,27.63511 -37.36487,34.5744c-3.07294,1.39962 -9.69668,3.33644 -13.15546,3.24545c-5.31793,-0.02335 -6.34709,2.88289 -10.51869,-0.33153c-0.5948,-0.57771 -22.49093,10.55953 -22.49093,10.55953z" fill="url(#color-2)"/><path d="M200.1567,217.11658c-1.0634,0.5614 -1.85107,-0.76149 -0.98871,-1.23919c28.52702,-16.73356 45.60344,-40.84162 40.47809,-66.42437c-1.09036,-5.44326 -5.03774,-14.05938 -6.13538,-15.84282c-1.03919,-1.92599 2.14301,-2.78124 3.09833,-1.05635c0.95515,1.72482 2.44672,4.16973 3.5363,6.7823c9.92328,23.22805 11.0203,48.48571 -39.98862,77.78043z" fill="#272525"/></g><g><path d="M198.89423,223.42305c0.40904,-3.82738 5.09691,-9.55717 12.42454,-10.37197c14.71381,-1.77192 26.53824,-3.4004 38.59419,-14.09042c9.51932,-8.57053 11.68381,-22.33082 18.22895,-33.78938c8.08528,-13.98837 18.43915,-5.56693 22.82269,5.22654c11.02994,27.01312 1.7325,47.9947 -13.19449,62.83116c-18.33461,18.26274 -64.11574,27.56528 -78.10168,1.66707c-3.92739,1.04812 -27.02299,6.19778 -28.88315,3.43482c-4.75912,-7.45195 9.35504,-23.95468 28.10896,-14.90781z" fill="#272525"/><path d="M174.82905,234.16723c0.57669,-3.4254 3.62345,-7.99899 7.34997,-8.96333c3.32446,-0.79652 13.47446,-0.78328 18.63392,0.83979c0.98572,-7.25278 30.27165,-8.02455 44.96633,-16.63017c20.2461,-11.98244 18.52286,-31.67075 28.32574,-42.95461c5.34952,-6.12364 9.89067,0.23958 10.61165,2.5341c11.80233,32.82481 -2.08478,52.41773 -11.69597,61.61611c-12.64172,12.11394 -33.07528,14.03023 -50.13472,13.0057c-3.40024,-0.23332 -10.3349,-1.5878 -13.35024,-3.16127c-4.80803,-2.47736 -5.42805,-3.39827 -7.55672,-7.9366c-0.47763,-0.86253 -27.69349,4.59006 -27.14996,1.65026z" fill="url(#color-3)"/><path d="M207.09504,229.79349c-1.17234,0.01716 -1.21475,-1.49878 -0.38568,-1.49055c33.58191,-1.50184 60.78688,-14.61719 68.43328,-39.27458c1.623,-5.1593 2.25634,-14.38855 2.16354,-16.59106c-0.09286,-2.20234 1.92593,-1.03903 1.79245,0.90399c0.00909,2.00147 0.05133,3.51734 -0.29102,6.3731c-2.12749,24.5972 -11.87622,47.8903 -71.71257,50.07911z" fill="#272525"/></g></g></g></g></svg>