<svg version="1.1" xmlns="http://www.w3.org/2000/svg" xmlns:xlink="http://www.w3.org/1999/xlink" width="91.001" height="54.672" viewBox="0,0,91.001,54.672"><defs><linearGradient x1="195.1699" y1="176.1562" x2="286.1699" y2="176.1562" gradientUnits="userSpaceOnUse" id="color-1"><stop offset="0.012" stop-color="#66b3e3"/><stop offset="1" stop-color="#1c75bc"/></linearGradient></defs><g transform="translate(-195.169,-148.82)"><g data-paper-data="{&quot;isPaintingLayer&quot;:true}" fill-rule="nonzero" stroke-linejoin="miter" stroke-miterlimit="10" stroke-dasharray="" stroke-dashoffset="0" style="mix-blend-mode: normal"><path d="M286.17,194.887c0,4.752 -3.854,8.605 -8.605,8.605h-73.792c-4.752,0 -8.604,-3.854 -8.604,-8.605v-37.463c0,-4.752 3.852,-8.604 8.604,-8.604h73.791c4.754,0 8.605,3.852 8.605,8.604v37.463z" fill="url(#color-1)" stroke="none" stroke-width="1" stroke-linecap="butt"/><path d="M282.755,157.424v37.462c0,2.862 -2.327,5.19 -5.191,5.19h-73.791c-2.861,0 -5.19,-2.328 -5.19,-5.19v-37.463c0,-2.862 2.329,-5.19 5.19,-5.19h73.791c2.864,0 5.191,2.329 5.191,5.191z" fill="#27aae1" stroke="none" stroke-width="1" stroke-linecap="butt"/><path d="M229.58488,182.18147c-1.08437,-0.66419 -0.92741,-2.07676 -0.92741,-2.07676c0.36525,-2.66164 -0.76855,-4.57876 -1.60128,-7.08422c-1.58937,-4.782 -2.7931,-9.50877 -7.06185,-12.81904c-3.9338,-3.05053 -10.81241,-4.62739 -13.12011,1.27729c-0.45203,1.15661 -0.34173,3.55974 -0.33828,4.79527c0,5.31009 -0.56927,10.66783 2.73813,15.21994c1.61623,2.22448 3.96035,3.44044 5.86924,5.34733c1.59411,1.59245 2.80619,4.0094 4.74409,5.28715c1.44053,0.9498 2.8488,0.98523 4.43531,1.40177c1.25592,0.32975 2.42198,1.28591 3.71536,1.1708c1.67225,-0.14883 1.38143,-2.45374 1.76433,-3.35278c0.85626,-2.01049 2.30907,-4.7491 4.42979,-5.4756c-2.64049,-0.72542 -3.92548,-1.84985 -4.64731,-3.69116zM232.8663,177.41112c0.35407,0.58714 0.35407,1.23477 0.35407,1.23477l-0.01075,0.26957c-0.00639,2.55745 3.62803,4.74986 5.33914,6.57367c-1.46546,2.36679 -3.644,5.04128 -4.78847,7.62403c-1.55025,3.49848 -0.34989,4.68534 -5.02807,5.86548c-0.9963,0.25133 -4.44337,-0.97561 -5.50291,-1.25505c-2.38274,-0.62842 -3.38632,-0.47124 -5.7533,-1.99443c-2.25657,-1.45214 -3.61004,-4.03515 -5.44451,-5.8718c-1.33099,-1.33257 -3.01518,-2.27873 -4.3428,-3.61467c-2.7535,-2.77077 -4.83445,-6.75199 -5.45837,-10.64592c-0.45951,-2.8678 -0.02798,-6.40974 -0.02798,-9.32276c0.00487,-2.00148 -0.12832,-4.49052 0.63206,-6.36367c3.53741,-8.71418 13.56234,-8.00749 19.87155,-3.08926c4.92303,3.83766 6.59986,9.26154 8.46364,14.83574c0.69856,2.08927 1.395,3.83597 1.69669,5.75429z" fill="#886841" stroke="none" stroke-width="0.5" stroke-linecap="butt"/><path d="M234.2676,185.89761c-2.12072,0.7265 -3.58614,3.47699 -4.4424,5.48748c-0.3829,0.89904 -0.09836,3.20717 -1.77061,3.35599c-1.29337,0.11511 -2.46636,-0.83886 -3.72229,-1.16861c-1.58651,-0.41654 -3.00567,-0.45091 -4.44619,-1.40071c-1.93791,-1.27775 -3.16763,-3.69904 -4.76174,-5.29149c-1.90889,-1.90689 -4.27303,-3.14286 -5.88926,-5.36735c-3.3074,-4.5521 -2.73449,-9.9539 -2.73449,-15.264c-0.00345,-1.23553 -0.10781,-3.64541 0.34422,-4.80202c2.3077,-5.90467 9.21469,-4.3393 13.14849,-1.28877c4.26875,3.31027 5.51287,8.06227 7.10223,12.84426c0.83272,2.50545 1.96617,4.45953 1.60092,7.12117c0,0 -0.1598,1.41759 0.92456,2.08177c0.72183,1.84131 2.00607,2.96684 4.64656,3.69226z" data-paper-data="{&quot;noHover&quot;:false,&quot;origItem&quot;:[&quot;Path&quot;,{&quot;applyMatrix&quot;:true,&quot;segments&quot;:[[[508.39057,378.52248],[2.20328,5.62033],[-3.30988,-2.02733]],[[505.55977,372.18347],[0,0],[1.11487,-8.12428]],[[500.6721,350.55992],[2.54177,7.64754],[-4.85131,-14.59636]],[[479.11682,311.43165],[13.02974,10.10411],[-12.00737,-9.3113]],[[439.06956,315.33039],[7.04393,-18.02317],[-1.37977,3.53039]],[[438.037,329.96726],[-0.01052,-3.77128],[0,16.20829]],[[446.39475,376.42393],[-10.09537,-13.89464],[4.93332,6.78992]],[[464.30975,392.7459],[-5.82661,-5.82052],[4.8658,4.86071]],[[478.79041,408.88416],[-5.91518,-3.90014],[4.397,2.89914]],[[492.32855,413.16287],[-4.84258,-1.27143],[3.83352,1.0065]],[[503.66914,416.73658],[-3.94784,0.35135],[5.10431,-0.45427]],[[509.05451,406.50271],[-1.16874,2.74418],[2.61362,-6.13674]],[[522.57581,389.78922],[-6.47319,2.21755],[-8.05972,-2.21423]]],&quot;closed&quot;:true}]}" fill="#c0935c" stroke="none" stroke-width="0.5" stroke-linecap="butt"/><path d="M207.52277,161.66489l4.12396,7.03499" fill="none" stroke="#000000" stroke-width="1.5" stroke-linecap="round"/><path d="M213.83,158.0261l4.36654,8.97568" fill="none" stroke="#000000" stroke-width="1.5" stroke-linecap="round"/><text transform="translate(235.07584,178.43425) rotate(-0.36496) scale(0.1968,0.1968)" font-size="40" xml:space="preserve" fill="#ffffff" fill-rule="nonzero" stroke="none" stroke-width="1" stroke-linecap="butt" stroke-linejoin="miter" stroke-miterlimit="10" stroke-dasharray="" stroke-dashoffset="0" font-family="Sans Serif" font-weight="normal" text-anchor="start" style="mix-blend-mode: normal"><tspan x="0" dy="0">Погладить</tspan></text></g></g></svg>