<svg version="1.1" xmlns="http://www.w3.org/2000/svg" xmlns:xlink="http://www.w3.org/1999/xlink" width="83" height="83" viewBox="0,0,83,83"><defs><linearGradient x1="197.375" y1="178.1328" x2="280.375" y2="178.1328" gradientUnits="userSpaceOnUse" id="color-1"><stop offset="0" stop-color="#8dc63f"/><stop offset="1" stop-color="#006838"/></linearGradient><radialGradient cx="238.875" cy="178.1328" r="33.9434" gradientUnits="userSpaceOnUse" id="color-2"><stop offset="0" stop-color="#d7df23"/><stop offset="1" stop-color="#009444"/></radialGradient></defs><g transform="translate(-197.375,-136.632)"><g data-paper-data="{&quot;isPaintingLayer&quot;:true}" fill-rule="nonzero" stroke="none" stroke-width="1" stroke-linecap="butt" stroke-linejoin="miter" stroke-miterlimit="10" stroke-dasharray="" stroke-dashoffset="0" style="mix-blend-mode: normal"><path d="M280.375,178.132c0,22.882 -18.616,41.5 -41.5,41.5c-22.883,0 -41.5,-18.618 -41.5,-41.5c0,-22.883 18.616,-41.5 41.5,-41.5c22.884,0 41.5,18.618 41.5,41.5z" fill="url(#color-1)"/><path d="M204.931,178.133c0,-18.74675 15.19725,-33.944 33.944,-33.944c18.74675,0 33.944,15.19725 33.944,33.944c0,18.74675 -15.19725,33.944 -33.944,33.944c-18.74675,0 -33.944,-15.19725 -33.944,-33.944z" fill="url(#color-2)"/><g><path d="M239.1,190.5c-21.3,-1.5 -36.6,-1 -33.8,-10.9c2.8,-9.9 31,-9.6 43.4,-9.6c12.4,0 27.7,5.6 25.9,15c-1.1,5 -28.4,6 -35.5,5.5z" fill="#e8ae68"/><path d="M274.5,185c-1,5 -28.3,6 -35.6,5.5c-18.1,-1.3 -31.9,-1.1 -33.8,-7.2c1.6,-0.2 2.7,-0.5 3.9,0.5c1.4,1.1 4.9,3.5 8.3,2.5c3.4,-1 4.6,0.2 6.7,0.2c2.1,0 2.2,-0.6 4.6,-0.6c2.3,0 9.3,2.5 11.4,2c2.1,-0.5 3.4,-0.7 4.7,-0.5c1.3,0.2 5.1,0.7 7.1,-0.4c1.9,-1.1 9.4,0.5 10.9,-0.2c1.5,-0.7 2.9,-0.8 4.6,-0.8c1.4,0 5.2,-1.9 7.4,-2.5c0,0.5 -0.1,1 -0.2,1.5z" fill="#d69a51"/><path d="M229,170.6c-3.6,3.5 -5.9,8.1 -5.9,8.1c-0.9,-3.5 -0.3,-5.9 0.7,-7.6c1.7,-0.3 3.4,-0.4 5.2,-0.5z" fill="#f2c083"/><path d="M236.3,178.6c-1.1,-4.1 0,-6.8 1.3,-8.5c1.8,-0.1 3.6,-0.1 5.2,-0.1c-4,3.5 -6.5,8.6 -6.5,8.6z" fill="#f2c083"/><path d="M248.7,179.2c-1.2,-4.7 0.3,-7.5 1.8,-9.1c1.5,0 3.1,0.2 4.7,0.4c-3.9,3.5 -6.5,8.6 -6.5,8.7z" fill="#f2c083"/><path d="M212.1,188c0,0 1.2,0.2 3.4,0.5c2.1,0.3 5.2,0.6 8.9,0.9c3.7,0.3 8,0.5 12.6,0.7c2.3,0.1 4.7,0.2 7.1,0.2c2.4,0 4.9,-0.1 7.3,-0.2c4.9,-0.2 9.8,-0.7 14.4,-1.5c2.3,-0.4 4.4,-0.9 6.4,-1.7c0.9,-0.4 1.9,-1 2.2,-1.8c0.1,-0.9 0.1,-1.9 0,-2.8c-0.2,-1.8 -1.1,-3.3 -2.1,-4.4c-1,-1.1 -2,-1.9 -2.9,-2.5c-0.9,-0.6 -1.6,-1 -2.1,-1.3c-0.5,-0.3 -0.8,-0.4 -0.8,-0.4c0,0 0.3,0.1 0.8,0.4c0.5,0.3 1.3,0.6 2.2,1.2c0.9,0.6 2,1.3 3,2.4c1,1.1 2,2.6 2.3,4.5c0.1,0.9 0.2,1.9 0,3c-0.2,0.6 -0.6,1 -1,1.3c-0.4,0.3 -0.9,0.6 -1.4,0.8c-2,0.9 -4.2,1.4 -6.5,1.9c-4.6,0.9 -9.5,1.3 -14.4,1.6c-2.5,0.1 -5,0.2 -7.5,0.2c-2.4,0 -4.8,-0.1 -7.1,-0.2c-4.6,-0.2 -8.9,-0.5 -12.6,-0.9c-3.7,-0.4 -6.7,-0.8 -8.9,-1.2c-2.1,-0.4 -3.3,-0.7 -3.3,-0.7z" fill="#ad7939"/><path d="M250.2,186.5c-1.3,0.1 -2,-1.1 -0.9,-1.2c1.1,-0.1 2.5,1.1 0.9,1.2z" fill="#d69a51"/><path d="M239,187c-1.3,0.1 0.1,-0.8 1.1,-0.7c1,0.1 0.1,0.6 -1.1,0.7z" fill="#d69a51"/><path d="M261.8,186.3c-1.1,0.1 -0.9,-1.8 1.4,-1.8c2.3,0 0.3,1.7 -1.4,1.8z" fill="#d69a51"/><path d="M260.1,185.3c-1.2,0.6 -1.5,0.4 -1.2,-0.1c0.3,-0.5 1.8,-0.2 1.2,0.1z" fill="#d69a51"/><path d="M215.2,185.5c-1.8,0.1 -3.5,-1.3 -1.9,-1.4c1.6,-0.1 3.1,1.3 1.9,1.4z" fill="#d69a51"/><path d="M217.1,185.5c-0.9,-0.2 -1.2,-1.4 -0.4,-1.4c0.8,0 1.4,1.6 0.4,1.4z" fill="#d69a51"/><path d="M233.5,186.4c-0.9,0.3 -1.3,-0.9 -0.3,-0.9c1,0 0.9,0.7 0.3,0.9z" fill="#d69a51"/><path d="M272.1,183.4c-1.2,0 -0.6,-1.3 0.5,-1.3c1.1,0 0.7,1.3 -0.5,1.3z" fill="#d69a51"/></g><path d="M248.7,179.1c0,0 0.3,-0.6 0.7,-1.5c0.2,-0.4 0.5,-1 0.9,-1.5c0.3,-0.5 0.7,-1.1 1.1,-1.7c0.8,-1.1 1.7,-2.1 2.5,-2.8c0.8,-0.7 1.4,-1.1 1.4,-1.1c0,0 -0.1,0.1 -0.3,0.4c-0.2,0.2 -0.5,0.6 -0.8,0.9c-0.3,0.4 -0.7,0.9 -1.1,1.4c-0.4,0.5 -0.8,1 -1.2,1.6c-0.8,1.1 -1.6,2.2 -2.2,3c-0.6,0.8 -1,1.3 -1,1.3z" fill="#d69a51"/><g fill="#d69a51"><path d="M236.3,178.6c0,0 0.3,-0.6 0.7,-1.5c0.5,-0.9 1.2,-2.1 2,-3.2c0.8,-1.1 1.7,-2.2 2.4,-2.9c0.8,-0.6 1.4,-1 1.4,-1c0,0 -0.1,0.1 -0.3,0.4c-0.2,0.2 -0.5,0.5 -0.8,0.9c-0.6,0.8 -1.4,1.9 -2.2,3c-0.8,1.1 -1.6,2.2 -2.2,3c-0.6,0.8 -1,1.3 -1,1.3z"/><path d="M223.1,178.6c0,0 0.2,-0.6 0.7,-1.4c0.4,-0.8 1.1,-1.9 1.8,-3c0.7,-1 1.5,-2 2.2,-2.7c0.7,-0.7 1.2,-1 1.2,-1c0,0 -0.1,0.1 -0.3,0.3c-0.2,0.2 -0.4,0.5 -0.7,0.9c-0.5,0.8 -1.3,1.8 -2,2.8c-0.7,1 -1.4,2 -2,2.8c-0.5,0.8 -0.9,1.3 -0.9,1.3z"/></g></g></g></svg>