<svg xmlns="http://www.w3.org/2000/svg" xmlns:xlink="http://www.w3.org/1999/xlink" version="1.1" width="96.0481487262363" height="67.5745159137363" viewBox="-0.3908721679506093 3.201337051981947 96.0481487262363 67.5745159137363">
  <!-- Exported by Scratch - http://scratch.mit.edu/ -->
  <g id="ID0.8192873732186854">
    <path id="ID0.9573684432543814" fill="#FBB03B" stroke="#000000" stroke-width="0.8525622545542555" d="M 54.1479 35.5856 C 55.0811 35.7088 55.7383 36.5656 55.6154 37.499 L 55.3285 39.6734 C 55.2057 40.6068 54.3487 41.2644 53.4149 41.1413 L 51.2175 40.8516 C 50.2841 40.7287 49.6272 39.8716 49.75 38.9382 L 50.0369 36.7638 C 50.1601 35.8305 51.0166 35.1732 51.9503 35.2963 L 54.1479 35.5856 Z "/>
    <path id="ID0.41889808466657996" stroke="#1A1A1A" stroke-width="0.8525622545542555" d="M 50.0929 33.8084 C 51.0486 33.9096 51.7586 34.6021 51.6789 35.3549 L 51.1544 40.294 C 51.0741 41.047 50.2344 41.5748 49.2788 41.4736 L 38.7804 39.8073 C 37.825 39.7057 37.1148 39.0126 37.1949 38.2601 L 37.6035 34.4111 C 37.6836 33.6586 38.5227 33.1299 39.4791 33.2315 L 50.0929 33.8084 Z "/>
  </g>
  <path id="ID0.13261056737974286" fill="#FBB03B" stroke="#000000" stroke-width="0.8525621784116166" d="M 27.4148 12.6964 L 47.3393 18.669 L 42.4359 35.0267 L 22.5115 29.0541 L 27.4148 12.6964 Z "/>
  <path id="ID0.6617734562605619" stroke="#1A1A1A" stroke-width="0.8525621784116166" d="M 29.1005 25.6142 C 23.0172 23.7907 33.9863 18.5001 38.3155 19.2616 L 48.1067 21.388 C 49.7006 14.6458 45.7809 7.7465 39.0574 5.731 L 36.7744 5.0467 C 29.7969 2.9551 22.4456 6.9159 20.354 13.8935 L 12.3699 40.5284 C 10.2783 47.506 14.239 54.8577 21.2161 56.9491 L 23.4991 57.6335 C 30.4766 59.7251 37.8283 55.7644 39.9199 48.7868 C 39.9199 48.7868 43.438 38.2842 43.014 36.9805 C 42.5897 35.6762 45.4013 30.501 45.4013 30.501 L 29.1003 25.6146 Z "/>
  <path id="ID0.7134617334231734" d="M 42.7183 25.8571 C 43.0237 25.9487 43.2634 26.1558 43.4033 26.4162 C 43.5439 26.6764 43.585 26.9905 43.4934 27.2959 C 43.4019 27.6013 43.1948 27.841 42.9343 27.981 C 42.6741 28.1215 42.3601 28.1626 42.0546 28.0711 C 41.7492 27.9795 41.5096 27.7724 41.3696 27.5119 C 41.2291 27.2517 41.1879 26.9377 41.2795 26.6323 C 41.371 26.3268 41.5782 26.0872 41.8386 25.9472 C 42.0988 25.8067 42.4129 25.7655 42.7183 25.8571 Z " stroke-width="0.4262810892058083"/>
  <path id="ID0.6494691404514015" d="M 37.0017 24.1435 C 37.3071 24.235 37.5467 24.4422 37.6867 24.7026 C 37.8272 24.9628 37.8684 25.2769 37.7768 25.5823 C 37.6853 25.8877 37.4781 26.1274 37.2177 26.2673 C 36.9575 26.4079 36.6434 26.449 36.338 26.3575 C 36.0326 26.2659 35.7929 26.0588 35.653 25.7983 C 35.5124 25.5381 35.4713 25.2241 35.5629 24.9186 C 35.6544 24.6132 35.8615 24.3736 36.122 24.2336 C 36.3822 24.0931 36.6962 24.0519 37.0017 24.1435 Z " stroke-width="0.4262810892058083"/>
  <path id="ID0.03648320911452174" d="M 17.7235 65.3056 C 17.3216 66.4119 16.4185 67.0993 15.7072 66.8409 L 11.0389 65.1448 C 10.3272 64.8863 10.0763 63.7798 10.4782 62.6731 L 15.4339 50.6405 C 15.8358 49.5342 16.739 48.8468 17.4502 49.1057 L 21.0881 50.4273 C 21.7994 50.6858 22.0507 51.7924 21.6483 52.8989 L 17.7235 65.3056 Z " stroke-width="0.4262810682659105"/>
  <path id="ID0.5842904108576477" d="M 10.1294 67.7614 C 9.4002 67.5616 8.9716 66.8073 9.172 66.0773 L 10.4849 61.287 C 10.685 60.5569 11.4386 60.1273 12.1674 60.327 L 20.0751 63.0638 C 20.8044 63.2636 21.2331 64.0175 21.0327 64.7475 L 20.0092 68.4799 C 19.8092 69.21 19.0558 69.6405 18.327 69.4403 L 10.1294 67.7614 Z " stroke-width="0.4262810682659105"/>
  <path id="ID0.01732994895428419" d="M 40.2861 68.0372 C 39.5951 68.3455 38.7857 68.034 38.4773 67.3427 L 36.4545 62.8062 C 36.146 62.1149 36.4558 61.305 37.1464 60.997 L 44.9958 58.0972 C 45.686 57.7894 46.4959 58.1001 46.804 58.7917 L 48.38 62.3264 C 48.6881 63.0179 48.3791 63.8284 47.6883 64.136 L 40.2861 68.0372 Z " stroke-width="0.42628110154753096"/>
  <path id="ID0.255261589307338" d="M 44.2636 60.5758 C 45.0212 61.4767 45.1658 62.6022 44.5866 63.0894 L 40.7854 66.2866 C 40.2066 66.7736 39.1222 66.4386 38.3643 65.538 L 30.4147 55.2348 C 29.6568 54.3341 29.5128 53.2088 30.092 52.7215 L 33.0537 50.2306 C 33.6329 49.7433 34.7169 50.0785 35.4748 50.9791 L 44.2636 60.5758 Z " stroke-width="0.42628110154753096"/>
  <g id="ID0.13109061866998672">
    <path id="ID0.3106537782587111" fill="none" stroke="#000000" stroke-width="0.8525622139222024" d="M 18.7907 21.2647 C 18.7907 21.2647 15.1759 22.4275 13.1257 25.6925 C 11.3171 28.5729 10.3004 30.8343 10.3004 30.8343 "/>
    <path id="ID0.4428880806080997" fill="none" stroke="#000000" stroke-width="0.8525622139222024" d="M 18.1789 21.5038 C 18.1789 21.5038 15.449 19.6294 13.1073 22.6322 C 11.0157 25.3139 9.7494 24.6069 9.7494 24.6069 "/>
  </g>
  <g id="ID0.13042817823588848">
    <path id="ID0.5940494854003191" fill="none" stroke="#000000" stroke-width="2.572944258462864" d="M 0.8956 46.9818 L 89.7981 31.0256 "/>
    <path id="ID0.6533192885108292" fill="#E6E6E6" stroke="#000000" d="M 94.3708 30.0332 L 86.1602 36.1778 L 84.5253 27.152 L 94.3708 30.0332 " stroke-width="1.715296172308576"/>
  </g>
  <g id="ID0.3686451921239495">
    <path id="ID0.08818722935393453" fill="#FBB03B" stroke="#000000" stroke-width="0.8525621629516489" d="M 10.4684 47.212 C 9.7642 47.8372 8.6869 47.7743 8.0614 47.0709 L 6.6041 45.4315 C 5.9786 44.728 6.0419 43.6499 6.7457 43.0246 L 8.4014 41.552 C 9.1056 40.9269 10.1829 40.9898 10.8088 41.6934 L 12.2657 43.3326 C 12.8912 44.036 12.8281 45.1138 12.1241 45.7395 L 10.4684 47.212 Z "/>
    <path id="ID0.8803494698368013" stroke="#1A1A1A" stroke-width="0.8525621629516489" d="M 14.465 45.3074 C 13.7634 45.9644 12.7751 46.0483 12.2579 45.4954 L 8.8645 41.8682 C 8.3477 41.3155 8.4971 40.3347 9.1991 39.678 L 17.3268 32.8268 C 18.0282 32.1703 19.0171 32.0861 19.5341 32.6394 L 22.1778 35.4657 C 22.6946 36.0184 22.5457 36.9989 21.8432 37.6559 L 14.465 45.3074 Z "/>
  </g>
</svg>