<svg xmlns="http://www.w3.org/2000/svg" xmlns:xlink="http://www.w3.org/1999/xlink" version="1.1" width="104.06534577989751" height="85.0852890172022" viewBox="2.3963417928210173 0.6816536109438811 104.06534577989751 85.0852890172022">
  <!-- Exported by Scratch - http://scratch.mit.edu/ -->
  <path id="ID0.5010630823671818" stroke="#1A1A1A" d="M 96.7183 59.3537 C 98.8109 59.1506 100.6106 60.0774 100.7428 61.4218 L 101.5977 70.2476 C 101.7279 71.5918 100.1386 72.847 98.0471 73.0492 L 74.8509 74.3137 C 72.7593 74.5169 70.9586 73.5901 70.8275 72.2447 L 70.1613 65.3681 C 70.0321 64.023 71.6214 62.7688 73.713 62.5656 L 96.7183 59.3537 Z " stroke-width="0.9999999842111583"/>
  <path id="ID0.05127347121015191" stroke="#1A1A1A" d="M 103.6678 72.7533 C 103.4217 74.0803 102.1447 74.9553 100.8145 74.7098 L 92.0967 73.0937 C 90.7677 72.8473 89.8905 71.5721 90.1355 70.2459 L 93.815 55.7678 C 94.0611 54.4407 95.3381 53.5657 96.6663 53.811 L 103.4594 55.0711 C 104.7885 55.3175 105.6658 56.5917 105.4206 57.9189 L 103.6678 72.7533 Z " stroke-width="0.9999999842111583"/>
  <g id="ID0.3960058535449207">
    <path id="ID0.7156396033242345" fill="#FBB03B" stroke="#000000" d="M 42.0716 80.3439 C 41.264 82.6377 39.0426 83.8896 37.1088 83.1382 L 32.6103 81.3922 C 30.6769 80.6449 29.7671 78.1759 30.5767 75.883 L 32.4814 70.4864 C 33.289 68.1927 35.5134 66.9405 37.4451 67.6911 L 41.9436 69.4371 C 43.875 70.1846 44.7857 72.6525 43.9761 74.9454 L 42.0716 80.3439 Z " stroke-width="0.9999999911062897"/>
    <path id="ID0.35180510487407446" stroke="#1A1A1A" d="M 48.2539 70.9687 C 47.4806 73.3265 45.5796 74.79 44.0098 74.233 L 33.7166 70.588 C 32.1459 70.0322 31.5033 67.6684 32.2784 65.3084 L 41.9843 39.6495 C 42.7594 37.2895 44.6605 35.827 46.2281 36.3831 L 54.2511 39.2245 C 55.8217 39.7793 56.4643 42.1431 55.6883 44.5042 L 48.2539 70.9687 Z " stroke-width="0.9999999911062897"/>
  </g>
  <path id="ID0.9638574910350144" fill="#FBB03B" stroke="#000000" d="M 29.916 41.5413 L 49.2332 23.1761 L 56.4004 30.7149 L 37.0832 49.08 L 29.916 41.5413 Z " stroke-width="0.9999999898739294"/>
  <path id="ID0.9187152786180377" stroke="#1A1A1A" d="M 79.5306 69.0907 C 81.6286 68.9751 83.3894 69.9741 83.4633 71.3243 L 83.9497 80.1783 C 84.0254 81.5271 82.3827 82.7145 80.2857 82.8299 L 57.0577 83.1259 C 54.9607 83.2414 53.1985 82.2406 53.125 80.8923 L 52.7454 73.994 C 52.6705 72.644 54.3122 71.4569 56.4101 71.3412 L 79.5306 69.0907 Z " stroke-width="0.9999999947760441"/>
  <path id="ID0.9099954790435731" fill="#FF0000" stroke="#1A1A1A" d="M 26.6148 42.3576 C 22.1194 50.6825 27.6441 58.5603 27.6441 58.5603 L 45.5875 78.222 C 54.5475 87.6465 62.1982 81.1194 71.622 72.1601 C 71.622 72.1601 84.2987 62.142 84.9514 56.9405 C 85.8021 50.1751 80.8641 45.1684 75.7991 39.8408 C 75.7991 39.8408 70.6109 30.7103 64.9296 26.257 C 60.5864 22.8511 50.8347 21.0465 50.3077 26.5893 C 49.8097 31.8286 51.576 35.463 48.2389 36.7495 C 40.1274 39.8761 26.6148 42.3576 26.6148 42.3576 Z " stroke-width="0.9999999898739294"/>
  <path id="ID0.6520506041124463" stroke="#1A1A1A" d="M 88.5068 81.6442 C 88.3564 82.9855 87.1454 83.9498 85.8011 83.8003 L 76.9899 82.8122 C 75.6466 82.6627 74.6802 81.4536 74.8296 80.1123 L 77.4618 65.4086 C 77.6122 64.0673 78.8233 63.1031 80.1656 63.2525 L 87.0316 64.0215 C 88.3749 64.173 89.3412 65.3811 89.1918 66.7224 L 88.5068 81.6442 Z " stroke-width="1.0000000020187938"/>
  <g id="ID0.8802877981215715">
    <path id="ID0.49922366812825203" fill="none" stroke="#000000" stroke-width="2.00000001573736" d="M 19.5679 14.8613 C 19.5679 14.8613 14.2712 19.0915 12.9175 25.8401 C 11.7233 31.7917 11.4574 36.2114 11.4574 36.2114 "/>
    <path id="ID0.13451511971652508" fill="none" stroke="#000000" stroke-width="2.00000001573736" d="M 18.6988 15.6497 C 18.6988 15.6497 12.9546 14.2506 10.9474 20.7458 C 9.1563 26.5451 6.5944 26.1675 6.5944 26.1675 "/>
    <g id="ID0.6903484086506069">
      <path id="ID0.1589315440505743" fill="#FBB03B" stroke="#000000" d="M 59.3305 25.2986 C 60.0258 28.8199 57.7333 32.2387 54.2121 32.934 L 30.5376 37.6044 C 27.0164 38.2996 23.5966 36.0082 22.9023 32.4859 L 19.2766 14.1107 C 18.5813 10.5895 20.8738 7.1706 24.3952 6.4774 L 48.0696 1.806 C 51.5918 1.1106 55.0096 3.4022 55.7049 6.9234 L 59.3305 25.2986 Z " stroke-width="1.00000000786868"/>
      <path id="ID0.6886103297583759" d="M 52.8733 18.2318 C 53.4407 18.1897 53.9724 18.3819 54.372 18.7273 C 54.7726 19.0716 55.0411 19.5691 55.0832 20.1366 C 55.1253 20.704 54.9331 21.2357 54.5877 21.6353 C 54.2433 22.0359 53.7458 22.3044 53.1784 22.3465 C 52.611 22.3885 52.0793 22.1963 51.6797 21.8509 C 51.2791 21.5066 51.0106 21.0091 50.9685 20.4417 C 50.9264 19.8742 51.1186 19.3425 51.464 18.9429 C 51.8084 18.5424 52.3059 18.2738 52.8733 18.2318 Z " stroke-width="1.00000000786868"/>
      <path id="ID0.6997778164222836" d="M 42.4201 20.2933 C 42.9876 20.2513 43.5192 20.4435 43.9189 20.7889 C 44.3194 21.1332 44.588 21.6307 44.63 22.1982 C 44.6721 22.7656 44.4799 23.2973 44.1345 23.6969 C 43.7902 24.0975 43.2927 24.366 42.7252 24.4081 C 42.1578 24.4501 41.6261 24.2579 41.2265 23.9125 C 40.8259 23.5682 40.5574 23.0707 40.5153 22.5032 C 40.4732 21.9358 40.6655 21.4041 41.0109 21.0045 C 41.3552 20.6039 41.8527 20.3354 42.4201 20.2933 Z " stroke-width="1.00000000786868"/>
    </g>
    <path id="ID0.5838014129549265" fill="none" stroke="#000000" stroke-width="2.00000001573736" d="M 19.8177 15.7963 C 19.8177 15.7963 34.7336 10.888 43.4762 9.7745 C 50.6959 8.8541 56.1005 8.9317 56.1005 8.9317 "/>
    <path id="ID0.010391452815383673" fill="none" stroke="#000000" d="M 40.0261 17.2841 L 44.5336 18.3016 " stroke-width="1.00000000786868"/>
    <path id="ID0.5287388269789517" fill="none" stroke="#000000" d="M 49.9648 16.845 L 53.0703 14.4248 " stroke-width="1.00000000786868"/>
    <path id="ID0.4547268385067582" stroke="#000000" d="M 52.694 29.6212 L 45.2257 31.6791 L 44.8811 27.0318 L 52.959 26.4329 L 52.694 29.6212 " stroke-width="1.00000000786868"/>
  </g>
  <path id="ID0.4639964895322919" fill="none" stroke="#1A1A1A" stroke-width="1.9999999797478587" d="M 40.291 72.8468 C 40.291 72.8468 54.0594 65.4763 62.0286 57.9316 C 71.4702 48.9954 77.0028 41.8602 77.0028 41.8602 "/>
  <g id="ID0.9629460275173187">
    <path id="ID0.8727956595830619" fill="#FBB03B" stroke="#000000" d="M 14.0014 82.9076 C 12.5267 84.8418 10.0271 85.3489 8.4184 84.0402 L 4.6771 80.9945 C 3.0683 79.6879 2.9602 77.0597 4.4375 75.1266 L 7.9105 70.5765 C 9.3843 68.6428 11.8852 68.1362 13.4921 69.4435 L 17.237 72.4898 C 18.8441 73.7949 18.9513 76.4235 17.4749 78.3562 L 14.0014 82.9076 Z " stroke-width="1.0000000143301038"/>
    <path id="ID0.595348923932761" stroke="#1A1A1A" d="M 22.7678 75.8873 C 21.3066 77.8942 19.0471 78.701 17.7243 77.6892 L 9.0508 71.0546 C 7.7285 70.0415 7.8442 67.5966 9.3086 65.5895 L 26.4368 44.1595 C 27.8999 42.1518 30.1601 41.3468 31.4807 42.3585 L 38.2401 47.5292 C 39.5638 48.5406 39.4467 50.9872 37.9823 52.9944 L 22.7678 75.8873 Z " stroke-width="1.0000000143301038"/>
  </g>
</svg>