<svg xmlns="http://www.w3.org/2000/svg" xmlns:xlink="http://www.w3.org/1999/xlink" version="1.1" width="98.50691986083984" height="67.10881805419922" viewBox="1.8802034854888916 2.9221200942993164 98.50691986083984 67.10881805419922">
  <!-- Exported by Scratch - http://scratch.mit.edu/ -->
  <path id="ID0.13261056737974286" fill="#FBB03B" stroke="#000000" stroke-width="0.8525621821655086" d="M 78.6312 11.8462 L 98.7686 17.0559 L 94.4914 33.5884 L 74.354 28.3787 L 78.6312 11.8462 Z "/>
  <path id="ID0.6617734562605619" stroke="#1A1A1A" stroke-width="0.8525621821655086" d="M 80.8073 24.6905 C 74.659 23.0998 85.4188 17.3955 89.7739 17.9917 L 99.639 19.7438 C 100.975 12.9458 96.7955 6.2007 90.0001 4.4427 L 87.6927 3.8457 C 80.6406 2.0213 73.4455 6.2591 71.621 13.3112 L 64.6566 40.2308 C 62.8322 47.2829 67.0699 54.4785 74.1216 56.3028 L 76.4289 56.8998 C 83.4811 58.7242 90.6766 54.4865 92.5011 47.4344 C 92.5011 47.4344 95.6168 36.8055 95.1435 35.5188 C 94.6698 34.2317 97.2824 28.9532 97.2824 28.9532 L 80.8072 24.6909 Z "/>
  <path id="ID0.7134617334231734" d="M 94.7183 24.3571 C 95.0237 24.4487 95.2634 24.6558 95.4033 24.9162 C 95.5439 25.1764 95.585 25.4905 95.4934 25.7959 C 95.4019 26.1013 95.1948 26.341 94.9343 26.481 C 94.6741 26.6215 94.3601 26.6626 94.0546 26.5711 C 93.7492 26.4795 93.5096 26.2724 93.3696 26.0119 C 93.2291 25.7517 93.1879 25.4377 93.2795 25.1323 C 93.371 24.8268 93.5782 24.5872 93.8386 24.4472 C 94.0988 24.3067 94.4129 24.2655 94.7183 24.3571 Z " stroke-width="0.4262810892058083"/>
  <path id="ID0.6494691404514015" d="M 88.6468 22.92 C 88.9555 22.9999 89.2029 23.1977 89.3527 23.4527 C 89.503 23.7073 89.556 24.0196 89.4762 24.3283 C 89.3963 24.637 89.1985 24.8843 88.9435 25.0341 C 88.6889 25.1844 88.3766 25.2375 88.0679 25.1576 C 87.7592 25.0778 87.5119 24.8799 87.3621 24.625 C 87.2118 24.3703 87.1587 24.0581 87.2386 23.7494 C 87.3184 23.4407 87.5163 23.1933 87.7712 23.0435 C 88.0259 22.8932 88.3381 22.8402 88.6468 22.92 Z " stroke-width="0.4262810910827543"/>
  <path id="ID0.03648320911452174" d="M 77.3229 65.3675 C 77.1909 66.5371 76.4737 67.4168 75.7217 67.3319 L 70.7861 66.7752 C 70.0337 66.6903 69.5308 65.6733 69.6627 64.5033 L 71.6656 51.6451 C 71.7976 50.4756 72.5148 49.5959 73.2668 49.6812 L 77.113 50.115 C 77.865 50.1998 78.3683 51.2169 78.236 52.3869 L 77.3229 65.3675 Z " stroke-width="0.4262810847464548"/>
  <path id="ID0.5842904108576477" d="M 70.8394 69.4563 C 70.0853 69.4005 69.5197 68.7427 69.5759 67.9878 L 69.943 63.0344 C 69.9988 62.2794 70.6557 61.7129 71.4094 61.7688 L 79.6958 62.9334 C 80.4499 62.9892 81.0156 63.6465 80.9593 64.4015 L 80.6729 68.261 C 80.617 69.016 79.9606 69.5833 79.2069 69.5271 L 70.8394 69.4563 Z " stroke-width="0.4262810945510864"/>
  <path id="ID0.01732994895428419" d="M 79.8063 69.4563 C 79.0518 69.4005 78.4866 68.7427 78.5424 67.9878 L 78.9099 63.0344 C 78.9657 62.2794 79.6222 61.7129 80.3763 61.7688 L 88.6628 62.9334 C 89.4164 62.9892 89.9825 63.6465 89.9263 64.4015 L 89.6398 68.261 C 89.5835 69.016 88.9275 69.5833 88.1734 69.5271 L 79.8063 69.4563 Z " stroke-width="0.4262810945510864"/>
  <path id="ID0.255261589307338" d="M 86.2066 65.5428 C 86.2755 66.7179 85.7188 67.7067 84.9632 67.7512 L 80.0048 68.0427 C 79.2497 68.0872 78.5805 67.1706 78.5111 65.9955 L 78.2953 52.9838 C 78.2259 51.8087 78.783 50.8204 79.5386 50.7759 L 83.4019 50.5489 C 84.1575 50.5044 84.8262 51.4209 84.8956 52.596 L 86.2066 65.5428 Z " stroke-width="0.426281081994366"/>
  <g id="ID0.13109061866998672">
    <path id="ID0.3106537782587111" fill="none" stroke="#000000" stroke-width="0.8525621943652358" d="M 70.2953 19.2071 C 70.2953 19.2071 66.5335 19.7252 63.9481 22.585 C 61.6671 25.108 60.2736 27.1587 60.2736 27.1587 "/>
    <path id="ID0.4428880806080997" fill="none" stroke="#000000" stroke-width="0.8525621943652358" d="M 69.6513 19.3364 C 69.6513 19.3364 67.2879 17.0169 64.4608 19.5679 C 61.9357 21.8461 60.8113 20.9301 60.8113 20.9301 "/>
  </g>
  <path id="ID0.8436069656163454" fill="#FFF05D" stroke="#000000" stroke-width="0.993788546082393" d="M 87.9956 45.5501 C 88.8428 49.645 86.1397 47.6211 81.858 48.8415 L 55.7264 54.566 L 13.7541 68.742 C 8.6938 70.6801 3.6564 68.3513 2.5692 63.0421 C 1.4803 57.7308 5.2199 53.954 10.6139 53.4055 L 54.9286 50.6688 L 81.2016 45.7361 C 85.4082 45.098 87.3449 42.3816 87.9956 45.5501 Z "/>
  <g id="ID0.5392367267049849">
    <path id="ID0.08818722935393453" fill="#FBB03B" stroke="#000000" stroke-width="0.8525621808629246" d="M 66.5534 51.9607 C 66.1624 52.8174 65.1518 53.1958 64.2951 52.8057 L 62.299 51.8964 C 61.4423 51.5063 61.0639 50.4948 61.4544 49.6381 L 62.3725 47.6215 C 62.7634 46.7648 63.7741 46.3863 64.6312 46.7764 L 66.6268 47.6858 C 67.4835 48.0759 67.862 49.0869 67.4715 49.9441 L 66.5534 51.9607 Z "/>
    <path id="ID0.8803494698368013" stroke="#1A1A1A" stroke-width="0.8525621808629246" d="M 69.4372 48.6016 C 69.0615 49.4862 68.1917 49.963 67.495 49.6667 L 62.9239 47.7231 C 62.2277 47.4269 61.9674 46.4696 62.3436 45.5849 L 67.0031 36.0305 C 67.3788 35.1463 68.2491 34.6691 68.9458 34.9658 L 72.5071 36.4804 C 73.2034 36.7767 73.4641 37.7335 73.0875 38.6186 L 69.4372 48.6016 Z "/>
  </g>
  <g id="ID0.3129522814415395">
    <path id="ID0.41889808466657996" stroke="#1A1A1A" stroke-width="0.852562242087627" d="M 90.9664 46.1631 C 90.2157 46.7631 89.2239 46.7701 88.7513 46.1788 L 85.651 42.2982 C 85.1786 41.7065 85.4044 40.7407 86.155 40.1406 L 94.7911 33.943 C 95.5418 33.3433 96.5341 33.3367 97.0064 33.9281 L 99.4224 36.952 C 99.8947 37.5434 99.6698 38.5093 98.9184 39.1096 L 90.9664 46.1631 Z "/>
    <path id="ID0.9573684432543814" fill="#FBB03B" stroke="#000000" stroke-width="0.852562242087627" d="M 86.8336 47.7509 C 86.0834 48.3196 85.0137 48.1725 84.4447 47.4225 L 83.1196 45.6747 C 82.5506 44.9247 82.6975 43.8546 83.448 43.2854 L 85.214 41.9462 C 85.9641 41.3772 87.0339 41.5247 87.6029 42.2747 L 88.928 44.0225 C 89.4966 44.7726 89.35 45.8422 88.5995 46.4114 L 86.8336 47.7509 Z "/>
  </g>
</svg>