<svg xmlns="http://www.w3.org/2000/svg" xmlns:xlink="http://www.w3.org/1999/xlink" version="1.1" width="29.580167770385742" height="38.708614349365234" viewBox="0.23874306678771973 0.3889999985694885 29.580167770385742 38.708614349365234">
  <!-- Exported by Scratch - http://scratch.mit.edu/ -->
  <path id="ID0.3687892844900489" d="M 10.6621 36.2013 C 10.3689 36.7925 9.8229 37.1186 9.4427 36.9301 L 6.9485 35.6928 C 6.5685 35.5042 6.4981 34.872 6.7913 34.2808 L 10.3061 27.8887 C 10.5993 27.2975 11.1453 26.9713 11.5252 27.1599 L 13.4689 28.1241 C 13.8491 28.3126 13.9196 28.9449 13.6264 29.5361 L 10.6621 36.2013 Z " stroke-width="0.23895686864852905"/>
  <path id="ID0.15630904771387577" d="M 26.1453 30.1638 C 26.6615 30.5746 26.866 31.1767 26.6017 31.5089 L 24.8683 33.6877 C 24.6043 34.0198 23.9713 33.956 23.4547 33.5453 L 17.9434 28.7669 C 17.4267 28.3563 17.2222 27.7539 17.4865 27.4218 L 18.8376 25.7242 C 19.1016 25.3921 19.7346 25.4559 20.2507 25.8669 L 26.1453 30.1638 Z " stroke-width="0.23895686864852905"/>
  <path id="ID0.9571989816613495" fill="none" stroke="#000000" stroke-width="0.4779137372970581" d="M 7.8976 9.9698 C 7.8976 9.9698 6.1501 11.1854 5.5857 13.2717 C 5.0882 15.1121 4.9135 16.4912 4.9135 16.4912 "/>
  <path id="ID0.15386404702439904" fill="none" stroke="#000000" stroke-width="0.4779137372970581" d="M 7.6085 10.1985 C 7.6085 10.1985 5.8383 9.641 5.0746 11.6344 C 4.3926 13.4146 3.5981 13.243 3.5981 13.243 "/>
  <path id="ID0.07008709199726582" fill="#FBB03B" stroke="#000000" stroke-width="0.4779137372970581" d="M 28.0333 14.947 C 28.5547 14.8672 29.0424 15.2259 29.1223 15.7475 L 29.3079 16.9629 C 29.3873 17.4845 29.0288 17.9725 28.5069 18.0523 L 27.2789 18.2396 C 26.7571 18.3194 26.2693 17.961 26.1895 17.4391 L 26.0043 16.2238 C 25.9245 15.7019 26.283 15.2147 26.8049 15.1346 L 28.0333 14.947 Z "/>
  <path id="ID0.6664769016206264" stroke="#1A1A1A" stroke-width="0.4779137372970581" d="M 25.5723 14.624 C 26.1026 14.5289 26.5929 14.7908 26.6682 15.2084 L 27.1578 17.9493 C 27.2326 18.367 26.8629 18.7825 26.3327 18.8772 L 20.4204 19.6213 C 19.8902 19.7159 19.3998 19.4538 19.3255 19.0363 L 18.9432 16.9005 C 18.8689 16.483 19.238 16.0673 19.7688 15.9724 L 25.5723 14.624 Z "/>
  <path id="ID0.028991148341447115" fill="#FBB03B" stroke="#000000" stroke-width="0.4779137372970581" d="M 11.4798 6.503 L 23.1397 6.503 L 23.1397 16.0756 L 11.4798 16.0756 L 11.4798 6.503 Z "/>
  <path id="ID0.934041952714324" fill="#009933" stroke="#1A1A1A" stroke-width="0.4779137372970581" d="M 14.4642 13.168 C 10.9042 13.168 15.9426 8.5616 18.3897 8.2737 L 23.9895 7.8395 C 23.7601 3.9627 20.5449 0.889 16.61 0.889 L 15.2742 0.889 C 11.1909 0.889 7.8811 4.199 7.8811 8.2823 L 7.8811 23.8692 C 7.8811 27.9525 11.1912 31.2625 15.2742 31.2625 L 16.61 31.2625 C 20.6933 31.2625 24.0036 27.9525 24.0036 23.8692 C 24.0036 23.8692 24.2019 17.6635 23.7646 17.0317 C 23.3268 16.3996 24.0036 13.1682 24.0036 13.1682 L 14.4642 13.1682 Z "/>
  <path id="ID0.4870021608658135" d="M 21.8152 11.1065 C 21.9939 11.1065 22.1559 11.1792 22.273 11.2965 C 22.3904 11.4136 22.463 11.5756 22.463 11.7543 C 22.463 11.9331 22.3904 12.0951 22.273 12.2122 C 22.1559 12.3295 21.9939 12.4021 21.8152 12.4021 C 21.6365 12.4021 21.4744 12.3295 21.3574 12.2122 C 21.24 12.0951 21.1674 11.9331 21.1674 11.7543 C 21.1674 11.5756 21.24 11.4136 21.3574 11.2965 C 21.4744 11.1792 21.6365 11.1065 21.8152 11.1065 Z " stroke-width="0.23895686864852905"/>
  <path id="ID0.4437686442397535" d="M 18.4698 11.1065 C 18.6485 11.1065 18.8105 11.1792 18.9276 11.2965 C 19.045 11.4136 19.1176 11.5756 19.1176 11.7543 C 19.1176 11.9331 19.045 12.0951 18.9276 12.2122 C 18.8105 12.3295 18.6485 12.4021 18.4698 12.4021 C 18.2911 12.4021 18.129 12.3295 18.012 12.2122 C 17.8946 12.0951 17.822 11.9331 17.822 11.7543 C 17.822 11.5756 17.8946 11.4136 18.012 11.2965 C 18.129 11.1792 18.2911 11.1065 18.4698 11.1065 Z " stroke-width="0.23895686864852905"/>
  <path id="ID0.49555545253679156" fill="#FBB03B" stroke="#000000" stroke-width="0.4779137372970581" d="M 1.3428 15.6551 C 0.8522 15.4608 0.6118 14.9052 0.8061 14.4146 L 1.2589 13.2715 C 1.4532 12.7809 2.0085 12.5403 2.4994 12.7345 L 3.6545 13.1919 C 4.145 13.3862 4.3854 13.9417 4.1912 14.4328 L 3.7383 15.5757 C 3.5441 16.0663 2.9887 16.3069 2.4979 16.1124 L 1.3428 15.6551 Z "/>
  <path id="ID0.2625341503880918" stroke="#1A1A1A" stroke-width="0.4779137372970581" d="M 3.3049 17.1748 C 2.799 16.9896 2.5077 16.5163 2.6537 16.1177 L 3.6129 13.504 C 3.7594 13.1056 4.2877 12.9331 4.7936 13.1188 L 10.2743 15.4574 C 10.7797 15.6431 11.0715 16.117 10.925 16.5151 L 10.1778 18.5519 C 10.0318 18.9503 9.5029 19.123 8.9971 18.9371 L 3.3049 17.1748 Z "/>
  <path id="ID0.8204577909782529" d="M 6.2782 37.0936 C 5.8847 36.9366 5.6932 36.4895 5.8505 36.0954 L 6.8823 33.5094 C 7.0393 33.1154 7.4857 32.923 7.8797 33.08 L 12.1133 35.1002 C 12.5066 35.2572 12.6983 35.704 12.5413 36.0983 L 11.7372 38.1132 C 11.58 38.5072 11.1333 38.7001 10.7395 38.5428 L 6.2782 37.0936 Z " stroke-width="0.23895686864852905"/>
  <path id="ID0.699897791724652" d="M 24.7883 34.7052 C 24.4435 34.9511 23.9637 34.8698 23.7178 34.5243 L 22.1024 32.2563 C 21.8561 31.9108 21.9368 31.4312 22.2816 31.1853 L 26.2729 28.7205 C 26.6177 28.4746 27.0971 28.5556 27.3435 28.9014 L 28.6018 30.6685 C 28.8482 31.014 28.7679 31.4938 28.4226 31.7395 L 24.7883 34.7052 Z " stroke-width="0.23895686864852905"/>
</svg>