<svg xmlns="http://www.w3.org/2000/svg" xmlns:xlink="http://www.w3.org/1999/xlink" version="1.1" width="30.53999900817871" height="31.4375" viewBox="0.45169997215270996 0.4940999746322632 30.53999900817871 31.4375">
  <!-- Exported by Scratch - http://scratch.mit.edu/ -->
  <g id="ID0.07952108979225159">
    <path id="ID0.07179283257573843" fill="none" stroke="#000000" stroke-width="1.9375259189418843" d="M 1.4517 1.4941 L 29.9917 1.4941 L 29.9917 30.9316 L 1.4517 30.9316 L 1.4517 1.4941 Z "/>
    <path id="ID0.9966579801402986" fill="none" stroke="#000000" stroke-width="0.9906693543017209" stroke-linecap="round" d="M 15.95 1.9847 L 15.95 30.1466 "/>
    <path id="ID0.667331853415817" fill="none" stroke="#000000" stroke-width="0.9906693543017209" stroke-linecap="round" d="M 23 1.8375 L 23 30.4409 "/>
    <path id="ID0.663609794806689" fill="none" stroke="#000000" stroke-width="0.9906693543017209" stroke-linecap="round" d="M 8.35 1.5922 L 8.35 30.5391 "/>
  </g>
  <path id="ID0.255261589307338" d="M 12.2419 27.2947 C 12.1626 27.6747 12.2965 28.0243 12.5408 28.0753 L 14.1446 28.4101 C 14.3888 28.4611 14.6515 28.1944 14.7309 27.8144 L 15.4303 23.5792 C 15.5098 23.1992 15.3758 22.8498 15.1314 22.7987 L 13.8818 22.5379 C 13.6374 22.4869 13.3749 22.7536 13.2955 23.1336 L 12.2419 27.2947 Z " stroke-width="0.1406080573797226"/>
  <path id="ID0.03648320911452174" d="M 16.8349 27.5639 C 16.8948 27.9475 17.1435 28.2273 17.3901 28.1888 L 19.0088 27.936 C 19.2556 27.8974 19.407 27.5552 19.3471 27.1715 L 18.5064 22.9622 C 18.4465 22.5787 18.1978 22.2989 17.9512 22.3375 L 16.6898 22.5345 C 16.4431 22.573 16.2916 22.9153 16.3516 23.299 L 16.8349 27.5639 Z " stroke-width="0.1406080573797226"/>
  <path id="ID0.9573684432543814" fill="#FBB03B" stroke="#000000" stroke-width="0.2812161147594452" d="M 9.8149 21.9473 C 9.697 22.2346 9.8344 22.5632 10.1217 22.6812 L 10.791 22.9558 C 11.0782 23.0737 11.407 22.9364 11.5249 22.649 L 11.8025 21.9726 C 11.9205 21.6854 11.783 21.3568 11.4957 21.2388 L 10.8264 20.9642 C 10.5391 20.8464 10.2105 20.9836 10.0926 21.271 L 9.8149 21.9473 Z "/>
  <path id="ID0.41889808466657996" stroke="#1A1A1A" stroke-width="0.2812161147594452" d="M 9.9715 20.4954 C 9.8437 20.7855 9.9254 21.1023 10.1539 21.203 L 11.6533 21.8631 C 11.8819 21.9636 12.1708 21.81 12.2986 21.5199 L 13.5439 18.2423 C 13.6716 17.9522 13.5898 17.6353 13.3613 17.5348 L 12.1928 17.0203 C 11.9643 16.9198 11.6754 17.0732 11.5476 17.3635 L 9.9715 20.4954 Z "/>
  <path id="ID0.13261056737974286" fill="#FBB03B" stroke="#000000" stroke-width="0.2812161147594452" d="M 17.99 10.6941 L 11.129 10.6941 L 11.129 16.3268 L 17.99 16.3268 L 17.99 10.6941 Z "/>
  <path id="ID0.6617734562605619" fill="#006622" stroke="#1A1A1A" stroke-width="0.2812161147594452" d="M 16.2339 14.6159 C 18.3287 14.6159 15.364 11.9054 13.924 11.736 L 10.629 11.4805 C 10.764 9.1992 12.6559 7.3906 14.9711 7.3906 L 15.7572 7.3906 C 18.16 7.3906 20.1075 9.3383 20.1075 11.741 L 20.1075 20.9127 C 20.1075 23.3155 18.1598 25.2632 15.7572 25.2632 L 14.9711 25.2632 C 12.5684 25.2632 10.6207 23.3155 10.6207 20.9127 C 10.6207 20.9127 10.5038 17.2612 10.7613 16.8894 C 11.0189 16.5175 10.6207 14.616 10.6207 14.616 L 16.2339 14.616 Z "/>
  <path id="ID0.7134617334231734" d="M 11.9082 13.4029 C 11.8031 13.4029 11.7077 13.4456 11.6388 13.5147 C 11.5698 13.5835 11.5271 13.6789 11.5271 13.7841 C 11.5271 13.8892 11.5698 13.9846 11.6388 14.0535 C 11.7077 14.1225 11.8031 14.1652 11.9082 14.1652 C 12.0134 14.1652 12.1087 14.1225 12.1776 14.0535 C 12.2467 13.9846 12.2894 13.8892 12.2894 13.7841 C 12.2894 13.6789 12.2467 13.5835 12.1776 13.5147 C 12.1087 13.4456 12.0134 13.4029 11.9082 13.4029 Z " stroke-width="0.1406080573797226"/>
  <path id="ID0.6494691404514015" d="M 13.8768 13.4029 C 13.7716 13.4029 13.6762 13.4456 13.6073 13.5147 C 13.5383 13.5835 13.4956 13.6789 13.4956 13.7841 C 13.4956 13.8892 13.5383 13.9846 13.6073 14.0535 C 13.6762 14.1225 13.7716 14.1652 13.8768 14.1652 C 13.9819 14.1652 14.0773 14.1225 14.1462 14.0535 C 14.2152 13.9846 14.2579 13.8892 14.2579 13.7841 C 14.2579 13.6789 14.2152 13.5835 14.1462 13.5147 C 14.0773 13.4456 13.9819 13.4029 13.8768 13.4029 Z " stroke-width="0.1406080573797226"/>
  <path id="ID0.3106537782587111" fill="none" stroke="#000000" stroke-width="0.2812161147594452" d="M 19.6841 12.8404 C 19.6841 12.8404 20.8598 12.4083 22.0558 12.8404 C 23.1109 13.2216 23.8345 13.6028 23.8345 13.6028 "/>
  <path id="ID0.4428880806080997" fill="none" stroke="#000000" stroke-width="0.2812161147594452" d="M 19.8917 12.7783 C 19.8917 12.7783 20.2204 11.7367 21.4389 12.0414 C 22.5272 12.3134 22.7127 11.8725 22.7127 11.8725 "/>
  <path id="ID0.08818722935393453" fill="#FBB03B" stroke="#000000" stroke-width="0.2812161147594452" d="M 19.6712 22.5375 C 19.8031 22.8187 20.1378 22.94 20.419 22.8084 L 21.0742 22.5016 C 21.3554 22.37 21.4768 22.0351 21.345 21.7539 L 21.0353 21.0919 C 20.9034 20.8107 20.5687 20.6893 20.2874 20.8209 L 19.6323 21.1277 C 19.351 21.2593 19.2297 21.5941 19.3615 21.8755 L 19.6712 22.5375 Z "/>
  <path id="ID0.8803494698368013" stroke="#1A1A1A" stroke-width="0.2812161147594452" d="M 18.7085 21.4395 C 18.8354 21.73 19.124 21.8842 19.3527 21.7841 L 20.8537 21.1273 C 21.0824 21.0272 21.1649 20.7105 21.0378 20.4201 L 19.468 17.2848 C 19.3411 16.9944 19.0524 16.84 18.8236 16.9403 L 17.6542 17.4521 C 17.4256 17.5522 17.3429 17.8687 17.4701 18.1594 L 18.7085 21.4395 Z "/>
  <path id="ID0.5842904108576477" d="M 19.1372 28.8406 C 19.3859 28.8222 19.5725 28.6053 19.5539 28.3563 L 19.4329 26.7224 C 19.4145 26.4734 19.1978 26.2865 18.9492 26.3049 L 16.2159 26.6891 C 15.9672 26.7075 15.7806 26.9243 15.7991 27.1733 L 15.8936 28.4464 C 15.9121 28.6954 16.1286 28.8825 16.3772 28.864 L 19.1372 28.8406 Z " stroke-width="0.1406080573797226"/>
  <path id="ID0.01732994895428419" d="M 14.5632 28.8406 C 14.8121 28.8222 14.9985 28.6053 14.9801 28.3563 L 14.8589 26.7224 C 14.8405 26.4734 14.6239 26.2865 14.3752 26.3049 L 11.6419 26.6891 C 11.3933 26.7075 11.2066 26.9243 11.2252 27.1733 L 11.3197 28.4464 C 11.3382 28.6954 11.5546 28.8825 11.8033 28.864 L 14.5632 28.8406 Z " stroke-width="0.1406080573797226"/>
  <path id="ID0.7907564179040492" fill="none" stroke="#000000" stroke-width="2" stroke-linecap="round" d="M 10.95 20.4 L 18.95 20.5 "/>
</svg>