<svg xmlns="http://www.w3.org/2000/svg" xmlns:xlink="http://www.w3.org/1999/xlink" version="1.1" width="107.05692291259766" height="112.41780090332031" viewBox="1.8083884716033936 0.479888916015625 107.05692291259766 112.41780090332031">
  <!-- Exported by Scratch - http://scratch.mit.edu/ -->
  <g id="ID0.6471267184242606">
    <path id="ID0.5010630823671818" stroke="#1A1A1A" d="M 91.0669 86.9748 C 92.7234 88.2695 93.3892 90.1811 92.5587 91.2466 L 87.097 98.232 C 86.2652 99.2959 84.2485 99.1106 82.5934 97.816 L 64.9109 82.7498 C 63.255 81.4559 62.5886 79.5434 63.4206 78.4781 L 67.6759 73.0353 C 68.5091 71.9715 70.525 72.1575 72.1809 73.4514 L 91.0669 86.9748 Z " stroke-width="0.9999999759276094"/>
    <path id="ID0.05127347121015191" stroke="#1A1A1A" d="M 86.8709 101.4743 C 85.7781 102.2665 84.2497 102.0208 83.4549 100.9263 L 78.2503 93.7484 C 77.4568 92.654 77.6997 91.1254 78.7911 90.3331 L 91.4335 82.3754 C 92.5263 81.5833 94.0547 81.829 94.8483 82.9219 L 98.9032 88.5158 C 99.6967 89.6101 99.4545 91.1381 98.3624 91.931 L 86.8709 101.4743 Z " stroke-width="0.9999999759276094"/>
    <g id="ID0.3960058535449207">
      <path id="ID0.7156396033242345" fill="#FBB03B" stroke="#000000" d="M 98.1092 16.7708 C 99.8743 15.0982 102.4222 14.9977 103.8002 16.5485 L 107.0066 20.1547 C 108.3861 21.7018 108.0692 24.3139 106.3026 25.9849 L 102.1456 29.918 C 100.3805 31.5907 97.8297 31.69 96.4532 30.1408 L 93.2469 26.5347 C 91.8692 24.9883 92.1848 22.3768 93.9514 20.7058 L 98.1092 16.7708 Z " stroke-width="1.0000000118271033"/>
      <path id="ID0.35180510487407446" stroke="#1A1A1A" d="M 88.3304 22.2928 C 90.0942 20.5475 92.4536 20.1125 93.5963 21.3243 L 101.0928 29.2641 C 102.2369 30.4753 101.7302 32.8719 99.9638 34.6183 L 79.6203 53.0228 C 77.8538 54.7692 75.4949 55.2033 74.3536 53.9932 L 68.5107 47.8043 C 67.3662 46.5941 67.8728 44.1974 69.6406 42.4505 L 88.3304 22.2928 Z " stroke-width="1.0000000118271033"/>
    </g>
    <path id="ID0.9638574910350144" fill="#FBB03B" stroke="#000000" d="M 47.637 33.477 L 74.291 33.477 L 74.291 43.879 L 47.637 43.879 L 47.637 33.477 Z " stroke-width="1"/>
    <path id="ID0.9187152786180377" stroke="#1A1A1A" d="M 48.932 104.855 C 48.608 106.931 47.264 108.445 45.928 108.236 L 37.167 106.867 C 35.832 106.66 35.013 104.806 35.337 102.731 L 39.887 79.951 C 40.211 77.876 41.557 76.361 42.891 76.57 L 49.717 77.636 C 51.053 77.844 51.872 79.697 51.548 81.773 L 48.932 104.855 Z " stroke-width="1"/>
    <path id="ID0.9099954790435731" fill="#FF0000" stroke="#1A1A1A" d="M 44.682 31.794 C 35.688 34.73 34.264 44.246 34.264 44.246 L 33.721 70.859 C 33.721 83.863 43.763 84.404 56.766 84.404 C 56.766 84.404 72.856 85.878 76.913 82.558 C 82.191 78.241 82.062 71.21 82.062 63.859 C 82.062 63.859 84.593 53.667 83.544 46.525 C 82.743 41.064 76.919 33.037 72.718 36.691 C 68.747 40.145 67.523 43.996 64.218 42.629 C 56.185 39.306 44.682 31.794 44.682 31.794 Z " stroke-width="1"/>
    <path id="ID0.6520506041124463" stroke="#1A1A1A" d="M 36.473 111.766 C 35.127 111.666 34.118 110.492 34.217 109.143 L 34.874 100.301 C 34.973 98.953 36.145 97.942 37.491 98.041 L 52.283 100.12 C 53.629 100.22 54.638 101.394 54.539 102.741 L 54.028 109.631 C 53.927 110.979 52.756 111.99 51.41 111.891 L 36.473 111.766 Z " stroke-width="1"/>
    <g id="ID0.8802877981215715">
      <path id="ID0.49922366812825203" fill="none" stroke="#000000" stroke-width="2" d="M 42.347 12.44 C 42.347 12.44 36.752 16.267 34.903 22.897 C 33.272 28.744 32.68 33.132 32.68 33.132 "/>
      <path id="ID0.13451511971652508" fill="none" stroke="#000000" stroke-width="2" d="M 41.422 13.162 C 41.422 13.162 35.797 11.342 33.315 17.671 C 31.1 23.322 28.573 22.756 28.573 22.756 "/>
      <g id="ID0.6903484086506069">
        <path id="ID0.1589315440505743" fill="#FBB03B" stroke="#000000" d="M 81.229 25.789 C 81.662 29.352 79.123 32.592 75.56 33.025 L 51.605 35.932 C 48.042 36.365 44.801 33.827 44.369 30.263 L 42.112 11.67 C 41.679 8.107 44.218 4.867 47.781 4.436 L 71.736 1.528 C 75.3 1.095 78.539 3.633 78.972 7.196 L 81.229 25.789 Z " stroke-width="1"/>
        <path id="ID0.6886103297583759" d="M 75.312 18.264 C 75.881 18.264 76.397 18.495 76.77 18.869 C 77.144 19.242 77.375 19.758 77.375 20.327 C 77.375 20.896 77.144 21.412 76.77 21.785 C 76.397 22.159 75.881 22.39 75.312 22.39 C 74.743 22.39 74.227 22.159 73.854 21.785 C 73.48 21.412 73.249 20.896 73.249 20.327 C 73.249 19.758 73.48 19.242 73.854 18.869 C 74.227 18.495 74.743 18.264 75.312 18.264 Z " stroke-width="1"/>
        <path id="ID0.6997778164222836" d="M 64.735 19.547 C 65.304 19.547 65.82 19.778 66.193 20.152 C 66.567 20.525 66.798 21.041 66.798 21.61 C 66.798 22.179 66.567 22.695 66.193 23.068 C 65.82 23.442 65.304 23.673 64.735 23.673 C 64.166 23.673 63.65 23.442 63.277 23.068 C 62.903 22.695 62.672 22.179 62.672 21.61 C 62.672 21.041 62.903 20.525 63.277 20.152 C 63.65 19.778 64.166 19.547 64.735 19.547 Z " stroke-width="1"/>
      </g>
      <path id="ID0.5838014129549265" fill="none" stroke="#000000" stroke-width="2" d="M 42.527 13.391 C 42.527 13.391 57.765 9.599 66.566 9.135 C 73.834 8.751 79.218 9.228 79.218 9.228 "/>
      <path id="ID0.010391452815383673" fill="none" stroke="#000000" d="M 62.57 16.369 L 66.99 17.717 " stroke-width="1"/>
      <path id="ID0.5287388269789517" fill="none" stroke="#000000" d="M 72.514 16.666 L 75.79 14.482 " stroke-width="1"/>
      <path id="ID0.4547268385067582" stroke="#000000" d="M 74.291 29.609 L 66.691 31.109 L 66.691 26.449 L 74.791 26.449 L 74.291 29.609 " stroke-width="1"/>
    </g>
    <path id="ID0.4639964895322919" fill="none" stroke="#1A1A1A" stroke-width="2" d="M 33.586 63.314 C 33.586 63.314 48.643 67.459 59.617 67.482 C 72.617 67.511 81.543 66.152 81.543 66.152 "/>
    <g id="ID0.9629460275173187">
      <path id="ID0.8727956595830619" fill="#FBB03B" stroke="#000000" d="M 4.9093 26.3514 C 2.8794 25.0116 2.2035 22.5523 3.3999 20.8583 L 6.1843 16.9186 C 7.3785 15.2248 9.9932 14.9382 12.0223 16.2808 L 16.7979 19.4365 C 18.8273 20.7755 19.5028 23.2361 18.3077 24.9283 L 15.5229 28.8715 C 14.3301 30.5636 11.7148 30.8492 9.6862 29.5076 L 4.9093 26.3514 Z " stroke-width="0.9999999768760863"/>
      <path id="ID0.595348923932761" stroke="#1A1A1A" d="M 12.5092 34.6204 C 10.4076 33.299 9.4491 31.0996 10.3687 29.7111 L 16.3984 20.6067 C 17.3193 19.2186 19.7664 19.1679 21.8685 20.4925 L 44.413 36.1246 C 46.5155 37.4478 47.4722 39.6481 46.5526 41.0344 L 41.8532 48.1296 C 40.9342 49.519 38.4853 49.5684 36.3832 48.2439 L 12.5092 34.6204 Z " stroke-width="0.9999999768760863"/>
    </g>
  </g>
</svg>