<svg xmlns="http://www.w3.org/2000/svg" xmlns:xlink="http://www.w3.org/1999/xlink" version="1.1" width="37.78651809692383" height="36.766483306884766" viewBox="-0.22089999914169312 3.747115135192871 37.78651809692383 36.766483306884766">
  <!-- Exported by Scratch - http://scratch.mit.edu/ -->
  <path id="ID0.3687892844900489" d="M 22.0704 37.8078 C 21.9746 38.4607 21.5564 38.9399 21.1366 38.8783 L 18.3818 38.4741 C 17.9621 38.4125 17.6993 37.8331 17.7951 37.1802 L 19.158 30.0139 C 19.2538 29.361 19.672 28.8818 20.0916 28.9434 L 22.2383 29.2584 C 22.6582 29.32 22.921 29.8994 22.8252 30.5523 L 22.0704 37.8078 Z " stroke-width="0.23895686382018358"/>
  <path id="ID0.15630904771387577" d="M 34.266 23.1868 C 34.9255 23.1982 35.4545 23.5511 35.4472 23.9755 L 35.3996 26.7594 C 35.3925 27.1836 34.8516 27.5186 34.1917 27.5075 L 26.9102 27.0746 C 26.2504 27.0637 25.7212 26.7105 25.7285 26.2861 L 25.7661 24.1169 C 25.7732 23.6926 26.3141 23.3577 26.9738 23.3693 L 34.266 23.1868 Z " stroke-width="0.23895686010595932"/>
  <path id="ID0.9571989816613495" fill="none" stroke="#000000" stroke-width="0.4779137668597595" d="M 6.99 17.8234 C 6.99 17.8234 4.8933 18.1908 3.0234 17.1069 C 1.3742 16.1504 0.2791 15.2943 0.2791 15.2943 "/>
  <path id="ID0.15386404702439904" fill="none" stroke="#000000" stroke-width="0.4779137668597595" d="M 6.6237 17.8647 C 6.6237 17.8647 5.7594 19.507 3.8134 18.6294 C 2.0756 17.8456 1.6323 18.5269 1.6323 18.5269 "/>
  <path id="ID0.07008709199726582" fill="#FBB03B" stroke="#000000" stroke-width="0.47791371798859994" d="M 25.7311 8.7066 C 26.0528 8.2886 26.6532 8.2108 27.0714 8.5327 L 28.0454 9.2828 C 28.4633 9.605 28.5414 10.2054 28.2193 10.6238 L 27.4612 11.6078 C 27.1392 12.0261 26.5389 12.1041 26.1206 11.782 L 25.1469 11.0316 C 24.7285 10.7095 24.6509 10.1096 24.9728 9.6911 L 25.7311 8.7066 Z "/>
  <path id="ID0.6664769016206264" stroke="#1A1A1A" stroke-width="0.47791371798859994" d="M 23.729 10.1738 C 24.0466 9.7386 24.582 9.5891 24.925 9.839 L 27.173 11.4817 C 27.5157 11.7319 27.5357 12.2877 27.2178 12.7225 L 23.4587 17.3461 C 23.1408 17.7809 22.6053 17.9303 22.2631 17.6799 L 20.5107 16.4004 C 20.1685 16.15 20.1481 15.5944 20.4661 15.159 L 23.729 10.1738 Z "/>
  <path id="ID0.028991148341447115" fill="#FBB03B" stroke="#000000" stroke-width="0.47791372021191864" d="M 8.2231 13.3542 L 17.4705 6.2522 L 23.3012 13.8442 L 14.0538 20.9462 L 8.2231 13.3542 Z "/>
  <path id="ID0.934041952714324" fill="#009933" stroke="#1A1A1A" stroke-width="0.47791372021191864" d="M 14.6496 16.8224 C 11.8262 18.9908 13.0164 12.2686 14.7818 10.5497 L 18.9585 6.7946 C 16.4152 3.8596 11.9931 3.3802 8.8723 5.777 L 7.8129 6.5906 C 4.5745 9.0777 3.9656 13.7189 6.4528 16.9573 L 15.9467 29.3192 C 18.4338 32.5577 23.0751 33.1667 26.3134 30.6797 L 27.3728 29.8661 C 30.6112 27.379 31.2204 22.7375 28.7333 19.4991 C 28.7333 19.4991 25.1107 14.4566 24.3791 14.2218 C 23.6469 13.9872 22.2154 11.0122 22.2154 11.0122 L 14.6497 16.8226 Z "/>
  <path id="ID0.4870021608658135" d="M 19.224 10.71 C 19.3658 10.6011 19.5385 10.56 19.7028 10.5818 C 19.8672 10.6032 20.0235 10.6874 20.1324 10.8292 C 20.2412 10.9709 20.2823 11.1437 20.2606 11.308 C 20.2392 11.4724 20.1549 11.6287 20.0132 11.7375 C 19.8714 11.8464 19.6987 11.8875 19.5344 11.8657 C 19.37 11.8443 19.2137 11.7601 19.1048 11.6183 C 18.9959 11.4766 18.9549 11.3038 18.9766 11.1395 C 18.998 10.9752 19.0823 10.8189 19.224 10.71 Z " stroke-width="0.23895686010595932"/>
  <path id="ID0.4437686442397535" d="M 16.5708 12.7477 C 16.7126 12.6388 16.8853 12.5977 17.0496 12.6195 C 17.214 12.6409 17.3703 12.7251 17.4792 12.8669 C 17.588 13.0086 17.6291 13.1814 17.6074 13.3457 C 17.586 13.51 17.5017 13.6663 17.36 13.7752 C 17.2182 13.8841 17.0455 13.9252 16.8811 13.9034 C 16.7168 13.882 16.5605 13.7978 16.4516 13.656 C 16.3427 13.5143 16.3017 13.3415 16.3234 13.1772 C 16.3448 13.0128 16.429 12.8565 16.5708 12.7477 Z " stroke-width="0.23895686010595932"/>
  <path id="ID0.49555545253679156" fill="#FBB03B" stroke="#000000" stroke-width="0.47791372021191864" d="M 5.758 26.7871 C 5.2506 26.9318 4.7215 26.6376 4.5768 26.1302 L 4.2396 24.9478 C 4.0949 24.4404 4.3887 23.9113 4.8963 23.7664 L 6.091 23.4255 C 6.5984 23.2808 7.1275 23.575 7.2725 24.0828 L 7.6095 25.2651 C 7.7543 25.7725 7.4604 26.3016 6.9527 26.4462 L 5.758 26.7871 Z "/>
  <path id="ID0.2625341503880918" stroke="#1A1A1A" stroke-width="0.47791372021191864" d="M 8.2398 26.7973 C 7.7258 26.9586 7.2064 26.7606 7.0794 26.3555 L 6.2481 23.6984 C 6.1217 23.2932 6.4356 22.8346 6.9499 22.6737 L 12.7211 21.1902 C 13.235 21.0296 13.7551 21.2277 13.8814 21.6327 L 14.5294 23.7032 C 14.6562 24.1081 14.3421 24.5672 13.8276 24.7279 L 8.2398 26.7973 Z "/>
  <path id="ID0.8204577909782529" d="M 18.1782 40.0136 C 17.7553 39.9861 17.4349 39.6203 17.4624 39.1969 L 17.6428 36.4185 C 17.6701 35.9952 18.035 35.6741 18.4583 35.7014 L 23.1093 36.3114 C 23.5319 36.3389 23.8525 36.7045 23.8253 37.128 L 23.6846 39.2928 C 23.6571 39.7162 23.2921 40.0378 22.869 40.0103 L 18.1782 40.0136 Z " stroke-width="0.23895686382018358"/>
  <path id="ID0.699897791724652" d="M 35.9559 27.6151 C 35.8321 28.0201 35.4021 28.2479 34.9966 28.1237 L 32.3341 27.3089 C 31.9283 27.1849 31.7002 26.7553 31.8239 26.3503 L 33.4881 21.9644 C 33.6118 21.5593 34.0413 21.3316 34.4473 21.4558 L 36.5216 22.0908 C 36.9274 22.2148 37.156 22.6442 37.0318 23.0494 L 35.9559 27.6151 Z " stroke-width="0.23895686010595932"/>
</svg>