<svg xmlns="http://www.w3.org/2000/svg" xmlns:xlink="http://www.w3.org/1999/xlink" version="1.1" width="30.96238136291504" height="38.59922409057617" viewBox="1.5011000633239746 0.6687158346176147 30.96238136291504 38.59922409057617">
  <!-- Exported by Scratch - http://scratch.mit.edu/ -->
  <path id="ID0.5842904108576477" d="M 7.2271 38.7247 C 6.7896 38.6923 6.4614 38.3107 6.494 37.8727 L 6.707 34.999 C 6.7394 34.561 7.1205 34.2323 7.5577 34.2647 L 12.3651 34.9403 C 12.8026 34.9727 13.1308 35.3541 13.0982 35.7921 L 12.932 38.0312 C 12.8996 38.4692 12.5187 38.7984 12.0815 38.7657 L 7.2271 38.7247 Z " stroke-width="0.24730812013149261"/>
  <path id="ID0.03648320911452174" d="M 11.2765 36.4791 C 11.1711 37.1538 10.7336 37.6459 10.2999 37.5781 L 7.4529 37.1335 C 7.0188 37.0657 6.7525 36.4638 6.8578 35.7889 L 8.3365 28.3854 C 8.4418 27.7108 8.8793 27.2186 9.3131 27.2867 L 11.5317 27.6331 C 11.9655 27.7009 12.2321 28.3028 12.1265 28.9777 L 11.2765 36.4791 Z " stroke-width="0.24730812013149261"/>
  <path id="ID0.255261589307338" d="M 19.3548 36.0055 C 19.4943 36.674 19.2589 37.2888 18.829 37.3786 L 16.0082 37.9674 C 15.5787 38.0572 15.1167 37.588 14.977 36.9196 L 13.7469 29.4706 C 13.6071 28.8022 13.8428 28.1876 14.2726 28.0978 L 16.4705 27.6391 C 16.9003 27.5493 17.362 28.0184 17.5017 28.6869 L 19.3548 36.0055 Z " stroke-width="0.24730812013149261"/>
  <path id="ID0.01732994895428419" d="M 15.272 38.7247 C 14.8343 38.6923 14.5063 38.3107 14.5387 37.8727 L 14.7519 34.999 C 14.7843 34.561 15.1652 34.2323 15.6027 34.2647 L 20.4101 34.9403 C 20.8473 34.9727 21.1757 35.3541 21.1431 35.7921 L 20.9769 38.0312 C 20.9443 38.4692 20.5637 38.7984 20.1262 38.7657 L 15.272 38.7247 Z " stroke-width="0.24730812013149261"/>
  <path id="ID0.9573684432543814" fill="#FBB03B" stroke="#000000" stroke-width="0.4946162202471921" d="M 30.5873 15.1884 C 31.1253 15.095 31.6375 15.4557 31.7311 15.9938 L 31.9487 17.2475 C 32.0423 17.7856 31.6816 18.2981 31.1432 18.3916 L 29.8763 18.6116 C 29.3382 18.7051 28.8261 18.3443 28.7325 17.8061 L 28.5149 16.5525 C 28.4216 16.0144 28.782 15.5021 29.3203 15.4086 L 30.5873 15.1884 Z "/>
  <path id="ID0.41889808466657996" stroke="#1A1A1A" stroke-width="0.4946162202471921" d="M 28.0343 14.9063 C 28.581 14.7969 29.094 15.0574 29.1802 15.4881 L 29.7448 18.3138 C 29.8307 18.7446 29.4572 19.1823 28.9105 19.2917 L 22.8089 20.1865 C 22.2622 20.2957 21.749 20.0348 21.6631 19.6043 L 21.223 17.4023 C 21.137 16.9717 21.5102 16.5337 22.0573 16.4244 L 28.0343 14.9063 Z "/>
  <path id="ID0.13261056737974286" fill="#FBB03B" stroke="#000000" stroke-width="0.4946162383178332" d="M 11.4595 6.505 L 23.4329 8.008 L 22.199 17.838 L 10.2256 16.3351 L 11.4595 6.505 Z "/>
  <path id="ID0.6617734562605619" fill="#009999" stroke="#1A1A1A" stroke-width="0.4946162383178332" d="M 13.665 13.7339 C 10.0092 13.275 15.7769 9.1942 18.327 9.214 L 24.1332 9.4899 C 24.3974 5.4793 21.492 1.9085 17.4515 1.4013 L 16.0795 1.2291 C 11.8865 0.7028 8.061 3.6752 7.5347 7.8683 L 5.5255 23.8743 C 4.9992 28.0674 7.9716 31.8931 12.1644 32.4194 L 13.5364 32.5916 C 17.7295 33.118 21.5552 30.1456 22.0815 25.9525 C 22.0815 25.9525 23.0853 19.6055 22.7175 18.9003 C 22.3494 18.1949 23.4608 14.9638 23.4608 14.9638 L 13.6649 13.7342 Z "/>
  <path id="ID0.7134617334231734" d="M 20.6296 12.3646 C 20.8132 12.3876 20.9702 12.4831 21.0753 12.6187 C 21.1807 12.754 21.2344 12.9298 21.2114 13.1133 C 21.1883 13.2969 21.0928 13.4539 20.9573 13.559 C 20.8219 13.6644 20.6462 13.7181 20.4626 13.695 C 20.2791 13.672 20.1221 13.5765 20.017 13.4409 C 19.9116 13.3056 19.8578 13.1298 19.8809 12.9463 C 19.9039 12.7628 19.9994 12.6057 20.135 12.5006 C 20.2703 12.3952 20.4461 12.3415 20.6296 12.3646 Z " stroke-width="0.2473081191589166"/>
  <path id="ID0.6494691404514015" d="M 17.1943 11.9334 C 17.3778 11.9564 17.5348 12.0519 17.6399 12.1874 C 17.7453 12.3228 17.799 12.4985 17.776 12.6821 C 17.753 12.8656 17.6575 13.0226 17.5219 13.1278 C 17.3865 13.2331 17.2108 13.2869 17.0273 13.2638 C 16.8437 13.2408 16.6867 13.1453 16.5816 13.0097 C 16.4762 12.8744 16.4225 12.6986 16.4455 12.5151 C 16.4686 12.3315 16.5641 12.1745 16.6996 12.0694 C 16.835 11.964 17.0107 11.9103 17.1943 11.9334 Z " stroke-width="0.2473081191589166"/>
  <path id="ID0.3106537782587111" fill="none" stroke="#000000" stroke-width="0.49461622451365383" d="M 7.3625 8.9562 C 7.3625 8.9562 5.2255 9.4914 3.9142 11.3033 C 2.7573 12.9018 2.0825 14.1721 2.0825 14.1721 "/>
  <path id="ID0.4428880806080997" fill="none" stroke="#000000" stroke-width="0.49461622451365383" d="M 6.9992 9.0712 C 6.9992 9.0712 5.4904 7.882 4.0202 9.531 C 2.7071 11.0036 2.0011 10.546 2.0011 10.546 "/>
  <path id="ID0.08818722935393453" fill="#FBB03B" stroke="#000000" stroke-width="0.4946162619220357" d="M 5.1751 27.1688 C 4.8976 27.6394 4.2915 27.7965 3.8209 27.5195 L 2.7243 26.8739 C 2.2537 26.5969 2.0966 25.9903 2.3738 25.5197 L 3.0258 24.4118 C 3.3033 23.9412 3.9093 23.7841 4.3802 24.0611 L 5.4766 24.7068 C 5.9472 24.9838 6.1043 25.5901 5.827 26.0609 L 5.1751 27.1688 Z "/>
  <path id="ID0.8803494698368013" stroke="#1A1A1A" stroke-width="0.4946162619220357" d="M 7.0426 25.4055 C 6.7722 25.8931 6.2414 26.1155 5.8574 25.9023 L 3.3378 24.5039 C 2.954 24.2908 2.8619 23.7226 3.1325 23.235 L 6.4001 18.0047 C 6.6704 17.5173 7.2014 17.2948 7.5854 17.5082 L 9.5485 18.5979 C 9.9323 18.811 10.0247 19.3789 9.7537 19.8668 L 7.0426 25.4055 Z "/>
</svg>