<svg xmlns="http://www.w3.org/2000/svg" xmlns:xlink="http://www.w3.org/1999/xlink" version="1.1" width="64.5942250022529" height="70.09700591655954" viewBox="1.5668813820064855 0.15738006784327752 64.5942250022529 70.09700591655954">
  <!-- Exported by Scratch - http://scratch.mit.edu/ -->
  <path id="ID0.9571989816613495" fill="none" stroke="#000000" stroke-width="0.8687034845352173" d="M 26.4467 17.4406 C 26.4467 17.4406 23.2702 19.6501 22.2443 23.4425 C 21.34 26.7878 21.0225 29.2945 21.0225 29.2945 "/>
  <path id="ID0.15386404702439904" fill="none" stroke="#000000" stroke-width="0.8687034845352173" d="M 25.9211 17.8563 C 25.9211 17.8563 22.7034 16.8429 21.3152 20.4663 C 20.0756 23.7022 18.6314 23.3903 18.6314 23.3903 "/>
  <path id="ID0.07008709199726582" fill="#FBB03B" stroke="#000000" stroke-width="0.8687034845352173" d="M 63.0473 26.4877 C 63.9951 26.3426 64.8816 26.9946 65.0267 27.9428 L 65.3641 30.1519 C 65.5083 31.1001 64.8568 31.987 63.9082 32.1321 L 61.6761 32.4726 C 60.7274 32.6177 59.8409 31.9662 59.6959 31.0176 L 59.3592 28.8084 C 59.2142 27.8598 59.8657 26.9742 60.8143 26.8287 L 63.0473 26.4877 Z "/>
  <path id="ID0.6664769016206264" stroke="#1A1A1A" stroke-width="0.8687034845352173" d="M 58.5739 25.9005 C 59.5377 25.7276 60.429 26.2036 60.5659 26.9629 L 61.4558 31.9449 C 61.5918 32.7041 60.9199 33.4595 59.956 33.6315 L 49.2093 34.9841 C 48.2455 35.1561 47.3542 34.6796 47.2191 33.9208 L 46.5241 30.0385 C 46.3891 29.2797 47.0601 28.5239 48.0248 28.3515 L 58.5739 25.9005 Z "/>
  <path id="ID0.028991148341447115" fill="#FBB03B" stroke="#000000" stroke-width="0.8687034845352173" d="M 32.958 11.139 L 54.1522 11.139 L 54.1522 28.5391 L 32.958 28.5391 L 32.958 11.139 Z "/>
  <path id="ID0.934041952714324" stroke="#1A1A1A" stroke-width="0.8687034845352173" d="M 38.3826 23.254 C 31.9117 23.254 41.07 14.881 45.5182 14.3576 L 55.6968 13.5683 C 55.2798 6.5214 49.4356 0.9344 42.2831 0.9344 L 39.8551 0.9344 C 32.4329 0.9344 26.4167 6.951 26.4167 14.3732 L 26.4167 42.7055 C 26.4167 50.1277 32.4333 56.1444 39.8551 56.1444 L 42.2831 56.1444 C 49.7053 56.1444 55.7224 50.1277 55.7224 42.7055 C 55.7224 42.7055 56.0829 31.4254 55.2881 30.277 C 54.4923 29.1281 55.7224 23.2544 55.7224 23.2544 L 38.3826 23.2544 Z "/>
  <path id="ID0.4870021608658135" d="M 51.7446 19.5068 C 52.0695 19.5068 52.364 19.6388 52.5768 19.8521 C 52.7901 20.0649 52.9221 20.3594 52.9221 20.6843 C 52.9221 21.0092 52.7901 21.3037 52.5768 21.5165 C 52.364 21.7298 52.0695 21.8619 51.7446 21.8619 C 51.4197 21.8619 51.1252 21.7298 50.9124 21.5165 C 50.6991 21.3037 50.5671 21.0092 50.5671 20.6843 C 50.5671 20.3594 50.6991 20.0649 50.9124 19.8521 C 51.1252 19.6388 51.4197 19.5068 51.7446 19.5068 Z " stroke-width="0.43435174226760864"/>
  <path id="ID0.4437686442397535" d="M 45.6637 19.5068 C 45.9886 19.5068 46.2831 19.6388 46.4959 19.8521 C 46.7092 20.0649 46.8412 20.3594 46.8412 20.6843 C 46.8412 21.0092 46.7092 21.3037 46.4959 21.5165 C 46.2831 21.7298 45.9886 21.8619 45.6637 21.8619 C 45.3388 21.8619 45.0443 21.7298 44.8315 21.5165 C 44.6182 21.3037 44.4862 21.0092 44.4862 20.6843 C 44.4862 20.3594 44.6182 20.0649 44.8315 19.8521 C 45.0443 19.6388 45.3388 19.5068 45.6637 19.5068 Z " stroke-width="0.43435174226760864"/>
  <path id="ID0.3687892844900489" d="M 31.4717 65.1215 C 30.9387 66.1961 29.9462 66.789 29.2552 66.4463 L 24.7214 64.1972 C 24.0308 63.8545 23.9027 62.7053 24.4356 61.6307 L 30.8245 50.0118 C 31.3574 48.9372 32.3499 48.3443 33.0406 48.687 L 36.5736 50.4396 C 37.2646 50.7823 37.3928 51.9316 36.8598 53.0062 L 31.4717 65.1215 Z " stroke-width="0.43435174226760864"/>
  <path id="ID0.2511214418336749" fill="#FFFFFF" stroke="#7F7F7F" stroke-width="1.5540371665595387" stroke-linecap="round" d="M 24.1133 17.3786 L 17.6927 29.0469 L 27.0198 37.7635 L 14.5046 34.2107 L 5.2503 40.8673 L 10.0003 30.1436 L 2.3439 20.4825 L 12.8369 24.716 L 24.1133 17.3786 Z "/>
  <path id="ID0.49555545253679156" fill="#FBB03B" stroke="#000000" stroke-width="0.8687034845352173" d="M 14.532 27.7747 C 13.6402 27.4216 13.2033 26.4117 13.5564 25.52 L 14.3795 23.442 C 14.7326 22.5503 15.7421 22.1129 16.6342 22.466 L 18.7339 23.2974 C 19.6256 23.6505 20.0626 24.6604 19.7094 25.553 L 18.8863 27.6305 C 18.5332 28.5222 17.5238 28.9596 16.6316 28.606 L 14.532 27.7747 Z "/>
  <path id="ID0.2625341503880918" stroke="#1A1A1A" stroke-width="0.8687034845352173" d="M 18.0984 30.5372 C 17.1789 30.2005 16.6494 29.3401 16.9148 28.6156 L 18.6583 23.8646 C 18.9246 23.1406 19.8849 22.827 20.8044 23.1645 L 30.7667 27.4155 C 31.6854 27.753 32.2157 28.6143 31.9495 29.3379 L 30.5912 33.0403 C 30.3259 33.7644 29.3646 34.0784 28.4451 33.7405 L 18.0984 30.5372 Z "/>
  <path id="ID0.8204577909782529" d="M 23.5031 66.7434 C 22.7877 66.458 22.4398 65.6454 22.7256 64.9291 L 24.6011 60.2286 C 24.8865 59.5123 25.6978 59.1627 26.4141 59.448 L 34.1095 63.1201 C 34.8244 63.4054 35.1728 64.2177 34.8874 64.9343 L 33.4258 68.5968 C 33.14 69.313 32.3282 69.6636 31.6124 69.3778 L 23.5031 66.7434 Z " stroke-width="0.43435174226760864"/>
  <path id="ID0.699897791724652" d="M 57.1488 62.4021 C 56.522 62.849 55.6499 62.7013 55.2029 62.0733 L 52.2667 57.9508 C 51.8189 57.3228 51.9657 56.451 52.5925 56.0041 L 59.8474 51.5237 C 60.4742 51.0768 61.3455 51.224 61.7933 51.8525 L 64.0806 55.0646 C 64.5285 55.6926 64.3825 56.5648 63.7549 57.0113 L 57.1488 62.4021 Z " stroke-width="0.43435174226760864"/>
  <path id="ID0.15630904771387577" d="M 59.6155 54.1472 C 60.5537 54.8939 60.9255 55.9884 60.4451 56.5922 L 57.2943 60.5526 C 56.8144 61.1564 55.6638 61.0404 54.7247 60.2937 L 44.7068 51.608 C 43.7677 50.8618 43.3959 49.7668 43.8763 49.163 L 46.3322 46.0774 C 46.8121 45.4736 47.9627 45.5896 48.9009 46.3367 L 59.6155 54.1472 Z " stroke-width="0.43435174226760864"/>
</svg>