<svg xmlns="http://www.w3.org/2000/svg" xmlns:xlink="http://www.w3.org/1999/xlink" version="1.1" width="52.23125076293945" height="69.37537384033203" viewBox="1.0190999507904053 0.3751000165939331 52.23125076293945 69.37537384033203">
  <!-- Exported by Scratch - http://scratch.mit.edu/ -->
  <path id="ID0.4510075245052576" fill="none" stroke="#000000" stroke-width="0.8502884531912098" d="M 10.7293 23.2532 C 10.7293 23.2532 7.0579 24.1816 4.8104 27.3013 C 2.828 30.0536 1.6722 32.2394 1.6722 32.2394 "/>
  <path id="ID0.3390679736621678" fill="none" stroke="#000000" stroke-width="0.8502884531912098" d="M 10.1055 23.4521 C 10.1055 23.4521 7.5068 21.4142 4.9858 24.254 C 2.734 26.791 1.5191 26.0069 1.5191 26.0069 "/>
  <path id="ID0.3926795464940369" fill="#FBB03B" stroke="#000000" stroke-width="0.850288450717926" d="M 38.6961 15.0465 C 39.2463 14.2859 40.31 14.1167 41.0706 14.6672 L 42.8417 15.9512 C 43.6019 16.5022 43.7719 17.5659 43.221 18.326 L 41.9234 20.1155 C 41.3724 20.8761 40.3096 21.0457 39.5486 20.4947 L 37.7778 19.2108 C 37.0172 18.6598 36.8476 17.5969 37.3986 16.8359 L 38.6961 15.0465 Z "/>
  <path id="ID0.08230937132611871" stroke="#1A1A1A" stroke-width="0.850288450717926" d="M 35.2125 17.7597 C 35.7541 16.9694 36.6992 16.6756 37.3217 17.1025 L 41.4047 19.9072 C 42.0271 20.3344 42.0918 21.3216 41.5489 22.1119 L 35.1041 30.5298 C 34.562 31.3197 33.6165 31.6135 32.995 31.1858 L 29.8132 29.001 C 29.1912 28.5737 29.1261 27.5865 29.6686 26.7958 L 35.2125 17.7597 Z "/>
  <path id="ID0.5979244690388441" fill="#FBB03B" stroke="#000000" stroke-width="0.850288450717926" d="M 15.678 10.8635 L 36.4229 10.8635 L 36.4229 27.8948 L 15.678 27.8948 L 15.678 10.8635 Z "/>
  <path id="ID0.897375762462616" stroke="#1A1A1A" stroke-width="0.850288450717926" d="M 20.9868 22.7216 C 14.6534 22.7216 23.6171 14.5261 27.971 14.0138 L 37.9343 13.2413 C 37.5261 6.3438 31.8054 0.8751 24.805 0.8751 L 22.4284 0.8751 C 15.164 0.8751 9.2749 6.7642 9.2749 14.0291 L 9.2749 41.7608 C 9.2749 49.0257 15.164 54.9148 22.4284 54.9148 L 24.805 54.9148 C 32.0698 54.9148 37.9589 49.0257 37.9589 41.7608 C 37.9589 41.7608 38.3122 30.7198 37.5338 29.5958 C 36.7554 28.4717 37.9589 22.722 37.9589 22.722 L 20.9868 22.722 Z "/>
  <path id="ID0.5605953140184283" d="M 34.0663 19.0539 C 34.3843 19.0539 34.6726 19.1831 34.8809 19.3919 C 35.0896 19.6002 35.2189 19.8884 35.2189 20.2065 C 35.2189 20.5245 35.0896 20.8127 34.8809 21.021 C 34.6726 21.2298 34.3843 21.359 34.0663 21.359 C 33.7483 21.359 33.4601 21.2298 33.2517 21.021 C 33.043 20.8127 32.9138 20.5245 32.9138 20.2065 C 32.9138 19.8884 33.043 19.6002 33.2517 19.3919 C 33.4601 19.1831 33.7483 19.0539 34.0663 19.0539 Z " stroke-width="0.425144225358963"/>
  <path id="ID0.4209855739027262" d="M 28.1143 19.0539 C 28.4323 19.0539 28.7206 19.1831 28.9289 19.3919 C 29.1376 19.6002 29.2669 19.8884 29.2669 20.2065 C 29.2669 20.5245 29.1376 20.8127 28.9289 21.021 C 28.7206 21.2298 28.4323 21.359 28.1143 21.359 C 27.7963 21.359 27.508 21.2298 27.2997 21.021 C 27.091 20.8127 26.9617 20.5245 26.9617 20.2065 C 26.9617 19.8884 27.091 19.6002 27.2997 19.3919 C 27.508 19.1831 27.7963 19.0539 28.1143 19.0539 Z " stroke-width="0.425144225358963"/>
  <path id="ID0.4123799833469093" d="M 13.8996 66.3416 C 13.4827 67.4391 12.571 68.1109 11.8658 67.8422 L 7.2363 66.0803 C 6.5311 65.812 6.2974 64.7042 6.7147 63.6072 L 11.8376 51.683 C 12.2549 50.5856 13.1663 49.9137 13.871 50.1823 L 17.4786 51.5551 C 18.1843 51.8234 18.4184 52.9309 18.0011 54.0283 L 13.8996 66.3416 Z " stroke-width="0.4251442315963781"/>
  <path id="ID0.37224112963303924" d="M 6.858 66.505 C 6.1604 66.22 5.8258 65.4215 6.1118 64.7228 L 7.9863 60.1374 C 8.2713 59.4385 9.0688 59.1032 9.7668 59.3881 L 17.2682 63.0448 C 17.9667 63.3299 18.3007 64.1277 18.0153 64.8267 L 16.5556 68.3994 C 16.2696 69.0981 15.4715 69.4344 14.7737 69.1486 L 6.858 66.505 Z " stroke-width="0.42514423855973826"/>
  <path id="ID0.24771741591393948" d="M 50.1144 31.9789 C 49.8386 32.6809 49.0453 33.0255 48.343 32.7481 L 43.7328 30.9354 C 43.0302 30.6585 42.6848 29.8657 42.9607 29.1641 L 46.5187 21.6145 C 46.7946 20.9138 47.588 20.5687 48.2909 20.8452 L 51.882 22.2589 C 52.5853 22.5349 52.9315 23.3276 52.6553 24.0292 L 50.1144 31.9789 Z " stroke-width="0.425144237864148"/>
  <path id="ID0.2892227452248335" d="M 42.6501 29.1296 C 43.472 28.0854 44.6225 27.6137 45.2185 28.0757 L 49.1309 31.115 C 49.7272 31.578 49.544 32.8005 48.7222 33.8453 L 39.2082 45.0492 C 38.386 46.0938 37.2358 46.5658 36.6395 46.1028 L 33.5903 43.7348 C 32.9946 43.2717 33.1775 42.0495 33.9996 41.0044 L 42.6501 29.1296 Z " stroke-width="0.4541988319269499"/>
  <g id="ID0.45753690507262945">
    <path id="ID0.8371922299265862" fill="#FBB03B" stroke="#000000" stroke-width="0.8502885549648682" d="M 4.8222 16.5666 C 4.4028 15.7266 4.7443 14.7052 5.584 14.2857 L 7.5406 13.3083 C 8.3806 12.8889 9.4022 13.2292 9.8216 14.0696 L 10.8095 16.0473 C 11.2289 16.8873 10.8877 17.9088 10.0476 18.329 L 8.0909 19.3064 C 7.251 19.7254 6.2294 19.3851 5.81 18.5447 L 4.8222 16.5666 Z "/>
    <path id="ID0.6422115685418248" stroke="#1A1A1A" stroke-width="0.8502885549648682" d="M 5.6173 20.9098 C 5.1674 20.0641 5.343 19.0906 6.0102 18.7362 L 10.3839 16.4113 C 11.0506 16.0572 11.9559 16.4558 12.4053 17.3023 L 16.8916 26.908 C 17.3414 27.7545 17.1653 28.7283 16.4986 29.082 L 13.0898 30.8939 C 12.4235 31.2481 11.5178 30.8498 11.0685 30.0029 L 5.6173 20.9098 Z "/>
  </g>
</svg>