<svg xmlns="http://www.w3.org/2000/svg" xmlns:xlink="http://www.w3.org/1999/xlink" version="1.1" width="41.67117612646142" height="31.375025918941883" viewBox="-0.604113633861735 0.525337015161321 41.67117612646142 31.375025918941883">
  <!-- Exported by Scratch - http://scratch.mit.edu/ -->
  <g id="ID0.07952108979225159">
    <path id="ID0.07179283257573843" fill="none" stroke="#000000" stroke-width="1.9375259189418843" d="M 40.0983 1.4941 L 11.5583 1.4941 L 11.5583 30.9316 L 40.0983 30.9316 L 40.0983 1.4941 Z "/>
    <path id="ID0.9966579801402986" fill="none" stroke="#000000" stroke-width="0.9906693543017209" stroke-linecap="round" d="M 25.6 1.9847 L 25.6 30.1466 "/>
    <path id="ID0.667331853415817" fill="none" stroke="#000000" stroke-width="0.9906693543017209" stroke-linecap="round" d="M 18.55 1.8375 L 18.55 30.4409 "/>
    <path id="ID0.663609794806689" fill="none" stroke="#000000" stroke-width="0.9906693543017209" stroke-linecap="round" d="M 33.2 1.5922 L 33.2 30.5391 "/>
  </g>
  <g id="ID0.579130438156426">
    <g id="ID0.6090325159020722">
      <path id="ID0.8168984204530716" d="M 30.1424 28.9553 C 29.844 28.9338 29.6199 28.6729 29.642 28.3738 L 29.7879 26.4142 C 29.8094 26.1151 30.0698 25.8911 30.3683 25.9137 L 33.6469 26.3737 C 33.9448 26.3957 34.1688 26.6561 34.1474 26.9546 L 34.0342 28.4816 C 34.0121 28.7807 33.7518 29.0047 33.4539 28.9833 L 30.1424 28.9553 Z " stroke-width="0.5957971811294556"/>
      <path id="ID0.8534832675941288" d="M 32.2003 26.2986 C 32.4416 26.6966 32.4309 27.1452 32.1741 27.3019 L 30.4958 28.3231 C 30.2396 28.4798 29.8362 28.2838 29.5943 27.8858 L 27.1033 23.3786 C 26.8614 22.9806 26.8727 22.532 27.1283 22.3759 L 28.4367 21.5793 C 28.6929 21.4232 29.0962 21.6198 29.3381 22.0178 L 32.2003 26.2986 Z " stroke-width="0.5957971811294556"/>
    </g>
    <g id="ID0.5289877979084849">
      <path id="ID0.5824755243957043" d="M 25.3927 27.4241 C 25.3213 27.884 25.0228 28.22 24.7266 28.1742 L 22.7849 27.8703 C 22.4888 27.8244 22.3071 27.4133 22.3786 26.9528 L 23.3873 21.9034 C 23.4594 21.4435 23.7573 21.1074 24.0528 21.1539 L 25.5661 21.3898 C 25.8622 21.4363 26.044 21.8468 25.9725 22.3062 L 25.3927 27.4241 Z " stroke-width="0.5957971811294556"/>
      <path id="ID0.09308562520891428" d="M 22.6312 28.9553 C 22.3321 28.9338 22.1087 28.6729 22.1302 28.3738 L 22.2761 26.4142 C 22.2982 26.1151 22.5579 25.8911 22.8564 25.9137 L 26.1351 26.3737 C 26.4336 26.3957 26.6576 26.6561 26.6356 26.9546 L 26.5224 28.4816 C 26.5009 28.7807 26.2412 29.0047 25.9421 28.9833 L 22.6312 28.9553 Z " stroke-width="0.5957971811294556"/>
    </g>
    <g id="ID0.7599780382588506">
      <path id="ID0.5522712115198374" fill="#FBB03B" stroke="#000000" stroke-width="0.3373468653130962" d="M 29.2143 6.5196 L 36.9445 9.3488 L 34.6222 15.6942 L 26.8919 12.865 L 29.2143 6.5196 Z "/>
      <path id="ID0.6870047394186258" fill="#2B699C" stroke="#1A1A1A" stroke-width="0.33734036395549777" d="M 29.5824 11.6521 C 27.2224 10.7888 31.6802 8.9579 33.3717 9.3601 L 37.1895 10.4307 C 37.9772 7.8057 36.5925 4.9881 33.9835 4.0337 L 33.0982 3.7095 C 30.3921 2.7193 27.394 4.1099 26.4032 6.8166 L 22.6217 17.1489 C 21.6315 19.8551 23.0233 22.8531 25.7294 23.8433 L 26.6141 24.1674 C 29.3214 25.1588 32.3183 23.7671 33.3097 21.0609 C 33.3097 21.0609 34.947 16.9958 34.8093 16.4703 C 34.6729 15.9448 35.9062 13.9674 35.9062 13.9674 L 29.5824 11.6521 Z "/>
    </g>
    <g id="ID0.709036692045629">
      <path id="ID0.6454382967203856" d="M 35.4736 10.6923 C 35.5999 10.6923 35.7143 10.7435 35.7972 10.8263 C 35.88 10.9092 35.9312 11.0236 35.9312 11.1499 C 35.9312 11.2762 35.88 11.3906 35.7972 11.4734 C 35.7143 11.5562 35.5999 11.6074 35.4736 11.6074 C 35.3473 11.6074 35.2329 11.5562 35.1501 11.4734 C 35.0673 11.3906 35.0161 11.2762 35.0161 11.1499 C 35.0161 11.0236 35.0673 10.9092 35.1501 10.8263 C 35.2329 10.7435 35.3473 10.6923 35.4736 10.6923 Z " stroke-width="0.5957971811294556"/>
      <path id="ID0.3061303119175136" d="M 33.2555 10.5553 C 33.3818 10.5553 33.4956 10.6065 33.5784 10.6893 C 33.6612 10.7721 33.7125 10.8859 33.7125 11.0122 C 33.7125 11.1385 33.6612 11.2523 33.5784 11.3352 C 33.4956 11.418 33.3818 11.4692 33.2555 11.4692 C 33.1292 11.4692 33.0154 11.418 32.9326 11.3352 C 32.8497 11.2523 32.7985 11.1385 32.7985 11.0122 C 32.7985 10.8859 32.8497 10.7721 32.9326 10.6893 C 33.0154 10.6065 33.1292 10.5553 33.2555 10.5553 Z " stroke-width="0.5957971811294556"/>
    </g>
    <g id="ID0.7351767676882446">
      <path id="ID0.47890645265579224" fill="none" stroke="#000000" stroke-width="0.33734036395549777" d="M 25.9659 8.9406 C 25.9659 8.9406 24.4865 9.204 23.51 10.3771 C 22.6479 11.4108 22.1296 12.2437 22.1296 12.2437 "/>
      <path id="ID0.1934835067950189" fill="none" stroke="#000000" stroke-width="0.33734036395549777" d="M 25.7127 9.0014 C 25.7127 9.0014 24.7415 8.122 23.6637 9.1754 C 22.7021 10.1168 22.2434 9.7724 22.2434 9.7724 "/>
    </g>
    <path id="ID0.8436069656163454" fill="#FFF05D" stroke="#000000" stroke-width="0.30868251954317094" d="M 25.9492 17.8949 C 26.4008 19.1127 25.4762 18.6176 24.2184 19.1925 L 16.4617 22.1721 L 4.236 28.4876 C 2.7727 29.3193 1.117 28.8397 0.5349 27.2602 C -0.0478 25.6802 0.924 24.3456 2.5547 23.9249 L 16.0346 21.0127 L 23.8717 18.2696 C 25.1336 17.877 25.6013 16.9523 25.9492 17.8949 Z "/>
    <g id="ID0.5123446495272219">
      <path id="ID0.10209798347204924" fill="#FBB03B" stroke="#000000" stroke-width="0.33734036395549777" d="M 24.4937 19.2336 C 24.3287 19.5661 23.9241 19.7013 23.5905 19.5363 L 22.8141 19.1484 C 22.4787 18.9828 22.3435 18.5777 22.5103 18.2428 L 22.9017 17.4594 C 23.0674 17.1257 23.4743 16.9887 23.8079 17.1561 L 24.5837 17.5434 C 24.9161 17.7096 25.052 18.1147 24.8857 18.4484 L 24.4937 19.2336 Z "/>
      <path id="ID0.653992504812777" stroke="#1A1A1A" stroke-width="0.33734036395549777" d="M 25.6823 17.9443 C 25.5208 18.2899 25.1717 18.4657 24.8994 18.3393 L 23.1192 17.5064 C 22.8481 17.3801 22.7581 16.9976 22.9196 16.6526 L 24.8965 12.9402 C 25.0567 12.5953 25.4076 12.4201 25.6787 12.5464 L 27.0652 13.1952 C 27.3368 13.3227 27.4262 13.7046 27.2647 14.0472 L 25.6823 17.9443 Z "/>
    </g>
  </g>
</svg>