<svg xmlns="http://www.w3.org/2000/svg" xmlns:xlink="http://www.w3.org/1999/xlink" version="1.1" width="80.24783334857341" height="114.60889444476481" viewBox="2.046388577788491 3.5001220220023583 80.24783334857341 114.60889444476481">
  <!-- Exported by Scratch - http://scratch.mit.edu/ -->
  <g id="ID0.8459022957831621">
    <path id="ID0.5010630823671818" stroke="#1A1A1A" d="M 69.2085 104.4981 C 70.3836 106.2416 70.4257 108.2654 69.3064 109.0219 L 61.9526 113.9764 C 60.8326 114.731 58.972 113.9311 57.7983 112.1883 L 45.6405 92.3931 C 44.4658 90.6506 44.4233 88.6258 45.5439 87.8699 L 51.2735 84.0095 C 52.3949 83.2554 54.2545 84.0556 55.4292 85.7981 L 69.2085 104.4981 Z " stroke-width="0.9999999604717963"/>
    <path id="ID0.05127347121015191" stroke="#1A1A1A" d="M 60.7351 116.9899 C 59.4509 117.4054 58.0734 116.6991 57.6558 115.4126 L 54.9256 106.9771 C 54.5094 105.6911 55.213 104.3125 56.4959 103.8964 L 70.9792 100.2375 C 72.2634 99.822 73.6409 100.5283 74.0577 101.813 L 76.1844 108.3865 C 76.6007 109.6726 75.898 111.0508 74.6142 111.4672 L 60.7351 116.9899 Z " stroke-width="0.9999999604717963"/>
    <g id="ID0.3960058535449207">
      <path id="ID0.7156396033242345" fill="#FBB03B" stroke="#000000" d="M 69.795 7.154 C 70.816 4.947 73.146 3.911 75 4.842 L 79.313 7.006 C 81.167 7.933 81.839 10.477 80.816 12.683 L 78.409 17.875 C 77.388 20.082 75.055 21.118 73.203 20.188 L 68.89 18.024 C 67.038 17.097 66.365 14.554 67.388 12.348 L 69.795 7.154 Z " stroke-width="1"/>
      <path id="ID0.35180510487407446" stroke="#1A1A1A" d="M 62.753 15.902 C 63.746 13.628 65.777 12.351 67.287 13.054 L 77.189 17.657 C 78.7 18.359 79.116 20.773 78.121 23.049 L 66.03 47.674 C 65.035 49.95 63.004 51.226 61.496 50.524 L 53.778 46.936 C 52.267 46.235 51.851 43.821 52.847 41.544 L 62.753 15.902 Z " stroke-width="1"/>
    </g>
    <path id="ID0.9638574910350144" fill="#FBB03B" stroke="#000000" d="M 30.637 36.7667 L 57.291 36.7667 L 57.291 49.4498 L 30.637 49.4498 L 30.637 36.7667 Z " stroke-width="1.1150534082853172"/>
    <path id="ID0.9187152786180377" stroke="#1A1A1A" d="M 33.432 109.855 C 33.108 111.931 31.764 113.445 30.428 113.236 L 21.667 111.867 C 20.332 111.66 19.513 109.806 19.837 107.731 L 24.387 84.951 C 24.711 82.876 26.057 81.361 27.391 81.57 L 34.217 82.636 C 35.553 82.844 36.372 84.697 36.048 86.773 L 33.432 109.855 Z " stroke-width="1"/>
    <path id="ID0.9099954790435731" fill="#FF0000" stroke="#1A1A1A" d="M 27.682 37.294 C 18.688 40.23 17.264 49.746 17.264 49.746 L 16.721 76.359 C 16.721 89.363 26.763 89.904 39.766 89.904 C 39.766 89.904 55.856 91.378 59.913 88.058 C 65.191 83.741 65.062 76.71 65.062 69.359 C 65.062 69.359 67.593 59.167 66.544 52.025 C 65.743 46.564 59.919 38.537 55.718 42.191 C 51.747 45.645 50.523 49.496 47.218 48.129 C 39.185 44.806 27.682 37.294 27.682 37.294 Z " stroke-width="1"/>
    <path id="ID0.6520506041124463" stroke="#1A1A1A" d="M 20.973 116.766 C 19.627 116.666 18.618 115.492 18.717 114.143 L 19.374 105.301 C 19.473 103.953 20.645 102.942 21.991 103.041 L 36.783 105.12 C 38.129 105.22 39.138 106.394 39.039 107.741 L 38.528 114.631 C 38.427 115.979 37.256 116.99 35.91 116.891 L 20.973 116.766 Z " stroke-width="1"/>
    <g id="ID0.8802877981215715">
      <path id="ID0.49922366812825203" fill="none" stroke="#000000" stroke-width="2.000000096620283" d="M 27.9926 12.273 C 27.9926 12.273 21.6898 14.7681 18.4205 20.8251 C 15.537 26.1667 13.9893 30.3151 13.9893 30.3151 "/>
      <path id="ID0.13451511971652508" fill="none" stroke="#000000" stroke-width="2.000000096620283" d="M 26.9308 12.7726 C 26.9308 12.7726 21.8475 9.7538 18.0274 15.3773 C 14.6177 20.3986 12.2784 19.2878 12.2784 19.2878 "/>
      <g id="ID0.6903484086506069">
        <path id="ID0.1589315440505743" fill="#FBB03B" stroke="#000000" d="M 62.9602 33.8895 C 62.5946 37.46 59.402 40.0584 55.8314 39.6928 L 31.8266 37.2307 C 28.2561 36.8651 25.6566 33.6732 26.0233 30.1019 L 27.9337 11.4701 C 28.2993 7.8996 31.4919 5.3012 35.062 5.6688 L 59.067 8.1299 C 62.6385 8.4957 65.2361 11.6871 64.8705 15.2577 L 62.9602 33.8895 Z " stroke-width="1.0000000483101414"/>
        <path id="ID0.6886103297583759" d="M 58.8537 25.2423 C 59.4086 25.3682 59.8607 25.7075 60.1418 26.1548 C 60.4241 26.6012 60.5352 27.1555 60.4094 27.7105 C 60.2836 28.2654 59.9442 28.7175 59.497 28.9986 C 59.0505 29.2808 58.4962 29.392 57.9413 29.2662 C 57.3864 29.1404 56.9342 28.801 56.6532 28.3538 C 56.3709 27.9073 56.2597 27.353 56.3855 26.7981 C 56.5114 26.2432 56.8508 25.791 57.298 25.51 C 57.7444 25.2277 58.2988 25.1165 58.8537 25.2423 Z " stroke-width="1.0000000483101414"/>
        <path id="ID0.6997778164222836" d="M 48.2548 24.1547 C 48.8097 24.2805 49.2619 24.6199 49.5429 25.0671 C 49.8252 25.5136 49.9364 26.0679 49.8105 26.6228 C 49.6847 27.1777 49.3453 27.6299 48.8981 27.9109 C 48.4516 28.1932 47.8973 28.3044 47.3424 28.1786 C 46.7875 28.0527 46.3354 27.7133 46.0543 27.2661 C 45.772 26.8197 45.6609 26.2654 45.7867 25.7104 C 45.9125 25.1555 46.2519 24.7034 46.6991 24.4223 C 47.1456 24.1401 47.6999 24.0289 48.2548 24.1547 Z " stroke-width="1.0000000483101414"/>
      </g>
      <path id="ID0.5838014129549265" fill="none" stroke="#000000" stroke-width="2.000000096620283" d="M 27.9578 13.2403 C 27.9578 13.2403 43.6571 12.9117 52.3429 14.4053 C 59.5159 15.638 64.6611 17.2938 64.6611 17.2938 "/>
      <path id="ID0.010391452815383673" fill="none" stroke="#000000" d="M 46.8461 20.5766 L 50.8586 22.8686 " stroke-width="1.0000000483101414"/>
      <path id="ID0.5287388269789517" fill="none" stroke="#000000" d="M 56.4783 23.0652 L 60.1561 21.6597 " stroke-width="1.0000000483101414"/>
      <path id="ID0.4547268385067582" stroke="#000000" d="M 55.3492 36.0807 L 47.6057 35.863 L 48.6361 31.3184 L 56.5356 33.1095 L 55.3492 36.0807 " stroke-width="1.0000000483101414"/>
    </g>
    <path id="ID0.4639964895322919" fill="none" stroke="#1A1A1A" stroke-width="2" d="M 16.586 68.814 C 16.586 68.814 31.643 72.959 42.617 72.982 C 55.617 73.011 64.543 71.652 64.543 71.652 "/>
    <g id="ID0.9629460275173187">
      <path id="ID0.8727956595830619" fill="#FBB03B" stroke="#000000" d="M 3.4261 12.49 C 2.5008 10.2407 3.3247 7.827 5.2664 7.0988 L 9.7841 5.4063 C 11.724 4.6769 14.0475 5.9102 14.9706 8.1612 L 17.1455 13.456 C 18.071 15.7043 17.246 18.119 15.3064 18.8464 L 10.7864 20.5416 C 8.8485 21.2702 6.5252 20.036 5.602 17.7859 L 3.4261 12.49 Z " stroke-width="1.000000014958836"/>
      <path id="ID0.595348923932761" stroke="#1A1A1A" d="M 5.0618 23.6013 C 4.0668 21.3269 4.5108 18.9691 6.0519 18.3379 L 16.1573 14.1991 C 17.6993 13.569 19.7514 14.9029 20.745 17.1802 L 30.5995 42.7831 C 31.5942 45.0595 31.1483 47.417 29.6084 48.0463 L 21.7328 51.2716 C 20.1916 51.9039 18.1387 50.5678 17.1451 48.2906 L 5.0618 23.6013 Z " stroke-width="1.000000014958836"/>
    </g>
  </g>
</svg>