<svg xmlns="http://www.w3.org/2000/svg" xmlns:xlink="http://www.w3.org/1999/xlink" version="1.1" width="64.52144627546299" height="45.07920079206456" viewBox="0.12550363553052468 4.3704910041142035 64.52144627546299 45.07920079206456">
  <!-- Exported by Scratch - http://scratch.mit.edu/ -->
  <g id="ID0.6090325159020722">
    <path id="ID0.8168984204530716" d="M 53.531 46.98 C 53.03 46.944 52.654 46.506 52.691 46.004 L 52.936 42.715 C 52.972 42.213 53.409 41.837 53.91 41.875 L 59.413 42.647 C 59.913 42.684 60.289 43.121 60.253 43.622 L 60.063 46.185 C 60.026 46.687 59.589 47.063 59.089 47.027 L 53.531 46.98 Z " stroke-width="1"/>
    <path id="ID0.8534832675941288" d="M 56.985 42.521 C 57.39 43.189 57.372 43.942 56.941 44.205 L 54.124 45.919 C 53.694 46.182 53.017 45.853 52.611 45.185 L 48.43 37.62 C 48.024 36.952 48.043 36.199 48.472 35.937 L 50.668 34.6 C 51.098 34.338 51.775 34.668 52.181 35.336 L 56.985 42.521 Z " stroke-width="1"/>
  </g>
  <g id="ID0.5289877979084849">
    <path id="ID0.5824755243957043" d="M 42.0087 46.1565 C 41.7241 46.8841 41.1127 47.326 40.6443 47.143 L 37.5735 45.9382 C 37.105 45.7552 36.957 45.0155 37.2418 44.2869 L 40.733 36.381 C 41.0186 35.6536 41.629 35.2115 42.0963 35.3952 L 44.4899 36.3328 C 44.9581 36.5168 45.1064 37.2555 44.822 37.9821 L 42.0087 46.1565 Z " stroke-width="0.9999999917143799"/>
    <path id="ID0.09308562520891428" d="M 36.9266 47.6598 C 36.4444 47.5158 36.1733 47.0069 36.3174 46.5246 L 37.27 43.3671 C 37.415 42.8851 37.9222 42.6126 38.403 42.7584 L 43.6075 44.7058 C 44.0886 44.8506 44.3608 45.3587 44.216 45.8398 L 43.4745 48.3005 C 43.3305 48.7828 42.8233 49.0552 42.3411 48.9112 L 36.9266 47.6598 Z " stroke-width="0.9999999917143799"/>
  </g>
  <path id="ID0.3610392170958221" fill="#003FFF" stroke="#000000" stroke-width="1" d="M 47.6 25.7 C 49.78 25.7 51.755 26.512 53.185 27.825 C 54.615 29.137 55.5 30.95 55.5 32.95 C 55.5 34.95 54.615 36.763 53.185 38.075 C 51.755 39.388 49.78 40.2 47.6 40.2 C 45.42 40.2 43.445 39.388 42.015 38.075 C 40.585 36.763 39.7 34.95 39.7 32.95 C 39.7 30.95 40.585 29.137 42.015 27.825 C 43.445 26.512 45.42 25.7 47.6 25.7 Z "/>
  <g id="ID0.5123446495272219">
    <path id="ID0.10209798347204924" fill="#FBB03B" stroke="#000000" stroke-width="0.5661999702521968" d="M 62.2047 17.3722 C 62.796 17.1759 63.4353 17.4982 63.6329 18.0909 L 64.0882 19.4745 C 64.2872 20.07 63.9642 20.71 63.368 20.9069 L 61.9716 21.3664 C 61.3782 21.5633 60.734 21.2403 60.5392 20.6448 L 60.084 19.2626 C 59.8892 18.6699 60.2115 18.0292 60.8056 17.833 L 62.2047 17.3722 Z "/>
    <path id="ID0.653992504812777" stroke="#1A1A1A" stroke-width="0.5661999702521968" d="M 59.2634 17.4793 C 59.8661 17.2634 60.4882 17.4717 60.6594 17.9455 L 61.7707 21.0516 C 61.9406 21.5239 61.591 22.0832 60.9891 22.2985 L 54.2284 24.33 C 53.6278 24.5467 53.0043 24.3355 52.8345 23.8631 L 51.9692 21.444 C 51.8001 20.9695 52.1496 20.4116 52.7487 20.1992 L 59.2634 17.4793 Z "/>
  </g>
  <g id="ID0.7599780382588506">
    <path id="ID0.5522712115198374" fill="#FBB03B" stroke="#000000" stroke-width="0.5662109229641131" d="M 39.5986 12.3437 L 53.3008 10.5722 L 54.7549 21.8198 L 41.0527 23.5913 L 39.5986 12.3437 Z "/>
    <path id="ID0.6870047394186258" fill="#CCCCCC" stroke="#1A1A1A" stroke-width="0.5662000268580677" d="M 44.1571 19.6967 C 39.9742 20.2381 45.1953 14.0604 48.0256 13.3498 L 54.5401 11.9884 C 53.6807 7.4693 49.4374 4.3455 44.8131 4.9439 L 43.2437 5.1467 C 38.4472 5.7671 35.059 10.1591 35.679 14.957 L 38.0468 33.2715 C 48.8786 40.0414 53.7163 34.5961 56.992 30.8227 C 58.5312 29.2415 56.1667 24.3767 55.6713 22.8254 C 55.2424 21.7815 55.367 18.2488 55.367 18.2488 L 44.1571 19.6967 Z "/>
  </g>
  <g id="ID0.709036692045629">
    <path id="ID0.6454382967203856" d="M 52.1872 13.7064 C 52.3753 13.6086 52.5854 13.5963 52.7728 13.6555 C 52.9603 13.7147 53.1251 13.8454 53.2229 14.0335 C 53.3207 14.2216 53.333 14.4317 53.2737 14.6191 C 53.2145 14.8065 53.0838 14.9714 52.8957 15.0692 C 52.7076 15.167 52.4976 15.1792 52.3102 15.12 C 52.1227 15.0608 51.9579 14.9301 51.8601 14.742 C 51.7623 14.5539 51.75 14.3439 51.8092 14.1565 C 51.8685 13.969 51.9991 13.8042 52.1872 13.7064 Z " stroke-width="1.0000000474356547"/>
    <path id="ID0.3061303119175136" d="M 48.7779 15.2196 C 48.966 15.1218 49.1751 15.11 49.3625 15.1692 C 49.55 15.2284 49.7144 15.3582 49.8122 15.5463 C 49.91 15.7344 49.9218 15.9436 49.8626 16.131 C 49.8033 16.3184 49.6735 16.4829 49.4854 16.5806 C 49.2973 16.6784 49.0882 16.6902 48.9008 16.631 C 48.7133 16.5718 48.5489 16.442 48.4511 16.2539 C 48.3533 16.0658 48.3415 15.8567 48.4008 15.6692 C 48.46 15.4818 48.5898 15.3174 48.7779 15.2196 Z " stroke-width="1.0000000474356547"/>
  </g>
  <g id="ID0.7351767676882446">
    <path id="ID0.47890645265579224" fill="none" stroke="#000000" stroke-width="0.5662000268580677" d="M 36.6722 18.4586 C 36.6722 18.4586 34.673 19.9961 34.127 22.4992 C 33.6434 24.706 33.5163 26.3477 33.5163 26.3477 "/>
    <path id="ID0.1934835067950189" fill="none" stroke="#000000" stroke-width="0.5662000268580677" d="M 36.3421 18.7452 C 36.3421 18.7452 34.2151 18.1874 33.4255 20.5905 C 32.7223 22.7369 31.7725 22.5792 31.7725 22.5792 "/>
  </g>
  <path id="ID0.8436069656163454" fill="#FFF05D" stroke="#000000" stroke-width="0.5180999802897208" d="M 43.8341 30.5877 C 44.5525 32.646 43.0168 31.7852 40.8876 32.7092 L 27.7744 37.4579 L 7.0536 47.6597 C 4.5711 49.008 1.8081 48.1495 0.8825 45.4801 C -0.0441 42.8097 1.6298 40.6016 4.38 39.9486 L 27.0951 35.4984 L 40.3356 31.1493 C 42.4659 30.5313 43.2807 28.9947 43.8341 30.5877 Z "/>
  <g id="ID0.5123446495272219">
    <path id="ID0.10209798347204924" fill="#FBB03B" stroke="#000000" stroke-width="0.5661999868357641" d="M 41.0657 32.9863 C 40.9949 33.6052 40.4335 34.0495 39.8127 33.9794 L 38.366 33.8101 C 37.742 33.74 37.2974 33.1776 37.3697 32.5539 L 37.5405 31.0939 C 37.6116 30.4728 38.1758 30.0243 38.7979 30.0982 L 40.2434 30.2669 C 40.863 30.3396 41.3085 30.9016 41.2365 31.5231 L 41.0657 32.9863 Z "/>
    <path id="ID0.653992504812777" stroke="#1A1A1A" stroke-width="0.5661999868357641" d="M 42.2063 30.273 C 42.1486 30.9106 41.6978 31.3872 41.1959 31.3432 L 37.9107 31.0441 C 37.4107 30.9994 37.0504 30.447 37.1085 29.8103 L 38.1109 22.8225 C 38.167 22.1865 38.621 21.7098 39.121 21.7545 L 41.6796 21.9877 C 42.1812 22.0339 42.5401 22.5858 42.4807 23.2187 L 42.2063 30.273 Z "/>
  </g>
  <path id="ID0.7086072596721351" fill="#FFFFFF" stroke="none" stroke-linecap="round" d="M 40.75 7.45 C 41.122 7.45 41.46 7.604 41.704 7.853 C 41.949 8.102 42.1 8.446 42.1 8.825 C 42.1 9.204 41.949 9.548 41.704 9.797 C 41.46 10.046 41.122 10.2 40.75 10.2 C 40.378 10.2 40.04 10.046 39.796 9.797 C 39.551 9.548 39.4 9.204 39.4 8.825 C 39.4 8.446 39.551 8.102 39.796 7.853 C 40.04 7.604 40.378 7.45 40.75 7.45 Z " stroke-width="1"/>
</svg>