<svg xmlns="http://www.w3.org/2000/svg" xmlns:xlink="http://www.w3.org/1999/xlink" version="1.1" width="97.18254045201414" height="67.41606858922117" viewBox="-0.5691721019798179 3.4013368906921486 97.18254045201414 67.41606858922117">
  <!-- Exported by Scratch - http://scratch.mit.edu/ -->
  <g id="ID0.6997580919414759">
    <path id="ID0.9573684432543814" fill="#FBB03B" stroke="#000000" stroke-width="0.8525622367305467" d="M 51.5165 44.5182 C 52.2996 45.0405 52.5112 46.0994 51.9892 46.8828 L 50.7723 48.7075 C 50.2502 49.491 49.191 49.7029 48.4073 49.1804 L 46.5633 47.9509 C 45.7798 47.4288 45.5685 46.3698 46.0906 45.5863 L 47.3075 43.7616 C 47.8298 42.9785 48.8884 42.7665 49.6721 43.2889 L 51.5165 44.5182 Z "/>
    <path id="ID0.41889808466657996" stroke="#1A1A1A" stroke-width="0.8525622367305467" d="M 48.6617 41.1342 C 49.4747 41.6467 49.8063 42.5814 49.4026 43.2218 L 46.7526 47.4227 C 46.3483 48.063 45.3619 48.1662 44.549 47.6537 L 35.8631 41.5262 C 35.0505 41.0135 34.7189 40.0782 35.1229 39.4382 L 37.1878 36.1644 C 37.5917 35.5244 38.578 35.4202 39.3914 35.9334 L 48.6617 41.1342 Z "/>
  </g>
  <path id="ID0.13261056737974286" fill="#FBB03B" stroke="#000000" stroke-width="0.8525621784116166" d="M 26.4148 12.8964 L 46.3393 18.869 L 41.4359 35.2267 L 21.5115 29.2541 L 26.4148 12.8964 Z "/>
  <path id="ID0.6617734562605619" stroke="#1A1A1A" stroke-width="0.8525621784116166" d="M 28.1005 25.8142 C 22.0172 23.9907 32.9863 18.7001 37.3155 19.4616 L 47.1067 21.588 C 48.7006 14.8458 44.7809 7.9465 38.0574 5.931 L 35.7744 5.2467 C 28.7969 3.1551 21.4456 7.1159 19.354 14.0935 L 11.3699 40.7284 C 9.2783 47.706 13.239 55.0577 20.2161 57.1491 L 22.4991 57.8335 C 29.4766 59.9251 36.8283 55.9644 38.9199 48.9868 C 38.9199 48.9868 42.438 38.4842 42.014 37.1805 C 41.5897 35.8762 44.4013 30.701 44.4013 30.701 L 28.1003 25.8146 Z "/>
  <path id="ID0.7134617334231734" d="M 41.7183 26.0571 C 42.0237 26.1487 42.2634 26.3558 42.4033 26.6162 C 42.5439 26.8764 42.585 27.1905 42.4934 27.4959 C 42.4019 27.8013 42.1948 28.041 41.9343 28.181 C 41.6741 28.3215 41.3601 28.3626 41.0546 28.2711 C 40.7492 28.1795 40.5096 27.9724 40.3696 27.7119 C 40.2291 27.4517 40.1879 27.1377 40.2795 26.8323 C 40.371 26.5268 40.5782 26.2872 40.8386 26.1472 C 41.0988 26.0067 41.4129 25.9655 41.7183 26.0571 Z " stroke-width="0.4262810892058083"/>
  <path id="ID0.6494691404514015" d="M 36.0017 24.3435 C 36.3071 24.435 36.5467 24.6422 36.6867 24.9026 C 36.8272 25.1628 36.8684 25.4769 36.7768 25.7823 C 36.6853 26.0877 36.4781 26.3274 36.2177 26.4673 C 35.9575 26.6079 35.6434 26.649 35.338 26.5575 C 35.0326 26.4659 34.7929 26.2588 34.653 25.9983 C 34.5124 25.7381 34.4713 25.4241 34.5629 25.1186 C 34.6544 24.8132 34.8615 24.5736 35.122 24.4336 C 35.3822 24.2931 35.6962 24.2519 36.0017 24.3435 Z " stroke-width="0.4262810892058083"/>
  <path id="ID0.03648320911452174" d="M 24.9087 65.2998 C 24.8037 66.4721 24.1068 67.368 23.3531 67.3005 L 18.4061 66.8572 C 17.6519 66.7897 17.1258 65.7844 17.2308 64.6117 L 18.9378 51.711 C 19.0428 50.5387 19.7397 49.6428 20.4935 49.7108 L 24.3486 50.0561 C 25.1023 50.1237 25.6289 51.1289 25.5235 52.3017 L 24.9087 65.2998 Z " stroke-width="0.42628110750161513"/>
  <path id="ID0.5842904108576477" d="M 18.1894 69.4563 C 17.4353 69.4005 16.8697 68.7427 16.9259 67.9878 L 17.293 63.0344 C 17.3488 62.2794 18.0057 61.7129 18.7594 61.7688 L 27.0458 62.9334 C 27.7999 62.9892 28.3656 63.6465 28.3093 64.4015 L 28.0229 68.261 C 27.967 69.016 27.3106 69.5833 26.5569 69.5271 L 18.1894 69.4563 Z " stroke-width="0.4262810945510864"/>
  <path id="ID0.01732994895428419" d="M 26.5563 69.4563 C 25.8018 69.4005 25.2366 68.7427 25.2924 67.9878 L 25.6599 63.0344 C 25.7157 62.2794 26.3722 61.7129 27.1263 61.7688 L 35.4128 62.9334 C 36.1664 62.9892 36.7325 63.6465 36.6763 64.4015 L 36.3898 68.261 C 36.3335 69.016 35.6775 69.5833 34.9234 69.5271 L 26.5563 69.4563 Z " stroke-width="0.4262810945510864"/>
  <path id="ID0.255261589307338" d="M 32.5225 65.503 C 32.5702 66.6791 31.9957 67.6577 31.2395 67.6885 L 26.2766 67.8904 C 25.5208 67.9213 24.8683 66.9927 24.8201 65.8165 L 24.8395 52.8031 C 24.7913 51.6269 25.3662 50.6488 26.1224 50.618 L 29.9892 50.4608 C 30.7455 50.43 31.3976 51.3584 31.4457 52.5346 L 32.5225 65.503 Z " stroke-width="0.42628109928581714"/>
  <path id="ID0.5940494854003191" fill="none" stroke="#000000" stroke-width="2.572944199572734" d="M 0.7173 51.2416 L 90.6842 43.2293 "/>
  <path id="ID0.6533192885108292" fill="#E6E6E6" stroke="#000000" d="M 95.3269 42.6462 L 86.6039 48.0387 L 85.7756 38.9035 L 95.3269 42.6462 " stroke-width="1.7152961330484895"/>
  <path id="ID0.08818722935393453" fill="#FBB03B" stroke="#000000" stroke-width="0.852562167607614" d="M 13.1563 52.0256 C 12.7443 52.8723 11.7246 53.2257 10.8778 52.8145 L 8.9049 51.8561 C 8.0581 51.4449 7.7048 50.4244 8.1164 49.5776 L 9.0841 47.5843 C 9.4961 46.7375 10.5158 46.3842 11.363 46.7954 L 13.3355 47.7538 C 14.1823 48.165 14.5356 49.1851 14.124 50.0323 L 13.1563 52.0256 Z "/>
  <path id="ID0.8803494698368013" stroke="#1A1A1A" stroke-width="0.852562167607614" d="M 16.1224 48.7388 C 15.7249 49.6139 14.8435 50.069 14.1544 49.7556 L 9.6328 47.6996 C 8.9441 47.3862 8.7076 46.4227 9.1055 45.5476 L 14 36.1114 C 14.3974 35.2368 15.2792 34.7813 15.9683 35.0951 L 19.4912 36.6973 C 20.1799 37.0107 20.4168 37.9737 20.0184 38.8493 L 16.1224 48.7388 Z "/>
  <g id="ID0.13109061866998672">
    <path id="ID0.3106537782587111" fill="none" stroke="#000000" stroke-width="0.8525621889754976" d="M 17.3936 20.182 C 17.3936 20.182 13.6962 21.047 11.3874 24.1345 C 9.3505 26.8583 8.1533 29.0295 8.1533 29.0295 "/>
    <path id="ID0.4428880806080997" fill="none" stroke="#000000" stroke-width="0.8525621889754976" d="M 16.7645 20.3705 C 16.7645 20.3705 14.196 18.2804 11.6179 21.0828 C 9.3151 23.5856 8.1106 22.7779 8.1106 22.7779 "/>
  </g>
</svg>