<svg xmlns="http://www.w3.org/2000/svg" xmlns:xlink="http://www.w3.org/1999/xlink" version="1.1" width="68.3978042602539" height="67.52294921875" viewBox="1.1700999736785889 5.5079851150512695 68.3978042602539 67.52294921875">
  <!-- Exported by Scratch - http://scratch.mit.edu/ -->
  <g id="ID0.11629539355635643">
    <path id="ID0.08818722935393453" fill="#FBB03B" stroke="#000000" stroke-width="0.8525622105590521" d="M 22.2762 51.7717 C 22.3342 52.7116 21.6203 53.521 20.6809 53.5797 L 18.4917 53.7161 C 17.5522 53.7748 16.7424 53.0602 16.6841 52.1206 L 16.5457 49.9091 C 16.4877 48.9692 17.2016 48.1599 18.1414 48.1009 L 20.3302 47.9647 C 21.2697 47.906 22.0793 48.6202 22.1378 49.5603 L 22.2762 51.7717 Z "/>
    <path id="ID0.8803494698368013" stroke="#1A1A1A" stroke-width="0.8525622105590521" d="M 23.2411 47.4509 C 23.3256 48.4083 22.7823 49.2382 22.0281 49.3044 L 17.0801 49.7395 C 16.3263 49.8055 15.6464 49.0831 15.5622 48.1255 L 15.1799 37.5024 C 15.0956 36.5453 15.6391 35.7149 16.3934 35.649 L 20.2486 35.3104 C 21.0024 35.2443 21.6825 35.9661 21.7666 36.9243 L 23.2411 47.4509 Z "/>
  </g>
  <path id="ID0.13261056737974286" fill="#FBB03B" stroke="#000000" stroke-width="0.8525622002742339" d="M 11.8248 22.1381 L 28.6066 9.8488 L 38.696 23.6264 L 21.9141 35.9157 L 11.8248 22.1381 Z "/>
  <path id="ID0.6617734562605619" stroke="#1A1A1A" stroke-width="0.8525622002742339" d="M 30.4934 22.7624 C 26.1185 18.0191 27.7757 15.4212 28.4947 12.9984 L 31.2382 10.8768 C 32.1517 10.1703 26.8131 7.5952 24.2433 6.7598 C 22.1127 6.0697 19.8495 5.7584 17.7352 6.2421 L 12.2455 9.496 C 10.4929 10.5919 7.6101 14.4296 6.9955 17.5146 C 6.3027 21.1456 6.5565 25.035 8.5206 28.4919 L 24.9489 50.9258 C 29.2526 56.8028 37.5054 58.0781 43.382 53.7746 L 45.3049 52.3665 C 51.1819 48.0628 52.4572 39.8101 48.1535 33.9331 C 48.1535 33.9331 41.8986 24.7921 40.603 24.3439 C 39.3068 23.8956 39.1465 18.8852 36.8749 18.5314 L 30.4934 22.7624 Z "/>
  <path id="ID0.7134617334231734" d="M 32.4526 16.8703 C 32.7098 16.6819 33.0196 16.6157 33.3118 16.6612 C 33.604 16.706 33.8794 16.8626 34.0677 17.1199 C 34.2561 17.3771 34.3223 17.6869 34.2769 17.9791 C 34.232 18.2714 34.0754 18.5467 33.8181 18.7351 C 33.5609 18.9234 33.2511 18.9896 32.959 18.9442 C 32.6667 18.8993 32.3914 18.7427 32.203 18.4855 C 32.0146 18.2282 31.9484 17.9185 31.9938 17.6263 C 32.0387 17.334 32.1953 17.0587 32.4526 16.8703 Z " stroke-width="0.42628110013711695"/>
  <path id="ID0.3106537782587111" fill="none" stroke="#000000" stroke-width="0.8525622120386475" d="M 14.3623 25.6374 C 14.3623 25.6374 10.8771 24.13 7.1835 25.2349 C 3.925 26.2097 1.6701 27.2407 1.6701 27.2407 "/>
  <path id="ID0.4428880806080997" fill="none" stroke="#000000" stroke-width="0.8525622120386475" d="M 12.0947 26.3141 C 12.0947 26.3141 11.2764 23.1054 7.5363 23.8209 C 4.1959 24.4597 3.7093 23.0935 3.7093 23.0935 "/>
  <path id="ID0.03648320911452174" d="M 61.8018 28.8899 C 62.939 28.2342 64.1506 28.2462 64.5071 28.9163 L 66.8469 33.3142 C 67.2037 33.9846 66.5707 35.0597 65.4332 35.7157 L 52.6122 42.4727 C 51.475 43.1284 50.2634 43.1164 49.9073 42.446 L 48.0839 39.0189 C 47.7274 38.3488 48.36 37.2734 49.4979 36.6177 L 61.8018 28.8899 Z " stroke-width="0.4521267069780177"/>
  <path id="ID0.5842904108576477" d="M 68.886 31.7317 C 69.2546 32.2956 69.0452 33.0972 68.4189 33.5216 L 64.3105 36.3079 C 63.6843 36.7327 62.878 36.6194 62.5097 36.0558 L 58.8943 29.5198 C 58.5257 28.9559 58.7348 28.1546 59.3611 27.7302 L 62.5625 25.5595 C 63.1886 25.1347 63.9954 25.2471 64.3634 25.8111 L 68.886 31.7317 Z " stroke-width="0.40358765554469767"/>
  <path id="ID0.01732994895428419" d="M 27.8781 72.4563 C 27.3629 72.4005 26.977 71.7427 27.0151 70.9878 L 27.266 66.0344 C 27.3041 65.2794 27.7524 64.7129 28.2673 64.7688 L 33.9255 65.9334 C 34.4401 65.9892 34.8266 66.6465 34.7882 67.4015 L 34.5926 71.261 C 34.5542 72.016 34.1062 72.5833 33.5913 72.5271 L 27.8781 72.4563 Z " stroke-width="0.36499250655441684"/>
  <path id="ID0.255261589307338" d="M 34.7263 69.0846 C 34.4856 70.2368 33.6897 71.0456 32.9488 70.891 L 28.0867 69.8757 C 27.3462 69.7213 26.94 68.6616 27.1803 67.5092 L 30.3744 54.8938 C 30.6147 53.7415 31.4109 52.9332 32.1518 53.0878 L 35.9401 53.8789 C 36.681 54.0336 37.0868 55.0931 36.8465 56.2455 L 34.7263 69.0846 Z " stroke-width="0.4262810975404425"/>
  <g id="ID0.11629539355635643">
    <path id="ID0.08818722935393453" fill="#FBB03B" stroke="#000000" stroke-width="0.8525621863832268" d="M 52.7264 22.5299 C 53.6679 22.5108 54.4471 23.2575 54.4669 24.1986 L 54.5127 26.3916 C 54.5325 27.3327 53.785 28.1122 52.8438 28.1317 L 50.6285 28.1785 C 49.687 28.1976 48.9078 27.4509 48.8878 26.5094 L 48.8422 24.3168 C 48.8224 23.3757 49.5695 22.5964 50.5112 22.5767 L 52.7264 22.5299 Z "/>
    <path id="ID0.8803494698368013" stroke="#1A1A1A" stroke-width="0.8525621863832268" d="M 48.4492 21.3872 C 49.4093 21.3423 50.216 21.9195 50.251 22.6757 L 50.4811 27.6375 C 50.5159 28.3934 49.766 29.0429 48.8057 29.0874 L 38.1759 29.0301 C 37.2161 29.0748 36.4089 28.4974 36.3743 27.741 L 36.1953 23.8751 C 36.1605 23.1192 36.9098 22.4695 37.8707 22.4252 L 48.4492 21.3872 Z "/>
  </g>
  <path id="ID0.1541289514862001" fill="none" stroke="#FFFFFF" stroke-width="1" stroke-linecap="round" d="M 66.5 36.25 C 66.5 36.25 63.639 41.879 61.9 44.5 C 60.082 47.24 58.101 49.733 56 52.1 C 54.428 53.907 50.9 57 50.9 57 "/>
  <path id="ID0.1541289514862001" fill="none" stroke="#FFFFFF" stroke-width="1" stroke-linecap="round" d="M 64.4 37.6 C 64.4 37.6 62.056 43.077 60.5 45.6 C 58.897 48.199 54.9 52.9 54.9 52.9 "/>
</svg>