<svg xmlns="http://www.w3.org/2000/svg" xmlns:xlink="http://www.w3.org/1999/xlink" version="1.1" width="69.68872837272589" height="48.89299778190558" viewBox="2.646790961189544 2.2775716580584406 69.68872837272589 48.89299778190558">
  <!-- Exported by Scratch - http://scratch.mit.edu/ -->
  <g id="ID0.5289877979084849">
    <path id="ID0.5824755243957043" d="M 49.0286 46.6591 C 48.8458 47.4187 48.3003 47.9398 47.8113 47.8224 L 44.605 47.0473 C 44.116 46.9298 43.8685 46.2172 44.0514 45.4566 L 46.4325 37.1487 C 46.6163 36.3892 47.1608 35.868 47.6488 35.9863 L 50.1478 36.589 C 50.6368 36.7074 50.8843 37.419 50.7016 38.1776 L 49.0286 46.6591 Z " stroke-width="1.0000000402063607"/>
    <path id="ID0.09308562520891428" d="M 44.1988 48.841 C 43.7014 48.7641 43.3635 48.2968 43.4405 47.7995 L 43.9539 44.5416 C 44.0319 44.0443 44.4972 43.7052 44.9934 43.7841 L 50.4148 45.0041 C 50.9111 45.082 51.25 45.5483 51.1721 46.0446 L 50.7729 48.5834 C 50.696 49.0808 50.2306 49.4198 49.7333 49.3428 L 44.1988 48.841 Z " stroke-width="1.0000000402063607"/>
  </g>
  <g id="ID0.6090325159020722">
    <path id="ID0.8168984204530716" d="M 56.2615 48.471 C 55.8097 48.2515 55.6233 47.7052 55.8441 47.2529 L 57.293 44.2901 C 57.5129 43.8374 58.0583 43.6506 58.5093 43.8719 L 63.332 46.6325 C 63.7825 46.8525 63.9693 47.3979 63.7499 47.8497 L 62.6216 50.1588 C 62.4008 50.6112 61.8554 50.798 61.4045 50.5789 L 56.2615 48.471 Z " stroke-width="0.9999999981749039"/>
    <path id="ID0.8534832675941288" d="M 61.1245 45.6137 C 61.2524 46.3844 60.9561 47.0768 60.4582 47.1609 L 57.2061 47.7061 C 56.7092 47.7906 56.2028 47.2337 56.074 46.4627 L 55.0016 37.886 C 54.8727 37.115 55.17 36.4229 55.6656 36.339 L 58.2011 35.9132 C 58.6976 35.8296 59.2037 36.3875 59.3325 37.1585 L 61.1245 45.6137 Z " stroke-width="0.9999999981749039"/>
  </g>
  <path id="ID0.3610392170958221" fill="#003FFF" stroke="#000000" stroke-width="1" d="M 53.55 24.5 C 55.73 24.5 57.705 25.312 59.135 26.625 C 60.565 27.937 61.45 29.75 61.45 31.75 C 61.45 33.75 60.565 35.563 59.135 36.875 C 57.705 38.188 55.73 39 53.55 39 C 51.37 39 49.395 38.188 47.965 36.875 C 46.535 35.563 45.65 33.75 45.65 31.75 C 45.65 29.75 46.535 27.937 47.965 26.625 C 49.395 25.312 51.37 24.5 53.55 24.5 Z "/>
  <g id="ID0.5123446495272219">
    <path id="ID0.10209798347204924" fill="#FBB03B" stroke="#000000" stroke-width="0.5661999735059109" d="M 69.0762 13.8928 C 69.5599 13.5002 70.2718 13.5757 70.6662 14.0603 L 71.5812 15.1936 C 71.9778 15.6804 71.9019 16.3932 71.4138 16.7882 L 70.27 17.7115 C 69.7845 18.1055 69.0677 18.031 68.675 17.5428 L 67.7605 16.4108 C 67.3688 15.9253 67.4438 15.212 67.9302 14.8184 L 69.0762 13.8928 Z "/>
    <path id="ID0.653992504812777" stroke="#1A1A1A" stroke-width="0.5661999735059109" d="M 66.3626 15.0327 C 66.85 14.6177 67.5056 14.5927 67.8333 14.9754 L 69.9708 17.4881 C 70.2966 17.8699 70.1674 18.5166 69.6804 18.9308 L 64.0742 23.2209 C 63.589 23.6359 62.9311 23.6587 62.6053 23.2769 L 60.9407 21.3198 C 60.6148 20.9357 60.7446 20.2903 61.2299 19.8798 L 66.3626 15.0327 Z "/>
  </g>
  <g id="ID0.7599780382588506">
    <path id="ID0.5522712115198374" fill="#FBB03B" stroke="#000000" stroke-width="0.566210920587272" d="M 52.4443 8.5678 L 65.9626 11.4216 L 63.6201 22.5183 L 50.1017 19.6644 L 52.4443 8.5678 Z "/>
    <path id="ID0.6870047394186258" fill="#CCCCCC" stroke="#1A1A1A" stroke-width="0.5662000082597579" d="M 54.3139 17.0032 C 50.187 16.1326 57.1556 12.0262 60.0617 12.2903 L 66.6602 13.1571 C 67.3418 8.6078 64.3684 4.2576 59.806 3.2951 L 58.2577 2.9681 C 53.5254 1.9694 48.8768 4.9958 47.8772 9.7292 L 44.0628 27.7979 C 52.0506 37.7656 58.4153 34.2238 62.7536 31.7442 C 64.7286 30.7601 64.1037 25.3874 64.1485 23.7594 C 64.0885 22.6325 65.3729 19.3392 65.3729 19.3392 L 54.3139 17.0032 Z "/>
  </g>
  <g id="ID0.709036692045629">
    <path id="ID0.6454382967203856" d="M 63.872 14.0015 C 64.0819 13.9713 64.2841 14.0291 64.4415 14.1469 C 64.5989 14.2647 64.7113 14.4425 64.7415 14.6523 C 64.7717 14.8622 64.7139 15.0645 64.5961 15.2218 C 64.4782 15.3792 64.3004 15.4916 64.0906 15.5218 C 63.8808 15.552 63.6785 15.4942 63.5211 15.3764 C 63.3637 15.2586 63.2513 15.0808 63.2211 14.8709 C 63.191 14.6611 63.2488 14.4588 63.3666 14.3014 C 63.4844 14.1441 63.6622 14.0316 63.872 14.0015 Z " stroke-width="1.000000014588057"/>
    <path id="ID0.3061303119175136" d="M 60.1542 14.3036 C 60.364 14.2734 60.5653 14.3314 60.7227 14.4492 C 60.88 14.567 60.9923 14.7438 61.0225 14.9537 C 61.0527 15.1635 60.9947 15.3648 60.8769 15.5222 C 60.7591 15.6795 60.5823 15.7918 60.3725 15.822 C 60.1626 15.8522 59.9613 15.7942 59.804 15.6764 C 59.6466 15.5586 59.5343 15.3818 59.5041 15.172 C 59.474 14.9621 59.5319 14.7608 59.6497 14.6035 C 59.7675 14.4461 59.9443 14.3338 60.1542 14.3036 Z " stroke-width="1.000000014588057"/>
  </g>
  <g id="ID0.7351767676882446">
    <path id="ID0.47890645265579224" fill="none" stroke="#000000" stroke-width="0.5662000033852246" d="M 47.575 12.6646 C 47.575 12.6646 45.9274 10.7551 43.3976 10.3509 C 41.167 9.9924 39.5208 9.9579 39.5208 9.9579 "/>
    <path id="ID0.1934835067950189" fill="none" stroke="#000000" stroke-width="0.5662000033852246" d="M 47.2703 12.3512 C 47.2703 12.3512 47.7074 10.1961 45.2637 9.5431 C 43.0811 8.9618 43.1851 8.0047 43.1851 8.0047 "/>
  </g>
  <path id="ID0.8436069656163454" fill="#FFF05D" stroke="#000000" stroke-width="0.5180999780158078" d="M 47.805 28.6238 C 47.3783 30.7617 46.4928 29.2401 44.1893 28.9545 L 30.4818 26.3839 L 7.4512 24.6461 C 4.6279 24.5465 2.6841 22.4035 3.2427 19.634 C 3.801 16.8631 6.3645 15.8114 9.0651 16.6459 L 30.892 24.351 L 44.5063 27.3304 C 46.6552 27.8802 48.1376 26.9706 47.805 28.6238 Z "/>
  <g id="ID0.5123446495272219">
    <path id="ID0.10209798347204924" fill="#FBB03B" stroke="#000000" stroke-width="0.5661999828154182" d="M 44.1719 29.1677 C 43.8286 29.6875 43.1269 29.8295 42.6051 29.486 L 41.3917 28.6801 C 40.8671 28.3351 40.7252 27.6324 41.072 27.109 L 41.8853 25.8845 C 42.2299 25.3628 42.9359 25.2183 43.4573 25.5659 L 44.6697 26.3706 C 45.1893 26.716 45.3322 27.4188 44.9866 27.9404 L 44.1719 29.1677 Z "/>
    <path id="ID0.653992504812777" stroke="#1A1A1A" stroke-width="0.5661999828154182" d="M 46.4173 27.2647 C 46.0772 27.8071 45.4594 28.028 45.0319 27.7616 L 42.2379 26.0077 C 41.8123 25.7415 41.7412 25.0858 42.0811 24.5444 L 46.1383 18.7674 C 46.4762 18.2257 47.0968 18.0062 47.5224 18.2724 L 49.6983 19.6385 C 50.1246 19.9068 50.1949 20.5614 49.8554 21.0988 L 46.4173 27.2647 Z "/>
  </g>
  <path id="ID0.7086072596721351" fill="#FFFFFF" stroke="none" stroke-linecap="round" d="M 53.35 4.8 C 53.722 4.8 54.06 4.954 54.304 5.203 C 54.549 5.452 54.7 5.796 54.7 6.175 C 54.7 6.554 54.549 6.898 54.304 7.147 C 54.06 7.396 53.722 7.55 53.35 7.55 C 52.978 7.55 52.64 7.396 52.396 7.147 C 52.151 6.898 52 6.554 52 6.175 C 52 5.796 52.151 5.452 52.396 5.203 C 52.64 4.954 52.978 4.8 53.35 4.8 Z " stroke-width="1"/>
</svg>