<svg xmlns="http://www.w3.org/2000/svg" xmlns:xlink="http://www.w3.org/1999/xlink" version="1.1" width="46.875831604003906" height="21.725566864013672" viewBox="3.665471076965332 6.45968770980835 46.875831604003906 21.725566864013672">
  <!-- Exported by Scratch - http://scratch.mit.edu/ -->
  <g id="ID0.5289877979084849">
    <path id="ID0.5824755243957043" d="M 46.1382 22.0522 C 46.9192 22.0726 47.5425 22.4974 47.5297 23.0002 L 47.4401 26.2976 C 47.4272 26.8004 46.7818 27.191 45.9998 27.1707 L 37.378 26.5741 C 36.5969 26.5527 35.9736 26.1288 35.9876 25.6269 L 36.056 23.0571 C 36.0698 22.5542 36.7142 22.1637 37.4942 22.1843 L 46.1382 22.0522 Z " stroke-width="0.9999999803540803"/>
    <path id="ID0.09308562520891428" d="M 49.2791 26.3209 C 49.3075 26.8234 48.921 27.2513 48.4185 27.2797 L 45.1252 27.4568 C 44.6226 27.4842 44.194 27.0998 44.1677 26.5981 L 44.2305 21.0415 C 44.2032 20.5399 44.5886 20.1112 45.0902 20.0839 L 47.6565 19.945 C 48.159 19.9166 48.5876 20.301 48.616 20.8034 L 49.2791 26.3209 Z " stroke-width="0.9999999803540803"/>
  </g>
  <path id="ID0.8534832675941288" d="M 46.4471 16.474 C 47.2282 16.4599 47.87 16.8542 47.8805 17.359 L 47.9453 20.6558 C 47.9563 21.1597 47.3315 21.5794 46.5499 21.5944 L 37.9085 21.4036 C 37.127 21.4186 36.4857 21.0234 36.475 20.5209 L 36.4238 17.9504 C 36.4136 17.447 37.0393 17.0278 37.8208 17.0128 L 46.4471 16.474 Z " stroke-width="0.9999999743064475"/>
  <path id="ID0.3610392170958221" fill="#003FFF" stroke="#000000" stroke-width="1" d="M 33.25 11.75 C 35.43 11.75 37.405 12.562 38.835 13.875 C 40.265 15.187 41.15 17 41.15 19 C 41.15 21 40.265 22.813 38.835 24.125 C 37.405 25.438 35.43 26.25 33.25 26.25 C 31.07 26.25 29.095 25.438 27.665 24.125 C 26.235 22.813 25.35 21 25.35 19 C 25.35 17 26.235 15.187 27.665 13.875 C 29.095 12.562 31.07 11.75 33.25 11.75 Z "/>
  <path id="ID0.8168984204530716" d="M 50.0413 20.6986 C 50.0378 21.2009 49.6251 21.6044 49.1217 21.6 L 45.8238 21.5685 C 45.3205 21.5651 44.917 21.1534 44.9224 20.651 L 45.3365 15.1095 C 45.341 14.6082 45.7527 14.2047 46.255 14.2082 L 48.8249 14.2318 C 49.3283 14.2362 49.7318 14.6479 49.7282 15.1492 L 50.0413 20.6986 Z " stroke-width="0.9999999463180956"/>
  <g id="ID0.7599780382588506">
    <path id="ID0.5522712115198374" fill="#FBB03B" stroke="#000000" stroke-width="0.5662109546918526" d="M 10.868 22.6625 L 10.8341 8.8463 L 22.1752 8.8184 L 22.2092 22.6346 L 10.868 22.6625 Z "/>
    <path id="ID0.6870047394186258" fill="#CCCCCC" stroke="#1A1A1A" stroke-width="0.5662000347595708" d="M 18.7187 19.0478 C 18.7297 23.2655 13.2577 17.3089 12.9087 14.4117 L 12.3776 7.7777 C 7.7863 8.0618 4.1535 11.8785 4.1655 16.5414 L 4.1693 18.1238 C 4.1815 22.9603 8.1124 26.8739 12.9502 26.8624 L 31.4171 26.817 C 39.4957 16.9227 34.7021 11.4386 31.3707 7.7142 C 29.9956 5.9884 24.8721 7.7222 23.2707 8.0186 C 22.1812 8.3127 18.6922 7.7448 18.6922 7.7448 L 18.7187 19.0478 Z "/>
  </g>
  <g id="ID0.709036692045629">
    <path id="ID0.6454382967203856" d="M 16.7125 10.4612 C 16.6984 10.2698 16.7201 10.0608 16.7665 9.8778 C 16.813 9.6947 16.8841 9.5375 16.969 9.4497 C 17.0539 9.3619 17.1364 9.36 17.2013 9.4279 C 17.2662 9.4958 17.3133 9.6336 17.3274 9.8249 C 17.3415 10.0163 17.3198 10.2253 17.2734 10.4083 C 17.2269 10.5914 17.1558 10.7486 17.0709 10.8364 C 16.986 10.9242 16.9035 10.9261 16.8386 10.8582 C 16.7737 10.7903 16.7266 10.6525 16.7125 10.4612 Z " stroke-width="0.7085119697424137"/>
    <path id="ID0.3061303119175136" d="M 16.8675 13.9175 C 16.8534 13.7261 16.8751 13.518 16.9216 13.335 C 16.968 13.1519 17.0387 12.9952 17.1236 12.9073 C 17.2085 12.8195 17.2907 12.8181 17.3555 12.886 C 17.4204 12.9539 17.4675 13.0907 17.4816 13.2821 C 17.4956 13.4735 17.4739 13.6815 17.4275 13.8646 C 17.381 14.0476 17.3103 14.2044 17.2254 14.2922 C 17.1405 14.38 17.0584 14.3815 16.9935 14.3136 C 16.9286 14.2457 16.8815 14.1089 16.8675 13.9175 Z " stroke-width="0.7085119697424137"/>
  </g>
  <g id="ID0.5123446495272219">
    <path id="ID0.10209798347204924" fill="#FBB03B" stroke="#000000" stroke-width="0.5661999847177575" d="M 11.1295 26.9286 C 10.5067 26.944 9.9891 26.4493 9.9729 25.8248 L 9.9407 24.3685 C 9.9239 23.7409 10.4195 23.2228 11.0472 23.2083 L 12.5168 23.1758 C 13.1418 23.1604 13.6639 23.6572 13.6767 24.2836 L 13.7092 25.7385 C 13.7228 26.3622 13.2277 26.8812 12.6022 26.8957 L 11.1295 26.9286 Z "/>
    <path id="ID0.653992504812777" stroke="#1A1A1A" stroke-width="0.5661999847177575" d="M 13.9743 27.6835 C 13.3349 27.7144 12.8005 27.3337 12.7748 26.8306 L 12.6172 23.5355 C 12.5925 23.0342 13.0898 22.6011 13.7284 22.5706 L 20.7877 22.5981 C 21.4253 22.5659 21.9602 22.9497 21.9849 23.4511 L 22.1075 26.0174 C 22.1309 26.5205 21.634 26.9523 20.9989 26.9808 L 13.9743 27.6835 Z "/>
  </g>
  <path id="ID0.7086072596721351" fill="#FFFFFF" stroke="none" stroke-linecap="round" d="M 7.75 11.25 C 8.122 11.25 8.46 11.404 8.704 11.653 C 8.949 11.902 9.1 12.246 9.1 12.625 C 9.1 13.004 8.949 13.348 8.704 13.597 C 8.46 13.846 8.122 14 7.75 14 C 7.378 14 7.04 13.846 6.796 13.597 C 6.551 13.348 6.4 13.004 6.4 12.625 C 6.4 12.246 6.551 11.902 6.796 11.653 C 7.04 11.404 7.378 11.25 7.75 11.25 Z " stroke-width="1"/>
</svg>