<svg xmlns="http://www.w3.org/2000/svg" xmlns:xlink="http://www.w3.org/1999/xlink" version="1.1" width="62.71025468377751" height="50.68011857537907" viewBox="3.4366941379086082 2.2775716708675926 62.71025468377751 50.68011857537907">
  <!-- Exported by Scratch - http://scratch.mit.edu/ -->
  <g id="ID0.5289877979084849">
    <path id="ID0.5824755243957043" d="M 40.7587 44.8565 C 40.4741 45.5841 39.8627 46.026 39.3943 45.843 L 36.3235 44.6382 C 35.855 44.4552 35.707 43.7155 35.9918 42.9869 L 39.483 35.081 C 39.7686 34.3536 40.379 33.9115 40.8463 34.0952 L 43.2399 35.0328 C 43.7081 35.2168 43.8564 35.9555 43.572 36.6821 L 40.7587 44.8565 Z " stroke-width="0.9999999917143799"/>
    <path id="ID0.09308562520891428" d="M 35.6766 46.3598 C 35.1944 46.2158 34.9233 45.7069 35.0674 45.2246 L 36.02 42.0671 C 36.165 41.5851 36.6722 41.3126 37.153 41.4584 L 42.3575 43.4058 C 42.8386 43.5506 43.1108 44.0587 42.966 44.5398 L 42.2245 47.0005 C 42.0805 47.4828 41.5733 47.7552 41.0911 47.6112 L 35.6766 46.3598 Z " stroke-width="0.9999999917143799"/>
  </g>
  <g id="ID0.6090325159020722">
    <path id="ID0.8168984204530716" d="M 52.981 44.98 C 52.48 44.944 52.104 44.506 52.141 44.004 L 52.386 40.715 C 52.422 40.213 52.859 39.837 53.36 39.875 L 58.863 40.647 C 59.363 40.684 59.739 41.121 59.703 41.622 L 59.513 44.185 C 59.476 44.687 59.039 45.063 58.539 45.027 L 52.981 44.98 Z " stroke-width="1"/>
    <path id="ID0.8534832675941288" d="M 56.435 40.521 C 56.84 41.189 56.822 41.942 56.391 42.205 L 53.574 43.919 C 53.144 44.182 52.467 43.853 52.061 43.185 L 47.88 35.62 C 47.474 34.952 47.493 34.199 47.922 33.937 L 50.118 32.6 C 50.548 32.338 51.225 32.668 51.631 33.336 L 56.435 40.521 Z " stroke-width="1"/>
  </g>
  <path id="ID0.3610392170958221" fill="#003FFF" stroke="#000000" stroke-width="1" d="M 46.45 24.2 C 48.63 24.2 50.605 25.012 52.035 26.325 C 53.465 27.637 54.35 29.45 54.35 31.45 C 54.35 33.45 53.465 35.263 52.035 36.575 C 50.605 37.888 48.63 38.7 46.45 38.7 C 44.27 38.7 42.295 37.888 40.865 36.575 C 39.435 35.263 38.55 33.45 38.55 31.45 C 38.55 29.45 39.435 27.637 40.865 26.325 C 42.295 25.012 44.27 24.2 46.45 24.2 Z "/>
  <g id="ID0.5123446495272219">
    <path id="ID0.10209798347204924" fill="#FBB03B" stroke="#000000" stroke-width="0.5661999702521968" d="M 63.7047 17.6722 C 64.296 17.4759 64.9353 17.7982 65.1329 18.3909 L 65.5882 19.7745 C 65.7872 20.37 65.4642 21.01 64.868 21.2069 L 63.4716 21.6664 C 62.8782 21.8633 62.234 21.5403 62.0392 20.9448 L 61.584 19.5626 C 61.3892 18.9699 61.7115 18.3292 62.3056 18.133 L 63.7047 17.6722 Z "/>
    <path id="ID0.653992504812777" stroke="#1A1A1A" stroke-width="0.5661999702521968" d="M 60.7634 17.7793 C 61.3661 17.5634 61.9882 17.7717 62.1594 18.2455 L 63.2707 21.3516 C 63.4406 21.8239 63.091 22.3832 62.4891 22.5985 L 55.7284 24.63 C 55.1278 24.8467 54.5043 24.6355 54.3345 24.1631 L 53.4692 21.744 C 53.3001 21.2695 53.6496 20.7116 54.2487 20.4992 L 60.7634 17.7793 Z "/>
  </g>
  <g id="ID0.7599780382588506">
    <path id="ID0.5522712115198374" fill="#FBB03B" stroke="#000000" stroke-width="0.566210920587272" d="M 45.4443 8.5678 L 58.9626 11.4216 L 56.6201 22.5183 L 43.1017 19.6644 L 45.4443 8.5678 Z "/>
    <path id="ID0.6870047394186258" fill="#CCCCCC" stroke="#1A1A1A" stroke-width="0.5662000082597579" d="M 47.3139 17.0032 C 43.187 16.1326 50.1556 12.0262 53.0617 12.2903 L 59.6602 13.1571 C 60.3418 8.6078 57.3684 4.2576 52.806 3.2951 L 51.2577 2.9681 C 46.5254 1.9694 41.8768 4.9958 40.8772 9.7292 L 37.0628 27.7979 C 45.0506 37.7656 51.4153 34.2238 55.7536 31.7442 C 57.7286 30.7601 57.1037 25.3874 57.1485 23.7594 C 57.0885 22.6325 58.3729 19.3392 58.3729 19.3392 L 47.3139 17.0032 Z "/>
  </g>
  <g id="ID0.709036692045629">
    <path id="ID0.6454382967203856" d="M 56.872 14.0015 C 57.0819 13.9713 57.2841 14.0291 57.4415 14.1469 C 57.5989 14.2647 57.7113 14.4425 57.7415 14.6523 C 57.7717 14.8622 57.7139 15.0645 57.5961 15.2218 C 57.4782 15.3792 57.3004 15.4916 57.0906 15.5218 C 56.8808 15.552 56.6785 15.4942 56.5211 15.3764 C 56.3637 15.2586 56.2513 15.0808 56.2211 14.8709 C 56.191 14.6611 56.2488 14.4588 56.3666 14.3014 C 56.4844 14.1441 56.6622 14.0316 56.872 14.0015 Z " stroke-width="1.000000014588057"/>
    <path id="ID0.3061303119175136" d="M 53.1542 14.3036 C 53.364 14.2734 53.5653 14.3314 53.7227 14.4492 C 53.88 14.567 53.9923 14.7438 54.0225 14.9537 C 54.0527 15.1635 53.9947 15.3648 53.8769 15.5222 C 53.7591 15.6795 53.5823 15.7918 53.3725 15.822 C 53.1626 15.8522 52.9613 15.7942 52.804 15.6764 C 52.6466 15.5586 52.5343 15.3818 52.5041 15.172 C 52.474 14.9621 52.5319 14.7608 52.6497 14.6035 C 52.7675 14.4461 52.9443 14.3338 53.1542 14.3036 Z " stroke-width="1.000000014588057"/>
  </g>
  <g id="ID0.7351767676882446">
    <path id="ID0.47890645265579224" fill="none" stroke="#000000" stroke-width="0.5662000082597579" d="M 40.658 13.3623 C 40.658 13.3623 38.2632 14.1532 36.9211 16.3354 C 35.7357 18.2587 35.0735 19.7663 35.0735 19.7663 "/>
    <path id="ID0.1934835067950189" fill="none" stroke="#000000" stroke-width="0.5662000082597579" d="M 40.2519 13.5238 C 40.2519 13.5238 38.4284 12.2948 36.8894 14.3022 C 35.5167 16.0958 34.6723 15.6333 34.6723 15.6333 "/>
  </g>
  <path id="ID0.8436069656163454" fill="#FFF05D" stroke="#000000" stroke-width="0.5180999765354681" d="M 43.8645 27.5485 C 44.9618 29.4323 43.2903 28.8797 41.376 30.1924 L 29.4074 37.3517 L 11.0089 51.3133 C 8.8287 53.1098 5.9528 52.7932 4.5357 50.349 C 3.1174 47.904 4.3402 45.4175 6.9156 44.2527 L 28.3673 35.5575 L 40.537 28.7662 C 42.5107 27.7537 43.0179 26.0901 43.8645 27.5485 Z "/>
  <g id="ID0.5123446495272219">
    <path id="ID0.10209798347204924" fill="#FBB03B" stroke="#000000" stroke-width="0.5661999868357641" d="M 42.3157 29.9863 C 42.2449 30.6052 41.6835 31.0495 41.0627 30.9794 L 39.616 30.8101 C 38.992 30.74 38.5474 30.1776 38.6197 29.5539 L 38.7905 28.0939 C 38.8616 27.4728 39.4258 27.0243 40.0479 27.0982 L 41.4934 27.2669 C 42.113 27.3396 42.5585 27.9016 42.4865 28.5231 L 42.3157 29.9863 Z "/>
    <path id="ID0.653992504812777" stroke="#1A1A1A" stroke-width="0.5661999868357641" d="M 43.4563 27.273 C 43.3986 27.9106 42.9478 28.3872 42.4459 28.3432 L 39.1607 28.0441 C 38.6607 27.9994 38.3004 27.447 38.3585 26.8103 L 39.3609 19.8225 C 39.417 19.1865 39.871 18.7098 40.371 18.7545 L 42.9296 18.9877 C 43.4312 19.0339 43.7901 19.5858 43.7307 20.2187 L 43.4563 27.273 Z "/>
  </g>
  <path id="ID0.7086072596721351" fill="#FFFFFF" stroke="none" stroke-linecap="round" d="M 45.95 4.95 C 46.322 4.95 46.66 5.104 46.904 5.353 C 47.149 5.602 47.3 5.946 47.3 6.325 C 47.3 6.704 47.149 7.048 46.904 7.297 C 46.66 7.546 46.322 7.7 45.95 7.7 C 45.578 7.7 45.24 7.546 44.996 7.297 C 44.751 7.048 44.6 6.704 44.6 6.325 C 44.6 5.946 44.751 5.602 44.996 5.353 C 45.24 5.104 45.578 4.95 45.95 4.95 Z " stroke-width="1"/>
</svg>