<svg xmlns="http://www.w3.org/2000/svg" xmlns:xlink="http://www.w3.org/1999/xlink" version="1.1" width="44.78909683227539" height="67.098876953125" viewBox="0.590999960899353 0.8871331214904785 44.78909683227539 67.098876953125">
  <!-- Exported by Scratch - http://scratch.mit.edu/ -->
  <path id="ID0.718919965904206" fill="#FBB03B" stroke="#000000" stroke-width="0.8749304193536427" d="M 12.1162 10.8652 L 33.2797 13.6486 L 30.9945 31.0238 L 9.8311 28.2404 L 12.1162 10.8652 Z "/>
  <path id="ID0.6212768377736211" stroke="#1A1A1A" stroke-width="0.8748970031738281" d="M 24.6161 24.0657 C 18.1546 23.2161 25.1511 16.0573 29.6616 16.119 L 34.5409 16.1995 C 35.0501 9.108 29.9482 2.7623 22.8064 1.8231 L 20.3816 1.5042 C 12.9708 0.5296 6.1733 5.7475 5.1982 13.1588 L 1.479 41.4499 C 0.5039 48.8607 5.7223 55.6582 13.134 56.6328 L 15.5587 56.9517 C 22.9696 57.9259 29.7679 52.7085 30.7421 45.2968 C 30.7421 45.2968 32.5834 34.0806 31.9399 32.8291 C 31.2964 31.578 33.296 25.8736 33.296 25.8736 L 24.6161 24.0657 Z "/>
  <path id="ID0.07252079900354147" d="M 30.5361 21.6002 C 30.8633 21.6002 31.1599 21.7332 31.3743 21.948 C 31.589 22.1623 31.722 22.4589 31.722 22.7861 C 31.722 23.1133 31.589 23.4099 31.3743 23.6243 C 31.1599 23.8391 30.8633 23.972 30.5361 23.972 C 30.2089 23.972 29.9123 23.8391 29.6979 23.6243 C 29.4832 23.4099 29.3502 23.1133 29.3502 22.7861 C 29.3502 22.4589 29.4832 22.1623 29.6979 21.948 C 29.9123 21.7332 30.2089 21.6002 30.5361 21.6002 Z " stroke-width="0.43744850158691406"/>
  <path id="ID0.8011973258107901" fill="none" stroke="#000000" stroke-width="0.8748970031738281" d="M 14.2026 17.3071 C 14.2026 17.3071 10.7516 15.4973 6.8872 16.3451 C 3.4782 17.0932 1.091 17.9759 1.091 17.9759 "/>
  <path id="ID0.28515686094760895" fill="none" stroke="#000000" stroke-width="0.8748970031738281" d="M 13.5876 17.031 C 13.5876 17.031 12.9962 13.685 9.1138 14.1308 C 5.6462 14.5284 5.2533 13.0931 5.2533 13.0931 "/>
  <path id="ID0.971081311814487" fill="#FBB03B" stroke="#000000" stroke-width="0.8748970031738281" d="M 43.2475 32.5005 C 44.2121 32.5653 44.9408 33.3999 44.8761 34.3636 L 44.7252 36.6095 C 44.6604 37.5732 43.8258 38.3029 42.8616 38.2377 L 40.5926 38.0854 C 39.6285 38.0203 38.8992 37.186 38.964 36.2215 L 39.1153 33.976 C 39.1801 33.0124 40.0143 32.2831 40.9789 32.3479 L 43.2475 32.5005 Z "/>
  <path id="ID0.05618514586240053" stroke="#1A1A1A" stroke-width="0.8748970031738281" d="M 38.9793 30.9458 C 39.9649 30.987 40.737 31.6497 40.7042 32.4262 L 40.4911 37.5189 C 40.4583 38.2945 39.6333 38.8912 38.6477 38.8497 L 27.7872 37.8313 C 26.8016 37.7902 26.0291 37.1274 26.0619 36.3505 L 26.2285 32.3824 C 26.2609 31.6073 27.0859 31.0101 28.072 31.0521 L 38.9793 30.9458 Z "/>
  <path id="ID0.5414821323938668" d="M 9.847 63.6827 C 9.0889 64.6233 7.983 64.9898 7.3785 64.5021 L 3.4112 61.303 C 2.8062 60.8148 2.9309 59.6569 3.6894 58.7168 L 12.5032 48.6848 C 13.2617 47.7443 14.3676 47.3782 14.9717 47.8659 L 18.0631 50.3589 C 18.6677 50.8467 18.5439 52.0046 17.7849 52.9443 L 9.847 63.6827 Z " stroke-width="0.43744850158691406"/>
  <path id="ID0.9220935176126659" d="M 3.1024 67.4094 C 2.3285 67.3521 1.7481 66.6771 1.8058 65.9028 L 2.1824 60.8196 C 2.2397 60.0449 2.9139 59.4635 3.6873 59.5209 L 12.1908 60.7155 C 12.9647 60.7728 13.5452 61.4474 13.4874 62.2221 L 13.1935 66.1828 C 13.1361 66.9575 12.4625 67.5402 11.6891 67.482 L 3.1024 67.4094 Z " stroke-width="0.43744850158691406"/>
  <path id="ID0.051346758380532265" d="M 17.3326 67.4094 C 16.5583 67.3521 15.9783 66.6771 16.0356 65.9028 L 16.4126 60.8196 C 16.4699 60.0449 17.1436 59.4635 17.9175 59.5209 L 26.421 60.7155 C 27.1944 60.7728 27.7754 61.4474 27.7176 62.2221 L 27.4237 66.1828 C 27.3659 66.9575 26.6927 67.5402 25.9188 67.482 L 17.3326 67.4094 Z " stroke-width="0.43744850158691406"/>
  <path id="ID0.09090502047911286" d="M 21.6485 58.5475 C 22.4446 59.4552 22.6178 60.607 22.0343 61.1193 L 18.204 64.4828 C 17.6209 64.9951 16.5006 64.6749 15.7035 63.7672 L 7.3229 53.3708 C 6.5259 52.4631 6.3531 51.3121 6.9366 50.7994 L 9.9209 48.1791 C 10.5045 47.6664 11.6239 47.9862 12.4209 48.8939 L 21.6485 58.5475 Z " stroke-width="0.43744850158691406"/>
</svg>