<svg xmlns="http://www.w3.org/2000/svg" xmlns:xlink="http://www.w3.org/1999/xlink" version="1.1" width="30.477526834469227" height="31.375025918941883" viewBox="0.5895370588396047 0.525337015161321 30.477526834469227 31.375025918941883">
  <!-- Exported by Scratch - http://scratch.mit.edu/ -->
  <g id="ID0.07952108979225159">
    <path id="ID0.07179283257573843" fill="none" stroke="#000000" stroke-width="1.9375259189418843" d="M 30.0983 1.4941 L 1.5583 1.4941 L 1.5583 30.9316 L 30.0983 30.9316 L 30.0983 1.4941 Z "/>
    <path id="ID0.9966579801402986" fill="none" stroke="#000000" stroke-width="0.9906693543017209" stroke-linecap="round" d="M 15.6 1.9847 L 15.6 30.1466 "/>
    <path id="ID0.667331853415817" fill="none" stroke="#000000" stroke-width="0.9906693543017209" stroke-linecap="round" d="M 8.55 1.8375 L 8.55 30.4409 "/>
    <path id="ID0.663609794806689" fill="none" stroke="#000000" stroke-width="0.9906693543017209" stroke-linecap="round" d="M 23.2 1.5922 L 23.2 30.5391 "/>
  </g>
  <path id="ID0.255261589307338" d="M 12.8845 27.9724 C 12.7946 28.4032 12.9464 28.7995 13.2234 28.8573 L 15.0414 29.2369 C 15.3183 29.2947 15.616 28.9923 15.7061 28.5615 L 16.4989 23.7606 C 16.5889 23.3298 16.437 22.9337 16.16 22.8758 L 14.7435 22.5802 C 14.4665 22.5223 14.1689 22.8247 14.0788 23.2555 L 12.8845 27.9724 Z " stroke-width="0.15939167141914368"/>
  <path id="ID0.03648320911452174" d="M 18.091 28.2776 C 18.1589 28.7125 18.4409 29.0296 18.7205 28.986 L 20.5554 28.6994 C 20.8351 28.6557 21.0068 28.2678 20.9389 27.8328 L 19.9859 23.0612 C 19.918 22.6264 19.636 22.3092 19.3565 22.353 L 17.9266 22.5764 C 17.647 22.62 17.4752 23.008 17.5432 23.443 L 18.091 28.2776 Z " stroke-width="0.15939167141914368"/>
  <path id="ID0.9573684432543814" fill="#FBB03B" stroke="#000000" stroke-width="0.31878334283828735" d="M 10.1333 21.9107 C 9.9997 22.2364 10.1554 22.6089 10.4811 22.7426 L 11.2398 23.0539 C 11.5654 23.1876 11.938 23.0319 12.0718 22.7061 L 12.3864 21.9394 C 12.5201 21.6138 12.3643 21.2413 12.0386 21.1076 L 11.2799 20.7963 C 10.9543 20.6627 10.5818 20.8183 10.4481 21.1441 L 10.1333 21.9107 Z "/>
  <path id="ID0.41889808466657996" stroke="#1A1A1A" stroke-width="0.31878334283828735" d="M 10.3108 20.2649 C 10.1659 20.5937 10.2585 20.9528 10.5176 21.0669 L 12.2173 21.8153 C 12.4765 21.9292 12.8039 21.755 12.9488 21.4262 L 14.3605 17.7108 C 14.5052 17.3819 14.4124 17.0227 14.1534 16.9087 L 12.8289 16.3255 C 12.5699 16.2115 12.2423 16.3854 12.0974 16.7146 L 10.3108 20.2649 Z "/>
  <path id="ID0.13261056737974286" fill="#FBB03B" stroke="#000000" stroke-width="0.31878334283828735" d="M 19.4004 9.1541 L 11.6229 9.1541 L 11.6229 15.5394 L 19.4004 15.5394 L 19.4004 9.1541 Z "/>
  <path id="ID0.6617734562605619" fill="#009999" stroke="#1A1A1A" stroke-width="0.31878334283828735" d="M 17.4098 13.5999 C 19.7844 13.5999 16.4237 10.5273 14.7913 10.3352 L 11.0561 10.0456 C 11.2092 7.4596 13.3538 5.4094 15.9783 5.4094 L 16.8695 5.4094 C 19.5932 5.4094 21.8009 7.6173 21.8009 10.341 L 21.8009 20.7379 C 21.8009 23.4616 19.593 25.6695 16.8695 25.6695 L 15.9783 25.6695 C 13.2546 25.6695 11.0467 23.4616 11.0467 20.7379 C 11.0467 20.7379 10.9143 16.5985 11.2061 16.1771 C 11.4981 15.7555 11.0467 13.6001 11.0467 13.6001 L 17.4098 13.6001 Z "/>
  <path id="ID0.7134617334231734" d="M 12.5063 12.2248 C 12.3871 12.2248 12.279 12.2733 12.2009 12.3515 C 12.1226 12.4296 12.0742 12.5377 12.0742 12.6569 C 12.0742 12.7762 12.1226 12.8842 12.2009 12.9623 C 12.279 13.0406 12.3871 13.089 12.5063 13.089 C 12.6255 13.089 12.7336 13.0406 12.8117 12.9623 C 12.8899 12.8842 12.9384 12.7762 12.9384 12.6569 C 12.9384 12.5377 12.8899 12.4296 12.8117 12.3515 C 12.7336 12.2733 12.6255 12.2248 12.5063 12.2248 Z " stroke-width="0.15939167141914368"/>
  <path id="ID0.6494691404514015" d="M 14.7378 12.2248 C 14.6185 12.2248 14.5105 12.2733 14.4324 12.3515 C 14.3541 12.4296 14.3057 12.5377 14.3057 12.6569 C 14.3057 12.7762 14.3541 12.8842 14.4324 12.9623 C 14.5105 13.0406 14.6185 13.089 14.7378 13.089 C 14.857 13.089 14.9651 13.0406 15.0432 12.9623 C 15.1214 12.8842 15.1699 12.7762 15.1699 12.6569 C 15.1699 12.5377 15.1214 12.4296 15.0432 12.3515 C 14.9651 12.2733 14.857 12.2248 14.7378 12.2248 Z " stroke-width="0.15939167141914368"/>
  <path id="ID0.3106537782587111" fill="none" stroke="#000000" stroke-width="0.31878334283828735" d="M 21.321 11.5873 C 21.321 11.5873 22.6536 11.0974 24.0094 11.5873 C 25.2055 12.0194 26.0257 12.4515 26.0257 12.4515 "/>
  <path id="ID0.4428880806080997" fill="none" stroke="#000000" stroke-width="0.31878334283828735" d="M 21.5562 11.5168 C 21.5562 11.5168 21.9289 10.336 23.3102 10.6814 C 24.5439 10.9899 24.7541 10.49 24.7541 10.49 "/>
  <path id="ID0.5842904108576477" d="M 20.7009 29.7249 C 20.9829 29.704 21.1944 29.4581 21.1734 29.1758 L 21.0361 27.3237 C 21.0152 27.0414 20.7696 26.8296 20.4878 26.8504 L 17.3894 27.2859 C 17.1074 27.3068 16.8959 27.5526 16.917 27.8348 L 17.0241 29.278 C 17.045 29.5603 17.2904 29.7724 17.5722 29.7514 L 20.7009 29.7249 Z " stroke-width="0.15939167141914368"/>
  <path id="ID0.01732994895428419" d="M 15.5159 29.7249 C 15.798 29.704 16.0094 29.4581 15.9885 29.1758 L 15.8511 27.3237 C 15.8302 27.0414 15.5848 26.8296 15.3028 26.8504 L 12.2044 27.2859 C 11.9226 27.3068 11.7109 27.5526 11.732 27.8348 L 11.8391 29.278 C 11.8601 29.5603 12.1054 29.7724 12.3874 29.7514 L 15.5159 29.7249 Z " stroke-width="0.15939167141914368"/>
  <path id="ID0.2511214418336749" fill="#FFFFFF" stroke="#7F7F7F" stroke-width="0.6609179549026403" stroke-linecap="round" d="M 7.0084 14.9675 L 10.1329 19.6919 L 6.4803 23.7087 L 11.6626 21.7706 L 15.8152 24.2728 L 13.4315 19.8912 L 16.3434 15.5315 L 12.0417 17.6884 L 7.0084 14.9675 Z "/>
  <path id="ID0.8803494698368013" stroke="#1A1A1A" stroke-width="0.31878329183233106" d="M 14.3523 17.9116 C 14.0463 18.1 13.9186 18.4482 14.0671 18.6892 L 15.0413 20.2705 C 15.1897 20.5114 15.5582 20.554 15.8643 20.3655 L 19.136 18.1086 C 19.4419 17.9202 19.5697 17.5718 19.421 17.3308 L 18.6619 16.0989 C 18.5135 15.858 18.1451 15.8152 17.839 16.0039 L 14.3523 17.9116 Z "/>
  <path id="ID0.08818722935393453" fill="#FBB03B" stroke="#000000" stroke-width="0.31878329183233106" d="M 13.2717 19.1656 C 12.9768 19.3581 12.8934 19.7529 13.0855 20.0478 L 13.5334 20.7349 C 13.7255 21.0298 14.1206 21.1132 14.4155 20.9209 L 15.1097 20.4687 C 15.4046 20.2763 15.488 19.8815 15.2958 19.5864 L 14.848 18.8994 C 14.6559 18.6045 14.261 18.5211 13.9659 18.7134 L 13.2717 19.1656 Z "/>
</svg>