<svg xmlns="http://www.w3.org/2000/svg" xmlns:xlink="http://www.w3.org/1999/xlink" version="1.1" width="59.6346549987793" height="70.0223388671875" viewBox="2.3293724060058594 4.785223484039307 59.6346549987793 70.0223388671875">
  <!-- Exported by Scratch - http://scratch.mit.edu/ -->
  <path id="ID0.9571989816613495" fill="none" stroke="#000000" stroke-width="0.8687034651467724" d="M 11.718 27.5733 C 11.718 27.5733 9.6172 30.8226 10.1066 34.7207 C 10.539 38.1591 11.1961 40.5988 11.1961 40.5988 "/>
  <path id="ID0.15386404702439904" fill="none" stroke="#000000" stroke-width="0.8687034651467724" d="M 11.3894 28.1573 C 11.3894 28.1573 8.0278 28.4403 8.118 32.3194 C 8.1985 35.7837 6.744 36.043 6.744 36.043 "/>
  <path id="ID0.07008709199726582" fill="#FBB03B" stroke="#000000" stroke-width="0.8687034651467724" d="M 49.0149 22.0596 C 49.8368 21.5658 50.9043 21.8327 51.3983 22.655 L 52.5486 24.571 C 53.0417 25.3936 52.7753 26.4614 51.9526 26.9555 L 50.0165 28.1173 C 49.1939 28.6114 48.1265 28.3449 47.6324 27.5222 L 46.4829 25.6059 C 45.9888 24.7832 46.2556 23.7166 47.0781 23.2221 L 49.0149 22.0596 Z "/>
  <path id="ID0.6664769016206264" stroke="#1A1A1A" stroke-width="0.8687034651467724" d="M 44.6531 23.2132 C 45.4793 22.6876 46.4846 22.79 46.8992 23.4406 L 49.6126 27.7126 C 50.0264 28.3635 49.6912 29.3173 48.8647 29.842 L 39.4344 35.1703 C 38.6078 35.6951 37.6024 35.5923 37.1896 34.9415 L 35.0738 31.6131 C 34.661 30.9622 34.9952 30.0084 35.8223 29.4829 L 44.6531 23.2132 Z "/>
  <path id="ID0.028991148341447115" fill="#FBB03B" stroke="#000000" stroke-width="0.8687034651467724" d="M 15.3521 19.2726 L 34.9621 11.2325 L 41.5629 27.332 L 21.9529 35.3721 L 15.3521 19.2726 Z "/>
  <path id="ID0.934041952714324" stroke="#1A1A1A" stroke-width="0.8687034651467724" d="M 24.9671 28.4241 C 18.9798 30.8789 24.2773 19.6576 28.1944 17.4859 L 37.3128 12.8943 C 34.2537 6.5323 26.7269 3.5799 20.109 6.2932 L 17.8625 7.2143 C 10.9951 10.03 7.711 17.8791 10.5267 24.7465 L 21.2746 50.9611 C 24.0903 57.8285 31.9396 61.113 38.8066 58.2975 L 41.0531 57.3764 C 47.9205 54.5608 51.2054 46.7113 48.3898 39.8439 C 48.3898 39.8439 44.4442 29.2701 43.2731 28.5091 C 42.101 27.748 41.0109 21.8467 41.0109 21.8467 L 24.9673 28.4245 Z "/>
  <path id="ID0.4870021608658135" d="M 36.2041 20.3779 C 36.5047 20.2546 36.8043 20.2091 37.0451 20.2353 C 37.2861 20.261 37.4688 20.3585 37.5356 20.5213 C 37.6023 20.6842 37.5407 20.8819 37.3871 21.0694 C 37.234 21.2571 36.9886 21.4349 36.688 21.5582 C 36.3874 21.6814 36.0878 21.727 35.8471 21.7008 C 35.606 21.6751 35.4233 21.5776 35.3565 21.4147 C 35.2898 21.2519 35.3514 21.0542 35.505 20.8667 C 35.6581 20.679 35.9035 20.5011 36.2041 20.3779 Z " stroke-width="0.3492958769142934"/>
  <path id="ID0.4437686442397535" d="M 30.5281 22.6675 C 30.8287 22.5442 31.1304 22.5038 31.3746 22.5381 C 31.619 22.5721 31.8063 22.681 31.8782 22.8563 C 31.9501 23.0317 31.8931 23.2407 31.7429 23.4365 C 31.5932 23.6323 31.3499 23.8153 31.0493 23.9386 C 30.7487 24.0618 30.447 24.1023 30.2029 24.0679 C 29.9584 24.0339 29.7711 23.9251 29.6992 23.7497 C 29.6273 23.5744 29.6843 23.3653 29.8345 23.1695 C 29.9843 22.9737 30.2275 22.7907 30.5281 22.6675 Z " stroke-width="0.3555690616392339"/>
  <path id="ID0.3687892844900489" d="M 34.4554 69.7839 C 34.3699 70.9804 33.6765 71.9054 32.9071 71.8505 L 27.859 71.4894 C 27.09 71.4343 26.5355 70.4196 26.6209 69.2231 L 28.1246 56.0491 C 28.2101 54.8526 28.9034 53.9275 29.6725 53.9826 L 33.6062 54.264 C 34.3756 54.3189 34.9302 55.3337 34.8447 56.5301 L 34.4554 69.7839 Z " stroke-width="0.4343517325733862"/>
  <path id="ID0.49555545253679156" fill="#FBB03B" stroke="#000000" stroke-width="0.8687034651467724" d="M 4.6142 41.6548 C 3.6552 41.6663 2.8678 40.8977 2.8562 39.9387 L 2.8295 37.7038 C 2.818 36.7448 3.586 35.9572 4.5455 35.9455 L 6.8035 35.9182 C 7.7626 35.9066 8.55 36.6752 8.5618 37.6351 L 8.5884 39.8695 C 8.5999 40.8286 7.8319 41.6162 6.8723 41.6275 L 4.6142 41.6548 Z "/>
  <path id="ID0.2625341503880918" stroke="#1A1A1A" stroke-width="0.8687034651467724" d="M 8.962 42.8578 C 7.9835 42.8952 7.1672 42.2999 7.1379 41.5289 L 6.9488 36.4717 C 6.9205 35.7007 7.6901 35.0463 8.6689 35.0097 L 19.4992 35.1637 C 20.4772 35.1275 21.2946 35.7232 21.3228 36.4938 L 21.4706 40.4347 C 21.4997 41.2053 20.7295 41.8605 19.7505 41.8967 L 8.962 42.8578 Z "/>
  <path id="ID0.8204577909782529" d="M 27.6976 74.3075 C 26.9275 74.3148 26.2973 73.6949 26.29 72.9237 L 26.2422 67.8631 C 26.2345 67.0921 26.8526 66.4608 27.6235 66.4531 L 36.1367 66.9314 C 36.9065 66.9242 37.5369 67.5436 37.5448 68.3149 L 37.5818 72.2581 C 37.589 73.0292 36.9709 73.6615 36.2002 73.6686 L 27.6976 74.3075 Z " stroke-width="0.4343517325733862"/>
  <path id="ID0.699897791724652" d="M 57.1815 57.527 C 56.7712 58.1783 55.9082 58.3725 55.2564 57.961 L 50.9758 55.2605 C 50.3231 54.8493 50.1283 53.987 50.5387 53.3357 L 55.5517 46.4381 C 55.9621 45.7868 56.8241 45.5925 57.4769 46.0041 L 60.8117 48.1084 C 61.4643 48.5196 61.6601 49.382 61.2488 50.0332 L 57.1815 57.527 Z " stroke-width="0.4343517325733862"/>
  <path id="ID0.15630904771387577" d="M 56.3323 48.9534 C 57.4836 49.2884 58.2429 50.1601 58.0274 50.9009 L 56.6146 55.7606 C 56.3995 56.5013 55.2909 56.8305 54.1388 56.4959 L 41.5748 52.2597 C 40.4228 51.9255 39.6634 51.0534 39.8789 50.3125 L 40.9806 46.5259 C 41.1956 45.7852 42.3042 45.456 43.4557 45.7914 L 56.3323 48.9534 Z " stroke-width="0.4343517325733862"/>
</svg>