<svg xmlns="http://www.w3.org/2000/svg" xmlns:xlink="http://www.w3.org/1999/xlink" version="1.1" width="38.66552655981103" height="31.375025918941883" viewBox="0.5895370588396047 0.525337015161321 38.66552655981103 31.375025918941883">
  <!-- Exported by Scratch - http://scratch.mit.edu/ -->
  <g id="ID0.07952108979225159">
    <path id="ID0.07179283257573843" fill="none" stroke="#000000" stroke-width="1.9375259189418843" d="M 30.0983 1.4941 L 1.5583 1.4941 L 1.5583 30.9316 L 30.0983 30.9316 L 30.0983 1.4941 Z "/>
    <path id="ID0.9966579801402986" fill="none" stroke="#000000" stroke-width="0.9906693543017209" stroke-linecap="round" d="M 15.6 1.9847 L 15.6 30.1466 "/>
    <path id="ID0.667331853415817" fill="none" stroke="#000000" stroke-width="0.9906693543017209" stroke-linecap="round" d="M 8.55 1.8375 L 8.55 30.4409 "/>
    <path id="ID0.663609794806689" fill="none" stroke="#000000" stroke-width="0.9906693543017209" stroke-linecap="round" d="M 23.2 1.5922 L 23.2 30.5391 "/>
  </g>
  <g id="ID0.6102310284040868">
    <g id="ID0.8564713546074927">
      <path id="ID0.5989846084266901" d="M 15.0477 29.4266 C 14.7663 29.4063 14.555 29.1605 14.576 28.8785 L 14.7135 27.0298 C 14.7338 26.7478 14.9796 26.5364 15.261 26.5575 L 18.3542 26.9923 C 18.635 27.0126 18.8463 27.2584 18.8259 27.5397 L 18.719 28.981 C 18.698 29.263 18.4529 29.4744 18.1715 29.454 L 15.0477 29.4266 Z " stroke-width="0.6366047859191895"/>
      <path id="ID0.7705372264608741" d="M 16.9893 26.9203 C 17.2172 27.2959 17.2071 27.7193 16.9651 27.8663 L 15.3813 28.8301 C 15.14 28.9778 14.7587 28.7926 14.5308 28.4176 L 12.1811 24.1645 C 11.9532 23.7889 11.9633 23.3655 12.2046 23.2191 L 13.439 22.4673 C 13.6803 22.3202 14.0616 22.5061 14.2895 22.8811 L 16.9893 26.9203 Z " stroke-width="0.6366047859191895"/>
    </g>
    <g id="ID0.15596213983371854">
      <path id="ID0.5848010759800673" d="M 10.5666 27.9822 C 10.4992 28.4163 10.2171 28.7334 9.9383 28.6894 L 8.1062 28.403 C 7.8273 28.3597 7.6554 27.972 7.7229 27.5378 L 8.6746 22.7741 C 8.7421 22.3393 9.0241 22.0229 9.3023 22.0668 L 10.7302 22.2903 C 11.0091 22.3336 11.181 22.7213 11.1135 23.1548 L 10.5666 27.9822 Z " stroke-width="0.6366047859191895"/>
      <path id="ID0.8454087860882282" d="M 7.961 29.4266 C 7.679 29.4063 7.4683 29.1605 7.4886 28.8785 L 7.6262 27.0298 C 7.6472 26.7478 7.8923 26.5364 8.1736 26.5575 L 11.2669 26.9923 C 11.5483 27.0126 11.7596 27.2584 11.7386 27.5397 L 11.6317 28.981 C 11.6113 29.263 11.3662 29.4744 11.0842 29.454 L 7.961 29.4266 Z " stroke-width="0.6366047859191895"/>
    </g>
    <g id="ID0.20980142103508115">
      <path id="ID0.15353494929149747" fill="#FBB03B" stroke="#000000" stroke-width="0.3183023929595947" d="M 22.5482 20.208 C 22.8302 20.4168 22.8907 20.8153 22.6825 21.0973 L 22.1955 21.7562 C 21.9867 22.0382 21.5882 22.098 21.3055 21.8905 L 20.6396 21.399 C 20.357 21.1902 20.2971 20.7917 20.5059 20.5091 L 20.9917 19.8502 C 21.2018 19.5682 21.5996 19.5077 21.8816 19.7165 L 22.5482 20.208 Z "/>
      <path id="ID0.7635790938511491" stroke="#1A1A1A" stroke-width="0.3183023929595947" d="M 21.5442 18.894 C 21.8384 19.0996 21.9453 19.4542 21.783 19.6853 L 20.7192 21.2049 C 20.5575 21.4366 20.1876 21.457 19.8942 21.252 L 16.764 18.8106 C 16.4699 18.6056 16.3636 18.2504 16.5253 18.0193 L 17.3541 16.8365 C 17.5158 16.6041 17.8863 16.5838 18.1798 16.7894 L 21.5442 18.894 Z "/>
    </g>
    <g id="ID0.7137223575264215">
      <path id="ID0.5612710667774081" fill="#FBB03B" stroke="#000000" stroke-width="0.31830854201627" d="M 14.1527 8.3192 L 21.4457 10.9883 L 19.2544 16.9757 L 11.9614 14.3065 L 14.1527 8.3192 Z "/>
      <path id="ID0.3885055026039481" fill="#78006D" stroke="#1A1A1A" stroke-width="0.3183023929595947" d="M 14.5199 13.1009 C 12.2931 12.286 16.4985 10.5583 18.0951 10.9384 L 21.697 11.9486 C 22.4406 9.4716 21.1336 6.8138 18.6725 5.913 L 17.8367 5.6074 C 15.2832 4.6729 12.4548 5.9856 11.5196 8.539 L 7.9521 18.2867 C 7.0176 20.8401 8.3309 23.6685 10.8837 24.6031 L 11.7189 24.9086 C 14.2736 25.8438 17.1014 24.5305 18.0366 21.9777 C 18.0366 21.9777 19.5816 18.1422 19.4517 17.6463 C 19.3231 17.151 20.4862 15.2845 20.4862 15.2845 L 14.5199 13.1009 Z "/>
    </g>
    <g id="ID0.20883694617077708">
      <path id="ID0.16792826633900404" d="M 20.0781 12.1957 C 20.1972 12.1957 20.3054 12.244 20.3831 12.3223 C 20.4614 12.4 20.5098 12.5082 20.5098 12.6273 C 20.5098 12.7463 20.4614 12.8545 20.3831 12.9322 C 20.3054 13.0105 20.1972 13.0589 20.0781 13.0589 C 19.9591 13.0589 19.8509 13.0105 19.7732 12.9322 C 19.6949 12.8545 19.6465 12.7463 19.6465 12.6273 C 19.6465 12.5082 19.6949 12.4 19.7732 12.3223 C 19.8509 12.244 19.9591 12.1957 20.0781 12.1957 Z " stroke-width="0.6366047859191895"/>
      <path id="ID0.08473029173910618" d="M 17.9856 12.0658 C 18.1047 12.0658 18.2129 12.1142 18.2906 12.1925 C 18.3689 12.2701 18.4172 12.3784 18.4172 12.4974 C 18.4172 12.6164 18.3689 12.7247 18.2906 12.8023 C 18.2129 12.8806 18.1047 12.929 17.9856 12.929 C 17.8666 12.929 17.7584 12.8806 17.6807 12.8023 C 17.6024 12.7247 17.554 12.6164 17.554 12.4974 C 17.554 12.3784 17.6024 12.2701 17.6807 12.1925 C 17.7584 12.1142 17.8666 12.0658 17.9856 12.0658 Z " stroke-width="0.6366047859191895"/>
    </g>
    <path id="ID0.9075090778060257" fill="none" stroke="#000000" d="M 11.0428 10.3374 C 11.0428 10.3374 9.7117 9.8472 8.3582 10.3374 C 7.164 10.769 6.3447 11.2 6.3447 11.2 " stroke-width="0.6366047859191895"/>
    <path id="ID0.35206371266394854" fill="none" stroke="#000000" d="M 10.8079 10.2667 C 10.8079 10.2667 10.4355 9.0877 9.056 9.4321 C 7.8241 9.7403 7.6147 9.2412 7.6147 9.2412 " stroke-width="0.6366047859191895"/>
    <path id="ID0.5940494854003191" fill="none" stroke="#000000" stroke-width="0.9549071788787842" d="M 3.0528 21.639 L 36.5541 20.4639 "/>
    <g id="ID0.7118512513116002">
      <path id="ID0.7296573664061725" fill="#FBB03B" stroke="#000000" stroke-width="0.3183023929595947" d="M 8.0794 22.1814 C 7.8738 22.466 7.4759 22.5303 7.1907 22.3253 L 6.5274 21.8453 C 6.2409 21.6397 6.1772 21.2418 6.3835 20.9566 L 6.868 20.2856 C 7.0736 20.0011 7.4715 19.9355 7.7573 20.1424 L 8.42 20.6218 C 8.7046 20.8274 8.7695 21.2246 8.5632 21.5105 L 8.0794 22.1814 Z "/>
      <path id="ID0.7869536513462663" stroke="#1A1A1A" stroke-width="0.3183023929595947" d="M 9.3813 21.1641 C 9.1795 21.4608 8.8255 21.5709 8.5925 21.4118 L 7.0628 20.3639 C 6.8298 20.2035 6.8043 19.8343 7.0067 19.5382 L 9.415 16.3839 C 9.6175 16.0872 9.9708 15.9771 10.2038 16.1369 L 11.3968 16.953 C 11.6291 17.1128 11.6546 17.482 11.4515 17.7774 L 9.3813 21.1641 Z "/>
    </g>
    <path id="ID0.6533192885108292" fill="#E6E6E6" stroke="#000000" d="M 38.2863 20.3404 L 34.946 22.1649 L 34.8213 18.7629 L 38.2863 20.3404 " stroke-width="0.6366047859191895"/>
  </g>
</svg>