<svg xmlns="http://www.w3.org/2000/svg" xmlns:xlink="http://www.w3.org/1999/xlink" version="1.1" width="56.84600067138672" height="41.22993087768555" viewBox="-0.625 0.18682372570037842 56.84600067138672 41.22993087768555">
  <!-- Exported by Scratch - http://scratch.mit.edu/ -->
  <g id="ID0.8564713546074927">
    <path id="ID0.5989846084266901" d="M 20.4176 39.8732 C 19.9853 39.7757 19.7145 39.3446 19.8132 38.9114 L 20.4594 36.072 C 20.5571 35.6388 20.9882 35.368 21.4204 35.4665 L 26.1234 36.8658 C 26.5547 36.9632 26.8255 37.3943 26.728 37.8266 L 26.2245 40.0403 C 26.1259 40.4734 25.6957 40.7444 25.2634 40.6469 L 20.4176 39.8732 Z " stroke-width="1.0000000310172674"/>
    <path id="ID0.7705372264608741" d="M 24.0202 36.4346 C 24.2863 37.0714 24.1713 37.7266 23.7612 37.8984 L 21.0754 39.0248 C 20.666 39.1977 20.1171 38.8207 19.8508 38.185 L 17.1965 31.0286 C 16.9304 30.3918 17.0453 29.7366 17.4543 29.5657 L 19.5476 28.6868 C 19.9568 28.5148 20.5056 28.8928 20.7719 29.5286 L 24.0202 36.4346 Z " stroke-width="1.0000000310172674"/>
  </g>
  <g id="ID0.15596213983371854">
    <path id="ID0.5848010759800673" d="M 10.6955 37.9192 C 10.4885 38.5776 9.9759 39.0036 9.5532 38.8698 L 6.7751 37.9937 C 6.3522 37.8608 6.1765 37.2183 6.3835 36.5598 L 8.9827 29.3853 C 9.1898 28.7259 9.7023 28.3008 10.124 28.4345 L 12.2891 29.1176 C 12.712 29.2505 12.8877 29.893 12.6809 30.5505 L 10.6955 37.9192 Z " stroke-width="0.9999999775732377"/>
    <path id="ID0.8454087860882282" d="M 6.3088 39.5494 C 5.8755 39.4514 5.6061 39.0201 5.7041 38.5869 L 6.3527 35.7481 C 6.4517 35.315 6.8821 35.0444 7.3142 35.1433 L 12.016 36.5465 C 12.4483 36.6444 12.7187 37.0758 12.6198 37.5078 L 12.1145 39.7211 C 12.0165 40.1543 11.5861 40.4249 11.1529 40.3269 L 6.3088 39.5494 Z " stroke-width="0.9999999775732377"/>
  </g>
  <g id="ID0.20980142103508115">
    <path id="ID0.15353494929149747" fill="#FBB03B" stroke="#000000" stroke-width="0.4999999897911999" d="M 31.4836 21.3907 C 31.9801 21.6301 32.1905 22.2273 31.9521 22.7236 L 31.394 23.8834 C 31.1546 24.3799 30.5573 24.5893 30.0601 24.352 L 28.8883 23.7892 C 28.3908 23.55 28.1814 22.9526 28.4206 22.4551 L 28.9767 21.2957 C 29.218 20.7988 29.8143 20.5886 30.3108 20.828 L 31.4836 21.3907 Z "/>
    <path id="ID0.7635790938511491" stroke="#1A1A1A" stroke-width="0.4999999897911999" d="M 29.5486 19.6579 C 30.0628 19.8888 30.332 20.4046 30.1493 20.8089 L 28.954 23.4662 C 28.7726 23.8713 28.2078 24.0113 27.6947 23.7812 L 22.1475 20.933 C 21.6334 20.703 21.365 20.1861 21.5467 19.782 L 22.4784 17.7133 C 22.6597 17.3073 23.2255 17.1671 23.7387 17.3982 L 29.5486 19.6579 Z "/>
  </g>
  <g id="ID0.7137223575264215">
    <path id="ID0.5612710667774081" fill="#FBB03B" stroke="#000000" stroke-width="0.500009636198767" d="M 17.5851 5.5885 L 29.0411 9.7813 L 25.599 19.1864 L 14.1429 14.9936 L 17.5851 5.5885 Z "/>
    <path id="ID0.3885055026039481" fill="#78006D" stroke="#1A1A1A" stroke-width="0.5" d="M 18.138 13.181 C 14.64 11.901 21.246 9.187 23.754 9.784 L 29.412 11.371 C 30.58 7.48 28.527 3.305 24.661 1.89 L 23.348 1.41 C 19.337 -0.058 14.894 2.004 13.425 6.015 L 7.821 21.327 C 6.353 25.338 8.416 29.781 12.426 31.249 L 13.738 31.729 C 17.751 33.198 22.193 31.135 23.662 27.125 C 23.662 27.125 26.089 21.1 25.885 20.321 C 25.683 19.543 27.51 16.611 27.51 16.611 L 18.138 13.181 Z "/>
  </g>
  <g id="ID0.20883694617077708">
    <path id="ID0.16792826633900404" d="M 26.469 13.309 C 26.656 13.309 26.826 13.385 26.948 13.508 C 27.071 13.63 27.147 13.8 27.147 13.987 C 27.147 14.174 27.071 14.344 26.948 14.466 C 26.826 14.589 26.656 14.665 26.469 14.665 C 26.282 14.665 26.112 14.589 25.99 14.466 C 25.867 14.344 25.791 14.174 25.791 13.987 C 25.791 13.8 25.867 13.63 25.99 13.508 C 26.112 13.385 26.282 13.309 26.469 13.309 Z " stroke-width="1"/>
    <path id="ID0.08473029173910618" d="M 23.182 13.105 C 23.369 13.105 23.539 13.181 23.661 13.304 C 23.784 13.426 23.86 13.596 23.86 13.783 C 23.86 13.97 23.784 14.14 23.661 14.262 C 23.539 14.385 23.369 14.461 23.182 14.461 C 22.995 14.461 22.825 14.385 22.703 14.262 C 22.58 14.14 22.504 13.97 22.504 13.783 C 22.504 13.596 22.58 13.426 22.703 13.304 C 22.825 13.181 22.995 13.105 23.182 13.105 Z " stroke-width="1"/>
  </g>
  <path id="ID0.9075090778060257" fill="none" stroke="#000000" d="M 12.6491 9.1758 C 12.6491 9.1758 11.2861 7.413 9.0757 6.9366 C 7.126 6.515 5.676 6.4053 5.676 6.4053 " stroke-width="0.9999999819529143"/>
  <path id="ID0.35206371266394854" fill="none" stroke="#000000" d="M 12.3953 8.8858 C 12.3953 8.8858 12.883 7.0058 10.7595 6.3136 C 8.8628 5.6963 9.0003 4.8572 9.0003 4.8572 " stroke-width="0.9999999819529143"/>
  <path id="ID0.5940494854003191" fill="none" stroke="#000000" stroke-width="1.5" d="M 0.125 23.693 L 52.75 21.847 "/>
  <g id="ID0.7118512513116002">
    <path id="ID0.7296573664061725" fill="#FBB03B" stroke="#000000" stroke-width="0.49999999690615504" d="M 6.7752 24.8424 C 6.3366 25.1767 5.7092 25.0924 5.3736 24.6545 L 4.5946 23.631 C 4.2574 23.1916 4.3427 22.5644 4.7825 22.2294 L 5.8162 21.441 C 6.2548 21.1066 6.8828 21.189 7.2184 21.6301 L 7.9968 22.6523 C 8.3311 23.0909 8.248 23.7177 7.8079 24.0537 L 6.7752 24.8424 Z "/>
    <path id="ID0.7869536513462663" stroke="#1A1A1A" stroke-width="0.49999999690615504" d="M 9.1954 23.9051 C 8.757 24.2593 8.1747 24.2639 7.8968 23.9186 L 6.0734 21.6473 C 5.7961 21.3001 5.9258 20.7334 6.3648 20.3804 L 11.4206 16.7332 C 11.8599 16.3792 12.4412 16.3744 12.7189 16.7206 L 14.1413 18.4904 C 14.418 18.8363 14.2883 19.403 13.8486 19.7548 L 9.1954 23.9051 Z "/>
  </g>
  <path id="ID0.6533192885108292" fill="#E6E6E6" stroke="#000000" d="M 55.471 21.653 L 50.224 24.519 L 50.028 19.175 L 55.471 21.653 " stroke-width="1"/>
</svg>