<svg xmlns="http://www.w3.org/2000/svg" xmlns:xlink="http://www.w3.org/1999/xlink" version="1.1" width="30.477524927120594" height="31.375025918941883" viewBox="0.7895371065233205 0.6253370390031789 30.477524927120594 31.375025918941883">
  <!-- Exported by Scratch - http://scratch.mit.edu/ -->
  <path id="ID0.255261589307338" d="M 19.7081 27.2947 C 19.7874 27.6747 19.6535 28.0243 19.4092 28.0753 L 17.8054 28.4101 C 17.5612 28.4611 17.2985 28.1944 17.2191 27.8144 L 16.5197 23.5792 C 16.4402 23.1992 16.5742 22.8498 16.8186 22.7987 L 18.0682 22.5379 C 18.3126 22.4869 18.5751 22.7536 18.6545 23.1336 L 19.7081 27.2947 Z " stroke-width="0.1406080573797226"/>
  <path id="ID0.03648320911452174" d="M 15.1151 27.5639 C 15.0552 27.9475 14.8065 28.2273 14.5599 28.1888 L 12.9412 27.936 C 12.6944 27.8974 12.543 27.5552 12.6029 27.1715 L 13.4436 22.9622 C 13.5035 22.5787 13.7522 22.2989 13.9988 22.3375 L 15.2602 22.5345 C 15.5069 22.573 15.6584 22.9153 15.5984 23.299 L 15.1151 27.5639 Z " stroke-width="0.1406080573797226"/>
  <path id="ID0.9573684432543814" fill="#FBB03B" stroke="#000000" stroke-width="0.2812161147594452" d="M 22.1351 21.9473 C 22.253 22.2346 22.1156 22.5632 21.8283 22.6812 L 21.159 22.9558 C 20.8718 23.0737 20.543 22.9364 20.4251 22.649 L 20.1475 21.9726 C 20.0295 21.6854 20.167 21.3568 20.4543 21.2388 L 21.1236 20.9642 C 21.4109 20.8464 21.7395 20.9836 21.8574 21.271 L 22.1351 21.9473 Z "/>
  <path id="ID0.41889808466657996" stroke="#1A1A1A" stroke-width="0.2812161147594452" d="M 21.9785 20.4954 C 22.1063 20.7855 22.0246 21.1023 21.7961 21.203 L 20.2967 21.8631 C 20.0681 21.9636 19.7792 21.81 19.6514 21.5199 L 18.4061 18.2423 C 18.2784 17.9522 18.3602 17.6353 18.5887 17.5348 L 19.7572 17.0203 C 19.9857 16.9198 20.2746 17.0732 20.4024 17.3635 L 21.9785 20.4954 Z "/>
  <path id="ID0.13261056737974286" fill="#FBB03B" stroke="#000000" stroke-width="0.2812161147594452" d="M 13.96 10.6941 L 20.821 10.6941 L 20.821 16.3268 L 13.96 16.3268 L 13.96 10.6941 Z "/>
  <path id="ID0.6617734562605619" fill="#009933" stroke="#1A1A1A" stroke-width="0.2812161147594452" d="M 15.7161 14.6159 C 13.6213 14.6159 16.586 11.9054 18.026 11.736 L 21.321 11.4805 C 21.186 9.1992 19.2941 7.3906 16.9789 7.3906 L 16.1928 7.3906 C 13.79 7.3906 11.8425 9.3383 11.8425 11.741 L 11.8425 20.9127 C 11.8425 23.3155 13.7902 25.2632 16.1928 25.2632 L 16.9789 25.2632 C 19.3816 25.2632 21.3293 23.3155 21.3293 20.9127 C 21.3293 20.9127 21.4462 17.2612 21.1887 16.8894 C 20.9311 16.5175 21.3293 14.616 21.3293 14.616 L 15.7161 14.616 Z "/>
  <path id="ID0.7134617334231734" d="M 20.0418 13.4029 C 20.1469 13.4029 20.2423 13.4456 20.3112 13.5147 C 20.3802 13.5835 20.4229 13.6789 20.4229 13.7841 C 20.4229 13.8892 20.3802 13.9846 20.3112 14.0535 C 20.2423 14.1225 20.1469 14.1652 20.0418 14.1652 C 19.9366 14.1652 19.8413 14.1225 19.7724 14.0535 C 19.7033 13.9846 19.6606 13.8892 19.6606 13.7841 C 19.6606 13.6789 19.7033 13.5835 19.7724 13.5147 C 19.8413 13.4456 19.9366 13.4029 20.0418 13.4029 Z " stroke-width="0.1406080573797226"/>
  <path id="ID0.6494691404514015" d="M 18.0732 13.4029 C 18.1784 13.4029 18.2738 13.4456 18.3427 13.5147 C 18.4117 13.5835 18.4544 13.6789 18.4544 13.7841 C 18.4544 13.8892 18.4117 13.9846 18.3427 14.0535 C 18.2738 14.1225 18.1784 14.1652 18.0732 14.1652 C 17.9681 14.1652 17.8727 14.1225 17.8038 14.0535 C 17.7348 13.9846 17.6921 13.8892 17.6921 13.7841 C 17.6921 13.6789 17.7348 13.5835 17.8038 13.5147 C 17.8727 13.4456 17.9681 13.4029 18.0732 13.4029 Z " stroke-width="0.1406080573797226"/>
  <path id="ID0.3106537782587111" fill="none" stroke="#000000" stroke-width="0.2812161147594452" d="M 12.2659 12.8404 C 12.2659 12.8404 11.0902 12.4083 9.8942 12.8404 C 8.8391 13.2216 8.1155 13.6028 8.1155 13.6028 "/>
  <path id="ID0.4428880806080997" fill="none" stroke="#000000" stroke-width="0.2812161147594452" d="M 12.0583 12.7783 C 12.0583 12.7783 11.7296 11.7367 10.5111 12.0414 C 9.4228 12.3134 9.2373 11.8725 9.2373 11.8725 "/>
  <path id="ID0.08818722935393453" fill="#FBB03B" stroke="#000000" stroke-width="0.2812161147594452" d="M 12.2788 22.5375 C 12.1469 22.8187 11.8122 22.94 11.531 22.8084 L 10.8758 22.5016 C 10.5946 22.37 10.4732 22.0351 10.605 21.7539 L 10.9147 21.0919 C 11.0466 20.8107 11.3813 20.6893 11.6626 20.8209 L 12.3177 21.1277 C 12.599 21.2593 12.7203 21.5941 12.5885 21.8755 L 12.2788 22.5375 Z "/>
  <path id="ID0.8803494698368013" stroke="#1A1A1A" stroke-width="0.2812161147594452" d="M 13.2415 21.4395 C 13.1146 21.73 12.826 21.8842 12.5973 21.7841 L 11.0963 21.1273 C 10.8676 21.0272 10.7851 20.7105 10.9122 20.4201 L 12.482 17.2848 C 12.6089 16.9944 12.8976 16.84 13.1264 16.9403 L 14.2958 17.4521 C 14.5244 17.5522 14.6071 17.8687 14.4799 18.1594 L 13.2415 21.4395 Z "/>
  <path id="ID0.5842904108576477" d="M 12.8128 28.8406 C 12.5641 28.8222 12.3775 28.6053 12.3961 28.3563 L 12.5171 26.7224 C 12.5355 26.4734 12.7522 26.2865 13.0008 26.3049 L 15.7341 26.6891 C 15.9828 26.7075 16.1694 26.9243 16.1509 27.1733 L 16.0564 28.4464 C 16.0379 28.6954 15.8214 28.8825 15.5728 28.864 L 12.8128 28.8406 Z " stroke-width="0.1406080573797226"/>
  <path id="ID0.01732994895428419" d="M 17.3868 28.8406 C 17.1379 28.8222 16.9515 28.6053 16.9699 28.3563 L 17.0911 26.7224 C 17.1095 26.4734 17.3261 26.2865 17.5748 26.3049 L 20.3081 26.6891 C 20.5567 26.7075 20.7434 26.9243 20.7248 27.1733 L 20.6303 28.4464 C 20.6118 28.6954 20.3954 28.8825 20.1467 28.864 L 17.3868 28.8406 Z " stroke-width="0.1406080573797226"/>
  <g id="ID0.9084981335327029">
    <path id="ID0.07179283257573843" fill="none" stroke="#000000" stroke-width="1.9375259189418843" d="M 30.2983 1.5941 L 1.7583 1.5941 L 1.7583 31.0316 L 30.2983 31.0316 L 30.2983 1.5941 Z "/>
    <path id="ID0.9966579801402986" fill="none" stroke="#000000" stroke-width="0.9906693543017209" stroke-linecap="round" d="M 15.8 2.0847 L 15.8 30.2466 "/>
    <path id="ID0.667331853415817" fill="none" stroke="#000000" stroke-width="0.9906693543017209" stroke-linecap="round" d="M 8.75 1.9375 L 8.75 30.5409 "/>
    <path id="ID0.663609794806689" fill="none" stroke="#000000" stroke-width="0.9906693543017209" stroke-linecap="round" d="M 23.4 1.6922 L 23.4 30.6391 "/>
  </g>
</svg>