<svg xmlns="http://www.w3.org/2000/svg" xmlns:xlink="http://www.w3.org/1999/xlink" version="1.1" width="90.33650207519531" height="70.5680160522461" viewBox="1.5475835800170898 0.3751000165939331 90.33650207519531 70.5680160522461">
  <!-- Exported by Scratch - http://scratch.mit.edu/ -->
  <g id="ID0.5013905088417232">
    <path id="ID0.07008709199726582" fill="#FBB03B" stroke="#000000" stroke-width="0.8687034845352173" d="M 89.0473 24.4877 C 89.9951 24.3426 90.8816 24.9946 91.0267 25.9428 L 91.3641 28.1519 C 91.5083 29.1001 90.8568 29.987 89.9082 30.1321 L 87.6761 30.4726 C 86.7274 30.6177 85.8409 29.9662 85.6959 29.0176 L 85.3592 26.8084 C 85.2142 25.8598 85.8657 24.9742 86.8143 24.8287 L 89.0473 24.4877 Z "/>
    <path id="ID0.6664769016206264" stroke="#1A1A1A" stroke-width="0.8687034845352173" d="M 84.5739 23.9005 C 85.5377 23.7276 86.429 24.2036 86.5659 24.9629 L 87.4558 29.9449 C 87.5918 30.7041 86.9199 31.4595 85.956 31.6315 L 75.2093 32.9841 C 74.2455 33.1561 73.3542 32.6796 73.2191 31.9208 L 72.5241 28.0385 C 72.3891 27.2797 73.0601 26.5239 74.0248 26.3515 L 84.5739 23.9005 Z "/>
  </g>
  <path id="ID0.4510075245052576" fill="none" stroke="#000000" stroke-width="0.850288450717926" d="M 59.2507 15.0741 C 59.2507 15.0741 58.4616 11.3703 55.429 9.0065 C 52.7536 6.9215 50.613 5.684 50.613 5.684 "/>
  <path id="ID0.3390679736621678" fill="none" stroke="#000000" stroke-width="0.850288450717926" d="M 59.0755 14.4432 C 59.0755 14.4432 61.2101 11.9234 58.4675 9.2968 C 56.0174 6.9509 56.8469 5.7664 56.8469 5.7664 "/>
  <path id="ID0.5979244690388441" fill="#FBB03B" stroke="#000000" stroke-width="0.850288450717926" d="M 65.678 10.8635 L 86.4229 10.8635 L 86.4229 27.8948 L 65.678 27.8948 L 65.678 10.8635 Z "/>
  <path id="ID0.897375762462616" stroke="#1A1A1A" stroke-width="0.850288450717926" d="M 70.9868 22.7216 C 64.6534 22.7216 73.6171 14.5261 77.971 14.0138 L 87.9343 13.2413 C 87.5261 6.3438 81.8054 0.8751 74.805 0.8751 L 72.4284 0.8751 C 65.164 0.8751 59.2749 6.7642 59.2749 14.0291 L 59.2749 41.7608 C 59.2749 49.0257 65.164 54.9148 72.4284 54.9148 L 74.805 54.9148 C 82.0698 54.9148 87.9589 49.0257 87.9589 41.7608 C 87.9589 41.7608 88.3122 30.7198 87.5338 29.5958 C 86.7554 28.4717 87.9589 22.722 87.9589 22.722 L 70.9868 22.722 Z "/>
  <path id="ID0.5605953140184283" d="M 84.0663 19.0539 C 84.3843 19.0539 84.6726 19.1831 84.8809 19.3919 C 85.0896 19.6002 85.2189 19.8884 85.2189 20.2065 C 85.2189 20.5245 85.0896 20.8127 84.8809 21.021 C 84.6726 21.2298 84.3843 21.359 84.0663 21.359 C 83.7483 21.359 83.4601 21.2298 83.2517 21.021 C 83.043 20.8127 82.9138 20.5245 82.9138 20.2065 C 82.9138 19.8884 83.043 19.6002 83.2517 19.3919 C 83.4601 19.1831 83.7483 19.0539 84.0663 19.0539 Z " stroke-width="0.425144225358963"/>
  <path id="ID0.4209855739027262" d="M 78.1143 19.0539 C 78.4323 19.0539 78.7206 19.1831 78.9289 19.3919 C 79.1376 19.6002 79.2669 19.8884 79.2669 20.2065 C 79.2669 20.5245 79.1376 20.8127 78.9289 21.021 C 78.7206 21.2298 78.4323 21.359 78.1143 21.359 C 77.7963 21.359 77.508 21.2298 77.2997 21.021 C 77.091 20.8127 76.9617 20.5245 76.9617 20.2065 C 76.9617 19.8884 77.091 19.6002 77.2997 19.3919 C 77.508 19.1831 77.7963 19.0539 78.1143 19.0539 Z " stroke-width="0.425144225358963"/>
  <path id="ID0.4123799833469093" d="M 68.2582 64.4899 C 67.9967 65.6344 67.1864 66.4256 66.4509 66.2568 L 61.6225 65.1506 C 60.887 64.9822 60.5027 63.9172 60.7646 62.7732 L 64.193 50.2561 C 64.4548 49.1116 65.2647 48.3204 65.9998 48.4892 L 69.7623 49.3509 C 70.4983 49.5193 70.883 50.5839 70.6211 51.7283 L 68.2582 64.4899 Z " stroke-width="0.425144225358963"/>
  <path id="ID0.37224112963303924" d="M 60.5146 65.7445 C 59.9041 65.3028 59.7676 64.4478 60.2106 63.8365 L 63.1156 59.8239 C 63.5578 59.2122 64.4119 59.0748 65.0228 59.5166 L 71.4476 64.8423 C 72.059 65.2845 72.195 66.1386 71.7524 66.7504 L 69.4898 69.8769 C 69.0468 70.4883 68.1919 70.6264 67.5814 70.1839 L 60.5146 65.7445 Z " stroke-width="0.425144225358963"/>
  <path id="ID0.24771741591393948" d="M 79.4025 62.3927 C 78.7546 62.0066 78.5433 61.1678 78.931 60.5199 L 81.4678 56.2651 C 81.8551 55.6167 82.6935 55.4046 83.341 55.7906 L 90.2131 60.5267 C 90.8597 60.9127 91.0714 61.7515 90.6845 62.4003 L 88.7068 65.7143 C 88.3203 66.3635 87.4819 66.5765 86.8344 66.1901 L 79.4025 62.3927 Z " stroke-width="0.425144225358963"/>
  <path id="ID0.2892227452248335" d="M 86.4174 59.2815 C 86.4476 60.4544 85.86 61.4221 85.1062 61.442 L 80.1541 61.5692 C 79.3995 61.5887 78.7631 60.653 78.7325 59.4796 L 78.945 46.5029 C 78.9148 45.3295 79.502 44.3619 80.2566 44.3423 L 84.1156 44.2428 C 84.8698 44.2237 85.5063 45.159 85.5369 46.3328 L 86.4174 59.2815 Z " stroke-width="0.425144225358963"/>
  <path id="ID0.8436069656163454" fill="#FFF05D" stroke="#000000" stroke-width="0.9937884933123857" d="M 86.9369 28.2495 C 87.9551 32.3052 85.1695 30.3965 80.9428 31.7954 L 55.0741 38.6106 L 13.7333 54.5343 C 8.7587 56.6829 3.6281 54.5673 2.3191 49.3084 C 1.0085 44.0474 4.5864 40.1172 9.9526 39.3429 L 54.1136 34.7503 L 80.1567 28.7202 C 84.3328 27.9063 86.1539 25.111 86.9369 28.2495 Z "/>
  <g id="ID0.9612655355595052">
    <path id="ID0.2625341503880918" stroke="#1A1A1A" stroke-width="0.8687034468940721" d="M 55.704 39.127 C 54.9813 39.7877 53.9736 39.8607 53.4531 39.2911 L 50.0414 35.5533 C 49.5217 34.9831 49.6863 33.9864 50.4098 33.3261 L 58.7757 26.4464 C 59.4988 25.7869 60.5077 25.7135 61.027 26.2834 L 63.6859 29.1959 C 64.2061 29.7653 64.0415 30.763 63.3176 31.4231 L 55.704 39.127 Z "/>
    <path id="ID0.49555545253679156" fill="#FBB03B" stroke="#000000" stroke-width="0.8687034468940721" d="M 51.5582 41.0177 C 50.8336 41.6462 49.7361 41.5682 49.1076 40.8437 L 47.6434 39.1551 C 47.0149 38.4306 47.0923 37.3332 47.817 36.7044 L 49.5229 35.2246 C 50.2475 34.5962 51.3451 34.6742 51.9743 35.3991 L 53.4381 37.0875 C 54.0666 37.812 53.9892 38.9094 53.2641 39.538 L 51.5582 41.0177 Z "/>
  </g>
</svg>