<svg xmlns="http://www.w3.org/2000/svg" xmlns:xlink="http://www.w3.org/1999/xlink" version="1.1" width="39.29294967651367" height="19.25199317932129" viewBox="-0.4323135018348694 0.3818000555038452 39.29294967651367 19.25199317932129">
  <!-- Exported by Scratch - http://scratch.mit.edu/ -->
  <path id="ID0.255261589307338" d="M 35.0512 7.4126 C 35.7169 7.3978 36.2645 7.7329 36.2741 8.161 L 36.3368 10.9703 C 36.3465 11.3982 35.8145 11.7576 35.1487 11.7727 L 27.7878 11.6268 C 27.122 11.6419 26.5747 11.3065 26.5651 10.8784 L 26.5163 8.6896 C 26.5067 8.2615 27.0386 7.9022 27.7044 7.8872 L 35.0512 7.4126 Z " stroke-width="0.24116709775791606"/>
  <path id="ID0.03648320911452174" d="M 35.1428 12.3749 C 35.7993 12.486 36.2738 12.9187 36.2024 13.3408 L 35.7336 16.1114 C 35.6621 16.5338 35.0719 16.786 34.4151 16.675 L 27.2144 15.1416 C 26.5578 15.0305 26.0833 14.5978 26.155 14.1757 L 26.5203 12.0167 C 26.5918 11.5945 27.182 11.342 27.8388 11.4533 L 35.1428 12.3749 Z " stroke-width="0.24116709129633693"/>
  <path id="ID0.13261056737974286" fill="#FBB03B" stroke="#000000" stroke-width="0.48233418259267385" d="M 6.1852 13.989 L 6.3345 2.2222 L 15.9948 2.3447 L 15.8456 14.1115 L 6.1852 13.989 Z "/>
  <path id="ID0.6617734562605619" fill="#006622" stroke="#1A1A1A" stroke-width="0.48233418259267385" d="M 12.9495 11.0626 C 12.9039 14.6552 8.3198 9.5117 8.0606 7.0384 L 7.6941 1.3818 C 3.7788 1.5637 0.6357 4.769 0.5854 8.7397 L 0.5683 10.088 C 0.516 14.2087 3.814 17.5912 7.9348 17.6435 L 23.6646 17.843 C 27.7853 17.8952 31.168 14.5972 31.2203 10.4767 L 31.2374 9.1285 C 31.2897 5.0077 27.9917 1.625 23.8709 1.5727 C 23.8709 1.5727 17.6109 1.2929 16.9677 1.7263 C 16.3242 2.16 13.0719 1.4358 13.0719 1.4358 L 12.9498 11.0626 Z "/>
  <path id="ID0.7134617334231734" d="M 11.4077 3.5249 C 11.41 3.3445 11.4346 3.1813 11.4726 3.0636 C 11.5104 2.9457 11.5617 2.873 11.6172 2.8737 C 11.6727 2.8744 11.7221 2.9483 11.7569 3.0672 C 11.7918 3.1858 11.8123 3.3496 11.81 3.53 C 11.8077 3.7104 11.7831 3.8736 11.7452 3.9913 C 11.7073 4.1092 11.6561 4.1819 11.6006 4.1812 C 11.5451 4.1805 11.4957 4.1066 11.4609 3.9877 C 11.4259 3.8691 11.4054 3.7053 11.4077 3.5249 Z " stroke-width="0.17842083122028474"/>
  <path id="ID0.6494691404514015" d="M 11.2708 6.9061 C 11.2731 6.7257 11.3005 6.5626 11.343 6.4449 C 11.3854 6.327 11.4429 6.2544 11.5054 6.2552 C 11.5678 6.256 11.6235 6.3301 11.6629 6.449 C 11.7024 6.5677 11.7257 6.7315 11.7234 6.9119 C 11.7211 7.0922 11.6936 7.2554 11.6511 7.3731 C 11.6087 7.4909 11.5512 7.5635 11.4888 7.5627 C 11.4263 7.5619 11.3707 7.4879 11.3313 7.369 C 11.2918 7.2503 11.2685 7.0865 11.2708 6.9061 Z " stroke-width="0.1804586233576685"/>
  <path id="ID0.08818722935393453" fill="#FBB03B" stroke="#000000" stroke-width="0.48233418594417926" d="M 7.2632 18.577 C 6.7616 18.7566 6.2094 18.4961 6.0296 17.9949 L 5.6107 16.8268 C 5.4308 16.3255 5.6916 15.773 6.193 15.5933 L 7.3729 15.1698 C 7.8745 14.9903 8.4267 15.2507 8.6067 15.7522 L 9.0254 16.9201 C 9.2053 17.4213 8.9447 17.9737 8.4431 18.1536 L 7.2632 18.577 Z "/>
  <path id="ID0.8803494698368013" stroke="#1A1A1A" stroke-width="0.48233418594417926" d="M 9.763 18.4209 C 9.2561 18.6176 8.7196 18.4531 8.5648 18.0537 L 7.5492 15.4335 C 7.3946 15.0343 7.6801 14.5511 8.1872 14.3545 L 13.8995 12.4739 C 14.4062 12.2773 14.9431 12.4419 15.0977 12.8414 L 15.8888 14.8829 C 16.0434 15.2821 15.7583 15.7654 15.2508 15.9619 L 9.763 18.4209 Z "/>
  <path id="ID0.5842904108576477" d="M 37.2823 16.3512 C 37.2453 16.7774 36.8692 17.0927 36.4425 17.0555 L 33.643 16.8123 C 33.2163 16.7753 32.9005 16.3996 32.9375 15.9737 L 33.6558 11.2944 C 33.6928 10.8682 34.0687 10.5529 34.4954 10.5901 L 36.6767 10.7799 C 37.1034 10.8169 37.4196 11.1923 37.3824 11.6183 L 37.2823 16.3512 Z " stroke-width="0.24116709129633693"/>
  <path id="ID0.01732994895428419" d="M 36.9319 11.811 C 36.823 12.2249 36.3987 12.4714 35.9846 12.3624 L 33.2672 11.6468 C 32.853 11.5378 32.6056 11.1141 32.7145 10.7004 L 34.2177 6.2113 C 34.3265 5.7978 34.7506 5.5508 35.1647 5.66 L 37.282 6.2177 C 37.6962 6.3269 37.944 6.7504 37.8349 7.1641 L 36.9319 11.811 Z " stroke-width="0.24116709775791606"/>
  <path id="ID0.5478228288702667" fill="none" stroke="#000000" stroke-width="2" stroke-linecap="round" d="M 22.25 1.8 L 22.4 17.4 "/>
</svg>