<svg xmlns="http://www.w3.org/2000/svg" xmlns:xlink="http://www.w3.org/1999/xlink" version="1.1" width="33.3265266418457" height="30.87346649169922" viewBox="2.956897020339966 2.9845051765441895 33.3265266418457 30.87346649169922">
  <!-- Exported by Scratch - http://scratch.mit.edu/ -->
  <path id="ID0.255261589307338" d="M 33.0416 24.8002 C 33.7008 24.7063 34.2844 24.9739 34.3449 25.3978 L 34.7415 28.1797 C 34.802 28.6033 34.3166 29.0236 33.6573 29.1178 L 26.3314 29.849 C 25.6721 29.9432 25.0888 29.6754 25.0283 29.2515 L 24.7193 27.084 C 24.6588 26.6601 25.1443 26.2401 25.8035 26.1459 L 33.0416 24.8002 Z " stroke-width="0.2411670989423942"/>
  <path id="ID0.03648320911452174" d="M 28.3786 28.665 C 29.0436 28.631 29.6006 28.9505 29.6224 29.3781 L 29.7656 32.1844 C 29.7874 32.6123 29.2659 32.9865 28.6007 33.0205 L 21.2388 33.085 C 20.5738 33.1189 20.0168 32.7994 19.9952 32.3718 L 19.8836 30.1849 C 19.8618 29.7573 20.3833 29.3828 21.0486 29.3491 L 28.3786 28.665 Z " stroke-width="0.24116708632554712"/>
  <path id="ID0.13261056737974286" fill="#FBB03B" stroke="#000000" stroke-width="0.4823341943824178" d="M 6.7239 12.2054 L 16.6594 5.8995 L 21.8366 14.0564 L 11.901 20.3624 L 6.7239 12.2054 Z "/>
  <path id="ID0.6617734562605619" fill="#009933" stroke="#1A1A1A" stroke-width="0.4823341943824178" d="M 12.8715 16.2707 C 9.838 18.1961 11.64 11.546 13.5695 9.9772 L 18.1063 6.5787 C 15.8141 3.3993 11.4121 2.519 8.0594 4.647 L 6.9209 5.3695 C 3.4415 7.5779 2.4114 12.1884 4.6197 15.6678 L 13.0495 28.9496 C 15.2579 32.429 19.8685 33.4594 23.3478 31.2512 L 24.4862 30.5286 C 27.9656 28.3203 28.996 23.7096 26.7876 20.2302 C 26.7876 20.2302 23.6006 14.8348 22.8861 14.5331 C 22.1712 14.2313 21.0002 11.1118 21.0002 11.1118 L 12.8716 16.2709 Z "/>
  <path id="ID0.7134617334231734" d="M 18.0478 10.4983 C 18.2001 10.4016 18.3586 10.3461 18.4912 10.3346 C 18.624 10.3229 18.7314 10.3552 18.7815 10.4342 C 18.8316 10.5132 18.8152 10.624 18.748 10.7392 C 18.6811 10.8544 18.5635 10.9741 18.4112 11.0708 C 18.2588 11.1674 18.1004 11.223 17.9677 11.2344 C 17.8349 11.2462 17.7276 11.2139 17.6775 11.1349 C 17.6274 11.0559 17.6438 10.945 17.711 10.8299 C 17.7778 10.7147 17.8955 10.595 18.0478 10.4983 Z " stroke-width="0.1920923895769329"/>
  <path id="ID0.6494691404514015" d="M 15.2972 12.2076 C 15.4495 12.1109 15.6079 12.0554 15.7406 12.0439 C 15.8734 12.0322 15.9807 12.0645 16.0309 12.1435 C 16.081 12.2224 16.0645 12.3333 15.9974 12.4485 C 15.9305 12.5637 15.8128 12.6834 15.6605 12.78 C 15.5082 12.8767 15.3498 12.9322 15.2171 12.9437 C 15.0843 12.9554 14.977 12.9231 14.9268 12.8442 C 14.8767 12.7652 14.8932 12.6543 14.9603 12.5391 C 15.0272 12.424 15.1449 12.3043 15.2972 12.2076 Z " stroke-width="0.1920923895769329"/>
  <path id="ID0.3106537782587111" fill="none" stroke="#000000" stroke-width="0.48233418545339" d="M 6.1073 17.3347 C 6.1073 17.3347 5.4161 19.3688 6.2076 21.4013 C 6.9059 23.1943 7.5901 24.4188 7.5901 24.4188 "/>
  <path id="ID0.4428880806080997" fill="none" stroke="#000000" stroke-width="0.48233418545339" d="M 6.0095 17.6932 C 6.0095 17.6932 4.2374 18.301 4.8114 20.3774 C 5.3239 22.232 4.5757 22.5686 4.5757 22.5686 "/>
  <path id="ID0.08818722935393453" fill="#FBB03B" stroke="#000000" stroke-width="0.4823342057634294" d="M 9.5077 32.8716 C 9.2432 33.334 8.6542 33.495 8.1917 33.231 L 7.1142 32.6156 C 6.6517 32.3515 6.4907 31.7621 6.755 31.2996 L 7.3764 30.2109 C 7.6409 29.7485 8.2298 29.5875 8.6926 29.8515 L 9.7699 30.467 C 10.2324 30.731 10.3934 31.3202 10.1291 31.7829 L 9.5077 32.8716 Z "/>
  <path id="ID0.8803494698368013" stroke="#1A1A1A" stroke-width="0.4823342057634294" d="M 11.3059 31.1281 C 11.0485 31.6071 10.5339 31.8307 10.1567 31.6278 L 7.6818 30.2967 C 7.3048 30.0938 7.2077 29.5411 7.4653 29.0621 L 10.584 23.92 C 10.8414 23.4413 11.3563 23.2174 11.7334 23.4205 L 13.6616 24.4578 C 14.0386 24.6607 14.136 25.2132 13.8781 25.6924 L 11.3059 31.1281 Z "/>
  <path id="ID0.5842904108576477" d="M 31.3295 32.0828 C 31.3858 32.5068 31.0869 32.8962 30.6623 32.9523 L 27.8767 33.322 C 27.4522 33.3784 27.0625 33.0801 27.0062 32.6563 L 26.6927 27.9325 C 26.6364 27.5085 26.935 27.1192 27.3596 27.063 L 29.5302 26.7753 C 29.9547 26.7189 30.3449 27.0168 30.4009 27.4407 L 31.3295 32.0828 Z " stroke-width="0.24116708632554712"/>
  <path id="ID0.01732994895428419" d="M 35.4324 28.9435 C 35.3735 29.3675 34.9817 29.6627 34.5575 29.6038 L 31.7742 29.2167 C 31.35 29.1577 31.054 28.7666 31.1129 28.3428 L 32.071 23.7067 C 32.1299 23.2832 32.5215 22.9875 32.9457 23.0466 L 35.1144 23.3484 C 35.5385 23.4075 35.8351 23.7985 35.7759 24.2222 L 35.4324 28.9435 Z " stroke-width="0.2411670989423942"/>
</svg>