<svg xmlns="http://www.w3.org/2000/svg" xmlns:xlink="http://www.w3.org/1999/xlink" version="1.1" width="67.24456024169922" height="65.80816650390625" viewBox="4.452700138092041 6.222770690917969 67.24456024169922 65.80816650390625">
  <!-- Exported by Scratch - http://scratch.mit.edu/ -->
  <g id="ID0.00008977344259619713">
    <path id="ID0.9573684432543814" fill="#FBB03B" stroke="#000000" stroke-width="0.8525622129475793" d="M 54.5738 20.687 C 55.5148 20.6645 56.2965 21.4094 56.3194 22.3506 L 56.3719 24.5432 C 56.3948 25.4844 55.6497 26.2665 54.7082 26.2892 L 52.4924 26.3425 C 51.5512 26.3654 50.7697 25.6201 50.7469 24.6789 L 50.6943 22.4863 C 50.6718 21.5452 51.4163 20.7634 52.3579 20.7407 L 54.5738 20.687 Z "/>
    <path id="ID0.41889808466657996" stroke="#1A1A1A" stroke-width="0.8525622129475793" d="M 50.3429 19.5578 C 51.3027 19.5101 52.1112 20.0845 52.1488 20.8406 L 52.3939 25.8015 C 52.4309 26.5577 51.6829 27.209 50.7231 27.2568 L 40.0934 27.2328 C 39.1337 27.2801 38.3249 26.7051 38.2878 25.9492 L 38.0966 22.0834 C 38.0594 21.3275 38.8068 20.6755 39.7674 20.6281 L 50.3429 19.5578 Z "/>
  </g>
  <path id="ID0.13261056737974286" fill="#FBB03B" stroke="#000000" stroke-width="0.8525622190080805" d="M 12.8872 23.9031 L 27.9843 9.5945 L 39.7314 21.9891 L 24.6343 36.2976 L 12.8872 23.9031 Z "/>
  <path id="ID0.6617734562605619" stroke="#1A1A1A" stroke-width="0.8525622190080805" d="M 24.9302 28.8706 C 20.3208 33.2392 21.1918 21.092 24.007 17.7162 L 30.7246 10.2823 C 25.6701 5.5441 17.7352 5.5098 12.6407 10.3382 L 10.9108 11.9777 C 5.6238 16.9886 5.4003 25.336 10.4111 30.623 L 29.5387 50.8048 C 34.5495 56.0918 42.8972 56.3156 48.1839 51.3051 L 49.9138 49.6656 C 55.2008 44.6548 55.4246 36.307 50.4138 31.02 C 50.4138 31.02 43.0555 22.7413 41.7137 22.4601 C 40.3713 22.179 37.282 17.1645 37.282 17.1645 L 24.9305 28.8709 Z "/>
  <path id="ID0.7134617334231734" d="M 31.9188 17.1802 C 32.1503 16.9609 32.4492 16.8561 32.7448 16.8644 C 33.0404 16.872 33.3332 16.9926 33.5526 17.224 C 33.7719 17.4555 33.8767 17.7544 33.8684 18.05 C 33.8608 18.3456 33.7402 18.6385 33.5088 18.8578 C 33.2773 19.0771 32.9784 19.1819 32.6828 19.1737 C 32.3872 19.166 32.0944 19.0454 31.875 18.814 C 31.6557 18.5825 31.5509 18.2836 31.5591 17.988 C 31.5668 17.6924 31.6874 17.3996 31.9188 17.1802 Z " stroke-width="0.42628110950404025"/>
  <path id="ID0.6494691404514015" d="M 27.5872 21.2856 C 27.8187 21.0662 28.1176 20.9615 28.4132 20.9697 C 28.7088 20.9773 29.0017 21.0979 29.221 21.3294 C 29.4403 21.5608 29.5451 21.8597 29.5369 22.1553 C 29.5292 22.4509 29.4086 22.7438 29.1772 22.9631 C 28.9458 23.1825 28.6468 23.2872 28.3512 23.279 C 28.0556 23.2714 27.7628 23.1507 27.5434 22.9193 C 27.3241 22.6879 27.2193 22.389 27.2276 22.0934 C 27.2352 21.7978 27.3558 21.5049 27.5872 21.2856 Z " stroke-width="0.42628110950404025"/>
  <path id="ID0.3106537782587111" fill="none" stroke="#000000" stroke-width="0.8525622190080805" d="M 13.6355 32.1592 C 13.6355 32.1592 10.1475 33.6602 8.4169 37.1053 C 6.8901 40.1445 6.0929 42.4923 6.0929 42.4923 "/>
  <path id="ID0.4428880806080997" fill="none" stroke="#000000" stroke-width="0.8525622190080805" d="M 13.0492 32.4553 C 13.0492 32.4553 10.1536 30.8489 8.1078 34.0605 C 6.2804 36.9289 4.9527 36.3454 4.9527 36.3454 "/>
  <path id="ID0.03648320911452174" d="M 38.4193 67.5857 C 38.2378 68.7486 37.4837 69.5969 36.736 69.4801 L 31.8286 68.7136 C 31.0805 68.5968 30.6214 67.5593 30.803 66.3959 L 33.3517 53.6348 C 33.5333 52.4719 34.2874 51.6236 35.0351 51.7408 L 38.8593 52.338 C 39.607 52.4548 40.0665 53.4924 39.8845 54.6557 L 38.4193 67.5857 Z " stroke-width="0.4262810945510864"/>
  <path id="ID0.08818722935393453" fill="#FBB03B" stroke="#000000" stroke-width="0.8525622275217991" d="M 22.187 54.6757 C 21.8773 55.5649 20.9062 56.0356 20.017 55.7268 L 17.9451 55.0067 C 17.0559 54.6978 16.5851 53.7258 16.8944 52.8366 L 17.6213 50.7434 C 17.931 49.8542 18.9021 49.3835 19.7917 49.6923 L 21.8632 50.4124 C 22.7524 50.7213 23.2231 51.6928 22.9139 52.5825 L 22.187 54.6757 Z "/>
  <path id="ID0.8803494698368013" stroke="#1A1A1A" stroke-width="0.8525622275217991" d="M 24.7465 51.0633 C 24.4545 51.979 23.6327 52.5344 22.9116 52.3042 L 18.1797 50.7935 C 17.459 50.5631 17.111 49.6341 17.4033 48.7183 L 21.1555 38.7726 C 21.4475 37.8573 22.2697 37.3014 22.9909 37.5321 L 26.6776 38.7094 C 27.3983 38.9397 27.7467 39.8683 27.454 40.7845 L 24.7465 51.0633 Z "/>
  <path id="ID0.5842904108576477" d="M 31.4394 71.4563 C 30.6853 71.4005 30.1197 70.7427 30.1759 69.9878 L 30.543 65.0344 C 30.5988 64.2794 31.2557 63.7129 32.0094 63.7688 L 40.2958 64.9334 C 41.0499 64.9892 41.6156 65.6465 41.5593 66.4015 L 41.2729 70.261 C 41.217 71.016 40.5606 71.5833 39.8069 71.5271 L 31.4394 71.4563 Z " stroke-width="0.4262810945510864"/>
  <path id="ID0.01732994895428419" d="M 71.1972 31.4727 C 71.2043 32.0018 70.5981 32.4713 69.8438 32.5223 L 64.8951 32.8564 C 64.1409 32.9075 63.524 32.5202 63.5169 31.9914 L 63.9867 26.1153 C 63.9797 25.5868 64.5854 25.1167 65.3397 25.066 L 69.1956 24.8057 C 69.9499 24.755 70.5676 25.1419 70.5742 25.6707 L 71.1972 31.4727 Z " stroke-width="0.36748332338481315"/>
  <path id="ID0.255261589307338" d="M 63.0541 27.6591 C 64.4241 26.8733 65.9097 26.7356 66.3718 27.3515 L 69.4037 31.3936 C 69.8656 32.0091 69.1298 33.1461 67.76 33.9324 L 52.2924 42.1674 C 50.9225 42.9536 49.4374 43.0908 48.9753 42.4749 L 46.613 39.3254 C 46.151 38.7095 46.8869 37.5729 48.2568 36.7867 L 63.0541 27.6591 Z " stroke-width="0.5075559625301487"/>
  <path id="ID0.1541289514862001" fill="none" stroke="#FFFFFF" stroke-width="1" stroke-linecap="round" d="M 68.75 34.5 C 68.75 34.5 63.149 41.3 60.25 44.65 C 58.144 46.937 53.75 51.4 53.75 51.4 "/>
  <path id="ID0.1541289514862001" fill="none" stroke="#FFFFFF" stroke-width="1" stroke-linecap="round" d="M 70.1 33.6 C 70.1 33.6 64.745 39.7 62.1 42.45 C 60.157 44.468 56.1 48.35 56.1 48.35 "/>
</svg>