<svg xmlns="http://www.w3.org/2000/svg" xmlns:xlink="http://www.w3.org/1999/xlink" version="1.1" width="25.918930053710938" height="40.759246826171875" viewBox="-0.73130002617836 -0.11310005187988281 25.918930053710938 40.759246826171875">
  <!-- Exported by Scratch - http://scratch.mit.edu/ -->
  <path id="ID0.4123799833469093" d="M 10.0996 36.3294 C 9.9539 36.967 9.5024 37.4078 9.0926 37.3138 L 6.4026 36.6975 C 5.9928 36.6037 5.7786 36.0103 5.9246 35.3729 L 7.8346 28.3991 C 7.9806 27.7615 8.4318 27.3206 8.8413 27.4147 L 10.9376 27.8948 C 11.3476 27.9886 11.562 28.5817 11.4161 29.2194 L 10.0996 36.3294 Z " stroke-width="0.2368660718202591"/>
  <path id="ID0.2892227452248335" d="M 20.2168 33.4275 C 20.2336 34.081 19.9063 34.6201 19.4863 34.6313 L 16.7273 34.7021 C 16.3069 34.713 15.9523 34.1917 15.9352 33.5379 L 16.0537 26.308 C 16.0368 25.6543 16.364 25.1152 16.7844 25.1043 L 18.9344 25.0489 C 19.3546 25.0382 19.7092 25.5593 19.7263 26.2133 L 20.2168 33.4275 Z " stroke-width="0.2368660718202591"/>
  <path id="ID0.4510075245052576" fill="none" stroke="#000000" stroke-width="0.4737321436405182" d="M 5.0811 8.7977 C 5.0811 8.7977 4.6415 6.7341 2.9519 5.4172 C 1.4613 4.2556 0.2687 3.5661 0.2687 3.5661 "/>
  <path id="ID0.3390679736621678" fill="none" stroke="#000000" stroke-width="0.4737321436405182" d="M 4.9835 8.4462 C 4.9835 8.4462 6.1728 7.0423 4.6448 5.5789 C 3.2797 4.2719 3.7418 3.612 3.7418 3.612 "/>
  <path id="ID0.3926795464940369" fill="#FBB03B" stroke="#000000" stroke-width="0.4737321436405182" d="M 21.4864 8.7823 C 21.7929 8.3586 22.3856 8.2643 22.8093 8.571 L 23.7961 9.2864 C 24.2196 9.5934 24.3144 10.186 24.0074 10.6095 L 23.2845 11.6065 C 22.9775 12.0302 22.3853 12.1247 21.9613 11.8178 L 20.9748 11.1024 C 20.551 10.7954 20.4565 10.2033 20.7635 9.7793 L 21.4864 8.7823 Z "/>
  <path id="ID0.08230937132611871" stroke="#1A1A1A" stroke-width="0.4737321436405182" d="M 19.5455 10.294 C 19.8473 9.8537 20.3739 9.69 20.7206 9.9278 L 22.9955 11.4904 C 23.3423 11.7285 23.3783 12.2785 23.0758 12.7188 L 19.4851 17.4087 C 19.1831 17.8488 18.6563 18.0125 18.31 17.7742 L 16.5373 16.557 C 16.1908 16.3189 16.1546 15.7689 16.4568 15.3284 L 19.5455 10.294 Z "/>
  <path id="ID0.5979244690388441" fill="#FBB03B" stroke="#000000" stroke-width="0.4737321436405182" d="M 8.662 6.4518 L 20.2199 6.4518 L 20.2199 15.9407 L 8.662 15.9407 L 8.662 6.4518 Z "/>
  <path id="ID0.897375762462616" fill="#006622" stroke="#1A1A1A" stroke-width="0.4737321436405182" d="M 11.6198 13.0585 C 8.0912 13.0585 13.0853 8.4924 15.511 8.207 L 21.062 7.7766 C 20.8346 3.9337 17.6473 0.8869 13.7471 0.8869 L 12.423 0.8869 C 8.3756 0.8869 5.0946 4.1679 5.0946 8.2155 L 5.0946 23.666 C 5.0946 27.7136 8.3756 30.9947 12.423 30.9947 L 13.7471 30.9947 C 17.7946 30.9947 21.0757 27.7136 21.0757 23.666 C 21.0757 23.666 21.2725 17.5146 20.8388 16.8884 C 20.4051 16.2621 21.0757 13.0587 21.0757 13.0587 L 11.6198 13.0587 Z "/>
  <path id="ID0.5605953140184283" d="M 18.907 11.015 C 19.0841 11.015 19.2447 11.087 19.3608 11.2033 C 19.4771 11.3194 19.5491 11.48 19.5491 11.6572 C 19.5491 11.8343 19.4771 11.9949 19.3608 12.111 C 19.2447 12.2273 19.0841 12.2993 18.907 12.2993 C 18.7298 12.2993 18.5692 12.2273 18.4531 12.111 C 18.3368 11.9949 18.2648 11.8343 18.2648 11.6572 C 18.2648 11.48 18.3368 11.3194 18.4531 11.2033 C 18.5692 11.087 18.7298 11.015 18.907 11.015 Z " stroke-width="0.2368660718202591"/>
  <path id="ID0.4209855739027262" d="M 15.5908 11.015 C 15.768 11.015 15.9286 11.087 16.0447 11.2033 C 16.161 11.3194 16.233 11.48 16.233 11.6572 C 16.233 11.8343 16.161 11.9949 16.0447 12.111 C 15.9286 12.2273 15.768 12.2993 15.5908 12.2993 C 15.4136 12.2993 15.2531 12.2273 15.137 12.111 C 15.0207 11.9949 14.9487 11.8343 14.9487 11.6572 C 14.9487 11.48 15.0207 11.3194 15.137 11.2033 C 15.2531 11.087 15.4136 11.015 15.5908 11.015 Z " stroke-width="0.2368660718202591"/>
  <path id="ID0.8371922299265862" fill="#FBB03B" stroke="#000000" stroke-width="0.4737321436405182" d="M 1.2976 10.5742 C 0.9942 10.1481 1.0939 9.5564 1.5198 9.253 L 2.5123 8.5459 C 2.9384 8.2425 3.5301 8.3415 3.8335 8.7679 L 4.5481 9.771 C 4.8516 10.1971 4.7521 10.7888 4.3259 11.0927 L 3.3335 11.7998 C 2.9074 12.1029 2.3157 12.0039 2.0122 11.5776 L 1.2976 10.5742 Z "/>
  <path id="ID0.6422115685418248" stroke="#1A1A1A" stroke-width="0.4737321436405182" d="M 2.1105 12.896 C 1.7898 12.4694 1.8024 11.9184 2.139 11.6657 L 4.3454 10.0081 C 4.6817 9.7556 5.2144 9.8968 5.5349 10.3238 L 8.8342 15.2232 C 9.1549 15.6503 9.1421 16.2014 8.8058 16.4537 L 7.0861 17.7456 C 6.75 17.9981 6.2171 17.8571 5.8966 17.4298 L 2.1105 12.896 Z "/>
  <path id="ID0.37224112963303924" d="M 5.7853 37.0284 C 5.4451 36.7823 5.3691 36.3059 5.6159 35.9653 L 7.2344 33.7298 C 7.4808 33.3889 7.9566 33.3124 8.297 33.5585 L 11.8765 36.5257 C 12.2171 36.7721 12.2929 37.2479 12.0464 37.5888 L 10.7858 39.3307 C 10.5389 39.6713 10.0626 39.7483 9.7225 39.5017 L 5.7853 37.0284 Z " stroke-width="0.2368660718202591"/>
  <path id="ID0.24771741591393948" d="M 16.3085 35.1609 C 15.9475 34.9458 15.8298 34.4785 16.0458 34.1175 L 17.4592 31.747 C 17.675 31.3857 18.1421 31.2675 18.5029 31.4826 L 22.3316 34.1213 C 22.6918 34.3364 22.8098 34.8037 22.5942 35.1652 L 21.4923 37.0115 C 21.277 37.3732 20.8099 37.4919 20.4492 37.2766 L 16.3085 35.1609 Z " stroke-width="0.2368660718202591"/>
  <path id="ID0.9016467416658998" fill="none" stroke="#000000" stroke-width="2" stroke-linecap="round" d="M 20.9 22.45 L 5.5 23.1 "/>
</svg>