<svg xmlns="http://www.w3.org/2000/svg" xmlns:xlink="http://www.w3.org/1999/xlink" version="1.1" width="31.380467584591297" height="41.861888101559074" viewBox="-0.09639831923504127 0.03847352124194847 31.380467584591297 41.861888101559074">
  <!-- Exported by Scratch - http://scratch.mit.edu/ -->
  <g id="ID0.07952108979225159">
    <path id="ID0.07179283257573843" fill="none" stroke="#000000" stroke-width="1.9375259189418843" d="M 30.0983 11.4941 L 1.5583 11.4941 L 1.5583 40.9316 L 30.0983 40.9316 L 30.0983 11.4941 Z "/>
    <path id="ID0.9966579801402986" fill="none" stroke="#000000" stroke-width="0.9906693543017209" stroke-linecap="round" d="M 15.6 11.9847 L 15.6 40.1466 "/>
    <path id="ID0.667331853415817" fill="none" stroke="#000000" stroke-width="0.9906693543017209" stroke-linecap="round" d="M 8.55 11.8375 L 8.55 40.4409 "/>
    <path id="ID0.663609794806689" fill="none" stroke="#000000" stroke-width="0.9906693543017209" stroke-linecap="round" d="M 23.2 11.5922 L 23.2 40.5391 "/>
  </g>
  <g id="ID0.8559394953772426">
    <g id="ID0.36956786597147584">
      <path id="ID0.8887924607843161" fill="#FBB03B" stroke="#000000" d="M 30.1748 29.5756 C 30.5231 30.4388 30.2016 31.3605 29.4563 31.6342 L 27.7227 32.2711 C 26.979 32.5456 26.0925 32.0671 25.7445 31.2036 L 24.9258 29.1711 C 24.5775 28.3079 24.8994 27.3858 25.6439 27.1125 L 27.3778 26.4752 C 28.1212 26.2011 29.0077 26.6788 29.3553 27.5427 L 30.1748 29.5756 Z " stroke-width="0.38277512788772583"/>
      <path id="ID0.19101047795265913" stroke="#1A1A1A" d="M 29.5777 25.3184 C 29.9524 26.1915 29.7763 27.093 29.1849 27.3303 L 25.3063 28.8882 C 24.7145 29.1259 23.9317 28.6099 23.5578 27.736 L 19.8513 17.911 C 19.4766 17.0371 19.6527 16.1356 20.2437 15.8991 L 23.2661 14.6845 C 23.8582 14.4465 24.6406 14.9632 25.015 15.8371 L 29.5777 25.3184 Z " stroke-width="0.38277512788772583"/>
    </g>
    <path id="ID0.6703295614570379" fill="#FBB03B" stroke="#000000" d="M 11.8556 12.5211 L 22.058 12.5211 L 22.058 16.5027 L 11.8556 16.5027 L 11.8556 12.5211 Z " stroke-width="0.38277512788772583"/>
    <path id="ID0.8953676312230527" stroke="#1A1A1A" d="M 13.1168 37.9289 C 12.9928 38.7236 12.4783 39.3031 11.9669 39.2231 L 8.6134 38.6991 C 8.1024 38.6199 7.7889 37.9102 7.913 37.1159 L 9.6546 28.3963 C 9.7786 27.6021 10.2938 27.0222 10.8045 27.1022 L 13.4173 27.5102 C 13.9287 27.5898 14.2422 28.2991 14.1181 29.0937 L 13.1168 37.9289 Z " stroke-width="0.38277512788772583"/>
    <path id="ID0.2110265581868589" stroke="#1A1A1A" d="M 22.6314 37.3709 C 22.796 38.1586 22.5185 38.8821 22.0125 38.9885 L 18.69 39.6821 C 18.184 39.7877 17.64 39.2354 17.4758 38.448 L 16.0267 29.6748 C 15.8621 28.8874 16.1396 28.1636 16.646 28.0576 L 19.2347 27.5171 C 19.7411 27.4118 20.2846 27.9642 20.4492 28.7515 L 22.6314 37.3709 Z " stroke-width="0.38277512788772583"/>
    <path id="ID0.07435107231140137" fill="#FF0000" stroke="#1A1A1A" d="M 10.7245 11.8769 C 7.2818 13.0007 6.7367 16.6432 6.7367 16.6432 L 6.5289 26.83 C 6.5289 31.8076 10.3727 32.0147 15.3499 32.0147 C 15.3499 32.0147 21.5088 32.5789 23.0617 31.3081 C 25.082 29.6556 25.0326 26.9644 25.0326 24.1506 C 25.0326 24.1506 26.0014 20.2493 25.5999 17.5156 C 25.2933 15.4252 23.064 12.3527 21.4559 13.7513 C 19.9359 15.0734 19.4674 16.5475 18.2023 16.0243 C 15.1275 14.7523 10.7245 11.8769 10.7245 11.8769 Z " stroke-width="0.38277512788772583"/>
    <path id="ID0.9993558046407998" fill="none" stroke="#000000" stroke-width="0.7655502557754517" d="M 10.44 3.6342 C 10.44 3.6342 8.0622 4.6731 6.8925 7.0333 C 5.8609 9.1152 5.3239 10.7232 5.3239 10.7232 "/>
    <path id="ID0.5059289545752108" fill="none" stroke="#000000" stroke-width="0.7655502557754517" d="M 10.0408 3.839 C 10.0408 3.839 8.0557 2.7519 6.6697 4.9544 C 5.4318 6.9207 4.5227 6.5268 4.5227 6.5268 "/>
    <path id="ID0.6021937313489616" stroke="#1A1A1A" d="M 8.3478 40.5743 C 7.8326 40.536 7.4464 40.0867 7.4843 39.5703 L 7.7357 36.1858 C 7.7736 35.6698 8.2222 35.2828 8.7375 35.3207 L 14.3995 36.1165 C 14.9147 36.1548 15.3009 36.6042 15.263 37.1198 L 15.0674 39.7571 C 15.0288 40.2731 14.5805 40.66 14.0653 40.6222 L 8.3478 40.5743 Z " stroke-width="0.38277512788772583"/>
    <path id="ID0.339677725918591" stroke="#1A1A1A" d="M 17.823 40.5743 C 17.3078 40.536 16.9216 40.0867 16.9595 39.5703 L 17.2106 36.1858 C 17.2489 35.6698 17.6975 35.2828 18.2123 35.3207 L 23.8747 36.1165 C 24.3899 36.1548 24.7761 36.6042 24.7382 37.1198 L 24.5422 39.7571 C 24.504 40.2731 24.0557 40.66 23.5405 40.6222 L 17.823 40.5743 Z " stroke-width="0.38277512788772583"/>
    <g id="ID0.965792934410274">
      <path id="ID0.6905065542086959" fill="#FBB03B" stroke="#000000" d="M 24.1059 11.4367 C 24.0136 12.8074 22.827 13.8444 21.4563 13.7517 L 12.2406 13.1305 C 10.8695 13.0382 9.833 11.852 9.9252 10.4809 L 10.4075 3.3276 C 10.4998 1.9569 11.6864 0.9203 13.0571 1.013 L 22.2728 1.6338 C 23.6439 1.7261 24.6804 2.9127 24.5882 4.2838 L 24.1059 11.4367 Z " stroke-width="0.38277512788772583"/>
      <path id="ID0.22811504919081926" d="M 22.2712 8.1693 C 22.489 8.1693 22.6866 8.2578 22.8293 8.4009 C 22.9725 8.5437 23.0609 8.7412 23.0609 8.959 C 23.0609 9.1768 22.9725 9.3743 22.8293 9.5171 C 22.6866 9.6602 22.489 9.7487 22.2712 9.7487 C 22.0534 9.7487 21.8559 9.6602 21.7132 9.5171 C 21.57 9.3743 21.4816 9.1768 21.4816 8.959 C 21.4816 8.7412 21.57 8.5437 21.7132 8.4009 C 21.8559 8.2578 22.0534 8.1693 22.2712 8.1693 Z " stroke-width="0.38277512788772583"/>
      <path id="ID0.013563781976699829" d="M 18.2027 7.8953 C 18.4205 7.8953 18.618 7.9837 18.7608 8.1268 C 18.904 8.2696 18.9924 8.4671 18.9924 8.6849 C 18.9924 8.9027 18.904 9.1002 18.7608 9.243 C 18.618 9.3862 18.4205 9.4746 18.2027 9.4746 C 17.9849 9.4746 17.7874 9.3862 17.6446 9.243 C 17.5015 9.1002 17.4131 8.9027 17.4131 8.6849 C 17.4131 8.4671 17.5015 8.2696 17.6446 8.1268 C 17.7874 7.9837 17.9849 7.8953 18.2027 7.8953 Z " stroke-width="0.38277512788772583"/>
    </g>
    <path id="ID0.7039444665424526" fill="none" stroke="#000000" stroke-width="0.7655502557754517" d="M 10.44 4.0044 C 10.44 4.0044 16.442 3.6694 19.7844 4.1245 C 22.5442 4.5004 24.535 5.065 24.535 5.065 "/>
    <path id="ID0.6159620601683855" fill="none" stroke="#000000" d="M 18.2027 11.3027 L 18.8542 11 L 21.4816 12.0648 " stroke-width="0.38277512788772583"/>
    <path id="ID0.7549523301422596" fill="none" stroke="#000000" d="M 17.7637 6.559 L 19.3292 7.382 " stroke-width="0.38277512788772583"/>
    <path id="ID0.23084450559690595" fill="none" stroke="#000000" d="M 21.4816 7.382 L 22.8695 6.7959 " stroke-width="0.38277512788772583"/>
    <path id="ID0.7660430069081485" fill="none" stroke="#1A1A1A" stroke-width="0.7655502557754517" d="M 6.9495 23.942 C 6.9495 23.942 12.5641 25.5286 16.6571 25.5374 C 21.5053 25.5485 24.8335 25.0283 24.8335 25.0283 "/>
    <g id="ID0.3789146998897195">
      <path id="ID0.29586266726255417" fill="#FBB03B" stroke="#000000" d="M 5.2362 30.3106 C 4.8213 31.1439 3.9183 31.5148 3.219 31.1385 L 1.593 30.2639 C 0.894 29.8888 0.6636 28.9085 1.0793 28.0752 L 2.0573 26.1146 C 2.4722 25.2813 3.3756 24.9104 4.0745 25.2863 L 5.7013 26.1609 C 6.3995 26.5356 6.6299 27.5163 6.2142 28.3492 L 5.2362 30.3106 Z " stroke-width="0.38277512788772583"/>
      <path id="ID0.5044724489562213" stroke="#1A1A1A" d="M 8.0259 27.0398 C 7.6209 27.8991 6.8297 28.3657 6.2598 28.0805 L 2.5208 26.2114 C 1.9509 25.9263 1.8177 24.9984 2.2234 24.1387 L 7.1179 14.848 C 7.5233 13.9879 8.3145 13.5221 8.8837 13.8072 L 11.797 15.2641 C 12.3673 15.5489 12.5005 16.4771 12.0944 17.3372 L 8.0259 27.0398 Z " stroke-width="0.38277512788772583"/>
    </g>
  </g>
</svg>