<svg xmlns="http://www.w3.org/2000/svg" xmlns:xlink="http://www.w3.org/1999/xlink" version="1.1" width="54.16313171386719" height="48.90715026855469" viewBox="1.007132887840271 7.123788833618164 54.16313171386719 48.90715026855469">
  <!-- Exported by Scratch - http://scratch.mit.edu/ -->
  <g id="ID0.007909030187875032">
    <path id="ID0.9573684432543814" fill="#FBB03B" stroke="#000000" stroke-width="0.8525620812506077" d="M 45.312 52.183 C 45.6308 53.0687 45.1712 54.0457 44.2855 54.365 L 42.2219 55.1079 C 41.3362 55.4271 40.3587 54.9675 40.0395 54.0813 L 39.2885 51.9961 C 38.9693 51.1104 39.4294 50.1334 40.3151 49.8141 L 42.3787 49.0712 C 43.2644 48.7524 44.2414 49.2116 44.5606 50.0977 L 45.312 52.183 Z "/>
    <path id="ID0.41889808466657996" stroke="#1A1A1A" stroke-width="0.8525620812506077" d="M 45.0301 47.7647 C 45.3788 48.6602 45.0894 49.6089 44.384 49.8835 L 39.7549 51.6841 C 39.0491 51.9583 38.1947 51.4545 37.8461 50.559 L 34.5088 40.4668 C 34.1605 39.5712 34.4504 38.6222 35.1558 38.348 L 38.763 36.9447 C 39.4684 36.6705 40.3232 37.1734 40.6718 38.0698 L 45.0301 47.7647 Z "/>
  </g>
  <path id="ID0.13261056737974286" fill="#FBB03B" stroke="#000000" stroke-width="0.8525621364723157" d="M 39.9515 14.4569 L 52.9993 26.0195 L 45.8651 36.7823 L 26.8072 25.3586 L 39.9515 14.4569 Z "/>
  <path id="ID0.6617734562605619" stroke="#1A1A1A" stroke-width="0.8525621364723157" d="M 35.3686 26.4305 C 31.7101 23.4398 36.6078 24.0631 37.7514 23.9282 C 40.4997 23.602 43.351 24.4704 46.1188 24.9356 L 52.7304 26.4301 C 54.9452 26.9303 54.7064 21.5863 54.6143 19.0526 C 54.5346 16.8619 53.4246 14.7343 52.2545 12.8687 L 49.3815 10.2394 L 45.6275 8.6178 C 44.3475 8.0013 40.5435 7.3538 38.0047 7.7404 C 35.4717 8.1305 32.9245 9.2761 30.8857 10.8757 L 26.88 16.4963 L 22.6414 21.3686 L 12.0074 29.0928 C 8.46 31.7569 5.6251 42.0576 10.2751 47.6641 L 11.7966 49.4986 C 16.4468 55.1054 24.7614 55.8809 30.3682 51.2307 C 30.3682 51.2307 36.3802 45.7388 39.4848 43.1158 L 47.002 37.0516 L 46.2532 35.1805 L 35.3686 26.4305 Z "/>
  <path id="ID0.7134617334231734" d="M 50.4509 27.6415 C 50.6545 27.8869 50.7392 28.1921 50.7115 28.4865 C 50.6843 28.781 50.5446 29.0652 50.2991 29.2688 C 50.0537 29.4723 49.7485 29.5571 49.4541 29.5293 C 49.1597 29.5022 48.8754 29.3625 48.6719 29.117 C 48.4683 28.8716 48.3836 28.5664 48.4113 28.272 C 48.4385 27.9776 48.5782 27.6933 48.8236 27.4898 C 49.0691 27.2862 49.3743 27.2014 49.6686 27.2292 C 49.9631 27.2564 50.2473 27.3961 50.4509 27.6415 Z " stroke-width="0.42628106823615786"/>
  <path id="ID0.6494691404514015" d="M 45.591 26.5479 C 45.7946 26.7933 45.8794 27.0985 45.8516 27.3929 C 45.8244 27.6874 45.6847 27.9716 45.4393 28.1752 C 45.1938 28.3787 44.8887 28.4635 44.5943 28.4357 C 44.2998 28.4086 44.0156 28.2689 43.812 28.0234 C 43.6084 27.778 43.5237 27.4728 43.5514 27.1784 C 43.5786 26.884 43.7183 26.5997 43.9638 26.3961 C 44.2092 26.1926 44.5144 26.1078 44.8088 26.1356 C 45.1032 26.1628 45.3875 26.3025 45.591 26.5479 Z " stroke-width="0.42628106823615786"/>
  <path id="ID0.3106537782587111" fill="none" stroke="#000000" stroke-width="0.8525620826961275" d="M 28.9621 14.1522 C 28.9621 14.1522 25.1656 14.2255 22.2625 16.7624 C 19.7015 19.0005 18.0771 20.8737 18.0771 20.8737 "/>
  <path id="ID0.4428880806080997" fill="none" stroke="#000000" stroke-width="0.8525620826961275" d="M 28.3074 14.2051 C 28.3074 14.2051 26.2324 11.6244 23.1256 13.8263 C 20.3507 15.7926 19.3415 14.7511 19.3415 14.7511 "/>
  <path id="ID0.03648320911452174" d="M 6.7885 51.0607 C 5.6515 50.7566 4.888 49.9168 5.0835 49.1857 L 6.3666 44.3874 C 6.5622 43.6559 7.6426 43.3096 8.7801 43.6136 L 21.1985 47.5026 C 22.3356 47.8066 23.0991 48.6465 22.9031 49.3776 L 21.9033 53.1167 C 21.7078 53.8478 20.6273 54.1946 19.4899 53.8901 L 6.7885 51.0607 Z " stroke-width="0.4262811237266956"/>
  <path id="ID0.08818722935393453" fill="#FBB03B" stroke="#000000" stroke-width="0.8525621695919616" d="M 4.3994 24.1365 C 3.4958 23.8713 2.9776 22.9247 3.2419 22.0212 L 3.8583 19.9162 C 4.1227 19.0128 5.0701 18.4944 5.9736 18.7592 L 8.1003 19.3813 C 9.0038 19.6465 9.5221 20.5931 9.2578 21.497 L 8.6413 23.6016 C 8.377 24.505 7.4299 25.0233 6.526 24.7586 L 4.3994 24.1365 Z "/>
  <path id="ID0.8803494698368013" stroke="#1A1A1A" stroke-width="0.8525621695919616" d="M 8.1343 26.5136 C 7.2052 26.2674 6.6097 25.4742 6.8039 24.7425 L 8.078 19.9416 C 8.2723 19.2103 9.1829 18.8166 10.1121 19.0632 L 20.2317 22.3174 C 21.1604 22.5637 21.7564 23.3572 21.5617 24.089 L 20.5687 27.8295 C 20.3744 28.5608 19.4643 28.9548 18.5347 28.7079 L 8.1343 26.5136 Z "/>
  <path id="ID0.5842904108576477" d="M 1.5248 45.9716 C 1.4043 45.2251 1.913 44.5223 2.6604 44.4021 L 7.5639 43.6107 C 8.3113 43.49 9.0147 43.9976 9.1351 44.7437 L 9.9234 53.0744 C 10.0439 53.8209 9.5356 54.5235 8.7882 54.6438 L 4.9674 55.26 C 4.2201 55.3807 3.5159 54.8737 3.3959 54.1275 L 1.5248 45.9716 Z " stroke-width="0.4262811046398192"/>
  <path id="ID0.01732994895428419" d="M 29.8563 55.4563 C 29.1018 55.4005 28.5366 54.7427 28.5924 53.9878 L 28.9599 49.0344 C 29.0157 48.2794 29.6722 47.7129 30.4263 47.7688 L 38.7128 48.9334 C 39.4664 48.9892 40.0325 49.6465 39.9763 50.4015 L 39.6898 54.261 C 39.6335 55.016 38.9775 55.5833 38.2234 55.5271 L 29.8563 55.4563 Z " stroke-width="0.4262810945510864"/>
  <path id="ID0.255261589307338" d="M 36.4276 52.9119 C 36.1754 54.0616 35.3714 54.8624 34.6321 54.7004 L 29.7804 53.6366 C 29.0415 53.4747 28.6459 52.411 28.8977 51.2611 L 32.2178 38.6783 C 32.4697 37.5284 33.2739 36.7281 34.0132 36.8902 L 37.7934 37.7191 C 38.5327 37.8811 38.9279 38.9447 38.6761 40.0946 L 36.4276 52.9119 Z " stroke-width="0.4262811019486979"/>
</svg>