<svg xmlns="http://www.w3.org/2000/svg" xmlns:xlink="http://www.w3.org/1999/xlink" version="1.1" width="38.54901123046875" height="38.708614349365234" viewBox="1.2698999643325806 0.3889999985694885 38.54901123046875 38.708614349365234">
  <!-- Exported by Scratch - http://scratch.mit.edu/ -->
  <path id="ID0.3687892844900489" d="M 20.6621 36.2013 C 20.3689 36.7925 19.8229 37.1186 19.4427 36.9301 L 16.9485 35.6928 C 16.5685 35.5042 16.4981 34.872 16.7913 34.2808 L 20.3061 27.8887 C 20.5993 27.2975 21.1453 26.9713 21.5252 27.1599 L 23.4689 28.1241 C 23.8491 28.3126 23.9196 28.9449 23.6264 29.5361 L 20.6621 36.2013 Z " stroke-width="0.23895686864852905"/>
  <path id="ID0.15630904771387577" d="M 36.1453 30.1638 C 36.6615 30.5746 36.866 31.1767 36.6017 31.5089 L 34.8683 33.6877 C 34.6043 34.0198 33.9713 33.956 33.4547 33.5453 L 27.9434 28.7669 C 27.4267 28.3563 27.2222 27.7539 27.4865 27.4218 L 28.8376 25.7242 C 29.1016 25.3921 29.7346 25.4559 30.2507 25.8669 L 36.1453 30.1638 Z " stroke-width="0.23895686864852905"/>
  <path id="ID0.9571989816613495" fill="none" stroke="#000000" stroke-width="0.4779137372970581" d="M 17.8976 9.9698 C 17.8976 9.9698 16.1501 11.1854 15.5857 13.2717 C 15.0882 15.1121 14.9135 16.4912 14.9135 16.4912 "/>
  <path id="ID0.15386404702439904" fill="none" stroke="#000000" stroke-width="0.4779137372970581" d="M 17.6085 10.1985 C 17.6085 10.1985 15.8383 9.641 15.0746 11.6344 C 14.3926 13.4146 13.5981 13.243 13.5981 13.243 "/>
  <path id="ID0.07008709199726582" fill="#FBB03B" stroke="#000000" stroke-width="0.4779137372970581" d="M 38.0333 14.947 C 38.5547 14.8672 39.0424 15.2259 39.1223 15.7475 L 39.3079 16.9629 C 39.3873 17.4845 39.0288 17.9725 38.5069 18.0523 L 37.2789 18.2396 C 36.7571 18.3194 36.2693 17.961 36.1895 17.4391 L 36.0043 16.2238 C 35.9245 15.7019 36.283 15.2147 36.8049 15.1346 L 38.0333 14.947 Z "/>
  <path id="ID0.6664769016206264" stroke="#1A1A1A" stroke-width="0.4779137372970581" d="M 35.5723 14.624 C 36.1026 14.5289 36.5929 14.7908 36.6682 15.2084 L 37.1578 17.9493 C 37.2326 18.367 36.8629 18.7825 36.3327 18.8772 L 30.4204 19.6213 C 29.8902 19.7159 29.3998 19.4538 29.3255 19.0363 L 28.9432 16.9005 C 28.8689 16.483 29.238 16.0673 29.7688 15.9724 L 35.5723 14.624 Z "/>
  <path id="ID0.028991148341447115" fill="#FBB03B" stroke="#000000" stroke-width="0.4779137372970581" d="M 21.4798 6.503 L 33.1397 6.503 L 33.1397 16.0756 L 21.4798 16.0756 L 21.4798 6.503 Z "/>
  <path id="ID0.934041952714324" fill="#009999" stroke="#1A1A1A" stroke-width="0.4779137372970581" d="M 24.4642 13.168 C 20.9042 13.168 25.9426 8.5616 28.3897 8.2737 L 33.9895 7.8395 C 33.7601 3.9627 30.5449 0.889 26.61 0.889 L 25.2742 0.889 C 21.1909 0.889 17.8811 4.199 17.8811 8.2823 L 17.8811 23.8692 C 17.8811 27.9525 21.1912 31.2625 25.2742 31.2625 L 26.61 31.2625 C 30.6933 31.2625 34.0036 27.9525 34.0036 23.8692 C 34.0036 23.8692 34.2019 17.6635 33.7646 17.0317 C 33.3268 16.3996 34.0036 13.1682 34.0036 13.1682 L 24.4642 13.1682 Z "/>
  <path id="ID0.4870021608658135" d="M 31.8152 11.1065 C 31.9939 11.1065 32.1559 11.1792 32.273 11.2965 C 32.3904 11.4136 32.463 11.5756 32.463 11.7543 C 32.463 11.9331 32.3904 12.0951 32.273 12.2122 C 32.1559 12.3295 31.9939 12.4021 31.8152 12.4021 C 31.6365 12.4021 31.4744 12.3295 31.3574 12.2122 C 31.24 12.0951 31.1674 11.9331 31.1674 11.7543 C 31.1674 11.5756 31.24 11.4136 31.3574 11.2965 C 31.4744 11.1792 31.6365 11.1065 31.8152 11.1065 Z " stroke-width="0.23895686864852905"/>
  <path id="ID0.4437686442397535" d="M 28.4698 11.1065 C 28.6485 11.1065 28.8105 11.1792 28.9276 11.2965 C 29.045 11.4136 29.1176 11.5756 29.1176 11.7543 C 29.1176 11.9331 29.045 12.0951 28.9276 12.2122 C 28.8105 12.3295 28.6485 12.4021 28.4698 12.4021 C 28.2911 12.4021 28.129 12.3295 28.012 12.2122 C 27.8946 12.0951 27.822 11.9331 27.822 11.7543 C 27.822 11.5756 27.8946 11.4136 28.012 11.2965 C 28.129 11.1792 28.2911 11.1065 28.4698 11.1065 Z " stroke-width="0.23895686864852905"/>
  <path id="ID0.2511214418336749" fill="#FFFFFF" stroke="#7F7F7F" stroke-width="0.9999999953643002" stroke-linecap="round" d="M 19.4306 10.0224 L 12.3505 14.8512 L 15.1675 22.5679 L 9.0182 16.8873 L 1.7699 18.0152 L 7.6163 13.2425 L 6.033 5.4698 L 10.8236 10.9527 L 19.4306 10.0224 Z "/>
  <path id="ID0.49555545253679156" fill="#FBB03B" stroke="#000000" stroke-width="0.4779137372970581" d="M 11.3428 15.6551 C 10.8522 15.4608 10.6118 14.9052 10.8061 14.4146 L 11.2589 13.2715 C 11.4532 12.7809 12.0085 12.5403 12.4994 12.7345 L 13.6545 13.1919 C 14.145 13.3862 14.3854 13.9417 14.1912 14.4328 L 13.7383 15.5757 C 13.5441 16.0663 12.9887 16.3069 12.4979 16.1124 L 11.3428 15.6551 Z "/>
  <path id="ID0.2625341503880918" stroke="#1A1A1A" stroke-width="0.4779137372970581" d="M 13.3049 17.1748 C 12.799 16.9896 12.5077 16.5163 12.6537 16.1177 L 13.6129 13.504 C 13.7594 13.1056 14.2877 12.9331 14.7936 13.1188 L 20.2743 15.4574 C 20.7797 15.6431 21.0715 16.117 20.925 16.5151 L 20.1778 18.5519 C 20.0318 18.9503 19.5029 19.123 18.9971 18.9371 L 13.3049 17.1748 Z "/>
  <path id="ID0.8204577909782529" d="M 16.2782 37.0936 C 15.8847 36.9366 15.6932 36.4895 15.8505 36.0954 L 16.8823 33.5094 C 17.0393 33.1154 17.4857 32.923 17.8797 33.08 L 22.1133 35.1002 C 22.5066 35.2572 22.6983 35.704 22.5413 36.0983 L 21.7372 38.1132 C 21.58 38.5072 21.1333 38.7001 20.7395 38.5428 L 16.2782 37.0936 Z " stroke-width="0.23895686864852905"/>
  <path id="ID0.699897791724652" d="M 34.7883 34.7052 C 34.4435 34.9511 33.9637 34.8698 33.7178 34.5243 L 32.1024 32.2563 C 31.8561 31.9108 31.9368 31.4312 32.2816 31.1853 L 36.2729 28.7205 C 36.6177 28.4746 37.0971 28.5556 37.3435 28.9014 L 38.6018 30.6685 C 38.8482 31.014 38.7679 31.4938 38.4226 31.7395 L 34.7883 34.7052 Z " stroke-width="0.23895686864852905"/>
</svg>