<svg xmlns="http://www.w3.org/2000/svg" xmlns:xlink="http://www.w3.org/1999/xlink" version="1.1" width="56.84600067138672" height="39.43430709838867" viewBox="-0.625 0.18682372570037842 56.84600067138672 39.43430709838867">
  <!-- Exported by Scratch - http://scratch.mit.edu/ -->
  <g id="ID0.8564713546074927">
    <path id="ID0.5989846084266901" d="M 18.967 38.826 C 18.525 38.794 18.193 38.408 18.226 37.965 L 18.442 35.061 C 18.474 34.618 18.86 34.286 19.302 34.319 L 24.161 35.002 C 24.602 35.034 24.934 35.42 24.902 35.862 L 24.734 38.126 C 24.701 38.569 24.316 38.901 23.874 38.869 L 18.967 38.826 Z " stroke-width="1"/>
    <path id="ID0.7705372264608741" d="M 22.017 34.889 C 22.375 35.479 22.359 36.144 21.979 36.375 L 19.491 37.889 C 19.112 38.121 18.513 37.83 18.155 37.241 L 14.464 30.56 C 14.106 29.97 14.122 29.305 14.501 29.075 L 16.44 27.894 C 16.819 27.663 17.418 27.955 17.776 28.544 L 22.017 34.889 Z " stroke-width="1"/>
  </g>
  <g id="ID0.15596213983371854">
    <path id="ID0.5848010759800673" d="M 11.928 36.557 C 11.822 37.239 11.379 37.737 10.941 37.668 L 8.063 37.218 C 7.625 37.15 7.355 36.541 7.461 35.859 L 8.956 28.376 C 9.062 27.693 9.505 27.196 9.942 27.265 L 12.185 27.616 C 12.623 27.684 12.893 28.293 12.787 28.974 L 11.928 36.557 Z " stroke-width="1"/>
    <path id="ID0.8454087860882282" d="M 7.835 38.826 C 7.392 38.794 7.061 38.408 7.093 37.965 L 7.309 35.061 C 7.342 34.618 7.727 34.286 8.169 34.319 L 13.028 35.002 C 13.47 35.034 13.802 35.42 13.769 35.862 L 13.601 38.126 C 13.569 38.569 13.184 38.901 12.741 38.869 L 7.835 38.826 Z " stroke-width="1"/>
  </g>
  <g id="ID0.20980142103508115">
    <path id="ID0.15353494929149747" fill="#FBB03B" stroke="#000000" stroke-width="0.5" d="M 30.749 24.345 C 31.192 24.673 31.287 25.299 30.96 25.742 L 30.195 26.777 C 29.867 27.22 29.241 27.314 28.797 26.988 L 27.751 26.216 C 27.307 25.888 27.213 25.262 27.541 24.818 L 28.304 23.783 C 28.634 23.34 29.259 23.245 29.702 23.573 L 30.749 24.345 Z "/>
    <path id="ID0.7635790938511491" stroke="#1A1A1A" stroke-width="0.5" d="M 29.172 22.281 C 29.634 22.604 29.802 23.161 29.547 23.524 L 27.876 25.911 C 27.622 26.275 27.041 26.307 26.58 25.985 L 21.663 22.15 C 21.201 21.828 21.034 21.27 21.288 20.907 L 22.59 19.049 C 22.844 18.684 23.426 18.652 23.887 18.975 L 29.172 22.281 Z "/>
  </g>
  <g id="ID0.7137223575264215">
    <path id="ID0.5612710667774081" fill="#FBB03B" stroke="#000000" stroke-width="0.500009636198767" d="M 17.5851 5.5885 L 29.0411 9.7813 L 25.599 19.1864 L 14.1429 14.9936 L 17.5851 5.5885 Z "/>
    <path id="ID0.3885055026039481" fill="#78006D" stroke="#1A1A1A" stroke-width="0.5" d="M 18.138 13.181 C 14.64 11.901 21.246 9.187 23.754 9.784 L 29.412 11.371 C 30.58 7.48 28.527 3.305 24.661 1.89 L 23.348 1.41 C 19.337 -0.058 14.894 2.004 13.425 6.015 L 7.821 21.327 C 6.353 25.338 8.416 29.781 12.426 31.249 L 13.738 31.729 C 17.751 33.198 22.193 31.135 23.662 27.125 C 23.662 27.125 26.089 21.1 25.885 20.321 C 25.683 19.543 27.51 16.611 27.51 16.611 L 18.138 13.181 Z "/>
  </g>
  <g id="ID0.20883694617077708">
    <path id="ID0.16792826633900404" d="M 26.869 11.759 C 27.056 11.759 27.226 11.835 27.348 11.958 C 27.471 12.08 27.547 12.25 27.547 12.437 C 27.547 12.624 27.471 12.794 27.348 12.916 C 27.226 13.039 27.056 13.115 26.869 13.115 C 26.682 13.115 26.512 13.039 26.39 12.916 C 26.267 12.794 26.191 12.624 26.191 12.437 C 26.191 12.25 26.267 12.08 26.39 11.958 C 26.512 11.835 26.682 11.759 26.869 11.759 Z " stroke-width="1"/>
    <path id="ID0.08473029173910618" d="M 23.582 11.555 C 23.769 11.555 23.939 11.631 24.061 11.754 C 24.184 11.876 24.26 12.046 24.26 12.233 C 24.26 12.42 24.184 12.59 24.061 12.712 C 23.939 12.835 23.769 12.911 23.582 12.911 C 23.395 12.911 23.225 12.835 23.103 12.712 C 22.98 12.59 22.904 12.42 22.904 12.233 C 22.904 12.046 22.98 11.876 23.103 11.754 C 23.225 11.631 23.395 11.555 23.582 11.555 Z " stroke-width="1"/>
  </g>
  <path id="ID0.9075090778060257" fill="none" stroke="#000000" d="M 12.676 8.84 C 12.676 8.84 10.585 8.07 8.459 8.84 C 6.583 9.518 5.296 10.195 5.296 10.195 " stroke-width="1"/>
  <path id="ID0.35206371266394854" fill="none" stroke="#000000" d="M 12.307 8.729 C 12.307 8.729 11.722 6.877 9.555 7.418 C 7.62 7.902 7.291 7.118 7.291 7.118 " stroke-width="1"/>
  <path id="ID0.5940494854003191" fill="none" stroke="#000000" stroke-width="1.5" d="M 0.125 26.593 L 52.75 24.747 "/>
  <g id="ID0.7118512513116002">
    <path id="ID0.7296573664061725" fill="#FBB03B" stroke="#000000" stroke-width="0.5" d="M 8.021 27.445 C 7.698 27.892 7.073 27.993 6.625 27.671 L 5.583 26.917 C 5.133 26.594 5.033 25.969 5.357 25.521 L 6.118 24.467 C 6.441 24.02 7.066 23.917 7.515 24.242 L 8.556 24.995 C 9.003 25.318 9.105 25.942 8.781 26.391 L 8.021 27.445 Z "/>
    <path id="ID0.7869536513462663" stroke="#1A1A1A" stroke-width="0.5" d="M 10.066 25.847 C 9.749 26.313 9.193 26.486 8.827 26.236 L 6.424 24.59 C 6.058 24.338 6.018 23.758 6.336 23.293 L 10.119 18.338 C 10.437 17.872 10.992 17.699 11.358 17.95 L 13.232 19.232 C 13.597 19.483 13.637 20.063 13.318 20.527 L 10.066 25.847 Z "/>
  </g>
  <path id="ID0.6533192885108292" fill="#E6E6E6" stroke="#000000" d="M 55.471 24.553 L 50.224 27.419 L 50.028 22.075 L 55.471 24.553 " stroke-width="1"/>
</svg>