<svg xmlns="http://www.w3.org/2000/svg" xmlns:xlink="http://www.w3.org/1999/xlink" version="1.1" width="33.82653045654297" height="41.148948669433594" viewBox="1.8610999584197998 1.9972000122070312 33.82653045654297 41.148948669433594">
  <!-- Exported by Scratch - http://scratch.mit.edu/ -->
  <path id="ID0.4123799833469093" d="M 21.0996 39.3294 C 20.9539 39.967 20.5024 40.4078 20.0926 40.3138 L 17.4026 39.6975 C 16.9928 39.6037 16.7786 39.0103 16.9246 38.3729 L 18.8346 31.3991 C 18.9806 30.7615 19.4318 30.3206 19.8413 30.4147 L 21.9376 30.8948 C 22.3476 30.9886 22.562 31.5817 22.4161 32.2194 L 21.0996 39.3294 Z " stroke-width="0.2368660718202591"/>
  <path id="ID0.2892227452248335" d="M 31.2168 36.4275 C 31.2336 37.081 30.9063 37.6201 30.4863 37.6313 L 27.7273 37.7021 C 27.3069 37.713 26.9523 37.1917 26.9352 36.5379 L 27.0537 29.308 C 27.0368 28.6543 27.364 28.1152 27.7844 28.1043 L 29.9344 28.0489 C 30.3546 28.0382 30.7092 28.5593 30.7263 29.2133 L 31.2168 36.4275 Z " stroke-width="0.2368660718202591"/>
  <path id="ID0.4510075245052576" fill="none" stroke="#000000" stroke-width="0.4737321436405182" d="M 16.0811 11.7977 C 16.0811 11.7977 15.6415 9.7341 13.9519 8.4172 C 12.4613 7.2556 11.2687 6.5661 11.2687 6.5661 "/>
  <path id="ID0.3390679736621678" fill="none" stroke="#000000" stroke-width="0.4737321436405182" d="M 15.9835 11.4462 C 15.9835 11.4462 17.1728 10.0423 15.6448 8.5789 C 14.2797 7.2719 14.7418 6.612 14.7418 6.612 "/>
  <path id="ID0.3926795464940369" fill="#FBB03B" stroke="#000000" stroke-width="0.4737321436405182" d="M 32.4864 11.7823 C 32.7929 11.3586 33.3856 11.2643 33.8093 11.571 L 34.7961 12.2864 C 35.2196 12.5934 35.3144 13.186 35.0074 13.6095 L 34.2845 14.6065 C 33.9775 15.0302 33.3853 15.1247 32.9613 14.8178 L 31.9748 14.1024 C 31.551 13.7954 31.4565 13.2033 31.7635 12.7793 L 32.4864 11.7823 Z "/>
  <path id="ID0.08230937132611871" stroke="#1A1A1A" stroke-width="0.4737321436405182" d="M 30.5455 13.294 C 30.8473 12.8537 31.3739 12.69 31.7206 12.9278 L 33.9955 14.4904 C 34.3423 14.7285 34.3783 15.2785 34.0758 15.7188 L 30.4851 20.4087 C 30.1831 20.8488 29.6563 21.0125 29.31 20.7742 L 27.5373 19.557 C 27.1908 19.3189 27.1546 18.7689 27.4568 18.3284 L 30.5455 13.294 Z "/>
  <path id="ID0.5979244690388441" fill="#FBB03B" stroke="#000000" stroke-width="0.4737321436405182" d="M 19.662 9.4518 L 31.2199 9.4518 L 31.2199 18.9407 L 19.662 18.9407 L 19.662 9.4518 Z "/>
  <path id="ID0.897375762462616" fill="#009999" stroke="#1A1A1A" stroke-width="0.4737321436405182" d="M 22.6198 16.0585 C 19.0912 16.0585 24.0853 11.4924 26.511 11.207 L 32.062 10.7766 C 31.8346 6.9337 28.6473 3.8869 24.7471 3.8869 L 23.423 3.8869 C 19.3756 3.8869 16.0946 7.1679 16.0946 11.2155 L 16.0946 26.666 C 16.0946 30.7136 19.3756 33.9947 23.423 33.9947 L 24.7471 33.9947 C 28.7946 33.9947 32.0757 30.7136 32.0757 26.666 C 32.0757 26.666 32.2725 20.5146 31.8388 19.8884 C 31.4051 19.2621 32.0757 16.0587 32.0757 16.0587 L 22.6198 16.0587 Z "/>
  <path id="ID0.5605953140184283" d="M 29.907 14.015 C 30.0841 14.015 30.2447 14.087 30.3608 14.2033 C 30.4771 14.3194 30.5491 14.48 30.5491 14.6572 C 30.5491 14.8343 30.4771 14.9949 30.3608 15.111 C 30.2447 15.2273 30.0841 15.2993 29.907 15.2993 C 29.7298 15.2993 29.5692 15.2273 29.4531 15.111 C 29.3368 14.9949 29.2648 14.8343 29.2648 14.6572 C 29.2648 14.48 29.3368 14.3194 29.4531 14.2033 C 29.5692 14.087 29.7298 14.015 29.907 14.015 Z " stroke-width="0.2368660718202591"/>
  <path id="ID0.4209855739027262" d="M 26.5908 14.015 C 26.768 14.015 26.9286 14.087 27.0447 14.2033 C 27.161 14.3194 27.233 14.48 27.233 14.6572 C 27.233 14.8343 27.161 14.9949 27.0447 15.111 C 26.9286 15.2273 26.768 15.2993 26.5908 15.2993 C 26.4136 15.2993 26.2531 15.2273 26.137 15.111 C 26.0207 14.9949 25.9487 14.8343 25.9487 14.6572 C 25.9487 14.48 26.0207 14.3194 26.137 14.2033 C 26.2531 14.087 26.4136 14.015 26.5908 14.015 Z " stroke-width="0.2368660718202591"/>
  <path id="ID0.2511214418336749" fill="#FFFFFF" stroke="#7F7F7F" stroke-width="0.9999999728653425" stroke-linecap="round" d="M 21.6229 10.9441 L 13.402 13.3653 L 13.7133 21.5742 L 9.6055 14.2798 L 2.3611 13.1273 L 9.3907 10.3806 L 10.2707 2.4972 L 13.1461 9.1863 L 21.6229 10.9441 Z "/>
  <path id="ID0.8371922299265862" fill="#FBB03B" stroke="#000000" stroke-width="0.4737321436405182" d="M 12.2976 13.5742 C 11.9942 13.1481 12.0939 12.5564 12.5198 12.253 L 13.5123 11.5459 C 13.9384 11.2425 14.5301 11.3415 14.8335 11.7679 L 15.5481 12.771 C 15.8516 13.1971 15.7521 13.7888 15.3259 14.0927 L 14.3335 14.7998 C 13.9074 15.1029 13.3157 15.0039 13.0122 14.5776 L 12.2976 13.5742 Z "/>
  <path id="ID0.6422115685418248" stroke="#1A1A1A" stroke-width="0.4737321436405182" d="M 13.1105 15.896 C 12.7898 15.4694 12.8024 14.9184 13.139 14.6657 L 15.3454 13.0081 C 15.6817 12.7556 16.2144 12.8968 16.5349 13.3238 L 19.8342 18.2232 C 20.1549 18.6503 20.1421 19.2014 19.8058 19.4537 L 18.0861 20.7456 C 17.75 20.9981 17.2171 20.8571 16.8966 20.4298 L 13.1105 15.896 Z "/>
  <path id="ID0.37224112963303924" d="M 16.7853 40.0284 C 16.4451 39.7823 16.3691 39.3059 16.6159 38.9653 L 18.2344 36.7298 C 18.4808 36.3889 18.9566 36.3124 19.297 36.5585 L 22.8765 39.5257 C 23.2171 39.7721 23.2929 40.2479 23.0464 40.5888 L 21.7858 42.3307 C 21.5389 42.6713 21.0626 42.7483 20.7225 42.5017 L 16.7853 40.0284 Z " stroke-width="0.2368660718202591"/>
  <path id="ID0.24771741591393948" d="M 27.3085 38.1609 C 26.9475 37.9458 26.8298 37.4785 27.0458 37.1175 L 28.4592 34.747 C 28.675 34.3857 29.1421 34.2675 29.5029 34.4826 L 33.3316 37.1213 C 33.6918 37.3364 33.8098 37.8037 33.5942 38.1652 L 32.4923 40.0115 C 32.277 40.3732 31.8099 40.4919 31.4492 40.2766 L 27.3085 38.1609 Z " stroke-width="0.2368660718202591"/>
</svg>