<svg xmlns="http://www.w3.org/2000/svg" xmlns:xlink="http://www.w3.org/1999/xlink" version="1.1" width="55.469146728515625" height="48.27692794799805" viewBox="0.5706045627593994 5.754014015197754 55.469146728515625 48.27692794799805">
  <!-- Exported by Scratch - http://scratch.mit.edu/ -->
  <g id="ID0.007909030187875032">
    <path id="ID0.9573684432543814" fill="#FBB03B" stroke="#000000" stroke-width="0.8525621010583045" d="M 46.4817 48.5866 C 47.0223 49.3572 46.8359 50.4208 46.0654 50.9618 L 44.27 52.2215 C 43.4995 52.7625 42.4355 52.5763 41.8944 51.8053 L 40.6212 49.9912 C 40.0802 49.2207 40.267 48.157 41.0375 47.616 L 42.8329 46.3562 C 43.6035 45.8156 44.667 46.0016 45.2081 46.7725 L 46.4817 48.5866 Z "/>
    <path id="ID0.41889808466657996" stroke="#1A1A1A" stroke-width="0.8525621010583045" d="M 45.0472 44.3981 C 45.6192 45.1704 45.5895 46.1617 44.9813 46.6123 L 40.9891 49.5675 C 40.3803 50.0177 39.4235 49.7565 38.8515 48.9842 L 32.9763 40.1257 C 32.4047 39.3534 32.4347 38.3615 33.0431 37.9114 L 36.1539 35.6084 C 36.7623 35.1582 37.7194 35.4185 38.2915 36.1916 L 45.0472 44.3981 Z "/>
  </g>
  <path id="ID0.13261056737974286" fill="#FBB03B" stroke="#000000" stroke-width="0.8525621364723157" d="M 38.9515 12.3069 L 52.2302 28.3173 L 39.0859 39.2189 L 25.8072 23.2086 L 38.9515 12.3069 Z "/>
  <path id="ID0.6617734562605619" stroke="#1A1A1A" stroke-width="0.8525621364723157" d="M 33.1984 23.8951 C 29.1441 19.0068 41.2071 20.6792 44.3894 23.7115 L 51.3628 30.9061 C 56.4248 26.176 56.9838 18.2608 52.5029 12.8581 L 50.9814 11.0236 C 46.3312 5.4168 38.0168 4.6416 32.41 9.2918 L 11.0074 27.0428 C 5.4006 31.693 4.6251 40.0076 9.2751 45.6141 L 10.7966 47.4486 C 15.4468 53.0554 23.7614 53.8309 29.3682 49.1807 C 29.3682 49.1807 38.1155 42.3861 38.4848 41.0658 C 38.8541 39.7449 44.0619 36.994 44.0619 36.994 L 33.198 23.8954 Z "/>
  <path id="ID0.7134617334231734" d="M 47.9009 28.8915 C 48.1045 29.1369 48.1892 29.4421 48.1615 29.7365 C 48.1343 30.031 47.9946 30.3152 47.7491 30.5188 C 47.5037 30.7223 47.1985 30.8071 46.9041 30.7793 C 46.6097 30.7522 46.3254 30.6125 46.1219 30.367 C 45.9183 30.1216 45.8336 29.8164 45.8613 29.522 C 45.8885 29.2276 46.0282 28.9433 46.2736 28.7398 C 46.5191 28.5362 46.8243 28.4514 47.1186 28.4792 C 47.4131 28.5064 47.6973 28.6461 47.9009 28.8915 Z " stroke-width="0.42628106823615786"/>
  <path id="ID0.6494691404514015" d="M 44.091 25.5479 C 44.2946 25.7933 44.3794 26.0985 44.3516 26.3929 C 44.3244 26.6874 44.1847 26.9716 43.9393 27.1752 C 43.6938 27.3787 43.3887 27.4635 43.0943 27.4357 C 42.7998 27.4086 42.5156 27.2689 42.312 27.0234 C 42.1084 26.778 42.0237 26.4728 42.0514 26.1784 C 42.0786 25.884 42.2183 25.5997 42.4638 25.3961 C 42.7092 25.1926 43.0144 25.1078 43.3088 25.1356 C 43.6032 25.1628 43.8875 25.3025 44.091 25.5479 Z " stroke-width="0.42628106823615786"/>
  <path id="ID0.3106537782587111" fill="none" stroke="#000000" stroke-width="0.8525621128423075" d="M 29.8231 11.6528 C 29.8231 11.6528 26.1869 10.5586 22.6459 12.0833 C 19.522 13.4284 17.4015 14.7134 17.4015 14.7134 "/>
  <path id="ID0.4428880806080997" fill="none" stroke="#000000" stroke-width="0.8525621128423075" d="M 29.1837 11.5024 C 29.1837 11.5024 27.9998 8.4098 24.3676 9.5531 C 21.1235 10.5741 20.4822 9.2733 20.4822 9.2733 "/>
  <path id="ID0.03648320911452174" d="M 6.7885 49.0607 C 5.6515 48.7566 4.888 47.9168 5.0835 47.1857 L 6.3666 42.3874 C 6.5622 41.6559 7.6426 41.3096 8.7801 41.6136 L 21.1985 45.5026 C 22.3356 45.8066 23.0991 46.6465 22.9031 47.3776 L 21.9033 51.1167 C 21.7078 51.8478 20.6273 52.1946 19.4899 51.8901 L 6.7885 49.0607 Z " stroke-width="0.4262811237266956"/>
  <path id="ID0.08818722935393453" fill="#FBB03B" stroke="#000000" stroke-width="0.8525621497266956" d="M 5.2459 28.8528 C 4.3153 28.9968 3.4438 28.3602 3.2991 27.4301 L 2.9624 25.2627 C 2.8177 24.3325 3.455 23.4606 4.3853 23.3163 L 6.5748 22.9756 C 7.5054 22.8316 8.3768 23.4681 8.5217 24.3986 L 8.8582 26.5657 C 9.0029 27.4958 8.366 28.3675 7.4353 28.5121 L 5.2459 28.8528 Z "/>
  <path id="ID0.8803494698368013" stroke="#1A1A1A" stroke-width="0.8525621497266956" d="M 9.637 29.4171 C 8.6913 29.5892 7.8152 29.1243 7.68 28.3794 L 6.7927 23.4922 C 6.6578 22.7476 7.3147 22.0043 8.2606 21.8325 L 18.8038 20.4771 C 19.7491 20.3052 20.6259 20.7702 20.7607 21.5154 L 21.4517 25.3233 C 21.5866 26.0678 20.9303 26.8113 19.9838 26.9829 L 9.637 29.4171 Z "/>
  <path id="ID0.5842904108576477" d="M 1.1431 44.8526 C 0.9007 44.1364 1.286 43.3591 2.0032 43.1168 L 6.7081 41.5248 C 7.4252 41.282 8.2029 41.6663 8.4451 42.3821 L 10.6013 50.4675 C 10.8437 51.1837 10.4587 51.9608 9.7415 52.2032 L 6.0754 53.4432 C 5.3583 53.6859 4.58 53.3024 4.3382 52.5864 L 1.1431 44.8526 Z " stroke-width="0.42628110731602653"/>
  <path id="ID0.01732994895428419" d="M 29.8563 53.4563 C 29.1018 53.4005 28.5366 52.7427 28.5924 51.9878 L 28.9599 47.0344 C 29.0157 46.2794 29.6722 45.7129 30.4263 45.7688 L 38.7128 46.9334 C 39.4664 46.9892 40.0325 47.6465 39.9763 48.4015 L 39.6898 52.261 C 39.6335 53.016 38.9775 53.5833 38.2234 53.5271 L 29.8563 53.4563 Z " stroke-width="0.4262810945510864"/>
  <path id="ID0.255261589307338" d="M 36.4276 50.9119 C 36.1754 52.0616 35.3714 52.8624 34.6321 52.7004 L 29.7804 51.6366 C 29.0415 51.4747 28.6459 50.411 28.8977 49.2611 L 32.2178 36.6783 C 32.4697 35.5284 33.2739 34.7281 34.0132 34.8902 L 37.7934 35.7191 C 38.5327 35.8811 38.9279 36.9447 38.6761 38.0946 L 36.4276 50.9119 Z " stroke-width="0.4262811019486979"/>
</svg>