<svg xmlns="http://www.w3.org/2000/svg" xmlns:xlink="http://www.w3.org/1999/xlink" version="1.1" width="34.11544418334961" height="39.32769775390625" viewBox="0.3980354070663452 1.4402427673339844 34.11544418334961 39.32769775390625">
  <!-- Exported by Scratch - http://scratch.mit.edu/ -->
  <path id="ID0.5842904108576477" d="M 6.2271 39.7247 C 5.7896 39.6923 5.4614 39.3107 5.494 38.8727 L 5.707 35.999 C 5.7394 35.561 6.1205 35.2323 6.5577 35.2647 L 11.3651 35.9403 C 11.8026 35.9727 12.1308 36.3541 12.0982 36.7921 L 11.932 39.0312 C 11.8996 39.4692 11.5187 39.7984 11.0815 39.7657 L 6.2271 39.7247 Z " stroke-width="0.24730812013149261"/>
  <path id="ID0.03648320911452174" d="M 10.2765 37.4791 C 10.1711 38.1538 9.7336 38.6459 9.2999 38.5781 L 6.4529 38.1335 C 6.0188 38.0657 5.7525 37.4638 5.8578 36.7889 L 7.3365 29.3854 C 7.4418 28.7108 7.8793 28.2186 8.3131 28.2867 L 10.5317 28.6331 C 10.9655 28.7009 11.2321 29.3028 11.1265 29.9777 L 10.2765 37.4791 Z " stroke-width="0.24730812013149261"/>
  <path id="ID0.255261589307338" d="M 18.3548 37.0055 C 18.4943 37.674 18.2589 38.2888 17.829 38.3786 L 15.0082 38.9674 C 14.5787 39.0572 14.1167 38.588 13.977 37.9196 L 12.7469 30.4706 C 12.6071 29.8022 12.8428 29.1876 13.2726 29.0978 L 15.4705 28.6391 C 15.9003 28.5493 16.362 29.0184 16.5017 29.6869 L 18.3548 37.0055 Z " stroke-width="0.24730812013149261"/>
  <path id="ID0.01732994895428419" d="M 14.272 39.7247 C 13.8343 39.6923 13.5063 39.3107 13.5387 38.8727 L 13.7519 35.999 C 13.7843 35.561 14.1652 35.2323 14.6027 35.2647 L 19.4101 35.9403 C 19.8473 35.9727 20.1757 36.3541 20.1431 36.7921 L 19.9769 39.0312 C 19.9443 39.4692 19.5637 39.7984 19.1262 39.7657 L 14.272 39.7247 Z " stroke-width="0.24730812013149261"/>
  <path id="ID0.9573684432543814" fill="#FBB03B" stroke="#000000" stroke-width="0.4946162202471921" d="M 32.1373 16.1884 C 32.6753 16.095 33.1875 16.4557 33.2811 16.9938 L 33.4987 18.2475 C 33.5923 18.7856 33.2316 19.2981 32.6932 19.3916 L 31.4263 19.6116 C 30.8882 19.7051 30.3761 19.3443 30.2825 18.8061 L 30.0649 17.5525 C 29.9716 17.0144 30.332 16.5021 30.8703 16.4086 L 32.1373 16.1884 Z "/>
  <path id="ID0.41889808466657996" stroke="#1A1A1A" stroke-width="0.4946162202471921" d="M 29.5843 15.9063 C 30.131 15.7969 30.644 16.0574 30.7302 16.4881 L 31.2948 19.3138 C 31.3807 19.7446 31.0072 20.1823 30.4605 20.2917 L 24.3589 21.1865 C 23.8122 21.2957 23.299 21.0348 23.2131 20.6043 L 22.773 18.4023 C 22.687 17.9717 23.0602 17.5337 23.6073 17.4244 L 29.5843 15.9063 Z "/>
  <path id="ID0.13261056737974286" fill="#FBB03B" stroke="#000000" stroke-width="0.4946162446681519" d="M 14.5619 7.0424 L 25.9306 11.0888 L 22.6086 20.4224 L 11.2398 16.376 L 14.5619 7.0424 Z "/>
  <path id="ID0.6617734562605619" fill="#006622" stroke="#1A1A1A" stroke-width="0.4946162446681519" d="M 15.1587 14.5767 C 11.6876 13.3412 18.1988 10.5984 20.6847 11.1669 L 26.2953 12.6868 C 27.417 8.8272 25.3488 4.7145 21.5124 3.349 L 20.2098 2.8853 C 16.2284 1.4683 11.8526 3.5471 10.4355 7.5284 L 5.0263 22.7261 C 3.6093 26.7075 5.688 31.0836 9.6691 32.5005 L 10.9717 32.9642 C 14.9531 34.3812 19.3291 32.3025 20.7462 28.3212 C 20.7462 28.3212 23.0934 22.3393 22.8861 21.5715 C 22.6786 20.8033 24.4598 17.8874 24.4598 17.8874 L 15.1586 14.5769 Z "/>
  <path id="ID0.7134617334231734" d="M 22.3796 14.5146 C 22.5632 14.5376 22.7202 14.6331 22.8253 14.7687 C 22.9307 14.904 22.9844 15.0798 22.9614 15.2633 C 22.9383 15.4469 22.8428 15.6039 22.7073 15.709 C 22.5719 15.8144 22.3962 15.8681 22.2126 15.845 C 22.0291 15.822 21.8721 15.7265 21.767 15.5909 C 21.6616 15.4556 21.6078 15.2798 21.6309 15.0963 C 21.6539 14.9128 21.7494 14.7557 21.885 14.6506 C 22.0203 14.5452 22.1961 14.4915 22.3796 14.5146 Z " stroke-width="0.2473081191589166"/>
  <path id="ID0.6494691404514015" d="M 18.9799 13.5568 C 19.1542 13.6189 19.287 13.7459 19.3604 13.901 C 19.4342 14.0558 19.4488 14.239 19.3868 14.4133 C 19.3247 14.5876 19.1977 14.7203 19.0426 14.7938 C 18.8878 14.8675 18.7046 14.8821 18.5303 14.8201 C 18.356 14.7581 18.2233 14.631 18.1498 14.476 C 18.0761 14.3211 18.0615 14.1379 18.1235 13.9637 C 18.1855 13.7894 18.3126 13.6566 18.4676 13.5832 C 18.6225 13.5094 18.8057 13.4948 18.9799 13.5568 Z " stroke-width="0.24730812233407595"/>
  <path id="ID0.3106537782587111" fill="none" stroke="#000000" stroke-width="0.4946162091251475" d="M 9.9473 9.6824 C 9.9473 9.6824 7.8512 9.0046 5.7792 9.847 C 3.9513 10.5902 2.7061 11.3104 2.7061 11.3104 "/>
  <path id="ID0.4428880806080997" fill="none" stroke="#000000" stroke-width="0.4946162091251475" d="M 9.5783 9.5876 C 9.5783 9.5876 8.9282 7.7798 6.8079 8.3999 C 4.9141 8.9536 4.5575 8.1915 4.5575 8.1915 "/>
  <path id="ID0.08818722935393453" fill="#FBB03B" stroke="#000000" stroke-width="0.4946162623908015" d="M 4.0975 26.8477 C 3.7398 27.2606 3.1154 27.306 2.7023 26.9487 L 1.74 26.1161 C 1.3269 25.7589 1.2817 25.1339 1.6392 24.721 L 2.48 23.7486 C 2.8377 23.3357 3.4622 23.2903 3.8755 23.6476 L 4.8376 24.4802 C 5.2506 24.8374 5.2959 25.4621 4.9384 25.8753 L 4.0975 26.8477 Z "/>
  <path id="ID0.8803494698368013" stroke="#1A1A1A" stroke-width="0.4946162623908015" d="M 6.2521 25.4495 C 5.8983 25.8805 5.3362 26.0036 4.9968 25.7248 L 2.7703 23.8954 C 2.4312 23.6166 2.4429 23.0412 2.797 22.6103 L 6.9531 18.0541 C 7.3069 17.6234 7.8693 17.5001 8.2086 17.7792 L 9.9432 19.2047 C 10.2823 19.4834 10.2709 20.0587 9.9166 20.4898 L 6.2521 25.4495 Z "/>
  <path id="ID0.0862209820188582" fill="none" stroke="#000000" stroke-width="2" stroke-linecap="round" d="M 6 22.4 L 20.4 27.4 "/>
</svg>