<svg xmlns="http://www.w3.org/2000/svg" xmlns:xlink="http://www.w3.org/1999/xlink" version="1.1" width="55.08307842603447" height="71.12205318799735" viewBox="2.2383813649856954 0.0980814487183006 55.08307842603447 71.12205318799735">
  <!-- Exported by Scratch - http://scratch.mit.edu/ -->
  <path id="ID0.4510075245052576" fill="none" stroke="#000000" stroke-width="0.850288450717926" d="M 22.2507 15.0741 C 22.2507 15.0741 21.4616 11.3703 18.429 9.0065 C 15.7536 6.9215 13.613 5.684 13.613 5.684 "/>
  <path id="ID0.3390679736621678" fill="none" stroke="#000000" stroke-width="0.850288450717926" d="M 22.0755 14.4432 C 22.0755 14.4432 24.2101 11.9234 21.4675 9.2968 C 19.0174 6.9509 19.8469 5.7664 19.8469 5.7664 "/>
  <path id="ID0.3926795464940369" fill="#FBB03B" stroke="#000000" stroke-width="0.850288450717926" d="M 51.6961 15.0465 C 52.2463 14.2859 53.31 14.1167 54.0706 14.6672 L 55.8417 15.9512 C 56.6019 16.5022 56.7719 17.5659 56.221 18.326 L 54.9234 20.1155 C 54.3724 20.8761 53.3096 21.0457 52.5486 20.4947 L 50.7778 19.2108 C 50.0172 18.6598 49.8476 17.5969 50.3986 16.8359 L 51.6961 15.0465 Z "/>
  <path id="ID0.08230937132611871" stroke="#1A1A1A" stroke-width="0.850288450717926" d="M 48.2125 17.7597 C 48.7541 16.9694 49.6992 16.6756 50.3217 17.1025 L 54.4047 19.9072 C 55.0271 20.3344 55.0918 21.3216 54.5489 22.1119 L 48.1041 30.5298 C 47.562 31.3197 46.6165 31.6135 45.995 31.1858 L 42.8132 29.001 C 42.1912 28.5737 42.1261 27.5865 42.6686 26.7958 L 48.2125 17.7597 Z "/>
  <path id="ID0.5979244690388441" fill="#FBB03B" stroke="#000000" stroke-width="0.850288450717926" d="M 28.678 10.8635 L 49.4229 10.8635 L 49.4229 27.8948 L 28.678 27.8948 L 28.678 10.8635 Z "/>
  <path id="ID0.897375762462616" stroke="#1A1A1A" stroke-width="0.850288450717926" d="M 33.9868 22.7216 C 27.6534 22.7216 36.6171 14.5261 40.971 14.0138 L 50.9343 13.2413 C 50.5261 6.3438 44.8054 0.8751 37.805 0.8751 L 35.4284 0.8751 C 28.164 0.8751 22.2749 6.7642 22.2749 14.0291 L 22.2749 41.7608 C 22.2749 49.0257 28.164 54.9148 35.4284 54.9148 L 37.805 54.9148 C 45.0698 54.9148 50.9589 49.0257 50.9589 41.7608 C 50.9589 41.7608 51.3122 30.7198 50.5338 29.5958 C 49.7554 28.4717 50.9589 22.722 50.9589 22.722 L 33.9868 22.722 Z "/>
  <path id="ID0.5605953140184283" d="M 47.0663 19.0539 C 47.3843 19.0539 47.6726 19.1831 47.8809 19.3919 C 48.0896 19.6002 48.2189 19.8884 48.2189 20.2065 C 48.2189 20.5245 48.0896 20.8127 47.8809 21.021 C 47.6726 21.2298 47.3843 21.359 47.0663 21.359 C 46.7483 21.359 46.4601 21.2298 46.2517 21.021 C 46.043 20.8127 45.9138 20.5245 45.9138 20.2065 C 45.9138 19.8884 46.043 19.6002 46.2517 19.3919 C 46.4601 19.1831 46.7483 19.0539 47.0663 19.0539 Z " stroke-width="0.425144225358963"/>
  <path id="ID0.4209855739027262" d="M 41.1143 19.0539 C 41.4323 19.0539 41.7206 19.1831 41.9289 19.3919 C 42.1376 19.6002 42.2669 19.8884 42.2669 20.2065 C 42.2669 20.5245 42.1376 20.8127 41.9289 21.021 C 41.7206 21.2298 41.4323 21.359 41.1143 21.359 C 40.7963 21.359 40.508 21.2298 40.2997 21.021 C 40.091 20.8127 39.9617 20.5245 39.9617 20.2065 C 39.9617 19.8884 40.091 19.6002 40.2997 19.3919 C 40.508 19.1831 40.7963 19.0539 41.1143 19.0539 Z " stroke-width="0.425144225358963"/>
  <path id="ID0.4123799833469093" d="M 31.2582 64.4899 C 30.9967 65.6344 30.1864 66.4256 29.4509 66.2568 L 24.6225 65.1506 C 23.887 64.9822 23.5027 63.9172 23.7646 62.7732 L 27.193 50.2561 C 27.4548 49.1116 28.2647 48.3204 28.9998 48.4892 L 32.7623 49.3509 C 33.4983 49.5193 33.883 50.5839 33.6211 51.7283 L 31.2582 64.4899 Z " stroke-width="0.425144225358963"/>
  <path id="ID0.2511214418336749" fill="#FFFFFF" stroke="#7F7F7F" stroke-width="1.554037135751265" stroke-linecap="round" d="M 29.3949 13.3239 L 19.0187 21.6729 L 24.3292 33.282 L 14.106 25.236 L 3.0154 27.8722 L 11.4873 19.7613 L 8.0811 7.9141 L 16.1751 15.8206 L 29.3949 13.3239 Z "/>
  <path id="ID0.8371922299265862" fill="#FBB03B" stroke="#000000" stroke-width="0.850288450717926" d="M 15.4598 18.2627 C 14.9152 17.4979 15.0942 16.4358 15.8586 15.8912 L 17.64 14.6222 C 18.4048 14.0776 19.4668 14.2553 20.0114 15.0205 L 21.2941 16.821 C 21.8387 17.5859 21.6601 18.6479 20.8953 19.1933 L 19.1139 20.4624 C 18.3491 21.0066 17.2871 20.8289 16.7425 20.0636 L 15.4598 18.2627 Z "/>
  <path id="ID0.6422115685418248" stroke="#1A1A1A" stroke-width="0.850288450717926" d="M 16.9189 22.43 C 16.3433 21.6643 16.3658 20.6754 16.9699 20.2218 L 20.9302 17.2466 C 21.5339 16.7934 22.49 17.0468 23.0652 17.8133 L 28.9871 26.607 C 29.5627 27.3735 29.5398 28.3628 28.936 28.8156 L 25.8495 31.1344 C 25.2462 31.5876 24.2896 31.3346 23.7144 30.5676 L 16.9189 22.43 Z "/>
  <path id="ID0.37224112963303924" d="M 23.5146 65.7445 C 22.9041 65.3028 22.7676 64.4478 23.2106 63.8365 L 26.1156 59.8239 C 26.5578 59.2122 27.4119 59.0748 28.0228 59.5166 L 34.4476 64.8423 C 35.059 65.2845 35.195 66.1386 34.7524 66.7504 L 32.4898 69.8769 C 32.0468 70.4883 31.1919 70.6264 30.5814 70.1839 L 23.5146 65.7445 Z " stroke-width="0.425144225358963"/>
  <path id="ID0.24771741591393948" d="M 42.4025 62.3927 C 41.7546 62.0066 41.5433 61.1678 41.931 60.5199 L 44.4678 56.2651 C 44.8551 55.6167 45.6935 55.4046 46.341 55.7906 L 53.2131 60.5267 C 53.8597 60.9127 54.0714 61.7515 53.6845 62.4003 L 51.7068 65.7143 C 51.3203 66.3635 50.4819 66.5765 49.8344 66.1901 L 42.4025 62.3927 Z " stroke-width="0.425144225358963"/>
  <path id="ID0.2892227452248335" d="M 49.4174 59.2815 C 49.4476 60.4544 48.86 61.4221 48.1062 61.442 L 43.1541 61.5692 C 42.3995 61.5887 41.7631 60.653 41.7325 59.4796 L 41.945 46.5029 C 41.9148 45.3295 42.502 44.3619 43.2566 44.3423 L 47.1156 44.2428 C 47.8698 44.2237 48.5063 45.159 48.5369 46.3328 L 49.4174 59.2815 Z " stroke-width="0.425144225358963"/>
</svg>