<svg xmlns="http://www.w3.org/2000/svg" xmlns:xlink="http://www.w3.org/1999/xlink" version="1.1" width="44.736907958984375" height="66.04486846923828" viewBox="0.7182908058166504 0.5683579444885254 44.736907958984375 66.04486846923828">
  <!-- Exported by Scratch - http://scratch.mit.edu/ -->
  <g id="ID0.5137489456683397">
    <path id="ID0.7607863727025688" d="M 42.5155 59.3073 C 43.2309 60.2136 43.338 61.3228 42.7544 61.7826 L 38.9276 64.8023 C 38.3439 65.2629 37.2908 64.9002 36.5757 63.9935 L 29.0933 53.6412 C 28.3778 52.7345 28.2703 51.6261 28.854 51.1659 L 31.836 48.8127 C 32.4196 48.3521 33.4728 48.7144 34.1887 49.6219 L 42.5155 59.3073 Z " stroke-width="0.4184097647666931"/>
    <path id="ID0.6961463270708919" d="M 44.9552 37.5391 C 44.9272 38.2805 44.3021 38.8588 43.5585 38.8307 L 38.687 38.647 C 37.9452 38.6194 37.3652 37.9952 37.3933 37.2537 L 38.2401 29.0843 C 38.2673 28.3429 38.8929 27.7646 39.6355 27.7927 L 43.4309 27.9358 C 44.1736 27.9638 44.7527 28.5876 44.7255 29.3291 L 44.9552 37.5391 Z " stroke-width="0.4184097647666931"/>
    <path id="ID0.6872530803084373" fill="#FBB03B" stroke="#000000" stroke-width="0.8368195295333862" d="M 39.8954 6.7086 C 40.4443 5.9655 41.4916 5.8077 42.2355 6.3563 L 43.9673 7.6345 C 44.7104 8.1835 44.869 9.2316 44.3201 9.9755 L 43.0284 11.7253 C 42.4791 12.4692 41.4314 12.6266 40.687 12.0784 L 38.9552 10.7998 C 38.2121 10.2504 38.054 9.2031 38.6029 8.4588 L 39.8954 6.7086 Z "/>
    <path id="ID0.8005538242869079" stroke="#1A1A1A" stroke-width="0.8368195295333862" d="M 36.4435 9.3487 C 36.9841 8.5755 37.9163 8.2939 38.5259 8.7203 L 42.5196 11.5157 C 43.1284 11.9416 43.1832 12.914 42.6427 13.6864 L 36.2268 21.9144 C 35.6866 22.6872 34.7535 22.9684 34.1447 22.542 L 31.0326 20.3642 C 30.4238 19.9383 30.3686 18.9663 30.9096 18.1931 L 36.4435 9.3487 Z "/>
    <path id="ID0.9262749399058521" fill="#FBB03B" stroke="#000000" stroke-width="0.8368385855559565" d="M 2.0909 17.1619 L 25.3557 6.3517 L 32.4188 21.5523 L 9.154 32.3625 L 2.0909 17.1619 Z "/>
    <path id="ID0.5116627449169755" stroke="#1A1A1A" stroke-width="0.8368195295333862" d="M 10.1548 26.3002 C 4.5017 28.9266 6.7958 19.2868 10.4686 17.024 L 27.6791 7.8697 C 24.4548 1.8822 17.0812 -0.6266 10.8335 2.2768 L 8.7121 3.2621 C 2.228 6.2751 -0.5862 13.9743 2.4272 20.4579 L 13.9276 45.2085 C 16.9406 51.6926 24.6393 54.5069 31.1234 51.4939 L 33.2443 50.5081 C 39.7284 47.4956 42.5422 39.7968 39.5293 33.3127 C 39.5293 33.3127 35.2661 23.3119 34.1046 22.6312 C 32.9439 21.9512 31.6335 16.3203 31.6335 16.3203 L 10.1548 26.3002 Z "/>
    <path id="ID0.34248031163588166" d="M 21.8038 17.0107 C 22.1167 17.0107 22.4004 17.1379 22.6054 17.3433 C 22.8109 17.5483 22.9381 17.832 22.9381 18.145 C 22.9381 18.4579 22.8109 18.7416 22.6054 18.9466 C 22.4004 19.1521 22.1167 19.2793 21.8038 19.2793 C 21.4908 19.2793 21.2071 19.1521 21.0021 18.9466 C 20.7966 18.7416 20.6694 18.4579 20.6694 18.145 C 20.6694 17.832 20.7966 17.5483 21.0021 17.3433 C 21.2071 17.1379 21.4908 17.0107 21.8038 17.0107 Z " stroke-width="0.4184097647666931"/>
    <path id="ID0.9438831908628345" d="M 16.4912 19.4789 C 16.8042 19.4789 17.0879 19.6061 17.2929 19.8115 C 17.4983 20.0165 17.6255 20.3002 17.6255 20.6132 C 17.6255 20.9261 17.4983 21.2098 17.2929 21.4148 C 17.0879 21.6203 16.8042 21.7475 16.4912 21.7475 C 16.1782 21.7475 15.8946 21.6203 15.6895 21.4148 C 15.4841 21.2098 15.3569 20.9261 15.3569 20.6132 C 15.3569 20.3002 15.4841 20.0165 15.6895 19.8115 C 15.8946 19.6061 16.1782 19.4789 16.4912 19.4789 Z " stroke-width="0.4184097647666931"/>
    <path id="ID0.557771276216954" fill="none" stroke="#000000" stroke-width="0.8368195295333862" d="M 6.3724 23.4747 C 6.3724 23.4747 4.6029 26.7558 5.3711 30.4609 C 6.0485 33.7295 6.8657 36.0224 6.8657 36.0224 "/>
    <path id="ID0.20610965974628925" fill="none" stroke="#000000" stroke-width="0.8368195295333862" d="M 6.1021 24.06 C 6.1021 24.06 2.8954 24.5885 3.2778 28.3069 C 3.6197 31.6274 2.2427 31.9868 2.2427 31.9868 "/>
    <path id="ID0.350513634737581" fill="#FBB03B" stroke="#000000" stroke-width="0.8368195295333862" d="M 14.3703 51.1165 C 14.3674 52.0403 13.6163 52.7868 12.6916 52.7843 L 10.5389 52.778 C 9.6151 52.7755 8.8674 52.024 8.8703 51.0998 L 8.8766 48.9249 C 8.8795 47.9998 9.631 47.2533 10.5552 47.2558 L 12.7079 47.2625 C 13.6318 47.265 14.3795 48.0165 14.3766 48.9408 L 14.3703 51.1165 Z "/>
    <path id="ID0.32602576492354274" stroke="#1A1A1A" stroke-width="0.8368195295333862" d="M 15.5916 46.9454 C 15.6134 47.8885 15.0276 48.6667 14.2853 48.6834 L 9.4113 48.7926 C 8.6686 48.8094 8.0489 48.0583 8.0276 47.1148 L 8.3322 36.686 C 8.3105 35.7429 8.8966 34.965 9.6393 34.9483 L 13.4368 34.8634 C 14.1795 34.8466 14.7992 35.5973 14.8205 36.5412 L 15.5916 46.9454 Z "/>
    <path id="ID0.1892045489512384" d="M 44.5502 65.0721 C 44.5079 65.6956 43.8728 66.1604 43.1305 66.1094 L 38.2661 65.7788 C 37.5251 65.7295 36.9581 65.1822 37.0008 64.5587 L 38.0058 57.7069 C 38.0481 57.0834 38.6832 56.6186 39.4247 56.6696 L 43.215 56.9265 C 43.956 56.9767 44.5234 57.5236 44.4807 58.1466 L 44.5502 65.0721 Z " stroke-width="0.4184097647666931"/>
    <path id="ID0.3604175937362015" d="M 40.0602 36.4935 C 39.9268 37.6412 39.2192 38.5019 38.4816 38.4157 L 33.6397 37.85 C 32.9017 37.7642 32.4117 36.7638 32.5456 35.6169 L 34.5598 23.0031 C 34.6929 21.8563 35.4008 20.9952 36.1385 21.0814 L 39.9117 21.5215 C 40.6498 21.6081 41.1401 22.6086 41.0058 23.7558 L 40.0602 36.4935 Z " stroke-width="0.4184097647666931"/>
  </g>
</svg>