<svg xmlns="http://www.w3.org/2000/svg" xmlns:xlink="http://www.w3.org/1999/xlink" version="1.1" width="45.22219846963534" height="38.29359815835604" viewBox="6.344100006820516 2.981899985076741 45.22219846963534 38.29359815835604">
  <!-- Exported by Scratch - http://scratch.mit.edu/ -->
  <g id="ID0.8564713546074927">
    <path id="ID0.5989846084266901" d="M 36.7914 34.6918 C 36.5853 35.0841 36.0987 35.2341 35.7059 35.0266 L 33.1307 33.6672 C 32.7374 33.4607 32.5875 32.9742 32.7945 32.5823 L 35.3638 28.4019 C 35.5695 28.0105 36.0561 27.8606 36.4484 28.0667 L 38.4563 29.1262 C 38.8491 29.3336 38.9994 29.8192 38.7933 30.2116 L 36.7914 34.6918 Z " stroke-width="0.9999999684501146"/>
    <path id="ID0.7705372264608741" d="M 34.4028 30.3218 C 35.0867 30.2297 35.6898 30.5103 35.7496 30.951 L 36.1422 33.8368 C 36.2032 34.277 35.6969 34.7096 35.0139 34.8022 L 27.4143 35.5131 C 26.7304 35.6053 26.1273 35.3246 26.0681 34.8853 L 25.7611 32.6358 C 25.701 32.196 26.2082 31.7638 26.8912 31.6712 L 34.4028 30.3218 Z " stroke-width="0.9999999684501146"/>
  </g>
  <path id="ID0.5848010759800673" d="M 31.1663 34.9827 C 31.8565 34.9869 32.4144 35.3515 32.4109 35.7948 L 32.3908 38.7077 C 32.3883 39.151 31.8258 39.508 31.1356 39.5038 L 23.5139 39.1304 C 22.8227 39.1264 22.2658 38.7617 22.2695 38.3193 L 22.2854 36.049 C 22.2879 35.6058 22.8504 35.2488 23.5396 35.2531 L 31.1663 34.9827 Z " stroke-width="1.000000002074363"/>
  <path id="ID0.8454087860882282" d="M 33.3255 39.4507 C 33.2208 39.8823 32.7855 40.1451 32.3538 40.0405 L 29.5253 39.3483 C 29.0938 39.2427 28.8299 38.8082 28.9353 38.3777 L 30.4107 33.6979 C 30.5152 33.2673 30.9506 33.0035 31.3811 33.109 L 33.5864 33.6482 C 34.018 33.7529 34.282 34.1874 34.1773 34.619 L 33.3255 39.4507 Z " stroke-width="1.0000000051420361"/>
  <g id="ID0.20980142103508115">
    <path id="ID0.15353494929149747" fill="#FBB03B" stroke="#000000" stroke-width="0.4999999804225302" d="M 32.3088 18.7734 C 32.8442 18.6421 33.3865 18.9689 33.5184 19.5035 L 33.826 20.7532 C 33.9573 21.2886 33.6297 21.8302 33.0952 21.9636 L 31.8331 22.2751 C 31.2971 22.4072 30.7554 22.0796 30.6234 21.5436 L 30.3145 20.2954 C 30.1845 19.7585 30.5107 19.217 31.0461 19.0857 L 32.3088 18.7734 Z "/>
    <path id="ID0.7635790938511491" stroke="#1A1A1A" stroke-width="0.4999999804225302" d="M 29.7135 18.6681 C 30.2571 18.519 30.793 18.7456 30.9093 19.1736 L 31.6783 21.9841 C 31.7961 22.4121 31.4495 22.8795 30.9073 23.0285 L 24.8157 24.3614 C 24.2729 24.5112 23.7369 24.2832 23.6199 23.8559 L 23.0222 21.6672 C 22.9036 21.2387 23.2508 20.7705 23.7938 20.6221 L 29.7135 18.6681 Z "/>
  </g>
  <g id="ID0.7137223575264215">
    <path id="ID0.5612710667774081" fill="#FBB03B" stroke="#000000" stroke-width="0.5000096308056936" d="M 11.5548 15.441 L 23.06 11.3851 L 26.3898 20.8305 L 14.8846 24.8864 L 11.5548 15.441 Z "/>
    <path id="ID0.3885055026039481" fill="#78006D" stroke="#1A1A1A" stroke-width="0.4999999944357371" d="M 16.7812 20.9669 C 13.2684 22.2055 16.6371 15.9081 18.9517 14.7726 L 24.3261 12.3963 C 22.751 8.6515 18.5105 6.7374 14.6279 8.1061 L 13.3096 8.5714 C 9.2814 9.9914 7.1662 14.4094 8.5855 18.4382 L 14.0066 33.8159 C 15.4266 37.8442 19.8454 39.9587 23.8728 38.5392 L 25.1903 38.0746 C 29.2207 36.6541 31.3345 32.236 29.9158 28.2079 C 29.9158 28.2079 27.9539 22.0158 27.3008 21.5447 C 26.6499 21.0731 26.1934 17.6488 26.1934 17.6488 L 16.7812 20.9669 Z "/>
  </g>
  <g id="ID0.20883694617077708">
    <path id="ID0.16792826633900404" d="M 22.6114 14.3139 C 22.7556 14.1949 22.9351 14.1453 23.1075 14.1626 C 23.28 14.1784 23.4468 14.2612 23.5658 14.4054 C 23.6848 14.5497 23.7344 14.7292 23.7171 14.9016 C 23.7013 15.0741 23.6185 15.2409 23.4743 15.3599 C 23.33 15.4789 23.1505 15.5284 22.9781 15.5112 C 22.8056 15.4953 22.6388 15.4126 22.5198 15.2683 C 22.4008 15.1241 22.3512 14.9446 22.3685 14.7722 C 22.3843 14.5997 22.4671 14.4329 22.6114 14.3139 Z " stroke-width="0.9999999888714742"/>
    <path id="ID0.08473029173910618" d="M 19.946 16.2482 C 20.0902 16.1292 20.2697 16.0797 20.4421 16.0969 C 20.6146 16.1128 20.7814 16.1955 20.9004 16.3398 C 21.0194 16.484 21.069 16.6635 21.0517 16.8359 C 21.0359 17.0084 20.9531 17.1752 20.8089 17.2942 C 20.6646 17.4132 20.4851 17.4628 20.3127 17.4455 C 20.1402 17.4297 19.9734 17.3469 19.8544 17.2027 C 19.7354 17.0584 19.6859 16.8789 19.7031 16.7065 C 19.7189 16.534 19.8017 16.3672 19.946 16.2482 Z " stroke-width="0.9999999888714742"/>
  </g>
  <path id="ID0.9075090778060257" fill="none" stroke="#000000" d="M 10.016 22.2138 C 10.016 22.2138 8.7828 24.0698 9.0397 26.3163 C 9.265 28.2983 9.6256 29.707 9.6256 29.707 " stroke-width="1.0000000368070527"/>
  <path id="ID0.35206371266394854" fill="none" stroke="#000000" d="M 9.8226 22.5471 C 9.8226 22.5471 7.8855 22.6875 7.9101 24.9208 C 7.933 26.9153 7.0941 27.0539 7.0941 27.0539 " stroke-width="1.0000000368070527"/>
  <path id="ID0.5940494854003191" fill="none" stroke="#000000" stroke-width="1.4999999833072113" d="M 9.421 40.5255 L 48.8408 5.6131 "/>
  <g id="ID0.7118512513116002">
    <path id="ID0.7296573664061725" fill="#FBB03B" stroke="#000000" stroke-width="0.4999999777768395" d="M 15.4386 37.1739 C 15.313 37.7109 14.7753 38.0452 14.2377 37.9209 L 12.9855 37.6272 C 12.4458 37.5027 12.1125 36.9647 12.2386 36.4264 L 12.5342 35.1604 C 12.6598 34.6234 13.1967 34.2873 13.7363 34.414 L 14.9872 34.7072 C 15.5242 34.8328 15.8589 35.3691 15.7332 35.9084 L 15.4386 37.1739 Z "/>
    <path id="ID0.7869536513462663" stroke="#1A1A1A" stroke-width="0.4999999777768395" d="M 16.7089 34.9108 C 16.5962 35.463 16.15 35.8371 15.7159 35.7476 L 12.8639 35.1558 C 12.429 35.0645 12.1684 34.5448 12.2825 33.9931 L 13.8615 27.9624 C 13.9752 27.4098 14.4205 27.0361 14.855 27.1265 L 17.0785 27.5865 C 17.512 27.6773 17.7727 28.197 17.6573 28.7481 L 16.7089 34.9108 Z "/>
  </g>
  <path id="ID0.6533192885108292" fill="#E6E6E6" stroke="#000000" d="M 50.8163 3.7319 L 48.5926 9.2817 L 45.0407 5.2841 L 50.8163 3.7319 " stroke-width="0.9999999888714742"/>
</svg>