<svg xmlns="http://www.w3.org/2000/svg" xmlns:xlink="http://www.w3.org/1999/xlink" version="1.1" width="96.04814876609636" height="71.63301052146745" viewBox="-0.36827213313973584 3.2013370320519146 96.04814876609636 71.63301052146745">
  <!-- Exported by Scratch - http://scratch.mit.edu/ -->
  <g id="ID0.8192873732186854">
    <path id="ID0.9573684432543814" fill="#FBB03B" stroke="#000000" stroke-width="0.8525622368086215" d="M 54.1938 33.0643 C 55.127 33.1875 55.7842 34.0443 55.6613 34.9777 L 55.3744 37.1521 C 55.2516 38.0855 54.3946 38.743 53.4608 38.6199 L 51.2634 38.3302 C 50.33 38.2074 49.6731 37.3502 49.7959 36.4168 L 50.0828 34.2424 C 50.2061 33.3092 51.0625 32.6518 51.9963 32.7749 L 54.1938 33.0643 Z "/>
    <path id="ID0.41889808466657996" stroke="#1A1A1A" stroke-width="0.8525622368086215" d="M 50.1388 31.2871 C 51.0945 31.3883 51.8045 32.0808 51.7248 32.8335 L 51.2003 37.7727 C 51.12 38.5256 50.2803 39.0535 49.3247 38.9523 L 38.8264 37.2859 C 37.8709 37.1844 37.1607 36.4913 37.2408 35.7387 L 37.6494 31.8897 C 37.7295 31.1372 38.5686 30.6085 39.525 30.7101 L 50.1388 31.2871 Z "/>
  </g>
  <path id="ID0.13261056737974286" fill="#FBB03B" stroke="#000000" stroke-width="0.8525621784116166" d="M 27.4148 12.6964 L 47.3393 18.669 L 42.4359 35.0267 L 22.5115 29.0541 L 27.4148 12.6964 Z "/>
  <path id="ID0.6617734562605619" stroke="#1A1A1A" stroke-width="0.8525621784116166" d="M 29.1005 25.6142 C 23.0172 23.7907 33.9863 18.5001 38.3155 19.2616 L 48.1067 21.388 C 49.7006 14.6458 45.7809 7.7465 39.0574 5.731 L 36.7744 5.0467 C 29.7969 2.9551 22.4456 6.9159 20.354 13.8935 L 12.3699 40.5284 C 10.2783 47.506 14.239 54.8577 21.2161 56.9491 L 23.4991 57.6335 C 30.4766 59.7251 37.8283 55.7644 39.9199 48.7868 C 39.9199 48.7868 43.438 38.2842 43.014 36.9805 C 42.5897 35.6762 45.4013 30.501 45.4013 30.501 L 29.1003 25.6146 Z "/>
  <path id="ID0.7134617334231734" d="M 42.7183 25.8571 C 43.0237 25.9487 43.2634 26.1558 43.4033 26.4162 C 43.5439 26.6764 43.585 26.9905 43.4934 27.2959 C 43.4019 27.6013 43.1948 27.841 42.9343 27.981 C 42.6741 28.1215 42.3601 28.1626 42.0546 28.0711 C 41.7492 27.9795 41.5096 27.7724 41.3696 27.5119 C 41.2291 27.2517 41.1879 26.9377 41.2795 26.6323 C 41.371 26.3268 41.5782 26.0872 41.8386 25.9472 C 42.0988 25.8067 42.4129 25.7655 42.7183 25.8571 Z " stroke-width="0.4262810892058083"/>
  <path id="ID0.6494691404514015" d="M 37.0017 24.1435 C 37.3071 24.235 37.5467 24.4422 37.6867 24.7026 C 37.8272 24.9628 37.8684 25.2769 37.7768 25.5823 C 37.6853 25.8877 37.4781 26.1274 37.2177 26.2673 C 36.9575 26.4079 36.6434 26.449 36.338 26.3575 C 36.0326 26.2659 35.7929 26.0588 35.653 25.7983 C 35.5124 25.5381 35.4713 25.2241 35.5629 24.9186 C 35.6544 24.6132 35.8615 24.3736 36.122 24.2336 C 36.3822 24.0931 36.6962 24.0519 37.0017 24.1435 Z " stroke-width="0.4262810892058083"/>
  <path id="ID0.03648320911452174" d="M 20.1455 68.1389 C 19.9691 69.3026 19.2188 70.1543 18.4706 70.0409 L 13.5599 69.2965 C 12.8112 69.183 12.3475 68.1475 12.5238 66.9834 L 15.0153 54.2109 C 15.1917 53.0472 15.9419 52.1956 16.6902 52.3094 L 20.517 52.8895 C 21.2652 53.0029 21.7294 54.0384 21.5526 55.2025 L 20.1455 68.1389 Z " stroke-width="0.4262810643792968"/>
  <path id="ID0.5842904108576477" d="M 12.816 69.5964 C 12.1643 69.2129 11.9477 68.3729 12.3319 67.7206 L 14.8508 63.4397 C 15.2346 62.7872 16.0743 62.5695 16.7256 62.9527 L 23.6436 67.6605 C 24.2954 68.0439 24.5122 68.8836 24.128 69.5359 L 22.1648 72.8712 C 21.781 73.5237 20.9414 73.7424 20.2902 73.3588 L 12.816 69.5964 Z " stroke-width="0.4262810591628156"/>
  <path id="ID0.01732994895428419" d="M 29.9348 69.6639 C 29.243 69.3574 28.932 68.5479 29.2386 67.8557 L 31.2511 63.3147 C 31.5577 62.6225 32.3665 62.3099 33.0578 62.6162 L 40.4695 66.5007 C 41.1604 66.8069 41.4724 67.6163 41.1654 68.3083 L 39.5972 71.8465 C 39.2902 72.5385 38.4815 72.8521 37.7903 72.5454 L 29.9348 69.6639 Z " stroke-width="0.4262811002016237"/>
  <path id="ID0.255261589307338" d="M 37.826 66.7048 C 37.899 67.8796 37.3456 68.8703 36.5902 68.9173 L 31.6328 69.2255 C 30.8778 69.2726 30.2055 68.3582 30.1322 67.1834 L 29.8726 54.1725 C 29.7992 52.9976 30.353 52.0074 31.1084 51.9604 L 34.971 51.7204 C 35.7264 51.6733 36.3982 52.5876 36.4716 53.7625 L 37.826 66.7048 Z " stroke-width="0.42628110588266444"/>
  <g id="ID0.13109061866998672">
    <path id="ID0.3106537782587111" fill="none" stroke="#000000" stroke-width="0.852562214759746" d="M 18.2526 21.2472 C 18.2526 21.2472 15.9209 18.2502 12.1509 17.4437 C 8.825 16.7323 6.3521 16.5526 6.3521 16.5526 "/>
    <path id="ID0.4428880806080997" fill="none" stroke="#000000" stroke-width="0.852562214759746" d="M 17.8183 20.7545 C 17.8183 20.7545 18.643 17.5474 15.0194 16.3771 C 11.7831 15.3318 12.0131 13.8999 12.0131 13.8999 "/>
  </g>
  <g id="ID0.13042817823588848">
    <path id="ID0.5940494854003191" fill="none" stroke="#000000" stroke-width="2.5729442983229287" d="M 0.9182 44.2783 L 89.8207 28.3222 "/>
    <path id="ID0.6533192885108292" fill="#E6E6E6" stroke="#000000" d="M 94.3934 27.3298 L 86.1828 33.4744 L 84.548 24.4486 L 94.3934 27.3298 " stroke-width="1.7152961988819526"/>
  </g>
  <g id="ID0.3686451921239495">
    <path id="ID0.08818722935393453" fill="#FBB03B" stroke="#000000" stroke-width="0.852562172098447" d="M 9.458 44.6938 C 8.6794 45.2234 7.619 45.0226 7.089 44.2446 L 5.8544 42.4316 C 5.3245 41.6537 5.5257 40.5926 6.304 40.0628 L 8.1352 38.8152 C 8.9139 38.2857 9.9742 38.4865 10.5045 39.2647 L 11.7388 41.0774 C 12.2687 41.8554 12.0677 42.9161 11.2892 43.4462 L 9.458 44.6938 Z "/>
    <path id="ID0.8803494698368013" stroke="#1A1A1A" stroke-width="0.852562172098447" d="M 13.6662 43.3184 C 12.886 43.8798 11.8951 43.8361 11.4532 43.2213 L 8.5538 39.1882 C 8.1123 38.5737 8.3865 37.6203 9.1671 37.0592 L 18.1075 31.3088 C 18.8875 30.7479 19.879 30.7914 20.3206 31.4065 L 22.5794 34.549 C 23.0209 35.1635 22.7472 36.1168 21.9661 36.6781 L 13.6662 43.3184 Z "/>
  </g>
</svg>