<svg xmlns="http://www.w3.org/2000/svg" xmlns:xlink="http://www.w3.org/1999/xlink" version="1.1" width="78.91969299316406" height="105.50072479248047" viewBox="0.19340848922729492 -0.10303592681884766 78.91969299316406 105.50072479248047">
  <!-- Exported by Scratch - http://scratch.mit.edu/ -->
  <g id="ID0.8559394953772426">
    <g id="ID0.36956786597147584">
      <path id="ID0.8887924607843161" fill="#FBB03B" stroke="#000000" d="M 77.746 75.532 C 78.656 77.787 77.816 80.195 75.869 80.91 L 71.34 82.574 C 69.397 83.291 67.081 82.041 66.172 79.785 L 64.033 74.475 C 63.123 72.22 63.964 69.811 65.909 69.097 L 70.439 67.432 C 72.381 66.716 74.697 67.964 75.605 70.221 L 77.746 75.532 Z " stroke-width="1"/>
      <path id="ID0.19101047795265913" stroke="#1A1A1A" d="M 76.186 64.41 C 77.165 66.691 76.705 69.046 75.16 69.666 L 65.027 73.736 C 63.481 74.357 61.436 73.009 60.459 70.726 L 50.776 45.058 C 49.797 42.775 50.257 40.42 51.801 39.802 L 59.697 36.629 C 61.244 36.007 63.288 37.357 64.266 39.64 L 76.186 64.41 Z " stroke-width="1"/>
    </g>
    <path id="ID0.6703295614570379" fill="#FBB03B" stroke="#000000" d="M 29.887 30.977 L 56.541 30.977 L 56.541 41.379 L 29.887 41.379 L 29.887 30.977 Z " stroke-width="1"/>
    <path id="ID0.8953676312230527" stroke="#1A1A1A" d="M 33.182 97.355 C 32.858 99.431 31.514 100.945 30.178 100.736 L 21.417 99.367 C 20.082 99.16 19.263 97.306 19.587 95.231 L 24.137 72.451 C 24.461 70.376 25.807 68.861 27.141 69.07 L 33.967 70.136 C 35.303 70.344 36.122 72.197 35.798 74.273 L 33.182 97.355 Z " stroke-width="1"/>
    <path id="ID0.2110265581868589" stroke="#1A1A1A" d="M 58.039 95.897 C 58.469 97.955 57.744 99.845 56.422 100.123 L 47.742 101.935 C 46.42 102.211 44.999 100.768 44.57 98.711 L 40.784 75.791 C 40.354 73.734 41.079 71.843 42.402 71.566 L 49.165 70.154 C 50.488 69.879 51.908 71.322 52.338 73.379 L 58.039 95.897 Z " stroke-width="1"/>
    <path id="ID0.07435107231140137" fill="#FF0000" stroke="#1A1A1A" d="M 26.932 29.294 C 17.938 32.23 16.514 41.746 16.514 41.746 L 15.971 68.359 C 15.971 81.363 26.013 81.904 39.016 81.904 C 39.016 81.904 55.106 83.378 59.163 80.058 C 64.441 75.741 64.312 68.71 64.312 61.359 C 64.312 61.359 66.843 51.167 65.794 44.025 C 64.993 38.564 59.169 30.537 54.968 34.191 C 50.997 37.645 49.773 41.496 46.468 40.129 C 38.435 36.806 26.932 29.294 26.932 29.294 Z " stroke-width="1"/>
    <path id="ID0.9993558046407998" fill="none" stroke="#000000" stroke-width="2" d="M 26.189 7.76 C 26.189 7.76 19.977 10.474 16.921 16.64 C 14.226 22.079 12.823 26.28 12.823 26.28 "/>
    <path id="ID0.5059289545752108" fill="none" stroke="#000000" stroke-width="2" d="M 25.146 8.295 C 25.146 8.295 19.96 5.455 16.339 11.209 C 13.105 16.346 10.73 15.317 10.73 15.317 "/>
    <path id="ID0.6021937313489616" stroke="#1A1A1A" d="M 20.723 104.266 C 19.377 104.166 18.368 102.992 18.467 101.643 L 19.124 92.801 C 19.223 91.453 20.395 90.442 21.741 90.541 L 36.533 92.62 C 37.879 92.72 38.888 93.894 38.789 95.241 L 38.278 102.131 C 38.177 103.479 37.006 104.49 35.66 104.391 L 20.723 104.266 Z " stroke-width="1"/>
    <path id="ID0.339677725918591" stroke="#1A1A1A" d="M 45.477 104.266 C 44.131 104.166 43.122 102.992 43.221 101.643 L 43.877 92.801 C 43.977 91.453 45.149 90.442 46.494 90.541 L 61.287 92.62 C 62.633 92.72 63.642 93.894 63.543 95.241 L 63.031 102.131 C 62.931 103.479 61.76 104.49 60.414 104.391 L 45.477 104.266 Z " stroke-width="1"/>
    <g id="ID0.965792934410274">
      <path id="ID0.6905065542086959" fill="#FBB03B" stroke="#000000" d="M 61.891 28.144 C 61.65 31.725 58.55 34.434 54.969 34.192 L 30.893 32.569 C 27.311 32.328 24.603 29.229 24.844 25.647 L 26.104 6.959 C 26.345 3.378 29.445 0.67 33.026 0.912 L 57.102 2.534 C 60.684 2.775 63.392 5.875 63.151 9.457 L 61.891 28.144 Z " stroke-width="1"/>
      <path id="ID0.22811504919081926" d="M 57.098 19.608 C 57.667 19.608 58.183 19.839 58.556 20.213 C 58.93 20.586 59.161 21.102 59.161 21.671 C 59.161 22.24 58.93 22.756 58.556 23.129 C 58.183 23.503 57.667 23.734 57.098 23.734 C 56.529 23.734 56.013 23.503 55.64 23.129 C 55.266 22.756 55.035 22.24 55.035 21.671 C 55.035 21.102 55.266 20.586 55.64 20.213 C 56.013 19.839 56.529 19.608 57.098 19.608 Z " stroke-width="1"/>
      <path id="ID0.013563781976699829" d="M 46.469 18.892 C 47.038 18.892 47.554 19.123 47.927 19.497 C 48.301 19.87 48.532 20.386 48.532 20.955 C 48.532 21.524 48.301 22.04 47.927 22.413 C 47.554 22.787 47.038 23.018 46.469 23.018 C 45.9 23.018 45.384 22.787 45.011 22.413 C 44.637 22.04 44.406 21.524 44.406 20.955 C 44.406 20.386 44.637 19.87 45.011 19.497 C 45.384 19.123 45.9 18.892 46.469 18.892 Z " stroke-width="1"/>
    </g>
    <path id="ID0.7039444665424526" fill="none" stroke="#000000" stroke-width="2" d="M 26.189 8.727 C 26.189 8.727 41.869 7.852 50.601 9.041 C 57.811 10.023 63.012 11.498 63.012 11.498 "/>
    <path id="ID0.6159620601683855" fill="none" stroke="#000000" d="M 46.469 27.794 L 48.171 27.003 L 55.035 29.785 " stroke-width="1"/>
    <path id="ID0.7549523301422596" fill="none" stroke="#000000" d="M 45.322 15.401 L 49.412 17.551 " stroke-width="1"/>
    <path id="ID0.23084450559690595" fill="none" stroke="#000000" d="M 55.035 17.551 L 58.661 16.02 " stroke-width="1"/>
    <path id="ID0.7660430069081485" fill="none" stroke="#1A1A1A" stroke-width="2" d="M 17.07 60.814 C 17.07 60.814 31.738 64.959 42.431 64.982 C 55.097 65.011 63.792 63.652 63.792 63.652 "/>
    <g id="ID0.3789146998897195">
      <path id="ID0.29586266726255417" fill="#FBB03B" stroke="#000000" d="M 12.594 77.452 C 11.51 79.629 9.151 80.598 7.324 79.615 L 3.076 77.33 C 1.25 76.35 0.648 73.789 1.734 71.612 L 4.289 66.49 C 5.373 64.313 7.733 63.344 9.559 64.326 L 13.809 66.611 C 15.633 67.59 16.235 70.152 15.149 72.328 L 12.594 77.452 Z " stroke-width="1"/>
      <path id="ID0.5044724489562213" stroke="#1A1A1A" d="M 19.882 68.907 C 18.824 71.152 16.757 72.371 15.268 71.626 L 5.5 66.743 C 4.011 65.998 3.663 63.574 4.723 61.328 L 17.51 37.056 C 18.569 34.809 20.636 33.592 22.123 34.337 L 29.734 38.143 C 31.224 38.887 31.572 41.312 30.511 43.559 L 19.882 68.907 Z " stroke-width="1"/>
    </g>
  </g>
</svg>