<svg xmlns="http://www.w3.org/2000/svg" xmlns:xlink="http://www.w3.org/1999/xlink" version="1.1" width="87.86042785644531" height="107.41780090332031" viewBox="-0.4269999861717224 -0.020111083984375 87.86042785644531 107.41780090332031">
  <!-- Exported by Scratch - http://scratch.mit.edu/ -->
  <path id="ID0.9416949017904699" stroke="#1A1A1A" d="M 47.789 97.897 C 48.219 99.955 47.494 101.845 46.172 102.123 L 37.492 103.935 C 36.17 104.211 34.749 102.768 34.32 100.711 L 30.534 77.791 C 30.104 75.734 30.829 73.843 32.152 73.566 L 38.915 72.154 C 40.238 71.879 41.658 73.322 42.088 75.379 L 47.789 97.897 Z " stroke-width="1"/>
  <path id="ID0.46610805531963706" stroke="#1A1A1A" d="M 35.227 106.266 C 33.881 106.166 32.872 104.992 32.971 103.643 L 33.627 94.801 C 33.727 93.453 34.899 92.442 36.244 92.541 L 51.037 94.62 C 52.383 94.72 53.392 95.894 53.293 97.241 L 52.781 104.131 C 52.681 105.479 51.51 106.49 50.164 106.391 L 35.227 106.266 Z " stroke-width="1"/>
  <g id="ID0.2288775136694312">
    <path id="ID0.20875820284709334" fill="#FBB03B" stroke="#000000" d="M 81.8928 37.4928 C 84.3216 37.3753 86.3191 38.9603 86.3528 41.0347 L 86.4329 45.8595 C 86.4701 47.932 84.5268 49.706 82.0979 49.8212 L 76.3815 50.0931 C 73.9527 50.2105 71.9538 48.6228 71.9201 46.5507 L 71.8401 41.7259 C 71.8037 39.6552 73.7457 37.8808 76.1746 37.7656 L 81.8928 37.4928 Z " stroke-width="0.9999999597302069"/>
    <path id="ID0.945958181284368" stroke="#1A1A1A" d="M 70.8779 35.3041 C 73.3532 35.1308 75.4257 36.3392 75.5022 38.0031 L 76.0096 48.9109 C 76.0874 50.5752 74.1407 52.0621 71.6627 52.2345 L 44.2382 52.9258 C 41.7602 53.0983 39.6885 51.8894 39.6121 50.2278 L 39.2168 41.7257 C 39.1382 40.0619 41.0849 38.575 43.5642 38.4029 L 70.8779 35.3041 Z " stroke-width="0.9999999597302069"/>
  </g>
  <path id="ID0.3085263096727431" fill="#FBB03B" stroke="#000000" d="M 19.637 32.977 L 46.291 32.977 L 46.291 43.379 L 19.637 43.379 L 19.637 32.977 Z " stroke-width="1"/>
  <path id="ID0.0024098497815430164" stroke="#1A1A1A" d="M 22.932 99.355 C 22.608 101.431 21.264 102.945 19.928 102.736 L 11.167 101.367 C 9.832 101.16 9.013 99.306 9.337 97.231 L 13.887 74.451 C 14.211 72.376 15.557 70.861 16.891 71.07 L 23.717 72.136 C 25.053 72.344 25.872 74.197 25.548 76.273 L 22.932 99.355 Z " stroke-width="1"/>
  <path id="ID0.7240210520103574" fill="#FF0000" stroke="#1A1A1A" d="M 16.682 31.294 C 7.688 34.23 6.264 43.746 6.264 43.746 L 5.721 70.359 C 5.721 83.363 15.763 83.904 28.766 83.904 C 28.766 83.904 44.856 85.378 48.913 82.058 C 54.191 77.741 54.062 70.71 54.062 63.359 C 54.062 63.359 56.593 53.167 55.544 46.025 C 54.743 40.564 48.919 32.537 44.718 36.191 C 40.747 39.645 39.523 43.496 36.218 42.129 C 28.185 38.806 16.682 31.294 16.682 31.294 Z " stroke-width="1"/>
  <path id="ID0.917090707924217" stroke="#1A1A1A" d="M 10.473 106.266 C 9.127 106.166 8.118 104.992 8.217 103.643 L 8.874 94.801 C 8.973 93.453 10.145 92.442 11.491 92.541 L 26.283 94.62 C 27.629 94.72 28.638 95.894 28.539 97.241 L 28.028 104.131 C 27.927 105.479 26.756 106.49 25.41 106.391 L 10.473 106.266 Z " stroke-width="1"/>
  <g id="ID0.32363576674833894">
    <path id="ID0.45087028993293643" fill="none" stroke="#000000" stroke-width="2" d="M 14.347 11.94 C 14.347 11.94 8.752 15.767 6.903 22.397 C 5.272 28.244 4.68 32.632 4.68 32.632 "/>
    <path id="ID0.7596361418254673" fill="none" stroke="#000000" stroke-width="2" d="M 13.422 12.662 C 13.422 12.662 7.797 10.842 5.315 17.171 C 3.1 22.822 0.573 22.256 0.573 22.256 "/>
    <g id="ID0.21988656418398023">
      <path id="ID0.8581283772364259" fill="#FBB03B" stroke="#000000" d="M 53.229 25.289 C 53.662 28.852 51.123 32.092 47.56 32.525 L 23.605 35.432 C 20.042 35.865 16.801 33.327 16.369 29.763 L 14.112 11.17 C 13.679 7.607 16.218 4.367 19.781 3.936 L 43.736 1.028 C 47.3 0.595 50.539 3.133 50.972 6.696 L 53.229 25.289 Z " stroke-width="1"/>
      <path id="ID0.724867484997958" d="M 47.312 17.764 C 47.881 17.764 48.397 17.995 48.77 18.369 C 49.144 18.742 49.375 19.258 49.375 19.827 C 49.375 20.396 49.144 20.912 48.77 21.285 C 48.397 21.659 47.881 21.89 47.312 21.89 C 46.743 21.89 46.227 21.659 45.854 21.285 C 45.48 20.912 45.249 20.396 45.249 19.827 C 45.249 19.258 45.48 18.742 45.854 18.369 C 46.227 17.995 46.743 17.764 47.312 17.764 Z " stroke-width="1"/>
      <path id="ID0.42347611812874675" d="M 36.735 19.047 C 37.304 19.047 37.82 19.278 38.193 19.652 C 38.567 20.025 38.798 20.541 38.798 21.11 C 38.798 21.679 38.567 22.195 38.193 22.568 C 37.82 22.942 37.304 23.173 36.735 23.173 C 36.166 23.173 35.65 22.942 35.277 22.568 C 34.903 22.195 34.672 21.679 34.672 21.11 C 34.672 20.541 34.903 20.025 35.277 19.652 C 35.65 19.278 36.166 19.047 36.735 19.047 Z " stroke-width="1"/>
    </g>
    <path id="ID0.7142404294572771" fill="none" stroke="#000000" stroke-width="2" d="M 14.527 12.891 C 14.527 12.891 29.765 9.099 38.566 8.635 C 45.834 8.251 51.218 8.728 51.218 8.728 "/>
    <path id="ID0.4738870863802731" fill="none" stroke="#000000" d="M 34.57 15.869 L 38.99 17.217 " stroke-width="1"/>
    <path id="ID0.2654105480760336" fill="none" stroke="#000000" d="M 44.514 16.166 L 47.79 13.982 " stroke-width="1"/>
    <path id="ID0.6775715402327478" stroke="#000000" d="M 46.291 29.109 L 38.691 30.609 L 38.691 25.949 L 46.791 25.949 L 46.291 29.109 " stroke-width="1"/>
  </g>
  <path id="ID0.49136113142594695" fill="none" stroke="#1A1A1A" stroke-width="2" d="M 5.586 62.814 C 5.586 62.814 20.643 66.959 31.617 66.982 C 44.617 67.011 53.543 65.652 53.543 65.652 "/>
  <g id="ID0.5075446008704603">
    <path id="ID0.12632533395662904" fill="#FBB03B" stroke="#000000" d="M 55.714 47.5021 C 58.1049 47.948 59.6831 49.9516 59.2388 51.9773 L 58.2037 56.6892 C 57.7614 58.714 55.4634 59.9938 53.0721 59.5451 L 47.4456 58.4925 C 45.0554 58.0472 43.4771 56.0422 43.9209 54.0187 L 44.955 49.3033 C 45.3967 47.2807 47.6956 46.0015 50.0861 46.4497 L 55.714 47.5021 Z " stroke-width="1.000000021915256"/>
    <path id="ID0.23358629643917084" stroke="#1A1A1A" d="M 45.4985 42.8352 C 47.9484 43.2364 49.686 44.8906 49.3782 46.5273 L 47.3591 57.2591 C 47.0498 58.8959 44.8147 59.8933 42.3631 59.4894 L 15.5164 53.8438 C 13.065 53.4414 11.3286 51.7856 11.6374 50.1509 L 13.2111 41.7873 C 13.5182 40.15 15.7556 39.1531 18.2071 39.557 L 45.4985 42.8352 Z " stroke-width="1.000000021915256"/>
  </g>
</svg>