<svg xmlns="http://www.w3.org/2000/svg" xmlns:xlink="http://www.w3.org/1999/xlink" version="1.1" width="25.118383407592773" height="37.83268737792969" viewBox="0.01239997148513794 0.2911999225616455 25.118383407592773 37.83268737792969">
  <!-- Exported by Scratch - http://scratch.mit.edu/ -->
  <path id="ID0.255261589307338" d="M 20.3956 34.9301 C 20.5317 35.5819 20.3021 36.1815 19.8829 36.269 L 17.1322 36.8432 C 16.7133 36.9308 16.2628 36.4733 16.1265 35.8214 L 14.9269 28.5575 C 14.7907 27.9056 15.0205 27.3063 15.4397 27.2187 L 17.5829 26.7714 C 18.0021 26.6838 18.4523 27.1413 18.5886 27.7932 L 20.3956 34.9301 Z " stroke-width="0.2411670982837677"/>
  <path id="ID0.03648320911452174" d="M 12.5179 35.3919 C 12.4152 36.0498 11.9886 36.5297 11.5656 36.4636 L 8.7892 36.03 C 8.366 35.9639 8.1063 35.3769 8.209 34.7188 L 9.6509 27.4992 C 9.7537 26.8413 10.1803 26.3614 10.6033 26.4277 L 12.7668 26.7656 C 13.1898 26.8317 13.4498 27.4187 13.3468 28.0768 L 12.5179 35.3919 Z " stroke-width="0.2411670982837677"/>
  <path id="ID0.9573684432543814" fill="#FBB03B" stroke="#000000" stroke-width="0.4823341965675354" d="M 24.5584 25.7585 C 24.7605 26.2512 24.5249 26.8148 24.0322 27.0171 L 22.8842 27.4881 C 22.3915 27.6905 21.8277 27.4548 21.6254 26.9619 L 21.1493 25.8019 C 20.947 25.3092 21.1828 24.7456 21.6755 24.5432 L 22.8235 24.0722 C 23.3162 23.8701 23.8798 24.1055 24.0821 24.5985 L 24.5584 25.7585 Z "/>
  <path id="ID0.41889808466657996" stroke="#1A1A1A" stroke-width="0.4823341965675354" d="M 24.2898 23.2682 C 24.509 23.7657 24.3689 24.3091 23.977 24.4817 L 21.4052 25.614 C 21.013 25.7864 20.5177 25.5229 20.2985 25.0253 L 18.1624 19.4037 C 17.9435 18.9062 18.0838 18.3626 18.4757 18.1902 L 20.4798 17.3077 C 20.8717 17.1353 21.3673 17.3984 21.5865 17.8964 L 24.2898 23.2682 Z "/>
  <path id="ID0.13261056737974286" fill="#FBB03B" stroke="#000000" stroke-width="0.4823341965675354" d="M 10.5367 6.4571 L 22.3045 6.4571 L 22.3045 16.1183 L 10.5367 16.1183 L 10.5367 6.4571 Z "/>
  <path id="ID0.6617734562605619" fill="#009933" stroke="#1A1A1A" stroke-width="0.4823341965675354" d="M 13.5487 13.1838 C 9.9558 13.1838 15.0408 8.5348 17.5106 8.2442 L 23.1621 7.806 C 22.9306 3.8933 19.6857 0.7912 15.7146 0.7912 L 14.3662 0.7912 C 10.2452 0.7912 6.9048 4.1318 6.9048 8.2529 L 6.9048 23.984 C 6.9048 28.105 10.2454 31.4457 14.3662 31.4457 L 15.7146 31.4457 C 19.8357 31.4457 23.1763 28.105 23.1763 23.984 C 23.1763 23.984 23.3767 17.7209 22.9351 17.0832 C 22.4933 16.4453 23.1763 13.184 23.1763 13.184 L 13.5487 13.184 Z "/>
  <path id="ID0.7134617334231734" d="M 20.9679 11.1032 C 21.1483 11.1032 21.3118 11.1765 21.43 11.295 C 21.5484 11.4131 21.6217 11.5766 21.6217 11.757 C 21.6217 11.9374 21.5484 12.1009 21.43 12.2191 C 21.3118 12.3375 21.1483 12.4108 20.9679 12.4108 C 20.7875 12.4108 20.624 12.3375 20.5059 12.2191 C 20.3874 12.1009 20.3141 11.9374 20.3141 11.757 C 20.3141 11.5766 20.3874 11.4131 20.5059 11.295 C 20.624 11.1765 20.7875 11.1032 20.9679 11.1032 Z " stroke-width="0.2411670982837677"/>
  <path id="ID0.6494691404514015" d="M 17.5916 11.1032 C 17.772 11.1032 17.9355 11.1765 18.0537 11.295 C 18.1721 11.4131 18.2454 11.5766 18.2454 11.757 C 18.2454 11.9374 18.1721 12.1009 18.0537 12.2191 C 17.9355 12.3375 17.772 12.4108 17.5916 12.4108 C 17.4112 12.4108 17.2477 12.3375 17.1295 12.2191 C 17.0111 12.1009 16.9378 11.9374 16.9378 11.757 C 16.9378 11.5766 17.0111 11.4131 17.1295 11.295 C 17.2477 11.1765 17.4112 11.1032 17.5916 11.1032 Z " stroke-width="0.2411670982837677"/>
  <path id="ID0.3106537782587111" fill="none" stroke="#000000" stroke-width="0.4823341965675354" d="M 7.6309 10.1386 C 7.6309 10.1386 5.6145 9.3975 3.5631 10.1386 C 1.7534 10.7924 0.5124 11.4462 0.5124 11.4462 "/>
  <path id="ID0.4428880806080997" fill="none" stroke="#000000" stroke-width="0.4823341965675354" d="M 7.275 10.032 C 7.275 10.032 6.7111 8.2454 4.6211 8.768 C 2.7545 9.2347 2.4364 8.4784 2.4364 8.4784 "/>
  <path id="ID0.08818722935393453" fill="#FBB03B" stroke="#000000" stroke-width="0.4823341965675354" d="M 7.6531 26.7707 C 7.4269 27.253 6.8529 27.4611 6.3706 27.2354 L 5.2467 26.7092 C 4.7644 26.4834 4.5563 25.909 4.7822 25.4266 L 5.3135 24.2912 C 5.5398 23.8089 6.1137 23.6008 6.5963 23.8265 L 7.7199 24.3527 C 8.2022 24.5784 8.4104 25.1527 8.1844 25.6352 L 7.6531 26.7707 Z "/>
  <path id="ID0.8803494698368013" stroke="#1A1A1A" stroke-width="0.4823341965675354" d="M 9.3044 24.8874 C 9.0866 25.3856 8.5917 25.6502 8.1993 25.4785 L 5.6249 24.352 C 5.2327 24.1803 5.0912 23.6372 5.3092 23.1389 L 8.0016 17.7614 C 8.2194 17.2634 8.7145 16.9986 9.1069 17.1705 L 11.1126 18.0484 C 11.5048 18.2201 11.6466 18.7629 11.4283 19.2614 L 9.3044 24.8874 Z "/>
  <path id="ID0.5842904108576477" d="M 8.5691 37.5817 C 8.1424 37.5501 7.8224 37.178 7.8542 36.7509 L 8.0619 33.9485 C 8.0935 33.5214 8.4651 33.2009 8.8915 33.2325 L 13.5795 33.8914 C 14.0062 33.9229 14.3262 34.2948 14.2944 34.7219 L 14.1323 36.9055 C 14.1007 37.3326 13.7293 37.6536 13.3029 37.6217 L 8.5691 37.5817 Z " stroke-width="0.2411670982837677"/>
  <path id="ID0.01732994895428419" d="M 16.4142 37.5817 C 15.9874 37.5501 15.6676 37.178 15.6992 36.7509 L 15.907 33.9485 C 15.9386 33.5214 16.31 33.2009 16.7367 33.2325 L 21.4247 33.8914 C 21.8511 33.9229 22.1714 34.2948 22.1395 34.7219 L 21.9775 36.9055 C 21.9456 37.3326 21.5745 37.6536 21.1478 37.6217 L 16.4142 37.5817 Z " stroke-width="0.2411670982837677"/>
</svg>