<svg xmlns="http://www.w3.org/2000/svg" xmlns:xlink="http://www.w3.org/1999/xlink" version="1.1" width="66.31126403808594" height="36.35062789916992" viewBox="0.7263000011444092 0.46097201108932495 66.31126403808594 36.35062789916992">
  <!-- Exported by Scratch - http://scratch.mit.edu/ -->
  <path id="ID0.13261056737974286" fill="#FBB03B" stroke="#000000" stroke-width="0.8525621891021729" d="M 11.2413 23.3826 L 11.2413 2.5822 L 28.3181 2.5822 L 28.3181 23.3826 L 11.2413 23.3826 Z "/>
  <path id="ID0.6617734562605619" stroke="#1A1A1A" stroke-width="0.8525621891021729" d="M 23.1312 18.0587 C 23.1312 24.4095 14.9137 15.4213 14.4001 11.0558 L 13.6255 1.0663 C 6.7095 1.4755 1.2263 7.2112 1.2263 14.2303 L 1.2263 16.6136 C 1.2263 23.8979 7.1311 29.8023 14.4154 29.8023 L 42.2213 29.8023 C 49.5056 29.8023 55.4104 23.8975 55.4104 16.6136 L 55.4104 14.2303 C 55.4104 6.946 49.5056 1.0412 42.2213 1.0412 C 42.2213 1.0412 31.1508 0.6869 30.0237 1.4674 C 28.8962 2.2484 23.1316 1.0412 23.1316 1.0412 L 23.1316 18.0587 Z "/>
  <path id="ID0.7134617334231734" d="M 20.3548 4.9446 C 20.3548 4.6258 20.4083 4.3367 20.4947 4.1279 C 20.581 3.9186 20.7004 3.789 20.8321 3.789 C 20.9638 3.789 21.0832 3.9186 21.1695 4.1279 C 21.2559 4.3367 21.3094 4.6258 21.3094 4.9446 C 21.3094 5.2635 21.2559 5.5525 21.1695 5.7614 C 21.0832 5.9707 20.9638 6.1003 20.8321 6.1003 C 20.7004 6.1003 20.581 5.9707 20.4947 5.7614 C 20.4083 5.5525 20.3548 5.2635 20.3548 4.9446 Z " stroke-width="0.3261266177867918"/>
  <path id="ID0.6494691404514015" d="M 20.2658 10.9126 C 20.2658 10.5937 20.325 10.3047 20.4205 10.0958 C 20.5159 9.8865 20.6478 9.7569 20.7934 9.7569 C 20.9389 9.7569 21.0709 9.8865 21.1662 10.0958 C 21.2618 10.3047 21.3209 10.5937 21.3209 10.9126 C 21.3209 11.2314 21.2618 11.5204 21.1662 11.7293 C 21.0709 11.9386 20.9389 12.0682 20.7934 12.0682 C 20.6478 12.0682 20.5159 11.9386 20.4205 11.7293 C 20.325 11.5204 20.2658 11.2314 20.2658 10.9126 Z " stroke-width="0.33135124519807524"/>
  <path id="ID0.3106537782587111" fill="none" stroke="#000000" stroke-width="0.8525621981575711" d="M 13.8526 29.648 C 13.8526 29.648 10.0557 29.7011 7.1393 32.2226 C 4.5664 34.447 2.932 36.3116 2.932 36.3116 "/>
  <path id="ID0.4428880806080997" fill="none" stroke="#000000" stroke-width="0.8525621981575711" d="M 13.1977 29.6973 C 13.1977 29.6973 11.1363 27.1057 8.0179 29.291 C 5.2326 31.2427 4.229 30.1958 4.229 30.1958 "/>
  <path id="ID0.03648320911452174" d="M 61.4357 23.5807 C 62.5986 23.7622 63.4469 24.5163 63.3301 25.264 L 62.5636 30.1714 C 62.4468 30.9195 61.4093 31.3786 60.2459 31.197 L 47.4848 28.6483 C 46.3219 28.4667 45.4736 27.7126 45.5908 26.9649 L 46.188 23.1407 C 46.3048 22.393 47.3424 21.9335 48.5057 22.1155 L 61.4357 23.5807 Z " stroke-width="0.4262810945510864"/>
  <path id="ID0.08818722935393453" fill="#FBB03B" stroke="#000000" stroke-width="0.8525621936962217" d="M 12.6889 33.9122 C 11.7947 34.2076 10.8303 33.7233 10.5343 32.8298 L 9.845 30.7474 C 9.549 29.8539 10.0339 28.8889 10.9278 28.5932 L 13.0311 27.8963 C 13.9253 27.601 14.8897 28.0852 15.186 28.9791 L 15.875 31.0611 C 16.171 31.9547 15.6864 32.9194 14.7922 33.2154 L 12.6889 33.9122 Z "/>
  <path id="ID0.8803494698368013" stroke="#1A1A1A" stroke-width="0.8525621936962217" d="M 17.1129 33.7452 C 16.2086 34.0708 15.2678 33.7566 15.0117 33.0442 L 13.3313 28.37 C 13.0755 27.6578 13.6009 26.8164 14.5056 26.4912 L 24.6813 23.4169 C 25.5853 23.0916 26.5268 23.4058 26.7825 24.1185 L 28.0916 27.7605 C 28.3474 28.4726 27.8225 29.3141 26.9172 29.6393 L 17.1129 33.7452 Z "/>
  <path id="ID0.5842904108576477" d="M 63.9068 31.3629 C 63.6463 32.0728 62.8587 32.4364 62.1481 32.1753 L 57.4852 30.464 C 56.7745 30.2033 56.4098 29.4163 56.6702 28.7068 L 60.0624 21.0573 C 60.3229 20.3474 61.1101 19.9837 61.8207 20.2448 L 65.4538 21.5786 C 66.1645 21.8393 66.5301 22.6262 66.2693 23.3356 L 63.9068 31.3629 Z " stroke-width="0.4262810996208203"/>
  <path id="ID0.01732994895428419" d="M 64.8344 21.0109 C 64.6366 21.7412 63.8837 22.1715 63.153 21.9736 L 58.359 20.6741 C 57.6283 20.4762 57.1964 19.7243 57.3942 18.9945 L 60.108 11.0788 C 60.3057 10.3494 61.0584 9.9181 61.789 10.1164 L 65.5243 11.1291 C 66.2549 11.3274 66.6877 12.0791 66.4895 12.8089 L 64.8344 21.0109 Z " stroke-width="0.42628110024650606"/>
  <path id="ID0.255261589307338" d="M 61.566 13.2127 C 62.743 13.195 63.7066 13.7943 63.7181 14.5511 L 63.7933 19.5175 C 63.8049 20.2739 62.86 20.9025 61.683 20.9206 L 48.6743 20.5693 C 47.4973 20.5875 46.5341 19.9878 46.5226 19.2311 L 46.4641 15.3615 C 46.4526 14.6047 47.3974 13.9765 48.5744 13.9584 L 61.566 13.2127 Z " stroke-width="0.42628110024650606"/>
</svg>