<svg xmlns="http://www.w3.org/2000/svg" xmlns:xlink="http://www.w3.org/1999/xlink" version="1.1" width="54.82009891776919" height="39.47367481498598" viewBox="0.11410001859724961 0.18682370529234849 54.82009891776919 39.47367481498598">
  <!-- Exported by Scratch - http://scratch.mit.edu/ -->
  <path id="ID0.5989846084266901" d="M 11.6885 38.9105 C 11.2461 38.884 10.9093 38.5022 10.9368 38.0588 L 11.1165 35.1523 C 11.1429 34.709 11.5247 34.3722 11.9671 34.3996 L 16.8343 35.0218 C 17.2756 35.0483 17.6124 35.4301 17.586 35.8725 L 17.4463 38.1384 C 17.4188 38.5818 17.038 38.9186 16.5957 38.8921 L 11.6885 38.9105 Z " stroke-width="1.0000000246321714"/>
  <path id="ID0.7705372264608741" d="M 15.2319 35.7299 C 15.4032 36.3985 15.1948 37.0302 14.7641 37.1409 L 11.9437 37.8673 C 11.5137 37.9793 11.025 37.5269 10.8534 36.8593 L 9.2611 29.3945 C 9.0898 28.726 9.2982 28.0943 9.7277 27.9842 L 11.926 27.417 C 12.3558 27.306 12.8442 27.7594 13.0158 28.4269 L 15.2319 35.7299 Z " stroke-width="0.9999999966756516"/>
  <g id="ID0.15596213983371854">
    <path id="ID0.5848010759800673" d="M 6.928 36.557 C 6.822 37.239 6.379 37.737 5.941 37.668 L 3.063 37.218 C 2.625 37.15 2.355 36.541 2.461 35.859 L 3.956 28.376 C 4.062 27.693 4.505 27.196 4.942 27.265 L 7.185 27.616 C 7.623 27.684 7.893 28.293 7.787 28.974 L 6.928 36.557 Z " stroke-width="1"/>
    <path id="ID0.8454087860882282" d="M 2.835 38.826 C 2.392 38.794 2.061 38.408 2.093 37.965 L 2.309 35.061 C 2.342 34.618 2.727 34.286 3.169 34.319 L 8.028 35.002 C 8.47 35.034 8.802 35.42 8.769 35.862 L 8.601 38.126 C 8.569 38.569 8.184 38.901 7.741 38.869 L 2.835 38.826 Z " stroke-width="1"/>
  </g>
  <g id="ID0.20980142103508115">
    <path id="ID0.15353494929149747" fill="#FBB03B" stroke="#000000" stroke-width="0.4999999952957319" d="M 27.0301 20.9555 C 27.5723 21.0548 27.9334 21.5749 27.8351 22.1166 L 27.6044 23.3828 C 27.5052 23.925 26.9846 24.2852 26.4424 24.1882 L 25.1633 23.9561 C 24.6202 23.8573 24.2599 23.3367 24.3587 22.7936 L 24.5876 21.5283 C 24.6887 20.9853 25.2079 20.6246 25.7501 20.7238 L 27.0301 20.9555 Z "/>
    <path id="ID0.7635790938511491" stroke="#1A1A1A" stroke-width="0.4999999952957319" d="M 24.705 19.7975 C 25.2621 19.8839 25.6583 20.3099 25.5893 20.7481 L 25.1411 23.6272 C 25.0734 24.0659 24.566 24.3506 24.0103 24.2647 L 17.9065 22.9886 C 17.3499 22.9031 16.9541 22.4758 17.0222 22.038 L 17.3723 19.7964 C 17.4395 19.3568 17.9479 19.0717 18.504 19.1585 L 24.705 19.7975 Z "/>
  </g>
  <g id="ID0.7137223575264215">
    <path id="ID0.5612710667774081" fill="#FBB03B" stroke="#000000" stroke-width="0.500009636198767" d="M 12.5851 5.5885 L 24.0411 9.7813 L 20.599 19.1864 L 9.1429 14.9936 L 12.5851 5.5885 Z "/>
    <path id="ID0.3885055026039481" fill="#78006D" stroke="#1A1A1A" stroke-width="0.5" d="M 13.138 13.181 C 9.64 11.901 16.246 9.187 18.754 9.784 L 24.412 11.371 C 25.58 7.48 23.527 3.305 19.661 1.89 L 18.348 1.41 C 14.337 -0.058 9.894 2.004 8.425 6.015 L 2.821 21.327 C 1.353 25.338 3.416 29.781 7.426 31.249 L 8.738 31.729 C 12.751 33.198 17.193 31.135 18.662 27.125 C 18.662 27.125 21.089 21.1 20.885 20.321 C 20.683 19.543 22.51 16.611 22.51 16.611 L 13.138 13.181 Z "/>
  </g>
  <g id="ID0.20883694617077708">
    <path id="ID0.16792826633900404" d="M 21.869 11.759 C 22.056 11.759 22.226 11.835 22.348 11.958 C 22.471 12.08 22.547 12.25 22.547 12.437 C 22.547 12.624 22.471 12.794 22.348 12.916 C 22.226 13.039 22.056 13.115 21.869 13.115 C 21.682 13.115 21.512 13.039 21.39 12.916 C 21.267 12.794 21.191 12.624 21.191 12.437 C 21.191 12.25 21.267 12.08 21.39 11.958 C 21.512 11.835 21.682 11.759 21.869 11.759 Z " stroke-width="1"/>
    <path id="ID0.08473029173910618" d="M 18.582 11.555 C 18.769 11.555 18.939 11.631 19.061 11.754 C 19.184 11.876 19.26 12.046 19.26 12.233 C 19.26 12.42 19.184 12.59 19.061 12.712 C 18.939 12.835 18.769 12.911 18.582 12.911 C 18.395 12.911 18.225 12.835 18.103 12.712 C 17.98 12.59 17.904 12.42 17.904 12.233 C 17.904 12.046 17.98 11.876 18.103 11.754 C 18.225 11.631 18.395 11.555 18.582 11.555 Z " stroke-width="1"/>
  </g>
  <path id="ID0.9075090778060257" fill="none" stroke="#000000" d="M 7.5241 9.0064 C 7.5241 9.0064 5.2959 9.0292 3.582 10.504 C 2.069 11.804 1.1063 12.8939 1.1063 12.8939 " stroke-width="1.0000000124742954"/>
  <path id="ID0.35206371266394854" fill="none" stroke="#000000" d="M 7.1397 9.0337 C 7.1397 9.0337 5.9352 7.5102 4.1015 8.7855 C 2.4645 9.9251 1.8786 9.309 1.8786 9.309 " stroke-width="1.0000000124742954"/>
  <g id="ID0.585392456036061">
    <path id="ID0.5940494854003191" fill="none" stroke="#000000" stroke-width="1.5000000408160599" d="M 0.8641 29.4271 L 51.5848 15.2777 "/>
    <path id="ID0.6533192885108292" fill="#E6E6E6" stroke="#000000" d="M 54.1842 14.4503 L 49.7567 18.4681 L 48.3116 13.3194 L 54.1842 14.4503 " stroke-width="1.0000000272107066"/>
  </g>
  <g id="ID0.7118512513116002">
    <path id="ID0.7296573664061725" fill="#FBB03B" stroke="#000000" stroke-width="0.4999999942665036" d="M 7.8058 28.2952 C 7.7823 28.8462 7.3161 29.2746 6.7648 29.2524 L 5.4799 29.1966 C 4.9264 29.1747 4.4988 28.7081 4.5226 28.1557 L 4.5776 26.8568 C 4.6012 26.3058 5.0662 25.8758 5.62 25.8999 L 6.9036 25.9554 C 7.4546 25.9789 7.8832 26.4437 7.86 26.9969 L 7.8058 28.2952 Z "/>
    <path id="ID0.7869536513462663" stroke="#1A1A1A" stroke-width="0.4999999942665036" d="M 8.6332 25.8353 C 8.6251 26.3988 8.2562 26.8494 7.813 26.8422 L 4.9008 26.791 C 4.4565 26.7822 4.1038 26.32 4.1133 25.7568 L 4.5434 19.5376 C 4.5523 18.9735 4.9203 18.5235 5.3641 18.5315 L 7.6343 18.57 C 8.0772 18.5786 8.4299 19.0408 8.419 19.6037 L 8.6332 25.8353 Z "/>
  </g>
</svg>