<svg xmlns="http://www.w3.org/2000/svg" xmlns:xlink="http://www.w3.org/1999/xlink" version="1.1" width="41.625376871090324" height="31.375025918941883" viewBox="-0.017062927713587417 0.525337015161321 41.625376871090324 31.375025918941883">
  <!-- Exported by Scratch - http://scratch.mit.edu/ -->
  <g id="ID0.07952108979225159">
    <path id="ID0.07179283257573843" fill="none" stroke="#000000" stroke-width="1.9375259189418843" d="M 0.9517 1.4941 L 29.4917 1.4941 L 29.4917 30.9316 L 0.9517 30.9316 L 0.9517 1.4941 Z "/>
    <path id="ID0.9966579801402986" fill="none" stroke="#000000" stroke-width="0.9906693543017209" stroke-linecap="round" d="M 15.45 1.9847 L 15.45 30.1466 "/>
    <path id="ID0.667331853415817" fill="none" stroke="#000000" stroke-width="0.9906693543017209" stroke-linecap="round" d="M 22.5 1.8375 L 22.5 30.4409 "/>
    <path id="ID0.663609794806689" fill="none" stroke="#000000" stroke-width="0.9906693543017209" stroke-linecap="round" d="M 7.85 1.5922 L 7.85 30.5391 "/>
  </g>
  <g id="ID0.579130438156426">
    <g id="ID0.6090325159020722">
      <path id="ID0.8168984204530716" d="M 10.8618 28.9511 C 11.1603 28.9296 11.3843 28.6687 11.3622 28.3696 L 11.2163 26.41 C 11.1948 26.1109 10.9344 25.8869 10.636 25.9095 L 7.3573 26.3695 C 7.0594 26.3915 6.8354 26.6519 6.8568 26.9504 L 6.97 28.4774 C 6.9921 28.7765 7.2524 29.0005 7.5503 28.9791 L 10.8618 28.9511 Z " stroke-width="0.5957971811294556"/>
      <path id="ID0.8534832675941288" d="M 8.8039 26.2944 C 8.5626 26.6924 8.5733 27.141 8.8301 27.2977 L 10.5085 28.3189 C 10.7646 28.4756 11.168 28.2796 11.4099 27.8816 L 13.9009 23.3744 C 14.1428 22.9764 14.1315 22.5278 13.8759 22.3717 L 12.5675 21.5751 C 12.3113 21.419 11.908 21.6156 11.6661 22.0136 L 8.8039 26.2944 Z " stroke-width="0.5957971811294556"/>
    </g>
    <g id="ID0.5289877979084849">
      <path id="ID0.5824755243957043" d="M 15.6115 27.4199 C 15.6829 27.8798 15.9814 28.2158 16.2776 28.17 L 18.2193 27.8661 C 18.5154 27.8202 18.6971 27.4091 18.6256 26.9486 L 17.6169 21.8992 C 17.5448 21.4392 17.2469 21.1032 16.9514 21.1497 L 15.4381 21.3856 C 15.142 21.4321 14.9602 21.8426 15.0317 22.302 L 15.6115 27.4199 Z " stroke-width="0.5957971811294556"/>
      <path id="ID0.09308562520891428" d="M 18.373 28.9511 C 18.6721 28.9296 18.8955 28.6687 18.874 28.3696 L 18.7281 26.41 C 18.706 26.1109 18.4463 25.8869 18.1478 25.9095 L 14.8691 26.3695 C 14.5706 26.3915 14.3466 26.6519 14.3686 26.9504 L 14.4818 28.4774 C 14.5033 28.7765 14.763 29.0005 15.0621 28.9791 L 18.373 28.9511 Z " stroke-width="0.5957971811294556"/>
    </g>
    <g id="ID0.7599780382588506">
      <path id="ID0.5522712115198374" fill="#FBB03B" stroke="#000000" stroke-width="0.3373468660156848" d="M 11.8648 6.5291 L 4.1346 9.3583 L 6.4569 15.7037 L 14.1872 12.8745 L 11.8648 6.5291 Z "/>
      <path id="ID0.6870047394186258" fill="#2B699C" stroke="#1A1A1A" stroke-width="0.33734036395549777" d="M 11.4218 11.6479 C 13.7818 10.7846 9.324 8.9537 7.6325 9.3559 L 3.8147 10.4265 C 3.027 7.8015 4.4117 4.9839 7.0207 4.0295 L 7.906 3.7053 C 10.6121 2.7151 13.6102 4.1057 14.601 6.8124 L 18.3825 17.1447 C 19.3727 19.8509 17.9809 22.8489 15.2748 23.8391 L 14.3901 24.1632 C 11.6828 25.1546 8.6859 23.7629 7.6945 21.0567 C 7.6945 21.0567 6.0572 16.9916 6.1949 16.4661 C 6.3313 15.9406 5.098 13.9632 5.098 13.9632 L 11.4218 11.6479 Z "/>
    </g>
    <g id="ID0.709036692045629">
      <path id="ID0.6454382967203856" d="M 5.5306 10.6881 C 5.4043 10.6881 5.2899 10.7393 5.207 10.8221 C 5.1242 10.905 5.073 11.0194 5.073 11.1457 C 5.073 11.272 5.1242 11.3864 5.207 11.4692 C 5.2899 11.552 5.4043 11.6032 5.5306 11.6032 C 5.6569 11.6032 5.7713 11.552 5.8541 11.4692 C 5.9369 11.3864 5.9881 11.272 5.9881 11.1457 C 5.9881 11.0194 5.9369 10.905 5.8541 10.8221 C 5.7713 10.7393 5.6569 10.6881 5.5306 10.6881 Z " stroke-width="0.5957971811294556"/>
      <path id="ID0.3061303119175136" d="M 7.7487 10.5511 C 7.6224 10.5511 7.5086 10.6023 7.4258 10.6851 C 7.343 10.7679 7.2917 10.8817 7.2917 11.008 C 7.2917 11.1343 7.343 11.2481 7.4258 11.331 C 7.5086 11.4138 7.6224 11.465 7.7487 11.465 C 7.875 11.465 7.9888 11.4138 8.0716 11.331 C 8.1545 11.2481 8.2057 11.1343 8.2057 11.008 C 8.2057 10.8817 8.1545 10.7679 8.0716 10.6851 C 7.9888 10.6023 7.875 10.5511 7.7487 10.5511 Z " stroke-width="0.5957971811294556"/>
    </g>
    <g id="ID0.7351767676882446">
      <path id="ID0.47890645265579224" fill="none" stroke="#000000" stroke-width="0.33734036395549777" d="M 15.0383 8.9364 C 15.0383 8.9364 16.5177 9.1998 17.4942 10.3729 C 18.3563 11.4066 18.8746 12.2395 18.8746 12.2395 "/>
      <path id="ID0.1934835067950189" fill="none" stroke="#000000" stroke-width="0.33734036395549777" d="M 15.2915 8.9972 C 15.2915 8.9972 16.2627 8.1178 17.3405 9.1712 C 18.3021 10.1125 18.7608 9.7682 18.7608 9.7682 "/>
    </g>
    <path id="ID0.8436069656163454" fill="#FFF05D" stroke="#000000" stroke-width="0.30868251954317094" d="M 15.055 17.8907 C 14.6034 19.1085 15.528 18.6134 16.7858 19.1883 L 24.5425 22.1679 L 36.7682 28.4834 C 38.2315 29.3151 39.8872 28.8355 40.4693 27.256 C 41.052 25.676 40.0802 24.3414 38.4496 23.9207 L 24.9696 21.0085 L 17.1325 18.2654 C 15.8706 17.8728 15.4029 16.9481 15.055 17.8907 Z "/>
    <g id="ID0.5123446495272219">
      <path id="ID0.10209798347204924" fill="#FBB03B" stroke="#000000" stroke-width="0.33734036395549777" d="M 16.5105 19.2294 C 16.6755 19.5619 17.0801 19.6971 17.4137 19.5321 L 18.1901 19.1442 C 18.5255 18.9786 18.6607 18.5735 18.4939 18.2386 L 18.1025 17.4552 C 17.9368 17.1215 17.5299 16.9845 17.1963 17.1519 L 16.4205 17.5392 C 16.0881 17.7054 15.9522 18.1105 16.1185 18.4442 L 16.5105 19.2294 Z "/>
      <path id="ID0.653992504812777" stroke="#1A1A1A" stroke-width="0.33734036395549777" d="M 15.3219 17.9401 C 15.4834 18.2857 15.8325 18.4615 16.1048 18.3351 L 17.885 17.5022 C 18.1561 17.3759 18.2461 16.9934 18.0846 16.6484 L 16.1078 12.936 C 15.9475 12.5911 15.5966 12.4159 15.3255 12.5422 L 13.9391 13.191 C 13.6674 13.3185 13.578 13.7004 13.7395 14.043 L 15.3219 17.9401 Z "/>
    </g>
  </g>
</svg>