<svg xmlns="http://www.w3.org/2000/svg" xmlns:xlink="http://www.w3.org/1999/xlink" version="1.1" width="87.86933899772653" height="107.91880799186715" viewBox="-0.8249999923134284 -0.1881111306572394 87.86933899772653 107.91880799186715">
  <!-- Exported by Scratch - http://scratch.mit.edu/ -->
  <g id="ID0.8543064072728157">
    <path id="ID0.5891902497969568" fill="#FBB03B" stroke="#000000" d="M 81.9789 45.1593 C 84.4057 45.3055 86.2206 47.0978 86.0307 49.1626 L 85.587 53.9673 C 85.4 56.0313 83.2758 57.5857 80.8491 57.4364 L 75.1355 57.0885 C 72.7071 56.9407 70.8932 55.1481 71.0824 53.0845 L 71.5256 48.2779 C 71.7132 46.2158 73.8352 44.661 76.2631 44.811 L 81.9789 45.1593 Z " stroke-width="0.999999995539131"/>
    <path id="ID0.6219352278858423" stroke="#1A1A1A" d="M 71.2653 41.7914 C 73.7452 41.8869 75.6737 43.3146 75.5707 44.9757 L 74.8955 55.8735 C 74.792 57.5369 72.6956 58.8044 70.2152 58.707 L 42.8762 56.428 C 40.3941 56.3321 38.4655 54.9044 38.5691 53.2452 L 39.0964 44.7498 C 39.2004 43.0883 41.2958 41.8211 43.7767 41.9163 L 71.2653 41.7914 Z " stroke-width="0.999999995539131"/>
  </g>
  <path id="ID0.33533959556370974" fill="#FBB03B" stroke="#000000" d="M 19.22 31.627 L 45.874 31.627 L 45.874 43.712 L 19.22 43.712 L 19.22 31.627 Z " stroke-width="1"/>
  <path id="ID0.18383601820096374" stroke="#1A1A1A" d="M 26.302 99.345 C 26.111 101.437 24.864 103.033 23.519 102.91 L 14.689 102.1 C 13.343 101.978 12.408 100.181 12.599 98.089 L 15.691 75.065 C 15.882 72.974 17.129 71.377 18.474 71.501 L 25.354 72.132 C 26.701 72.254 27.636 74.05 27.445 76.144 L 26.302 99.345 Z " stroke-width="1"/>
  <path id="ID0.27272849017754197" stroke="#1A1A1A" d="M 43.575 99.616 C 43.653 101.717 42.621 103.46 41.27 103.511 L 32.411 103.841 C 31.06 103.892 29.901 102.231 29.823 100.132 L 29.934 76.902 C 29.856 74.802 30.887 73.059 32.239 73.008 L 39.142 72.75 C 40.493 72.7 41.651 74.362 41.73 76.462 L 43.575 99.616 Z " stroke-width="1"/>
  <path id="ID0.8361687837168574" fill="#FF0000" stroke="#1A1A1A" d="M 16.265 30.627 C 7.271 33.563 5.847 43.079 5.847 43.079 L 5.304 69.692 C 5.304 82.696 15.346 83.237 28.349 83.237 C 28.349 83.237 44.439 84.711 48.496 81.391 C 53.774 77.074 53.645 70.043 53.645 62.692 C 53.645 62.692 56.176 52.5 55.127 45.358 C 54.326 39.897 48.502 31.87 44.301 35.524 C 40.33 38.978 39.106 42.829 35.801 41.462 C 27.768 38.139 16.265 30.627 16.265 30.627 Z " stroke-width="1"/>
  <path id="ID0.1798582780174911" stroke="#1A1A1A" d="M 30.81 106.599 C 29.464 106.499 28.455 105.325 28.554 103.976 L 29.21 95.134 C 29.31 93.786 30.482 92.775 31.827 92.874 L 46.62 94.953 C 47.966 95.053 48.975 96.227 48.876 97.574 L 48.364 104.464 C 48.264 105.812 47.093 106.823 45.747 106.724 L 30.81 106.599 Z " stroke-width="1"/>
  <path id="ID0.9599147727712989" fill="none" stroke="#000000" stroke-width="2.0000000084687146" d="M 15.5176 13.1454 C 15.5176 13.1454 9.3479 15.9535 6.3865 22.1668 C 3.7746 27.6464 2.4369 31.8672 2.4369 31.8672 "/>
  <path id="ID0.7010863469913602" fill="none" stroke="#000000" stroke-width="2.0000000084687146" d="M 14.4822 13.6976 C 14.4822 13.6976 9.2539 10.9376 5.7207 16.7456 C 2.5671 21.9317 0.175 20.9396 0.175 20.9396 "/>
  <g id="ID0.6453352607786655">
    <path id="ID0.03995070280507207" fill="#FBB03B" stroke="#000000" d="M 52.813 25.122 C 53.246 28.685 50.707 31.925 47.144 32.358 L 23.189 35.265 C 19.626 35.698 16.385 33.16 15.953 29.596 L 13.696 11.002 C 13.263 7.439 15.802 4.199 19.365 3.768 L 43.319 0.86 C 46.883 0.427 50.122 2.965 50.555 6.528 L 52.813 25.122 Z " stroke-width="1"/>
    <path id="ID0.35255270963534713" d="M 46.895 17.097 C 47.464 17.097 47.98 17.328 48.353 17.702 C 48.727 18.075 48.958 18.591 48.958 19.16 C 48.958 19.729 48.727 20.245 48.353 20.618 C 47.98 20.992 47.464 21.223 46.895 21.223 C 46.326 21.223 45.81 20.992 45.437 20.618 C 45.063 20.245 44.832 19.729 44.832 19.16 C 44.832 18.591 45.063 18.075 45.437 17.702 C 45.81 17.328 46.326 17.097 46.895 17.097 Z " stroke-width="1"/>
    <path id="ID0.18488723039627075" d="M 36.318 18.38 C 36.887 18.38 37.403 18.611 37.776 18.985 C 38.15 19.358 38.381 19.874 38.381 20.443 C 38.381 21.012 38.15 21.528 37.776 21.901 C 37.403 22.275 36.887 22.506 36.318 22.506 C 35.749 22.506 35.233 22.275 34.86 21.901 C 34.486 21.528 34.255 21.012 34.255 20.443 C 34.255 19.874 34.486 19.358 34.86 18.985 C 35.233 18.611 35.749 18.38 36.318 18.38 Z " stroke-width="1"/>
  </g>
  <path id="ID0.7667468921281397" fill="none" stroke="#000000" stroke-width="2" d="M 14.11 12.724 C 14.11 12.724 29.348 8.932 38.149 8.468 C 45.417 8.084 50.801 8.561 50.801 8.561 "/>
  <path id="ID0.5995600912719965" fill="none" stroke="#000000" d="M 34.153 15.202 L 38.573 16.55 " stroke-width="1"/>
  <path id="ID0.9205469461157918" fill="none" stroke="#000000" d="M 44.097 15.499 L 47.373 13.315 " stroke-width="1"/>
  <path id="ID0.5887864660471678" stroke="#000000" d="M 45.874 28.883 L 38.274 30.942 L 38.274 24.547 L 46.374 24.547 L 45.874 28.883 " stroke-width="1"/>
  <path id="ID0.07655385602265596" fill="none" stroke="#1A1A1A" stroke-width="2" d="M 5.169 63.147 C 5.169 63.147 20.226 67.292 31.2 67.315 C 44.2 67.344 53.126 65.985 53.126 65.985 "/>
  <g id="ID0.1339944750070572">
    <path id="ID0.20434045884758234" fill="#FBB03B" stroke="#000000" d="M 56.8678 39.1973 C 59.3002 39.2044 61.2136 40.8895 61.1427 42.9634 L 60.9751 47.7847 C 60.9053 49.8557 58.8763 51.5295 56.4437 51.5202 L 50.7205 51.4998 C 48.2894 51.492 46.3741 49.8064 46.4465 47.7341 L 46.6116 42.9108 C 46.6818 40.842 48.7111 39.1672 51.143 39.1785 L 56.8678 39.1973 Z " stroke-width="0.9999999539636006"/>
    <path id="ID0.5275933709926903" stroke="#1A1A1A" d="M 45.9773 36.4508 C 48.4592 36.4043 50.4676 37.7167 50.4601 39.3814 L 50.4102 50.3021 C 50.4016 51.9664 48.3824 53.3532 45.8993 53.3971 L 18.4766 52.6897 C 15.9925 52.7364 13.9851 51.4212 13.9939 49.759 L 14.0335 41.2495 C 14.0395 39.5832 16.0604 38.198 18.5447 38.1535 L 45.9773 36.4508 Z " stroke-width="0.9999999539636006"/>
  </g>
  <path id="ID0.6727687730453908" stroke="#1A1A1A" d="M 14.056 106.599 C 12.71 106.499 11.701 105.325 11.8 103.976 L 12.457 95.134 C 12.556 93.786 13.728 92.775 15.074 92.874 L 29.866 94.953 C 31.212 95.053 32.221 96.227 32.122 97.574 L 31.611 104.464 C 31.51 105.812 30.339 106.823 28.993 106.724 L 14.056 106.599 Z " stroke-width="1"/>
</svg>