<svg xmlns="http://www.w3.org/2000/svg" xmlns:xlink="http://www.w3.org/1999/xlink" version="1.1" width="61.14357376098633" height="55.35829162597656" viewBox="0.20843982696533203 2.0344104766845703 61.14357376098633 55.35829162597656">
  <!-- Exported by Scratch - http://scratch.mit.edu/ -->
  <g id="ID0.007909030187875032">
    <path id="ID0.9573684432543814" fill="#FBB03B" stroke="#000000" stroke-width="0.8525621010583045" d="M 45.4817 51.5866 C 46.0223 52.3572 45.8359 53.4208 45.0654 53.9618 L 43.27 55.2215 C 42.4995 55.7625 41.4355 55.5763 40.8944 54.8053 L 39.6212 52.9912 C 39.0802 52.2207 39.267 51.157 40.0375 50.616 L 41.8329 49.3562 C 42.6035 48.8156 43.667 49.0016 44.2081 49.7725 L 45.4817 51.5866 Z "/>
    <path id="ID0.41889808466657996" stroke="#1A1A1A" stroke-width="0.8525621010583045" d="M 44.0472 47.3981 C 44.6192 48.1704 44.5895 49.1617 43.9813 49.6123 L 39.9891 52.5675 C 39.3803 53.0177 38.4235 52.7565 37.8515 51.9842 L 31.9763 43.1257 C 31.4047 42.3534 31.4347 41.3615 32.0431 40.9114 L 35.1539 38.6084 C 35.7623 38.1582 36.7194 38.4185 37.2915 39.1916 L 44.0472 47.3981 Z "/>
  </g>
  <path id="ID0.13261056737974286" fill="#FBB03B" stroke="#000000" stroke-width="0.8525621283133503" d="M 18.2384 14.3862 L 38.8569 11.642 L 41.1099 28.5695 L 20.4913 31.3137 L 18.2384 14.3862 Z "/>
  <path id="ID0.6617734562605619" stroke="#1A1A1A" stroke-width="0.8525621283133503" d="M 24.5843 24.8697 C 18.2891 25.7076 26.1145 16.3762 30.3741 15.291 L 40.1741 13.2053 C 38.856 6.4038 32.4471 1.7252 25.4893 2.6512 L 23.1268 2.9656 C 15.9062 3.9267 10.8324 10.5589 11.7935 17.7795 L 15.4619 45.3423 C 16.4229 52.563 23.0552 57.6371 30.2754 56.6762 L 32.6379 56.3617 C 39.8585 55.4007 44.9327 48.7685 43.9717 41.5478 C 43.9717 41.5478 42.8623 30.5273 41.9399 29.5131 C 41.017 28.4985 41.4532 22.625 41.4532 22.625 L 24.5844 24.8701 Z "/>
  <path id="ID0.7134617334231734" d="M 37.4486 18.3442 C 37.7647 18.3021 38.0683 18.3924 38.3029 18.5723 C 38.5379 18.7518 38.7045 19.0212 38.7466 19.3372 C 38.7887 19.6533 38.6983 19.9569 38.5184 20.1916 C 38.339 20.4266 38.0696 20.5932 37.7535 20.6353 C 37.4375 20.6773 37.1339 20.587 36.8992 20.4071 C 36.6642 20.2276 36.4976 19.9582 36.4555 19.6422 C 36.4134 19.3261 36.5038 19.0225 36.6837 18.7879 C 36.8631 18.5528 37.1325 18.3862 37.4486 18.3442 Z " stroke-width="0.42628106415667516"/>
  <path id="ID0.6494691404514015" d="M 32.5328 19.6315 C 32.8489 19.5895 33.1525 19.6798 33.3871 19.8597 C 33.6222 20.0391 33.7888 20.3085 33.8308 20.6246 C 33.8729 20.9407 33.7826 21.2443 33.6027 21.4789 C 33.4232 21.714 33.1538 21.8805 32.8378 21.9226 C 32.5217 21.9647 32.2181 21.8744 31.9834 21.6944 C 31.7484 21.515 31.5818 21.2456 31.5397 20.9295 C 31.4977 20.6135 31.588 20.3099 31.7679 20.0752 C 31.9474 19.8402 32.2168 19.6736 32.5328 19.6315 Z " stroke-width="0.42628106415667516"/>
  <path id="ID0.3106537782587111" fill="none" stroke="#000000" stroke-width="0.7211139433306746" d="M 11.9585 20.7096 C 11.9585 20.7096 9.6399 22.056 9.5555 24.7713 C 9.4811 27.1668 9.7425 28.9945 9.7425 28.9945 "/>
  <path id="ID0.4428880806080997" fill="none" stroke="#000000" stroke-width="0.7211139433306746" d="M 11.5861 20.9691 C 11.5861 20.9691 8.5351 19.9242 8.0955 22.4814 C 7.7027 24.7653 6.3643 24.4022 6.3643 24.4022 "/>
  <path id="ID0.03648320911452174" d="M 6.9166 53.7082 C 5.6242 53.3835 4.7493 52.5288 4.9627 51.8001 L 6.3634 47.0171 C 6.5769 46.2879 7.7978 45.9601 9.0907 46.2848 L 23.2124 50.4 C 24.5048 50.7246 25.3798 51.5793 25.1658 52.308 L 24.0744 56.0353 C 23.861 56.7641 22.64 57.0923 21.3471 56.7671 L 6.9166 53.7082 Z " stroke-width="0.4560116917208338"/>
  <path id="ID0.5842904108576477" d="M 0.7554 49.3363 C 0.5619 48.7358 0.984 48.0453 1.6976 47.7944 L 6.3787 46.146 C 7.0921 45.8947 7.8271 46.1781 8.0204 46.7783 L 9.6385 53.5917 C 9.8319 54.1922 9.4102 54.8825 8.6966 55.1334 L 5.0491 56.4174 C 4.3357 56.6687 3.6 56.386 3.4071 55.7856 L 0.7554 49.3363 Z " stroke-width="0.39236905672248495"/>
  <path id="ID0.01732994895428419" d="M 53.348 56.3306 C 52.7018 56.724 51.8594 56.5177 51.4657 55.8711 L 48.8835 51.6281 C 48.4898 50.9815 48.6943 50.1389 49.3402 49.7457 L 56.7581 45.8732 C 57.4037 45.4803 58.2465 45.6857 58.6398 46.3325 L 60.6517 49.6387 C 61.0451 50.2855 60.8414 51.1286 60.1953 51.5214 L 53.348 56.3306 Z " stroke-width="0.42628109390927976"/>
  <path id="ID0.255261589307338" d="M 53.493 49.1394 C 54.5998 49.5563 55.2825 50.4696 55.0176 51.1789 L 53.2792 55.8336 C 53.0146 56.5426 51.9022 56.7802 50.7952 56.3636 L 38.7607 51.2453 C 37.6537 50.8287 36.9716 49.9154 37.2364 49.2061 L 38.591 45.5793 C 38.8558 44.87 39.968 44.6327 41.075 45.0493 L 53.493 49.1394 Z " stroke-width="0.42738799791727605"/>
  <path id="ID0.8803494698368013" stroke="#1A1A1A" stroke-width="0.8525621305753158" d="M 13.9453 41.4383 C 13.3329 42.1791 12.3633 42.388 11.78 41.9054 L 7.9529 38.739 C 7.3701 38.2565 7.3936 37.2647 8.0064 36.524 L 15.1971 28.6951 C 15.8094 27.9548 16.7795 27.7456 17.3627 28.2286 L 20.3443 30.6959 C 20.9272 31.1784 20.9041 32.1699 20.2908 32.9109 L 13.9453 41.4383 Z "/>
  <path id="ID0.08818722935393453" fill="#FBB03B" stroke="#000000" stroke-width="0.8525621305753158" d="M 10.2233 43.8356 C 9.6043 44.5452 8.5277 44.6198 7.8178 44.0016 L 6.1639 42.5608 C 5.4541 41.9426 5.3798 40.8651 5.9984 40.1554 L 7.4534 38.4843 C 8.0724 37.7747 9.149 37.7001 9.8593 38.3184 L 11.5128 39.7591 C 12.2226 40.3773 12.297 41.4543 11.6783 42.1645 L 10.2233 43.8356 Z "/>
</svg>