<svg xmlns="http://www.w3.org/2000/svg" xmlns:xlink="http://www.w3.org/1999/xlink" version="1.1" width="120.4682770233328" height="115.68267826844999" viewBox="3.2378964195164563 4.376275993338478 120.4682770233328 115.68267826844999">
  <!-- Exported by Scratch - http://scratch.mit.edu/ -->
  <g id="ID0.264525493606925">
    <path id="ID0.5010630823671818" stroke="#1A1A1A" d="M 113.7229 68.1842 C 115.8167 68.3747 117.4121 69.6205 117.2915 70.9661 L 116.4866 79.7966 C 116.364 81.1415 114.5686 82.0785 112.4761 81.8874 L 89.4506 78.807 C 87.3578 78.6168 85.7614 77.3706 85.8833 76.0244 L 86.5102 69.1441 C 86.634 67.7985 88.4291 66.8625 90.522 67.0526 L 113.7229 68.1842 Z " stroke-width="0.999999997249299"/>
    <path id="ID0.05127347121015191" stroke="#1A1A1A" d="M 118.0535 82.6441 C 117.5644 83.9021 116.1467 84.5237 114.8855 84.0347 L 106.6217 80.8222 C 105.3618 80.3325 104.7376 78.9161 105.2255 77.6588 L 111.5386 64.12 C 112.0278 62.8621 113.4455 62.2404 114.7047 62.7289 L 121.144 65.2329 C 122.4038 65.7226 123.0283 67.1381 122.5401 68.3963 L 118.0535 82.6441 Z " stroke-width="0.999999997249299"/>
    <g id="ID0.3960058535449207">
      <path id="ID0.7156396033242345" fill="#FBB03B" stroke="#000000" d="M 104.1401 10.4395 C 105.9531 8.8189 108.5029 8.7926 109.8352 10.383 L 112.9352 14.0809 C 114.2691 15.6675 113.8763 18.2693 112.0619 19.8882 L 107.792 23.6986 C 105.979 25.3192 103.4265 25.3442 102.0956 23.7556 L 98.9956 20.0577 C 97.6636 18.4718 98.055 15.8706 99.8695 14.2517 L 104.1401 10.4395 Z " stroke-width="1.000000026240512"/>
      <path id="ID0.35180510487407446" stroke="#1A1A1A" d="M 94.2047 15.6744 C 96.0186 13.9812 98.3896 13.6151 99.4966 14.8596 L 106.7587 23.0143 C 107.8671 24.2583 107.2909 26.6392 105.4743 28.3334 L 84.6037 46.1378 C 82.7871 47.8321 80.4165 48.1973 79.311 46.9544 L 73.6507 40.5981 C 72.5419 39.3551 73.1181 36.9742 74.936 35.2795 L 94.2047 15.6744 Z " stroke-width="1.000000026240512"/>
    </g>
    <path id="ID0.9638574910350144" fill="#FBB03B" stroke="#000000" d="M 48.2276 46.7417 L 70.6289 32.2982 L 76.2657 41.0405 L 53.8643 55.4841 L 48.2276 46.7417 Z " stroke-width="1.0000000228968735"/>
    <path id="ID0.9187152786180377" stroke="#1A1A1A" d="M 77.8919 109.3321 C 78.0742 111.4253 77.1317 113.217 75.7845 113.3339 L 66.9505 114.1017 C 65.6047 114.2203 64.3658 112.6162 64.1837 110.524 L 63.1488 87.3171 C 62.9667 85.2248 63.9109 83.4317 65.2562 83.3153 L 72.1389 82.7164 C 73.4859 82.5986 74.7246 84.2017 74.9069 86.2949 L 77.8919 109.3321 Z " stroke-width="1.0000000070894135"/>
    <path id="ID0.9099954790435731" fill="#FF0000" stroke="#1A1A1A" d="M 44.832 46.9285 C 38.864 54.2699 42.8239 63.0392 42.8239 63.0392 L 56.7888 85.7004 C 63.8356 96.6296 72.5685 91.6426 83.4969 84.5964 C 83.4969 84.5964 97.8184 77.1162 99.4291 72.1275 C 101.5256 65.6391 97.6072 59.7998 93.6237 53.6217 C 93.6237 53.6217 90.228 43.6843 85.4762 38.2503 C 81.8437 34.0946 72.5992 30.5043 71.0485 35.8518 C 69.5828 40.9065 70.6409 44.8064 67.1224 45.4484 C 58.5704 47.0086 44.832 46.9285 44.832 46.9285 Z " stroke-width="1.0000000228968735"/>
    <path id="ID0.6520506041124463" stroke="#1A1A1A" d="M 67.4493 119.0244 C 66.1185 119.2495 64.8578 118.3511 64.631 117.0177 L 63.1525 108.2754 C 62.926 106.9429 63.8219 105.6808 65.1525 105.4547 L 80.0121 103.9327 C 81.3429 103.7076 82.6036 104.6059 82.8299 105.9375 L 83.9829 112.7495 C 84.2075 114.0825 83.3126 115.3444 81.982 115.5704 L 67.4493 119.0244 Z " stroke-width="1.0000000070894135"/>
    <g id="ID0.8802877981215715">
      <path id="ID0.49922366812825203" fill="none" stroke="#000000" stroke-width="2.000000014506682" d="M 34.4999 35.8773 C 34.4999 35.8773 33.0745 42.5044 36.2959 48.587 C 39.1366 53.9515 41.727 57.5424 41.727 57.5424 "/>
      <path id="ID0.13451511971652508" fill="none" stroke="#000000" stroke-width="2.000000014506682" d="M 34.3257 37.0377 C 34.3257 37.0377 28.9921 39.5885 31.5472 45.8884 C 33.8293 51.5126 31.6064 52.8411 31.6064 52.8411 "/>
      <g id="ID0.6903484086506069">
        <path id="ID0.1589315440505743" fill="#FBB03B" stroke="#000000" d="M 71.896 18.8028 C 74.6622 21.0898 75.05 25.1878 72.763 27.954 L 57.3842 46.5493 C 55.0972 49.3156 50.9992 49.7048 48.2329 47.4164 L 33.7994 35.4804 C 31.0332 33.1934 30.6454 29.0954 32.9338 26.3306 L 48.3119 7.7346 C 50.5996 4.9676 54.6962 4.5798 57.4625 6.8668 L 71.896 18.8028 Z " stroke-width="1.000000007253341"/>
        <path id="ID0.6886103297583759" d="M 62.4243 17.4155 C 62.8371 17.0239 63.3705 16.8364 63.8985 16.8511 C 64.4265 16.8643 64.9492 17.0797 65.3408 17.4925 C 65.7324 17.9053 65.9199 18.4386 65.9053 18.9666 C 65.8921 19.4947 65.6767 20.0174 65.2639 20.409 C 64.8511 20.8006 64.3177 20.9881 63.7897 20.9735 C 63.2617 20.9602 62.739 20.7449 62.3474 20.332 C 61.9558 19.9192 61.7683 19.3859 61.7829 18.8579 C 61.7961 18.3298 62.0115 17.8071 62.4243 17.4155 Z " stroke-width="1.000000007253341"/>
        <path id="ID0.6997778164222836" d="M 55.6336 25.6256 C 56.0464 25.234 56.5798 25.0465 57.1078 25.0611 C 57.6358 25.0744 58.1585 25.2897 58.5501 25.7026 C 58.9417 26.1154 59.1293 26.6487 59.1146 27.1767 C 59.1014 27.7048 58.886 28.2275 58.4732 28.6191 C 58.0604 29.0107 57.5271 29.1982 56.9991 29.1836 C 56.471 29.1703 55.9483 28.955 55.5567 28.5421 C 55.1651 28.1293 54.9776 27.596 54.9922 27.068 C 55.0054 26.5399 55.2208 26.0172 55.6336 25.6256 Z " stroke-width="1.000000007253341"/>
      </g>
      <path id="ID0.5838014129549265" fill="none" stroke="#000000" stroke-width="2.000000014506682" d="M 35.285 36.4434 C 35.285 36.4434 43.7305 23.2052 49.7963 16.8116 C 54.805 11.531 59.0394 8.1717 59.0394 8.1717 "/>
      <path id="ID0.010391452815383673" fill="none" stroke="#000000" d="M 51.8758 24.81 L 56.0102 22.746 " stroke-width="1.000000007253341"/>
      <path id="ID0.5287388269789517" fill="none" stroke="#000000" d="M 59.2946 18.1818 L 60.1683 14.3427 " stroke-width="1.000000007253341"/>
      <path id="ID0.4547268385067582" stroke="#000000" d="M 69.4914 26.3491 L 65.0099 32.6678 L 61.8028 29.2869 L 67.6794 23.7124 L 69.4914 26.3491 " stroke-width="1.000000007253341"/>
    </g>
    <path id="ID0.4639964895322919" fill="none" stroke="#1A1A1A" stroke-width="2.000000045793747" d="M 52.5868 79.4323 C 52.5868 79.4323 67.4876 74.7567 76.7231 68.8294 C 87.6647 61.8092 94.4301 55.8301 94.4301 55.8301 "/>
    <g id="ID0.9629460275173187">
      <path id="ID0.8727956595830619" fill="#FBB03B" stroke="#000000" d="M 8.486 63.8397 C 6.0539 63.8136 4.1533 62.1129 4.2408 60.041 L 4.4461 55.221 C 4.5318 53.1503 6.5741 51.4926 9.007 51.5214 L 14.7307 51.5858 C 17.1619 51.6114 19.063 53.3134 18.9755 55.3832 L 18.7719 60.2063 C 18.6862 62.2748 16.643 63.932 14.2111 63.9037 L 8.486 63.8397 Z " stroke-width="1.0000000162754612"/>
      <path id="ID0.595348923932761" stroke="#1A1A1A" d="M 19.3542 66.6711 C 16.8719 66.6993 14.8745 65.3702 14.8949 63.7049 L 15.0291 52.7857 C 15.0508 51.1201 17.08 49.7514 19.5644 49.7255 L 46.9829 50.6469 C 49.467 50.6197 51.4634 51.9505 51.4417 53.6139 L 51.3369 62.1236 C 51.3174 63.7894 49.286 65.158 46.8016 65.1838 L 19.3542 66.6711 Z " stroke-width="1.0000000162754612"/>
    </g>
  </g>
</svg>