<svg xmlns="http://www.w3.org/2000/svg" xmlns:xlink="http://www.w3.org/1999/xlink" version="1.1" width="22.72736167907715" height="37.75135040283203" viewBox="0.7890000343322754 0.3889999985694885 22.72736167907715 37.75135040283203">
  <!-- Exported by Scratch - http://scratch.mit.edu/ -->
  <path id="ID0.255261589307338" d="M 18.161 35.3656 C 18.2251 36.0224 17.9346 36.5884 17.5123 36.6297 L 14.7407 36.9003 C 14.3186 36.9416 13.9238 36.4426 13.8595 35.7858 L 13.457 28.5008 C 13.3927 27.844 13.6834 27.2782 14.1058 27.2369 L 16.2652 27.0261 C 16.6876 26.9848 17.0821 27.4838 17.1464 28.1407 L 18.161 35.3656 Z " stroke-width="0.2389971786477991"/>
  <path id="ID0.03648320911452174" d="M 14.6581 35.2398 C 14.6073 35.8977 14.2227 36.4048 13.7997 36.3721 L 11.0233 36.1576 C 10.6 36.125 10.2982 35.565 10.3489 34.9069 L 11.2171 27.6628 C 11.2679 27.0049 11.6524 26.4978 12.0755 26.5307 L 14.2391 26.6978 C 14.6621 26.7305 14.9642 27.2904 14.9132 27.9486 L 14.6581 35.2398 Z " stroke-width="0.2389971792185523"/>
  <path id="ID0.9573684432543814" fill="#FBB03B" stroke="#000000" stroke-width="0.47799436156566216" d="M 22.8387 26.5511 C 22.9683 27.0627 22.6586 27.5828 22.147 27.7127 L 20.955 28.0148 C 20.4434 28.1446 19.923 27.8348 19.7932 27.323 L 19.4878 26.1184 C 19.358 25.6068 19.668 25.0867 20.1796 24.9569 L 21.3716 24.6548 C 21.8832 24.5252 22.4033 24.8347 22.5331 25.3466 L 22.8387 26.5511 Z "/>
  <path id="ID0.41889808466657996" stroke="#1A1A1A" stroke-width="0.47799436156566216" d="M 22.9223 24.0703 C 23.068 24.589 22.8548 25.1026 22.4462 25.2174 L 19.7651 25.9698 C 19.3563 26.0843 18.907 25.7566 18.7613 25.2379 L 17.4492 19.4245 C 17.3037 18.9058 17.5172 18.3921 17.9258 18.2775 L 20.0151 17.6911 C 20.4237 17.5766 20.8732 17.9038 21.0189 18.423 L 22.9223 24.0703 Z "/>
  <path id="ID0.13261056737974286" fill="#FBB03B" stroke="#000000" stroke-width="0.4779943525791168" d="M 10.4455 6.504 L 22.1074 6.504 L 22.1074 16.0782 L 10.4455 16.0782 L 10.4455 6.504 Z "/>
  <path id="ID0.6617734562605619" fill="#009933" stroke="#1A1A1A" stroke-width="0.4779943525791168" d="M 13.4304 13.1701 C 9.8698 13.1701 14.909 8.563 17.3566 8.275 L 22.9573 7.8407 C 22.7278 3.9632 19.5121 0.889 15.5768 0.889 L 14.2406 0.889 C 10.1566 0.889 6.8462 4.1996 6.8462 8.2836 L 6.8462 23.8731 C 6.8462 27.9571 10.1568 31.2677 14.2406 31.2677 L 15.5768 31.2677 C 19.6608 31.2677 22.9714 27.9571 22.9714 23.8731 C 22.9714 23.8731 23.17 17.6664 22.7324 17.0345 C 22.2945 16.4023 22.9714 13.1703 22.9714 13.1703 L 13.4304 13.1703 Z "/>
  <path id="ID0.7134617334231734" d="M 20.7829 11.1083 C 20.9616 11.1083 21.1237 11.1809 21.2408 11.2983 C 21.3581 11.4154 21.4308 11.5774 21.4308 11.7562 C 21.4308 11.935 21.3581 12.097 21.2408 12.2141 C 21.1237 12.3315 20.9616 12.4041 20.7829 12.4041 C 20.6041 12.4041 20.4421 12.3315 20.325 12.2141 C 20.2076 12.097 20.135 11.935 20.135 11.7562 C 20.135 11.5774 20.2076 11.4154 20.325 11.2983 C 20.4421 11.1809 20.6041 11.1083 20.7829 11.1083 Z " stroke-width="0.2389971762895584"/>
  <path id="ID0.6494691404514015" d="M 17.4369 11.1083 C 17.6157 11.1083 17.7777 11.1809 17.8948 11.2983 C 18.0122 11.4154 18.0848 11.5774 18.0848 11.7562 C 18.0848 11.935 18.0122 12.097 17.8948 12.2141 C 17.7777 12.3315 17.6157 12.4041 17.4369 12.4041 C 17.2581 12.4041 17.0961 12.3315 16.979 12.2141 C 16.8616 12.097 16.789 11.935 16.789 11.7562 C 16.789 11.5774 16.8616 11.4154 16.979 11.2983 C 17.0961 11.1809 17.2581 11.1083 17.4369 11.1083 Z " stroke-width="0.2389971762895584"/>
  <path id="ID0.3106537782587111" fill="none" stroke="#000000" stroke-width="0.4779944213100132" d="M 7.5135 10.6353 C 7.5135 10.6353 5.3847 10.6057 3.7108 11.9732 C 2.2341 13.1797 1.289 14.1991 1.289 14.1991 "/>
  <path id="ID0.4428880806080997" fill="none" stroke="#000000" stroke-width="0.4779944213100132" d="M 7.1456 10.6527 C 7.1456 10.6527 6.0309 9.1681 4.2491 10.344 C 2.6576 11.3942 2.1115 10.7918 2.1115 10.7918 "/>
  <path id="ID0.08818722935393453" fill="#FBB03B" stroke="#000000" stroke-width="0.4779943288594144" d="M 10.0841 27.196 C 9.9653 27.7104 9.4524 28.0315 8.9381 27.9132 L 7.7397 27.6372 C 7.2254 27.5188 6.9042 27.0056 7.0228 26.4912 L 7.3013 25.2805 C 7.4201 24.7661 7.9329 24.445 8.4474 24.5633 L 9.6456 24.8393 C 10.1599 24.9577 10.4811 25.4707 10.3626 25.9853 L 10.0841 27.196 Z "/>
  <path id="ID0.8803494698368013" stroke="#1A1A1A" stroke-width="0.4779943288594144" d="M 11.2921 25.0277 C 11.1848 25.5557 10.7603 25.9151 10.3444 25.8303 L 7.6156 25.2746 C 7.1999 25.1899 6.9497 24.6931 7.0573 24.165 L 8.5469 18.3943 C 8.6543 17.8665 9.0789 17.5069 9.4948 17.5918 L 11.6209 18.025 C 12.0366 18.1098 12.287 18.6062 12.1792 19.1347 L 11.2921 25.0277 Z "/>
  <path id="ID0.5842904108576477" d="M 10.7456 37.5985 C 10.3228 37.5672 10.0056 37.1984 10.0372 36.7751 L 10.2429 33.998 C 10.2742 33.5747 10.6425 33.2571 11.0651 33.2884 L 15.711 33.9414 C 16.1337 33.9727 16.4509 34.3412 16.4193 34.7645 L 16.2587 36.9283 C 16.2274 37.3516 15.8594 37.6697 15.4368 37.6382 L 10.7456 37.5985 Z " stroke-width="0.2389971762895584"/>
  <path id="ID0.01732994895428419" d="M 14.5701 37.5985 C 14.1471 37.5672 13.8302 37.1984 13.8615 36.7751 L 14.0675 33.998 C 14.0988 33.5747 14.4669 33.2571 14.8897 33.2884 L 19.5355 33.9414 C 19.9581 33.9727 20.2755 34.3412 20.2439 34.7645 L 20.0833 36.9283 C 20.0518 37.3516 19.684 37.6697 19.2612 37.6382 L 14.5701 37.5985 Z " stroke-width="0.2389971762895584"/>
</svg>