<svg xmlns="http://www.w3.org/2000/svg" xmlns:xlink="http://www.w3.org/1999/xlink" version="1.1" width="30.540000915527344" height="31.4375" viewBox="0.5583000183105469 0.4940999746322632 30.540000915527344 31.4375">
  <!-- Exported by Scratch - http://scratch.mit.edu/ -->
  <g id="ID0.07952108979225159">
    <path id="ID0.07179283257573843" fill="none" stroke="#000000" stroke-width="1.9375259189418843" d="M 30.0983 1.4941 L 1.5583 1.4941 L 1.5583 30.9316 L 30.0983 30.9316 L 30.0983 1.4941 Z "/>
    <path id="ID0.9966579801402986" fill="none" stroke="#000000" stroke-width="0.9906693543017209" stroke-linecap="round" d="M 15.6 1.9847 L 15.6 30.1466 "/>
    <path id="ID0.667331853415817" fill="none" stroke="#000000" stroke-width="0.9906693543017209" stroke-linecap="round" d="M 8.55 1.8375 L 8.55 30.4409 "/>
    <path id="ID0.663609794806689" fill="none" stroke="#000000" stroke-width="0.9906693543017209" stroke-linecap="round" d="M 23.2 1.5922 L 23.2 30.5391 "/>
  </g>
  <path id="ID0.255261589307338" d="M 19.3081 27.2947 C 19.3874 27.6747 19.2535 28.0243 19.0092 28.0753 L 17.4054 28.4101 C 17.1612 28.4611 16.8985 28.1944 16.8191 27.8144 L 16.1197 23.5792 C 16.0402 23.1992 16.1742 22.8498 16.4186 22.7987 L 17.6682 22.5379 C 17.9126 22.4869 18.1751 22.7536 18.2545 23.1336 L 19.3081 27.2947 Z " stroke-width="0.1406080573797226"/>
  <path id="ID0.03648320911452174" d="M 14.7151 27.5639 C 14.6552 27.9475 14.4065 28.2273 14.1599 28.1888 L 12.5412 27.936 C 12.2944 27.8974 12.143 27.5552 12.2029 27.1715 L 13.0436 22.9622 C 13.1035 22.5787 13.3522 22.2989 13.5988 22.3375 L 14.8602 22.5345 C 15.1069 22.573 15.2584 22.9153 15.1984 23.299 L 14.7151 27.5639 Z " stroke-width="0.1406080573797226"/>
  <path id="ID0.9573684432543814" fill="#FBB03B" stroke="#000000" stroke-width="0.2812161147594452" d="M 21.7351 21.9473 C 21.853 22.2346 21.7156 22.5632 21.4283 22.6812 L 20.759 22.9558 C 20.4718 23.0737 20.143 22.9364 20.0251 22.649 L 19.7475 21.9726 C 19.6295 21.6854 19.767 21.3568 20.0543 21.2388 L 20.7236 20.9642 C 21.0109 20.8464 21.3395 20.9836 21.4574 21.271 L 21.7351 21.9473 Z "/>
  <path id="ID0.41889808466657996" stroke="#1A1A1A" stroke-width="0.2812161147594452" d="M 21.5785 20.4954 C 21.7063 20.7855 21.6246 21.1023 21.3961 21.203 L 19.8967 21.8631 C 19.6681 21.9636 19.3792 21.81 19.2514 21.5199 L 18.0061 18.2423 C 17.8784 17.9522 17.9602 17.6353 18.1887 17.5348 L 19.3572 17.0203 C 19.5857 16.9198 19.8746 17.0732 20.0024 17.3635 L 21.5785 20.4954 Z "/>
  <path id="ID0.13261056737974286" fill="#FBB03B" stroke="#000000" stroke-width="0.2812161147594452" d="M 13.56 10.6941 L 20.421 10.6941 L 20.421 16.3268 L 13.56 16.3268 L 13.56 10.6941 Z "/>
  <path id="ID0.6617734562605619" fill="#006622" stroke="#1A1A1A" stroke-width="0.2812161147594452" d="M 15.3161 14.6159 C 13.2213 14.6159 16.186 11.9054 17.626 11.736 L 20.921 11.4805 C 20.786 9.1992 18.8941 7.3906 16.5789 7.3906 L 15.7928 7.3906 C 13.39 7.3906 11.4425 9.3383 11.4425 11.741 L 11.4425 20.9127 C 11.4425 23.3155 13.3902 25.2632 15.7928 25.2632 L 16.5789 25.2632 C 18.9816 25.2632 20.9293 23.3155 20.9293 20.9127 C 20.9293 20.9127 21.0462 17.2612 20.7887 16.8894 C 20.5311 16.5175 20.9293 14.616 20.9293 14.616 L 15.3161 14.616 Z "/>
  <path id="ID0.7134617334231734" d="M 19.6418 13.4029 C 19.7469 13.4029 19.8423 13.4456 19.9112 13.5147 C 19.9802 13.5835 20.0229 13.6789 20.0229 13.7841 C 20.0229 13.8892 19.9802 13.9846 19.9112 14.0535 C 19.8423 14.1225 19.7469 14.1652 19.6418 14.1652 C 19.5366 14.1652 19.4413 14.1225 19.3724 14.0535 C 19.3033 13.9846 19.2606 13.8892 19.2606 13.7841 C 19.2606 13.6789 19.3033 13.5835 19.3724 13.5147 C 19.4413 13.4456 19.5366 13.4029 19.6418 13.4029 Z " stroke-width="0.1406080573797226"/>
  <path id="ID0.6494691404514015" d="M 17.6732 13.4029 C 17.7784 13.4029 17.8738 13.4456 17.9427 13.5147 C 18.0117 13.5835 18.0544 13.6789 18.0544 13.7841 C 18.0544 13.8892 18.0117 13.9846 17.9427 14.0535 C 17.8738 14.1225 17.7784 14.1652 17.6732 14.1652 C 17.5681 14.1652 17.4727 14.1225 17.4038 14.0535 C 17.3348 13.9846 17.2921 13.8892 17.2921 13.7841 C 17.2921 13.6789 17.3348 13.5835 17.4038 13.5147 C 17.4727 13.4456 17.5681 13.4029 17.6732 13.4029 Z " stroke-width="0.1406080573797226"/>
  <path id="ID0.3106537782587111" fill="none" stroke="#000000" stroke-width="0.2812161147594452" d="M 11.8659 12.8404 C 11.8659 12.8404 10.6902 12.4083 9.4942 12.8404 C 8.4391 13.2216 7.7155 13.6028 7.7155 13.6028 "/>
  <path id="ID0.4428880806080997" fill="none" stroke="#000000" stroke-width="0.2812161147594452" d="M 11.6583 12.7783 C 11.6583 12.7783 11.3296 11.7367 10.1111 12.0414 C 9.0228 12.3134 8.8373 11.8725 8.8373 11.8725 "/>
  <path id="ID0.08818722935393453" fill="#FBB03B" stroke="#000000" stroke-width="0.2812161147594452" d="M 11.8788 22.5375 C 11.7469 22.8187 11.4122 22.94 11.131 22.8084 L 10.4758 22.5016 C 10.1946 22.37 10.0732 22.0351 10.205 21.7539 L 10.5147 21.0919 C 10.6466 20.8107 10.9813 20.6893 11.2626 20.8209 L 11.9177 21.1277 C 12.199 21.2593 12.3203 21.5941 12.1885 21.8755 L 11.8788 22.5375 Z "/>
  <path id="ID0.8803494698368013" stroke="#1A1A1A" stroke-width="0.2812161147594452" d="M 12.8415 21.4395 C 12.7146 21.73 12.426 21.8842 12.1973 21.7841 L 10.6963 21.1273 C 10.4676 21.0272 10.3851 20.7105 10.5122 20.4201 L 12.082 17.2848 C 12.2089 16.9944 12.4976 16.84 12.7264 16.9403 L 13.8958 17.4521 C 14.1244 17.5522 14.2071 17.8687 14.0799 18.1594 L 12.8415 21.4395 Z "/>
  <path id="ID0.5842904108576477" d="M 12.4128 28.8406 C 12.1641 28.8222 11.9775 28.6053 11.9961 28.3563 L 12.1171 26.7224 C 12.1355 26.4734 12.3522 26.2865 12.6008 26.3049 L 15.3341 26.6891 C 15.5828 26.7075 15.7694 26.9243 15.7509 27.1733 L 15.6564 28.4464 C 15.6379 28.6954 15.4214 28.8825 15.1728 28.864 L 12.4128 28.8406 Z " stroke-width="0.1406080573797226"/>
  <path id="ID0.01732994895428419" d="M 16.9868 28.8406 C 16.7379 28.8222 16.5515 28.6053 16.5699 28.3563 L 16.6911 26.7224 C 16.7095 26.4734 16.9261 26.2865 17.1748 26.3049 L 19.9081 26.6891 C 20.1567 26.7075 20.3434 26.9243 20.3248 27.1733 L 20.2303 28.4464 C 20.2118 28.6954 19.9954 28.8825 19.7467 28.864 L 16.9868 28.8406 Z " stroke-width="0.1406080573797226"/>
  <path id="ID0.7907564179040492" fill="none" stroke="#000000" stroke-width="2" stroke-linecap="round" d="M 20.6 20.4 L 12.6 20.5 "/>
</svg>