<svg xmlns="http://www.w3.org/2000/svg" xmlns:xlink="http://www.w3.org/1999/xlink" version="1.1" width="122.03970336914062" height="97.79067993164062" viewBox="0.0012030601501464844 -0.059999942779541016 122.03970336914062 97.79067993164062">
  <!-- Exported by Scratch - http://scratch.mit.edu/ -->
  <g id="ID0.7969162878580391">
    <path id="ID0.4377017393708229" stroke="#1A1A1A" d="M 58.537 88.23 C 58.967 90.288 58.242 92.178 56.92 92.456 L 48.24 94.268 C 46.918 94.544 45.497 93.101 45.068 91.044 L 41.282 68.124 C 40.852 66.067 41.577 64.176 42.9 63.899 L 49.663 62.487 C 50.986 62.212 52.406 63.655 52.836 65.712 L 58.537 88.23 Z " stroke-width="1"/>
    <path id="ID0.45468829572200775" stroke="#1A1A1A" d="M 45.975 96.599 C 44.629 96.499 43.62 95.325 43.719 93.976 L 44.375 85.134 C 44.475 83.786 45.647 82.775 46.992 82.874 L 61.785 84.953 C 63.131 85.053 64.14 86.227 64.041 87.574 L 63.529 94.464 C 63.429 95.812 62.258 96.823 60.912 96.724 L 45.975 96.599 Z " stroke-width="1"/>
    <g id="ID0.4049472501501441">
      <path id="ID0.5724867065437138" fill="#FBB03B" stroke="#000000" d="M 117.727 53.379 C 120.077 54.003 121.5 56.118 120.906 58.106 L 119.52 62.728 C 118.929 64.712 116.541 65.816 114.19 65.191 L 108.659 63.719 C 106.309 63.095 104.885 60.978 105.479 58.992 L 106.863 54.369 C 107.456 52.386 109.844 51.28 112.193 51.907 L 117.727 53.379 Z " stroke-width="1"/>
      <path id="ID0.16239094827324152" stroke="#1A1A1A" d="M 107.89 47.959 C 110.303 48.542 111.911 50.322 111.481 51.931 L 108.663 62.482 C 108.233 64.09 105.928 64.92 103.515 64.333 L 77.167 56.689 C 74.753 56.104 73.146 54.324 73.576 52.718 L 75.772 44.495 C 76.202 42.886 78.506 42.057 80.92 42.643 L 107.89 47.959 Z " stroke-width="1"/>
    </g>
    <path id="ID0.3493273025378585" fill="#FBB03B" stroke="#000000" d="M 51.0569 22.9357 L 75.3707 33.8559 L 71.1086 43.3455 L 46.7948 32.4253 L 51.0569 22.9357 Z " stroke-width="0.9999814437246365"/>
    <path id="ID0.3284119381569326" stroke="#1A1A1A" d="M 33.68 89.688 C 33.356 91.764 32.012 93.278 30.676 93.069 L 21.915 91.7 C 20.58 91.493 19.761 89.639 20.085 87.564 L 24.635 64.784 C 24.959 62.709 26.305 61.194 27.639 61.403 L 34.465 62.469 C 35.801 62.677 36.62 64.53 36.296 66.606 L 33.68 89.688 Z " stroke-width="1"/>
    <path id="ID0.18648317782208323" fill="#FF0000" stroke="#1A1A1A" d="M 49.09 20.187 C 39.684 19.179 34.485 27.276 34.485 27.276 L 23.085 51.33 C 17.756 63.191 26.695 67.8 38.556 73.128 C 38.556 73.128 52.629 81.066 57.691 79.7 C 64.276 77.925 67.038 71.459 70.05 64.753 C 70.05 64.753 76.535 56.493 78.506 49.548 C 80.012 44.239 77.988 34.529 72.658 36.142 C 67.621 37.665 64.926 40.676 62.472 38.076 C 56.506 31.751 49.09 20.187 49.09 20.187 Z " stroke-width="1"/>
    <path id="ID0.05795800592750311" stroke="#1A1A1A" d="M 21.221 96.599 C 19.875 96.499 18.866 95.325 18.965 93.976 L 19.622 85.134 C 19.721 83.786 20.893 82.775 22.239 82.874 L 37.031 84.953 C 38.377 85.053 39.386 86.227 39.287 87.574 L 38.776 94.464 C 38.675 95.812 37.504 96.823 36.158 96.724 L 21.221 96.599 Z " stroke-width="1"/>
    <g id="ID0.9729043105617166">
      <path id="ID0.7421207218430936" fill="none" stroke="#000000" stroke-width="2" d="M 58.25 9.464 C 58.25 9.464 52.51 5.858 45.693 6.803 C 39.679 7.637 35.42 8.843 35.42 8.843 "/>
      <path id="ID0.41994401486590505" fill="none" stroke="#000000" stroke-width="2" d="M 57.22 8.903 C 57.22 8.903 56.649 3.019 49.854 3.264 C 43.79 3.483 43.301 0.94 43.301 0.94 "/>
      <g id="ID0.5465820762328804">
        <path id="ID0.6933357352390885" fill="#FBB03B" stroke="#000000" d="M 88.455 35.815 C 87.389 39.243 83.746 41.159 80.317 40.093 L 57.275 32.93 C 53.847 31.864 51.931 28.221 52.996 24.793 L 58.557 6.908 C 59.623 3.479 63.266 1.564 66.694 2.631 L 89.737 9.793 C 93.165 10.859 95.081 14.502 94.014 17.93 L 88.455 35.815 Z " stroke-width="1"/>
        <path id="ID0.27546582790091634" d="M 85.7762 26.9347 C 86.3195 27.1036 86.7778 27.3675 87.0788 27.6558 C 87.3804 27.9454 87.5244 28.2603 87.4402 28.5315 C 87.3559 28.8027 87.0587 28.9805 86.6461 29.0481 C 86.2347 29.115 85.7075 29.0726 85.1642 28.9037 C 84.6209 28.7348 84.1626 28.4709 83.8616 28.1826 C 83.56 27.893 83.416 27.5781 83.5002 27.3069 C 83.5845 27.0357 83.8817 26.8579 84.2943 26.7904 C 84.7057 26.7235 85.2329 26.7658 85.7762 26.9347 Z " stroke-width="0.9999621457240333"/>
        <path id="ID0.01398152019828558" d="M 75.6014 23.7931 C 76.1447 23.962 76.603 24.2259 76.904 24.5142 C 77.2056 24.8038 77.3496 25.1187 77.265 25.3909 C 77.1804 25.663 76.8833 25.8408 76.4707 25.9084 C 76.0593 25.9753 75.5321 25.9329 74.9888 25.764 C 74.4454 25.5951 73.9871 25.3312 73.6862 25.0429 C 73.3845 24.7533 73.2405 24.4384 73.3251 24.1663 C 73.4097 23.8941 73.7069 23.7163 74.1195 23.6488 C 74.5309 23.5819 75.058 23.6242 75.6014 23.7931 Z " stroke-width="0.9999621457240333"/>
      </g>
      <path id="ID0.9017123230732977" fill="none" stroke="#000000" stroke-width="2" d="M 58.231 8.647 C 58.231 8.647 73.685 11.432 81.903 14.616 C 88.689 17.243 93.406 19.886 93.406 19.886 "/>
      <path id="ID0.5493512293323874" fill="none" stroke="#000000" d="M 74.793 20.578 L 78.272 23.618 " stroke-width="1"/>
      <path id="ID0.8307775529101491" fill="none" stroke="#000000" d="M 83.742 25.423 L 87.625 24.774 " stroke-width="1"/>
      <path id="ID0.20314290514215827" stroke="#000000" d="M 80.323 36.368 L 72.514 35.212 L 75.243 29.134 L 82.631 32.452 L 80.323 36.368 " stroke-width="1"/>
    </g>
    <path id="ID0.5013284771703184" fill="none" stroke="#1A1A1A" stroke-width="2" d="M 26.053 44.392 C 26.053 44.392 38.09 54.342 48.09 58.862 C 59.938 64.215 68.637 66.633 68.637 66.633 "/>
    <g id="ID0.205720120575279">
      <path id="ID0.5621153963729739" fill="#FBB03B" stroke="#000000" d="M 9.139 55.31 C 7.012 56.489 4.52 55.95 3.571 54.105 L 1.368 49.814 C 0.419 47.972 1.375 45.521 3.503 44.343 L 8.513 41.572 C 10.638 40.392 13.132 40.933 14.079 42.775 L 16.286 47.068 C 17.233 48.909 16.277 51.36 14.147 52.537 L 9.139 55.31 Z " stroke-width="1"/>
      <path id="ID0.6206291778944433" stroke="#1A1A1A" d="M 19.986 52.4 C 17.841 53.651 15.449 53.482 14.644 52.025 L 9.364 42.465 C 8.56 41.008 9.648 38.814 11.795 37.563 L 36.086 24.815 C 38.232 23.563 40.625 23.733 41.43 25.19 L 45.543 32.64 C 46.348 34.098 45.26 36.291 43.112 37.542 L 19.986 52.4 Z " stroke-width="1"/>
    </g>
  </g>
</svg>