<svg xmlns="http://www.w3.org/2000/svg" xmlns:xlink="http://www.w3.org/1999/xlink" version="1.1" width="30.477526834469227" height="31.375025918941883" viewBox="0.6829370603654836 0.525337015161321 30.477526834469227 31.375025918941883">
  <!-- Exported by Scratch - http://scratch.mit.edu/ -->
  <g id="ID0.07952108979225159">
    <path id="ID0.07179283257573843" fill="none" stroke="#000000" stroke-width="1.9375259189418843" d="M 1.6517 1.4941 L 30.1917 1.4941 L 30.1917 30.9316 L 1.6517 30.9316 L 1.6517 1.4941 Z "/>
    <path id="ID0.9966579801402986" fill="none" stroke="#000000" stroke-width="0.9906693543017209" stroke-linecap="round" d="M 16.15 1.9847 L 16.15 30.1466 "/>
    <path id="ID0.667331853415817" fill="none" stroke="#000000" stroke-width="0.9906693543017209" stroke-linecap="round" d="M 23.2 1.8375 L 23.2 30.4409 "/>
    <path id="ID0.663609794806689" fill="none" stroke="#000000" stroke-width="0.9906693543017209" stroke-linecap="round" d="M 8.55 1.5922 L 8.55 30.5391 "/>
  </g>
  <path id="ID0.255261589307338" d="M 18.8655 28.0224 C 18.9554 28.4532 18.8036 28.8495 18.5266 28.9073 L 16.7086 29.2869 C 16.4317 29.3447 16.134 29.0423 16.0439 28.6115 L 15.2511 23.8106 C 15.1611 23.3798 15.313 22.9837 15.59 22.9258 L 17.0065 22.6302 C 17.2835 22.5723 17.5811 22.8747 17.6712 23.3055 L 18.8655 28.0224 Z " stroke-width="0.15939165651798248"/>
  <path id="ID0.03648320911452174" d="M 13.659 28.3276 C 13.5911 28.7625 13.3091 29.0796 13.0295 29.036 L 11.1946 28.7494 C 10.9149 28.7057 10.7432 28.3177 10.8111 27.8828 L 11.7641 23.1112 C 11.832 22.6764 12.114 22.3592 12.3935 22.403 L 13.8234 22.6264 C 14.103 22.67 14.2748 23.058 14.2068 23.493 L 13.659 28.3276 Z " stroke-width="0.15939165651798248"/>
  <path id="ID0.9573684432543814" fill="#FBB03B" stroke="#000000" stroke-width="0.31878331303596497" d="M 21.6167 21.9607 C 21.7503 22.2864 21.5946 22.6589 21.2689 22.7926 L 20.5102 23.1039 C 20.1846 23.2376 19.8119 23.0819 19.6782 22.7561 L 19.3636 21.9894 C 19.2299 21.6638 19.3857 21.2913 19.7114 21.1576 L 20.4701 20.8463 C 20.7957 20.7127 21.1682 20.8683 21.3019 21.1941 L 21.6167 21.9607 Z "/>
  <path id="ID0.41889808466657996" stroke="#1A1A1A" stroke-width="0.31878331303596497" d="M 21.4392 20.3149 C 21.5841 20.6437 21.4915 21.0028 21.2324 21.1169 L 19.5327 21.8653 C 19.2735 21.9792 18.9461 21.805 18.8012 21.4762 L 17.3895 17.7608 C 17.2448 17.4319 17.3376 17.0727 17.5966 16.9587 L 18.9211 16.3755 C 19.1801 16.2615 19.5077 16.4354 19.6526 16.7646 L 21.4392 20.3149 Z "/>
  <path id="ID0.13261056737974286" fill="#FBB03B" stroke="#000000" stroke-width="0.31878331303596497" d="M 12.3496 9.2041 L 20.1271 9.2041 L 20.1271 15.5894 L 12.3496 15.5894 L 12.3496 9.2041 Z "/>
  <path id="ID0.6617734562605619" fill="#009999" stroke="#1A1A1A" stroke-width="0.31878331303596497" d="M 14.3402 13.6499 C 11.9656 13.6499 15.3263 10.5773 16.9587 10.3852 L 20.6939 10.0956 C 20.5408 7.5096 18.3962 5.4594 15.7717 5.4594 L 14.8805 5.4594 C 12.1568 5.4594 9.9491 7.6673 9.9491 10.391 L 9.9491 20.7879 C 9.9491 23.5116 12.157 25.7195 14.8805 25.7195 L 15.7717 25.7195 C 18.4954 25.7195 20.7033 23.5116 20.7033 20.7879 C 20.7033 20.7879 20.8357 16.6485 20.5439 16.2271 C 20.2519 15.8055 20.7033 13.6501 20.7033 13.6501 L 14.3402 13.6501 Z "/>
  <path id="ID0.7134617334231734" d="M 19.2437 12.2748 C 19.3629 12.2748 19.471 12.3233 19.5491 12.4015 C 19.6274 12.4796 19.6758 12.5877 19.6758 12.7069 C 19.6758 12.8262 19.6274 12.9342 19.5491 13.0123 C 19.471 13.0906 19.3629 13.139 19.2437 13.139 C 19.1245 13.139 19.0164 13.0906 18.9383 13.0123 C 18.8601 12.9342 18.8116 12.8262 18.8116 12.7069 C 18.8116 12.5877 18.8601 12.4796 18.9383 12.4015 C 19.0164 12.3233 19.1245 12.2748 19.2437 12.2748 Z " stroke-width="0.15939165651798248"/>
  <path id="ID0.6494691404514015" d="M 17.0122 12.2748 C 17.1315 12.2748 17.2395 12.3233 17.3176 12.4015 C 17.3959 12.4796 17.4443 12.5877 17.4443 12.7069 C 17.4443 12.8262 17.3959 12.9342 17.3176 13.0123 C 17.2395 13.0906 17.1315 13.139 17.0122 13.139 C 16.893 13.139 16.7849 13.0906 16.7068 13.0123 C 16.6286 12.9342 16.5801 12.8262 16.5801 12.7069 C 16.5801 12.5877 16.6286 12.4796 16.7068 12.4015 C 16.7849 12.3233 16.893 12.2748 17.0122 12.2748 Z " stroke-width="0.15939165651798248"/>
  <path id="ID0.3106537782587111" fill="none" stroke="#000000" stroke-width="0.31878331303596497" d="M 10.429 11.6373 C 10.429 11.6373 9.0964 11.1474 7.7406 11.6373 C 6.5445 12.0694 5.7243 12.5015 5.7243 12.5015 "/>
  <path id="ID0.4428880806080997" fill="none" stroke="#000000" stroke-width="0.31878331303596497" d="M 10.1938 11.5668 C 10.1938 11.5668 9.8211 10.386 8.4398 10.7314 C 7.2061 11.0399 6.9959 10.54 6.9959 10.54 "/>
  <path id="ID0.5842904108576477" d="M 11.0491 29.7749 C 10.7671 29.754 10.5556 29.5081 10.5766 29.2258 L 10.7139 27.3737 C 10.7348 27.0914 10.9804 26.8796 11.2622 26.9004 L 14.3606 27.3359 C 14.6426 27.3568 14.8541 27.6026 14.833 27.8848 L 14.7259 29.328 C 14.705 29.6103 14.4596 29.8224 14.1778 29.8014 L 11.0491 29.7749 Z " stroke-width="0.15939165651798248"/>
  <path id="ID0.01732994895428419" d="M 16.2341 29.7749 C 15.952 29.754 15.7406 29.5081 15.7615 29.2258 L 15.8989 27.3737 C 15.9198 27.0914 16.1652 26.8796 16.4472 26.9004 L 19.5456 27.3359 C 19.8274 27.3568 20.0391 27.6026 20.018 27.8848 L 19.9109 29.328 C 19.8899 29.6103 19.6446 29.8224 19.3626 29.8014 L 16.2341 29.7749 Z " stroke-width="0.15939165651798248"/>
  <path id="ID0.2511214418336749" fill="#FFFFFF" stroke="#7F7F7F" stroke-width="0.6609178954064946" stroke-linecap="round" d="M 24.7416 14.9175 L 21.6171 19.6418 L 25.2697 23.6587 L 20.0874 21.7206 L 15.9348 24.2228 L 18.3185 19.8411 L 15.4066 15.4815 L 19.7083 17.6384 L 24.7416 14.9175 Z "/>
  <path id="ID0.8803494698368013" stroke="#1A1A1A" stroke-width="0.318783291313693" d="M 17.3977 17.9616 C 17.7037 18.15 17.8314 18.4982 17.6829 18.7392 L 16.7087 20.3205 C 16.5603 20.5614 16.1918 20.604 15.8857 20.4155 L 12.614 18.1586 C 12.3081 17.9702 12.1803 17.6218 12.329 17.3808 L 13.0881 16.1489 C 13.2365 15.908 13.6049 15.8652 13.911 16.0539 L 17.3977 17.9616 Z "/>
  <path id="ID0.08818722935393453" fill="#FBB03B" stroke="#000000" stroke-width="0.318783291313693" d="M 18.4783 19.2156 C 18.7732 19.4081 18.8566 19.8029 18.6645 20.0978 L 18.2166 20.7849 C 18.0245 21.0798 17.6294 21.1632 17.3345 20.9709 L 16.6403 20.5187 C 16.3454 20.3263 16.262 19.9315 16.4542 19.6364 L 16.902 18.9494 C 17.0941 18.6545 17.489 18.5711 17.7841 18.7634 L 18.4783 19.2156 Z "/>
</svg>