<svg xmlns="http://www.w3.org/2000/svg" xmlns:xlink="http://www.w3.org/1999/xlink" version="1.1" width="97.5077434182167" height="66.61607319116592" viewBox="-0.29147210717201233 3.201337069272995 97.5077434182167 66.61607319116592">
  <!-- Exported by Scratch - http://scratch.mit.edu/ -->
  <path id="ID0.9573684432543814" fill="#FBB03B" stroke="#000000" stroke-width="0.8525622256426699" d="M 52.0786 45.1767 C 52.8016 45.7796 52.8991 46.8549 52.2964 47.5782 L 50.8919 49.2627 C 50.2892 49.986 49.2135 50.0838 48.49 49.4807 L 46.7876 48.0616 C 46.0643 47.4589 45.9671 46.3833 46.5698 45.66 L 47.9743 43.9755 C 48.5772 43.2526 49.6524 43.1547 50.3759 43.7577 L 52.0786 45.1767 Z "/>
  <path id="ID0.41889808466657996" stroke="#1A1A1A" stroke-width="0.8525622256426699" d="M 49.6011 41.5075 C 50.3547 42.1038 50.5848 43.0686 50.1151 43.6622 L 47.0322 47.5566 C 46.5619 48.15 45.5701 48.1475 44.8165 47.5512 L 36.8336 40.5323 C 36.0803 39.9358 35.8505 38.9704 36.3204 38.3772 L 38.7227 35.3423 C 39.1925 34.7491 40.1843 34.7507 40.9384 35.3477 L 49.6011 41.5075 Z "/>
  <path id="ID0.13261056737974286" fill="#FBB03B" stroke="#000000" stroke-width="0.8525621784116166" d="M 27.4148 12.6964 L 47.3393 18.669 L 42.4359 35.0267 L 22.5115 29.0541 L 27.4148 12.6964 Z "/>
  <path id="ID0.6617734562605619" stroke="#1A1A1A" stroke-width="0.8525621784116166" d="M 29.1005 25.6142 C 23.0172 23.7907 33.9863 18.5001 38.3155 19.2616 L 48.1067 21.388 C 49.7006 14.6458 45.7809 7.7465 39.0574 5.731 L 36.7744 5.0467 C 29.7969 2.9551 22.4456 6.9159 20.354 13.8935 L 12.3699 40.5284 C 10.2783 47.506 14.239 54.8577 21.2161 56.9491 L 23.4991 57.6335 C 30.4766 59.7251 37.8283 55.7644 39.9199 48.7868 C 39.9199 48.7868 43.438 38.2842 43.014 36.9805 C 42.5897 35.6762 45.4013 30.501 45.4013 30.501 L 29.1003 25.6146 Z "/>
  <path id="ID0.7134617334231734" d="M 42.7183 25.8571 C 43.0237 25.9487 43.2634 26.1558 43.4033 26.4162 C 43.5439 26.6764 43.585 26.9905 43.4934 27.2959 C 43.4019 27.6013 43.1948 27.841 42.9343 27.981 C 42.6741 28.1215 42.3601 28.1626 42.0546 28.0711 C 41.7492 27.9795 41.5096 27.7724 41.3696 27.5119 C 41.2291 27.2517 41.1879 26.9377 41.2795 26.6323 C 41.371 26.3268 41.5782 26.0872 41.8386 25.9472 C 42.0988 25.8067 42.4129 25.7655 42.7183 25.8571 Z " stroke-width="0.4262810892058083"/>
  <path id="ID0.6494691404514015" d="M 37.0017 24.1435 C 37.3071 24.235 37.5467 24.4422 37.6867 24.7026 C 37.8272 24.9628 37.8684 25.2769 37.7768 25.5823 C 37.6853 25.8877 37.4781 26.1274 37.2177 26.2673 C 36.9575 26.4079 36.6434 26.449 36.338 26.3575 C 36.0326 26.2659 35.7929 26.0588 35.653 25.7983 C 35.5124 25.5381 35.4713 25.2241 35.5629 24.9186 C 35.6544 24.6132 35.8615 24.3736 36.122 24.2336 C 36.3822 24.0931 36.6962 24.0519 37.0017 24.1435 Z " stroke-width="0.4262810892058083"/>
  <path id="ID0.03648320911452174" d="M 23.4193 64.5857 C 23.2378 65.7486 22.4837 66.5969 21.736 66.4801 L 16.8286 65.7136 C 16.0805 65.5968 15.6214 64.5593 15.803 63.3959 L 18.3517 50.6348 C 18.5333 49.4719 19.2874 48.6236 20.0351 48.7408 L 23.8593 49.338 C 24.607 49.4548 25.0665 50.4924 24.8845 51.6557 L 23.4193 64.5857 Z " stroke-width="0.4262810945510864"/>
  <path id="ID0.5842904108576477" d="M 16.4394 68.4563 C 15.6853 68.4005 15.1197 67.7427 15.1759 66.9878 L 15.543 62.0344 C 15.5988 61.2794 16.2557 60.7129 17.0094 60.7688 L 25.2958 61.9334 C 26.0499 61.9892 26.6156 62.6465 26.5593 63.4015 L 26.2729 67.261 C 26.217 68.016 25.5606 68.5833 24.8069 68.5271 L 16.4394 68.4563 Z " stroke-width="0.4262810945510864"/>
  <path id="ID0.01732994895428419" d="M 30.3063 68.4563 C 29.5518 68.4005 28.9866 67.7427 29.0424 66.9878 L 29.4099 62.0344 C 29.4657 61.2794 30.1222 60.7129 30.8763 60.7688 L 39.1628 61.9334 C 39.9164 61.9892 40.4825 62.6465 40.4263 63.4015 L 40.1398 67.261 C 40.0835 68.016 39.4275 68.5833 38.6734 68.5271 L 30.3063 68.4563 Z " stroke-width="0.4262810945510864"/>
  <path id="ID0.255261589307338" d="M 37.3438 63.7694 C 37.5842 64.9216 37.1784 65.9813 36.4375 66.1361 L 31.5754 67.151 C 30.8349 67.3058 30.0386 66.4971 29.7978 65.3449 L 27.6775 52.5053 C 27.4366 51.3531 27.8429 50.2938 28.5837 50.139 L 32.3721 49.3483 C 33.113 49.1935 33.9088 50.0022 34.1497 51.1544 L 37.3438 63.7694 Z " stroke-width="0.4262810945510864"/>
  <path id="ID0.5940494854003191" fill="none" stroke="#000000" stroke-width="2.572944223880768" d="M 0.995 49.0108 L 91.2625 45.8443 "/>
  <path id="ID0.6533192885108292" fill="#E6E6E6" stroke="#000000" d="M 95.9298 45.5116 L 86.9296 50.4276 L 86.5934 41.2611 L 95.9298 45.5116 " stroke-width="1.7152961492538452"/>
  <path id="ID0.08818722935393453" fill="#FBB03B" stroke="#000000" stroke-width="0.8525621693881993" d="M 13.3465 50.4676 C 12.8562 51.2715 11.8076 51.5267 11.0035 51.0372 L 9.1302 49.8963 C 8.3262 49.4068 8.0711 48.3574 8.561 47.5534 L 9.713 45.6607 C 10.2034 44.8567 11.2519 44.6015 12.0564 45.091 L 13.9293 46.232 C 14.7334 46.7214 14.9885 47.7704 14.4986 48.5749 L 13.3465 50.4676 Z "/>
  <path id="ID0.8803494698368013" stroke="#1A1A1A" stroke-width="0.8525621693881993" d="M 16.6104 47.4764 C 16.1319 48.31 15.2114 48.6795 14.555 48.3023 L 10.2484 45.8274 C 9.5924 45.4502 9.4483 44.4687 9.9272 43.6352 L 15.6931 34.7048 C 16.1717 33.8717 17.0926 33.5017 17.7489 33.8794 L 21.1042 35.808 C 21.7602 36.1851 21.9048 37.1663 21.4254 38.0002 L 16.6104 47.4764 Z "/>
  <g id="ID0.13109061866998672">
    <path id="ID0.3106537782587111" fill="none" stroke="#000000" stroke-width="0.8525621875755738" d="M 19.1891 19.4665 C 19.1891 19.4665 15.396 19.2899 12.3323 21.6303 C 9.6296 23.695 7.8854 25.4572 7.8854 25.4572 "/>
    <path id="ID0.4428880806080997" fill="none" stroke="#000000" stroke-width="0.8525621875755738" d="M 18.5324 19.4762 C 18.5324 19.4762 16.6316 16.7646 13.3867 18.7572 C 10.4885 20.5368 9.55 19.4311 9.55 19.4311 "/>
  </g>
</svg>