<svg xmlns="http://www.w3.org/2000/svg" xmlns:xlink="http://www.w3.org/1999/xlink" version="1.1" width="55.53015899658203" height="65.64591217041016" viewBox="0.8647785186767578 2.3850221633911133 55.53015899658203 65.64591217041016">
  <!-- Exported by Scratch - http://scratch.mit.edu/ -->
  <path id="ID0.9573684432543814" fill="#FBB03B" stroke="#000000" stroke-width="0.8525622035202668" d="M 53.5228 27.0694 C 54.4502 26.9086 55.3331 27.5302 55.4944 28.4578 L 55.8695 30.6187 C 56.0307 31.5463 55.409 32.4295 54.481 32.5907 L 52.2974 32.9699 C 51.3698 33.1312 50.487 32.5092 50.3257 31.5816 L 49.9507 29.4207 C 49.7898 28.4932 50.411 27.6102 51.339 27.449 L 53.5228 27.0694 Z "/>
  <path id="ID0.41889808466657996" stroke="#1A1A1A" stroke-width="0.8620568553477407" d="M 48.7908 26.5252 C 53.6075 25.148 50.6107 26.8152 50.8124 27.5382 L 51.829 32.4184 C 51.9836 33.1625 51.0852 33.8759 50.3683 34.099 C 48.7327 34.6063 47.1616 34.2932 45.6223 34.2983 C 41.8284 34.526 37.8052 35.9354 34.3557 34.7989 L 34.1033 30.7922 L 48.7908 26.5252 Z "/>
  <path id="ID0.13261056737974286" fill="#FBB03B" stroke="#000000" stroke-width="0.8525622111311068" d="M 19.4998 11.9469 L 40.077 14.9858 L 37.5822 31.8794 L 17.0049 28.8405 L 19.4998 11.9469 Z "/>
  <path id="ID0.6617734562605619" stroke="#1A1A1A" stroke-width="0.8525622111311068" d="M 23.0294 24.487 C 16.7468 23.5592 26.8391 16.743 31.2328 16.8727 L 41.2283 17.5658 C 41.8338 10.6643 36.9608 4.4019 30.017 3.3765 L 27.6592 3.0283 C 20.4531 1.9641 13.7493 6.9429 12.6851 14.1491 L 8.6229 41.6566 C 7.5587 48.8628 12.5375 55.5669 19.7432 56.6311 L 22.101 56.9793 C 29.3071 58.0434 36.0113 53.0646 37.0754 45.8585 C 37.0754 45.8585 39.0432 34.9585 38.4357 33.7295 C 37.8279 32.5 39.8644 26.9736 39.8644 26.9736 L 23.0294 24.4874 Z "/>
  <path id="ID0.7134617334231734" d="M 34.1401 22.5148 C 34.4556 22.5614 34.7225 22.7318 34.8986 22.9694 C 35.0751 23.2066 35.1611 23.5115 35.1145 23.8269 C 35.0679 24.1423 34.8975 24.4093 34.6599 24.5854 C 34.4227 24.7619 34.1179 24.8479 33.8024 24.8013 C 33.487 24.7547 33.22 24.5843 33.044 24.3467 C 32.8674 24.1095 32.7814 23.8047 32.828 23.4892 C 32.8746 23.1738 33.045 22.9068 33.2826 22.7308 C 33.5198 22.5542 33.8247 22.4682 34.1401 22.5148 Z " stroke-width="0.4262811055655534"/>
  <path id="ID0.6494691404514015" d="M 28.2362 21.6429 C 28.5516 21.6895 28.8186 21.8599 28.9947 22.0975 C 29.1712 22.3347 29.2572 22.6396 29.2106 22.955 C 29.164 23.2705 28.9936 23.5374 28.756 23.7135 C 28.5188 23.89 28.214 23.976 27.8985 23.9294 C 27.5831 23.8829 27.3161 23.7124 27.1401 23.4749 C 26.9635 23.2376 26.8775 22.9328 26.9241 22.6174 C 26.9707 22.3019 27.1411 22.0349 27.3787 21.8589 C 27.6159 21.6823 27.9208 21.5964 28.2362 21.6429 Z " stroke-width="0.4262811055655534"/>
  <path id="ID0.3106537782587111" fill="none" stroke="#000000" stroke-width="0.8525622111311068" d="M 16.568 18.1339 C 16.568 18.1339 13.2334 16.3173 9.455 17.0835 C 6.1217 17.7594 3.7828 18.5822 3.7828 18.5822 "/>
  <path id="ID0.4428880806080997" fill="none" stroke="#000000" stroke-width="0.8525622111311068" d="M 15.973 17.8556 C 15.973 17.8556 15.4484 14.586 11.659 14.9601 C 8.2745 15.2941 7.9135 13.8895 7.9135 13.8895 "/>
  <path id="ID0.03648320911452174" d="M 16.8081 63.6396 C 16.4818 64.7705 15.627 65.5173 14.8999 65.3074 L 10.1279 63.9302 C 9.4003 63.7202 9.0753 62.6332 9.4017 61.5019 L 13.5343 49.1624 C 13.8606 48.0315 14.7154 47.2847 15.4424 47.495 L 19.1612 48.5682 C 19.8882 48.7781 20.2137 49.8652 19.8869 50.9964 L 16.8081 63.6396 Z " stroke-width="0.4262811010482711"/>
  <path id="ID0.08818722935393453" fill="#FBB03B" stroke="#000000" stroke-width="0.8525621972330433" d="M 6.1782 46.2513 C 5.6094 47.0018 4.5404 47.1501 3.7898 46.5821 L 2.0408 45.2584 C 1.2902 44.6904 1.142 43.6206 1.7104 42.8701 L 3.0472 41.103 C 3.6159 40.3525 4.6849 40.2041 5.436 40.7722 L 7.1845 42.0959 C 7.9352 42.6638 8.0834 43.7332 7.515 44.4842 L 6.1782 46.2513 Z "/>
  <path id="ID0.8803494698368013" stroke="#1A1A1A" stroke-width="0.8525621972330433" d="M 9.7267 43.6039 C 9.1666 44.3851 8.2136 44.6601 7.5986 44.2187 L 3.563 41.3227 C 2.9484 40.8814 2.9037 39.8904 3.4642 39.1093 L 10.1 30.8049 C 10.6599 30.0242 11.6134 29.7488 12.2284 30.1906 L 15.3725 32.4472 C 15.9871 32.8885 16.0322 33.8793 15.4713 34.6606 L 9.7267 43.6039 Z "/>
  <path id="ID0.5842904108576477" d="M 9.9394 67.4563 C 9.1853 67.4005 8.6197 66.7427 8.6759 65.9878 L 9.043 61.0344 C 9.0988 60.2794 9.7557 59.7129 10.5094 59.7688 L 18.7958 60.9334 C 19.5499 60.9892 20.1156 61.6465 20.0593 62.4015 L 19.7729 66.261 C 19.717 67.016 19.0606 67.5833 18.3069 67.5271 L 9.9394 67.4563 Z " stroke-width="0.4262810945510864"/>
  <path id="ID0.01732994895428419" d="M 27.5563 67.4563 C 26.8018 67.4005 26.2366 66.7427 26.2924 65.9878 L 26.6599 61.0344 C 26.7157 60.2794 27.3722 59.7129 28.1263 59.7688 L 36.4128 60.9334 C 37.1664 60.9892 37.7325 61.6465 37.6763 62.4015 L 37.3898 66.261 C 37.3335 67.016 36.6775 67.5833 35.9234 67.5271 L 27.5563 67.4563 Z " stroke-width="0.4262810945510864"/>
  <path id="ID0.255261589307338" d="M 34.5938 62.7694 C 34.8342 63.9216 34.4284 64.9813 33.6875 65.1361 L 28.8254 66.151 C 28.0849 66.3058 27.2886 65.4971 27.0478 64.3449 L 24.9275 51.5053 C 24.6866 50.3531 25.0929 49.2938 25.8337 49.139 L 29.6221 48.3483 C 30.363 48.1935 31.1588 49.0022 31.3997 50.1544 L 34.5938 62.7694 Z " stroke-width="0.4262810945510864"/>
</svg>