<svg xmlns="http://www.w3.org/2000/svg" xmlns:xlink="http://www.w3.org/1999/xlink" version="1.1" width="89.06531524658203" height="71.36862182617188" viewBox="2.774991035461426 0.4343986511230469 89.06531524658203 71.36862182617188">
  <!-- Exported by Scratch - http://scratch.mit.edu/ -->
  <g id="ID0.6949673551134765">
    <path id="ID0.07008709199726582" fill="#FBB03B" stroke="#000000" stroke-width="0.8687034845352173" d="M 85.0473 26.4877 C 85.9951 26.3426 86.8816 26.9946 87.0267 27.9428 L 87.3641 30.1519 C 87.5083 31.1001 86.8568 31.987 85.9082 32.1321 L 83.6761 32.4726 C 82.7274 32.6177 81.8409 31.9662 81.6959 31.0176 L 81.3592 28.8084 C 81.2142 27.8598 81.8657 26.9742 82.8143 26.8287 L 85.0473 26.4877 Z "/>
    <path id="ID0.6664769016206264" stroke="#1A1A1A" stroke-width="0.8687034845352173" d="M 80.5739 25.9005 C 81.5377 25.7276 82.429 26.2036 82.5659 26.9629 L 83.4558 31.9449 C 83.5918 32.7041 82.9199 33.4595 81.956 33.6315 L 71.2093 34.9841 C 70.2455 35.1561 69.3542 34.6796 69.2191 33.9208 L 68.5241 30.0385 C 68.3891 29.2797 69.0601 28.5239 70.0248 28.3515 L 80.5739 25.9005 Z "/>
  </g>
  <path id="ID0.9571989816613495" fill="none" stroke="#000000" stroke-width="0.8687034845352173" d="M 53.4467 17.4406 C 53.4467 17.4406 50.2702 19.6501 49.2443 23.4425 C 48.34 26.7878 48.0225 29.2945 48.0225 29.2945 "/>
  <path id="ID0.15386404702439904" fill="none" stroke="#000000" stroke-width="0.8687034845352173" d="M 52.9211 17.8563 C 52.9211 17.8563 49.7034 16.8429 48.3152 20.4663 C 47.0756 23.7022 45.6314 23.3903 45.6314 23.3903 "/>
  <path id="ID0.028991148341447115" fill="#FBB03B" stroke="#000000" stroke-width="0.8687034845352173" d="M 59.958 11.139 L 81.1522 11.139 L 81.1522 28.5391 L 59.958 28.5391 L 59.958 11.139 Z "/>
  <path id="ID0.934041952714324" stroke="#1A1A1A" stroke-width="0.8687034845352173" d="M 65.3826 23.254 C 58.9117 23.254 68.07 14.881 72.5182 14.3576 L 82.6968 13.5683 C 82.2798 6.5214 76.4356 0.9344 69.2831 0.9344 L 66.8551 0.9344 C 59.4329 0.9344 53.4167 6.951 53.4167 14.3732 L 53.4167 42.7055 C 53.4167 50.1277 59.4333 56.1444 66.8551 56.1444 L 69.2831 56.1444 C 76.7053 56.1444 82.7224 50.1277 82.7224 42.7055 C 82.7224 42.7055 83.0829 31.4254 82.2881 30.277 C 81.4923 29.1281 82.7224 23.2544 82.7224 23.2544 L 65.3826 23.2544 Z "/>
  <path id="ID0.4870021608658135" d="M 78.7446 19.5068 C 79.0695 19.5068 79.364 19.6388 79.5768 19.8521 C 79.7901 20.0649 79.9221 20.3594 79.9221 20.6843 C 79.9221 21.0092 79.7901 21.3037 79.5768 21.5165 C 79.364 21.7298 79.0695 21.8619 78.7446 21.8619 C 78.4197 21.8619 78.1252 21.7298 77.9124 21.5165 C 77.6991 21.3037 77.5671 21.0092 77.5671 20.6843 C 77.5671 20.3594 77.6991 20.0649 77.9124 19.8521 C 78.1252 19.6388 78.4197 19.5068 78.7446 19.5068 Z " stroke-width="0.43435174226760864"/>
  <path id="ID0.4437686442397535" d="M 72.6637 19.5068 C 72.9886 19.5068 73.2831 19.6388 73.4959 19.8521 C 73.7092 20.0649 73.8412 20.3594 73.8412 20.6843 C 73.8412 21.0092 73.7092 21.3037 73.4959 21.5165 C 73.2831 21.7298 72.9886 21.8619 72.6637 21.8619 C 72.3388 21.8619 72.0443 21.7298 71.8315 21.5165 C 71.6182 21.3037 71.4862 21.0092 71.4862 20.6843 C 71.4862 20.3594 71.6182 20.0649 71.8315 19.8521 C 72.0443 19.6388 72.3388 19.5068 72.6637 19.5068 Z " stroke-width="0.43435174226760864"/>
  <path id="ID0.3687892844900489" d="M 58.4717 65.1215 C 57.9387 66.1961 56.9462 66.789 56.2552 66.4463 L 51.7214 64.1972 C 51.0308 63.8545 50.9027 62.7053 51.4356 61.6307 L 57.8245 50.0118 C 58.3574 48.9372 59.3499 48.3443 60.0406 48.687 L 63.5736 50.4396 C 64.2646 50.7823 64.3928 51.9316 63.8598 53.0062 L 58.4717 65.1215 Z " stroke-width="0.43435174226760864"/>
  <path id="ID0.8204577909782529" d="M 50.5031 66.7434 C 49.7877 66.458 49.4398 65.6454 49.7256 64.9291 L 51.6011 60.2286 C 51.8865 59.5123 52.6978 59.1627 53.4141 59.448 L 61.1095 63.1201 C 61.8244 63.4054 62.1728 64.2177 61.8874 64.9343 L 60.4258 68.5968 C 60.14 69.313 59.3282 69.6636 58.6124 69.3778 L 50.5031 66.7434 Z " stroke-width="0.43435174226760864"/>
  <path id="ID0.699897791724652" d="M 84.1488 62.4021 C 83.522 62.849 82.6499 62.7013 82.2029 62.0733 L 79.2667 57.9508 C 78.8189 57.3228 78.9657 56.451 79.5925 56.0041 L 86.8474 51.5237 C 87.4742 51.0768 88.3455 51.224 88.7933 51.8525 L 91.0806 55.0646 C 91.5285 55.6926 91.3825 56.5648 90.7549 57.0113 L 84.1488 62.4021 Z " stroke-width="0.43435174226760864"/>
  <path id="ID0.15630904771387577" d="M 86.6155 54.1472 C 87.5537 54.8939 87.9255 55.9884 87.4451 56.5922 L 84.2943 60.5526 C 83.8144 61.1564 82.6638 61.0404 81.7247 60.2937 L 71.7068 51.608 C 70.7677 50.8618 70.3959 49.7668 70.8763 49.163 L 73.3322 46.0774 C 73.8121 45.4736 74.9627 45.5896 75.9009 46.3367 L 86.6155 54.1472 Z " stroke-width="0.43435174226760864"/>
  <path id="ID0.8436069656163454" fill="#FFF05D" stroke="#000000" stroke-width="0.9937885225865101" d="M 83.5674 30.7829 C 85.2906 34.5929 82.21 33.2099 78.2993 35.3381 L 54.0549 46.6447 L 16.2045 69.6659 C 11.6912 72.6649 6.2662 71.4954 4.043 66.5531 C 1.8177 61.609 4.6397 57.1051 9.7827 55.389 L 52.4232 43.0168 L 76.979 32.4518 C 80.9438 30.9082 82.2388 27.8337 83.5674 30.7829 Z "/>
  <path id="ID0.2625341503880918" stroke="#1A1A1A" stroke-width="0.8687034726246656" d="M 59.4645 41.8997 C 59.211 42.8455 58.4011 43.4494 57.6559 43.2495 L 52.7686 41.9356 C 52.0238 41.7348 51.626 40.8062 51.8803 39.8603 L 55.2282 29.5593 C 55.4827 28.6143 56.2934 28.0094 57.0378 28.2102 L 60.8464 29.2337 C 61.5912 29.4336 61.9895 30.3631 61.7347 31.309 L 59.4645 41.8997 Z "/>
  <path id="ID0.49555545253679156" fill="#FBB03B" stroke="#000000" stroke-width="0.8687034726246656" d="M 57.0303 45.6978 C 56.7579 46.6174 55.7909 47.1424 54.8713 46.87 L 52.7283 46.235 C 51.8087 45.9626 51.2833 44.9961 51.5556 44.0761 L 52.1969 41.9108 C 52.4693 40.9912 53.4363 40.4661 54.3568 40.7385 L 56.4993 41.3735 C 57.4189 41.6459 57.9443 42.6124 57.6715 43.5325 L 57.0303 45.6978 Z "/>
</svg>