<svg xmlns="http://www.w3.org/2000/svg" xmlns:xlink="http://www.w3.org/1999/xlink" version="1.1" width="30.488901138305664" height="37.83268737792969" viewBox="0.01239997148513794 0.2911999225616455 30.488901138305664 37.83268737792969">
  <!-- Exported by Scratch - http://scratch.mit.edu/ -->
  <path id="ID0.255261589307338" d="M 20.3956 34.9301 C 20.5317 35.5819 20.3021 36.1815 19.8829 36.269 L 17.1322 36.8432 C 16.7133 36.9308 16.2628 36.4733 16.1265 35.8214 L 14.9269 28.5575 C 14.7907 27.9056 15.0205 27.3063 15.4397 27.2187 L 17.5829 26.7714 C 18.0021 26.6838 18.4523 27.1413 18.5886 27.7932 L 20.3956 34.9301 Z " stroke-width="0.2411670982837677"/>
  <path id="ID0.03648320911452174" d="M 12.5179 35.3919 C 12.4152 36.0498 11.9886 36.5297 11.5656 36.4636 L 8.7892 36.03 C 8.366 35.9639 8.1063 35.3769 8.209 34.7188 L 9.6509 27.4992 C 9.7537 26.8413 10.1803 26.3614 10.6033 26.4277 L 12.7668 26.7656 C 13.1898 26.8317 13.4498 27.4187 13.3468 28.0768 L 12.5179 35.3919 Z " stroke-width="0.2411670982837677"/>
  <path id="ID0.9573684432543814" fill="#FBB03B" stroke="#000000" stroke-width="0.4823341965675354" d="M 24.5584 25.7585 C 24.7605 26.2512 24.5249 26.8148 24.0322 27.0171 L 22.8842 27.4881 C 22.3915 27.6905 21.8277 27.4548 21.6254 26.9619 L 21.1493 25.8019 C 20.947 25.3092 21.1828 24.7456 21.6755 24.5432 L 22.8235 24.0722 C 23.3162 23.8701 23.8798 24.1055 24.0821 24.5985 L 24.5584 25.7585 Z "/>
  <path id="ID0.41889808466657996" stroke="#1A1A1A" stroke-width="0.4823341965675354" d="M 24.2898 23.2682 C 24.509 23.7657 24.3689 24.3091 23.977 24.4817 L 21.4052 25.614 C 21.013 25.7864 20.5177 25.5229 20.2985 25.0253 L 18.1624 19.4037 C 17.9435 18.9062 18.0838 18.3626 18.4757 18.1902 L 20.4798 17.3077 C 20.8717 17.1353 21.3673 17.3984 21.5865 17.8964 L 24.2898 23.2682 Z "/>
  <path id="ID0.13261056737974286" fill="#FBB03B" stroke="#000000" stroke-width="0.4823341965675354" d="M 10.5367 6.4571 L 22.3045 6.4571 L 22.3045 16.1183 L 10.5367 16.1183 L 10.5367 6.4571 Z "/>
  <path id="ID0.6617734562605619" fill="#009999" stroke="#1A1A1A" stroke-width="0.4823341965675354" d="M 13.5487 13.1838 C 9.9558 13.1838 15.0408 8.5348 17.5106 8.2442 L 23.1621 7.806 C 22.9306 3.8933 19.6857 0.7912 15.7146 0.7912 L 14.3662 0.7912 C 10.2452 0.7912 6.9048 4.1318 6.9048 8.2529 L 6.9048 23.984 C 6.9048 28.105 10.2454 31.4457 14.3662 31.4457 L 15.7146 31.4457 C 19.8357 31.4457 23.1763 28.105 23.1763 23.984 C 23.1763 23.984 23.3767 17.7209 22.9351 17.0832 C 22.4933 16.4453 23.1763 13.184 23.1763 13.184 L 13.5487 13.184 Z "/>
  <path id="ID0.7134617334231734" d="M 20.9679 11.1032 C 21.1483 11.1032 21.3118 11.1765 21.43 11.295 C 21.5484 11.4131 21.6217 11.5766 21.6217 11.757 C 21.6217 11.9374 21.5484 12.1009 21.43 12.2191 C 21.3118 12.3375 21.1483 12.4108 20.9679 12.4108 C 20.7875 12.4108 20.624 12.3375 20.5059 12.2191 C 20.3874 12.1009 20.3141 11.9374 20.3141 11.757 C 20.3141 11.5766 20.3874 11.4131 20.5059 11.295 C 20.624 11.1765 20.7875 11.1032 20.9679 11.1032 Z " stroke-width="0.2411670982837677"/>
  <path id="ID0.6494691404514015" d="M 17.5916 11.1032 C 17.772 11.1032 17.9355 11.1765 18.0537 11.295 C 18.1721 11.4131 18.2454 11.5766 18.2454 11.757 C 18.2454 11.9374 18.1721 12.1009 18.0537 12.2191 C 17.9355 12.3375 17.772 12.4108 17.5916 12.4108 C 17.4112 12.4108 17.2477 12.3375 17.1295 12.2191 C 17.0111 12.1009 16.9378 11.9374 16.9378 11.757 C 16.9378 11.5766 17.0111 11.4131 17.1295 11.295 C 17.2477 11.1765 17.4112 11.1032 17.5916 11.1032 Z " stroke-width="0.2411670982837677"/>
  <path id="ID0.3106537782587111" fill="none" stroke="#000000" stroke-width="0.4823341965675354" d="M 7.6309 10.1386 C 7.6309 10.1386 5.6145 9.3975 3.5631 10.1386 C 1.7534 10.7924 0.5124 11.4462 0.5124 11.4462 "/>
  <path id="ID0.4428880806080997" fill="none" stroke="#000000" stroke-width="0.4823341965675354" d="M 7.275 10.032 C 7.275 10.032 6.7111 8.2454 4.6211 8.768 C 2.7545 9.2347 2.4364 8.4784 2.4364 8.4784 "/>
  <path id="ID0.5842904108576477" d="M 8.5691 37.5817 C 8.1424 37.5501 7.8224 37.178 7.8542 36.7509 L 8.0619 33.9485 C 8.0935 33.5214 8.4651 33.2009 8.8915 33.2325 L 13.5795 33.8914 C 14.0062 33.9229 14.3262 34.2948 14.2944 34.7219 L 14.1323 36.9055 C 14.1007 37.3326 13.7293 37.6536 13.3029 37.6217 L 8.5691 37.5817 Z " stroke-width="0.2411670982837677"/>
  <path id="ID0.01732994895428419" d="M 16.4142 37.5817 C 15.9874 37.5501 15.6676 37.178 15.6992 36.7509 L 15.907 33.9485 C 15.9386 33.5214 16.31 33.2009 16.7367 33.2325 L 21.4247 33.8914 C 21.8511 33.9229 22.1714 34.2948 22.1395 34.7219 L 21.9775 36.9055 C 21.9456 37.3326 21.5745 37.6536 21.1478 37.6217 L 16.4142 37.5817 Z " stroke-width="0.2411670982837677"/>
  <path id="ID0.2511214418336749" fill="#FFFFFF" stroke="#7F7F7F" stroke-width="0.999999987450277" stroke-linecap="round" d="M 29.2022 14.545 L 24.4747 21.6931 L 30.0013 27.7709 L 22.1601 24.8384 L 15.877 28.6243 L 19.4838 21.9947 L 15.0779 15.3984 L 21.5866 18.6618 L 29.2022 14.545 Z "/>
  <path id="ID0.8803494698368013" stroke="#1A1A1A" stroke-width="0.48233421320028075" d="M 18.29 19.8706 C 18.7531 20.1556 18.9462 20.6825 18.7215 21.0472 L 17.2476 23.4397 C 17.023 23.8041 16.4654 23.8687 16.0024 23.5835 L 11.0521 20.1686 C 10.5892 19.8836 10.3959 19.3565 10.6208 18.9919 L 11.7694 17.1278 C 11.994 16.7634 12.5513 16.6986 13.0146 16.9841 L 18.29 19.8706 Z "/>
  <path id="ID0.08818722935393453" fill="#FBB03B" stroke="#000000" stroke-width="0.48233421320028075" d="M 19.9251 21.768 C 20.3712 22.0592 20.4974 22.6565 20.2067 23.1027 L 19.5292 24.1424 C 19.2385 24.5886 18.6406 24.7147 18.1945 24.4238 L 17.1441 23.7396 C 16.6979 23.4484 16.5717 22.8511 16.8625 22.4046 L 17.54 21.3652 C 17.8307 20.919 18.4283 20.7928 18.8747 21.0838 L 19.9251 21.768 Z "/>
</svg>