<svg xmlns="http://www.w3.org/2000/svg" xmlns:xlink="http://www.w3.org/1999/xlink" version="1.1" width="50.52900525176505" height="69.20440884673575" viewBox="0.8678776212335646 4.729999441683393 50.52900525176505 69.20440884673575">
  <!-- Exported by Scratch - http://scratch.mit.edu/ -->
  <g id="ID0.5627362658269703">
    <path id="ID0.7095291647128761" d="M 38.459 70.576 C 38.339 71.348 37.838 71.912 37.341 71.835 L 34.082 71.325 C 33.585 71.248 33.28 70.558 33.4 69.785 L 35.093 61.31 C 35.214 60.538 35.714 59.974 36.21 60.052 L 38.75 60.448 C 39.247 60.526 39.552 61.215 39.432 61.986 L 38.459 70.576 Z " stroke-width="1"/>
    <path id="ID0.07840509107336402" d="M 33.824 73.146 C 33.322 73.11 32.947 72.672 32.983 72.17 L 33.228 68.881 C 33.265 68.379 33.701 68.003 34.202 68.041 L 39.705 68.813 C 40.206 68.85 40.582 69.287 40.545 69.788 L 40.355 72.351 C 40.319 72.853 39.883 73.229 39.381 73.193 L 33.824 73.146 Z " stroke-width="1"/>
  </g>
  <g id="ID0.3884058422408998">
    <path id="ID0.4977212129160762" d="M 42.777 73.174 C 42.277 73.128 41.909 72.686 41.955 72.183 L 42.259 68.9 C 42.304 68.398 42.747 68.031 43.247 68.077 L 48.735 68.949 C 49.236 68.995 49.603 69.438 49.558 69.937 L 49.322 72.498 C 49.275 72.999 48.833 73.367 48.334 73.322 L 42.777 73.174 Z " stroke-width="1"/>
    <path id="ID0.8388573401607573" d="M 46.9 69.025 C 47.08 69.786 46.83 70.496 46.338 70.613 L 43.13 71.375 C 42.64 71.492 42.097 70.971 41.917 70.21 L 40.273 61.724 C 40.092 60.963 40.343 60.253 40.832 60.137 L 43.334 59.542 C 43.823 59.426 44.366 59.948 44.546 60.709 L 46.9 69.025 Z " stroke-width="1"/>
  </g>
  <path id="ID0.3610392170958221" fill="#003FFF" stroke="#000000" stroke-width="1.2173788174388767" d="M 41.35 43.6597 C 43.8351 43.4407 46.4361 45.3877 48.1 47.5042 C 49.7391 49.588 50.4063 52.7327 50.4625 55.519 C 50.5131 58.0303 49.819 60.9 48.2687 62.6216 C 46.516 64.4122 43.9026 64.9804 41.575 64.9674 C 39.2564 64.9544 36.5485 64.4513 34.7687 62.6216 C 33.2275 60.9196 33.0295 57.9834 32.6875 55.519 C 32.3995 53.4352 31.4534 50.8365 32.6313 49.2635 C 34.7834 46.3886 38.0537 44.0976 41.35 43.6597 Z "/>
  <path id="ID0.7086072596721351" fill="#FFFFFF" stroke="none" stroke-linecap="round" d="M 32.5584 31.3295 C 32.9211 31.2466 33.2849 31.3214 33.5782 31.5098 C 33.8725 31.698 34.0964 31.9997 34.1808 32.3692 C 34.2652 32.7387 34.1946 33.1076 34.0113 33.405 C 33.8289 33.7021 33.5337 33.9275 33.171 34.0104 C 32.8084 34.0932 32.4445 34.0184 32.1512 33.83 C 31.8569 33.6418 31.6331 33.3401 31.5486 32.9706 C 31.4642 32.6012 31.5348 32.2322 31.7181 31.9349 C 31.9005 31.6378 32.1957 31.4123 32.5584 31.3295 Z " stroke-width="0.9999999781523206"/>
  <g id="ID0.4069529417902231">
    <path id="ID0.7281417334452271" fill="#FBB03B" stroke="#000000" stroke-width="0.566183443700667" d="M 31.9432 36.799 L 45.5137 34.2137 L 47.6362 45.3551 L 34.0656 47.9403 L 31.9432 36.799 Z "/>
    <path id="ID0.21047586435452104" fill="#CCCCCC" stroke="#1A1A1A" stroke-width="0.5661999900249796" d="M 36.9475 43.8435 C 32.8047 44.6328 37.6463 38.1539 40.4315 37.2767 L 46.853 35.5281 C 45.7258 31.0682 41.3042 28.2041 36.7231 29.0763 L 35.1679 29.3724 C 30.4162 30.2782 27.2966 34.8639 28.2016 39.6169 L 31.6592 57.7576 C 43.6867 65.3897 47.7965 58.1705 50.4243 54.1835 C 51.7046 52.8595 49.2431 47.4203 48.6288 46.2787 C 48.0707 45.4236 48.0517 41.7286 48.0517 41.7286 L 36.9475 43.8435 Z "/>
  </g>
  <g id="ID0.804477680940181">
    <path id="ID0.049661871045827866" d="M 44.5197 40.05 C 44.7263 40.0028 44.9327 40.0439 45.0991 40.1484 C 45.2656 40.253 45.3922 40.421 45.4394 40.6276 C 45.4867 40.8343 45.4456 41.0407 45.3411 41.2071 C 45.2365 41.3736 45.0685 41.5002 44.8618 41.5474 C 44.6552 41.5947 44.4488 41.5536 44.2824 41.449 C 44.1159 41.3445 43.9893 41.1765 43.942 40.9698 C 43.8948 40.7631 43.9359 40.5568 44.0404 40.3903 C 44.145 40.2239 44.313 40.0973 44.5197 40.05 Z " stroke-width="0.9999999781523206"/>
    <path id="ID0.5016829459927976" d="M 40.839 40.6552 C 41.0456 40.6079 41.251 40.6492 41.4175 40.7538 C 41.584 40.8583 41.7103 41.0254 41.7576 41.232 C 41.8048 41.4387 41.7635 41.6441 41.659 41.8105 C 41.5544 41.977 41.3874 42.1034 41.1807 42.1506 C 40.974 42.1978 40.7687 42.1566 40.6022 42.052 C 40.4357 41.9475 40.3093 41.7804 40.2621 41.5738 C 40.2149 41.3671 40.2562 41.1617 40.3607 40.9952 C 40.4653 40.8288 40.6323 40.7024 40.839 40.6552 Z " stroke-width="0.9999999781523206"/>
  </g>
  <g id="ID0.8707441003061831">
    <path id="ID0.9812898933887482" fill="none" stroke="#000000" stroke-width="0.5661999876298439" d="M 28.955 43.7866 C 28.955 43.7866 26.4327 43.7599 24.4574 45.3909 C 22.7126 46.8276 21.5983 48.0383 21.5983 48.0383 "/>
    <path id="ID0.5538734113797545" fill="none" stroke="#000000" stroke-width="0.5661999876298439" d="M 28.5177 43.8076 C 28.5177 43.8076 27.191 42.0551 25.0833 43.4568 C 23.2042 44.7099 22.5554 43.9986 22.5554 43.9986 "/>
  </g>
  <path id="ID0.028952989727258682" fill="#FFF05D" stroke="#000000" stroke-width="0.5180999886807173" d="M 32.6478 40.8145 C 30.9993 42.2416 31.2334 40.4966 29.59 38.8575 L 20.3421 28.4183 L 3.2207 12.9168 C 1.0529 11.1063 0.8328 8.2218 2.9728 6.3778 C 5.1133 4.5315 7.782 5.2747 9.4022 7.589 L 21.912 27.0646 L 30.834 37.7701 C 32.1969 39.5235 33.9246 39.7134 32.6478 40.8145 Z "/>
  <g id="ID0.4284289279021323">
    <path id="ID0.6397467940114439" fill="#FBB03B" stroke="#000000" stroke-width="0.5661999876298439" d="M 25.8215 36.8915 C 25.5926 36.312 25.8786 35.6558 26.459 35.4257 L 27.8147 34.8943 C 28.3987 34.6624 29.0551 34.9494 29.2841 35.5341 L 29.8215 36.9028 C 30.0506 37.4833 29.7637 38.1448 29.18 38.3736 L 27.8263 38.9045 C 27.2453 39.1317 26.5871 38.8461 26.3588 38.2643 L 25.8215 36.8915 Z "/>
    <path id="ID0.9793291371315718" stroke="#1A1A1A" stroke-width="0.5661999876298439" d="M 26.0913 39.8231 C 25.8425 39.2327 26.016 38.6001 26.4795 38.4019 L 29.5192 37.1195 C 29.9812 36.9237 30.5596 37.2419 30.8079 37.8303 L 33.2129 44.4674 C 33.4622 45.0556 33.286 45.6898 32.824 45.8856 L 30.4572 46.885 C 29.993 47.0803 29.4156 46.7619 29.1708 46.1757 L 26.0913 39.8231 Z "/>
  </g>
</svg>