<svg xmlns="http://www.w3.org/2000/svg" xmlns:xlink="http://www.w3.org/1999/xlink" version="1.1" width="30.477526834469227" height="31.375025918941883" viewBox="0.6829370603654836 0.525337015161321 30.477526834469227 31.375025918941883">
  <!-- Exported by Scratch - http://scratch.mit.edu/ -->
  <path id="ID0.255261589307338" d="M 12.4419 27.2947 C 12.3626 27.6747 12.4965 28.0243 12.7408 28.0753 L 14.3446 28.4101 C 14.5888 28.4611 14.8515 28.1944 14.9309 27.8144 L 15.6303 23.5792 C 15.7098 23.1992 15.5758 22.8498 15.3314 22.7987 L 14.0818 22.5379 C 13.8374 22.4869 13.5749 22.7536 13.4955 23.1336 L 12.4419 27.2947 Z " stroke-width="0.1406080573797226"/>
  <path id="ID0.03648320911452174" d="M 17.0349 27.5639 C 17.0948 27.9475 17.3435 28.2273 17.5901 28.1888 L 19.2088 27.936 C 19.4556 27.8974 19.607 27.5552 19.5471 27.1715 L 18.7064 22.9622 C 18.6465 22.5787 18.3978 22.2989 18.1512 22.3375 L 16.8898 22.5345 C 16.6431 22.573 16.4916 22.9153 16.5516 23.299 L 17.0349 27.5639 Z " stroke-width="0.1406080573797226"/>
  <path id="ID0.9573684432543814" fill="#FBB03B" stroke="#000000" stroke-width="0.2812161147594452" d="M 10.0149 21.9473 C 9.897 22.2346 10.0344 22.5632 10.3217 22.6812 L 10.991 22.9558 C 11.2782 23.0737 11.607 22.9364 11.7249 22.649 L 12.0025 21.9726 C 12.1205 21.6854 11.983 21.3568 11.6957 21.2388 L 11.0264 20.9642 C 10.7391 20.8464 10.4105 20.9836 10.2926 21.271 L 10.0149 21.9473 Z "/>
  <path id="ID0.41889808466657996" stroke="#1A1A1A" stroke-width="0.2812161147594452" d="M 10.1715 20.4954 C 10.0437 20.7855 10.1254 21.1023 10.3539 21.203 L 11.8533 21.8631 C 12.0819 21.9636 12.3708 21.81 12.4986 21.5199 L 13.7439 18.2423 C 13.8716 17.9522 13.7898 17.6353 13.5613 17.5348 L 12.3928 17.0203 C 12.1643 16.9198 11.8754 17.0732 11.7476 17.3635 L 10.1715 20.4954 Z "/>
  <path id="ID0.13261056737974286" fill="#FBB03B" stroke="#000000" stroke-width="0.2812161147594452" d="M 18.19 10.6941 L 11.329 10.6941 L 11.329 16.3268 L 18.19 16.3268 L 18.19 10.6941 Z "/>
  <path id="ID0.6617734562605619" fill="#009933" stroke="#1A1A1A" stroke-width="0.2812161147594452" d="M 16.4339 14.6159 C 18.5287 14.6159 15.564 11.9054 14.124 11.736 L 10.829 11.4805 C 10.964 9.1992 12.8559 7.3906 15.1711 7.3906 L 15.9572 7.3906 C 18.36 7.3906 20.3075 9.3383 20.3075 11.741 L 20.3075 20.9127 C 20.3075 23.3155 18.3598 25.2632 15.9572 25.2632 L 15.1711 25.2632 C 12.7684 25.2632 10.8207 23.3155 10.8207 20.9127 C 10.8207 20.9127 10.7038 17.2612 10.9613 16.8894 C 11.2189 16.5175 10.8207 14.616 10.8207 14.616 L 16.4339 14.616 Z "/>
  <path id="ID0.7134617334231734" d="M 12.1082 13.4029 C 12.0031 13.4029 11.9077 13.4456 11.8388 13.5147 C 11.7698 13.5835 11.7271 13.6789 11.7271 13.7841 C 11.7271 13.8892 11.7698 13.9846 11.8388 14.0535 C 11.9077 14.1225 12.0031 14.1652 12.1082 14.1652 C 12.2134 14.1652 12.3087 14.1225 12.3776 14.0535 C 12.4467 13.9846 12.4894 13.8892 12.4894 13.7841 C 12.4894 13.6789 12.4467 13.5835 12.3776 13.5147 C 12.3087 13.4456 12.2134 13.4029 12.1082 13.4029 Z " stroke-width="0.1406080573797226"/>
  <path id="ID0.6494691404514015" d="M 14.0768 13.4029 C 13.9716 13.4029 13.8762 13.4456 13.8073 13.5147 C 13.7383 13.5835 13.6956 13.6789 13.6956 13.7841 C 13.6956 13.8892 13.7383 13.9846 13.8073 14.0535 C 13.8762 14.1225 13.9716 14.1652 14.0768 14.1652 C 14.1819 14.1652 14.2773 14.1225 14.3462 14.0535 C 14.4152 13.9846 14.4579 13.8892 14.4579 13.7841 C 14.4579 13.6789 14.4152 13.5835 14.3462 13.5147 C 14.2773 13.4456 14.1819 13.4029 14.0768 13.4029 Z " stroke-width="0.1406080573797226"/>
  <path id="ID0.3106537782587111" fill="none" stroke="#000000" stroke-width="0.2812161147594452" d="M 19.8841 12.8404 C 19.8841 12.8404 21.0598 12.4083 22.2558 12.8404 C 23.3109 13.2216 24.0345 13.6028 24.0345 13.6028 "/>
  <path id="ID0.4428880806080997" fill="none" stroke="#000000" stroke-width="0.2812161147594452" d="M 20.0917 12.7783 C 20.0917 12.7783 20.4204 11.7367 21.6389 12.0414 C 22.7272 12.3134 22.9127 11.8725 22.9127 11.8725 "/>
  <path id="ID0.08818722935393453" fill="#FBB03B" stroke="#000000" stroke-width="0.2812161147594452" d="M 19.8712 22.5375 C 20.0031 22.8187 20.3378 22.94 20.619 22.8084 L 21.2742 22.5016 C 21.5554 22.37 21.6768 22.0351 21.545 21.7539 L 21.2353 21.0919 C 21.1034 20.8107 20.7687 20.6893 20.4874 20.8209 L 19.8323 21.1277 C 19.551 21.2593 19.4297 21.5941 19.5615 21.8755 L 19.8712 22.5375 Z "/>
  <path id="ID0.8803494698368013" stroke="#1A1A1A" stroke-width="0.2812161147594452" d="M 18.9085 21.4395 C 19.0354 21.73 19.324 21.8842 19.5527 21.7841 L 21.0537 21.1273 C 21.2824 21.0272 21.3649 20.7105 21.2378 20.4201 L 19.668 17.2848 C 19.5411 16.9944 19.2524 16.84 19.0236 16.9403 L 17.8542 17.4521 C 17.6256 17.5522 17.5429 17.8687 17.6701 18.1594 L 18.9085 21.4395 Z "/>
  <path id="ID0.5842904108576477" d="M 19.3372 28.8406 C 19.5859 28.8222 19.7725 28.6053 19.7539 28.3563 L 19.6329 26.7224 C 19.6145 26.4734 19.3978 26.2865 19.1492 26.3049 L 16.4159 26.6891 C 16.1672 26.7075 15.9806 26.9243 15.9991 27.1733 L 16.0936 28.4464 C 16.1121 28.6954 16.3286 28.8825 16.5772 28.864 L 19.3372 28.8406 Z " stroke-width="0.1406080573797226"/>
  <path id="ID0.01732994895428419" d="M 14.7632 28.8406 C 15.0121 28.8222 15.1985 28.6053 15.1801 28.3563 L 15.0589 26.7224 C 15.0405 26.4734 14.8239 26.2865 14.5752 26.3049 L 11.8419 26.6891 C 11.5933 26.7075 11.4066 26.9243 11.4252 27.1733 L 11.5197 28.4464 C 11.5382 28.6954 11.7546 28.8825 12.0033 28.864 L 14.7632 28.8406 Z " stroke-width="0.1406080573797226"/>
  <g id="ID0.07952108979225159">
    <path id="ID0.07179283257573843" fill="none" stroke="#000000" stroke-width="1.9375259189418843" d="M 1.6517 1.4941 L 30.1917 1.4941 L 30.1917 30.9316 L 1.6517 30.9316 L 1.6517 1.4941 Z "/>
    <path id="ID0.9966579801402986" fill="none" stroke="#000000" stroke-width="0.9906693543017209" stroke-linecap="round" d="M 16.15 1.9847 L 16.15 30.1466 "/>
    <path id="ID0.667331853415817" fill="none" stroke="#000000" stroke-width="0.9906693543017209" stroke-linecap="round" d="M 23.2 1.8375 L 23.2 30.4409 "/>
    <path id="ID0.663609794806689" fill="none" stroke="#000000" stroke-width="0.9906693543017209" stroke-linecap="round" d="M 8.55 1.5922 L 8.55 30.5391 "/>
  </g>
</svg>