<svg xmlns="http://www.w3.org/2000/svg" xmlns:xlink="http://www.w3.org/1999/xlink" version="1.1" width="63.17735290527344" height="43.958133697509766" viewBox="0.9512462615966797 0.07125139236450195 63.17735290527344 43.958133697509766">
  <!-- Exported by Scratch - http://scratch.mit.edu/ -->
  <g id="ID0.5289877979084849">
    <path id="ID0.5824755243957043" d="M 43.459 40.91 C 43.339 41.682 42.838 42.246 42.341 42.169 L 39.082 41.659 C 38.585 41.582 38.28 40.892 38.4 40.119 L 40.093 31.644 C 40.214 30.872 40.714 30.308 41.21 30.386 L 43.75 30.782 C 44.247 30.86 44.552 31.549 44.432 32.32 L 43.459 40.91 Z " stroke-width="1"/>
    <path id="ID0.09308562520891428" d="M 38.824 43.48 C 38.322 43.444 37.947 43.006 37.983 42.504 L 38.228 39.215 C 38.265 38.713 38.701 38.337 39.202 38.375 L 44.705 39.147 C 45.206 39.184 45.582 39.621 45.545 40.122 L 45.355 42.685 C 45.319 43.187 44.883 43.563 44.381 43.527 L 38.824 43.48 Z " stroke-width="1"/>
  </g>
  <g id="ID0.6090325159020722">
    <path id="ID0.8168984204530716" d="M 51.431 43.48 C 50.93 43.444 50.554 43.006 50.591 42.504 L 50.836 39.215 C 50.872 38.713 51.309 38.337 51.81 38.375 L 57.313 39.147 C 57.813 39.184 58.189 39.621 58.153 40.122 L 57.963 42.685 C 57.926 43.187 57.489 43.563 56.989 43.527 L 51.431 43.48 Z " stroke-width="1"/>
    <path id="ID0.8534832675941288" d="M 54.885 39.021 C 55.29 39.689 55.272 40.442 54.841 40.705 L 52.024 42.419 C 51.594 42.682 50.917 42.353 50.511 41.685 L 46.33 34.12 C 45.924 33.452 45.943 32.699 46.372 32.437 L 48.568 31.1 C 48.998 30.838 49.675 31.168 50.081 31.836 L 54.885 39.021 Z " stroke-width="1"/>
  </g>
  <path id="ID0.3610392170958221" fill="#003FFF" stroke="#000000" stroke-width="1" d="M 48.05 20.9 C 50.23 20.9 52.205 21.712 53.635 23.025 C 55.065 24.337 55.95 26.15 55.95 28.15 C 55.95 30.15 55.065 31.963 53.635 33.275 C 52.205 34.588 50.23 35.4 48.05 35.4 C 45.87 35.4 43.895 34.588 42.465 33.275 C 41.035 31.963 40.15 30.15 40.15 28.15 C 40.15 26.15 41.035 24.337 42.465 23.025 C 43.895 21.712 45.87 20.9 48.05 20.9 Z "/>
  <g id="ID0.7599780382588506">
    <path id="ID0.5522712115198374" fill="#FBB03B" stroke="#000000" stroke-width="0.5662109120314839" d="M 49.8732 5.8234 L 62.8478 10.572 L 58.9499 21.2223 L 45.9753 16.4738 L 49.8732 5.8234 Z "/>
    <path id="ID0.6870047394186258" fill="#CCCCCC" stroke="#1A1A1A" stroke-width="0.5662" d="M 50.491 14.438 C 46.53 12.989 54.012 9.916 56.851 10.591 L 63.259 12.388 C 64.581 7.982 62.257 3.253 57.878 1.651 L 56.392 1.107 C 51.85 -0.555 46.818 1.779 45.155 6.322 L 38.808 23.664 C 45.296 34.667 52.1 32.067 56.747 30.23 C 58.842 29.537 58.988 24.13 59.264 22.525 C 59.365 21.401 61.105 18.324 61.105 18.324 L 50.491 14.438 Z "/>
  </g>
  <g id="ID0.709036692045629">
    <path id="ID0.6454382967203856" d="M 60.379 12.827 C 60.591 12.827 60.783 12.913 60.922 13.052 C 61.061 13.191 61.147 13.383 61.147 13.595 C 61.147 13.807 61.061 13.999 60.922 14.138 C 60.783 14.277 60.591 14.363 60.379 14.363 C 60.167 14.363 59.975 14.277 59.836 14.138 C 59.697 13.999 59.611 13.807 59.611 13.595 C 59.611 13.383 59.697 13.191 59.836 13.052 C 59.975 12.913 60.167 12.827 60.379 12.827 Z " stroke-width="1"/>
    <path id="ID0.3061303119175136" d="M 56.656 12.597 C 56.868 12.597 57.059 12.683 57.198 12.822 C 57.337 12.961 57.423 13.152 57.423 13.364 C 57.423 13.576 57.337 13.767 57.198 13.906 C 57.059 14.045 56.868 14.131 56.656 14.131 C 56.444 14.131 56.253 14.045 56.114 13.906 C 55.975 13.767 55.889 13.576 55.889 13.364 C 55.889 13.152 55.975 12.961 56.114 12.822 C 56.253 12.683 56.444 12.597 56.656 12.597 Z " stroke-width="1"/>
  </g>
  <g id="ID0.7351767676882446">
    <path id="ID0.47890645265579224" fill="none" stroke="#000000" stroke-width="0.5662" d="M 44.421 9.887 C 44.421 9.887 41.938 10.329 40.299 12.298 C 38.852 14.033 37.982 15.431 37.982 15.431 "/>
    <path id="ID0.1934835067950189" fill="none" stroke="#000000" stroke-width="0.5662" d="M 43.996 9.989 C 43.996 9.989 42.366 8.513 40.557 10.281 C 38.943 11.861 38.173 11.283 38.173 11.283 "/>
  </g>
  <path id="ID0.8436069656163454" fill="#FFF05D" stroke="#000000" stroke-width="0.5181" d="M 44.393 24.916 C 45.151 26.96 43.599 26.129 41.488 27.094 L 28.469 32.095 L 7.949 42.695 C 5.493 44.091 2.714 43.286 1.737 40.635 C 0.759 37.983 2.39 35.743 5.127 35.037 L 27.752 30.149 L 40.906 25.545 C 43.024 24.886 43.809 23.334 44.393 24.916 Z "/>
  <g id="ID0.5123446495272219">
    <path id="ID0.10209798347204924" fill="#FBB03B" stroke="#000000" stroke-width="0.5662" d="M 41.95 27.163 C 41.673 27.721 40.994 27.948 40.434 27.671 L 39.131 27.02 C 38.568 26.742 38.341 26.062 38.621 25.5 L 39.278 24.185 C 39.556 23.625 40.239 23.395 40.799 23.676 L 42.101 24.326 C 42.659 24.605 42.887 25.285 42.608 25.845 L 41.95 27.163 Z "/>
    <path id="ID0.653992504812777" stroke="#1A1A1A" stroke-width="0.5662" d="M 43.945 24.999 C 43.674 25.579 43.088 25.874 42.631 25.662 L 39.643 24.264 C 39.188 24.052 39.037 23.41 39.308 22.831 L 42.626 16.6 C 42.895 16.021 43.484 15.727 43.939 15.939 L 46.266 17.028 C 46.722 17.242 46.872 17.883 46.601 18.458 L 43.945 24.999 Z "/>
  </g>
  <path id="ID0.7086072596721351" fill="#FFFFFF" stroke="none" stroke-linecap="round" d="M 50.65 3.3 C 51.022 3.3 51.36 3.454 51.604 3.703 C 51.849 3.952 52 4.296 52 4.675 C 52 5.054 51.849 5.398 51.604 5.647 C 51.36 5.896 51.022 6.05 50.65 6.05 C 50.278 6.05 49.94 5.896 49.696 5.647 C 49.451 5.398 49.3 5.054 49.3 4.675 C 49.3 4.296 49.451 3.952 49.696 3.703 C 49.94 3.454 50.278 3.3 50.65 3.3 Z " stroke-width="1"/>
</svg>