<svg xmlns="http://www.w3.org/2000/svg" xmlns:xlink="http://www.w3.org/1999/xlink" version="1.1" width="31.380465677242665" height="41.861888101559074" viewBox="0.3159317121599172 0.03847352124194847 31.380465677242665 41.861888101559074">
  <!-- Exported by Scratch - http://scratch.mit.edu/ -->
  <g id="ID0.07952108979225159">
    <path id="ID0.07179283257573843" fill="none" stroke="#000000" stroke-width="1.9375259189418843" d="M 1.5017 11.4941 L 30.0417 11.4941 L 30.0417 40.9316 L 1.5017 40.9316 L 1.5017 11.4941 Z "/>
    <path id="ID0.9966579801402986" fill="none" stroke="#000000" stroke-width="0.9906693543017209" stroke-linecap="round" d="M 16 11.9847 L 16 40.1466 "/>
    <path id="ID0.667331853415817" fill="none" stroke="#000000" stroke-width="0.9906693543017209" stroke-linecap="round" d="M 23.05 11.8375 L 23.05 40.4409 "/>
    <path id="ID0.663609794806689" fill="none" stroke="#000000" stroke-width="0.9906693543017209" stroke-linecap="round" d="M 8.4 11.5922 L 8.4 40.5391 "/>
  </g>
  <g id="ID0.8559394953772426">
    <g id="ID0.36956786597147584">
      <path id="ID0.8887924607843161" fill="#FBB03B" stroke="#000000" d="M 1.4252 29.5756 C 1.0769 30.4388 1.3984 31.3605 2.1437 31.6342 L 3.8773 32.2711 C 4.621 32.5456 5.5075 32.0671 5.8555 31.2036 L 6.6742 29.1711 C 7.0225 28.3079 6.7006 27.3858 5.9561 27.1125 L 4.2222 26.4752 C 3.4788 26.2011 2.5923 26.6788 2.2447 27.5427 L 1.4252 29.5756 Z " stroke-width="0.38277512788772583"/>
      <path id="ID0.19101047795265913" stroke="#1A1A1A" d="M 2.0223 25.3184 C 1.6476 26.1915 1.8237 27.093 2.4151 27.3303 L 6.2937 28.8882 C 6.8855 29.1259 7.6683 28.6099 8.0422 27.736 L 11.7487 17.911 C 12.1234 17.0371 11.9473 16.1356 11.3563 15.8991 L 8.3339 14.6845 C 7.7418 14.4465 6.9594 14.9632 6.585 15.8371 L 2.0223 25.3184 Z " stroke-width="0.38277512788772583"/>
    </g>
    <path id="ID0.6703295614570379" fill="#FBB03B" stroke="#000000" d="M 19.7444 12.5211 L 9.542 12.5211 L 9.542 16.5027 L 19.7444 16.5027 L 19.7444 12.5211 Z " stroke-width="0.38277512788772583"/>
    <path id="ID0.8953676312230527" stroke="#1A1A1A" d="M 18.4832 37.9289 C 18.6072 38.7236 19.1217 39.3031 19.6331 39.2231 L 22.9866 38.6991 C 23.4976 38.6199 23.8111 37.9102 23.687 37.1159 L 21.9454 28.3963 C 21.8214 27.6021 21.3062 27.0222 20.7955 27.1022 L 18.1827 27.5102 C 17.6713 27.5898 17.3578 28.2991 17.4819 29.0937 L 18.4832 37.9289 Z " stroke-width="0.38277512788772583"/>
    <path id="ID0.2110265581868589" stroke="#1A1A1A" d="M 8.9686 37.3709 C 8.804 38.1586 9.0815 38.8821 9.5875 38.9885 L 12.91 39.6821 C 13.416 39.7877 13.96 39.2354 14.1242 38.448 L 15.5733 29.6748 C 15.7379 28.8874 15.4604 28.1636 14.954 28.0576 L 12.3653 27.5171 C 11.8589 27.4118 11.3154 27.9642 11.1508 28.7515 L 8.9686 37.3709 Z " stroke-width="0.38277512788772583"/>
    <path id="ID0.07435107231140137" fill="#FF0000" stroke="#1A1A1A" d="M 20.8755 11.8769 C 24.3182 13.0007 24.8633 16.6432 24.8633 16.6432 L 25.0711 26.83 C 25.0711 31.8076 21.2273 32.0147 16.2501 32.0147 C 16.2501 32.0147 10.0912 32.5789 8.5383 31.3081 C 6.518 29.6556 6.5674 26.9644 6.5674 24.1506 C 6.5674 24.1506 5.5986 20.2493 6.0001 17.5156 C 6.3067 15.4252 8.536 12.3527 10.1441 13.7513 C 11.6641 15.0734 12.1326 16.5475 13.3977 16.0243 C 16.4725 14.7523 20.8755 11.8769 20.8755 11.8769 Z " stroke-width="0.38277512788772583"/>
    <path id="ID0.9993558046407998" fill="none" stroke="#000000" stroke-width="0.7655502557754517" d="M 21.16 3.6342 C 21.16 3.6342 23.5378 4.6731 24.7075 7.0333 C 25.7391 9.1152 26.2761 10.7232 26.2761 10.7232 "/>
    <path id="ID0.5059289545752108" fill="none" stroke="#000000" stroke-width="0.7655502557754517" d="M 21.5592 3.839 C 21.5592 3.839 23.5443 2.7519 24.9303 4.9544 C 26.1682 6.9207 27.0773 6.5268 27.0773 6.5268 "/>
    <path id="ID0.6021937313489616" stroke="#1A1A1A" d="M 23.2522 40.5743 C 23.7674 40.536 24.1536 40.0867 24.1157 39.5703 L 23.8643 36.1858 C 23.8264 35.6698 23.3778 35.2828 22.8625 35.3207 L 17.2005 36.1165 C 16.6853 36.1548 16.2991 36.6042 16.337 37.1198 L 16.5326 39.7571 C 16.5712 40.2731 17.0195 40.66 17.5347 40.6222 L 23.2522 40.5743 Z " stroke-width="0.38277512788772583"/>
    <path id="ID0.339677725918591" stroke="#1A1A1A" d="M 13.777 40.5743 C 14.2922 40.536 14.6784 40.0867 14.6405 39.5703 L 14.3894 36.1858 C 14.3511 35.6698 13.9025 35.2828 13.3877 35.3207 L 7.7253 36.1165 C 7.2101 36.1548 6.8239 36.6042 6.8618 37.1198 L 7.0578 39.7571 C 7.096 40.2731 7.5443 40.66 8.0595 40.6222 L 13.777 40.5743 Z " stroke-width="0.38277512788772583"/>
    <g id="ID0.965792934410274">
      <path id="ID0.6905065542086959" fill="#FBB03B" stroke="#000000" d="M 7.4941 11.4367 C 7.5864 12.8074 8.773 13.8444 10.1437 13.7517 L 19.3594 13.1305 C 20.7305 13.0382 21.767 11.852 21.6748 10.4809 L 21.1925 3.3276 C 21.1002 1.9569 19.9136 0.9203 18.5429 1.013 L 9.3272 1.6338 C 7.9561 1.7261 6.9196 2.9127 7.0118 4.2838 L 7.4941 11.4367 Z " stroke-width="0.38277512788772583"/>
      <path id="ID0.22811504919081926" d="M 9.3288 8.1693 C 9.111 8.1693 8.9134 8.2578 8.7707 8.4009 C 8.6275 8.5437 8.5391 8.7412 8.5391 8.959 C 8.5391 9.1768 8.6275 9.3743 8.7707 9.5171 C 8.9134 9.6602 9.111 9.7487 9.3288 9.7487 C 9.5466 9.7487 9.7441 9.6602 9.8868 9.5171 C 10.03 9.3743 10.1184 9.1768 10.1184 8.959 C 10.1184 8.7412 10.03 8.5437 9.8868 8.4009 C 9.7441 8.2578 9.5466 8.1693 9.3288 8.1693 Z " stroke-width="0.38277512788772583"/>
      <path id="ID0.013563781976699829" d="M 13.3973 7.8953 C 13.1795 7.8953 12.982 7.9837 12.8392 8.1268 C 12.696 8.2696 12.6076 8.4671 12.6076 8.6849 C 12.6076 8.9027 12.696 9.1002 12.8392 9.243 C 12.982 9.3862 13.1795 9.4746 13.3973 9.4746 C 13.6151 9.4746 13.8126 9.3862 13.9554 9.243 C 14.0985 9.1002 14.1869 8.9027 14.1869 8.6849 C 14.1869 8.4671 14.0985 8.2696 13.9554 8.1268 C 13.8126 7.9837 13.6151 7.8953 13.3973 7.8953 Z " stroke-width="0.38277512788772583"/>
    </g>
    <path id="ID0.7039444665424526" fill="none" stroke="#000000" stroke-width="0.7655502557754517" d="M 21.16 4.0044 C 21.16 4.0044 15.158 3.6694 11.8156 4.1245 C 9.0558 4.5004 7.065 5.065 7.065 5.065 "/>
    <path id="ID0.6159620601683855" fill="none" stroke="#000000" d="M 13.3973 11.3027 L 12.7458 11 L 10.1184 12.0648 " stroke-width="0.38277512788772583"/>
    <path id="ID0.7549523301422596" fill="none" stroke="#000000" d="M 13.8363 6.559 L 12.2708 7.382 " stroke-width="0.38277512788772583"/>
    <path id="ID0.23084450559690595" fill="none" stroke="#000000" d="M 10.1184 7.382 L 8.7305 6.7959 " stroke-width="0.38277512788772583"/>
    <path id="ID0.7660430069081485" fill="none" stroke="#1A1A1A" stroke-width="0.7655502557754517" d="M 24.6505 23.942 C 24.6505 23.942 19.0359 25.5286 14.9429 25.5374 C 10.0947 25.5485 6.7665 25.0283 6.7665 25.0283 "/>
    <g id="ID0.3789146998897195">
      <path id="ID0.29586266726255417" fill="#FBB03B" stroke="#000000" d="M 26.3638 30.3106 C 26.7787 31.1439 27.6817 31.5148 28.381 31.1385 L 30.007 30.2639 C 30.706 29.8888 30.9364 28.9085 30.5207 28.0752 L 29.5427 26.1146 C 29.1278 25.2813 28.2244 24.9104 27.5255 25.2863 L 25.8987 26.1609 C 25.2005 26.5356 24.9701 27.5163 25.3858 28.3492 L 26.3638 30.3106 Z " stroke-width="0.38277512788772583"/>
      <path id="ID0.5044724489562213" stroke="#1A1A1A" d="M 23.5741 27.0398 C 23.9791 27.8991 24.7703 28.3657 25.3402 28.0805 L 29.0792 26.2114 C 29.6491 25.9263 29.7823 24.9984 29.3766 24.1387 L 24.4821 14.848 C 24.0767 13.9879 23.2855 13.5221 22.7163 13.8072 L 19.803 15.2641 C 19.2327 15.5489 19.0995 16.4771 19.5056 17.3372 L 23.5741 27.0398 Z " stroke-width="0.38277512788772583"/>
    </g>
  </g>
</svg>