<svg xmlns="http://www.w3.org/2000/svg" xmlns:xlink="http://www.w3.org/1999/xlink" version="1.1" width="56.84600067138672" height="39.674095153808594" viewBox="-0.625 -0.11317634582519531 56.84600067138672 39.674095153808594">
  <!-- Exported by Scratch - http://scratch.mit.edu/ -->
  <path id="ID0.5989846084266901" d="M 16.4334 38.7678 C 15.9914 38.7359 15.6593 38.3501 15.6921 37.9071 L 15.9069 35.003 C 15.9388 34.56 16.3246 34.2278 16.7666 34.2606 L 21.6259 34.9417 C 22.0669 34.9736 22.3991 35.3594 22.3673 35.8014 L 22.2001 38.0655 C 22.1673 38.5085 21.7824 38.8407 21.3404 38.8088 L 16.4334 38.7678 Z " stroke-width="1.000000017438889"/>
  <path id="ID0.7705372264608741" d="M 19.8906 35.6727 C 20.0953 36.3318 19.9189 36.9732 19.4943 37.1054 L 16.714 37.9728 C 16.2902 38.1062 15.7793 37.679 15.5744 37.0209 L 13.6088 29.6455 C 13.4041 28.9865 13.5804 28.3451 14.0038 28.2136 L 16.1709 27.5366 C 16.5945 27.4041 17.1051 27.8323 17.31 28.4904 L 19.8906 35.6727 Z " stroke-width="1.0000000087065448"/>
  <path id="ID0.5848010759800673" d="M 14.4993 36.4102 C 14.4865 37.1002 14.1149 37.6536 13.6716 37.6444 L 10.7592 37.5878 C 10.3161 37.5796 9.9662 37.0127 9.979 36.3226 L 10.4483 28.7062 C 10.461 28.0152 10.8327 27.4628 11.275 27.4721 L 13.5449 27.5165 C 13.9881 27.5247 14.3379 28.0916 14.325 28.7807 L 14.4993 36.4102 Z " stroke-width="0.9999999639893952"/>
  <path id="ID0.8454087860882282" d="M 10.416 38.7569 C 9.9729 38.7257 9.6412 38.3404 9.6723 37.8973 L 9.8827 34.9929 C 9.9148 34.5498 10.2992 34.2171 10.7413 34.2492 L 15.6016 34.9228 C 16.0436 34.954 16.3764 35.3393 16.3442 35.7814 L 16.1806 38.0457 C 16.1495 38.4888 15.7651 38.8215 15.3221 38.7904 L 10.416 38.7569 Z " stroke-width="0.9999999681573402"/>
  <g id="ID0.20980142103508115">
    <path id="ID0.15353494929149747" fill="#FBB03B" stroke="#000000" stroke-width="0.5000000127333764" d="M 31.144 23.8669 C 31.6161 24.1514 31.7701 24.7656 31.4865 25.2376 L 30.8231 26.3405 C 30.5386 26.8126 29.9243 26.9655 29.4514 26.6831 L 28.3369 26.0137 C 27.8638 25.7293 27.7109 25.115 27.9953 24.6419 L 28.6568 23.5393 C 28.9433 23.067 29.5565 22.9131 30.0286 23.1977 L 31.144 23.8669 Z "/>
    <path id="ID0.7635790938511491" stroke="#1A1A1A" stroke-width="0.5000000127333764" d="M 29.3785 21.9617 C 29.869 22.2395 30.089 22.778 29.8696 23.1636 L 28.4324 25.6983 C 28.2141 26.0847 27.6388 26.1716 27.1493 25.8948 L 21.8909 22.5432 C 21.4004 22.2665 21.1813 21.7268 21.3997 21.3414 L 22.5197 19.3683 C 22.7379 18.9809 23.3143 18.8939 23.8038 19.1717 L 29.3785 21.9617 Z "/>
  </g>
  <g id="ID0.7137223575264215">
    <path id="ID0.5612710667774081" fill="#FBB03B" stroke="#000000" stroke-width="0.500009636198767" d="M 17.5851 5.2885 L 29.0411 9.4813 L 25.599 18.8864 L 14.1429 14.6936 L 17.5851 5.2885 Z "/>
    <path id="ID0.3885055026039481" fill="#78006D" stroke="#1A1A1A" stroke-width="0.5" d="M 18.138 12.881 C 14.64 11.601 21.246 8.887 23.754 9.484 L 29.412 11.071 C 30.58 7.18 28.527 3.005 24.661 1.59 L 23.348 1.11 C 19.337 -0.358 14.894 1.704 13.425 5.715 L 7.821 21.027 C 6.353 25.038 8.416 29.481 12.426 30.949 L 13.738 31.429 C 17.751 32.898 22.193 30.835 23.662 26.825 C 23.662 26.825 26.089 20.8 25.885 20.021 C 25.683 19.243 27.51 16.311 27.51 16.311 L 18.138 12.881 Z "/>
  </g>
  <g id="ID0.20883694617077708">
    <path id="ID0.16792826633900404" d="M 26.869 11.609 C 27.056 11.609 27.226 11.685 27.348 11.808 C 27.471 11.93 27.547 12.1 27.547 12.287 C 27.547 12.474 27.471 12.644 27.348 12.766 C 27.226 12.889 27.056 12.965 26.869 12.965 C 26.682 12.965 26.512 12.889 26.39 12.766 C 26.267 12.644 26.191 12.474 26.191 12.287 C 26.191 12.1 26.267 11.93 26.39 11.808 C 26.512 11.685 26.682 11.609 26.869 11.609 Z " stroke-width="1"/>
    <path id="ID0.08473029173910618" d="M 23.582 11.405 C 23.769 11.405 23.939 11.481 24.061 11.604 C 24.184 11.726 24.26 11.896 24.26 12.083 C 24.26 12.27 24.184 12.44 24.061 12.562 C 23.939 12.685 23.769 12.761 23.582 12.761 C 23.395 12.761 23.225 12.685 23.103 12.562 C 22.98 12.44 22.904 12.27 22.904 12.083 C 22.904 11.896 22.98 11.726 23.103 11.604 C 23.225 11.481 23.395 11.405 23.582 11.405 Z " stroke-width="1"/>
  </g>
  <path id="ID0.5940494854003191" fill="none" stroke="#000000" stroke-width="1.5" d="M 0.125 26.343 L 52.75 24.497 "/>
  <g id="ID0.7118512513116002">
    <path id="ID0.7296573664061725" fill="#FBB03B" stroke="#000000" stroke-width="0.5" d="M 8.021 27.695 C 7.698 28.142 7.073 28.243 6.625 27.921 L 5.583 27.167 C 5.133 26.844 5.033 26.219 5.357 25.771 L 6.118 24.717 C 6.441 24.27 7.066 24.167 7.515 24.492 L 8.556 25.245 C 9.003 25.568 9.105 26.192 8.781 26.641 L 8.021 27.695 Z "/>
    <path id="ID0.7869536513462663" stroke="#1A1A1A" stroke-width="0.5" d="M 10.066 26.097 C 9.749 26.563 9.193 26.736 8.827 26.486 L 6.424 24.84 C 6.058 24.588 6.018 24.008 6.336 23.543 L 10.119 18.588 C 10.437 18.122 10.992 17.949 11.358 18.2 L 13.232 19.482 C 13.597 19.733 13.637 20.313 13.318 20.777 L 10.066 26.097 Z "/>
  </g>
  <path id="ID0.6533192885108292" fill="#E6E6E6" stroke="#000000" d="M 55.471 24.303 L 50.224 27.169 L 50.028 21.825 L 55.471 24.303 " stroke-width="1"/>
  <g id="ID0.4872250151820481">
    <path id="ID0.9075090778060257" fill="none" stroke="#000000" d="M 12.6969 8.3878 C 12.6969 8.3878 10.4909 8.073 8.5735 9.2714 C 6.8812 10.3274 5.7646 11.259 5.7646 11.259 " stroke-width="0.999999981774784"/>
    <path id="ID0.35206371266394854" fill="none" stroke="#000000" d="M 12.3128 8.3566 C 12.3128 8.3566 11.3527 6.6682 9.3472 7.6513 C 7.5566 8.53 7.0706 7.8323 7.0706 7.8323 " stroke-width="0.999999981774784"/>
  </g>
</svg>