<svg xmlns="http://www.w3.org/2000/svg" xmlns:xlink="http://www.w3.org/1999/xlink" version="1.1" width="44.16575625446346" height="66.63917162921932" viewBox="-0.5686672474290269 -0.3409672225858109 44.16575625446346 66.63917162921932">
  <!-- Exported by Scratch - http://scratch.mit.edu/ -->
  <path id="ID0.9573684432543814" fill="#FBB03B" stroke="#000000" stroke-width="0.8525621891021729" d="M 42.7019 44.5579 C 43.0591 45.4288 42.6426 46.425 41.7717 46.7826 L 39.7426 47.6152 C 38.8717 47.9728 37.8751 47.5563 37.5174 46.685 L 36.6759 44.6346 C 36.3183 43.7637 36.7352 42.7675 37.6061 42.4099 L 39.6352 41.5773 C 40.5061 41.2201 41.5023 41.6362 41.86 42.5075 L 42.7019 44.5579 Z "/>
  <path id="ID0.41889808466657996" stroke="#1A1A1A" stroke-width="0.8525621891021729" d="M 42.227 40.1561 C 42.6145 41.0355 42.3668 41.9959 41.6741 42.3012 L 37.1282 44.3025 C 36.4351 44.6073 35.5595 44.1414 35.172 43.262 L 31.3965 33.3254 C 31.0094 32.446 31.2575 31.4851 31.9502 31.1803 L 35.4926 29.6206 C 36.1853 29.3158 37.0613 29.7808 37.4488 30.6611 L 42.227 40.1561 Z "/>
  <path id="ID0.13261056737974286" fill="#FBB03B" stroke="#000000" stroke-width="0.8525621891021729" d="M 17.9174 10.4413 L 38.7178 10.4413 L 38.7178 27.5181 L 17.9174 27.5181 L 17.9174 10.4413 Z "/>
  <path id="ID0.6617734562605619" stroke="#1A1A1A" stroke-width="0.8525621891021729" d="M 23.2413 22.3312 C 16.8905 22.3312 25.8787 14.1137 30.2442 13.6001 L 40.2337 12.8255 C 39.8245 5.9095 34.0888 0.4263 27.0697 0.4263 L 24.6864 0.4263 C 17.4021 0.4263 11.4977 6.3311 11.4977 13.6154 L 11.4977 41.4213 C 11.4977 48.7056 17.4025 54.6104 24.6864 54.6104 L 27.0697 54.6104 C 34.354 54.6104 40.2588 48.7056 40.2588 41.4213 C 40.2588 41.4213 40.6131 30.3508 39.8326 29.2237 C 39.0516 28.0962 40.2588 22.3316 40.2588 22.3316 L 23.2413 22.3316 Z "/>
  <path id="ID0.7134617334231734" d="M 36.3554 18.6536 C 36.6742 18.6536 36.9633 18.7832 37.1721 18.9925 C 37.3814 19.2014 37.511 19.4904 37.511 19.8093 C 37.511 20.1281 37.3814 20.4172 37.1721 20.626 C 36.9633 20.8353 36.6742 20.9649 36.3554 20.9649 C 36.0365 20.9649 35.7475 20.8353 35.5386 20.626 C 35.3293 20.4172 35.1997 20.1281 35.1997 19.8093 C 35.1997 19.4904 35.3293 19.2014 35.5386 18.9925 C 35.7475 18.7832 36.0365 18.6536 36.3554 18.6536 Z " stroke-width="0.4262810945510864"/>
  <path id="ID0.6494691404514015" d="M 30.3874 18.6536 C 30.7063 18.6536 30.9953 18.7832 31.2042 18.9925 C 31.4135 19.2014 31.5431 19.4904 31.5431 19.8093 C 31.5431 20.1281 31.4135 20.4172 31.2042 20.626 C 30.9953 20.8353 30.7063 20.9649 30.3874 20.9649 C 30.0686 20.9649 29.7796 20.8353 29.5707 20.626 C 29.3614 20.4172 29.2318 20.1281 29.2318 19.8093 C 29.2318 19.4904 29.3614 19.2014 29.5707 18.9925 C 29.7796 18.7832 30.0686 18.6536 30.3874 18.6536 Z " stroke-width="0.4262810945510864"/>
  <path id="ID0.3106537782587111" fill="none" stroke="#000000" stroke-width="0.8525621891021729" d="M 12.7812 16.9485 C 12.7812 16.9485 9.217 15.6385 5.5911 16.9485 C 2.3923 18.1042 0.1986 19.2598 0.1986 19.2598 "/>
  <path id="ID0.4428880806080997" fill="none" stroke="#000000" stroke-width="0.8525621891021729" d="M 12.152 16.7601 C 12.152 16.7601 11.1553 13.6022 7.4612 14.526 C 4.1618 15.3508 3.5995 14.014 3.5995 14.014 "/>
  <path id="ID0.03648320911452174" d="M 21.4193 61.5857 C 21.2378 62.7486 20.4837 63.5969 19.736 63.4801 L 14.8286 62.7136 C 14.0805 62.5968 13.6214 61.5593 13.803 60.3959 L 16.3517 47.6348 C 16.5333 46.4719 17.2874 45.6236 18.0351 45.7408 L 21.8593 46.338 C 22.607 46.4548 23.0665 47.4924 22.8845 48.6557 L 21.4193 61.5857 Z " stroke-width="0.4262810945510864"/>
  <path id="ID0.2511214418336749" fill="#FFFFFF" stroke="#7F7F7F" stroke-width="1.534534483223227" stroke-linecap="round" d="M 26.2404 36.9887 L 17.4293 46.7515 L 24.4224 57.2398 L 13.1967 50.9937 L 2.7957 55.2984 L 9.7874 46.0655 L 4.6137 35.0472 L 13.7417 41.4902 L 26.2404 36.9887 Z "/>
  <path id="ID0.08818722935393453" fill="#FBB03B" stroke="#000000" stroke-width="0.8525621891021729" d="M 12.8204 46.347 C 12.4206 47.1995 11.406 47.5674 10.5534 47.1684 L 8.567 46.2383 C 7.7144 45.8393 7.3465 44.8239 7.746 43.9713 L 8.6851 41.9644 C 9.0849 41.1118 10.0995 40.7439 10.9524 41.1429 L 12.9385 42.0731 C 13.791 42.4721 14.1589 43.4871 13.7595 44.3401 L 12.8204 46.347 Z "/>
  <path id="ID0.8803494698368013" stroke="#1A1A1A" stroke-width="0.8525621891021729" d="M 15.7392 43.0182 C 15.3542 43.8989 14.4795 44.3665 13.7859 44.063 L 9.2354 42.0718 C 8.5422 41.7683 8.292 40.8083 8.6774 39.9276 L 13.4364 30.4224 C 13.8213 29.5421 14.6965 29.0741 15.39 29.378 L 18.9354 30.9297 C 19.6285 31.2332 19.8792 32.1927 19.4934 33.0739 L 15.7392 43.0182 Z "/>
  <path id="ID0.5842904108576477" d="M 14.4394 65.4563 C 13.6853 65.4005 13.1197 64.7427 13.1759 63.9878 L 13.543 59.0344 C 13.5988 58.2794 14.2557 57.7129 15.0094 57.7688 L 23.2958 58.9334 C 24.0499 58.9892 24.6156 59.6465 24.5593 60.4015 L 24.2729 64.261 C 24.217 65.016 23.5606 65.5833 22.8069 65.5271 L 14.4394 65.4563 Z " stroke-width="0.4262810945510864"/>
  <path id="ID0.01732994895428419" d="M 28.3063 65.4563 C 27.5518 65.4005 26.9866 64.7427 27.0424 63.9878 L 27.4099 59.0344 C 27.4657 58.2794 28.1222 57.7129 28.8763 57.7688 L 37.1628 58.9334 C 37.9164 58.9892 38.4825 59.6465 38.4263 60.4015 L 38.1398 64.261 C 38.0835 65.016 37.4275 65.5833 36.6734 65.5271 L 28.3063 65.4563 Z " stroke-width="0.4262810945510864"/>
  <path id="ID0.255261589307338" d="M 35.3438 60.7694 C 35.5842 61.9216 35.1784 62.9813 34.4375 63.1361 L 29.5754 64.151 C 28.8349 64.3058 28.0386 63.4971 27.7978 62.3449 L 25.6775 49.5053 C 25.4366 48.3531 25.8429 47.2938 26.5837 47.139 L 30.3721 46.3483 C 31.113 46.1935 31.9088 47.0022 32.1497 48.1544 L 35.3438 60.7694 Z " stroke-width="0.4262810945510864"/>
</svg>