<svg xmlns="http://www.w3.org/2000/svg" xmlns:xlink="http://www.w3.org/1999/xlink" version="1.1" width="101.04457092285156" height="65.38236236572266" viewBox="1.9163570404052734 3.987809181213379 101.04457092285156 65.38236236572266">
  <!-- Exported by Scratch - http://scratch.mit.edu/ -->
  <path id="ID0.13261056737974286" fill="#FBB03B" stroke="#000000" stroke-width="0.8525621784116166" d="M 81.4148 12.6964 L 101.3393 18.669 L 96.4359 35.0267 L 76.5115 29.0541 L 81.4148 12.6964 Z "/>
  <path id="ID0.6617734562605619" stroke="#1A1A1A" stroke-width="0.8525621784116166" d="M 83.1005 25.6142 C 77.0172 23.7907 87.9863 18.5001 92.3155 19.2616 L 102.1067 21.388 C 103.7006 14.6458 99.7809 7.7465 93.0574 5.731 L 90.7744 5.0467 C 83.7969 2.9551 76.4456 6.9159 74.354 13.8935 L 66.3699 40.5284 C 64.2783 47.506 68.239 54.8577 75.2161 56.9491 L 77.4991 57.6335 C 84.4766 59.7251 91.8283 55.7644 93.9199 48.7868 C 93.9199 48.7868 97.438 38.2842 97.014 36.9805 C 96.5897 35.6762 99.4013 30.501 99.4013 30.501 L 83.1003 25.6146 Z "/>
  <path id="ID0.7134617334231734" d="M 96.7183 25.8571 C 97.0237 25.9487 97.2634 26.1558 97.4033 26.4162 C 97.5439 26.6764 97.585 26.9905 97.4934 27.2959 C 97.4019 27.6013 97.1948 27.841 96.9343 27.981 C 96.6741 28.1215 96.3601 28.1626 96.0546 28.0711 C 95.7492 27.9795 95.5096 27.7724 95.3696 27.5119 C 95.2291 27.2517 95.1879 26.9377 95.2795 26.6323 C 95.371 26.3268 95.5782 26.0872 95.8386 25.9472 C 96.0988 25.8067 96.4129 25.7655 96.7183 25.8571 Z " stroke-width="0.4262810892058083"/>
  <path id="ID0.6494691404514015" d="M 91.0017 24.1435 C 91.3071 24.235 91.5467 24.4422 91.6867 24.7026 C 91.8272 24.9628 91.8684 25.2769 91.7768 25.5823 C 91.6853 25.8877 91.4781 26.1274 91.2177 26.2673 C 90.9575 26.4079 90.6434 26.449 90.338 26.3575 C 90.0326 26.2659 89.7929 26.0588 89.653 25.7983 C 89.5124 25.5381 89.4713 25.2241 89.5629 24.9186 C 89.6544 24.6132 89.8615 24.3736 90.122 24.2336 C 90.3822 24.0931 90.6962 24.0519 91.0017 24.1435 Z " stroke-width="0.4262810892058083"/>
  <path id="ID0.03648320911452174" d="M 77.4193 64.5857 C 77.2378 65.7486 76.4837 66.5969 75.736 66.4801 L 70.8286 65.7136 C 70.0805 65.5968 69.6214 64.5593 69.803 63.3959 L 72.3517 50.6348 C 72.5333 49.4719 73.2874 48.6236 74.0351 48.7408 L 77.8593 49.338 C 78.607 49.4548 79.0665 50.4924 78.8845 51.6557 L 77.4193 64.5857 Z " stroke-width="0.4262810945510864"/>
  <path id="ID0.5842904108576477" d="M 70.4394 68.4563 C 69.6853 68.4005 69.1197 67.7427 69.1759 66.9878 L 69.543 62.0344 C 69.5988 61.2794 70.2557 60.7129 71.0094 60.7688 L 79.2958 61.9334 C 80.0499 61.9892 80.6156 62.6465 80.5593 63.4015 L 80.2729 67.261 C 80.217 68.016 79.5606 68.5833 78.8069 68.5271 L 70.4394 68.4563 Z " stroke-width="0.4262810945510864"/>
  <path id="ID0.01732994895428419" d="M 84.3063 68.4563 C 83.5518 68.4005 82.9866 67.7427 83.0424 66.9878 L 83.4099 62.0344 C 83.4657 61.2794 84.1222 60.7129 84.8763 60.7688 L 93.1628 61.9334 C 93.9164 61.9892 94.4825 62.6465 94.4263 63.4015 L 94.1398 67.261 C 94.0835 68.016 93.4275 68.5833 92.6734 68.5271 L 84.3063 68.4563 Z " stroke-width="0.4262810945510864"/>
  <path id="ID0.255261589307338" d="M 91.3438 63.7694 C 91.5842 64.9216 91.1784 65.9813 90.4375 66.1361 L 85.5754 67.151 C 84.8349 67.3058 84.0386 66.4971 83.7978 65.3449 L 81.6775 52.5053 C 81.4366 51.3531 81.8429 50.2938 82.5837 50.139 L 86.3721 49.3483 C 87.113 49.1935 87.9088 50.0022 88.1497 51.1544 L 91.3438 63.7694 Z " stroke-width="0.4262810945510864"/>
  <path id="ID0.8436069656163454" fill="#FFF05D" stroke="#000000" stroke-width="0.9937884987175445" d="M 88.3127 46.4651 C 89.0829 50.5751 86.4183 48.5008 82.1145 49.6406 L 55.8799 54.8733 L 13.6489 68.2587 C 8.553 70.1014 3.5603 67.6784 2.5729 62.3498 C 1.584 57.0189 5.3938 53.3131 10.7971 52.8659 L 55.1555 50.9619 L 81.5165 46.5235 C 85.7343 45.9644 87.7217 43.2849 88.3127 46.4651 Z "/>
  <g id="ID0.13109061866998672">
    <path id="ID0.3106537782587111" fill="none" stroke="#000000" stroke-width="0.8525621875755738" d="M 73.1891 19.4665 C 73.1891 19.4665 69.396 19.2899 66.3323 21.6303 C 63.6296 23.695 61.8854 25.4572 61.8854 25.4572 "/>
    <path id="ID0.4428880806080997" fill="none" stroke="#000000" stroke-width="0.8525621875755738" d="M 72.5324 19.4762 C 72.5324 19.4762 70.6316 16.7646 67.3867 18.7572 C 64.4885 20.5368 63.55 19.4311 63.55 19.4311 "/>
  </g>
  <path id="ID0.41889808466657996" stroke="#1A1A1A" stroke-width="0.8525622230633583" d="M 92.7401 47.6143 C 92.004 48.232 91.0126 48.2625 90.526 47.6827 L 87.3343 43.877 C 86.848 43.2966 87.0508 42.3257 87.7869 41.7079 L 96.273 35.3066 C 97.0093 34.6893 98.0012 34.6591 98.4874 35.2391 L 100.9747 38.2046 C 101.4609 38.7846 101.2591 39.7557 100.5221 40.3737 L 92.7401 47.6143 Z "/>
  <path id="ID0.9573684432543814" fill="#FBB03B" stroke="#000000" stroke-width="0.8525622230633583" d="M 88.6463 49.3 C 87.9099 49.8863 86.8369 49.7647 86.2502 49.0284 L 84.884 47.3127 C 84.2973 46.5764 84.4187 45.5031 85.1554 44.9163 L 86.8891 43.5355 C 87.6254 42.9487 88.6984 43.0707 89.2851 43.807 L 90.6514 45.5227 C 91.2377 46.2591 91.1165 47.3319 90.3798 47.9188 L 88.6463 49.3 Z "/>
  <g id="ID0.5392367267049849">
    <path id="ID0.08818722935393453" fill="#FBB03B" stroke="#000000" stroke-width="0.8525621693881993" d="M 67.3465 52.4676 C 66.8562 53.2715 65.8076 53.5267 65.0035 53.0372 L 63.1302 51.8963 C 62.3262 51.4068 62.0711 50.3574 62.561 49.5534 L 63.713 47.6607 C 64.2034 46.8567 65.2519 46.6015 66.0564 47.091 L 67.9293 48.232 C 68.7334 48.7214 68.9885 49.7704 68.4986 50.5749 L 67.3465 52.4676 Z "/>
    <path id="ID0.8803494698368013" stroke="#1A1A1A" stroke-width="0.8525621693881993" d="M 70.6104 49.4764 C 70.1319 50.31 69.2114 50.6795 68.555 50.3023 L 64.2484 47.8274 C 63.5924 47.4502 63.4483 46.4687 63.9272 45.6352 L 69.6931 36.7048 C 70.1717 35.8717 71.0926 35.5017 71.7489 35.8794 L 75.1042 37.808 C 75.7602 38.1851 75.9048 39.1663 75.4254 40.0002 L 70.6104 49.4764 Z "/>
  </g>
</svg>