<svg xmlns="http://www.w3.org/2000/svg" xmlns:xlink="http://www.w3.org/1999/xlink" version="1.1" width="38.322127511959465" height="31.375025918941883" viewBox="-0.2550629629995371 0.525337015161321 38.322127511959465 31.375025918941883">
  <!-- Exported by Scratch - http://scratch.mit.edu/ -->
  <g id="ID0.07952108979225159">
    <path id="ID0.07179283257573843" fill="none" stroke="#000000" stroke-width="1.9375259189418843" d="M 37.0983 1.4941 L 8.5583 1.4941 L 8.5583 30.9316 L 37.0983 30.9316 L 37.0983 1.4941 Z "/>
    <path id="ID0.9966579801402986" fill="none" stroke="#000000" stroke-width="0.9906693543017209" stroke-linecap="round" d="M 22.6 1.9847 L 22.6 30.1466 "/>
    <path id="ID0.667331853415817" fill="none" stroke="#000000" stroke-width="0.9906693543017209" stroke-linecap="round" d="M 15.55 1.8375 L 15.55 30.4409 "/>
    <path id="ID0.663609794806689" fill="none" stroke="#000000" stroke-width="0.9906693543017209" stroke-linecap="round" d="M 30.2 1.5922 L 30.2 30.5391 "/>
  </g>
  <g id="ID0.6102310284040868">
    <g id="ID0.8564713546074927">
      <path id="ID0.5989846084266901" d="M 23.9523 28.4266 C 24.2337 28.4063 24.445 28.1605 24.424 27.8785 L 24.2865 26.0298 C 24.2662 25.7478 24.0204 25.5364 23.739 25.5575 L 20.6458 25.9923 C 20.365 26.0126 20.1537 26.2584 20.1741 26.5397 L 20.281 27.981 C 20.302 28.263 20.5471 28.4744 20.8285 28.454 L 23.9523 28.4266 Z " stroke-width="0.6366047859191895"/>
      <path id="ID0.7705372264608741" d="M 22.0107 25.9203 C 21.7828 26.2959 21.7929 26.7193 22.0349 26.8663 L 23.6187 27.8301 C 23.86 27.9778 24.2413 27.7926 24.4692 27.4176 L 26.8189 23.1645 C 27.0468 22.7889 27.0367 22.3655 26.7954 22.2191 L 25.561 21.4673 C 25.3197 21.3202 24.9384 21.5061 24.7105 21.8811 L 22.0107 25.9203 Z " stroke-width="0.6366047859191895"/>
    </g>
    <g id="ID0.15596213983371854">
      <path id="ID0.5848010759800673" d="M 28.4334 26.9822 C 28.5008 27.4163 28.7829 27.7334 29.0617 27.6894 L 30.8938 27.403 C 31.1727 27.3597 31.3446 26.972 31.2771 26.5378 L 30.3254 21.7741 C 30.2579 21.3393 29.9759 21.0229 29.6977 21.0668 L 28.2698 21.2903 C 27.9909 21.3336 27.819 21.7213 27.8865 22.1548 L 28.4334 26.9822 Z " stroke-width="0.6366047859191895"/>
      <path id="ID0.8454087860882282" d="M 31.039 28.4266 C 31.321 28.4063 31.5317 28.1605 31.5114 27.8785 L 31.3738 26.0298 C 31.3528 25.7478 31.1077 25.5364 30.8264 25.5575 L 27.7331 25.9923 C 27.4517 26.0126 27.2404 26.2584 27.2614 26.5397 L 27.3683 27.981 C 27.3887 28.263 27.6338 28.4744 27.9158 28.454 L 31.039 28.4266 Z " stroke-width="0.6366047859191895"/>
    </g>
    <g id="ID0.20980142103508115">
      <path id="ID0.15353494929149747" fill="#FBB03B" stroke="#000000" stroke-width="0.3183023929595947" d="M 16.4518 19.208 C 16.1698 19.4168 16.1093 19.8153 16.3175 20.0973 L 16.8045 20.7562 C 17.0133 21.0382 17.4118 21.098 17.6945 20.8905 L 18.3604 20.399 C 18.643 20.1902 18.7029 19.7917 18.4941 19.5091 L 18.0083 18.8502 C 17.7982 18.5682 17.4004 18.5077 17.1184 18.7165 L 16.4518 19.208 Z "/>
      <path id="ID0.7635790938511491" stroke="#1A1A1A" stroke-width="0.3183023929595947" d="M 17.4558 17.894 C 17.1616 18.0996 17.0547 18.4542 17.217 18.6853 L 18.2808 20.2049 C 18.4425 20.4366 18.8124 20.457 19.1058 20.252 L 22.236 17.8106 C 22.5301 17.6056 22.6364 17.2504 22.4747 17.0193 L 21.6459 15.8365 C 21.4842 15.6041 21.1137 15.5838 20.8202 15.7894 L 17.4558 17.894 Z "/>
    </g>
    <g id="ID0.7137223575264215">
      <path id="ID0.5612710667774081" fill="#FBB03B" stroke="#000000" stroke-width="0.31830854201627" d="M 24.8473 7.3192 L 17.5543 9.9883 L 19.7456 15.9757 L 27.0386 13.3065 L 24.8473 7.3192 Z "/>
      <path id="ID0.3885055026039481" fill="#78006D" stroke="#1A1A1A" stroke-width="0.3183023929595947" d="M 24.4801 12.1009 C 26.7069 11.286 22.5015 9.5583 20.9049 9.9384 L 17.303 10.9486 C 16.5594 8.4716 17.8664 5.8138 20.3275 4.913 L 21.1633 4.6074 C 23.7168 3.6729 26.5452 4.9856 27.4804 7.539 L 31.0479 17.2867 C 31.9824 19.8401 30.6691 22.6685 28.1163 23.6031 L 27.2811 23.9086 C 24.7264 24.8438 21.8986 23.5305 20.9634 20.9777 C 20.9634 20.9777 19.4184 17.1422 19.5483 16.6463 C 19.6769 16.151 18.5138 14.2845 18.5138 14.2845 L 24.4801 12.1009 Z "/>
    </g>
    <g id="ID0.20883694617077708">
      <path id="ID0.16792826633900404" d="M 18.9219 11.1957 C 18.8028 11.1957 18.6946 11.244 18.6169 11.3223 C 18.5386 11.4 18.4902 11.5082 18.4902 11.6273 C 18.4902 11.7463 18.5386 11.8545 18.6169 11.9322 C 18.6946 12.0105 18.8028 12.0589 18.9219 12.0589 C 19.0409 12.0589 19.1491 12.0105 19.2268 11.9322 C 19.3051 11.8545 19.3535 11.7463 19.3535 11.6273 C 19.3535 11.5082 19.3051 11.4 19.2268 11.3223 C 19.1491 11.244 19.0409 11.1957 18.9219 11.1957 Z " stroke-width="0.6366047859191895"/>
      <path id="ID0.08473029173910618" d="M 21.0144 11.0658 C 20.8953 11.0658 20.7871 11.1142 20.7094 11.1925 C 20.6311 11.2701 20.5828 11.3784 20.5828 11.4974 C 20.5828 11.6164 20.6311 11.7247 20.7094 11.8023 C 20.7871 11.8806 20.8953 11.929 21.0144 11.929 C 21.1334 11.929 21.2416 11.8806 21.3193 11.8023 C 21.3976 11.7247 21.446 11.6164 21.446 11.4974 C 21.446 11.3784 21.3976 11.2701 21.3193 11.1925 C 21.2416 11.1142 21.1334 11.0658 21.0144 11.0658 Z " stroke-width="0.6366047859191895"/>
    </g>
    <path id="ID0.9075090778060257" fill="none" stroke="#000000" d="M 27.9572 9.3374 C 27.9572 9.3374 29.2883 8.8472 30.6418 9.3374 C 31.836 9.769 32.6553 10.2 32.6553 10.2 " stroke-width="0.6366047859191895"/>
    <path id="ID0.35206371266394854" fill="none" stroke="#000000" d="M 28.1921 9.2667 C 28.1921 9.2667 28.5645 8.0877 29.944 8.4321 C 31.1759 8.7403 31.3853 8.2412 31.3853 8.2412 " stroke-width="0.6366047859191895"/>
    <path id="ID0.5940494854003191" fill="none" stroke="#000000" stroke-width="0.9549071788787842" d="M 35.9472 20.639 L 2.4459 19.4639 "/>
    <g id="ID0.7118512513116002">
      <path id="ID0.7296573664061725" fill="#FBB03B" stroke="#000000" stroke-width="0.3183023929595947" d="M 30.9206 21.1814 C 31.1262 21.466 31.5241 21.5303 31.8093 21.3253 L 32.4726 20.8453 C 32.7591 20.6397 32.8228 20.2418 32.6165 19.9566 L 32.132 19.2856 C 31.9264 19.0011 31.5285 18.9355 31.2427 19.1424 L 30.58 19.6218 C 30.2954 19.8274 30.2305 20.2246 30.4368 20.5105 L 30.9206 21.1814 Z "/>
      <path id="ID0.7869536513462663" stroke="#1A1A1A" stroke-width="0.3183023929595947" d="M 29.6187 20.1641 C 29.8205 20.4608 30.1745 20.5709 30.4075 20.4118 L 31.9372 19.3639 C 32.1702 19.2035 32.1957 18.8343 31.9933 18.5382 L 29.585 15.3839 C 29.3825 15.0872 29.0292 14.9771 28.7962 15.1369 L 27.6032 15.953 C 27.3709 16.1128 27.3454 16.482 27.5485 16.7774 L 29.6187 20.1641 Z "/>
    </g>
    <path id="ID0.6533192885108292" fill="#E6E6E6" stroke="#000000" d="M 0.7137 19.3404 L 4.054 21.1649 L 4.1787 17.7629 L 0.7137 19.3404 " stroke-width="0.6366047859191895"/>
  </g>
</svg>