<svg xmlns="http://www.w3.org/2000/svg" xmlns:xlink="http://www.w3.org/1999/xlink" version="1.1" width="42.315616607666016" height="36.766483306884766" viewBox="1.2000000476837158 3.747115135192871 42.315616607666016 36.766483306884766">
  <!-- Exported by Scratch - http://scratch.mit.edu/ -->
  <path id="ID0.3687892844900489" d="M 28.0704 37.8078 C 27.9746 38.4607 27.5564 38.9399 27.1366 38.8783 L 24.3818 38.4741 C 23.9621 38.4125 23.6993 37.8331 23.7951 37.1802 L 25.158 30.0139 C 25.2538 29.361 25.672 28.8818 26.0916 28.9434 L 28.2383 29.2584 C 28.6582 29.32 28.921 29.8994 28.8252 30.5523 L 28.0704 37.8078 Z " stroke-width="0.23895686382018358"/>
  <path id="ID0.15630904771387577" d="M 40.216 23.1868 C 40.8755 23.1982 41.4045 23.5511 41.3972 23.9755 L 41.3496 26.7594 C 41.3425 27.1836 40.8016 27.5186 40.1417 27.5075 L 32.8602 27.0746 C 32.2004 27.0637 31.6712 26.7105 31.6785 26.2861 L 31.7161 24.1169 C 31.7232 23.6926 32.2641 23.3577 32.9238 23.3693 L 40.216 23.1868 Z " stroke-width="0.23895686010595932"/>
  <path id="ID0.9571989816613495" fill="none" stroke="#000000" stroke-width="0.4779137668597595" d="M 12.99 17.8234 C 12.99 17.8234 10.8933 18.1908 9.0234 17.1069 C 7.3742 16.1504 6.2791 15.2943 6.2791 15.2943 "/>
  <path id="ID0.15386404702439904" fill="none" stroke="#000000" stroke-width="0.4779137668597595" d="M 12.6237 17.8647 C 12.6237 17.8647 11.7594 19.507 9.8134 18.6294 C 8.0756 17.8456 7.6323 18.5269 7.6323 18.5269 "/>
  <path id="ID0.07008709199726582" fill="#FBB03B" stroke="#000000" stroke-width="0.47791371798859994" d="M 31.6811 8.7066 C 32.0028 8.2886 32.6032 8.2108 33.0214 8.5327 L 33.9954 9.2828 C 34.4133 9.605 34.4914 10.2054 34.1693 10.6238 L 33.4112 11.6078 C 33.0892 12.0261 32.4889 12.1041 32.0706 11.782 L 31.0969 11.0316 C 30.6785 10.7095 30.6009 10.1096 30.9228 9.6911 L 31.6811 8.7066 Z "/>
  <path id="ID0.6664769016206264" stroke="#1A1A1A" stroke-width="0.47791371798859994" d="M 29.679 10.1738 C 29.9966 9.7386 30.532 9.5891 30.875 9.839 L 33.123 11.4817 C 33.4657 11.7319 33.4857 12.2877 33.1678 12.7225 L 29.4087 17.3461 C 29.0908 17.7809 28.5553 17.9303 28.2131 17.6799 L 26.4607 16.4004 C 26.1185 16.15 26.0981 15.5944 26.4161 15.159 L 29.679 10.1738 Z "/>
  <path id="ID0.028991148341447115" fill="#FBB03B" stroke="#000000" stroke-width="0.47791372021191864" d="M 14.1731 13.3542 L 23.4205 6.2522 L 29.2512 13.8442 L 20.0038 20.9462 L 14.1731 13.3542 Z "/>
  <path id="ID0.934041952714324" fill="#009999" stroke="#1A1A1A" stroke-width="0.47791372021191864" d="M 20.5996 16.8224 C 17.7762 18.9908 18.9664 12.2686 20.7318 10.5497 L 24.9085 6.7946 C 22.3652 3.8596 17.9431 3.3802 14.8223 5.777 L 13.7629 6.5906 C 10.5245 9.0777 9.9156 13.7189 12.4028 16.9573 L 21.8967 29.3192 C 24.3838 32.5577 29.0251 33.1667 32.2634 30.6797 L 33.3228 29.8661 C 36.5612 27.379 37.1704 22.7375 34.6833 19.4991 C 34.6833 19.4991 31.0607 14.4566 30.3291 14.2218 C 29.5969 13.9872 28.1654 11.0122 28.1654 11.0122 L 20.5997 16.8226 Z "/>
  <path id="ID0.4870021608658135" d="M 25.174 10.71 C 25.3158 10.6011 25.4885 10.56 25.6528 10.5818 C 25.8172 10.6032 25.9735 10.6874 26.0824 10.8292 C 26.1912 10.9709 26.2323 11.1437 26.2106 11.308 C 26.1892 11.4724 26.1049 11.6287 25.9632 11.7375 C 25.8214 11.8464 25.6487 11.8875 25.4844 11.8657 C 25.32 11.8443 25.1637 11.7601 25.0548 11.6183 C 24.9459 11.4766 24.9049 11.3038 24.9266 11.1395 C 24.948 10.9752 25.0323 10.8189 25.174 10.71 Z " stroke-width="0.23895686010595932"/>
  <path id="ID0.4437686442397535" d="M 22.5208 12.7477 C 22.6626 12.6388 22.8353 12.5977 22.9996 12.6195 C 23.164 12.6409 23.3203 12.7251 23.4292 12.8669 C 23.538 13.0086 23.5791 13.1814 23.5574 13.3457 C 23.536 13.51 23.4517 13.6663 23.31 13.7752 C 23.1682 13.8841 22.9955 13.9252 22.8311 13.9034 C 22.6668 13.882 22.5105 13.7978 22.4016 13.656 C 22.2927 13.5143 22.2517 13.3415 22.2734 13.1772 C 22.2948 13.0128 22.379 12.8565 22.5208 12.7477 Z " stroke-width="0.23895686010595932"/>
  <path id="ID0.2511214418336749" fill="#FFFFFF" stroke="#7F7F7F" stroke-width="0.9999999648587725" stroke-linecap="round" d="M 14.9918 15.9354 L 12.5034 24.1362 L 19.536 28.3818 L 11.1839 27.8116 L 6.2441 33.2346 L 7.8066 25.8509 L 1.7 20.7882 L 8.8697 22.0562 L 14.9918 15.9354 Z "/>
  <path id="ID0.49555545253679156" fill="#FBB03B" stroke="#000000" stroke-width="0.47791372021191864" d="M 11.708 26.7871 C 11.2006 26.9318 10.6715 26.6376 10.5268 26.1302 L 10.1896 24.9478 C 10.0449 24.4404 10.3387 23.9113 10.8463 23.7664 L 12.041 23.4255 C 12.5484 23.2808 13.0775 23.575 13.2225 24.0828 L 13.5595 25.2651 C 13.7043 25.7725 13.4104 26.3016 12.9027 26.4462 L 11.708 26.7871 Z "/>
  <path id="ID0.2625341503880918" stroke="#1A1A1A" stroke-width="0.47791372021191864" d="M 14.1898 26.7973 C 13.6758 26.9586 13.1564 26.7606 13.0294 26.3555 L 12.1981 23.6984 C 12.0717 23.2932 12.3856 22.8346 12.8999 22.6737 L 18.6711 21.1902 C 19.185 21.0296 19.7051 21.2277 19.8314 21.6327 L 20.4794 23.7032 C 20.6062 24.1081 20.2921 24.5672 19.7776 24.7279 L 14.1898 26.7973 Z "/>
  <path id="ID0.8204577909782529" d="M 24.1782 40.0136 C 23.7553 39.9861 23.4349 39.6203 23.4624 39.1969 L 23.6428 36.4185 C 23.6701 35.9952 24.035 35.6741 24.4583 35.7014 L 29.1093 36.3114 C 29.5319 36.3389 29.8525 36.7045 29.8253 37.128 L 29.6846 39.2928 C 29.6571 39.7162 29.2921 40.0378 28.869 40.0103 L 24.1782 40.0136 Z " stroke-width="0.23895686382018358"/>
  <path id="ID0.699897791724652" d="M 41.9059 27.6151 C 41.7821 28.0201 41.3521 28.2479 40.9466 28.1237 L 38.2841 27.3089 C 37.8783 27.1849 37.6502 26.7553 37.7739 26.3503 L 39.4381 21.9644 C 39.5618 21.5593 39.9913 21.3316 40.3973 21.4558 L 42.4716 22.0908 C 42.8774 22.2148 43.106 22.6442 42.9818 23.0494 L 41.9059 27.6151 Z " stroke-width="0.23895686010595932"/>
</svg>