<svg xmlns="http://www.w3.org/2000/svg" xmlns:xlink="http://www.w3.org/1999/xlink" version="1.1" width="43.93144226074219" height="70.5680160522461" viewBox="0.16300004720687866 0.3751000165939331 43.93144226074219 70.5680160522461">
  <!-- Exported by Scratch - http://scratch.mit.edu/ -->
  <g id="ID0.7593661355786026">
    <path id="ID0.4510075245052576" fill="none" stroke="#000000" stroke-width="0.850288450717926" d="M 9.3007 15.0741 C 9.3007 15.0741 8.5116 11.3703 5.479 9.0065 C 2.8036 6.9215 0.663 5.684 0.663 5.684 "/>
    <path id="ID0.3390679736621678" fill="none" stroke="#000000" stroke-width="0.850288450717926" d="M 9.1255 14.4432 C 9.1255 14.4432 11.2601 11.9234 8.5175 9.2968 C 6.0674 6.9509 6.8969 5.7664 6.8969 5.7664 "/>
    <path id="ID0.3926795464940369" fill="#FBB03B" stroke="#000000" stroke-width="0.850288450717926" d="M 38.7461 15.0465 C 39.2963 14.2859 40.36 14.1167 41.1206 14.6672 L 42.8917 15.9512 C 43.6519 16.5022 43.8219 17.5659 43.271 18.326 L 41.9734 20.1155 C 41.4224 20.8761 40.3596 21.0457 39.5986 20.4947 L 37.8278 19.2108 C 37.0672 18.6598 36.8976 17.5969 37.4486 16.8359 L 38.7461 15.0465 Z "/>
    <path id="ID0.08230937132611871" stroke="#1A1A1A" stroke-width="0.850288450717926" d="M 35.2625 17.7597 C 35.8041 16.9694 36.7492 16.6756 37.3717 17.1025 L 41.4547 19.9072 C 42.0771 20.3344 42.1418 21.3216 41.5989 22.1119 L 35.1541 30.5298 C 34.612 31.3197 33.6665 31.6135 33.045 31.1858 L 29.8632 29.001 C 29.2412 28.5737 29.1761 27.5865 29.7186 26.7958 L 35.2625 17.7597 Z "/>
    <path id="ID0.5979244690388441" fill="#FBB03B" stroke="#000000" stroke-width="0.850288450717926" d="M 15.728 10.8635 L 36.4729 10.8635 L 36.4729 27.8948 L 15.728 27.8948 L 15.728 10.8635 Z "/>
    <path id="ID0.897375762462616" stroke="#1A1A1A" stroke-width="0.850288450717926" d="M 21.0368 22.7216 C 14.7034 22.7216 23.6671 14.5261 28.021 14.0138 L 37.9843 13.2413 C 37.5761 6.3438 31.8554 0.8751 24.855 0.8751 L 22.4784 0.8751 C 15.214 0.8751 9.3249 6.7642 9.3249 14.0291 L 9.3249 41.7608 C 9.3249 49.0257 15.214 54.9148 22.4784 54.9148 L 24.855 54.9148 C 32.1198 54.9148 38.0089 49.0257 38.0089 41.7608 C 38.0089 41.7608 38.3622 30.7198 37.5838 29.5958 C 36.8054 28.4717 38.0089 22.722 38.0089 22.722 L 21.0368 22.722 Z "/>
    <path id="ID0.5605953140184283" d="M 34.1163 19.0539 C 34.4343 19.0539 34.7226 19.1831 34.9309 19.3919 C 35.1396 19.6002 35.2689 19.8884 35.2689 20.2065 C 35.2689 20.5245 35.1396 20.8127 34.9309 21.021 C 34.7226 21.2298 34.4343 21.359 34.1163 21.359 C 33.7983 21.359 33.5101 21.2298 33.3017 21.021 C 33.093 20.8127 32.9638 20.5245 32.9638 20.2065 C 32.9638 19.8884 33.093 19.6002 33.3017 19.3919 C 33.5101 19.1831 33.7983 19.0539 34.1163 19.0539 Z " stroke-width="0.425144225358963"/>
    <path id="ID0.4209855739027262" d="M 28.1643 19.0539 C 28.4823 19.0539 28.7706 19.1831 28.9789 19.3919 C 29.1876 19.6002 29.3169 19.8884 29.3169 20.2065 C 29.3169 20.5245 29.1876 20.8127 28.9789 21.021 C 28.7706 21.2298 28.4823 21.359 28.1643 21.359 C 27.8463 21.359 27.558 21.2298 27.3497 21.021 C 27.141 20.8127 27.0117 20.5245 27.0117 20.2065 C 27.0117 19.8884 27.141 19.6002 27.3497 19.3919 C 27.558 19.1831 27.8463 19.0539 28.1643 19.0539 Z " stroke-width="0.425144225358963"/>
    <path id="ID0.4123799833469093" d="M 18.3082 64.4899 C 18.0467 65.6344 17.2364 66.4256 16.5009 66.2568 L 11.6725 65.1506 C 10.937 64.9822 10.5527 63.9172 10.8146 62.7732 L 14.243 50.2561 C 14.5048 49.1116 15.3147 48.3204 16.0498 48.4892 L 19.8123 49.3509 C 20.5483 49.5193 20.933 50.5839 20.6711 51.7283 L 18.3082 64.4899 Z " stroke-width="0.425144225358963"/>
    <path id="ID0.8371922299265862" fill="#FBB03B" stroke="#000000" stroke-width="0.850288450717926" d="M 2.5098 18.2627 C 1.9652 17.4979 2.1442 16.4358 2.9086 15.8912 L 4.69 14.6222 C 5.4548 14.0776 6.5168 14.2553 7.0614 15.0205 L 8.3441 16.821 C 8.8887 17.5859 8.7101 18.6479 7.9453 19.1933 L 6.1639 20.4624 C 5.3991 21.0066 4.3371 20.8289 3.7925 20.0636 L 2.5098 18.2627 Z "/>
    <path id="ID0.6422115685418248" stroke="#1A1A1A" stroke-width="0.850288450717926" d="M 3.9689 22.43 C 3.3933 21.6643 3.4158 20.6754 4.0199 20.2218 L 7.9802 17.2466 C 8.5839 16.7934 9.54 17.0468 10.1152 17.8133 L 16.0371 26.607 C 16.6127 27.3735 16.5898 28.3628 15.986 28.8156 L 12.8995 31.1344 C 12.2962 31.5876 11.3396 31.3346 10.7644 30.5676 L 3.9689 22.43 Z "/>
    <path id="ID0.37224112963303924" d="M 10.5646 65.7445 C 9.9541 65.3028 9.8176 64.4478 10.2606 63.8365 L 13.1656 59.8239 C 13.6078 59.2122 14.4619 59.0748 15.0728 59.5166 L 21.4976 64.8423 C 22.109 65.2845 22.245 66.1386 21.8024 66.7504 L 19.5398 69.8769 C 19.0968 70.4883 18.2419 70.6264 17.6314 70.1839 L 10.5646 65.7445 Z " stroke-width="0.425144225358963"/>
    <path id="ID0.24771741591393948" d="M 29.4525 62.3927 C 28.8046 62.0066 28.5933 61.1678 28.981 60.5199 L 31.5178 56.2651 C 31.9051 55.6167 32.7435 55.4046 33.391 55.7906 L 40.2631 60.5267 C 40.9097 60.9127 41.1214 61.7515 40.7345 62.4003 L 38.7568 65.7143 C 38.3703 66.3635 37.5319 66.5765 36.8844 66.1901 L 29.4525 62.3927 Z " stroke-width="0.425144225358963"/>
    <path id="ID0.2892227452248335" d="M 36.4674 59.2815 C 36.4976 60.4544 35.91 61.4221 35.1562 61.442 L 30.2041 61.5692 C 29.4495 61.5887 28.8131 60.653 28.7825 59.4796 L 28.995 46.5029 C 28.9648 45.3295 29.552 44.3619 30.3066 44.3423 L 34.1656 44.2428 C 34.9198 44.2237 35.5563 45.159 35.5869 46.3328 L 36.4674 59.2815 Z " stroke-width="0.425144225358963"/>
  </g>
</svg>