<svg xmlns="http://www.w3.org/2000/svg" xmlns:xlink="http://www.w3.org/1999/xlink" version="1.1" width="96.98474080892153" height="65.72763784261294" viewBox="-0.16187206671510057 4.089769564411303 96.98474080892153 65.72763784261294">
  <!-- Exported by Scratch - http://scratch.mit.edu/ -->
  <g id="ID0.21253632754087448">
    <path id="ID0.9573684432543814" fill="#FBB03B" stroke="#000000" stroke-width="0.8525622477286733" d="M 52.4152 43.4102 C 53.2767 43.7895 53.668 44.7959 53.2889 45.6577 L 52.4052 47.6651 C 52.0261 48.5269 51.0194 48.9184 50.1574 48.539 L 48.1288 47.6462 C 47.267 47.2671 46.8761 46.2604 47.2551 45.3986 L 48.1388 43.3913 C 48.5182 42.5298 49.5243 42.1383 50.3864 42.5176 L 52.4152 43.4102 Z "/>
    <path id="ID0.41889808466657996" stroke="#1A1A1A" stroke-width="0.8525622477286733" d="M 49.0193 40.5696 C 49.9085 40.9341 50.3965 41.7976 50.1094 42.498 L 48.2241 47.0932 C 47.9364 47.7936 46.9826 48.0656 46.0934 47.7011 L 36.4803 43.1644 C 35.5915 42.7997 35.1035 41.9356 35.3909 41.2355 L 36.8599 37.6545 C 37.1473 36.9544 38.1009 36.6815 38.9906 37.0466 L 49.0193 40.5696 Z "/>
  </g>
  <path id="ID0.13261056737974286" fill="#FBB03B" stroke="#000000" stroke-width="0.8525621722166922" d="M 26.8176 13.0337 L 46.0153 21.0404 L 39.4419 36.8014 L 20.2443 28.7947 L 26.8176 13.0337 Z "/>
  <path id="ID0.6617734562605619" stroke="#1A1A1A" stroke-width="0.8525621722166922" d="M 27.1545 26.0567 C 21.2931 23.6121 32.7518 19.4877 36.9787 20.694 L 46.4966 23.8244 C 48.7811 17.2838 45.5981 10.0153 39.1198 7.3134 L 36.9201 6.396 C 30.1971 3.592 22.4747 6.7691 19.6707 13.4921 L 8.9674 39.1554 C 6.1635 45.8784 9.3404 53.6012 16.063 56.405 L 18.2627 57.3224 C 24.9857 60.1264 32.7085 56.9495 35.5124 50.2265 C 35.5124 50.2265 40.1007 40.1453 39.8142 38.8046 C 39.5274 37.4634 42.8606 32.6077 42.8606 32.6077 L 27.1543 26.0571 Z "/>
  <path id="ID0.7134617334231734" d="M 40.6737 27.7106 C 40.968 27.8333 41.1849 28.0642 41.2971 28.3378 C 41.4098 28.6111 41.4182 28.9277 41.2955 29.222 C 41.1727 29.5163 40.9419 29.7332 40.6683 29.8454 C 40.3949 29.9582 40.0783 29.9665 39.784 29.8438 C 39.4897 29.721 39.2729 29.4902 39.1606 29.2166 C 39.0479 28.9433 39.0395 28.6266 39.1623 28.3323 C 39.285 28.038 39.5158 27.8212 39.7894 27.709 C 40.0628 27.5962 40.3794 27.5878 40.6737 27.7106 Z " stroke-width="0.4262810861083461"/>
  <path id="ID0.6494691404514015" d="M 35.1656 25.4133 C 35.4599 25.5361 35.6768 25.7669 35.789 26.0405 C 35.9018 26.3139 35.9101 26.6305 35.7874 26.9248 C 35.6646 27.2191 35.4338 27.4359 35.1602 27.5482 C 34.8868 27.6609 34.5702 27.6693 34.2759 27.5465 C 33.9816 27.4238 33.7648 27.1929 33.6526 26.9194 C 33.5398 26.646 33.5314 26.3294 33.6542 26.0351 C 33.7769 25.7408 34.0078 25.5239 34.2813 25.4117 C 34.5547 25.299 34.8713 25.2906 35.1656 25.4133 Z " stroke-width="0.4262810861083461"/>
  <path id="ID0.03648320911452174" d="M 12.8368 65.1334 C 12.3323 66.1968 11.3682 66.7958 10.6845 66.4714 L 6.1973 64.3421 C 5.5132 64.0175 5.3678 62.8923 5.8725 61.8285 L 11.9422 50.3176 C 12.4468 49.2542 13.4108 48.6552 14.0944 48.98 L 17.5912 50.6393 C 18.2749 50.9637 18.4207 52.0891 17.9156 53.1528 L 12.8368 65.1334 Z " stroke-width="0.42628108554973854"/>
  <path id="ID0.5842904108576477" d="M 6.4394 68.4563 C 5.6853 68.4005 5.1197 67.7427 5.1759 66.9878 L 5.543 62.0344 C 5.5988 61.2794 6.2557 60.7129 7.0094 60.7688 L 15.2958 61.9334 C 16.0499 61.9892 16.6156 62.6465 16.5593 63.4015 L 16.2729 67.261 C 16.217 68.016 15.5606 68.5833 14.8069 68.5271 L 6.4394 68.4563 Z " stroke-width="0.4262810945510864"/>
  <path id="ID0.01732994895428419" d="M 29.8063 68.4563 C 29.0518 68.4005 28.4866 67.7427 28.5424 66.9878 L 28.9099 62.0344 C 28.9657 61.2794 29.6222 60.7129 30.3763 60.7688 L 38.6628 61.9334 C 39.4164 61.9892 39.9825 62.6465 39.9263 63.4015 L 39.6398 67.261 C 39.5835 68.016 38.9275 68.5833 38.1734 68.5271 L 29.8063 68.4563 Z " stroke-width="0.4262810945510864"/>
  <path id="ID0.255261589307338" d="M 34.9752 61.6514 C 35.6092 62.6431 35.6063 63.7779 34.9687 64.1857 L 30.7842 66.8616 C 30.147 67.2693 29.1154 66.7962 28.4809 65.8047 L 21.938 54.5557 C 21.3036 53.5641 21.3071 52.4296 21.9447 52.0218 L 25.2051 49.9369 C 25.8427 49.5291 26.8739 50.0023 27.5083 50.9938 L 34.9752 61.6514 Z " stroke-width="0.4262810926635152"/>
  <g id="ID0.13109061866998672">
    <path id="ID0.3106537782587111" fill="none" stroke="#000000" stroke-width="0.8525621925438135" d="M 17.9743 19.626 C 17.9743 19.626 14.1833 19.4077 11.0941 21.7144 C 8.3689 23.7493 6.6055 25.4923 6.6055 25.4923 "/>
    <path id="ID0.4428880806080997" fill="none" stroke="#000000" stroke-width="0.8525621925438135" d="M 17.3175 19.6285 C 17.3175 19.6285 15.4466 16.8962 12.18 18.8531 C 9.2624 20.6007 8.3361 19.4848 8.3361 19.4848 "/>
  </g>
  <g id="ID0.34331944677978754">
    <path id="ID0.5940494854003191" fill="none" stroke="#000000" stroke-width="2.5729442390973154" d="M 1.1246 51.0535 L 90.9067 41.1839 "/>
    <path id="ID0.6533192885108292" fill="#E6E6E6" stroke="#000000" d="M 95.5364 40.5051 L 86.9267 46.0767 L 85.9098 36.9605 L 95.5364 40.5051 " stroke-width="1.7152961593982103"/>
  </g>
  <g id="ID0.06835718359798193">
    <path id="ID0.08818722935393453" fill="#FBB03B" stroke="#000000" stroke-width="0.8525621878868431" d="M 15.0988 50.6346 C 14.7558 51.5116 13.7675 51.9452 12.8906 51.603 L 10.8474 50.8052 C 9.9705 50.463 9.5368 49.4739 9.8795 48.597 L 10.6849 46.5328 C 11.0279 45.6558 12.0162 45.2222 12.8935 45.5644 L 14.9363 46.3622 C 15.8132 46.7044 16.2468 47.6931 15.9042 48.5704 L 15.0988 50.6346 Z "/>
    <path id="ID0.8803494698368013" stroke="#1A1A1A" stroke-width="0.8525621878868431" d="M 17.7929 47.1215 C 17.4666 48.0256 16.6244 48.5496 15.9124 48.2922 L 11.2411 46.6039 C 10.5295 46.3465 10.2169 45.405 10.5436 44.5009 L 14.6688 34.704 C 14.9952 33.8003 15.8378 33.2759 16.5498 33.5337 L 20.1893 34.8494 C 20.9008 35.1068 21.2139 36.0479 20.8868 36.9524 L 17.7929 47.1215 Z "/>
  </g>
</svg>