<svg xmlns="http://www.w3.org/2000/svg" xmlns:xlink="http://www.w3.org/1999/xlink" version="1.1" width="115.05937959141431" height="57.38269425816236" viewBox="2.6493041446462353 0.6065618922963818 115.05937959141431 57.38269425816236">
  <!-- Exported by Scratch - http://scratch.mit.edu/ -->
  <g id="ID0.7014524983242154">
    <g id="ID0.6382137821055949">
      <path id="ID0.014096501283347607" fill="#FBB03B" stroke="#000000" d="M 8.8259 37.4856 C 6.4134 37.787 4.3006 36.3579 4.1086 34.2932 L 3.6637 29.4887 C 3.469 27.4254 5.2721 25.5078 7.685 25.2095 L 13.3655 24.5037 C 15.7797 24.2036 17.8916 25.6332 18.0841 27.6965 L 18.5299 32.5028 C 18.7237 34.5643 16.9228 36.4819 14.5086 36.7798 L 8.8259 37.4856 Z " stroke-width="1.000000015176768"/>
      <path id="ID0.686218956951052" stroke="#1A1A1A" d="M 19.9755 38.8316 C 17.5201 39.1925 15.3624 38.1427 15.159 36.4908 L 13.8242 25.654 C 13.6209 23.9999 15.4492 22.3694 17.9055 22.0103 L 45.1987 19.2368 C 47.6564 18.8759 49.814 19.9257 50.0165 21.5758 L 51.0562 30.0238 C 51.2586 31.6761 49.4312 33.3062 46.9749 33.6676 L 19.9755 38.8316 Z " stroke-width="1.000000015176768"/>
    </g>
    <path id="ID0.11354834772646427" fill="#FBB03B" stroke="#000000" d="M 34.64 38.2089 L 34.0657 11.561 L 51.3391 11.1888 L 51.9134 37.8366 L 34.64 38.2089 Z " stroke-width="1.2336777427747523"/>
    <path id="ID0.91079245461151" stroke="#1A1A1A" d="M 107.3063 39.1085 C 109.4019 39.2544 111.0244 40.4667 110.9304 41.814 L 110.3108 50.6594 C 110.2179 52.0077 108.4414 52.9812 106.3458 52.8354 L 83.2605 50.2402 C 81.1659 50.0943 79.5424 48.882 79.6374 47.5346 L 80.12 40.6426 C 80.213 39.2933 81.9884 38.3198 84.086 38.4657 L 107.3063 39.1085 Z " stroke-width="0.9999999974605576"/>
    <path id="ID0.6548289246857166" stroke="#1A1A1A" d="M 109.1543 25.1921 C 111.2082 25.6412 112.6383 27.0757 112.3504 28.3967 L 110.4578 37.0574 C 110.1699 38.3784 108.2721 39.0859 106.2201 38.6373 L 83.7537 32.7293 C 81.7007 32.2805 80.2704 30.8469 80.5586 29.525 L 82.0324 22.7763 C 82.3213 21.4556 84.2198 20.7492 86.273 21.1971 L 109.1543 25.1921 Z " stroke-width="1.0000000263398474"/>
    <path id="ID0.777387885376811" fill="#FF0000" stroke="#1A1A1A" d="M 38.8205 41.1238 C 41.9496 50.0525 51.4941 51.2711 51.4941 51.2711 L 78.1126 51.2405 C 91.1136 50.9603 91.4381 40.909 91.1579 27.909 C 91.1579 27.909 92.2849 11.791 88.8782 7.8065 C 84.4485 2.6227 77.4219 2.9032 70.0726 3.0616 C 70.0726 3.0616 59.8285 0.7508 52.7107 1.9534 C 47.2682 2.8719 39.3686 8.8675 43.1123 12.9888 C 46.651 16.8845 50.5275 18.0252 49.232 21.3589 C 46.0829 29.4616 38.8205 41.1238 38.8205 41.1238 Z " stroke-width="0.9999999974605576"/>
    <path id="ID0.7545809140428901" stroke="#1A1A1A" d="M 112.7287 39.2964 C 112.2958 40.5748 110.907 41.2587 109.6255 40.826 L 101.2274 37.9829 C 99.947 37.5495 99.2607 36.1622 99.6924 34.8845 L 105.3993 21.0792 C 105.8323 19.8008 107.221 19.1169 108.5006 19.5491 L 115.0445 21.7653 C 116.3249 22.1988 117.0115 23.5851 116.5795 24.8638 L 112.7287 39.2964 Z " stroke-width="1.0000000263398474"/>
    <path id="ID0.6310628820210695" fill="none" stroke="#000000" stroke-width="2.0000000137775977" d="M 30.9573 46.6317 C 30.9573 46.6317 37.0838 49.5327 43.7413 47.7854 C 49.6128 46.2447 53.7004 44.5428 53.7004 44.5428 "/>
    <path id="ID0.8269707574509084" fill="none" stroke="#000000" stroke-width="2.0000000137775977" d="M 32.0473 47.0663 C 32.0473 47.0663 33.3128 52.8414 40.0297 51.7924 C 46.0264 50.8549 46.8122 53.3224 46.8122 53.3224 "/>
    <path id="ID0.6218131836503744" fill="#FBB03B" stroke="#000000" d="M 22.8728 6.3239 C 25.731 4.1529 29.8093 4.7112 31.9803 7.5694 L 46.5725 26.7881 C 48.7435 29.6463 48.1866 33.725 45.327 35.8956 L 30.4096 47.2226 C 27.5514 49.3936 23.4731 48.8353 21.3038 45.9761 L 6.7112 26.7587 C 4.5398 23.8997 5.0977 19.8227 7.9559 17.6518 L 22.8728 6.3239 Z " stroke-width="1.0000000068887989"/>
    <path id="ID0.1167084677144885" d="M 21.2475 14.0427 C 20.9605 13.5514 20.7635 13.0689 20.6778 12.687 C 20.5913 12.3044 20.616 12.0224 20.7718 11.9314 C 20.9276 11.8404 21.1854 11.9574 21.4762 12.2207 C 21.7667 12.4829 22.0902 12.8916 22.3772 13.3829 C 22.6642 13.8742 22.8612 14.3567 22.9469 14.7386 C 23.0334 15.1212 23.0086 15.4032 22.8528 15.4942 C 22.6971 15.5852 22.4393 15.4682 22.1485 15.2049 C 21.858 14.9427 21.5345 14.534 21.2475 14.0427 Z " stroke-width="0.7418003130634301"/>
    <path id="ID0.5784528250806034" d="M 27.3297 22.7269 C 27.0427 22.2355 26.8481 21.7516 26.7663 21.3674 C 26.6837 20.9825 26.7139 20.6974 26.8757 20.6029 C 27.0375 20.5084 27.3007 20.6222 27.5954 20.8832 C 27.8898 21.1431 28.2158 21.5503 28.5028 22.0417 C 28.7897 22.533 28.9843 23.0169 29.0661 23.4011 C 29.1487 23.786 29.1185 24.0711 28.9567 24.1656 C 28.7949 24.2601 28.5317 24.1464 28.237 23.8854 C 27.9426 23.6254 27.6166 23.2182 27.3297 22.7269 Z " stroke-width="0.7444520229116056"/>
    <path id="ID0.5598513758741319" fill="none" stroke="#000000" stroke-width="2.0000000137775977" d="M 31.6877 45.9966 C 31.6877 45.9966 20.7278 34.7513 15.8883 27.3858 C 11.8909 21.3036 9.5873 16.414 9.5873 16.414 "/>
    <path id="ID0.4405256863683462" fill="none" stroke="#000000" d="M 25.1406 26.8249 L 21.8347 23.5961 " stroke-width="1.000000001883532"/>
    <path id="ID0.7939519328065217" fill="none" stroke="#000000" d="M 19.1927 18.3623 L 17.5067 14.8042 " stroke-width="1.0000000339811235"/>
    <path id="ID0.5087145324796438" stroke="#000000" d="M 27.4475 11.4382 L 31.8966 17.641 L 29.9837 18.7583 L 25.8984 11.7641 L 27.4475 11.4382 " stroke-width="0.7483303455096176"/>
    <path id="ID0.8625324973836541" fill="none" stroke="#1A1A1A" stroke-width="1.9999999949211151" d="M 71.572 51.5165 C 71.572 51.5165 75.3916 36.3737 75.1782 25.4018 C 74.9271 12.4042 73.376 3.5095 73.376 3.5095 "/>
    <g id="ID0.558200566098094">
      <path id="ID0.20674427365884185" fill="#FBB03B" stroke="#000000" d="M 10.1087 55.8311 C 7.7036 56.1935 5.5564 54.8187 5.3115 52.7581 L 4.7448 47.9672 C 4.4993 45.9096 6.2506 43.947 8.6564 43.5868 L 14.3163 42.7377 C 16.7203 42.3761 18.8694 43.7514 19.1126 45.8106 L 19.682 50.603 C 19.9269 52.6585 18.1754 54.622 15.77 54.9803 L 10.1087 55.8311 Z " stroke-width="1.0000000121329178"/>
      <path id="ID0.8016459289938211" stroke="#1A1A1A" d="M 21.2901 56.8918 C 18.844 57.3146 16.6596 56.3225 16.4142 54.6759 L 14.8049 43.8744 C 14.5605 42.228 16.3457 40.5507 18.7934 40.1301 L 46.0053 36.6643 C 48.4535 36.2408 50.6374 37.2359 50.8811 38.8801 L 52.1344 47.297 C 52.3816 48.9449 50.5946 50.6209 48.1458 51.0422 L 21.2901 56.8918 Z " stroke-width="1.0000000121329178"/>
    </g>
    <path id="ID0.2262100875377655" stroke="#1A1A1A" d="M 114.8224 51.1953 C 114.7515 52.5432 113.5995 53.5772 112.2487 53.5073 L 103.3946 53.041 C 102.0447 52.9711 101.0087 51.8211 101.0787 50.4733 L 102.8385 35.6399 C 102.9095 34.2921 104.0615 33.258 105.4103 33.328 L 112.3097 33.6904 C 113.6595 33.7623 114.6955 34.9113 114.6256 36.2591 L 114.8224 51.1953 Z " stroke-width="0.9999999974605576"/>
  </g>
</svg>