<svg xmlns="http://www.w3.org/2000/svg" xmlns:xlink="http://www.w3.org/1999/xlink" version="1.1" width="39.90932846069336" height="66.6046371459961" viewBox="0.9297000169754028 0.4262999892234802 39.90932846069336 66.6046371459961">
  <!-- Exported by Scratch - http://scratch.mit.edu/ -->
  <path id="ID0.9573684432543814" fill="#FBB03B" stroke="#000000" stroke-width="0.8525622166071742" d="M 40.0591 46.6218 C 40.2903 47.5343 39.7378 48.462 38.8253 48.6936 L 36.6992 49.2324 C 35.7867 49.464 34.8585 48.9115 34.627 47.9985 L 34.0823 45.8501 C 33.8508 44.9376 34.4037 44.0099 35.3162 43.7783 L 37.4422 43.2395 C 38.3547 43.0083 39.2825 43.5604 39.514 44.4734 L 40.0591 46.6218 Z "/>
  <path id="ID0.41889808466657996" stroke="#1A1A1A" stroke-width="0.8525622166071742" d="M 40.2082 42.197 C 40.4681 43.1222 40.0878 44.0382 39.359 44.243 L 34.5768 45.585 C 33.8477 45.7892 33.0464 45.2047 32.7865 44.2796 L 30.4463 33.9106 C 30.1868 32.9855 30.5675 32.0691 31.2962 31.8648 L 35.0228 30.8189 C 35.7515 30.6146 36.5534 31.1983 36.8132 32.1243 L 40.2082 42.197 Z "/>
  <path id="ID0.13261056737974286" fill="#FBB03B" stroke="#000000" stroke-width="0.8525621891021729" d="M 17.9174 10.9413 L 38.7178 10.9413 L 38.7178 28.0181 L 17.9174 28.0181 L 17.9174 10.9413 Z "/>
  <path id="ID0.6617734562605619" stroke="#1A1A1A" stroke-width="0.8525621891021729" d="M 23.2413 22.8312 C 16.8905 22.8312 25.8787 14.6137 30.2442 14.1001 L 40.2337 13.3255 C 39.8245 6.4095 34.0888 0.9263 27.0697 0.9263 L 24.6864 0.9263 C 17.4021 0.9263 11.4977 6.8311 11.4977 14.1154 L 11.4977 41.9213 C 11.4977 49.2056 17.4025 55.1104 24.6864 55.1104 L 27.0697 55.1104 C 34.354 55.1104 40.2588 49.2056 40.2588 41.9213 C 40.2588 41.9213 40.6131 30.8508 39.8326 29.7237 C 39.0516 28.5962 40.2588 22.8316 40.2588 22.8316 L 23.2413 22.8316 Z "/>
  <path id="ID0.7134617334231734" d="M 36.3554 19.1536 C 36.6742 19.1536 36.9633 19.2832 37.1721 19.4925 C 37.3814 19.7014 37.511 19.9904 37.511 20.3093 C 37.511 20.6281 37.3814 20.9172 37.1721 21.126 C 36.9633 21.3353 36.6742 21.4649 36.3554 21.4649 C 36.0365 21.4649 35.7475 21.3353 35.5386 21.126 C 35.3293 20.9172 35.1997 20.6281 35.1997 20.3093 C 35.1997 19.9904 35.3293 19.7014 35.5386 19.4925 C 35.7475 19.2832 36.0365 19.1536 36.3554 19.1536 Z " stroke-width="0.4262810945510864"/>
  <path id="ID0.6494691404514015" d="M 30.3874 19.1536 C 30.7063 19.1536 30.9953 19.2832 31.2042 19.4925 C 31.4135 19.7014 31.5431 19.9904 31.5431 20.3093 C 31.5431 20.6281 31.4135 20.9172 31.2042 21.126 C 30.9953 21.3353 30.7063 21.4649 30.3874 21.4649 C 30.0686 21.4649 29.7796 21.3353 29.5707 21.126 C 29.3614 20.9172 29.2318 20.6281 29.2318 20.3093 C 29.2318 19.9904 29.3614 19.7014 29.5707 19.4925 C 29.7796 19.2832 30.0686 19.1536 30.3874 19.1536 Z " stroke-width="0.4262810945510864"/>
  <path id="ID0.3106537782587111" fill="none" stroke="#000000" stroke-width="0.8525622348160921" d="M 12.5319 18.2457 C 12.5319 18.2457 8.735 18.1929 5.7494 20.6321 C 3.1155 22.7839 1.4297 24.6021 1.4297 24.6021 "/>
  <path id="ID0.4428880806080997" fill="none" stroke="#000000" stroke-width="0.8525622348160921" d="M 11.8758 18.2768 C 11.8758 18.2768 9.8876 15.6287 6.7094 17.7262 C 3.8708 19.5993 2.8967 18.5249 2.8967 18.5249 "/>
  <path id="ID0.03648320911452174" d="M 25.4945 62.2332 C 25.4039 63.4067 24.718 64.311 23.9635 64.2528 L 19.0114 63.8703 C 18.2565 63.812 17.7181 62.8133 17.8086 61.6394 L 19.3571 48.7187 C 19.4477 47.5452 20.1335 46.6408 20.8881 46.6995 L 24.7471 46.9975 C 25.5016 47.0558 26.0405 48.0545 25.9495 49.2284 L 25.4945 62.2332 Z " stroke-width="0.4262810871301013"/>
  <path id="ID0.08818722935393453" fill="#FBB03B" stroke="#000000" stroke-width="0.8525621842595418" d="M 17.0169 47.8215 C 16.805 48.739 15.8903 49.3117 14.9729 49.1007 L 12.8354 48.6084 C 11.9181 48.3973 11.3452 47.4818 11.5567 46.5644 L 12.0534 44.405 C 12.2653 43.4875 13.18 42.9148 14.0978 43.1257 L 16.2348 43.6181 C 17.1522 43.8292 17.725 44.7443 17.5136 45.6621 L 17.0169 47.8215 Z "/>
  <path id="ID0.8803494698368013" stroke="#1A1A1A" stroke-width="0.8525621842595418" d="M 19.1715 43.954 C 18.9801 44.8959 18.2231 45.5368 17.4813 45.3857 L 12.614 44.3945 C 11.8726 44.2433 11.4264 43.3572 11.6182 42.4152 L 14.2751 32.1226 C 14.4666 31.1812 15.224 30.5398 15.9659 30.6913 L 19.7581 31.4639 C 20.4995 31.6151 20.9461 32.5006 20.7539 33.4431 L 19.1715 43.954 Z "/>
  <path id="ID0.5842904108576477" d="M 18.6894 66.4563 C 17.9353 66.4005 17.3697 65.7427 17.4259 64.9878 L 17.793 60.0344 C 17.8488 59.2794 18.5057 58.7129 19.2594 58.7688 L 27.5458 59.9334 C 28.2999 59.9892 28.8656 60.6465 28.8093 61.4015 L 28.5229 65.261 C 28.467 66.016 27.8106 66.5833 27.0569 66.5271 L 18.6894 66.4563 Z " stroke-width="0.4262810945510864"/>
  <path id="ID0.01732994895428419" d="M 25.0563 66.4563 C 24.3018 66.4005 23.7366 65.7427 23.7924 64.9878 L 24.1599 60.0344 C 24.2157 59.2794 24.8722 58.7129 25.6263 58.7688 L 33.9128 59.9334 C 34.6664 59.9892 35.2325 60.6465 35.1763 61.4015 L 34.8898 65.261 C 34.8335 66.016 34.1775 66.5833 33.4234 66.5271 L 25.0563 66.4563 Z " stroke-width="0.4262810945510864"/>
  <path id="ID0.255261589307338" d="M 31.7077 62.2883 C 31.8219 63.4598 31.3038 64.4694 30.5505 64.543 L 25.607 65.0257 C 24.8542 65.0993 24.1501 64.2092 24.0354 63.0377 L 23.3175 50.044 C 23.2028 48.8725 23.7213 47.8634 24.4746 47.7898 L 28.3263 47.4138 C 29.0796 47.3401 29.7832 48.2302 29.8979 49.4017 L 31.7077 62.2883 Z " stroke-width="0.42628109409318865"/>
</svg>