<svg xmlns="http://www.w3.org/2000/svg" xmlns:xlink="http://www.w3.org/1999/xlink" version="1.1" width="45.17219923257479" height="45.97251890420565" viewBox="6.444099911453084 3.1819000327604567 45.17219923257479 45.97251890420565">
  <!-- Exported by Scratch - http://scratch.mit.edu/ -->
  <g id="ID0.8564713546074927">
    <path id="ID0.5989846084266901" d="M 36.7636 36.8075 C 36.4679 37.1375 35.9594 37.164 35.6292 36.8668 L 33.4643 34.9192 C 33.1335 34.6229 33.107 34.1144 33.4036 33.785 L 36.9167 30.3594 C 37.2118 30.0302 37.7202 30.0038 38.0503 30.2995 L 39.7383 31.8175 C 40.0685 32.1147 40.0956 32.6223 39.7999 32.9524 L 36.7636 36.8075 Z " stroke-width="0.9999999966097963"/>
    <path id="ID0.7705372264608741" d="M 35.5155 31.9862 C 36.2013 32.064 36.7175 32.4835 36.6677 32.9254 L 36.3431 35.8197 C 36.2947 36.2615 35.698 36.5572 35.0131 36.48 L 27.4702 35.312 C 26.7845 35.2342 26.2683 34.8147 26.3182 34.3742 L 26.5704 32.1179 C 26.6196 31.6768 27.217 31.3816 27.9019 31.4588 L 35.5155 31.9862 Z " stroke-width="0.9999999966097963"/>
  </g>
  <g id="ID0.15596213983371854">
    <path id="ID0.5848010759800673" d="M 23.4966 45.2021 C 23.5585 45.8895 23.2489 46.4797 22.8072 46.5186 L 19.9057 46.777 C 19.4642 46.8168 19.0551 46.2911 18.9933 45.6037 L 18.6366 37.9811 C 18.5745 37.2927 18.8843 36.7035 19.3251 36.6649 L 21.5864 36.4637 C 22.0279 36.4239 22.437 36.9497 22.4986 37.6361 L 23.4966 45.2021 Z " stroke-width="0.9999999823193697"/>
    <path id="ID0.8454087860882282" d="M 20.0728 48.3925 C 19.6352 48.4684 19.2208 48.1738 19.1448 47.7362 L 18.653 44.866 C 18.5781 44.4282 18.8715 44.013 19.3084 43.9383 L 24.1885 43.4274 C 24.6251 43.3517 25.0405 43.6461 25.1152 44.083 L 25.499 46.3205 C 25.575 46.7581 25.2816 47.1733 24.844 47.2492 L 20.0728 48.3925 Z " stroke-width="0.9999999823193697"/>
  </g>
  <g id="ID0.20980142103508115">
    <path id="ID0.15353494929149747" fill="#FBB03B" stroke="#000000" stroke-width="0.4999999842269372" d="M 32.3484 18.9657 C 32.8838 18.8344 33.4261 19.1612 33.558 19.6958 L 33.8656 20.9455 C 33.9968 21.4809 33.6693 22.0225 33.1348 22.1559 L 31.8727 22.4674 C 31.3367 22.5995 30.795 22.2719 30.663 21.7359 L 30.3541 20.4877 C 30.2241 19.9508 30.5503 19.4093 31.0856 19.278 L 32.3484 18.9657 Z "/>
    <path id="ID0.7635790938511491" stroke="#1A1A1A" stroke-width="0.4999999842269372" d="M 29.753 18.8604 C 30.2967 18.7113 30.8325 18.9379 30.9489 19.3659 L 31.7179 22.1764 C 31.8356 22.6044 31.4891 23.0718 30.9469 23.2208 L 24.8553 24.5537 C 24.3124 24.7035 23.7764 24.4755 23.6594 24.0482 L 23.0617 21.8595 C 22.9432 21.431 23.2904 20.9628 23.8334 20.8144 L 29.753 18.8604 Z "/>
  </g>
  <g id="ID0.7137223575264215">
    <path id="ID0.5612710667774081" fill="#FBB03B" stroke="#000000" stroke-width="0.5000096306343969" d="M 11.5713 15.6205 L 23.0765 11.5645 L 26.4063 21.01 L 14.901 25.0659 L 11.5713 15.6205 Z "/>
    <path id="ID0.3885055026039481" fill="#78006D" stroke="#1A1A1A" stroke-width="0.4999999944357371" d="M 16.8294 21.1254 C 13.3165 22.364 16.6852 16.0667 18.9998 14.9312 L 24.3742 12.5549 C 22.7991 8.8101 18.5587 6.896 14.676 8.2646 L 13.3577 8.7299 C 9.3295 10.15 7.2144 14.5679 8.6336 18.5968 L 14.0547 33.9745 C 15.4748 38.0027 19.8935 40.1172 23.9209 38.6978 L 25.2385 38.2332 C 29.2689 36.8126 31.3826 32.3945 29.964 28.3664 C 29.964 28.3664 28.002 22.1743 27.349 21.7032 C 26.698 21.2317 26.2416 17.8073 26.2416 17.8073 L 16.8294 21.1254 Z "/>
  </g>
  <g id="ID0.20883694617077708">
    <path id="ID0.16792826633900404" d="M 22.6595 14.4724 C 22.8037 14.3534 22.9832 14.3039 23.1556 14.3211 C 23.3281 14.3369 23.4949 14.4197 23.6139 14.564 C 23.7329 14.7082 23.7825 14.8877 23.7653 15.0601 C 23.7494 15.2326 23.6666 15.3994 23.5224 15.5184 C 23.3781 15.6374 23.1986 15.687 23.0263 15.6697 C 22.8537 15.6539 22.6869 15.5711 22.5679 15.4269 C 22.4489 15.2826 22.3994 15.1031 22.4166 14.9307 C 22.4325 14.7582 22.5152 14.5914 22.6595 14.4724 Z " stroke-width="0.9999999888714742"/>
    <path id="ID0.08473029173910618" d="M 19.9941 16.4068 C 20.1384 16.2878 20.3179 16.2382 20.4902 16.2555 C 20.6628 16.2713 20.8296 16.3541 20.9486 16.4983 C 21.0676 16.6426 21.1171 16.8221 21.0999 16.9945 C 21.084 17.167 21.0013 17.3338 20.857 17.4528 C 20.7128 17.5718 20.5333 17.6213 20.3609 17.6041 C 20.1884 17.5882 20.0216 17.5055 19.9026 17.3612 C 19.7836 17.217 19.734 17.0375 19.7512 16.8651 C 19.7671 16.6926 19.8499 16.5258 19.9941 16.4068 Z " stroke-width="0.9999999888714742"/>
  </g>
  <path id="ID0.9075090778060257" fill="none" stroke="#000000" d="M 10.116 22.3638 C 10.116 22.3638 8.8828 24.2198 9.1397 26.4663 C 9.365 28.4483 9.7256 29.857 9.7256 29.857 " stroke-width="1.0000000368070527"/>
  <path id="ID0.35206371266394854" fill="none" stroke="#000000" d="M 9.9226 22.6971 C 9.9226 22.6971 7.9855 22.8375 8.0101 25.0708 C 8.033 27.0653 7.1941 27.2039 7.1941 27.2039 " stroke-width="1.0000000368070527"/>
  <path id="ID0.5940494854003191" fill="none" stroke="#000000" stroke-width="1.4999999833072113" d="M 9.471 40.7255 L 48.8908 5.8131 "/>
  <g id="ID0.7118512513116002">
    <path id="ID0.7296573664061725" fill="#FBB03B" stroke="#000000" stroke-width="0.4999999913418922" d="M 15.4851 37.3518 C 15.3595 37.8887 14.8218 38.223 14.2843 38.0987 L 13.0321 37.805 C 12.4923 37.6805 12.159 37.1425 12.2851 36.6042 L 12.5807 35.3382 C 12.7063 34.8012 13.2432 34.4651 13.7828 34.5918 L 15.0337 34.885 C 15.5707 35.0106 15.9055 35.5469 15.7798 36.0862 L 15.4851 37.3518 Z "/>
    <path id="ID0.7869536513462663" stroke="#1A1A1A" stroke-width="0.4999999913418922" d="M 16.7555 35.0886 C 16.6428 35.6408 16.1965 36.0149 15.7624 35.9254 L 12.9105 35.3337 C 12.4756 35.2423 12.215 34.7226 12.329 34.171 L 13.9081 28.1402 C 14.0217 27.5876 14.4671 27.214 14.9016 27.3044 L 17.125 27.7643 C 17.5586 27.8551 17.8192 28.3748 17.7039 28.926 L 16.7555 35.0886 Z "/>
  </g>
  <path id="ID0.6533192885108292" fill="#E6E6E6" stroke="#000000" d="M 50.8663 3.9319 L 48.6426 9.4817 L 45.0907 5.4841 L 50.8663 3.9319 " stroke-width="0.9999999888714742"/>
</svg>