<svg xmlns="http://www.w3.org/2000/svg" xmlns:xlink="http://www.w3.org/1999/xlink" version="1.1" width="50.705888949274815" height="72.70440884673575" viewBox="1.3678773828149855 5.229999441683393 50.705888949274815 72.70440884673575">
  <!-- Exported by Scratch - http://scratch.mit.edu/ -->
  <g id="ID0.5627362658269703">
    <path id="ID0.7095291647128761" d="M 39.459 74.576 C 39.339 75.348 38.838 75.912 38.341 75.835 L 35.082 75.325 C 34.585 75.248 34.28 74.558 34.4 73.785 L 36.093 65.31 C 36.214 64.538 36.714 63.974 37.21 64.052 L 39.75 64.448 C 40.247 64.526 40.552 65.215 40.432 65.986 L 39.459 74.576 Z " stroke-width="1"/>
    <path id="ID0.07840509107336402" d="M 34.824 77.146 C 34.322 77.11 33.947 76.672 33.983 76.17 L 34.228 72.881 C 34.265 72.379 34.701 72.003 35.202 72.041 L 40.705 72.813 C 41.206 72.85 41.582 73.287 41.545 73.788 L 41.355 76.351 C 41.319 76.853 40.883 77.229 40.381 77.193 L 34.824 77.146 Z " stroke-width="1"/>
  </g>
  <g id="ID0.3884058422408998">
    <path id="ID0.4977212129160762" d="M 43.777 77.174 C 43.277 77.128 42.909 76.686 42.955 76.183 L 43.259 72.9 C 43.304 72.398 43.747 72.031 44.247 72.077 L 49.735 72.949 C 50.236 72.995 50.603 73.438 50.558 73.937 L 50.322 76.498 C 50.275 76.999 49.833 77.367 49.334 77.322 L 43.777 77.174 Z " stroke-width="1"/>
    <path id="ID0.8388573401607573" d="M 47.9 73.025 C 48.08 73.786 47.83 74.496 47.338 74.613 L 44.13 75.375 C 43.64 75.492 43.097 74.971 42.917 74.21 L 41.273 65.724 C 41.092 64.963 41.343 64.253 41.832 64.137 L 44.334 63.542 C 44.823 63.426 45.366 63.948 45.546 64.709 L 47.9 73.025 Z " stroke-width="1"/>
  </g>
  <path id="ID0.3610392170958221" fill="#307EFF" stroke="#000000" stroke-width="1.2173788174388767" d="M 42.35 47.6597 C 44.8351 47.4407 47.4361 49.3877 49.1 51.5042 C 50.7391 53.588 51.4063 56.7327 51.4625 59.519 C 51.5131 62.0303 50.819 64.9 49.2687 66.6216 C 47.516 68.4122 44.9026 68.9804 42.575 68.9674 C 40.2564 68.9544 37.5485 68.4513 35.7687 66.6216 C 34.2275 64.9196 34.0295 61.9834 33.6875 59.519 C 33.3995 57.4352 32.4534 54.8365 33.6313 53.2635 C 35.7834 50.3886 39.0537 48.0976 42.35 47.6597 Z "/>
  <path id="ID0.7086072596721351" fill="#FFFFFF" stroke="none" stroke-linecap="round" d="M 33.5584 35.3295 C 33.9211 35.2466 34.2849 35.3214 34.5782 35.5098 C 34.8725 35.698 35.0964 35.9997 35.1808 36.3692 C 35.2652 36.7387 35.1946 37.1076 35.0113 37.405 C 34.8289 37.7021 34.5337 37.9275 34.171 38.0104 C 33.8084 38.0932 33.4445 38.0184 33.1512 37.83 C 32.8569 37.6418 32.6331 37.3401 32.5486 36.9706 C 32.4642 36.6012 32.5348 36.2322 32.7181 35.9349 C 32.9005 35.6378 33.1957 35.4123 33.5584 35.3295 Z " stroke-width="0.9999999781523206"/>
  <g id="ID0.4069529417902231">
    <path id="ID0.7281417334452271" fill="#FBB03B" stroke="#000000" stroke-width="0.5661834423564746" d="M 30.6736 36.904 L 43.8867 32.8719 L 47.197 43.7197 L 33.984 47.7518 L 30.6736 36.904 Z "/>
    <path id="ID0.21047586435452104" fill="#CCCCCC" stroke="#1A1A1A" stroke-width="0.5661999785742818" d="M 36.385 43.3737 C 32.3514 44.6048 36.4668 37.642 39.1413 36.4698 L 45.3371 34.0396 C 43.736 29.727 39.0315 27.356 34.5711 28.7166 L 33.0568 29.1785 C 28.4303 30.591 25.8229 35.4861 27.2347 40.1139 L 32.6266 57.7765 C 45.4063 64.0685 48.7144 56.4486 50.8973 52.2017 C 52.0276 50.7475 48.9944 45.6051 48.2608 44.5363 C 47.6137 43.7463 47.1968 40.0748 47.1968 40.0748 L 36.385 43.3737 Z "/>
  </g>
  <g id="ID0.804477680940181">
    <path id="ID0.049661871045827866" d="M 44.0197 39.55 C 44.2263 39.5028 44.4327 39.5439 44.5991 39.6484 C 44.7656 39.753 44.8922 39.921 44.9394 40.1276 C 44.9867 40.3343 44.9456 40.5407 44.8411 40.7071 C 44.7365 40.8736 44.5685 41.0002 44.3618 41.0474 C 44.1552 41.0947 43.9488 41.0536 43.7824 40.949 C 43.6159 40.8445 43.4893 40.6765 43.442 40.4698 C 43.3948 40.2631 43.4359 40.0568 43.5404 39.8903 C 43.645 39.7239 43.813 39.5973 44.0197 39.55 Z " stroke-width="0.9999999781523206"/>
    <path id="ID0.5016829459927976" d="M 40.339 40.1552 C 40.5456 40.1079 40.751 40.1492 40.9175 40.2538 C 41.084 40.3583 41.2103 40.5254 41.2576 40.732 C 41.3048 40.9387 41.2635 41.1441 41.159 41.3105 C 41.0544 41.477 40.8874 41.6034 40.6807 41.6506 C 40.474 41.6978 40.2687 41.6566 40.1022 41.552 C 39.9357 41.4475 39.8093 41.2804 39.7621 41.0738 C 39.7149 40.8671 39.7562 40.6617 39.8607 40.4952 C 39.9653 40.3288 40.1323 40.2024 40.339 40.1552 Z " stroke-width="0.9999999781523206"/>
  </g>
  <g id="ID0.8707441003061831">
    <path id="ID0.9812898933887482" fill="none" stroke="#000000" stroke-width="0.5661999876298439" d="M 28.455 44.2866 C 28.455 44.2866 25.9327 44.2599 23.9574 45.8909 C 22.2126 47.3276 21.0983 48.5383 21.0983 48.5383 "/>
    <path id="ID0.5538734113797545" fill="none" stroke="#000000" stroke-width="0.5661999876298439" d="M 28.0177 44.3076 C 28.0177 44.3076 26.691 42.5551 24.5833 43.9568 C 22.7042 45.2099 22.0554 44.4986 22.0554 44.4986 "/>
  </g>
  <path id="ID0.028952989727258682" fill="#FFF05D" stroke="#000000" stroke-width="0.5180999886807173" d="M 33.1478 41.3145 C 31.4993 42.7416 31.7334 40.9966 30.09 39.3575 L 20.8421 28.9183 L 3.7207 13.4168 C 1.5529 11.6063 1.3328 8.7218 3.4728 6.8778 C 5.6133 5.0315 8.282 5.7747 9.9022 8.089 L 22.412 27.5646 L 31.334 38.2701 C 32.6969 40.0235 34.4246 40.2134 33.1478 41.3145 Z "/>
  <g id="ID0.4284289279021323">
    <path id="ID0.6397467940114439" fill="#FBB03B" stroke="#000000" stroke-width="0.5661999876298439" d="M 26.3715 36.3915 C 26.1426 35.812 26.4286 35.1558 27.009 34.9257 L 28.3647 34.3943 C 28.9487 34.1624 29.6051 34.4494 29.8341 35.0341 L 30.3715 36.4028 C 30.6006 36.9833 30.3137 37.6448 29.73 37.8736 L 28.3763 38.4045 C 27.7953 38.6317 27.1371 38.3461 26.9088 37.7643 L 26.3715 36.3915 Z "/>
    <path id="ID0.9793291371315718" stroke="#1A1A1A" stroke-width="0.5661999876298439" d="M 26.6413 39.3231 C 26.3925 38.7327 26.566 38.1001 27.0295 37.9019 L 30.0692 36.6195 C 30.5312 36.4237 31.1096 36.7419 31.3579 37.3303 L 33.7629 43.9674 C 34.0122 44.5556 33.836 45.1898 33.374 45.3856 L 31.0072 46.385 C 30.543 46.5803 29.9656 46.2619 29.7208 45.6757 L 26.6413 39.3231 Z "/>
  </g>
</svg>