<svg xmlns="http://www.w3.org/2000/svg" xmlns:xlink="http://www.w3.org/1999/xlink" version="1.1" width="63.00935746632065" height="44.55813218555893" viewBox="1.1192430188156868 0.4712513019539619 63.00935746632065 44.55813218555893">
  <!-- Exported by Scratch - http://scratch.mit.edu/ -->
  <path id="ID0.5824755243957043" d="M 45.016 41.7699 C 44.9449 42.5479 44.4805 43.1424 43.9797 43.0969 L 40.695 42.7937 C 40.1941 42.7482 39.8462 42.0788 39.9171 41.2998 L 41.0718 32.7348 C 41.1438 31.9567 41.6072 31.3623 42.1071 31.4088 L 44.667 31.6437 C 45.168 31.6902 45.5159 32.3585 45.4448 33.1356 L 45.016 41.7699 Z " stroke-width="0.9999999982587009"/>
  <path id="ID0.8534832675941288" d="M 52.9039 41.1183 C 53.0912 41.8767 52.8494 42.5901 52.3596 42.7126 L 49.1595 43.5083 C 48.6707 43.6311 48.1226 43.1151 47.9344 42.3564 L 46.2001 33.8887 C 46.0118 33.13 46.2546 32.4169 46.7422 32.2948 L 49.237 31.6737 C 49.7256 31.5519 50.2734 32.0688 50.4616 32.8275 L 52.9039 41.1183 Z " stroke-width="1.0000000139280747"/>
  <path id="ID0.3610392170958221" fill="#003FFF" stroke="#000000" stroke-width="1" d="M 47.75 21.9 C 49.93 21.9 51.905 22.712 53.335 24.025 C 54.765 25.337 55.65 27.15 55.65 29.15 C 55.65 31.15 54.765 32.963 53.335 34.275 C 51.905 35.588 49.93 36.4 47.75 36.4 C 45.57 36.4 43.595 35.588 42.165 34.275 C 40.735 32.963 39.85 31.15 39.85 29.15 C 39.85 27.15 40.735 25.337 42.165 24.025 C 43.595 22.712 45.57 21.9 47.75 21.9 Z "/>
  <path id="ID0.8168984204530716" d="M 48.881 44.48 C 48.38 44.444 48.004 44.006 48.041 43.504 L 48.286 40.215 C 48.322 39.713 48.759 39.337 49.26 39.375 L 54.763 40.147 C 55.263 40.184 55.639 40.621 55.603 41.122 L 55.413 43.685 C 55.376 44.187 54.939 44.563 54.439 44.527 L 48.881 44.48 Z " stroke-width="1"/>
  <path id="ID0.09308562520891428" d="M 40.724 44.48 C 40.222 44.444 39.847 44.006 39.883 43.504 L 40.128 40.215 C 40.165 39.713 40.601 39.337 41.102 39.375 L 46.605 40.147 C 47.106 40.184 47.482 40.621 47.445 41.122 L 47.255 43.685 C 47.219 44.187 46.783 44.563 46.281 44.527 L 40.724 44.48 Z " stroke-width="1"/>
  <g id="ID0.7599780382588506">
    <path id="ID0.5522712115198374" fill="#FBB03B" stroke="#000000" stroke-width="0.5662109120314839" d="M 49.8732 6.2234 L 62.8478 10.972 L 58.9499 21.6223 L 45.9753 16.8738 L 49.8732 6.2234 Z "/>
    <path id="ID0.6870047394186258" fill="#CCCCCC" stroke="#1A1A1A" stroke-width="0.5662" d="M 50.491 14.838 C 46.53 13.389 54.012 10.316 56.851 10.991 L 63.259 12.788 C 64.581 8.382 62.257 3.653 57.878 2.051 L 56.392 1.507 C 51.85 -0.155 46.818 2.179 45.155 6.722 L 38.808 24.064 C 45.296 35.067 52.1 32.467 56.747 30.63 C 58.842 29.937 58.988 24.53 59.264 22.925 C 59.365 21.801 61.105 18.724 61.105 18.724 L 50.491 14.838 Z "/>
  </g>
  <g id="ID0.709036692045629">
    <path id="ID0.6454382967203856" d="M 60.379 13.227 C 60.591 13.227 60.783 13.313 60.922 13.452 C 61.061 13.591 61.147 13.783 61.147 13.995 C 61.147 14.207 61.061 14.399 60.922 14.538 C 60.783 14.677 60.591 14.763 60.379 14.763 C 60.167 14.763 59.975 14.677 59.836 14.538 C 59.697 14.399 59.611 14.207 59.611 13.995 C 59.611 13.783 59.697 13.591 59.836 13.452 C 59.975 13.313 60.167 13.227 60.379 13.227 Z " stroke-width="1"/>
    <path id="ID0.3061303119175136" d="M 56.656 12.997 C 56.868 12.997 57.059 13.083 57.198 13.222 C 57.337 13.361 57.423 13.552 57.423 13.764 C 57.423 13.976 57.337 14.167 57.198 14.306 C 57.059 14.445 56.868 14.531 56.656 14.531 C 56.444 14.531 56.253 14.445 56.114 14.306 C 55.975 14.167 55.889 13.976 55.889 13.764 C 55.889 13.552 55.975 13.361 56.114 13.222 C 56.253 13.083 56.444 12.997 56.656 12.997 Z " stroke-width="1"/>
  </g>
  <g id="ID0.7351767676882446">
    <path id="ID0.47890645265579224" fill="none" stroke="#000000" stroke-width="0.5662000247393298" d="M 43.7029 10.4391 C 43.7029 10.4391 41.4058 11.4803 40.3035 13.7929 C 39.3295 15.8314 38.8315 17.4009 38.8315 17.4009 "/>
    <path id="ID0.1934835067950189" fill="none" stroke="#000000" stroke-width="0.5662000247393298" d="M 43.3162 10.6429 C 43.3162 10.6429 41.3723 9.6148 40.0557 11.7747 C 38.8816 13.7041 37.9927 13.3341 37.9927 13.3341 "/>
  </g>
  <path id="ID0.8436069656163454" fill="#FFF05D" stroke="#000000" stroke-width="0.5180999890561088" d="M 44.3003 25.2481 C 45.0948 27.2782 43.5281 26.4752 41.4348 27.4779 L 28.5075 32.7114 L 8.1808 43.6776 C 5.7502 45.1174 2.9572 44.3623 1.9329 41.7292 C 0.9075 39.0952 2.4981 36.8263 5.222 36.0714 L 27.7557 30.7786 L 40.8251 25.9396 C 42.9309 25.2427 43.688 23.6769 44.3003 25.2481 Z "/>
  <g id="ID0.5123446495272219">
    <path id="ID0.10209798347204924" fill="#FBB03B" stroke="#000000" stroke-width="0.5662" d="M 41.95 27.813 C 41.673 28.371 40.994 28.598 40.434 28.321 L 39.131 27.67 C 38.568 27.392 38.341 26.712 38.621 26.15 L 39.278 24.835 C 39.556 24.275 40.239 24.045 40.799 24.326 L 42.101 24.976 C 42.659 25.255 42.887 25.935 42.608 26.495 L 41.95 27.813 Z "/>
    <path id="ID0.653992504812777" stroke="#1A1A1A" stroke-width="0.5662" d="M 43.945 25.649 C 43.674 26.229 43.088 26.524 42.631 26.312 L 39.643 24.914 C 39.188 24.702 39.037 24.06 39.308 23.481 L 42.626 17.25 C 42.895 16.671 43.484 16.377 43.939 16.589 L 46.266 17.678 C 46.722 17.892 46.872 18.533 46.601 19.108 L 43.945 25.649 Z "/>
  </g>
  <path id="ID0.7086072596721351" fill="#FFFFFF" stroke="none" stroke-linecap="round" d="M 50.65 3.1 C 51.022 3.1 51.36 3.254 51.604 3.503 C 51.849 3.752 52 4.096 52 4.475 C 52 4.854 51.849 5.198 51.604 5.447 C 51.36 5.696 51.022 5.85 50.65 5.85 C 50.278 5.85 49.94 5.696 49.696 5.447 C 49.451 5.198 49.3 4.854 49.3 4.475 C 49.3 4.096 49.451 3.752 49.696 3.503 C 49.94 3.254 50.278 3.1 50.65 3.1 Z " stroke-width="1"/>
</svg>