<svg xmlns="http://www.w3.org/2000/svg" xmlns:xlink="http://www.w3.org/1999/xlink" version="1.1" width="38.29294967651367" height="18.25199317932129" viewBox="0.06768649816513062 -0.11819997429847717 38.29294967651367 18.25199317932129">
  <!-- Exported by Scratch - http://scratch.mit.edu/ -->
  <path id="ID0.255261589307338" d="M 35.0512 6.4126 C 35.7169 6.3978 36.2645 6.7329 36.2741 7.161 L 36.3368 9.9703 C 36.3465 10.3982 35.8145 10.7576 35.1487 10.7727 L 27.7878 10.6268 C 27.122 10.6419 26.5747 10.3065 26.5651 9.8784 L 26.5163 7.6896 C 26.5067 7.2615 27.0386 6.9022 27.7044 6.8872 L 35.0512 6.4126 Z " stroke-width="0.24116709775791606"/>
  <path id="ID0.03648320911452174" d="M 35.1428 11.3749 C 35.7993 11.486 36.2738 11.9187 36.2024 12.3408 L 35.7336 15.1114 C 35.6621 15.5338 35.0719 15.786 34.4151 15.675 L 27.2144 14.1416 C 26.5578 14.0305 26.0833 13.5978 26.155 13.1757 L 26.5203 11.0167 C 26.5918 10.5945 27.182 10.342 27.8388 10.4533 L 35.1428 11.3749 Z " stroke-width="0.24116709129633693"/>
  <path id="ID0.13261056737974286" fill="#FBB03B" stroke="#000000" stroke-width="0.48233418259267385" d="M 6.1852 12.989 L 6.3345 1.2222 L 15.9948 1.3447 L 15.8456 13.1115 L 6.1852 12.989 Z "/>
  <path id="ID0.6617734562605619" fill="#009999" stroke="#1A1A1A" stroke-width="0.48233418259267385" d="M 12.9495 10.0626 C 12.9039 13.6552 8.3198 8.5117 8.0606 6.0384 L 7.6941 0.3818 C 3.7788 0.5637 0.6357 3.769 0.5854 7.7397 L 0.5683 9.088 C 0.516 13.2087 3.814 16.5912 7.9348 16.6435 L 23.6646 16.843 C 27.7853 16.8952 31.168 13.5972 31.2203 9.4767 L 31.2374 8.1285 C 31.2897 4.0077 27.9917 0.625 23.8709 0.5727 C 23.8709 0.5727 17.6109 0.2929 16.9677 0.7263 C 16.3242 1.16 13.0719 0.4358 13.0719 0.4358 L 12.9498 10.0626 Z "/>
  <path id="ID0.7134617334231734" d="M 11.4077 2.5249 C 11.41 2.3445 11.4346 2.1813 11.4726 2.0636 C 11.5104 1.9457 11.5617 1.873 11.6172 1.8737 C 11.6727 1.8744 11.7221 1.9483 11.7569 2.0672 C 11.7918 2.1858 11.8123 2.3496 11.81 2.53 C 11.8077 2.7104 11.7831 2.8736 11.7452 2.9913 C 11.7073 3.1092 11.6561 3.1819 11.6006 3.1812 C 11.5451 3.1805 11.4957 3.1066 11.4609 2.9877 C 11.4259 2.8691 11.4054 2.7053 11.4077 2.5249 Z " stroke-width="0.17842083122028474"/>
  <path id="ID0.6494691404514015" d="M 11.2708 5.9061 C 11.2731 5.7257 11.3005 5.5626 11.343 5.4449 C 11.3854 5.327 11.4429 5.2544 11.5054 5.2552 C 11.5678 5.256 11.6235 5.3301 11.6629 5.449 C 11.7024 5.5677 11.7257 5.7315 11.7234 5.9119 C 11.7211 6.0922 11.6936 6.2554 11.6511 6.3731 C 11.6087 6.4909 11.5512 6.5635 11.4888 6.5627 C 11.4263 6.5619 11.3707 6.4879 11.3313 6.369 C 11.2918 6.2503 11.2685 6.0865 11.2708 5.9061 Z " stroke-width="0.1804586233576685"/>
  <path id="ID0.08818722935393453" fill="#FBB03B" stroke="#000000" stroke-width="0.48233418594417926" d="M 7.2632 17.577 C 6.7616 17.7566 6.2094 17.4961 6.0296 16.9949 L 5.6107 15.8268 C 5.4308 15.3255 5.6916 14.773 6.193 14.5933 L 7.3729 14.1698 C 7.8745 13.9903 8.4267 14.2507 8.6067 14.7522 L 9.0254 15.9201 C 9.2053 16.4213 8.9447 16.9737 8.4431 17.1536 L 7.2632 17.577 Z "/>
  <path id="ID0.8803494698368013" stroke="#1A1A1A" stroke-width="0.48233418594417926" d="M 9.763 17.4209 C 9.2561 17.6176 8.7196 17.4531 8.5648 17.0537 L 7.5492 14.4335 C 7.3946 14.0343 7.6801 13.5511 8.1872 13.3545 L 13.8995 11.4739 C 14.4062 11.2773 14.9431 11.4419 15.0977 11.8414 L 15.8888 13.8829 C 16.0434 14.2821 15.7583 14.7654 15.2508 14.9619 L 9.763 17.4209 Z "/>
  <path id="ID0.5842904108576477" d="M 37.2823 15.3512 C 37.2453 15.7774 36.8692 16.0927 36.4425 16.0555 L 33.643 15.8123 C 33.2163 15.7753 32.9005 15.3996 32.9375 14.9737 L 33.6558 10.2944 C 33.6928 9.8682 34.0687 9.5529 34.4954 9.5901 L 36.6767 9.7799 C 37.1034 9.8169 37.4196 10.1923 37.3824 10.6183 L 37.2823 15.3512 Z " stroke-width="0.24116709129633693"/>
  <path id="ID0.01732994895428419" d="M 36.9319 10.811 C 36.823 11.2249 36.3987 11.4714 35.9846 11.3624 L 33.2672 10.6468 C 32.853 10.5378 32.6056 10.1141 32.7145 9.7004 L 34.2177 5.2113 C 34.3265 4.7978 34.7506 4.5508 35.1647 4.66 L 37.282 5.2177 C 37.6962 5.3269 37.944 5.7504 37.8349 6.1641 L 36.9319 10.811 Z " stroke-width="0.24116709775791606"/>
</svg>