<svg xmlns="http://www.w3.org/2000/svg" xmlns:xlink="http://www.w3.org/1999/xlink" version="1.1" width="45.75394444996251" height="20.116899543346303" viewBox="1.0235571596317807 6.904099914758734 45.75394444996251 20.116899543346303">
  <!-- Exported by Scratch - http://scratch.mit.edu/ -->
  <path id="ID0.5989846084266901" d="M 46.2775 17.944 C 46.2598 18.3868 45.8847 18.7311 45.4409 18.7124 L 42.5314 18.5902 C 42.0876 18.5726 41.7433 18.1975 41.762 17.7546 L 42.2879 12.8761 C 42.3056 12.4343 42.6807 12.09 43.1235 12.1078 L 45.3917 12.2026 C 45.8356 12.2213 46.1798 12.5954 46.1621 13.0382 L 46.2775 17.944 Z " stroke-width="0.9999999566695714"/>
  <path id="ID0.7705372264608741" d="M 43.3119 14.9958 C 43.9897 15.126 44.4722 15.5838 44.3887 16.0206 L 43.8431 18.8815 C 43.761 19.3182 43.1435 19.5674 42.4665 19.4379 L 35.0353 17.6951 C 34.3576 17.5649 33.8751 17.1071 33.9586 16.6717 L 34.383 14.4414 C 34.4659 14.0053 35.0842 13.7568 35.7612 13.8863 L 43.3119 14.9958 Z " stroke-width="0.9999999581281012"/>
  <g id="ID0.15596213983371854">
    <path id="ID0.5848010759800673" d="M 42.9655 19.4576 C 43.6553 19.4816 44.2025 19.8621 44.1862 20.3052 L 44.0823 23.2163 C 44.067 23.6593 43.4945 23.9999 42.8048 23.976 L 35.1969 23.3833 C 34.5062 23.3594 33.9599 22.9788 33.9764 22.5367 L 34.0576 20.2679 C 34.0729 19.8249 34.6454 19.4842 35.3342 19.5083 L 42.9655 19.4576 Z " stroke-width="0.9999999383952183"/>
    <path id="ID0.8454087860882282" d="M 45.706 23.2511 C 45.7271 23.6947 45.3833 24.0694 44.9396 24.0904 L 42.0306 24.222 C 41.5868 24.242 41.2113 23.8993 41.1914 23.4565 L 41.2905 18.5507 C 41.2696 18.1081 41.6133 17.7325 42.0561 17.7126 L 44.324 17.6096 C 44.7676 17.5886 45.1431 17.9313 45.1641 18.3749 L 45.706 23.2511 Z " stroke-width="0.9999999383952183"/>
  </g>
  <g id="ID0.20980142103508115">
    <path id="ID0.15353494929149747" fill="#FBB03B" stroke="#000000" stroke-width="0.4999999447158588" d="M 2.989 23.8032 C 2.4493 23.915 1.9192 23.5688 1.8067 23.0298 L 1.5445 21.7697 C 1.4327 21.23 1.7797 20.7005 2.3186 20.5866 L 3.5912 20.3209 C 4.1316 20.2083 4.6611 20.5553 4.7736 21.0957 L 5.0371 22.3543 C 5.1476 22.8955 4.802 23.4249 4.2623 23.5367 L 2.989 23.8032 Z "/>
    <path id="ID0.7635790938511491" stroke="#1A1A1A" stroke-width="0.4999999447158588" d="M 5.5789 24.0023 C 5.0302 24.1316 4.5029 23.8858 4.4021 23.4538 L 3.7354 20.6173 C 3.6331 20.1854 3.9964 19.7308 4.5436 19.6016 L 10.6795 18.4899 C 11.2274 18.3599 11.7548 18.6071 11.8562 19.0384 L 12.3743 21.2472 C 12.4773 21.6798 12.1134 22.1352 11.5654 22.2638 L 5.5789 24.0023 Z "/>
  </g>
  <g id="ID0.7137223575264215">
    <path id="ID0.5612710667774081" fill="#FBB03B" stroke="#000000" stroke-width="0.50000962744675" d="M 11.3485 20.4893 L 11.5216 8.2912 L 21.5358 8.4333 L 21.3627 20.6313 L 11.3485 20.4893 Z "/>
    <path id="ID0.3885055026039481" fill="#78006D" stroke="#1A1A1A" stroke-width="0.4999999854417483" d="M 18.3203 17.4473 C 18.2677 21.1718 13.5238 15.8331 13.2588 13.2687 L 12.8877 7.4041 C 8.8293 7.587 5.5668 10.9039 5.5084 15.0203 L 5.489 16.4182 C 5.4284 20.6889 8.8424 24.2014 13.1135 24.2629 L 29.4171 24.4942 C 33.6879 24.5548 37.2 21.1399 37.2609 16.8701 L 37.2806 15.4732 C 37.3414 11.2002 33.9269 7.689 29.6567 7.6272 C 29.6567 7.6272 23.1682 7.3267 22.5004 7.7766 C 21.8328 8.2242 18.4618 7.4684 18.4618 7.4684 L 18.3203 17.4473 Z "/>
  </g>
  <g id="ID0.20883694617077708">
    <path id="ID0.16792826633900404" d="M 14.0939 9.6762 C 14.0322 9.4997 14.0478 9.3141 14.1235 9.1583 C 14.1981 9.0019 14.3334 8.874 14.5099 8.8123 C 14.6864 8.7505 14.872 8.7661 15.0278 8.8419 C 15.1842 8.9164 15.3121 9.0517 15.3738 9.2282 C 15.4356 9.4047 15.42 9.5903 15.3442 9.7461 C 15.2697 9.9025 15.1344 10.0304 14.9579 10.0921 C 14.7814 10.1539 14.5958 10.1383 14.44 10.0625 C 14.2836 9.988 14.1557 9.8527 14.0939 9.6762 Z " stroke-width="0.9999999708834966"/>
    <path id="ID0.08473029173910618" d="M 14.9872 12.846 C 14.9254 12.6695 14.941 12.484 15.0168 12.3282 C 15.0913 12.1718 15.2267 12.0439 15.4032 11.9821 C 15.5797 11.9204 15.7653 11.9359 15.921 12.0117 C 16.0774 12.0862 16.2053 12.2216 16.2671 12.3981 C 16.3289 12.5746 16.3133 12.7602 16.2375 12.9159 C 16.163 13.0723 16.0276 13.2002 15.8511 13.262 C 15.6746 13.3238 15.4891 13.3082 15.3333 13.2324 C 15.1769 13.1579 15.049 13.0225 14.9872 12.846 Z " stroke-width="0.9999999708834966"/>
  </g>
  <path id="ID0.9075090778060257" fill="none" stroke="#000000" d="M 16.8421 23.5737 C 16.8421 23.5737 18.6916 24.8166 20.9394 24.5715 C 22.9226 24.3566 24.3332 24.0034 24.3332 24.0034 " stroke-width="1.0000000529898565"/>
  <path id="ID0.35206371266394854" fill="none" stroke="#000000" d="M 17.1744 23.7689 C 17.1744 23.7689 17.3046 25.7067 19.5381 25.6938 C 21.5326 25.6814 21.6668 26.521 21.6668 26.521 " stroke-width="1.0000000529898565"/>
  <g id="ID0.7118512513116002">
    <path id="ID0.7296573664061725" fill="#FBB03B" stroke="#000000" stroke-width="0.4999999772188299" d="M 29.7779 12.6652 C 30.2026 12.3134 30.833 12.3723 31.186 12.7963 L 32.0058 13.7873 C 32.3605 14.2128 32.3007 14.8429 31.8748 15.1954 L 30.8739 16.0251 C 30.4492 16.3769 29.8183 16.32 29.4651 15.8928 L 28.646 14.903 C 28.2942 14.4783 28.3518 13.8486 28.778 13.4952 L 29.7779 12.6652 Z "/>
    <path id="ID0.7869536513462663" stroke="#1A1A1A" stroke-width="0.4999999772188299" d="M 27.3977 13.6998 C 27.8214 13.3281 28.403 13.3 28.6946 13.6337 L 30.6085 15.8293 C 30.8997 16.165 30.7931 16.7365 30.3687 17.107 L 25.4647 20.9559 C 25.0401 21.3274 24.4595 21.3558 24.168 21.0211 L 22.6751 19.3104 C 22.3846 18.9759 22.4912 18.4044 22.9163 18.0351 L 27.3977 13.6998 Z "/>
  </g>
</svg>