<svg xmlns="http://www.w3.org/2000/svg" xmlns:xlink="http://www.w3.org/1999/xlink" version="1.1" width="42.70552444458008" height="32.73979568481445" viewBox="1.527899980545044 2.9845051765441895 42.70552444458008 32.73979568481445">
  <!-- Exported by Scratch - http://scratch.mit.edu/ -->
  <path id="ID0.255261589307338" d="M 40.9916 24.8002 C 41.6508 24.7063 42.2344 24.9739 42.2949 25.3978 L 42.6915 28.1797 C 42.752 28.6033 42.2666 29.0236 41.6073 29.1178 L 34.2814 29.849 C 33.6221 29.9432 33.0388 29.6754 32.9783 29.2515 L 32.6693 27.084 C 32.6088 26.6601 33.0943 26.2401 33.7535 26.1459 L 40.9916 24.8002 Z " stroke-width="0.2411670989423942"/>
  <path id="ID0.03648320911452174" d="M 36.3786 28.665 C 37.0436 28.631 37.6006 28.9505 37.6224 29.3781 L 37.7656 32.1844 C 37.7874 32.6123 37.2659 32.9865 36.6007 33.0205 L 29.2388 33.085 C 28.5738 33.1189 28.0168 32.7994 27.9952 32.3718 L 27.8836 30.1849 C 27.8618 29.7573 28.3833 29.3828 29.0486 29.3491 L 36.3786 28.665 Z " stroke-width="0.24116708632554712"/>
  <path id="ID0.13261056737974286" fill="#FBB03B" stroke="#000000" stroke-width="0.4823341943824178" d="M 14.7239 12.2054 L 24.6594 5.8995 L 29.8366 14.0564 L 19.901 20.3624 L 14.7239 12.2054 Z "/>
  <path id="ID0.6617734562605619" fill="#009999" stroke="#1A1A1A" stroke-width="0.4823341943824178" d="M 20.7715 16.2707 C 17.738 18.1961 19.54 11.546 21.4695 9.9772 L 26.0063 6.5787 C 23.7141 3.3993 19.3121 2.519 15.9594 4.647 L 14.8209 5.3695 C 11.3415 7.5779 10.3114 12.1884 12.5197 15.6678 L 20.9495 28.9496 C 23.1579 32.429 27.7685 33.4594 31.2478 31.2512 L 32.3862 30.5286 C 35.8656 28.3203 36.896 23.7096 34.6876 20.2302 C 34.6876 20.2302 31.5006 14.8348 30.7861 14.5331 C 30.0712 14.2313 28.9002 11.1118 28.9002 11.1118 L 20.7716 16.2709 Z "/>
  <path id="ID0.7134617334231734" d="M 26.0478 10.4983 C 26.2001 10.4016 26.3586 10.3461 26.4912 10.3346 C 26.624 10.3229 26.7314 10.3552 26.7815 10.4342 C 26.8316 10.5132 26.8152 10.624 26.748 10.7392 C 26.6811 10.8544 26.5635 10.9741 26.4112 11.0708 C 26.2588 11.1674 26.1004 11.223 25.9677 11.2344 C 25.8349 11.2462 25.7276 11.2139 25.6775 11.1349 C 25.6274 11.0559 25.6438 10.945 25.711 10.8299 C 25.7778 10.7147 25.8955 10.595 26.0478 10.4983 Z " stroke-width="0.1920923895769329"/>
  <path id="ID0.6494691404514015" d="M 23.2472 12.2076 C 23.3995 12.1109 23.5579 12.0554 23.6906 12.0439 C 23.8234 12.0322 23.9307 12.0645 23.9809 12.1435 C 24.031 12.2224 24.0145 12.3333 23.9474 12.4485 C 23.8805 12.5637 23.7628 12.6834 23.6105 12.78 C 23.4582 12.8767 23.2998 12.9322 23.1671 12.9437 C 23.0343 12.9554 22.927 12.9231 22.8768 12.8442 C 22.8267 12.7652 22.8432 12.6543 22.9103 12.5391 C 22.9772 12.424 23.0949 12.3043 23.2472 12.2076 Z " stroke-width="0.1920923895769329"/>
  <path id="ID0.3106537782587111" fill="none" stroke="#000000" stroke-width="0.48233418545339" d="M 14.0573 17.3347 C 14.0573 17.3347 13.3661 19.3688 14.1576 21.4013 C 14.8559 23.1943 15.5401 24.4188 15.5401 24.4188 "/>
  <path id="ID0.4428880806080997" fill="none" stroke="#000000" stroke-width="0.48233418545339" d="M 13.9595 17.6932 C 13.9595 17.6932 12.1874 18.301 12.7614 20.3774 C 13.2739 22.232 12.5257 22.5686 12.5257 22.5686 "/>
  <path id="ID0.08818722935393453" fill="#FBB03B" stroke="#000000" stroke-width="0.4823342057634294" d="M 17.5077 32.8716 C 17.2432 33.334 16.6542 33.495 16.1917 33.231 L 15.1142 32.6156 C 14.6517 32.3515 14.4907 31.7621 14.755 31.2996 L 15.3764 30.2109 C 15.6409 29.7485 16.2298 29.5875 16.6926 29.8515 L 17.7699 30.467 C 18.2324 30.731 18.3934 31.3202 18.1291 31.7829 L 17.5077 32.8716 Z "/>
  <path id="ID0.2511214418336749" fill="#FFFFFF" stroke="#7F7F7F" stroke-width="0.999999987450277" stroke-linecap="round" d="M 16.1522 21.145 L 11.4247 28.2931 L 16.9513 34.3709 L 9.1101 31.4384 L 2.827 35.2243 L 6.4338 28.5947 L 2.0279 21.9984 L 8.5366 25.2618 L 16.1522 21.145 Z "/>
  <path id="ID0.8803494698368013" stroke="#1A1A1A" stroke-width="0.4823342057634294" d="M 19.3059 31.1281 C 19.0485 31.6071 18.5339 31.8307 18.1567 31.6278 L 15.6818 30.2967 C 15.3048 30.0938 15.2077 29.5411 15.4653 29.0621 L 18.584 23.92 C 18.8414 23.4413 19.3563 23.2174 19.7334 23.4205 L 21.6616 24.4578 C 22.0386 24.6607 22.136 25.2132 21.8781 25.6924 L 19.3059 31.1281 Z "/>
  <path id="ID0.5842904108576477" d="M 39.3295 32.0828 C 39.3858 32.5068 39.0869 32.8962 38.6623 32.9523 L 35.8767 33.322 C 35.4522 33.3784 35.0625 33.0801 35.0062 32.6563 L 34.6927 27.9325 C 34.6364 27.5085 34.935 27.1192 35.3596 27.063 L 37.5302 26.7753 C 37.9547 26.7189 38.3449 27.0168 38.4009 27.4407 L 39.3295 32.0828 Z " stroke-width="0.24116708632554712"/>
  <path id="ID0.01732994895428419" d="M 43.3824 28.9435 C 43.3235 29.3675 42.9317 29.6627 42.5075 29.6038 L 39.7242 29.2167 C 39.3 29.1577 39.004 28.7666 39.0629 28.3428 L 40.021 23.7067 C 40.0799 23.2832 40.4715 22.9875 40.8957 23.0466 L 43.0644 23.3484 C 43.4885 23.4075 43.7851 23.7985 43.7259 24.2222 L 43.3824 28.9435 Z " stroke-width="0.2411670989423942"/>
</svg>