<svg xmlns="http://www.w3.org/2000/svg" xmlns:xlink="http://www.w3.org/1999/xlink" version="1.1" width="75.97210693359375" height="107.41567993164062" viewBox="3.6559953689575195 10.615256309509277 75.97210693359375 107.41567993164062">
  <!-- Exported by Scratch - http://scratch.mit.edu/ -->
  <path id="ID0.13261056737974286" fill="#FBB03B" stroke="#000000" stroke-width="0.8525621669463762" d="M 53.4799 63.3076 L 74.2529 62.2395 L 75.1297 79.2938 L 54.3568 80.3619 L 53.4799 63.3076 Z "/>
  <path id="ID0.6617734562605619" stroke="#1A1A1A" stroke-width="0.8525621669463762" d="M 59.4072 74.9084 C 53.0649 75.2344 61.6192 66.5664 65.9526 65.8292 L 75.8892 64.5428 C 75.1254 57.6569 69.1158 52.4754 62.1059 52.8358 L 59.7257 52.9582 C 52.451 53.3322 46.8576 59.5324 47.2316 66.8071 L 48.6593 94.5763 C 49.0333 101.851 55.2336 107.4449 62.5078 107.0709 L 64.888 106.9485 C 72.1627 106.5745 77.7566 100.3742 77.3826 93.0995 C 77.3826 93.0995 77.1679 82.0254 76.3305 80.9399 C 75.4927 79.854 76.4024 74.035 76.4024 74.035 L 59.4073 74.9088 Z "/>
  <path id="ID0.03648320911452174" d="M 58.4193 113.5857 C 58.2378 114.7486 57.4837 115.5969 56.736 115.4801 L 51.8286 114.7136 C 51.0805 114.5968 50.6214 113.5593 50.803 112.3959 L 53.3517 99.6348 C 53.5333 98.4719 54.2874 97.6236 55.0351 97.7408 L 58.8593 98.338 C 59.607 98.4548 60.0665 99.4924 59.8845 100.6557 L 58.4193 113.5857 Z " stroke-width="0.4262810945510864"/>
  <path id="ID0.5842904108576477" d="M 51.4394 117.4563 C 50.6853 117.4005 50.1197 116.7427 50.1759 115.9878 L 50.543 111.0344 C 50.5988 110.2794 51.2557 109.7129 52.0094 109.7688 L 60.2958 110.9334 C 61.0499 110.9892 61.6156 111.6465 61.5593 112.4015 L 61.2729 116.261 C 61.217 117.016 60.5606 117.5833 59.8069 117.5271 L 51.4394 117.4563 Z " stroke-width="0.4262810945510864"/>
  <path id="ID0.01732994895428419" d="M 65.3063 117.4563 C 64.5518 117.4005 63.9866 116.7427 64.0424 115.9878 L 64.4099 111.0344 C 64.4657 110.2794 65.1222 109.7129 65.8763 109.7688 L 74.1628 110.9334 C 74.9164 110.9892 75.4825 111.6465 75.4263 112.4015 L 75.1398 116.261 C 75.0835 117.016 74.4275 117.5833 73.6734 117.5271 L 65.3063 117.4563 Z " stroke-width="0.4262810945510864"/>
  <path id="ID0.255261589307338" d="M 72.3438 112.7694 C 72.5842 113.9216 72.1784 114.9813 71.4375 115.1361 L 66.5754 116.151 C 65.8349 116.3058 65.0386 115.4971 64.7978 114.3449 L 62.6775 101.5053 C 62.4366 100.3531 62.8429 99.2938 63.5837 99.139 L 67.3721 98.3483 C 68.113 98.1935 68.9088 99.0022 69.1497 100.1544 L 72.3438 112.7694 Z " stroke-width="0.4262810945510864"/>
  <path id="ID0.8436069656163454" fill="#FFF05D" stroke="#000000" stroke-width="0.9937884893959547" d="M 63.3659 79.6624 C 60.1776 82.3679 60.659 79.0256 57.5363 75.8521 L 39.9917 55.6576 L 7.4391 25.6082 C 3.3135 22.0951 2.9442 16.5577 7.0834 13.0597 C 11.2237 9.5592 16.3305 11.0321 19.3963 15.5039 L 43.0302 53.0901 L 59.9476 73.7881 C 62.5232 77.1747 65.8354 77.5732 63.3659 79.6624 Z "/>
  <g id="ID0.13109061866998672">
    <path id="ID0.3106537782587111" fill="none" stroke="#000000" stroke-width="0.8525621676499434" d="M 47.7806 72.2715 C 47.7806 72.2715 44.9692 74.824 44.4515 78.6444 C 43.9947 82.0148 44.0033 84.4942 44.0033 84.4942 "/>
    <path id="ID0.4428880806080997" fill="none" stroke="#000000" stroke-width="0.8525621676499434" d="M 47.3222 72.7419 C 47.3222 72.7419 44.0618 72.1632 43.1701 75.8652 C 42.3736 79.1715 40.9283 79.051 40.9283 79.051 "/>
  </g>
  <g id="ID0.5392367267049849">
    <path id="ID0.08818722935393453" fill="#FBB03B" stroke="#000000" stroke-width="0.8525621866062536" d="M 41.9588 57.4946 C 41.6947 56.5907 42.2123 55.6437 43.1156 55.3791 L 45.2207 54.7628 C 46.1241 54.4981 47.0716 55.0163 47.336 55.9199 L 47.9591 58.0463 C 48.2231 58.9502 47.7055 59.8972 46.8019 60.1621 L 44.6971 60.7781 C 43.7938 61.0428 42.8465 60.5249 42.5819 59.621 L 41.9588 57.4946 Z "/>
    <path id="ID0.8803494698368013" stroke="#1A1A1A" stroke-width="0.8525621866062536" d="M 41.9715 61.9218 C 41.6777 61.0067 42.0244 60.0774 42.7454 59.8463 L 47.4753 58.3297 C 48.1959 58.0989 49.0185 58.6534 49.312 59.5688 L 52.0299 69.8455 C 52.3234 70.7603 51.9767 71.6902 51.2555 71.921 L 47.5701 73.1023 C 46.8495 73.3331 46.0268 72.7792 45.7334 71.8632 L 41.9715 61.9218 Z "/>
  </g>
  <g id="ID0.9075732929632068">
    <path id="ID0.7134617334231734" d="M 72.3686 70.2386 C 72.6871 70.2222 72.9823 70.3368 73.2017 70.5351 C 73.4215 70.733 73.5657 71.015 73.5821 71.3334 C 73.5985 71.6518 73.4839 71.9471 73.2856 72.1665 C 73.0877 72.3862 72.8057 72.5305 72.4873 72.5469 C 72.1689 72.5632 71.8736 72.4487 71.6542 72.2504 C 71.4345 72.0525 71.2902 71.7705 71.2738 71.4521 C 71.2575 71.1336 71.372 70.8383 71.5703 70.619 C 71.7682 70.3992 72.0502 70.255 72.3686 70.2386 Z " stroke-width="0.4262810779141925"/>
    <path id="ID0.6494691404514015" d="M 66.4086 70.545 C 66.727 70.5287 67.0223 70.6433 67.2416 70.8416 C 67.4614 71.0394 67.6056 71.3214 67.622 71.6398 C 67.6384 71.9583 67.5238 72.2536 67.3255 72.4729 C 67.1277 72.6927 66.8457 72.8369 66.5272 72.8533 C 66.2088 72.8697 65.9135 72.7551 65.6942 72.5568 C 65.4744 72.3589 65.3301 72.0769 65.3138 71.7585 C 65.2974 71.4401 65.412 71.1448 65.6103 70.9254 C 65.8081 70.7057 66.0901 70.5614 66.4086 70.545 Z " stroke-width="0.4262810779141925"/>
  </g>
  <g id="ID0.5818626643158495">
    <path id="ID0.41889808466657996" stroke="#1A1A1A" stroke-width="0.852562245873786" d="M 65.5261 82.4342 C 64.6133 82.1337 64.0653 81.307 64.302 80.588 L 65.8564 75.8706 C 66.0937 75.1515 67.0258 74.8126 67.9386 75.1131 L 77.8493 78.9561 C 78.7619 79.2569 79.3099 80.0842 79.0729 80.8029 L 77.8617 84.4791 C 77.6247 85.1979 76.693 85.5377 75.7795 85.2366 L 65.5261 82.4342 Z "/>
    <path id="ID0.9573684432543814" fill="#FBB03B" stroke="#000000" stroke-width="0.852562245873786" d="M 61.9372 79.8418 C 61.0509 79.5245 60.5893 78.5484 60.9062 77.6619 L 61.6453 75.5969 C 61.9622 74.7104 62.9386 74.2484 63.8254 74.5656 L 65.9122 75.3123 C 66.7988 75.6292 67.2601 76.6056 66.9432 77.4922 L 66.2042 79.5571 C 65.8869 80.4434 64.9111 80.9053 64.0243 80.5881 L 61.9372 79.8418 Z "/>
  </g>
</svg>