<svg xmlns="http://www.w3.org/2000/svg" xmlns:xlink="http://www.w3.org/1999/xlink" version="1.1" width="52.95008850097656" height="69.54296875" viewBox="-0.066001296043396 0.4343986511230469 52.95008850097656 69.54296875">
  <!-- Exported by Scratch - http://scratch.mit.edu/ -->
  <g id="ID0.6546216779388487">
    <path id="ID0.9571989816613495" fill="none" stroke="#000000" stroke-width="0.8687034845352173" d="M 13.4467 17.4406 C 13.4467 17.4406 10.2702 19.6501 9.2443 23.4425 C 8.34 26.7878 8.0225 29.2945 8.0225 29.2945 "/>
    <path id="ID0.15386404702439904" fill="none" stroke="#000000" stroke-width="0.8687034845352173" d="M 12.9211 17.8563 C 12.9211 17.8563 9.7034 16.8429 8.3152 20.4663 C 7.0756 23.7022 5.6314 23.3903 5.6314 23.3903 "/>
    <path id="ID0.07008709199726582" fill="#FBB03B" stroke="#000000" stroke-width="0.8687034845352173" d="M 50.0473 26.4877 C 50.9951 26.3426 51.8816 26.9946 52.0267 27.9428 L 52.3641 30.1519 C 52.5083 31.1001 51.8568 31.987 50.9082 32.1321 L 48.6761 32.4726 C 47.7274 32.6177 46.8409 31.9662 46.6959 31.0176 L 46.3592 28.8084 C 46.2142 27.8598 46.8657 26.9742 47.8143 26.8287 L 50.0473 26.4877 Z "/>
    <path id="ID0.6664769016206264" stroke="#1A1A1A" stroke-width="0.8687034845352173" d="M 45.5739 25.9005 C 46.5377 25.7276 47.429 26.2036 47.5659 26.9629 L 48.4558 31.9449 C 48.5918 32.7041 47.9199 33.4595 46.956 33.6315 L 36.2093 34.9841 C 35.2455 35.1561 34.3542 34.6796 34.2191 33.9208 L 33.5241 30.0385 C 33.3891 29.2797 34.0601 28.5239 35.0248 28.3515 L 45.5739 25.9005 Z "/>
    <path id="ID0.028991148341447115" fill="#FBB03B" stroke="#000000" stroke-width="0.8687034845352173" d="M 19.958 11.139 L 41.1522 11.139 L 41.1522 28.5391 L 19.958 28.5391 L 19.958 11.139 Z "/>
    <path id="ID0.934041952714324" stroke="#1A1A1A" stroke-width="0.8687034845352173" d="M 25.3826 23.254 C 18.9117 23.254 28.07 14.881 32.5182 14.3576 L 42.6968 13.5683 C 42.2798 6.5214 36.4356 0.9344 29.2831 0.9344 L 26.8551 0.9344 C 19.4329 0.9344 13.4167 6.951 13.4167 14.3732 L 13.4167 42.7055 C 13.4167 50.1277 19.4333 56.1444 26.8551 56.1444 L 29.2831 56.1444 C 36.7053 56.1444 42.7224 50.1277 42.7224 42.7055 C 42.7224 42.7055 43.0829 31.4254 42.2881 30.277 C 41.4923 29.1281 42.7224 23.2544 42.7224 23.2544 L 25.3826 23.2544 Z "/>
    <path id="ID0.4870021608658135" d="M 38.7446 19.5068 C 39.0695 19.5068 39.364 19.6388 39.5768 19.8521 C 39.7901 20.0649 39.9221 20.3594 39.9221 20.6843 C 39.9221 21.0092 39.7901 21.3037 39.5768 21.5165 C 39.364 21.7298 39.0695 21.8619 38.7446 21.8619 C 38.4197 21.8619 38.1252 21.7298 37.9124 21.5165 C 37.6991 21.3037 37.5671 21.0092 37.5671 20.6843 C 37.5671 20.3594 37.6991 20.0649 37.9124 19.8521 C 38.1252 19.6388 38.4197 19.5068 38.7446 19.5068 Z " stroke-width="0.43435174226760864"/>
    <path id="ID0.4437686442397535" d="M 32.6637 19.5068 C 32.9886 19.5068 33.2831 19.6388 33.4959 19.8521 C 33.7092 20.0649 33.8412 20.3594 33.8412 20.6843 C 33.8412 21.0092 33.7092 21.3037 33.4959 21.5165 C 33.2831 21.7298 32.9886 21.8619 32.6637 21.8619 C 32.3388 21.8619 32.0443 21.7298 31.8315 21.5165 C 31.6182 21.3037 31.4862 21.0092 31.4862 20.6843 C 31.4862 20.3594 31.6182 20.0649 31.8315 19.8521 C 32.0443 19.6388 32.3388 19.5068 32.6637 19.5068 Z " stroke-width="0.43435174226760864"/>
    <path id="ID0.3687892844900489" d="M 18.4717 65.1215 C 17.9387 66.1961 16.9462 66.789 16.2552 66.4463 L 11.7214 64.1972 C 11.0308 63.8545 10.9027 62.7053 11.4356 61.6307 L 17.8245 50.0118 C 18.3574 48.9372 19.3499 48.3443 20.0406 48.687 L 23.5736 50.4396 C 24.2646 50.7823 24.3928 51.9316 23.8598 53.0062 L 18.4717 65.1215 Z " stroke-width="0.43435174226760864"/>
    <path id="ID0.49555545253679156" fill="#FBB03B" stroke="#000000" stroke-width="0.8687034845352173" d="M 1.532 27.7747 C 0.6402 27.4216 0.2033 26.4117 0.5564 25.52 L 1.3795 23.442 C 1.7326 22.5503 2.7421 22.1129 3.6342 22.466 L 5.7339 23.2974 C 6.6256 23.6505 7.0626 24.6604 6.7094 25.553 L 5.8863 27.6305 C 5.5332 28.5222 4.5238 28.9596 3.6316 28.606 L 1.532 27.7747 Z "/>
    <path id="ID0.2625341503880918" stroke="#1A1A1A" stroke-width="0.8687034845352173" d="M 5.0984 30.5372 C 4.1789 30.2005 3.6494 29.3401 3.9148 28.6156 L 5.6583 23.8646 C 5.9246 23.1406 6.8849 22.827 7.8044 23.1645 L 17.7667 27.4155 C 18.6854 27.753 19.2157 28.6143 18.9495 29.3379 L 17.5912 33.0403 C 17.3259 33.7644 16.3646 34.0784 15.4451 33.7405 L 5.0984 30.5372 Z "/>
    <path id="ID0.8204577909782529" d="M 10.5031 66.7434 C 9.7877 66.458 9.4398 65.6454 9.7256 64.9291 L 11.6011 60.2286 C 11.8865 59.5123 12.6978 59.1627 13.4141 59.448 L 21.1095 63.1201 C 21.8244 63.4054 22.1728 64.2177 21.8874 64.9343 L 20.4258 68.5968 C 20.14 69.313 19.3282 69.6636 18.6124 69.3778 L 10.5031 66.7434 Z " stroke-width="0.43435174226760864"/>
    <path id="ID0.699897791724652" d="M 44.1488 62.4021 C 43.522 62.849 42.6499 62.7013 42.2029 62.0733 L 39.2667 57.9508 C 38.8189 57.3228 38.9657 56.451 39.5925 56.0041 L 46.8474 51.5237 C 47.4742 51.0768 48.3455 51.224 48.7933 51.8525 L 51.0806 55.0646 C 51.5285 55.6926 51.3825 56.5648 50.7549 57.0113 L 44.1488 62.4021 Z " stroke-width="0.43435174226760864"/>
    <path id="ID0.15630904771387577" d="M 46.6155 54.1472 C 47.5537 54.8939 47.9255 55.9884 47.4451 56.5922 L 44.2943 60.5526 C 43.8144 61.1564 42.6638 61.0404 41.7247 60.2937 L 31.7068 51.608 C 30.7677 50.8618 30.3959 49.7668 30.8763 49.163 L 33.3322 46.0774 C 33.8121 45.4736 34.9627 45.5896 35.9009 46.3367 L 46.6155 54.1472 Z " stroke-width="0.43435174226760864"/>
  </g>
</svg>