<svg xmlns="http://www.w3.org/2000/svg" xmlns:xlink="http://www.w3.org/1999/xlink" version="1.1" width="104.01053619384766" height="68.2285385131836" viewBox="2.1256353855133057 3.7488298416137695 104.01053619384766 68.2285385131836">
  <!-- Exported by Scratch - http://scratch.mit.edu/ -->
  <g id="ID0.6949673551134765">
    <path id="ID0.07008709199726582" fill="#FBB03B" stroke="#000000" stroke-width="0.8687035052244466" d="M 42.5323 51.8636 C 42.8678 52.7618 42.4106 53.7627 41.512 54.0983 L 39.4183 54.8797 C 38.5195 55.2144 37.5182 54.7577 37.1825 53.8587 L 36.3935 51.7431 C 36.0578 50.844 36.5146 49.8432 37.4137 49.5075 L 39.5075 48.727 C 40.4066 48.3913 41.4066 48.8483 41.7427 49.7473 L 42.5323 51.8636 Z "/>
    <path id="ID0.6664769016206264" stroke="#1A1A1A" stroke-width="0.8687035052244466" d="M 42.194 47.3646 C 42.56 48.2728 42.2759 49.2425 41.5606 49.5314 L 36.8652 51.4197 C 36.1496 51.7078 35.273 51.2042 34.9079 50.2958 L 31.3899 40.0515 C 31.0248 39.1431 31.3092 38.1733 32.0245 37.8862 L 35.6831 36.4133 C 36.3984 36.1262 37.2752 36.6288 37.641 37.538 L 42.194 47.3646 Z "/>
  </g>
  <path id="ID0.9571989816613495" fill="none" stroke="#000000" stroke-width="0.8687034778963177" d="M 13.6131 16.3367 C 13.6131 16.3367 9.8991 17.4217 7.7207 20.6911 C 5.7997 23.5754 4.7017 25.851 4.7017 25.851 "/>
  <path id="ID0.15386404702439904" fill="none" stroke="#000000" stroke-width="0.8687034985598714" d="M 12.7997 16.4624 C 12.7997 16.4624 10.4924 14.0014 7.5058 16.4784 C 4.8386 18.6907 3.7328 17.7106 3.7328 17.7106 "/>
  <path id="ID0.028991148341447115" fill="#FBB03B" stroke="#000000" stroke-width="0.8687034778963177" d="M 21.7901 12.4322 L 41.8846 19.1704 L 36.3527 35.6677 L 16.2581 28.9295 L 21.7901 12.4322 Z "/>
  <path id="ID0.934041952714324" stroke="#1A1A1A" stroke-width="0.8687034778963177" d="M 23.0816 25.6432 C 16.9464 23.5859 28.2915 18.559 32.6753 19.4769 L 42.5767 21.9647 C 44.4218 15.1509 40.6571 7.9956 33.8757 5.7217 L 31.5736 4.9498 C 24.5365 2.59 16.9196 6.3818 14.5599 13.4189 L 5.5523 40.2812 C 3.1926 47.3183 6.9842 54.9356 14.0209 57.2952 L 16.323 58.0672 C 23.3601 60.4269 30.9778 56.6354 33.3375 49.5983 C 33.3375 49.5983 37.2656 39.018 36.8771 37.6765 C 36.4879 36.3343 39.5216 31.1564 39.5216 31.1564 L 23.0815 25.6436 Z "/>
  <path id="ID0.3687892844900489" d="M 11.4717 67.1215 C 10.9387 68.1961 9.9462 68.789 9.2552 68.4463 L 4.7214 66.1972 C 4.0308 65.8545 3.9027 64.7053 4.4356 63.6307 L 10.8245 52.0118 C 11.3574 50.9372 12.3499 50.3443 13.0406 50.687 L 16.5736 52.4396 C 17.2646 52.7823 17.3928 53.9316 16.8598 55.0062 L 11.4717 67.1215 Z " stroke-width="0.43435174226760864"/>
  <path id="ID0.8204577909782529" d="M 3.5031 68.7434 C 2.7877 68.458 2.4398 67.6454 2.7256 66.9291 L 4.6011 62.2286 C 4.8865 61.5123 5.6978 61.1627 6.4141 61.448 L 14.1095 65.1201 C 14.8244 65.4054 15.1728 66.2177 14.8874 66.9343 L 13.4258 70.5968 C 13.14 71.313 12.3282 71.6636 11.6124 71.3778 L 3.5031 68.7434 Z " stroke-width="0.43435174226760864"/>
  <path id="ID0.699897791724652" d="M 35.3988 67.1521 C 34.772 67.599 33.8999 67.4513 33.4529 66.8233 L 30.5167 62.7008 C 30.0689 62.0728 30.2157 61.201 30.8425 60.7541 L 38.0974 56.2737 C 38.7242 55.8268 39.5955 55.974 40.0433 56.6025 L 42.3306 59.8146 C 42.7785 60.4426 42.6325 61.3148 42.0049 61.7613 L 35.3988 67.1521 Z " stroke-width="0.43435174226760864"/>
  <path id="ID0.15630904771387577" d="M 37.8655 58.8972 C 38.8037 59.6439 39.1755 60.7384 38.6951 61.3422 L 35.5443 65.3026 C 35.0644 65.9064 33.9138 65.7904 32.9747 65.0437 L 22.9568 56.358 C 22.0177 55.6118 21.6459 54.5168 22.1263 53.913 L 24.5822 50.8274 C 25.0621 50.2236 26.2127 50.3396 27.1509 51.0867 L 37.8655 58.8972 Z " stroke-width="0.43435174226760864"/>
  <path id="ID0.8436069656163454" fill="#FFF05D" stroke="#000000" stroke-width="0.9937885594857101" d="M 19.5688 49.1035 C 20.2709 44.9813 22.0514 47.8506 26.4835 48.2731 L 52.9056 52.4574 L 97.1582 54.5388 C 102.5769 54.5764 106.4204 58.5797 105.4997 63.9203 C 104.5797 69.2634 99.7216 71.4192 94.4982 69.9658 L 52.2294 56.3776 L 25.9641 51.4043 C 21.8139 50.4668 19.021 52.2915 19.5688 49.1035 Z "/>
  <g id="ID0.10322497086599469">
    <path id="ID0.2625341503880918" stroke="#1A1A1A" stroke-width="0.8687034805629354" d="M 25.1854 43.8276 C 25.572 44.7273 25.3098 45.703 24.6009 46.0074 L 19.9495 48.0015 C 19.2403 48.305 18.3529 47.822 17.967 46.9217 L 14.2184 36.7597 C 13.8331 35.8601 14.0952 34.8832 14.8042 34.58 L 18.4286 33.0256 C 19.1373 32.7215 20.0255 33.2048 20.4111 34.1054 L 25.1854 43.8276 Z "/>
    <path id="ID0.49555545253679156" fill="#FBB03B" stroke="#000000" stroke-width="0.8687034805629354" d="M 25.6254 48.3173 C 25.9808 49.2081 25.5466 50.2191 24.6558 50.5746 L 22.5798 51.4027 C 21.689 51.7581 20.678 51.3245 20.3222 50.4334 L 19.4852 48.336 C 19.1297 47.4452 19.564 46.4341 20.4555 46.0781 L 22.5311 45.2503 C 23.4219 44.8948 24.4329 45.3285 24.7883 46.2199 L 25.6254 48.3173 Z "/>
  </g>
  <g id="ID0.17131940321996808">
    <path id="ID0.4870021608658135" d="M 36.8735 26.0698 C 37.1816 26.1731 37.4188 26.3919 37.5528 26.6618 C 37.6873 26.9314 37.7189 27.2526 37.6156 27.5606 C 37.5123 27.8687 37.2935 28.1059 37.0236 28.2399 C 36.754 28.3744 36.4328 28.406 36.1248 28.3027 C 35.8167 28.1994 35.5795 27.9806 35.4455 27.7107 C 35.311 27.4411 35.2794 27.1199 35.3827 26.8119 C 35.486 26.5038 35.7048 26.2666 35.9747 26.1326 C 36.2443 25.9981 36.5655 25.9665 36.8735 26.0698 Z " stroke-width="0.4343517317104669"/>
    <path id="ID0.4437686442397535" d="M 31.1081 24.1365 C 31.4161 24.2398 31.6534 24.4586 31.7874 24.7285 C 31.9219 24.9981 31.9535 25.3193 31.8502 25.6273 C 31.7469 25.9354 31.5281 26.1726 31.2582 26.3066 C 30.9886 26.4411 30.6674 26.4727 30.3594 26.3694 C 30.0513 26.2661 29.8141 26.0473 29.6801 25.7774 C 29.5456 25.5078 29.514 25.1866 29.6173 24.8786 C 29.7206 24.5706 29.9394 24.3333 30.2093 24.1993 C 30.4789 24.0648 30.8001 24.0332 31.1081 24.1365 Z " stroke-width="0.4343517317104669"/>
  </g>
</svg>