<svg xmlns="http://www.w3.org/2000/svg" xmlns:xlink="http://www.w3.org/1999/xlink" version="1.1" width="67.15154266357422" height="64.82725524902344" viewBox="2.453200101852417 0.203682541847229 67.15154266357422 64.82725524902344">
  <!-- Exported by Scratch - http://scratch.mit.edu/ -->
  <path id="ID0.1541289514862001" fill="none" stroke="#FFFFFF" stroke-width="1" stroke-linecap="round" d="M 68.75 8.65 C 68.75 8.65 67.972 16.406 66.6 20 C 63.068 29.796 54.1 48.65 54.1 48.65 "/>
  <path id="ID0.1541289514862001" fill="none" stroke="#FFFFFF" stroke-width="1" stroke-linecap="round" d="M 67.5 12.25 C 67.5 12.25 65.495 20.272 64.3 24.25 C 63.462 27.136 61.4 32.85 61.4 32.85 "/>
  <g id="ID0.00008977344259619713">
    <path id="ID0.9573684432543814" fill="#FBB03B" stroke="#000000" stroke-width="0.8525621856006971" d="M 24.7159 7.4291 C 24.7414 6.4882 25.5252 5.7455 26.4663 5.7706 L 28.6588 5.8298 C 29.5999 5.8549 30.343 6.6389 30.3177 7.5804 L 30.2581 9.7959 C 30.233 10.7371 29.4488 11.4796 28.5077 11.4545 L 26.3152 11.3953 C 25.3743 11.3698 24.6314 10.5864 24.6567 9.6449 L 24.7159 7.4291 Z "/>
    <path id="ID0.41889808466657996" stroke="#1A1A1A" stroke-width="0.8525621856006971" d="M 23.3701 11.5969 C 23.3713 10.6359 23.9862 9.8577 24.7432 9.8587 L 29.7101 9.8667 C 30.4673 9.8683 31.0797 10.6485 31.0784 11.6095 L 30.5129 22.2242 C 30.5113 23.185 29.8958 23.9635 29.139 23.9621 L 25.2684 23.956 C 24.5116 23.9546 23.8985 23.175 23.9001 22.2132 L 23.3701 11.5969 Z "/>
  </g>
  <path id="ID0.13261056737974286" fill="#FBB03B" stroke="#000000" stroke-width="0.8525621994513511" d="M 14.2159 43.9811 L 11.1282 23.4112 L 28.0158 20.8762 L 31.1035 41.4462 L 14.2159 43.9811 Z "/>
  <path id="ID0.6617734562605619" stroke="#1A1A1A" stroke-width="0.8525621994513511" d="M 25.7509 40.259 C 26.6988 46.8809 18.6389 39.1247 16.7596 36.5006 L 13.2624 23.2533 C 12.0976 18.8391 7.0992 24.9164 5.2636 27.2559 C 3.3228 29.7383 3.5709 33.2866 2.9532 36.4169 L 3.307 38.7739 C 4.3883 45.9774 11.1042 50.9399 18.3078 49.8586 L 45.8056 45.731 C 53.0092 44.6497 57.9721 37.9337 56.8909 30.7306 L 56.5371 28.3736 C 55.4558 21.17 48.7398 16.2071 41.5362 17.2885 C 41.5362 17.2885 30.5358 18.5815 29.537 19.5207 C 28.5379 20.4603 23.0925 17.8879 22.658 20.1222 L 25.7509 40.259 Z "/>
  <path id="ID0.7134617334231734" d="M 19.7002 27.6284 C 19.6529 27.3131 19.7382 27.008 19.9141 26.7704 C 20.0896 26.5324 20.3562 26.3613 20.6715 26.314 C 20.9869 26.2667 21.2919 26.3519 21.5295 26.5279 C 21.7675 26.7034 21.9386 26.97 21.9859 27.2853 C 22.0333 27.6006 21.948 27.9057 21.772 28.1433 C 21.5965 28.3813 21.33 28.5523 21.0146 28.5997 C 20.6993 28.647 20.3942 28.5618 20.1566 28.3858 C 19.9186 28.2103 19.7476 27.9437 19.7002 27.6284 Z " stroke-width="0.42628109972567557"/>
  <path id="ID0.6494691404514015" d="M 20.5861 33.5302 C 20.5388 33.2149 20.6241 32.9098 20.8 32.6722 C 20.9755 32.4342 21.2421 32.2631 21.5574 32.2158 C 21.8728 32.1685 22.1778 32.2537 22.4154 32.4297 C 22.6534 32.6052 22.8245 32.8718 22.8718 33.1871 C 22.9192 33.5024 22.8339 33.8075 22.6579 34.0451 C 22.4824 34.2831 22.2159 34.4542 21.9005 34.5015 C 21.5852 34.5488 21.2802 34.4636 21.0425 34.2876 C 20.8045 34.1121 20.6335 33.8455 20.5861 33.5302 Z " stroke-width="0.42628109972567557"/>
  <path id="ID0.3106537782587111" fill="none" stroke="#000000" stroke-width="0.8525621994513511" d="M 21.4134 48.0945 C 21.4134 48.0945 20.6471 51.8136 22.4808 55.2049 C 24.0985 58.1968 25.5669 60.1946 25.5669 60.1946 "/>
  <path id="ID0.4428880806080997" fill="none" stroke="#000000" stroke-width="0.8525621994513511" d="M 21.3205 48.7447 C 21.3205 48.7447 18.3456 50.1991 19.8075 53.7152 C 21.1129 56.8556 19.8744 57.6101 19.8744 57.6101 "/>
  <path id="ID0.03648320911452174" d="M 45.0461 59.138 C 44.3988 60.5027 43.3372 61.3005 42.6761 60.92 L 38.3364 58.4225 C 37.6748 58.0418 37.6635 56.6267 38.3109 55.2615 L 45.9413 40.4629 C 46.5886 39.0982 47.6502 38.3003 48.3112 38.6814 L 51.693 40.6276 C 52.3542 41.0082 52.3659 42.4234 51.7181 43.7884 L 45.0461 59.138 Z " stroke-width="0.49189230683295115"/>
  <path id="ID0.08818722935393453" fill="#FBB03B" stroke="#000000" stroke-width="0.8525622310198248" d="M 18.1753 63.6958 C 17.6587 64.4831 16.6023 64.7035 15.8149 64.1878 L 13.9802 62.9856 C 13.1928 62.4698 12.9724 61.4126 13.4886 60.6252 L 14.7026 58.7715 C 15.2192 57.9842 16.2756 57.7638 17.0634 58.2796 L 18.8977 59.4817 C 19.6851 59.9975 19.9055 61.0543 19.3893 61.8421 L 18.1753 63.6958 Z "/>
  <path id="ID0.8803494698368013" stroke="#1A1A1A" stroke-width="0.8525622310198248" d="M 21.5362 60.814 C 21.0304 61.6313 20.0983 61.9703 19.4547 61.5716 L 15.2321 58.9558 C 14.589 58.5572 14.4773 57.5714 14.9835 56.7542 L 21.0411 48.0191 C 21.5468 47.2022 22.4795 46.8628 23.123 47.262 L 26.4128 49.3002 C 27.0559 49.6989 27.1681 50.6843 26.6614 51.5019 L 21.5362 60.814 Z "/>
  <path id="ID0.5842904108576477" d="M 37.0998 64.4563 C 36.5018 64.4005 36.0532 63.7427 36.0979 62.9878 L 36.3889 58.0344 C 36.4332 57.2794 36.9541 56.7129 37.5517 56.7688 L 44.1225 57.9334 C 44.7204 57.9892 45.169 58.6465 45.1244 59.4015 L 44.8972 63.261 C 44.8529 64.016 44.3324 64.5833 43.7348 64.5271 L 37.0998 64.4563 Z " stroke-width="0.3846903112839989"/>
  <path id="ID0.01732994895428419" d="M 69.0141 5.8928 C 69.2717 6.355 68.9614 7.0562 68.322 7.4595 L 64.1264 10.105 C 63.487 10.5082 62.7602 10.4606 62.5027 9.9987 L 60.1239 4.6051 C 59.8666 4.1434 60.1762 3.4419 60.8158 3.0389 L 64.085 0.9777 C 64.7245 0.5746 65.4519 0.6215 65.709 1.0837 L 69.0141 5.8928 Z " stroke-width="0.3674833197621608"/>
  <path id="ID0.255261589307338" d="M 60.0636 7.1163 C 60.8956 5.7739 62.1373 4.9468 62.8366 5.2692 L 67.425 7.3852 C 68.1239 7.7072 68.0168 9.0573 67.1851 10.4 L 57.4883 24.9957 C 56.6565 26.3384 55.4149 27.1648 54.7157 26.8425 L 51.1406 25.1937 C 50.4414 24.8714 50.5488 23.5216 51.3806 22.1788 L 60.0636 7.1163 Z " stroke-width="0.5075559522771264"/>
</svg>