<svg xmlns="http://www.w3.org/2000/svg" xmlns:xlink="http://www.w3.org/1999/xlink" version="1.1" width="56.84600067138672" height="39.082763671875" viewBox="-0.625 0.18682372570037842 56.84600067138672 39.082763671875">
  <!-- Exported by Scratch - http://scratch.mit.edu/ -->
  <g id="ID0.8564713546074927">
    <path id="ID0.5989846084266901" d="M 23.5225 37.9791 C 23.0844 38.0455 22.6753 37.7424 22.6097 37.303 L 22.1791 34.423 C 22.1125 33.9839 22.4156 33.5748 22.854 33.5094 L 27.7439 33.1025 C 28.1811 33.0364 28.5901 33.3395 28.6565 33.7777 L 28.9926 36.0229 C 29.0582 36.4622 28.7561 36.8711 28.3179 36.9375 L 23.5225 37.9791 Z " stroke-width="1.000000007738322"/>
    <path id="ID0.7705372264608741" d="M 25.6279 33.4658 C 26.1073 33.9622 26.2386 34.6143 25.9189 34.9235 L 23.8267 36.9495 C 23.5083 37.2595 22.8598 37.108 22.3806 36.6126 L 17.3054 30.9116 C 16.8259 30.4152 16.6947 29.7631 17.0135 29.455 L 18.6439 27.875 C 18.9625 27.566 19.6112 27.7185 20.0904 28.2139 L 25.6279 33.4658 Z " stroke-width="1.000000007738322"/>
  </g>
  <g id="ID0.15596213983371854">
    <path id="ID0.5848010759800673" d="M 7.9987 35.9771 C 7.609 36.5468 6.9945 36.8051 6.6291 36.5539 L 4.2265 34.9069 C 3.8606 34.6567 3.8796 33.9908 4.2693 33.4212 L 8.8448 27.3142 C 9.235 26.7437 9.849 26.4863 10.2135 26.737 L 12.0859 28.0209 C 12.4518 28.2711 12.4328 28.937 12.0435 29.5057 L 7.9987 35.9771 Z " stroke-width="0.9999999934478954"/>
    <path id="ID0.8454087860882282" d="M 3.3274 36.2594 C 2.9415 36.0396 2.8093 35.5486 3.0292 35.1627 L 4.4763 32.6356 C 4.6971 32.2502 5.1876 32.1166 5.5721 32.337 L 9.6617 35.0484 C 10.0467 35.2679 10.1798 35.7593 9.9594 36.1439 L 8.8316 38.1142 C 8.6117 38.5001 8.1212 38.6336 7.7353 38.4137 L 3.3274 36.2594 Z " stroke-width="0.9999999934478954"/>
  </g>
  <g id="ID0.20980142103508115">
    <path id="ID0.15353494929149747" fill="#FBB03B" stroke="#000000" stroke-width="0.4999999897911999" d="M 31.4581 21.4175 C 31.9546 21.6569 32.1649 22.2541 31.9265 22.7504 L 31.3685 23.9102 C 31.1291 24.4067 30.5317 24.6161 30.0346 24.3788 L 28.8627 23.816 C 28.3652 23.5767 28.1558 22.9793 28.395 22.4819 L 28.9511 21.3225 C 29.1925 20.8256 29.7887 20.6154 30.2852 20.8548 L 31.4581 21.4175 Z "/>
    <path id="ID0.7635790938511491" stroke="#1A1A1A" stroke-width="0.4999999897911999" d="M 29.523 19.6847 C 30.0372 19.9156 30.3064 20.4314 30.1238 20.8357 L 28.9285 23.493 C 28.747 23.898 28.1822 24.0381 27.6691 23.8079 L 22.1219 20.9597 C 21.6078 20.7298 21.3395 20.2128 21.5211 19.8088 L 22.4528 17.7401 C 22.6341 17.3341 23.1999 17.1938 23.7131 17.425 L 29.523 19.6847 Z "/>
  </g>
  <g id="ID0.7137223575264215">
    <path id="ID0.5612710667774081" fill="#FBB03B" stroke="#000000" stroke-width="0.500009636198767" d="M 17.5851 5.5885 L 29.0411 9.7813 L 25.599 19.1864 L 14.1429 14.9936 L 17.5851 5.5885 Z "/>
    <path id="ID0.3885055026039481" fill="#78006D" stroke="#1A1A1A" stroke-width="0.5" d="M 18.138 13.181 C 14.64 11.901 21.246 9.187 23.754 9.784 L 29.412 11.371 C 30.58 7.48 28.527 3.305 24.661 1.89 L 23.348 1.41 C 19.337 -0.058 14.894 2.004 13.425 6.015 L 7.821 21.327 C 6.353 25.338 8.416 29.781 12.426 31.249 L 13.738 31.729 C 17.751 33.198 22.193 31.135 23.662 27.125 C 23.662 27.125 26.089 21.1 25.885 20.321 C 25.683 19.543 27.51 16.611 27.51 16.611 L 18.138 13.181 Z "/>
  </g>
  <g id="ID0.20883694617077708">
    <path id="ID0.16792826633900404" d="M 26.869 11.759 C 27.056 11.759 27.226 11.835 27.348 11.958 C 27.471 12.08 27.547 12.25 27.547 12.437 C 27.547 12.624 27.471 12.794 27.348 12.916 C 27.226 13.039 27.056 13.115 26.869 13.115 C 26.682 13.115 26.512 13.039 26.39 12.916 C 26.267 12.794 26.191 12.624 26.191 12.437 C 26.191 12.25 26.267 12.08 26.39 11.958 C 26.512 11.835 26.682 11.759 26.869 11.759 Z " stroke-width="1"/>
    <path id="ID0.08473029173910618" d="M 23.582 11.555 C 23.769 11.555 23.939 11.631 24.061 11.754 C 24.184 11.876 24.26 12.046 24.26 12.233 C 24.26 12.42 24.184 12.59 24.061 12.712 C 23.939 12.835 23.769 12.911 23.582 12.911 C 23.395 12.911 23.225 12.835 23.103 12.712 C 22.98 12.59 22.904 12.42 22.904 12.233 C 22.904 12.046 22.98 11.876 23.103 11.754 C 23.225 11.631 23.395 11.555 23.582 11.555 Z " stroke-width="1"/>
  </g>
  <path id="ID0.9075090778060257" fill="none" stroke="#000000" d="M 12.0973 9.8431 C 12.0973 9.8431 9.965 10.49 8.7335 12.3864 C 7.646 14.0586 7.0277 15.3748 7.0277 15.3748 " stroke-width="1.0000000122050583"/>
  <path id="ID0.35206371266394854" fill="none" stroke="#000000" d="M 11.736 9.9771 C 11.736 9.9771 10.1524 8.8526 8.7501 10.5911 C 7.4986 12.1442 6.7633 11.7172 6.7633 11.7172 " stroke-width="1.0000000122050583"/>
  <path id="ID0.5940494854003191" fill="none" stroke="#000000" stroke-width="1.5" d="M 0.125 23.693 L 52.75 21.847 "/>
  <g id="ID0.7118512513116002">
    <path id="ID0.7296573664061725" fill="#FBB03B" stroke="#000000" stroke-width="0.49999999690615504" d="M 6.7797 24.8418 C 6.3411 25.1761 5.7136 25.0918 5.378 24.6539 L 4.599 23.6304 C 4.2619 23.1909 4.3471 22.5638 4.787 22.2288 L 5.8206 21.4403 C 6.2592 21.106 6.8873 21.1884 7.2229 21.6295 L 8.0012 22.6517 C 8.3355 23.0903 8.2525 23.7171 7.8123 24.0531 L 6.7797 24.8418 Z "/>
    <path id="ID0.7869536513462663" stroke="#1A1A1A" stroke-width="0.49999999690615504" d="M 9.1998 23.9045 C 8.7614 24.2587 8.1792 24.2633 7.9012 23.918 L 6.0779 21.6467 C 5.8005 21.2995 5.9302 20.7327 6.3692 20.3798 L 11.425 16.7326 C 11.8643 16.3786 12.4457 16.3738 12.7233 16.72 L 14.1458 18.4897 C 14.4224 18.8357 14.2928 19.4024 13.8531 19.7542 L 9.1998 23.9045 Z "/>
  </g>
  <path id="ID0.6533192885108292" fill="#E6E6E6" stroke="#000000" d="M 55.471 21.653 L 50.224 24.519 L 50.028 19.175 L 55.471 21.653 " stroke-width="1"/>
</svg>