<svg version="1.1" xmlns="http://www.w3.org/2000/svg" xmlns:xlink="http://www.w3.org/1999/xlink" width="89.48633" height="101.49923" viewBox="0,0,89.48633,101.49923"><g transform="translate(-198.01367,-130.50077)"><g data-paper-data="{&quot;isPaintingLayer&quot;:true}" stroke-miterlimit="10" stroke-dasharray="" stroke-dashoffset="0" style="mix-blend-mode: normal"><g fill-rule="evenodd"><path d="M224.7,201.1c0.8,0.4 2.5,1.3 0.1,4.7c-2.4,3.4 -9.3,4.1 -10.1,4.1c-1.22564,0.03954 -2.5607,0.06345 -3.98664,-0.00862c1.79701,-1.36227 2.86816,-4.00975 2.44721,-6.25272c0.25087,0.05758 0.49768,0.11098 0.73943,0.16135c3.4,0.6 9.9,-3.2 10.8,-2.7z" fill="#ffab19" stroke="#001026" stroke-width="1.2" stroke-linecap="round" stroke-linejoin="round"/><path d="" fill="#ffffff" stroke="none" stroke-width="1" stroke-linecap="butt" stroke-linejoin="miter"/></g><path d="M229.7,211.5c-1.8,1.2 -8,5.6 -15.9,8.1l-0.4,0.1c-0.4,0.1 -0.6,0.6 -0.4,1c1.7,2.4 4.8,7.2 -0.7,8.9c-5.3,1.7 -15.2,-12.4 -11,-16.1c1.9,-1.4 3.6,-0.7 4.5,-0.3c0.5,0.2 1,0.2 1.5,0.1c1.2,-0.4 3.4,-1.2 5.1,-2.1c4.3,-2.2 5.3,-3.1 7.3,-4.6c2,-1.5 6.6,-5.2 10.3,-2c3.2,2.7 1.4,5.7 -0.3,6.9z" fill="#ffab19" fill-rule="evenodd" stroke="#001026" stroke-width="1.2" stroke-linecap="round" stroke-linejoin="round"/><path d="M245.6,190.7c0.5,0.4 6.6,7.6 8.6,5.8c2.4,-2.1 5.7,-6.2 9.3,-2.9c3.6,3.3 -3.2,8.9 -6.1,10.4c-6.9,3.1 -12.5,-2.8 -13.7,-4.4c-1.2,-1.6 -3.3,-4.3 -3.3,-6.9c0.1,-2.8 3.5,-3.5 5.2,-2z" fill="#ffab19" fill-rule="evenodd" stroke="#001026" stroke-width="1.2" stroke-linecap="round" stroke-linejoin="round"/><g fill-rule="evenodd"><path d="M245.7,214c2.1,1.9 6.7,5.8 6.7,5.8c0,0 14.3,-2.5 14.3,4.7c0,4.3 -7.2,5.3 -16.9,4.4c-0.6,-0.1 -1.2,-0.3 -1.7,-0.7c-2.2,-1.9 -8.5,-7.5 -12.5,-11.4c-5.9,-5.8 -10.8,-9.6 -10.8,-9.6c-8.5,-8.3 -1.6,-11.8 1.1,-16.6c2.5,-4.1 3.6,-3.3 9.6,-2.1c3.4,0.5 5.4,0.8 7.6,0.7c3.3,-0.1 2.7,4.7 1.8,7.2c0,0 -1.4,3.7 -2.7,5.6c-1.6,2.3 -2.8,3.8 -4,4.7z" fill="#ffab19" stroke="#001026" stroke-width="1.2" stroke-linecap="round" stroke-linejoin="round"/><path d="M237.3,206.6c0,0 -1.5,-1.2 -3.1,-2.7c-2,-1.8 -4,-3.3 -2,-6.4c1.8,-2.4 3.5,-5.6 8,-2.7c4.3,2.7 2.4,5.2 2.4,5.2c-2.2,4.5 -5.3,6.6 -5.3,6.6z" fill="#ffffff" stroke="none" stroke-width="1" stroke-linecap="butt" stroke-linejoin="miter"/></g><path d="M222.2,198.4c2.2,2.8 5.6,6.3 1.3,9.2c-5.9,3.3 -10.8,-6.7 -11.8,-10.2c-0.9,-3.1 1.7,-5.1 3.9,-6.8c4.3,-3.1 7.9,-5.9 11.9,-4.4c5,1.8 1.4,5.8 -1.1,7.6c-1.5,1.1 -3,2.3 -4.1,3c-0.3,0.5 -0.4,1.1 -0.1,1.6z" fill="#ffab19" fill-rule="evenodd" stroke="#001026" stroke-width="1.2" stroke-linecap="round" stroke-linejoin="round"/><g fill-rule="evenodd"><path d="M253.7,131c0.3,-0.2 0.8,-0.1 0.9,0.3l2.6,10.7c0,0 6.4,4.7 8.3,8c3.2,5.5 3.3,10 3.3,10c0,0 7.1,2.1 8.3,7.8c1.2,5.7 -3.2,16.5 -22,20.2c-18.8,3.7 -33.9,-1.4 -41,-12.8c-7.1,-11.4 4.1,-25 3.5,-24.2l-2.1,-17.9c-0.1,-0.4 0.4,-0.7 0.8,-0.5l12.1,7.9c0,0 4.5,-1.7 9.2,-1.9c2.8,-0.2 5.2,0 7.5,0.4z" fill="#ffab19" stroke="#001026" stroke-width="1.2" stroke-linecap="butt" stroke-linejoin="miter"/><path d="M268.5,160.4c0,0 6.9,1.8 8.1,7.5c1.2,5.7 -3.6,16 -22.2,19.6c-24.2,5 -35.7,-9.4 -29,-20c6.7,-10.7 18.2,-1.6 26.6,-2.2c7.2,-0.5 8,-6.8 16.5,-4.9z" fill="#ffffff" stroke="none" stroke-width="1" stroke-linecap="butt" stroke-linejoin="miter"/><path d="M237,171.1c0,-0.4 0.4,-0.7 0.8,-0.6c1.9,0.7 7.3,2.3 13.3,2.7c5.4,0.3 8.6,0 10.1,-0.3c0.5,-0.1 0.9,0.4 0.7,0.9c-0.9,2.7 -4.7,10.2 -15.2,9.6c-9.1,-1 -10,-7.4 -9.7,-12.3z" fill="#ffffff" stroke="#001026" stroke-width="1.2" stroke-linecap="round" stroke-linejoin="round"/><path d="M286.9,161.5c-4.7,3.8 -11.9,3.9 -11.9,3.9" fill="none" stroke="#001026" stroke-width="1.2" stroke-linecap="round" stroke-linejoin="round"/><path d="M285.6,172.7c-6.3,0.5 -10.2,-1.4 -10.2,-1.4" fill="none" stroke="#001026" stroke-width="1.2" stroke-linecap="round" stroke-linejoin="round"/><path d="M251.6,162.7c2.1,0 4.3,0.2 4.4,0.9c0.1,1.4 -1.4,4.2 -3,4.3c-1.8,0.2 -6,-2.3 -6,-3.9c-0.1,-1.2 2.6,-1.3 4.6,-1.3z" fill="#001026" stroke="#001026" stroke-width="1.2" stroke-linecap="round" stroke-linejoin="round"/><path d="M206.6,161.2c0,0 8.6,2.8 12.1,5.9" fill="none" stroke="#001026" stroke-width="1.2" stroke-linecap="round" stroke-linejoin="round"/><path d="M219,170.6c-4.3,1.7 -11.7,0.6 -11.7,0.6" fill="none" stroke="#001026" stroke-width="1.2" stroke-linecap="round" stroke-linejoin="round"/><g><path d="M263.4,151c2.9,4.5 3,9.6 0.2,11.4c-2.8,1.8 -7.4,-0.3 -10.4,-4.8c-2.9,-4.5 -3,-9.6 -0.2,-11.4c2.8,-1.9 7.5,0.3 10.4,4.8z" fill="#ffffff" stroke="#001026" stroke-width="1.2" stroke-linecap="round" stroke-linejoin="round"/><path d="M263,156.7c0,1.1 -0.8,2 -1.8,2c-1,0 -1.8,-0.9 -1.8,-2c0,-1.1 0.8,-2 1.8,-2c1,0 1.8,0.9 1.8,2" fill="#001026" stroke="none" stroke-width="1" stroke-linecap="butt" stroke-linejoin="miter"/></g><g><path d="M238.6,153.8c3,4.4 2.8,9.8 0.1,11.7c-3.3,1.9 -7.7,0.5 -10.7,-3.9c-3.1,-4.4 -3.3,-10.1 -0.2,-12.3c3.1,-2.3 7.8,0.1 10.8,4.5z" fill="#ffffff" stroke="#001026" stroke-width="1.2" stroke-linecap="round" stroke-linejoin="round"/><path d="M238,159.6c0,1.1 -0.8,2 -1.8,2c-1,0 -1.8,-0.9 -1.8,-2c0,-1.1 0.8,-2 1.8,-2c1,0.1 1.8,0.9 1.8,2" fill="#001026" stroke="none" stroke-width="1" stroke-linecap="butt" stroke-linejoin="miter"/></g></g><path d="M209.88867,209c0.34342,0 0.63293,0.23081 0.72186,0.54577c0.09608,0.12607 0.15314,0.28349 0.15314,0.45423c0,0.1125 -0.02476,0.21921 -0.06915,0.31499c0.26176,0.11705 0.44415,0.37973 0.44415,0.68501c0,0.41422 -0.33578,0.75 -0.75,0.75c-0.41422,0 -0.75,-0.33578 -0.75,-0.75c0,-0.1125 0.02477,-0.21921 0.06916,-0.31499c-0.13028,-0.05826 -0.2409,-0.15258 -0.31916,-0.27029c-0.13437,0.20209 -0.36413,0.33527 -0.625,0.33527c-0.41422,0 -0.75,-0.33578 -0.75,-0.75c0,-0.41422 0.33578,-0.75 0.75,-0.75c0.17256,0 0.33152,0.05828 0.45825,0.15623c0.12465,-0.24129 0.37644,-0.40623 0.66675,-0.40623z" fill="#ff0000" fill-rule="nonzero" stroke="none" stroke-width="0.5" stroke-linecap="butt" stroke-linejoin="miter"/><path d="M213.38867,207.75c0,-0.41422 0.33578,-0.75 0.75,-0.75c0.41422,0 0.75,0.33578 0.75,0.75c0,0.41422 -0.33578,0.75 -0.75,0.75c-0.41422,0 -0.75,-0.33578 -0.75,-0.75z" fill="#ff0000" fill-rule="nonzero" stroke="none" stroke-width="0.5" stroke-linecap="butt" stroke-linejoin="miter"/><path d="M210.93307,208.4926c-0.79246,0.34217 -1.55292,0.34883 -1.9277,-0.41327c-0.28696,-0.10527 -0.4917,-0.38089 -0.4917,-0.70433c0,-0.22234 0.09676,-0.42209 0.25046,-0.55944c0.00063,-0.46907 0.2576,-0.9471 0.6525,-1.40461l0.2366,-1.18304c0,0 0.14709,-0.73543 0.88253,-0.58835c0.29548,0.0591 0.4485,0.21317 0.52584,0.37635c0.09444,-0.06409 0.1891,-0.12664 0.2834,-0.18752l-0.10254,-0.1333l1.18342,-0.91033c0.12747,-0.10009 0.28816,-0.15977 0.46279,-0.15977c0.05973,0 0.11785,0.00699 0.17355,0.02018c0.13757,-0.16511 0.34474,-0.27018 0.57645,-0.27018c0.41422,0 0.75,0.33578 0.75,0.75c0,0.24606 -0.11849,0.46445 -0.30154,0.60121c0.03328,0.08482 0.05154,0.17717 0.05154,0.27379c0,0.41422 -0.33578,0.75 -0.75,0.75c-0.00945,0 -0.01886,-0.00017 -0.02822,-0.00052l-0.00332,0.01547c-0.01596,0.07416 -0.03205,0.14748 -0.04828,0.21998c0.12697,0.13435 0.20483,0.31561 0.20483,0.51506c0,0.04688 -0.0043,0.09274 -0.01252,0.13724l-0.12268,0.73606l-0.06213,-0.01036l0.01978,0.16286c-0.15084,0.22689 -0.37929,0.49138 -0.65516,0.75648c0.05286,0.10272 0.08271,0.21923 0.08271,0.34271c0,0.2043 -0.08168,0.38952 -0.21417,0.52478l-0.14222,0.94697c-0.04892,0.3669 -0.3631,0.64993 -0.74338,0.64993c-0.41422,0 -0.75,-0.33578 -0.75,-0.75c0,-0.01924 0.00072,-0.03831 0.00215,-0.05719l0.02993,-0.44904zM210.95267,207.00202c0.07113,-0.46628 0.22063,-0.79457 0.53397,-1.10301c0.00825,-0.02938 0.01668,-0.05889 0.02527,-0.08854l-0.11134,-0.1299l0.20186,-0.17302c0.03934,-0.12949 0.07988,-0.26236 0.11964,-0.3996c-0.43365,0.47045 -0.93612,0.93921 -1.22485,1.32861c0.089,0.12331 0.14144,0.27475 0.14144,0.43845c0,0.154 -0.04641,0.29715 -0.12601,0.41624c0.1227,-0.04256 0.2777,-0.15135 0.44001,-0.28922z" fill="#ff0000" fill-rule="nonzero" stroke="none" stroke-width="0.5" stroke-linecap="butt" stroke-linejoin="miter"/><path d="M208.13867,212c0,-0.41422 0.33578,-0.75 0.75,-0.75c0.41422,0 0.75,0.33578 0.75,0.75c0,0.41422 -0.33578,0.75 -0.75,0.75c-0.41422,0 -0.75,-0.33578 -0.75,-0.75z" fill="#ff0000" fill-rule="nonzero" stroke="none" stroke-width="0.5" stroke-linecap="butt" stroke-linejoin="miter"/><path d="M212.38867,215.25c0,-0.41422 0.33578,-0.75 0.75,-0.75c0.41422,0 0.75,0.33578 0.75,0.75c0,0.41422 -0.33578,0.75 -0.75,0.75c-0.41422,0 -0.75,-0.33578 -0.75,-0.75z" fill="#ff0000" fill-rule="nonzero" stroke="none" stroke-width="0.5" stroke-linecap="butt" stroke-linejoin="miter"/><path d="M209.51367,216c0,-0.41422 0.33578,-0.75 0.75,-0.75c0.41422,0 0.75,0.33578 0.75,0.75c0,0.41422 -0.33578,0.75 -0.75,0.75c-0.41422,0 -0.75,-0.33578 -0.75,-0.75z" fill="#ff0000" fill-rule="nonzero" stroke="none" stroke-width="0.5" stroke-linecap="butt" stroke-linejoin="miter"/><path d="M209.88867,217.75c0,-0.41422 0.33578,-0.75 0.75,-0.75c0.41422,0 0.75,0.33578 0.75,0.75c0,0.41422 -0.33578,0.75 -0.75,0.75c-0.41422,0 -0.75,-0.33578 -0.75,-0.75z" fill="#ff0000" fill-rule="nonzero" stroke="none" stroke-width="0.5" stroke-linecap="butt" stroke-linejoin="miter"/><path d="M211.51367,224.375c0,-0.41422 0.33578,-0.75 0.75,-0.75c0.41422,0 0.75,0.33578 0.75,0.75c0,0.41422 -0.33578,0.75 -0.75,0.75c-0.41422,0 -0.75,-0.33578 -0.75,-0.75z" fill="#ff0000" fill-rule="nonzero" stroke="none" stroke-width="0.5" stroke-linecap="butt" stroke-linejoin="miter"/><path d="M210.63867,214c0,-0.11559 0.02615,-0.22508 0.07286,-0.32286c-0.09778,0.04671 -0.20727,0.07286 -0.32286,0.07286c-0.41422,0 -0.75,-0.33578 -0.75,-0.75c0,-0.41422 0.33578,-0.75 0.75,-0.75c0.41422,0 0.75,0.33578 0.75,0.75c0,0.11559 -0.02614,0.22508 -0.07285,0.32286c0.09778,-0.04671 0.20726,-0.07286 0.32285,-0.07286c0.41422,0 0.75,0.33578 0.75,0.75c0,0.41422 -0.33578,0.75 -0.75,0.75c-0.41422,0 -0.75,-0.33578 -0.75,-0.75z" fill="#ff0000" fill-rule="nonzero" stroke="none" stroke-width="0.5" stroke-linecap="butt" stroke-linejoin="miter"/><path d="M209.63867,222.25c0,-0.41422 0.33578,-0.75 0.75,-0.75c0.41422,0 0.75,0.33578 0.75,0.75c0,0.41422 -0.33578,0.75 -0.75,0.75c-0.41422,0 -0.75,-0.33578 -0.75,-0.75z" fill="#ff0000" fill-rule="nonzero" stroke="none" stroke-width="0.5" stroke-linecap="butt" stroke-linejoin="miter"/><path d="M211.38867,226c0,-0.41422 0.33578,-0.75 0.75,-0.75c0.41422,0 0.75,0.33578 0.75,0.75c0,0.41422 -0.33578,0.75 -0.75,0.75c-0.41422,0 -0.75,-0.33578 -0.75,-0.75z" fill="#ff0000" fill-rule="nonzero" stroke="none" stroke-width="0.5" stroke-linecap="butt" stroke-linejoin="miter"/><path d="M215.01367,224.5c0,-0.41422 0.33578,-0.75 0.75,-0.75c0.41422,0 0.75,0.33578 0.75,0.75c0,0.41422 -0.33578,0.75 -0.75,0.75c-0.41422,0 -0.75,-0.33578 -0.75,-0.75z" fill="#ff0000" fill-rule="nonzero" stroke="none" stroke-width="0.5" stroke-linecap="butt" stroke-linejoin="miter"/><path d="M213.88867,229c0,-0.41422 0.33578,-0.75 0.75,-0.75c0.41422,0 0.75,0.33578 0.75,0.75c0,0.41422 -0.33578,0.75 -0.75,0.75c-0.41422,0 -0.75,-0.33578 -0.75,-0.75z" fill="#ff0000" fill-rule="nonzero" stroke="none" stroke-width="0.5" stroke-linecap="butt" stroke-linejoin="miter"/><path d="M208.46972,231.22115l-0.875,0.25c0,0 -0.72115,0.20604 -0.92719,-0.51511c-0.20604,-0.72115 0.5151,-0.92719 0.5151,-0.92719l0.46312,-0.13232c0.0504,-0.36525 0.36381,-0.64654 0.74292,-0.64654c0.41422,0 0.75,0.33578 0.75,0.75c0,0.15437 -0.04664,0.29786 -0.1266,0.41712c0.09563,0.62174 -0.54235,0.80402 -0.54235,0.80402z" fill="#ff0000" fill-rule="nonzero" stroke="none" stroke-width="0.5" stroke-linecap="butt" stroke-linejoin="miter"/><path d="M199.2528,225.51812c0,0 -0.64312,-0.38587 -0.25725,-1.02899c0.38587,-0.64312 1.02899,-0.25725 1.02899,-0.25725c1.32514,0.79509 2.31854,1.45567 3.82444,1.82604l1.34803,0.33984c0,0 0.15594,0.03931 0.3052,0.15374c0.5028,0.04554 1.00621,0.07515 1.51146,0.07351h0.25c0,0 0.75,0 0.75,0.75c0,0.75 -0.75,0.75 -0.75,0.75h-0.25c-0.08706,-0.00025 -0.17403,-0.00138 -0.26093,-0.00331c0.00719,0.0417 0.01093,0.08457 0.01093,0.12831c0,0.41422 -0.33578,0.75 -0.75,0.75c-0.00346,0 -0.00691,-0.00002 -0.01036,-0.00007c-0.01355,0.08084 -0.04003,0.15729 -0.07725,0.22715c0.06112,0.06582 0.48665,0.55954 -0.00706,1.05325c-0.53033,0.53033 -1.06066,0 -1.06066,0l0.05586,-0.06471c-1.13428,-0.35607 -2.24439,-0.768 -3.35742,-1.18175c0.05236,0.10234 0.08189,0.21828 0.08189,0.34113c0,0.41422 -0.33578,0.75 -0.75,0.75c-0.41422,0 -0.75,-0.33578 -0.75,-0.75c0,-0.35557 0.24745,-0.65336 0.57954,-0.73054c-0.15859,-0.15033 -0.29828,-0.40078 -0.15785,-0.77994c0.04064,-0.10971 0.09205,-0.19598 0.14988,-0.26343c-0.22182,-0.0515 -0.57157,-0.21392 -0.57157,-0.72609c0,-0.34801 0.16148,-0.53454 0.33458,-0.63451c-0.39316,-0.22411 -0.79277,-0.46576 -1.22045,-0.72236zM204.59535,228.53429c0.1241,-0.24295 0.37678,-0.40929 0.66832,-0.40929c0.00346,0 0.00692,0.00002 0.01036,0.00007c0.00565,-0.0337 0.01355,-0.06664 0.02353,-0.09866c-1.0214,-0.10188 -2.03878,-0.25755 -3.06629,-0.34197c0.78554,0.29212 1.57018,0.58225 2.36407,0.84985z" fill="#ff0000" fill-rule="nonzero" stroke="none" stroke-width="0.5" stroke-linecap="butt" stroke-linejoin="miter"/><path d="M213.01367,231.25c0,-0.41422 0.33578,-0.75 0.75,-0.75c0.41422,0 0.75,0.33578 0.75,0.75c0,0.41422 -0.33578,0.75 -0.75,0.75c-0.41422,0 -0.75,-0.33578 -0.75,-0.75z" fill="#ff0000" fill-rule="nonzero" stroke="none" stroke-width="0.5" stroke-linecap="butt" stroke-linejoin="miter"/><path d="M219.26367,228.25c0.34239,0 0.63119,0.22943 0.72105,0.54293c1.68373,-0.50245 3.36822,-1.00201 5.01561,-1.62018l0.51334,-0.04775c0,0 0.75,0 0.75,0.75c0,0.75 -0.75,0.75 -0.75,0.75l0.01335,-0.04775c-0.53958,0.20221 -1.08306,0.39191 -1.62912,0.57326c-0.13291,0.21004 -0.36729,0.34949 -0.63423,0.34949c-0.09878,0 -0.1931,-0.0191 -0.27948,-0.05381c-1.90657,0.60254 -3.83579,1.13243 -5.73335,1.76532c0,0 -0.51523,0.17174 -0.81495,-0.2155c-0.37767,-0.03892 -0.67222,-0.35807 -0.67222,-0.74601c0,-0.41422 0.33578,-0.75 0.75,-0.75c0.19956,0 0.38092,0.07794 0.51529,0.20504c0.06391,-0.02096 0.12785,-0.04182 0.19182,-0.06257c-0.10372,-0.10879 -0.17508,-0.24871 -0.19863,-0.40432c-0.04332,0.00778 -0.08793,0.01184 -0.13348,0.01184c-0.41422,0 -0.75,-0.33578 -0.75,-0.75c0,-0.41422 0.33578,-0.75 0.75,-0.75c0.37575,0 0.68696,0.27632 0.74152,0.63684c0.04332,-0.00778 0.08792,-0.01184 0.13348,-0.01184c0.33844,0 0.62453,0.22418 0.71787,0.53214c0.01228,0.00372 0.02443,0.00775 0.03643,0.01207c0.04029,-0.37622 0.35878,-0.66921 0.7457,-0.66921z" fill="#ff0000" fill-rule="nonzero" stroke="none" stroke-width="0.5" stroke-linecap="butt" stroke-linejoin="miter"/><path d="M219.38867,226.25c0,-0.41422 0.33578,-0.75 0.75,-0.75c0.41422,0 0.75,0.33578 0.75,0.75c0,0.41422 -0.33578,0.75 -0.75,0.75c-0.41422,0 -0.75,-0.33578 -0.75,-0.75z" fill="#ff0000" fill-rule="nonzero" stroke="none" stroke-width="0.5" stroke-linecap="butt" stroke-linejoin="miter"/><path d="M218.51367,223.375c0,-0.41422 0.33578,-0.75 0.75,-0.75c0.41422,0 0.75,0.33578 0.75,0.75c0,0.41422 -0.33578,0.75 -0.75,0.75c-0.41422,0 -0.75,-0.33578 -0.75,-0.75z" fill="#ff0000" fill-rule="nonzero" stroke="none" stroke-width="0.5" stroke-linecap="butt" stroke-linejoin="miter"/><path d="M198.01367,226.5c0,-0.41422 0.33578,-0.75 0.75,-0.75c0.41422,0 0.75,0.33578 0.75,0.75c0,0.41422 -0.33578,0.75 -0.75,0.75c-0.41422,0 -0.75,-0.33578 -0.75,-0.75z" fill="#ff0000" fill-rule="nonzero" stroke="none" stroke-width="0.5" stroke-linecap="butt" stroke-linejoin="miter"/><path d="M220.63867,225c0,-0.41422 0.33578,-0.75 0.75,-0.75c0.41422,0 0.75,0.33578 0.75,0.75c0,0.41422 -0.33578,0.75 -0.75,0.75c-0.41422,0 -0.75,-0.33578 -0.75,-0.75z" fill="#ff0000" fill-rule="nonzero" stroke="none" stroke-width="0.5" stroke-linecap="butt" stroke-linejoin="miter"/><path d="M222.88867,224.25c0,-0.41422 0.33578,-0.75 0.75,-0.75c0.41422,0 0.75,0.33578 0.75,0.75c0,0.41422 -0.33578,0.75 -0.75,0.75c-0.41422,0 -0.75,-0.33578 -0.75,-0.75z" fill="#ff0000" fill-rule="nonzero" stroke="none" stroke-width="0.5" stroke-linecap="butt" stroke-linejoin="miter"/><path d="M217.38867,225.375c0,-0.41422 0.33578,-0.75 0.75,-0.75c0.41422,0 0.75,0.33578 0.75,0.75c0,0.41422 -0.33578,0.75 -0.75,0.75c-0.41422,0 -0.75,-0.33578 -0.75,-0.75z" fill="#ff0000" fill-rule="nonzero" stroke="none" stroke-width="0.5" stroke-linecap="butt" stroke-linejoin="miter"/></g></g></svg>