<svg version="1.1" xmlns="http://www.w3.org/2000/svg" xmlns:xlink="http://www.w3.org/1999/xlink" width="95.17898" height="99.84079" viewBox="0,0,95.17898,99.84079"><g transform="translate(-192.32101,-130.50077)"><g data-paper-data="{&quot;isPaintingLayer&quot;:true}" stroke-miterlimit="10" stroke-dasharray="" stroke-dashoffset="0" style="mix-blend-mode: normal"><g fill-rule="evenodd"><path d="M224.7,201.1c0.8,0.4 2.5,1.3 0.1,4.7c-2.4,3.4 -9.3,4.1 -10.1,4.1c-3.1,0.1 -6.9,0.1 -11.1,-1.3c-12.2,-4 -12.3,-17.1 -8.4,-19.2c3.8,-2.1 5.5,6 11,10.9c2.4,2.2 5.3,3 7.7,3.5c3.4,0.6 9.9,-3.2 10.8,-2.7z" fill="#ffab19" stroke="#001026" stroke-width="1.2" stroke-linecap="round" stroke-linejoin="round"/><path d="M199.9,193c1.6,2.7 4.7,6.5 4.7,6.5c0,0 -3.7,-0.9 -5.8,0.8c-1.7,1.3 -1.3,3.5 -1.1,4.2c-1.3,-1.3 -2.9,-3.1 -3.9,-6.6c-1,-3.5 0,-7.7 2,-8.3c2,-0.4 2.5,1.1 4.1,3.4z" fill="#ffffff" stroke="none" stroke-width="1" stroke-linecap="butt" stroke-linejoin="miter"/></g><path d="M229.7,211.5c-1.8,1.2 -8,5.6 -15.9,8.1l-0.4,0.1c-0.4,0.1 -0.6,0.6 -0.4,1c1.7,2.4 4.8,7.2 -0.7,8.9c-5.3,1.7 -15.2,-12.4 -11,-16.1c1.9,-1.4 3.6,-0.7 4.5,-0.3c0.5,0.2 1,0.2 1.5,0.1c1.2,-0.4 3.4,-1.2 5.1,-2.1c4.3,-2.2 5.3,-3.1 7.3,-4.6c2,-1.5 6.6,-5.2 10.3,-2c3.2,2.7 1.4,5.7 -0.3,6.9z" fill="#ffab19" fill-rule="evenodd" stroke="#001026" stroke-width="1.2" stroke-linecap="round" stroke-linejoin="round"/><path d="M245.6,190.7c0.5,0.4 6.6,7.6 8.6,5.8c2.4,-2.1 5.7,-6.2 9.3,-2.9c3.6,3.3 -3.2,8.9 -6.1,10.4c-6.9,3.1 -12.5,-2.8 -13.7,-4.4c-1.2,-1.6 -3.3,-4.3 -3.3,-6.9c0.1,-2.8 3.5,-3.5 5.2,-2z" fill="#ffab19" fill-rule="evenodd" stroke="#001026" stroke-width="1.2" stroke-linecap="round" stroke-linejoin="round"/><g fill-rule="evenodd"><path d="M245.7,214c2.1,1.9 6.7,5.8 6.7,5.8c0,0 14.3,-2.5 14.3,4.7c0,4.3 -7.2,5.3 -16.9,4.4c-0.6,-0.1 -1.2,-0.3 -1.7,-0.7c-2.2,-1.9 -8.5,-7.5 -12.5,-11.4c-5.9,-5.8 -10.8,-9.6 -10.8,-9.6c-8.5,-8.3 -1.6,-11.8 1.1,-16.6c2.5,-4.1 3.6,-3.3 9.6,-2.1c3.4,0.5 5.4,0.8 7.6,0.7c3.3,-0.1 2.7,4.7 1.8,7.2c0,0 -1.4,3.7 -2.7,5.6c-1.6,2.3 -2.8,3.8 -4,4.7z" fill="#ffab19" stroke="#001026" stroke-width="1.2" stroke-linecap="round" stroke-linejoin="round"/><path d="M237.3,206.6c0,0 -1.5,-1.2 -3.1,-2.7c-2,-1.8 -4,-3.3 -2,-6.4c1.8,-2.4 3.5,-5.6 8,-2.7c4.3,2.7 2.4,5.2 2.4,5.2c-2.2,4.5 -5.3,6.6 -5.3,6.6z" fill="#ffffff" stroke="none" stroke-width="1" stroke-linecap="butt" stroke-linejoin="miter"/></g><path d="M222.2,198.4c2.2,2.8 5.6,6.3 1.3,9.2c-5.9,3.3 -10.8,-6.7 -11.8,-10.2c-0.9,-3.1 1.7,-5.1 3.9,-6.8c4.3,-3.1 7.9,-5.9 11.9,-4.4c5,1.8 1.4,5.8 -1.1,7.6c-1.5,1.1 -3,2.3 -4.1,3c-0.3,0.5 -0.4,1.1 -0.1,1.6z" fill="#ffab19" fill-rule="evenodd" stroke="#001026" stroke-width="1.2" stroke-linecap="round" stroke-linejoin="round"/><g><path d="M253.7,131c0.3,-0.2 0.8,-0.1 0.9,0.3l2.6,10.7c0,0 6.4,4.7 8.3,8c3.2,5.5 3.3,10 3.3,10c0,0 7.1,2.1 8.3,7.8c1.2,5.7 -3.2,16.5 -22,20.2c-18.8,3.7 -33.9,-1.4 -41,-12.8c-6.71857,-10.78756 2.94943,-23.54509 3.4992,-24.20683l-2.0992,-17.89317c-0.1,-0.4 0.4,-0.7 0.8,-0.5l12.1,7.9c0,0 4.5,-1.7 9.2,-1.9c2.8,-0.2 5.2,0 7.5,0.4zM238.74242,158.77527c0,-1.66105 -0.80998,-3.13293 -2.05651,-4.0422c-0.25972,-1.2695 -1.16093,-2.30536 -2.35016,-2.75411l-0.03391,-0.07913c-0.55418,-1.37879 -1.90383,-2.35224 -3.48084,-2.35224c-2.07107,0 -3.75,1.67893 -3.75,3.75v0v2.55625c0,0 0,2.19612 1.68062,3.22713c0.14398,2.38716 1.96285,4.32254 4.29702,4.64655c0.68787,0.82729 1.72485,1.35399 2.88485,1.35399c2.07107,0 3.75,-1.67893 3.75,-3.75c0,-0.95325 -0.35568,-1.82343 -0.94157,-2.48506c0.00033,-0.02369 0.0005,-0.04742 0.0005,-0.07119zM260.40043,161.06456c2.07107,0 3.75,-1.67893 3.75,-3.75c0,-1.25266 -0.6142,-2.36187 -1.55788,-3.04289c-0.26792,-1.15346 -1.06809,-2.10275 -2.12767,-2.57504c-0.24682,-1.83204 -1.81657,-3.24456 -3.71623,-3.24456c-2.07107,0 -3.75,1.67893 -3.75,3.75c0,1.52798 0.91386,2.84252 2.22484,3.42686c0.14049,1.04276 0.70956,1.94962 1.52411,2.53745c0.38573,1.66069 1.87477,2.89818 3.65283,2.89818zM217.5992,150.99317l0.0008,0.00683c0.03223,-0.04298 0.03041,-0.0444 -0.0008,-0.00683z" fill="#ffab19" fill-rule="nonzero" stroke="#001026" stroke-width="1.2" stroke-linecap="butt" stroke-linejoin="miter"/><path d="M268.5,160.4c0,0 6.9,1.8 8.1,7.5c1.2,5.7 -3.6,16 -22.2,19.6c-24.2,5 -35.7,-9.4 -29,-20c1.58037,-2.52387 3.42779,-3.94612 5.4386,-4.65389c0.64061,0.45778 1.39382,0.76812 2.21004,0.88142c0.68787,0.82729 1.72485,1.35399 2.88485,1.35399c1.52149,0 2.83134,-0.90611 3.41937,-2.20814c4.36139,0.96449 8.82515,2.69962 12.64714,2.42663c7.2,-0.5 8,-6.8 16.5,-4.9z" fill="#ffffff" fill-rule="evenodd" stroke="none" stroke-width="1" stroke-linecap="butt" stroke-linejoin="miter"/><path d="M237,171.1c0,-0.4 0.4,-0.7 0.8,-0.6c1.9,0.7 7.3,2.3 13.3,2.7c5.4,0.3 8.6,0 10.1,-0.3c0.5,-0.1 0.9,0.4 0.7,0.9c-0.9,2.7 -4.7,10.2 -15.2,9.6c-9.1,-1 -10,-7.4 -9.7,-12.3z" fill="#ffffff" fill-rule="evenodd" stroke="#001026" stroke-width="1.2" stroke-linecap="round" stroke-linejoin="round"/><path d="M286.9,161.5c-4.7,3.8 -11.9,3.9 -11.9,3.9" fill="none" fill-rule="evenodd" stroke="#001026" stroke-width="1.2" stroke-linecap="round" stroke-linejoin="round"/><path d="M285.6,172.7c-6.3,0.5 -10.2,-1.4 -10.2,-1.4" fill="none" fill-rule="evenodd" stroke="#001026" stroke-width="1.2" stroke-linecap="round" stroke-linejoin="round"/><path d="M251.6,162.7c2.1,0 4.3,0.2 4.4,0.9c0.1,1.4 -1.4,4.2 -3,4.3c-1.8,0.2 -6,-2.3 -6,-3.9c-0.1,-1.2 2.6,-1.3 4.6,-1.3z" fill="#001026" fill-rule="evenodd" stroke="#001026" stroke-width="1.2" stroke-linecap="round" stroke-linejoin="round"/><path d="M206.6,161.2c0,0 8.6,2.8 12.1,5.9" fill="none" fill-rule="evenodd" stroke="#001026" stroke-width="1.2" stroke-linecap="round" stroke-linejoin="round"/><path d="M219,170.6c-4.3,1.7 -11.7,0.6 -11.7,0.6" fill="none" fill-rule="evenodd" stroke="#001026" stroke-width="1.2" stroke-linecap="round" stroke-linejoin="round"/><g stroke-linecap="butt" stroke-linejoin="miter"><path d="M263.4,151c2.9,4.5 3,9.6 0.2,11.4c-2.8,1.8 -7.4,-0.3 -10.4,-4.8c-2.9,-4.5 -3,-9.6 -0.2,-11.4c2.8,-1.9 7.5,0.3 10.4,4.8zM260.40043,161.06456c2.07107,0 3.75,-1.67893 3.75,-3.75c0,-1.25266 -0.6142,-2.36187 -1.55788,-3.04289c-0.26792,-1.15346 -1.06809,-2.10275 -2.12767,-2.57504c-0.24682,-1.83204 -1.81657,-3.24456 -3.71623,-3.24456c-2.07107,0 -3.75,1.67893 -3.75,3.75c0,1.52798 0.91386,2.84252 2.22484,3.42686c0.14049,1.04276 0.70956,1.94962 1.52411,2.53745c0.38573,1.66069 1.87477,2.89818 3.65283,2.89818z" fill="#ffffff" fill-rule="nonzero" stroke="#001026" stroke-width="1.2"/><path d="M256.72397,158.21045c-0.81455,-0.58784 -1.40839,-1.52619 -1.54888,-2.56895c-1.31098,-0.58434 -2.2219,-1.93229 -2.2219,-3.46027c0,-2.07107 1.71048,-3.77719 3.78155,-3.77719c1.89966,0 3.50958,1.41801 3.7564,3.25004c1.05958,0.47229 1.88312,1.45811 2.15104,2.61157c0.94368,0.68103 1.5537,1.81708 1.5537,3.06974c0,2.07107 -1.71048,3.77719 -3.78155,3.77719c-1.77806,0 -3.30463,-1.24144 -3.69036,-2.90214z" data-paper-data="{&quot;noHover&quot;:false,&quot;origItem&quot;:[&quot;Path&quot;,{&quot;applyMatrix&quot;:true,&quot;segments&quot;:[[[260.40043,161.06456],[-1.77806,0],[2.07107,0]],[[264.15043,157.31456],[0,2.07107],[0,-1.25266]],[[262.59255,154.27166],[0.94368,0.68103],[-0.26792,-1.15346]],[[260.46488,151.69662],[1.05958,0.47229],[-0.24682,-1.83204]],[[256.74865,148.45206],[1.89966,0],[-2.07107,0]],[[252.99865,152.20206],[0,-2.07107],[0,1.52798]],[[255.22349,155.62892],[-1.31098,-0.58434],[0.14049,1.04276]],[[256.7476,158.16638],[-0.81455,-0.58784],[0.38573,1.66069]]],&quot;closed&quot;:true}]}" fill="#ff0000" fill-rule="nonzero" stroke="none" stroke-width="0.5"/><path d="" fill="#001026" fill-rule="evenodd" stroke="none" stroke-width="1"/></g><g stroke-linecap="butt" stroke-linejoin="miter"><path d="M238.6,153.8c3,4.4 2.8,9.8 0.1,11.7c-3.3,1.9 -7.7,0.5 -10.7,-3.9c-3.1,-4.4 -3.3,-10.1 -0.2,-12.3c3.1,-2.3 7.8,0.1 10.8,4.5zM238.74242,158.77527c0,-1.66105 -0.80998,-3.13293 -2.05651,-4.0422c-0.25972,-1.2695 -1.16093,-2.30536 -2.35016,-2.75411l-0.03391,-0.07913c-0.55418,-1.37879 -1.90383,-2.35224 -3.48084,-2.35224c-2.07107,0 -3.75,1.67893 -3.75,3.75v0v2.55625c0,0 0,2.19612 1.68062,3.22713c0.14398,2.38716 1.96285,4.32254 4.29702,4.64655c0.68787,0.82729 1.72485,1.35399 2.88485,1.35399c2.07107,0 3.75,-1.67893 3.75,-3.75c0,-0.95325 -0.35568,-1.82343 -0.94157,-2.48506c0.00033,-0.02369 0.0005,-0.04742 0.0005,-0.07119z" fill="#ffffff" fill-rule="nonzero" stroke="#001026" stroke-width="1.2"/><path d="M238.79,158.86019c0.58589,0.66163 0.93566,1.54494 0.93566,2.49819c0,2.07107 -1.70547,3.77063 -3.77654,3.77063c-1.16,0 -2.21518,-0.52426 -2.90304,-1.35155c-2.33418,-0.32401 -4.1972,-2.29149 -4.34118,-4.67865c-1.68062,-1.03101 -1.68262,-3.25625 -1.68262,-3.25625l0.00654,-2.57183v0c0,-2.07107 1.70547,-3.77063 3.77654,-3.77063c1.57701,0 2.9507,0.97166 3.50488,2.35045l0.03434,0.07921c1.18924,0.44875 2.12103,1.50306 2.38074,2.77256c1.24653,0.90927 2.06533,2.42503 2.06533,4.08609c0,0.02377 -0.00033,0.04809 -0.00066,0.07178z" data-paper-data="{&quot;noHover&quot;:false,&quot;origItem&quot;:[&quot;Path&quot;,{&quot;applyMatrix&quot;:true,&quot;segments&quot;:[[[238.74242,158.77527],[0,0.02377],[0,-1.66105]],[[236.68591,154.73307],[1.24653,0.90927],[-0.25972,-1.2695]],[[234.33575,151.97897],[1.18924,0.44875],[0,0]],[[234.30183,151.89983],[0,0],[-0.55418,-1.37879]],[[230.821,149.5476],[1.57701,0],[-2.07107,0]],[[227.071,153.2976],[0,-2.07107],[0,0]],[[227.071,153.2976],[0,0],[0,0]],[227.071,155.85384],[[228.75161,159.08097],[-1.68062,-1.03101],[0.14398,2.38716]],[[233.04864,163.72752],[-2.33418,-0.32401],[0.68787,0.82729]],[[235.93349,165.08152],[-1.16,0],[2.07107,0]],[[239.68349,161.33152],[0,2.07107],[0,-0.95325]],[[238.74192,158.84646],[0.58589,0.66163],[0.00033,-0.02369]]],&quot;closed&quot;:true}]}" fill="#ff0000" fill-rule="nonzero" stroke="none" stroke-width="0.5"/><path d="" fill="#001026" fill-rule="evenodd" stroke="none" stroke-width="1"/></g></g><path d="M222.05672,195.29308l-3.65178,-1.46071" fill="none" fill-rule="nonzero" stroke="#ff0000" stroke-width="0.5" stroke-linecap="round" stroke-linejoin="miter"/><path d="M219.13529,197.48415l-4.01696,2.92143" fill="none" fill-rule="nonzero" stroke="#ff0000" stroke-width="0.5" stroke-linecap="round" stroke-linejoin="miter"/><path d="M214.0228,197.11898l9.12945,5.11249" fill="none" fill-rule="nonzero" stroke="#ff0000" stroke-width="0.5" stroke-linecap="round" stroke-linejoin="miter"/><path d="M243.96741,190.91095l-13.14641,-3.2866" fill="none" fill-rule="nonzero" stroke="#ff0000" stroke-width="0.5" stroke-linecap="round" stroke-linejoin="miter"/><path d="M247.25401,197.84933l8.03392,-1.46071l6.57321,2.19107" fill="none" fill-rule="nonzero" stroke="#ff0000" stroke-width="0.5" stroke-linecap="round" stroke-linejoin="miter"/><path d="M260.76561,196.38863l-9.85981,3.2866" fill="none" fill-rule="nonzero" stroke="#ff0000" stroke-width="0.5" stroke-linecap="round" stroke-linejoin="miter"/><path d="M247.25402,220.49038l-12.78124,-9.85981" fill="none" fill-rule="nonzero" stroke="#ff0000" stroke-width="0.5" stroke-linecap="round" stroke-linejoin="miter"/><path d="M221.32636,210.63057l-5.47767,2.55625" fill="none" fill-rule="nonzero" stroke="#ff0000" stroke-width="0.5" stroke-linecap="round" stroke-linejoin="miter"/></g></g></svg>