<svg version="1.1" xmlns="http://www.w3.org/2000/svg" xmlns:xlink="http://www.w3.org/1999/xlink" width="89.48633" height="102.99923" viewBox="0,0,89.48633,102.99923"><g transform="translate(-198.01367,-130.50077)"><g data-paper-data="{&quot;isPaintingLayer&quot;:true}" stroke-miterlimit="10" stroke-dasharray="" stroke-dashoffset="0" style="mix-blend-mode: normal"><g fill-rule="evenodd"><path d="M224.7,201.1c0.8,0.4 2.5,1.3 0.1,4.7c-2.4,3.4 -9.3,4.1 -10.1,4.1c-1.22564,0.03954 -2.5607,0.06345 -3.98664,-0.00862c1.79701,-1.36227 2.86816,-4.00975 2.44721,-6.25272c0.25087,0.05758 0.49768,0.11098 0.73943,0.16135c3.4,0.6 9.9,-3.2 10.8,-2.7z" fill="#ffab19" stroke="#001026" stroke-width="1.2" stroke-linecap="round" stroke-linejoin="round"/><path d="" fill="#ffffff" stroke="none" stroke-width="1" stroke-linecap="butt" stroke-linejoin="miter"/></g><path d="M229.7,211.5c-1.8,1.2 -8,5.6 -15.9,8.1l-0.4,0.1c-0.4,0.1 -0.6,0.6 -0.4,1c1.7,2.4 4.8,7.2 -0.7,8.9c-5.3,1.7 -15.2,-12.4 -11,-16.1c1.9,-1.4 3.6,-0.7 4.5,-0.3c0.5,0.2 1,0.2 1.5,0.1c1.2,-0.4 3.4,-1.2 5.1,-2.1c4.3,-2.2 5.3,-3.1 7.3,-4.6c2,-1.5 6.6,-5.2 10.3,-2c3.2,2.7 1.4,5.7 -0.3,6.9z" fill="#ffab19" fill-rule="evenodd" stroke="#001026" stroke-width="1.2" stroke-linecap="round" stroke-linejoin="round"/><path d="M245.6,190.7c0.5,0.4 6.6,7.6 8.6,5.8c2.4,-2.1 5.7,-6.2 9.3,-2.9c3.6,3.3 -3.2,8.9 -6.1,10.4c-6.9,3.1 -12.5,-2.8 -13.7,-4.4c-1.2,-1.6 -3.3,-4.3 -3.3,-6.9c0.1,-2.8 3.5,-3.5 5.2,-2z" fill="#ffab19" fill-rule="evenodd" stroke="#001026" stroke-width="1.2" stroke-linecap="round" stroke-linejoin="round"/><g fill-rule="evenodd"><path d="M245.7,214c2.1,1.9 6.7,5.8 6.7,5.8c0,0 14.3,-2.5 14.3,4.7c0,4.3 -7.2,5.3 -16.9,4.4c-0.6,-0.1 -1.2,-0.3 -1.7,-0.7c-2.2,-1.9 -8.5,-7.5 -12.5,-11.4c-5.9,-5.8 -10.8,-9.6 -10.8,-9.6c-8.5,-8.3 -1.6,-11.8 1.1,-16.6c2.5,-4.1 3.6,-3.3 9.6,-2.1c3.4,0.5 5.4,0.8 7.6,0.7c3.3,-0.1 2.7,4.7 1.8,7.2c0,0 -1.4,3.7 -2.7,5.6c-1.6,2.3 -2.8,3.8 -4,4.7z" fill="#ffab19" stroke="#001026" stroke-width="1.2" stroke-linecap="round" stroke-linejoin="round"/><path d="M237.3,206.6c0,0 -1.5,-1.2 -3.1,-2.7c-2,-1.8 -4,-3.3 -2,-6.4c1.8,-2.4 3.5,-5.6 8,-2.7c4.3,2.7 2.4,5.2 2.4,5.2c-2.2,4.5 -5.3,6.6 -5.3,6.6z" fill="#ffffff" stroke="none" stroke-width="1" stroke-linecap="butt" stroke-linejoin="miter"/></g><path d="M222.2,198.4c2.2,2.8 5.6,6.3 1.3,9.2c-5.9,3.3 -10.8,-6.7 -11.8,-10.2c-0.9,-3.1 1.7,-5.1 3.9,-6.8c4.3,-3.1 7.9,-5.9 11.9,-4.4c5,1.8 1.4,5.8 -1.1,7.6c-1.5,1.1 -3,2.3 -4.1,3c-0.3,0.5 -0.4,1.1 -0.1,1.6z" fill="#ffab19" fill-rule="evenodd" stroke="#001026" stroke-width="1.2" stroke-linecap="round" stroke-linejoin="round"/><g><path d="M253.7,131c0.3,-0.2 0.8,-0.1 0.9,0.3l2.6,10.7c0,0 6.4,4.7 8.3,8c3.2,5.5 3.3,10 3.3,10c0,0 7.1,2.1 8.3,7.8c1.2,5.7 -3.2,16.5 -22,20.2c-18.8,3.7 -33.9,-1.4 -41,-12.8c-6.71857,-10.78756 2.94943,-23.54509 3.4992,-24.20683l-2.0992,-17.89317c-0.1,-0.4 0.4,-0.7 0.8,-0.5l12.1,7.9c0,0 4.5,-1.7 9.2,-1.9c2.8,-0.2 5.2,0 7.5,0.4zM233.48542,173.35681l0.02825,0.04944l0.05147,0.01287l-0.07458,0.29834l-0.24791,0.41318l0.07545,0.27665l-0.17943,0.71772v0.00532l-0.02336,0.03505l0.02336,0.10514v0.10449l0.20898,0.83592l0.14573,0.65578l-0.00073,0.00267l0.0021,0.0035l0.03982,0.17918l0.04673,0.09346l0.02612,0.10449l0.03657,0.0209l0.14058,0.28115l0.39231,0.45769l0.31015,0.51691l0.5,0.5l0.14867,0.0892l0.10229,0.13998l0.75,0.625l0.03472,0.01676l0.02337,0.03067l0.625,0.5l0.02403,0.01101l0.0163,0.0208l0.84157,0.65455l0.63855,0.72977l0.40794,0.28329l0.33409,0.3675l0.95832,0.63888l0.59611,0.49676l0.39262,0.18954l0.33102,0.28373l0.75,0.375l0.15534,0.03452l0.129,0.09317l1.25,0.5l0.34375,0.04687l0.31353,0.14852l1.25,0.25l0.25663,-0.01222l0.24488,0.07774l2,0.125l0.24159,-0.0446l0.24177,0.0436l1.875,-0.125l0.13735,-0.04423l0.14353,0.01485l1.75,-0.25l0.01922,-0.00783l0.02066,0.00191l1.625,-0.25l0.24351,-0.10227l0.26383,-0.01227l1.08095,-0.32428l1.07693,-0.21539l0.1625,-0.07697l0.17962,-0.00835l1.25,-0.375l0.11093,-0.06596l0.12823,-0.01465l1,-0.375l0.23212,-0.16008l0.27233,-0.07306l1.125,-0.625l0.07224,-0.06758l0.0941,-0.03052l0.84891,-0.53057l1.34064,-0.67032l0.05216,-0.04471l0.06649,-0.01729l1.375,-0.75l0.39522,-0.36401l0.46074,-0.27644l0.625,-0.625l0.31015,-0.51691l0.39231,-0.45769l0.14058,-0.28115l0.03657,-0.0209l0.02612,-0.10449l0.04673,-0.09346l0.03982,-0.17918l0.0021,-0.0035l-0.00073,-0.00267l0.14573,-0.65578l0.20898,-0.83592v-0.10449l0.02336,-0.10514l-0.02336,-0.03505v-0.13564l0.02336,-0.03505l-0.02336,-0.10514v-0.10449l-0.20898,-0.83592l-0.18692,-0.84113l-0.04673,-0.09346l-0.02612,-0.10449l-0.03657,-0.0209l-0.26558,-0.53115l-0.39231,-0.45769l-0.31015,-0.51691l-0.32699,-0.32699l-0.00826,-0.0413l-0.09087,-0.05782l-0.07389,-0.07389l-0.73886,-0.44331l-0.72694,-0.4626l-0.09913,-0.03304l-0.09236,-0.05541l-0.04064,0.01108l-0.89288,-0.29763l-0.29657,-0.02281l-0.27278,-0.1186l-1.5,-0.25l-0.16851,0.01348l-0.16037,-0.05346l-1.625,-0.125l-0.14496,0.02462l-0.14265,-0.03566h-0.8585l-1.48617,-0.21231l-0.26848,0.02777l-0.26185,-0.06546h-5.31464l-0.38422,-0.06404l-0.56571,-0.11314l-0.03826,0.00182l-0.01132,-0.00721l-0.375,-0.125l-0.60104,-0.04623l-0.58482,-0.1462l-2.06464,0l-0.29614,-0.04936l-0.85471,-0.21368h-0.09144l-0.08264,-0.03914l-0.39607,-0.07921l-0.79897,-0.26632l-0.52268,-0.20907l-0.19342,-0.02638l-0.16909,-0.09755l-0.875,-0.25l-0.0641,-0.00214l-0.05659,-0.03018l-2,-0.5h-0.19686l-0.18231,-0.07428l-0.54026,-0.07718l-0.42921,-0.14307l-0.14661,-0.01128l-0.12974,-0.06919l-1.5,-0.375h-0.24634c-0.19983,-0.05 -0.40601,-0.08396 -0.6171,-0.10045l-0.04606,-0.01152h-0.25c-0.63917,0 -1.241,0.15991 -1.76765,0.44191l-0.10735,0.02684l-0.02825,0.04944c-1.10528,0.65232 -1.84675,1.85547 -1.84675,3.23181c0,1.37634 0.74147,2.57949 1.84675,3.23181zM263.90313,159.23936c0.90261,-0.68479 1.48554,-1.769 1.48554,-2.98936c0,-1.37634 -0.74147,-2.57949 -1.84675,-3.23181c-0.71291,-1.2476 -1.92186,-1.06006 -3.06072,-0.33615c-1.17729,0.38165 -2.09946,1.32979 -2.44498,2.52289c-0.2503,0.41703 -0.39755,0.78878 -0.39755,1.04507c0,1.93638 1.46724,3.2878 3.13806,3.65047c0.27675,0.0651 0.56532,0.09953 0.86194,0.09953c0.07033,0 0.14022,-0.00194 0.2096,-0.00576c0.57904,-0.02451 1.1508,-0.17352 1.6654,-0.46299c0.14529,-0.08173 0.27401,-0.18013 0.38946,-0.29189zM235.01367,163.625c2.07107,0 3.75,-1.67893 3.75,-3.75c0,-2.07107 -1.67893,-3.75 -3.75,-3.75c-2.07107,0 -3.75,1.67893 -3.75,3.75c0,2.07107 1.67893,3.75 3.75,3.75zM217.5992,150.99317l0.0008,0.00683c0.03223,-0.04298 0.03041,-0.0444 -0.0008,-0.00683z" fill="#ffab19" fill-rule="nonzero" stroke="#001026" stroke-width="1.2" stroke-linecap="butt" stroke-linejoin="miter"/><path d="" fill="#ffab19" fill-rule="nonzero" stroke="#001026" stroke-width="1.2" stroke-linecap="butt" stroke-linejoin="miter"/><path d="M268.5,160.4c0,0 6.9,1.8 8.1,7.5c1.2,5.7 -3.6,16 -22.2,19.6c-24.2,5 -35.7,-9.4 -29,-20c1.95508,-3.12229 4.31887,-4.55863 6.89509,-5.042c0.68321,0.71885 1.64856,1.167 2.71858,1.167c1.02817,0 1.9597,-0.41379 2.63714,-1.08392c4.88645,0.80927 10.028,3.06757 14.34919,2.75892c7.2,-0.5 8,-6.8 16.5,-4.9z" fill="#ffffff" fill-rule="evenodd" stroke="none" stroke-width="1" stroke-linecap="butt" stroke-linejoin="miter"/><path d="" fill="#ffffff" fill-rule="nonzero" stroke="none" stroke-width="1" stroke-linecap="butt" stroke-linejoin="miter"/><path d="" fill="#ffffff" fill-rule="evenodd" stroke="#001026" stroke-width="1.2" stroke-linecap="round" stroke-linejoin="round"/><path d="M286.9,161.5c-4.7,3.8 -11.9,3.9 -11.9,3.9" fill="none" fill-rule="evenodd" stroke="#001026" stroke-width="1.2" stroke-linecap="round" stroke-linejoin="round"/><path d="M285.6,172.7c-6.3,0.5 -10.2,-1.4 -10.2,-1.4" fill="none" fill-rule="evenodd" stroke="#001026" stroke-width="1.2" stroke-linecap="round" stroke-linejoin="round"/><path d="M251.6,162.7c2.1,0 4.3,0.2 4.4,0.9c0.1,1.4 -1.4,4.2 -3,4.3c-1.8,0.2 -6,-2.3 -6,-3.9c-0.1,-1.2 2.6,-1.3 4.6,-1.3z" fill="#001026" fill-rule="evenodd" stroke="#001026" stroke-width="1.2" stroke-linecap="round" stroke-linejoin="round"/><path d="M206.6,161.2c0,0 8.6,2.8 12.1,5.9" fill="none" fill-rule="evenodd" stroke="#001026" stroke-width="1.2" stroke-linecap="round" stroke-linejoin="round"/><path d="M219,170.6c-4.3,1.7 -11.7,0.6 -11.7,0.6" fill="none" fill-rule="evenodd" stroke="#001026" stroke-width="1.2" stroke-linecap="round" stroke-linejoin="round"/><g><path d="M263.4,151c2.9,4.5 3,9.6 0.2,11.4c-2.8,1.8 -7.4,-0.3 -10.4,-4.8c-2.9,-4.5 -3,-9.6 -0.2,-11.4c2.8,-1.9 7.5,0.3 10.4,4.8zM263.90313,159.23936c0.90261,-0.68479 1.48554,-1.769 1.48554,-2.98936c0,-1.37634 -0.74147,-2.57949 -1.84675,-3.23181c-0.71291,-1.2476 -1.92186,-1.06006 -3.06072,-0.33615c-1.17729,0.38165 -2.09946,1.32979 -2.44498,2.52289c-0.2503,0.41703 -0.39755,0.78878 -0.39755,1.04507c0,1.93638 1.46724,3.2878 3.13806,3.65047c0.27675,0.0651 0.56532,0.09953 0.86194,0.09953c0.07033,0 0.14022,-0.00194 0.2096,-0.00576c0.57904,-0.02451 1.1508,-0.17352 1.6654,-0.46299c0.14529,-0.08173 0.27401,-0.18013 0.38946,-0.29189z" fill="#ff0000" fill-rule="evenodd" stroke="#ff0000" stroke-width="1.2" stroke-linecap="round" stroke-linejoin="round"/><path d="M263.53861,159.57459c-0.5146,0.28947 -1.10707,0.44497 -1.68611,0.46947c-0.06938,0.00382 -0.14191,0.00591 -0.21224,0.00591c-0.29662,0 -0.59619,-0.03531 -0.87294,-0.1004c-1.67081,-0.36267 -3.17858,-1.76068 -3.17858,-3.69706c0,-0.25629 0.14862,-0.64243 0.39892,-1.05945c0.34551,-1.1931 1.30162,-2.17718 2.47891,-2.55883c1.13887,-0.72391 2.39022,-0.90521 3.10313,0.34238c1.10528,0.65232 1.86891,1.89957 1.86891,3.2759c0,1.22036 -0.60286,2.34204 -1.50547,3.02684c-0.11545,0.11177 -0.24925,0.21351 -0.39454,0.29524z" data-paper-data="{&quot;noHover&quot;:false,&quot;origItem&quot;:[&quot;Path&quot;,{&quot;applyMatrix&quot;:true,&quot;segments&quot;:[[[263.90313,159.23936],[-0.11545,0.11177],[0.90261,-0.68479]],[[265.38867,156.25],[0,1.22036],[0,-1.37634]],[[263.54192,153.01819],[1.10528,0.65232],[-0.71291,-1.2476]],[[260.4812,152.68204],[1.13887,-0.72391],[-1.17729,0.38165]],[[258.03622,155.20493],[0.34551,-1.1931],[-0.2503,0.41703]],[[257.63867,156.25],[0,-0.25629],[0,1.93638]],[[260.77673,159.90047],[-1.67081,-0.36267],[0.27675,0.0651]],[[261.63867,160],[-0.29662,0],[0.07033,0]],[[261.84827,159.99424],[-0.06938,0.00382],[0.57904,-0.02451]],[[263.51367,159.53125],[-0.5146,0.28947],[0.14529,-0.08173]]],&quot;closed&quot;:true,&quot;fillColor&quot;:[1,1,1]}]}" fill="#ff0000" fill-rule="nonzero" stroke="none" stroke-width="0.5" stroke-linecap="butt" stroke-linejoin="miter"/><path d="" fill="#001026" fill-rule="evenodd" stroke="none" stroke-width="1" stroke-linecap="butt" stroke-linejoin="miter"/></g><g><path d="M238.6,153.8c3,4.4 2.8,9.8 0.1,11.7c-3.3,1.9 -7.7,0.5 -10.7,-3.9c-3.1,-4.4 -3.3,-10.1 -0.2,-12.3c3.1,-2.3 7.8,0.1 10.8,4.5zM235.01367,163.625c2.07107,0 3.75,-1.67893 3.75,-3.75c0,-2.07107 -1.67893,-3.75 -3.75,-3.75c-2.07107,0 -3.75,1.67893 -3.75,3.75c0,2.07107 1.67893,3.75 3.75,3.75z" fill="#ff0000" fill-rule="evenodd" stroke="#ff0000" stroke-width="1.2" stroke-linecap="round" stroke-linejoin="round"/><path d="M231.21367,159.875c0,-2.07107 1.72893,-3.8 3.8,-3.8c2.07107,0 3.8,1.72893 3.8,3.8c0,2.07107 -1.72893,3.8 -3.8,3.8c-2.07107,0 -3.8,-1.72893 -3.8,-3.8z" data-paper-data="{&quot;noHover&quot;:false,&quot;origItem&quot;:[&quot;Path&quot;,{&quot;applyMatrix&quot;:true,&quot;segments&quot;:[[[235.01367,163.625],[-2.07107,0],[2.07107,0]],[[238.76367,159.875],[0,2.07107],[0,-2.07107]],[[235.01367,156.125],[2.07107,0],[-2.07107,0]],[[231.26367,159.875],[0,-2.07107],[0,2.07107]]],&quot;closed&quot;:true,&quot;fillColor&quot;:[1,1,1]}]}" fill="#ff0000" fill-rule="nonzero" stroke="none" stroke-width="0.5" stroke-linecap="butt" stroke-linejoin="miter"/><path d="" fill="#001026" fill-rule="evenodd" stroke="none" stroke-width="1" stroke-linecap="butt" stroke-linejoin="miter"/></g></g><path d="M209.88867,209c0.34342,0 0.63293,0.23081 0.72186,0.54577c0.09608,0.12607 0.15314,0.28349 0.15314,0.45423c0,0.1125 -0.02476,0.21921 -0.06915,0.31499c0.26176,0.11705 0.44415,0.37973 0.44415,0.68501c0,0.41422 -0.33578,0.75 -0.75,0.75c-0.41422,0 -0.75,-0.33578 -0.75,-0.75c0,-0.1125 0.02477,-0.21921 0.06916,-0.31499c-0.13028,-0.05826 -0.2409,-0.15258 -0.31916,-0.27029c-0.13437,0.20209 -0.36413,0.33527 -0.625,0.33527c-0.41422,0 -0.75,-0.33578 -0.75,-0.75c0,-0.41422 0.33578,-0.75 0.75,-0.75c0.17256,0 0.33152,0.05828 0.45825,0.15623c0.12465,-0.24129 0.37644,-0.40623 0.66675,-0.40623z" fill="#ff0000" fill-rule="nonzero" stroke="none" stroke-width="0.5" stroke-linecap="butt" stroke-linejoin="miter"/><path d="M213.38867,207.75c0,-0.41422 0.33578,-0.75 0.75,-0.75c0.41422,0 0.75,0.33578 0.75,0.75c0,0.41422 -0.33578,0.75 -0.75,0.75c-0.41422,0 -0.75,-0.33578 -0.75,-0.75z" fill="#ff0000" fill-rule="nonzero" stroke="none" stroke-width="0.5" stroke-linecap="butt" stroke-linejoin="miter"/><path d="M210.93307,208.4926c-0.79246,0.34217 -1.55292,0.34883 -1.9277,-0.41327c-0.28696,-0.10527 -0.4917,-0.38089 -0.4917,-0.70433c0,-0.22234 0.09676,-0.42209 0.25046,-0.55944c0.00063,-0.46907 0.2576,-0.9471 0.6525,-1.40461l0.2366,-1.18304c0,0 0.14709,-0.73543 0.88253,-0.58835c0.29548,0.0591 0.4485,0.21317 0.52584,0.37635c0.09444,-0.06409 0.1891,-0.12664 0.2834,-0.18752l-0.10254,-0.1333l1.18342,-0.91033c0.12747,-0.10009 0.28816,-0.15977 0.46279,-0.15977c0.05973,0 0.11785,0.00699 0.17355,0.02018c0.13757,-0.16511 0.34474,-0.27018 0.57645,-0.27018c0.41422,0 0.75,0.33578 0.75,0.75c0,0.24606 -0.11849,0.46445 -0.30154,0.60121c0.03328,0.08482 0.05154,0.17717 0.05154,0.27379c0,0.41422 -0.33578,0.75 -0.75,0.75c-0.00945,0 -0.01886,-0.00017 -0.02822,-0.00052l-0.00332,0.01547c-0.01596,0.07416 -0.03205,0.14748 -0.04828,0.21998c0.12697,0.13435 0.20483,0.31561 0.20483,0.51506c0,0.04688 -0.0043,0.09274 -0.01252,0.13724l-0.12268,0.73606l-0.06213,-0.01036l0.01978,0.16286c-0.15084,0.22689 -0.37929,0.49138 -0.65516,0.75648c0.05286,0.10272 0.08271,0.21923 0.08271,0.34271c0,0.2043 -0.08168,0.38952 -0.21417,0.52478l-0.14222,0.94697c-0.04892,0.3669 -0.3631,0.64993 -0.74338,0.64993c-0.41422,0 -0.75,-0.33578 -0.75,-0.75c0,-0.01924 0.00072,-0.03831 0.00215,-0.05719l0.02993,-0.44904zM210.95267,207.00202c0.07113,-0.46628 0.22063,-0.79457 0.53397,-1.10301c0.00825,-0.02938 0.01668,-0.05889 0.02527,-0.08854l-0.11134,-0.1299l0.20186,-0.17302c0.03934,-0.12949 0.07988,-0.26236 0.11964,-0.3996c-0.43365,0.47045 -0.93612,0.93921 -1.22485,1.32861c0.089,0.12331 0.14144,0.27475 0.14144,0.43845c0,0.154 -0.04641,0.29715 -0.12601,0.41624c0.1227,-0.04256 0.2777,-0.15135 0.44001,-0.28922z" fill="#ff0000" fill-rule="nonzero" stroke="none" stroke-width="0.5" stroke-linecap="butt" stroke-linejoin="miter"/><path d="M208.13867,212c0,-0.41422 0.33578,-0.75 0.75,-0.75c0.41422,0 0.75,0.33578 0.75,0.75c0,0.41422 -0.33578,0.75 -0.75,0.75c-0.41422,0 -0.75,-0.33578 -0.75,-0.75z" fill="#ff0000" fill-rule="nonzero" stroke="none" stroke-width="0.5" stroke-linecap="butt" stroke-linejoin="miter"/><path d="M212.38867,215.25c0,-0.41422 0.33578,-0.75 0.75,-0.75c0.41422,0 0.75,0.33578 0.75,0.75c0,0.41422 -0.33578,0.75 -0.75,0.75c-0.41422,0 -0.75,-0.33578 -0.75,-0.75z" fill="#ff0000" fill-rule="nonzero" stroke="none" stroke-width="0.5" stroke-linecap="butt" stroke-linejoin="miter"/><path d="M209.51367,216c0,-0.41422 0.33578,-0.75 0.75,-0.75c0.41422,0 0.75,0.33578 0.75,0.75c0,0.41422 -0.33578,0.75 -0.75,0.75c-0.41422,0 -0.75,-0.33578 -0.75,-0.75z" fill="#ff0000" fill-rule="nonzero" stroke="none" stroke-width="0.5" stroke-linecap="butt" stroke-linejoin="miter"/><path d="M209.88867,217.75c0,-0.41422 0.33578,-0.75 0.75,-0.75c0.41422,0 0.75,0.33578 0.75,0.75c0,0.41422 -0.33578,0.75 -0.75,0.75c-0.41422,0 -0.75,-0.33578 -0.75,-0.75z" fill="#ff0000" fill-rule="nonzero" stroke="none" stroke-width="0.5" stroke-linecap="butt" stroke-linejoin="miter"/><path d="M211.51367,224.375c0,-0.41422 0.33578,-0.75 0.75,-0.75c0.41422,0 0.75,0.33578 0.75,0.75c0,0.41422 -0.33578,0.75 -0.75,0.75c-0.41422,0 -0.75,-0.33578 -0.75,-0.75z" fill="#ff0000" fill-rule="nonzero" stroke="none" stroke-width="0.5" stroke-linecap="butt" stroke-linejoin="miter"/><path d="M210.63867,214c0,-0.11559 0.02615,-0.22508 0.07286,-0.32286c-0.09778,0.04671 -0.20727,0.07286 -0.32286,0.07286c-0.41422,0 -0.75,-0.33578 -0.75,-0.75c0,-0.41422 0.33578,-0.75 0.75,-0.75c0.41422,0 0.75,0.33578 0.75,0.75c0,0.11559 -0.02614,0.22508 -0.07285,0.32286c0.09778,-0.04671 0.20726,-0.07286 0.32285,-0.07286c0.41422,0 0.75,0.33578 0.75,0.75c0,0.41422 -0.33578,0.75 -0.75,0.75c-0.41422,0 -0.75,-0.33578 -0.75,-0.75z" fill="#ff0000" fill-rule="nonzero" stroke="none" stroke-width="0.5" stroke-linecap="butt" stroke-linejoin="miter"/><path d="M209.63867,222.25c0,-0.41422 0.33578,-0.75 0.75,-0.75c0.41422,0 0.75,0.33578 0.75,0.75c0,0.41422 -0.33578,0.75 -0.75,0.75c-0.41422,0 -0.75,-0.33578 -0.75,-0.75z" fill="#ff0000" fill-rule="nonzero" stroke="none" stroke-width="0.5" stroke-linecap="butt" stroke-linejoin="miter"/><path d="M211.38867,226c0,-0.41422 0.33578,-0.75 0.75,-0.75c0.41422,0 0.75,0.33578 0.75,0.75c0,0.41422 -0.33578,0.75 -0.75,0.75c-0.41422,0 -0.75,-0.33578 -0.75,-0.75z" fill="#ff0000" fill-rule="nonzero" stroke="none" stroke-width="0.5" stroke-linecap="butt" stroke-linejoin="miter"/><path d="M215.01367,224.5c0,-0.41422 0.33578,-0.75 0.75,-0.75c0.41422,0 0.75,0.33578 0.75,0.75c0,0.41422 -0.33578,0.75 -0.75,0.75c-0.41422,0 -0.75,-0.33578 -0.75,-0.75z" fill="#ff0000" fill-rule="nonzero" stroke="none" stroke-width="0.5" stroke-linecap="butt" stroke-linejoin="miter"/><path d="M213.88867,229c0,-0.41422 0.33578,-0.75 0.75,-0.75c0.41422,0 0.75,0.33578 0.75,0.75c0,0.41422 -0.33578,0.75 -0.75,0.75c-0.41422,0 -0.75,-0.33578 -0.75,-0.75z" fill="#ff0000" fill-rule="nonzero" stroke="none" stroke-width="0.5" stroke-linecap="butt" stroke-linejoin="miter"/><path d="M208.46972,231.22115l-0.875,0.25c0,0 -0.72115,0.20604 -0.92719,-0.51511c-0.20604,-0.72115 0.5151,-0.92719 0.5151,-0.92719l0.46312,-0.13232c0.0504,-0.36525 0.36381,-0.64654 0.74292,-0.64654c0.41422,0 0.75,0.33578 0.75,0.75c0,0.15437 -0.04664,0.29786 -0.1266,0.41712c0.09563,0.62174 -0.54235,0.80402 -0.54235,0.80402z" fill="#ff0000" fill-rule="nonzero" stroke="none" stroke-width="0.5" stroke-linecap="butt" stroke-linejoin="miter"/><path d="M199.2528,225.51812c0,0 -0.64312,-0.38587 -0.25725,-1.02899c0.38587,-0.64312 1.02899,-0.25725 1.02899,-0.25725c1.32514,0.79509 2.31854,1.45567 3.82444,1.82604l1.34803,0.33984c0,0 0.15594,0.03931 0.3052,0.15374c0.5028,0.04554 1.00621,0.07515 1.51146,0.07351h0.25c0,0 0.75,0 0.75,0.75c0,0.75 -0.75,0.75 -0.75,0.75h-0.25c-0.08706,-0.00025 -0.17403,-0.00138 -0.26093,-0.00331c0.00719,0.0417 0.01093,0.08457 0.01093,0.12831c0,0.41422 -0.33578,0.75 -0.75,0.75c-0.00346,0 -0.00691,-0.00002 -0.01036,-0.00007c-0.01355,0.08084 -0.04003,0.15729 -0.07725,0.22715c0.06112,0.06582 0.48665,0.55954 -0.00706,1.05325c-0.53033,0.53033 -1.06066,0 -1.06066,0l0.05586,-0.06471c-1.13428,-0.35607 -2.24439,-0.768 -3.35742,-1.18175c0.05236,0.10234 0.08189,0.21828 0.08189,0.34113c0,0.41422 -0.33578,0.75 -0.75,0.75c-0.41422,0 -0.75,-0.33578 -0.75,-0.75c0,-0.35557 0.24745,-0.65336 0.57954,-0.73054c-0.15859,-0.15033 -0.29828,-0.40078 -0.15785,-0.77994c0.04064,-0.10971 0.09205,-0.19598 0.14988,-0.26343c-0.22182,-0.0515 -0.57157,-0.21392 -0.57157,-0.72609c0,-0.34801 0.16148,-0.53454 0.33458,-0.63451c-0.39316,-0.22411 -0.79277,-0.46576 -1.22045,-0.72236zM204.59535,228.53429c0.1241,-0.24295 0.37678,-0.40929 0.66832,-0.40929c0.00346,0 0.00692,0.00002 0.01036,0.00007c0.00565,-0.0337 0.01355,-0.06664 0.02353,-0.09866c-1.0214,-0.10188 -2.03878,-0.25755 -3.06629,-0.34197c0.78554,0.29212 1.57018,0.58225 2.36407,0.84985z" fill="#ff0000" fill-rule="nonzero" stroke="none" stroke-width="0.5" stroke-linecap="butt" stroke-linejoin="miter"/><path d="M213.01367,231.25c0,-0.41422 0.33578,-0.75 0.75,-0.75c0.41422,0 0.75,0.33578 0.75,0.75c0,0.41422 -0.33578,0.75 -0.75,0.75c-0.41422,0 -0.75,-0.33578 -0.75,-0.75z" fill="#ff0000" fill-rule="nonzero" stroke="none" stroke-width="0.5" stroke-linecap="butt" stroke-linejoin="miter"/><path d="M219.38867,226.25c0,-0.41422 0.33578,-0.75 0.75,-0.75c0.41422,0 0.75,0.33578 0.75,0.75c0,0.41422 -0.33578,0.75 -0.75,0.75c-0.41422,0 -0.75,-0.33578 -0.75,-0.75z" fill="#ff0000" fill-rule="nonzero" stroke="none" stroke-width="0.5" stroke-linecap="butt" stroke-linejoin="miter"/><path d="M218.51367,223.375c0,-0.41422 0.33578,-0.75 0.75,-0.75c0.41422,0 0.75,0.33578 0.75,0.75c0,0.41422 -0.33578,0.75 -0.75,0.75c-0.41422,0 -0.75,-0.33578 -0.75,-0.75z" fill="#ff0000" fill-rule="nonzero" stroke="none" stroke-width="0.5" stroke-linecap="butt" stroke-linejoin="miter"/><path d="M198.01367,226.5c0,-0.41422 0.33578,-0.75 0.75,-0.75c0.41422,0 0.75,0.33578 0.75,0.75c0,0.41422 -0.33578,0.75 -0.75,0.75c-0.41422,0 -0.75,-0.33578 -0.75,-0.75z" fill="#ff0000" fill-rule="nonzero" stroke="none" stroke-width="0.5" stroke-linecap="butt" stroke-linejoin="miter"/><path d="M220.63867,225c0,-0.41422 0.33578,-0.75 0.75,-0.75c0.41422,0 0.75,0.33578 0.75,0.75c0,0.41422 -0.33578,0.75 -0.75,0.75c-0.41422,0 -0.75,-0.33578 -0.75,-0.75z" fill="#ff0000" fill-rule="nonzero" stroke="none" stroke-width="0.5" stroke-linecap="butt" stroke-linejoin="miter"/><path d="M222.88867,224.25c0,-0.41422 0.33578,-0.75 0.75,-0.75c0.41422,0 0.75,0.33578 0.75,0.75c0,0.41422 -0.33578,0.75 -0.75,0.75c-0.41422,0 -0.75,-0.33578 -0.75,-0.75z" fill="#ff0000" fill-rule="nonzero" stroke="none" stroke-width="0.5" stroke-linecap="butt" stroke-linejoin="miter"/><path d="M217.38867,225.375c0,-0.41422 0.33578,-0.75 0.75,-0.75c0.41422,0 0.75,0.33578 0.75,0.75c0,0.41422 -0.33578,0.75 -0.75,0.75c-0.41422,0 -0.75,-0.33578 -0.75,-0.75z" fill="#ff0000" fill-rule="nonzero" stroke="none" stroke-width="0.5" stroke-linecap="butt" stroke-linejoin="miter"/><path d="M233.01367,217c0,-0.41421 0.33579,-0.75 0.75,-0.75c0.41421,0 0.75,0.33579 0.75,0.75c0,0.41421 -0.33579,0.75 -0.75,0.75c-0.41421,0 -0.75,-0.33579 -0.75,-0.75z" fill="#ff0000" fill-rule="nonzero" stroke="none" stroke-width="0.5" stroke-linecap="butt" stroke-linejoin="miter"/><path d="M226.13867,226.875c0,-0.41421 0.33579,-0.75 0.75,-0.75c0.41421,0 0.75,0.33579 0.75,0.75c0,0.41421 -0.33579,0.75 -0.75,0.75c-0.41421,0 -0.75,-0.33579 -0.75,-0.75z" fill="#ff0000" fill-rule="nonzero" stroke="none" stroke-width="0.5" stroke-linecap="butt" stroke-linejoin="miter"/><path d="M241.63867,225.75c0,-0.41421 0.33579,-0.75 0.75,-0.75c0.41421,0 0.75,0.33579 0.75,0.75c0,0.41421 -0.33579,0.75 -0.75,0.75c-0.41421,0 -0.75,-0.33579 -0.75,-0.75z" fill="#ff0000" fill-rule="nonzero" stroke="none" stroke-width="0.5" stroke-linecap="butt" stroke-linejoin="miter"/><path d="M243.34692,229.78123c0.12466,-0.24129 0.37644,-0.40623 0.66675,-0.40623c0.41421,0 0.75,0.33579 0.75,0.75c0,0.13661 -0.03652,0.26468 -0.10034,0.375c0.06381,0.11032 0.10034,0.23839 0.10034,0.375c0,0.41421 -0.33579,0.75 -0.75,0.75c-0.36576,0 -0.67036,-0.26182 -0.73663,-0.60826c-0.11328,0.0687 -0.24621,0.10826 -0.38837,0.10826c-0.28454,0 -0.53206,-0.15845 -0.65916,-0.39192c-0.33776,-0.07299 -0.59084,-0.37348 -0.59084,-0.73308c0,-0.41421 0.33579,-0.75 0.75,-0.75c0.28454,0 0.53206,0.15845 0.65916,0.39192c0.11079,0.02394 0.21246,0.07236 0.29909,0.13931z" fill="#ff0000" fill-rule="nonzero" stroke="none" stroke-width="0.5" stroke-linecap="butt" stroke-linejoin="miter"/><path d="M244.76367,227.5c0.41421,0 0.75,0.33579 0.75,0.75c0,0.41421 -0.33579,0.75 -0.75,0.75c-0.37575,0 -0.68696,-0.27632 -0.74152,-0.63684c-0.04332,0.00778 -0.08792,0.01184 -0.13348,0.01184c-0.41421,0 -0.75,-0.33579 -0.75,-0.75c0,-0.41421 0.33579,-0.75 0.75,-0.75c0.37575,0 0.68696,0.27632 0.74152,0.63684c0.04332,-0.00778 0.08792,-0.01184 0.13348,-0.01184z" fill="#ff0000" fill-rule="nonzero" stroke="none" stroke-width="0.5" stroke-linecap="butt" stroke-linejoin="miter"/><path d="M222.38867,229.875c0,-0.08471 0.01404,-0.16614 0.03993,-0.24208c-0.0139,-0.00012 -0.02778,-0.00024 -0.04166,-0.00036c-1.71141,0.52783 -3.43646,1.01208 -5.1361,1.57895c0,0 -0.51523,0.17174 -0.81495,-0.2155c-0.37767,-0.03892 -0.67222,-0.35807 -0.67222,-0.74601c0,-0.41422 0.33578,-0.75 0.75,-0.75c0.19956,0 0.38092,0.07794 0.51529,0.20504c0.06391,-0.02096 0.12785,-0.04182 0.19182,-0.06257c-0.10372,-0.10879 -0.17508,-0.24871 -0.19863,-0.40432c-0.04332,0.00778 -0.08793,0.01184 -0.13348,0.01184c-0.41422,0 -0.75,-0.33578 -0.75,-0.75c0,-0.41422 0.33578,-0.75 0.75,-0.75c0.37575,0 0.68696,0.27632 0.74152,0.63684c0.04332,-0.00778 0.08792,-0.01184 0.13348,-0.01184c0.33844,0 0.62453,0.22418 0.71787,0.53214c0.01228,0.00372 0.02443,0.00775 0.03643,0.01207c0.04029,-0.37622 0.35878,-0.66921 0.7457,-0.66921v0.00001c0.34239,0 0.63119,0.22943 0.72105,0.54293c0.28078,-0.08379 0.56158,-0.1675 0.84223,-0.25169c0.1819,-0.42062 0.69318,-0.41621 0.69318,-0.41621c0.21781,0.00188 0.43562,0.00376 0.65343,0.00563c0.94957,-0.29599 1.89411,-0.60794 2.82676,-0.95791l0.51334,-0.04775c0,0 0.75,0 0.75,0.75c0,0.11302 -0.01703,0.209 -0.04596,0.29052c0.72965,0.00629 1.45931,0.01258 2.18896,0.01887c0.13634,-0.1875 0.35743,-0.30939 0.607,-0.30939c0.25421,0 0.47888,0.12647 0.61452,0.31992c0.41869,0.00361 0.83739,0.00722 1.25608,0.01083c-0.289,-0.10419 -0.4956,-0.38084 -0.4956,-0.70575c0,-0.03206 0.00201,-0.06364 0.00591,-0.09464c-0.54176,0.03187 -1.22723,0.07219 -1.58687,0.09335c0,0 -0.74871,0.04404 -0.79275,-0.70466c-0.04404,-0.74871 0.70466,-0.79275 0.70466,-0.79275c0.49914,-0.02936 0.99827,-0.05872 1.49741,-0.08808l0.0469,-0.00276c-0.004,-0.05851 -0.00266,-0.1127 0.00315,-0.16287c-0.21112,-0.00115 -0.65822,-0.07146 -0.74469,-0.63354c-0.00003,-0.00018 -0.00006,-0.00037 -0.00008,-0.00055c-0.0155,0.00249 -0.03139,0.00469 -0.04767,0.00657c-0.74506,0.08597 -0.83102,-0.65909 -0.83102,-0.65909l-0.03113,-0.26977c-0.20907,-1.81196 -0.3592,-3.62893 -0.5151,-5.44517c-0.10183,0.29337 -0.38068,0.50397 -0.70872,0.50397c-0.41421,0 -0.75,-0.33579 -0.75,-0.75c0,-0.41421 0.33579,-0.75 0.75,-0.75c0.28224,0 0.52807,0.15591 0.65607,0.3863c-0.11755,-1.3511 -0.24231,-2.70145 -0.40093,-4.04867c0,0 -0.08763,-0.74486 0.65723,-0.83249c0.04814,-0.00566 0.09353,-0.00785 0.13633,-0.00698c0.19528,-0.20636 0.48328,-0.24236 0.48328,-0.24236c0.08433,-0.00959 0.16867,-0.01918 0.253,-0.02877c-0.01532,-0.0483 -0.02588,-0.09872 -0.03114,-0.1507c-0.03119,-0.22097 0.0076,-0.53397 0.38788,-0.73537c0.01608,-0.00876 0.03251,-0.01695 0.04927,-0.02454c0.38838,-0.18137 0.66131,-0.02398 0.81877,0.13345c0.06972,0.06463 0.12713,0.14235 0.16833,0.22926c0.10522,0.21044 0.21044,0.42088 0.31566,0.63131c0.00624,0.00546 0.01239,0.01102 0.01844,0.01669l0.23801,0.05675c-0.0002,-0.00578 -0.0002,-0.00887 -0.0002,-0.00887v-1c0,0 0,-0.75 0.75,-0.75c0.75,0 0.75,0.75 0.75,0.75v1c0,0 0,0.75 -0.75,0.75c-0.04195,0 -0.08156,-0.00235 -0.11894,-0.00678c-0.00253,0.05839 -0.01158,0.12119 -0.02845,0.18868c-0.1819,0.72761 -0.90951,0.54571 -0.90951,0.54571l-0.37085,-0.09836c0.02155,0.13329 0.04288,0.26671 0.06403,0.40025c0.06473,0.02525 0.12166,0.05986 0.17108,0.09851c0.02228,-0.00199 0.04484,-0.00301 0.06764,-0.00301c0.41421,0 0.75,0.33579 0.75,0.75c0,0.18185 -0.06472,0.34859 -0.17239,0.47843c0.09259,0.21303 0.18527,0.42559 0.27786,0.63783c0.13088,-0.21935 0.37055,-0.36626 0.64453,-0.36626c0.41421,0 0.75,0.33579 0.75,0.75c0,0.41421 -0.33579,0.75 -0.75,0.75c-0.05424,0 -0.10713,-0.00576 -0.15809,-0.01669c0.74339,1.71489 1.46087,3.42787 2.05942,5.22545l0.10831,0.2611c0.09654,-0.05396 0.20624,-0.08719 0.32307,-0.09369c-0.60341,-1.35749 -1.20348,-2.71614 -1.77502,-4.08771c0,0 -0.28846,-0.69231 0.40385,-0.98077c0.69231,-0.28846 0.98077,0.40385 0.98077,0.40385c0.76712,1.84125 1.58636,3.65892 2.39539,5.48208l0.20203,0.45527c0.4833,-0.01558 0.96951,-0.02389 1.46028,-0.02389h0.125c0,0 0.29127,0 0.51078,0.18151c0.13133,-0.11312 0.30229,-0.18151 0.48922,-0.18151c0.41421,0 0.75,0.33579 0.75,0.75c0,0.02105 -0.00087,0.04189 -0.00257,0.0625c0.0017,0.02061 0.00257,0.04145 0.00257,0.0625c0,0.26471 -0.13713,0.49738 -0.34423,0.63086c0.03087,-0.00387 0.06232,-0.00586 0.09423,-0.00586c0.41421,0 0.75,0.33579 0.75,0.75c0,0.20121 -0.07924,0.38392 -0.20821,0.51861c0.25232,0.0573 0.45631,0.24182 0.54094,0.48256c0.01399,-0.00078 0.02808,-0.00117 0.04226,-0.00117c0.41421,0 0.75,0.33579 0.75,0.75c0,0.41421 -0.33579,0.75 -0.75,0.75c-0.32699,0 -0.60511,-0.20926 -0.70774,-0.50117c-0.01399,0.00078 -0.02808,0.00117 -0.04226,0.00117c-0.41421,0 -0.75,-0.33579 -0.75,-0.75c0,-0.20121 0.07924,-0.38392 0.20821,-0.51861c-0.16724,-0.03798 -0.31324,-0.13185 -0.41733,-0.26092c-0.12496,0.24036 -0.37624,0.40454 -0.66587,0.40454c-0.41421,0 -0.75,-0.33579 -0.75,-0.75c0,-0.41421 0.33579,-0.75 0.75,-0.75c0.23606,0 0.44665,0.10906 0.58413,0.27954c0.06045,-0.11629 0.15048,-0.21474 0.2601,-0.2854c-0.03087,0.00387 -0.06232,0.00586 -0.09423,0.00586c-0.22396,0 -0.42499,-0.09816 -0.56242,-0.25381c-0.20585,0.12881 -0.43758,0.12881 -0.43758,0.12881h-0.125c-1.31867,0 -2.60206,0.06186 -3.88567,0.16377l1.22618,0.36786c0,0 0.71837,0.21551 0.50286,0.93388c-0.09339,0.31129 -0.2812,0.44722 -0.46406,0.50132c0.0314,0.04831 0.05739,0.10047 0.07711,0.15561l0.30005,0.00259c0,0 0.51989,0.00448 0.69022,0.43884c0.09274,-0.04106 0.19536,-0.06386 0.30331,-0.06386c0.08811,0 0.17268,0.0152 0.25122,0.04311c-0.00081,-0.01427 -0.00122,-0.02864 -0.00122,-0.04311c0,-0.41421 0.33579,-0.75 0.75,-0.75c0.41421,0 0.75,0.33579 0.75,0.75c0,0.19246 -0.07249,0.36798 -0.19166,0.50076l0.69336,-0.11556c0,0 0.7398,-0.1233 0.86309,0.6165c0.1233,0.7398 -0.6165,0.86309 -0.6165,0.86309l-0.75,0.125c0,0 -0.71027,0.11838 -0.8549,-0.5728c-0.02435,0.02329 -0.05026,0.04496 -0.07756,0.06483c0.09745,0.10466 0.17078,0.25647 0.183,0.47657c0.0416,0.74885 -0.70724,0.79045 -0.70724,0.79045c-0.24842,0.0138 -0.49685,0.0276 -0.74527,0.0414c0.05034,0.10077 0.07867,0.21445 0.07867,0.33475c0,0.41421 -0.33579,0.75 -0.75,0.75c-0.41421,0 -0.75,-0.33579 -0.75,-0.75c0,-0.09078 0.01613,-0.17779 0.04567,-0.25833l-0.12907,0.00717c0,0 -0.34562,0.0192 -0.5803,-0.20329c-0.10115,0.05083 -0.21538,0.07944 -0.3363,0.07944c-0.35689,0 -0.65555,-0.24927 -0.73139,-0.58321c-0.1347,0.12897 -0.3174,0.20821 -0.51861,0.20821c-0.12303,0 -0.23914,-0.02962 -0.34159,-0.08213c-0.18986,0.16796 -0.43428,0.20055 -0.43428,0.20055c-0.49561,0.06608 -1.37939,0.18392 -1.875,0.25c0,0 -0.74342,0.09912 -0.84254,-0.6443c-0.09912,-0.74342 0.6443,-0.84254 0.6443,-0.84254c0.42984,-0.05731 0.85968,-0.11462 1.28952,-0.17194c-0.59234,-0.00511 -1.18963,-0.01026 -1.78842,-0.01542c-0.07585,0.0304 -0.12988,0.04121 -0.12988,0.04121l-1.25,0.25c0,0 -0.52824,0.10565 -0.77888,-0.30982c-1.19616,-0.01031 -2.38174,-0.02053 -3.52907,-0.03042c0.02329,0.07242 0.03586,0.14965 0.03586,0.22981c0,0.41421 -0.33579,0.75 -0.75,0.75c-0.41421,0 -0.75,-0.33579 -0.75,-0.75zM231.88867,227.5c0,0.06036 -0.00713,0.11906 -0.0206,0.1753c0.08394,-0.03249 0.17519,-0.0503 0.2706,-0.0503c0.3621,0 0.66427,0.25661 0.73457,0.5979c0.15156,0.00131 0.30312,0.00261 0.45468,0.00392c-0.28873,-0.07357 -0.51052,-0.31466 -0.55577,-0.61366c-0.04332,0.00778 -0.08792,0.01184 -0.13348,0.01184c-0.41421,0 -0.75,-0.33579 -0.75,-0.75c0,-0.12853 0.03233,-0.24952 0.08931,-0.35526c-0.11388,0.01257 -0.22794,0.02535 -0.34219,0.03831c0.0006,0.00755 0.00113,0.01518 0.00158,0.0229c0.00755,0.12827 -0.00818,0.23585 -0.03942,0.32608c0.17687,0.1372 0.29071,0.35179 0.29071,0.59296zM231.40682,228.21026c0.00079,-0.00353 0.00161,-0.00705 0.00245,-0.01056c-0.00938,0.00363 -0.01885,0.00708 -0.0284,0.01033c0.00865,0.00007 0.0173,0.00015 0.02596,0.00022zM234.31172,228.2353c0.04923,-0.13048 0.13379,-0.24362 0.24201,-0.32776l-0.35316,-0.10595c-0.09355,0.21277 -0.28307,0.37381 -0.51374,0.42832c0.2083,0.0018 0.4166,0.00359 0.62489,0.00539zM233.74498,226.34217c-0.17746,0.01582 -0.35504,0.03233 -0.53282,0.04948c0.08713,0.10327 0.14687,0.23041 0.16803,0.3702c0.01633,-0.00293 0.03285,-0.00534 0.04953,-0.0072c0.07081,-0.21362 0.18786,-0.33985 0.31526,-0.41248zM230.14963,224.25872c0.17842,-0.02745 0.35685,-0.0549 0.53527,-0.08235c-0.05251,-0.20238 -0.10328,-0.40531 -0.15246,-0.60874l-0.1271,-0.36857c-0.18335,-0.5317 -0.36739,-1.06313 -0.55199,-1.59436c0.07527,0.8055 0.15648,1.61051 0.24925,2.41456l0.02804,0.24305c0.01219,-0.00254 0.01898,-0.00359 0.01898,-0.00359zM235.16635,224.65797c-0.02802,0.02774 -0.05821,0.05328 -0.0903,0.07636c0.04024,-0.00264 0.08048,-0.00525 0.12073,-0.00781c-0.01014,-0.02285 -0.02029,-0.0457 -0.03044,-0.06855zM232.75971,223.73334c-0.42888,-1.2853 -0.91819,-2.52681 -1.43407,-3.75698c0.18549,1.06078 0.39313,2.11581 0.64372,3.15699l0.12833,0.37214c0,0 0.04535,0.13152 0.04035,0.30081c0.01226,0.04696 0.02462,0.0939 0.03707,0.1408c0.21092,-0.03245 0.42185,-0.0649 0.63277,-0.09735z" fill="#ff0000" fill-rule="nonzero" stroke="none" stroke-width="0.5" stroke-linecap="butt" stroke-linejoin="miter"/><path d="M241.63093,231.34734c0.40266,-0.63275 1.0354,-0.23009 1.0354,-0.23009c0.42183,0.26844 0.95317,0.60656 1.375,0.875c0,0 0.63275,0.40266 0.23009,1.0354c-0.40266,0.63275 -1.0354,0.23009 -1.0354,0.23009c-0.42183,-0.26844 -0.84366,-0.53688 -1.26549,-0.80531l-0.10951,-0.06969c0,0 -0.63275,-0.40266 -0.23009,-1.0354z" fill="#ff0000" fill-rule="nonzero" stroke="none" stroke-width="0.5" stroke-linecap="butt" stroke-linejoin="miter"/><path d="M226.3886,231.86477c0.00005,0.00341 0.00007,0.00682 0.00007,0.01023c0,0.41421 -0.33579,0.75 -0.75,0.75c-0.41421,0 -0.75,-0.33579 -0.75,-0.75c0,-0.37102 0.26941,-0.67912 0.62328,-0.73934c-0.03218,-0.65629 0.64566,-0.75312 0.64566,-0.75312l0.875,-0.125c0,0 0.64575,-0.09225 0.81883,0.49754c0.36687,0.04276 0.65292,0.35029 0.66201,0.72645c0.28227,0.04343 0.56455,0.08685 0.84682,0.13028l0.14244,0.02191c0,0 0.74128,0.11404 0.62724,0.85532c-0.11404,0.74128 -0.85532,0.62724 -0.85532,0.62724c-0.49419,-0.07603 -1.13081,-0.17397 -1.625,-0.25c0,0 -0.74128,-0.11404 -0.62724,-0.85532c0.01202,-0.07816 0.03102,-0.14681 0.05539,-0.20709c-0.00518,-0.01167 -0.01006,-0.02349 -0.01465,-0.03546z" fill="#ff0000" fill-rule="nonzero" stroke="none" stroke-width="0.5" stroke-linecap="butt" stroke-linejoin="miter"/><path d="M237.13867,232.375c0,-0.41421 0.33579,-0.75 0.75,-0.75c0.40138,0 0.72911,0.3153 0.74904,0.71172c0.13423,-0.2029 0.36447,-0.33672 0.62596,-0.33672c0.41421,0 0.75,0.33579 0.75,0.75c0,0.41421 -0.33579,0.75 -0.75,0.75c-0.40138,0 -0.72911,-0.3153 -0.74904,-0.71172c-0.13423,0.2029 -0.36447,0.33672 -0.62596,0.33672c-0.41421,0 -0.75,-0.33579 -0.75,-0.75z" fill="#ff0000" fill-rule="nonzero" stroke="none" stroke-width="0.5" stroke-linecap="butt" stroke-linejoin="miter"/><path d="M244.79005,172.19788c-0.01343,-0.04923 -0.02197,-0.10048 -0.02507,-0.1532c-0.03256,-0.00688 -0.0651,-0.01381 -0.09763,-0.02079c0.04024,0.06335 0.08114,0.12127 0.1227,0.17399zM259.92826,177.29582l-0.06937,-0.03485c-1.66322,-0.18932 -2.50402,-1.21006 -3.84426,-3.21994c0,0 -0.26678,-0.40016 -0.05263,-0.77323c-0.5957,-0.24773 -1.20249,-0.469 -1.81477,-0.66741c-1.55093,-0.50446 -3.08861,-0.91681 -4.66088,-1.14953c-0.38254,0.30372 -0.75605,0.64917 -1.12337,0.9939c-0.10283,0.39142 -0.36611,0.51361 -0.58254,0.54424c-1.52677,1.40172 -2.96991,2.3871 -4.54253,-0.24114c-0.13599,-0.22728 -0.21305,-0.48202 -0.28384,-0.73968c-1.55041,2.44163 -2.15921,6.77795 -2.54698,9.53816c1.2647,-1.09348 3.07444,-1.41835 4.68992,-1.81493c5.83861,-1.43332 11.89404,-0.73675 17.84839,-0.73142c-0.40234,-0.60182 -0.77288,-1.22596 -1.23211,-1.80217c-0.38962,0.05361 -0.74405,0.085 -1.06963,0.09343c-0.33202,0.19628 -0.71541,0.00459 -0.71541,0.00459zM263.76367,176.375c0,0.3798 -0.19233,0.56727 -0.3822,0.6598c0.44581,0.68832 0.86156,1.38961 1.41511,1.98458c0.22001,0.04618 0.59209,0.20236 0.59209,0.73062c0,0.40997 -0.2241,0.59584 -0.4273,0.68011l-0.1977,0.44489c0,0 -0.47247,0 -0.66741,-0.375c-0.40672,0 -0.89681,0 -1.08259,0c-5.38537,0 -10.9137,-0.6315 -16.23578,0.36197c-1.6436,0.30681 -4.6431,0.70595 -5.67857,2.10656c0,0 -0.46852,0.58565 -1.05417,0.11713c-0.29792,-0.23834 -0.32305,-0.50698 -0.27583,-0.71342c-0.07066,0.00845 -0.14927,0.00773 -0.23672,-0.00476c-0.74246,-0.10607 -0.6364,-0.84853 -0.6364,-0.84853c0.44059,-3.04358 1.1386,-8.82197 3.35626,-11.06773c0.70654,-0.71549 2.87358,-0.6553 3.72552,-0.6906c1.13799,-0.04714 2.24641,0.01214 3.33832,0.15404c0.58405,-0.44258 1.1943,-0.79348 1.82407,-0.90444l0.73547,0.15328c0,0 0.71151,0.23717 0.47434,0.94868c-0.05223,0.1567 -0.12748,0.26739 -0.21306,0.34473c0.82574,0.20596 1.64843,0.44858 2.47401,0.71702c2.75604,0.89928 5.43643,2.22886 7.53897,4.27751c0.05899,0.05748 0.11641,0.11601 0.17239,0.17546l0.69117,-0.00189c0,0 0.75,0 0.75,0.75z" fill="#000000" fill-rule="nonzero" stroke="none" stroke-width="0.5" stroke-linecap="butt" stroke-linejoin="miter"/></g></g></svg>