<svg version="1.1" xmlns="http://www.w3.org/2000/svg" xmlns:xlink="http://www.w3.org/1999/xlink" width="95.17898" height="115.99923" viewBox="0,0,95.17898,115.99923"><g transform="translate(-192.32102,-130.50077)"><g data-paper-data="{&quot;isPaintingLayer&quot;:true}" stroke-miterlimit="10" stroke-dasharray="" stroke-dashoffset="0" style="mix-blend-mode: normal"><g fill-rule="evenodd"><path d="M224.7,201.1c0.8,0.4 2.5,1.3 0.1,4.7c-2.4,3.4 -9.3,4.1 -10.1,4.1c-3.1,0.1 -6.9,0.1 -11.1,-1.3c-12.2,-4 -12.3,-17.1 -8.4,-19.2c3.8,-2.1 5.5,6 11,10.9c2.4,2.2 5.3,3 7.7,3.5c3.4,0.6 9.9,-3.2 10.8,-2.7z" fill="#ffab19" stroke="#001026" stroke-width="1.2" stroke-linecap="round" stroke-linejoin="round"/><path d="M199.9,193c1.6,2.7 4.7,6.5 4.7,6.5c0,0 -3.7,-0.9 -5.8,0.8c-1.7,1.3 -1.3,3.5 -1.1,4.2c-1.3,-1.3 -2.9,-3.1 -3.9,-6.6c-1,-3.5 0,-7.7 2,-8.3c2,-0.4 2.5,1.1 4.1,3.4z" fill="#ffffff" stroke="none" stroke-width="1" stroke-linecap="butt" stroke-linejoin="miter"/></g><path d="M229.7,211.5c-1.8,1.2 -8,5.6 -15.9,8.1l-0.4,0.1c-0.4,0.1 -0.6,0.6 -0.4,1c1.7,2.4 4.8,7.2 -0.7,8.9c-5.3,1.7 -15.2,-12.4 -11,-16.1c1.9,-1.4 3.6,-0.7 4.5,-0.3c0.5,0.2 1,0.2 1.5,0.1c1.2,-0.4 3.4,-1.2 5.1,-2.1c4.3,-2.2 5.3,-3.1 7.3,-4.6c2,-1.5 6.6,-5.2 10.3,-2c3.2,2.7 1.4,5.7 -0.3,6.9z" fill="#ffab19" fill-rule="evenodd" stroke="#001026" stroke-width="1.2" stroke-linecap="round" stroke-linejoin="round"/><path d="M245.6,190.7c0.5,0.4 6.6,7.6 8.6,5.8c2.4,-2.1 5.7,-6.2 9.3,-2.9c3.6,3.3 -3.2,8.9 -6.1,10.4c-6.9,3.1 -12.5,-2.8 -13.7,-4.4c-1.2,-1.6 -3.3,-4.3 -3.3,-6.9c0.1,-2.8 3.5,-3.5 5.2,-2z" fill="#ffab19" fill-rule="evenodd" stroke="#001026" stroke-width="1.2" stroke-linecap="round" stroke-linejoin="round"/><g fill-rule="evenodd"><path d="M245.7,214c2.1,1.9 6.7,5.8 6.7,5.8c0,0 14.3,-2.5 14.3,4.7c0,4.3 -7.2,5.3 -16.9,4.4c-0.6,-0.1 -1.2,-0.3 -1.7,-0.7c-2.2,-1.9 -8.5,-7.5 -12.5,-11.4c-5.9,-5.8 -10.8,-9.6 -10.8,-9.6c-8.5,-8.3 -1.6,-11.8 1.1,-16.6c2.5,-4.1 3.6,-3.3 9.6,-2.1c3.4,0.5 5.4,0.8 7.6,0.7c3.3,-0.1 2.7,4.7 1.8,7.2c0,0 -1.4,3.7 -2.7,5.6c-1.6,2.3 -2.8,3.8 -4,4.7z" fill="#ffab19" stroke="#001026" stroke-width="1.2" stroke-linecap="round" stroke-linejoin="round"/><path d="M237.3,206.6c0,0 -1.5,-1.2 -3.1,-2.7c-2,-1.8 -4,-3.3 -2,-6.4c1.8,-2.4 3.5,-5.6 8,-2.7c4.3,2.7 2.4,5.2 2.4,5.2c-2.2,4.5 -5.3,6.6 -5.3,6.6z" fill="#ffffff" stroke="none" stroke-width="1" stroke-linecap="butt" stroke-linejoin="miter"/></g><path d="M222.2,198.4c2.2,2.8 5.6,6.3 1.3,9.2c-5.9,3.3 -10.8,-6.7 -11.8,-10.2c-0.9,-3.1 1.7,-5.1 3.9,-6.8c4.3,-3.1 7.9,-5.9 11.9,-4.4c5,1.8 1.4,5.8 -1.1,7.6c-1.5,1.1 -3,2.3 -4.1,3c-0.3,0.5 -0.4,1.1 -0.1,1.6z" fill="#ffab19" fill-rule="evenodd" stroke="#001026" stroke-width="1.2" stroke-linecap="round" stroke-linejoin="round"/><g><path d="M253.7,131c0.3,-0.2 0.8,-0.1 0.9,0.3l2.6,10.7c0,0 6.4,4.7 8.3,8c3.2,5.5 3.3,10 3.3,10c0,0 7.1,2.1 8.3,7.8c1.2,5.7 -3.2,16.5 -22,20.2c-18.8,3.7 -33.9,-1.4 -41,-12.8c-6.71857,-10.78756 2.94943,-23.5451 3.4992,-24.20683l-2.0992,-17.89317c-0.1,-0.4 0.4,-0.7 0.8,-0.5l12.1,7.9c0,0 4.5,-1.7 9.2,-1.9c2.8,-0.2 5.2,0 7.5,0.4zM264.42188,179.40834c1.29409,-2.03357 0.49454,-3.86622 -1.04296,-5.04918c0.41012,-2.33957 -0.53327,-4.59204 -3.77827,-5.52938c-0.55291,-0.15971 -1.57911,0.71462 -1.99719,0.93965c-1.56442,0.84205 -3.55306,-0.0399 -5.32965,-0.05275c-1.72135,-0.01246 -3.12689,0.10494 -4.28927,0.54731c-0.25076,-0.05285 -0.51075,-0.08065 -0.77723,-0.08065c-0.44453,0 -0.87099,0.07735 -1.26666,0.21931c-0.39568,-0.14197 -0.82214,-0.21931 -1.26667,-0.21931c-0.13276,0 -0.26391,0.00689 -0.39311,0.02035c-0.07679,-0.01684 -0.15446,-0.03132 -0.23294,-0.04337c-0.49556,-0.24149 -1.05227,-0.37698 -1.64062,-0.37698c-0.61382,0 -1.1932,0.14748 -1.70462,0.40894c-0.67673,-0.66523 -1.60479,-1.0756 -2.6287,-1.0756c-2.07107,0 -3.75,1.67893 -3.75,3.75c0,1.0526 0.43368,2.00391 1.13211,2.68499c-1.78336,1.77806 -1.75333,4.78224 0.6674,6.92046c2.1492,1.89838 7.75695,2.58921 10.86061,1.98739c1.055,0.25049 2.28964,0.34812 3.60897,0.31423c2.55127,0.73027 5.93406,1.21961 7.55591,-0.02583c0.56329,-0.43256 1.17643,-1.15569 1.62962,-1.98891c2.1076,-0.90412 3.82084,-2.05824 4.6433,-3.35067zM217.5992,150.99317l0.0008,0.00683c0.03223,-0.04298 0.03041,-0.0444 -0.0008,-0.00683z" fill="#ffab19" fill-rule="nonzero" stroke="#001026" stroke-width="1.2" stroke-linecap="butt" stroke-linejoin="miter"/><path d="M268.5,160.4c0,0 6.9,1.8 8.1,7.5c1.2,5.7 -3.6,16 -22.2,19.6c-24.2,5 -35.7,-9.4 -29,-20c6.7,-10.7 18.2,-1.6 26.6,-2.2c7.2,-0.5 8,-6.8 16.5,-4.9z" fill="#ffffff" fill-rule="nonzero" stroke="none" stroke-width="1" stroke-linecap="butt" stroke-linejoin="miter"/><path d="" fill="#ffffff" fill-rule="evenodd" stroke="#001026" stroke-width="1.2" stroke-linecap="round" stroke-linejoin="round"/><path d="M286.9,161.5c-4.7,3.8 -11.9,3.9 -11.9,3.9" fill="none" fill-rule="evenodd" stroke="#001026" stroke-width="1.2" stroke-linecap="round" stroke-linejoin="round"/><path d="M285.6,172.7c-6.3,0.5 -10.2,-1.4 -10.2,-1.4" fill="none" fill-rule="evenodd" stroke="#001026" stroke-width="1.2" stroke-linecap="round" stroke-linejoin="round"/><path d="M251.6,162.7c2.1,0 4.3,0.2 4.4,0.9c0.1,1.4 -1.4,4.2 -3,4.3c-1.8,0.2 -6,-2.3 -6,-3.9c-0.1,-1.2 2.6,-1.3 4.6,-1.3z" fill="#001026" fill-rule="evenodd" stroke="#001026" stroke-width="1.2" stroke-linecap="round" stroke-linejoin="round"/><path d="M206.6,161.2c0,0 8.6,2.8 12.1,5.9" fill="none" fill-rule="evenodd" stroke="#001026" stroke-width="1.2" stroke-linecap="round" stroke-linejoin="round"/><path d="M219,170.6c-4.3,1.7 -11.7,0.6 -11.7,0.6" fill="none" fill-rule="evenodd" stroke="#001026" stroke-width="1.2" stroke-linecap="round" stroke-linejoin="round"/><g fill-rule="evenodd"><path d="M263.4,151c2.9,4.5 3,9.6 0.2,11.4c-2.8,1.8 -7.4,-0.3 -10.4,-4.8c-2.9,-4.5 -3,-9.6 -0.2,-11.4c2.8,-1.9 7.5,0.3 10.4,4.8z" fill="#ff0000" stroke="#001026" stroke-width="1.2" stroke-linecap="round" stroke-linejoin="round"/><path d="M263,156.7c0,1.1 -0.8,2 -1.8,2c-1,0 -1.8,-0.9 -1.8,-2c0,-1.1 0.8,-2 1.8,-2c1,0 1.8,0.9 1.8,2" fill="#001026" stroke="none" stroke-width="1" stroke-linecap="butt" stroke-linejoin="miter"/></g><g fill-rule="evenodd"><path d="M238.6,153.8c3,4.4 2.8,9.8 0.1,11.7c-3.3,1.9 -7.7,0.5 -10.7,-3.9c-3.1,-4.4 -3.3,-10.1 -0.2,-12.3c3.1,-2.3 7.8,0.1 10.8,4.5z" fill="#ff0000" stroke="#001026" stroke-width="1.2" stroke-linecap="round" stroke-linejoin="round"/><path d="M238,159.6c0,1.1 -0.8,2 -1.8,2c-1,0 -1.8,-0.9 -1.8,-2c0,-1.1 0.8,-2 1.8,-2c1,0.1 1.8,0.9 1.8,2" fill="#001026" stroke="none" stroke-width="1" stroke-linecap="butt" stroke-linejoin="miter"/></g></g><path d="M237.2293,174.21189c5.53388,-5.36431 14.26822,-5.55992 21.04125,-2.31953c2.25059,1.07674 6.2612,3.96928 6.2612,6.84418c0,0.71997 -1.43353,3.88648 -2.38106,3.39027c-0.17546,0.16872 -0.43886,0.32505 -0.80685,0.4643c-1.20188,0.45482 -4.35972,-2.26453 -5.23254,-2.52665c-2.59978,-0.78075 -5.44128,-0.30613 -8.06938,0.04099c-2.28089,0.30126 -4.83226,0.45271 -6.96932,1.32255c-1.02925,0.41894 -2.10639,1.5206 -3.19171,1.89952c-0.16352,0.07849 -0.34676,0.12246 -0.54026,0.12246c-0.59494,0 -1.0928,-0.41563 -1.21906,-0.97237c-0.264,-0.22919 -0.43094,-0.56724 -0.43094,-0.94429c0,-0.03752 0.00165,-0.07465 0.00489,-0.11132c-0.53539,-1.90761 0.23577,-5.95188 1.53379,-7.21012zM262.00307,178.87119c-0.68045,-1.64275 -2.04037,-2.97988 -3.50771,-3.97328c-3.73644,-2.52962 -10.94836,-3.48268 -15.18953,-1.85337c-2.30006,0.8836 -4.87834,2.7433 -5.40507,5.28545c-0.06173,0.29793 0.06091,0.98054 0.17364,1.63915c1.13622,-0.64851 2.50152,-1.08232 3.37989,-1.29348c4.98273,-1.19784 11.39005,-2.50718 16.3734,-0.65284c0.67263,0.25029 2.76314,1.23556 3.88162,2.28497c0.19214,-0.48795 0.50722,-0.92121 0.29374,-1.4366z" fill="#000000" fill-rule="nonzero" stroke="none" stroke-width="0.5" stroke-linecap="butt" stroke-linejoin="miter"/><path d="M223.5756,202.11661c0,0 0.24873,0.51179 -0.1329,0.86045c0.29606,0.38754 0.71412,0.72855 1.32231,1.00573l0.39963,0.06065c0,0 0.73434,0.15248 0.58185,0.88682c-0.15248,0.73434 -0.88682,0.58185 -0.88682,0.58185l-0.74277,-0.17656c-0.20985,-0.10439 -0.4026,-0.21586 -0.58007,-0.33364c0.06634,0.94614 0.10941,1.90423 0.11421,2.88363l0.00001,0.22558c0,0 0,0.75 -0.75,0.75c-0.75,0 -0.75,-0.75 -0.75,-0.75l0.00001,-0.21887c-0.00673,-1.67496 -0.12614,-3.27891 -0.2831,-4.86633c-0.38826,-0.82896 -0.59395,-1.7309 -0.87222,-2.59779c-0.52233,-0.82609 -1.10731,-1.54395 -1.75483,-2.20789c0.0504,0.09036 0.09576,0.18383 0.13497,0.28075c0.87252,2.15667 -0.23343,4.48407 1.14921,6.52744l-0.06641,-0.14368c0,0 0.67082,0.33541 0.33541,1.00623c-0.33541,0.67082 -1.00623,0.33541 -1.00623,0.33541l-0.51085,-0.36591c-0.21488,-0.32623 -0.377,-0.65208 -0.4997,-0.97785l-0.97938,-0.66609c-1.01792,-2.40916 -1.16736,-4.22265 -0.51141,-6.04691c-0.46083,-0.36459 -1.0132,-0.65623 -1.35553,-1.21772c-1.69691,-2.78332 2.03627,-4.62616 4.13475,-5.12712c0,0 0.73079,-0.16864 0.89944,0.56215c0.16864,0.73079 -0.56215,0.89944 -0.56215,0.89944c-0.43864,0.09705 -0.89957,0.1224 -1.31592,0.29116c-0.32595,0.13211 -0.58149,0.39579 -0.87114,0.5953c-0.30171,0.20782 -0.53115,0.39963 -0.69963,0.57904c0.10022,0.07716 0.19952,0.15421 0.29792,0.23124c0.09423,-0.04266 0.19885,-0.06642 0.30901,-0.06642c0.32213,0 0.59682,0.20308 0.70304,0.48819c0.15218,-0.21063 0.31311,-0.42476 0.48273,-0.64309c0,0 0.04609,-0.05926 0.12785,-0.12569c-0.0409,-0.09259 -0.06361,-0.19501 -0.06361,-0.30274c0,-0.41421 0.33579,-0.75 0.75,-0.75c0.41421,0 0.75,0.33579 0.75,0.75c0,0.23298 -0.10623,0.44115 -0.2729,0.57871c0.18963,0.38885 -0.10731,0.77064 -0.10731,0.77064c-0.14402,0.18493 -0.28083,0.36517 -0.41039,0.54144c0.4213,0.20777 0.80804,0.45397 1.16838,0.83093c-0.0031,-0.03778 -0.00616,-0.07559 -0.0092,-0.11343c-0.13866,-1.72879 -0.58279,-2.92652 0.73462,-4.18445c0,0 0.57617,-0.48014 1.0563,0.09603c0.48014,0.57617 -0.09603,1.0563 -0.09603,1.0563c-0.33327,0.20017 -0.43883,0.57859 -0.4425,1.01523c0.13377,-0.20552 0.36553,-0.3414 0.62903,-0.3414c0.41421,0 0.75,0.33579 0.75,0.75c0,0.41421 -0.33579,0.75 -0.75,0.75c-0.20929,0 -0.39855,-0.08572 -0.5346,-0.22397c0.05885,0.353 0.12725,0.69221 0.14847,0.96351c0.11936,1.52617 0.29069,3.0136 0.45286,4.50033z" fill="#00d039" fill-rule="nonzero" stroke="none" stroke-width="0.5" stroke-linecap="butt" stroke-linejoin="miter"/><path d="M223.81771,190.77778c0,-0.41421 0.33579,-0.75 0.75,-0.75c0.41421,0 0.75,0.33579 0.75,0.75c0,0.41421 -0.33579,0.75 -0.75,0.75c-0.41421,0 -0.75,-0.33579 -0.75,-0.75z" fill="#00d039" fill-rule="nonzero" stroke="none" stroke-width="0.5" stroke-linecap="butt" stroke-linejoin="miter"/><path d="M225.7066,189.55556c0,-0.41421 0.33579,-0.75 0.75,-0.75c0.41421,0 0.75,0.33579 0.75,0.75c0,0.41421 -0.33579,0.75 -0.75,0.75c-0.41421,0 -0.75,-0.33579 -0.75,-0.75z" fill="#00d039" fill-rule="nonzero" stroke="none" stroke-width="0.5" stroke-linecap="butt" stroke-linejoin="miter"/><path d="M225.92882,201.22222c0,-0.41421 0.33579,-0.75 0.75,-0.75c0.41421,0 0.75,0.33579 0.75,0.75c0,0.41421 -0.33579,0.75 -0.75,0.75c-0.41421,0 -0.75,-0.33579 -0.75,-0.75z" fill="#00d039" fill-rule="nonzero" stroke="none" stroke-width="0.5" stroke-linecap="butt" stroke-linejoin="miter"/><path d="M204.02734,236.75c0,-0.41421 0.33579,-0.75 0.75,-0.75c0.41421,0 0.75,0.33579 0.75,0.75c0,0.41421 -0.33579,0.75 -0.75,0.75c-0.41421,0 -0.75,-0.33579 -0.75,-0.75z" fill="#00d039" fill-rule="nonzero" stroke="none" stroke-width="0.5" stroke-linecap="butt" stroke-linejoin="miter"/><path d="M225.02734,240c0,-0.41421 0.33579,-0.75 0.75,-0.75c0.41421,0 0.75,0.33579 0.75,0.75c0,0.41421 -0.33579,0.75 -0.75,0.75c-0.41421,0 -0.75,-0.33579 -0.75,-0.75z" fill="#00d039" fill-rule="nonzero" stroke="none" stroke-width="0.5" stroke-linecap="butt" stroke-linejoin="miter"/><path d="M219.27734,233.25c0,-0.41421 0.33579,-0.75 0.75,-0.75c0.41421,0 0.75,0.33579 0.75,0.75c0,0.41421 -0.33579,0.75 -0.75,0.75c-0.41421,0 -0.75,-0.33579 -0.75,-0.75z" fill="#00d039" fill-rule="nonzero" stroke="none" stroke-width="0.5" stroke-linecap="butt" stroke-linejoin="miter"/><path d="M228.02734,245.75c0,-0.41421 0.33579,-0.75 0.75,-0.75c0.41421,0 0.75,0.33579 0.75,0.75c0,0.41421 -0.33579,0.75 -0.75,0.75c-0.41421,0 -0.75,-0.33579 -0.75,-0.75z" fill="#00d039" fill-rule="nonzero" stroke="none" stroke-width="0.5" stroke-linecap="butt" stroke-linejoin="miter"/><path d="M240.52734,239c0,-0.41421 0.33579,-0.75 0.75,-0.75c0.41421,0 0.75,0.33579 0.75,0.75c0,0.32738 -0.20976,0.60577 -0.50222,0.7081c0.00222,0.02645 0.00222,0.0419 0.00222,0.0419v0.75c0,0 0,0.75 -0.75,0.75c-0.75,0 -0.75,-0.75 -0.75,-0.75v-0.75c0,0 0,-0.57289 0.5007,-0.71727c-0.00047,-0.01085 -0.0007,-0.02176 -0.0007,-0.03273z" fill="#00d039" fill-rule="nonzero" stroke="none" stroke-width="0.5" stroke-linecap="butt" stroke-linejoin="miter"/><path d="M228.77734,228c0,-0.08318 0.01354,-0.1632 0.03854,-0.23796c-0.07984,-0.18423 -0.09874,-0.43177 0.11146,-0.71204c0.45,-0.6 1.05,-0.15 1.05,-0.15l1,0.75c0,0 0.6,0.45 0.15,1.05c-0.45,0.6 -1.05,0.15 -1.05,0.15l-0.22918,-0.17189c-0.09727,0.0461 -0.20603,0.07189 -0.32082,0.07189c-0.41421,0 -0.75,-0.33579 -0.75,-0.75z" fill="#00d039" fill-rule="nonzero" stroke="none" stroke-width="0.5" stroke-linecap="butt" stroke-linejoin="miter"/><path d="M221.02734,228.5c0.41421,0 0.75,0.33579 0.75,0.75c0,0.41421 -0.33579,0.75 -0.75,0.75c-0.04259,0 -0.08435,-0.00355 -0.125,-0.01037c-0.04065,0.00682 -0.08241,0.01037 -0.125,0.01037c-0.41421,0 -0.75,-0.33579 -0.75,-0.75c0,-0.41421 0.33579,-0.75 0.75,-0.75c0.04259,0 0.08435,0.00355 0.125,0.01037c0.04065,-0.00682 0.08241,-0.01037 0.125,-0.01037z" fill="#00d039" fill-rule="nonzero" stroke="none" stroke-width="0.5" stroke-linecap="butt" stroke-linejoin="miter"/><path d="M244.27734,233.25c0,0.75 -0.75,0.75 -0.75,0.75h-0.75c0,0 -0.75,0 -0.75,-0.75c0,-0.75 0.75,-0.75 0.75,-0.75h0.75c0,0 0.75,0 0.75,0.75z" fill="#00d039" fill-rule="nonzero" stroke="none" stroke-width="0.5" stroke-linecap="butt" stroke-linejoin="miter"/><path d="M231.61275,225.92082c-0.67082,0.33541 -1.00623,-0.33541 -1.00623,-0.33541l-0.29069,-0.59824c-0.17939,-0.53938 -0.38714,-1.09967 -0.60674,-1.67413c-0.11862,0.2579 -0.37927,0.43696 -0.68174,0.43696c-0.41421,0 -0.75,-0.33579 -0.75,-0.75c0,-0.26087 0.13319,-0.49063 0.33528,-0.625c-0.20209,-0.13437 -0.33528,-0.36413 -0.33528,-0.625c0,-0.34679 0.23536,-0.6386 0.55506,-0.72442c-0.68932,-1.85688 -1.28756,-3.76559 -1.30506,-5.52558c0,0 0,-0.75 0.75,-0.75c0.75,0 0.75,0.75 0.75,0.75c-0.038,2.81905 1.81703,6.33586 2.71151,9.01283l0.04499,0.08635c-0.00429,-0.03245 -0.0065,-0.06556 -0.0065,-0.09918c0,-0.41421 0.33579,-0.75 0.75,-0.75c0.41421,0 0.75,0.33579 0.75,0.75c0,0.41421 -0.33579,0.75 -0.75,0.75c-0.21096,0 -0.40158,-0.0871 -0.53786,-0.2273c0.06308,0.20353 0.12799,0.64576 -0.37673,0.89812z" fill="#00d039" fill-rule="nonzero" stroke="none" stroke-width="0.5" stroke-linecap="butt" stroke-linejoin="miter"/><path d="M223.77734,222.25c0,-0.41421 0.33579,-0.75 0.75,-0.75c0.41421,0 0.75,0.33579 0.75,0.75c0,0.41421 -0.33579,0.75 -0.75,0.75c-0.41421,0 -0.75,-0.33579 -0.75,-0.75z" fill="#00d039" fill-rule="nonzero" stroke="none" stroke-width="0.5" stroke-linecap="butt" stroke-linejoin="miter"/><path d="M233.16322,220.64312c-0.64312,0.38587 -1.02899,-0.25725 -1.02899,-0.25725l-0.75,-1.25c0,0 -0.38587,-0.64312 0.25725,-1.02899c0.64312,-0.38587 1.02899,0.25725 1.02899,0.25725l0.75,1.25c0,0 0.38587,0.64312 -0.25725,1.02899z" fill="#00d039" fill-rule="nonzero" stroke="none" stroke-width="0.5" stroke-linecap="butt" stroke-linejoin="miter"/><path d="M233.27734,232.25c0,-0.41421 0.33579,-0.75 0.75,-0.75c0.41421,0 0.75,0.33579 0.75,0.75c0,0.41421 -0.33579,0.75 -0.75,0.75c-0.41421,0 -0.75,-0.33579 -0.75,-0.75z" fill="#00d039" fill-rule="nonzero" stroke="none" stroke-width="0.5" stroke-linecap="butt" stroke-linejoin="miter"/><path d="M222.77734,235.5c0,-0.41421 0.33579,-0.75 0.75,-0.75c0.41421,0 0.75,0.33579 0.75,0.75c0,0.41421 -0.33579,0.75 -0.75,0.75c-0.41421,0 -0.75,-0.33579 -0.75,-0.75z" fill="#00d039" fill-rule="nonzero" stroke="none" stroke-width="0.5" stroke-linecap="butt" stroke-linejoin="miter"/><path d="M222.77734,228c-0.75,0 -0.75,-0.75 -0.75,-0.75l0.00968,-0.62986c-0.39315,-1.31735 -0.00031,-3.17351 -0.00966,-4.61376c-0.01752,-2.6991 -0.10855,-5.48137 -0.49249,-8.15031c0,0 -0.10607,-0.74246 0.6364,-0.84853c0.74246,-0.10607 0.84853,0.6364 0.84853,0.6364c0.3884,2.73677 0.48948,5.58289 0.50751,8.34969c0.00757,1.16139 -0.35886,2.91531 -0.10487,4.0629c0.1365,-0.18587 0.35661,-0.30652 0.6049,-0.30652c0.41421,0 0.75,0.33579 0.75,0.75c0,0.41421 -0.33579,0.75 -0.75,0.75c-0.19313,0 -0.3692,-0.073 -0.50215,-0.1929l0.00215,0.1929c0,0 0,0.75 -0.75,0.75z" fill="#00d039" fill-rule="nonzero" stroke="none" stroke-width="0.5" stroke-linecap="butt" stroke-linejoin="miter"/><path d="M229.77734,231.75c0,-0.41421 0.33579,-0.75 0.75,-0.75c0.41421,0 0.75,0.33579 0.75,0.75c0,0.41421 -0.33579,0.75 -0.75,0.75c-0.41421,0 -0.75,-0.33579 -0.75,-0.75z" fill="#00d039" fill-rule="nonzero" stroke="none" stroke-width="0.5" stroke-linecap="butt" stroke-linejoin="miter"/><path d="M239.52734,224.25c0,-0.41421 0.33579,-0.75 0.75,-0.75c0.41421,0 0.75,0.33579 0.75,0.75c0,0.41421 -0.33579,0.75 -0.75,0.75c-0.41421,0 -0.75,-0.33579 -0.75,-0.75z" fill="#00d039" fill-rule="nonzero" stroke="none" stroke-width="0.5" stroke-linecap="butt" stroke-linejoin="miter"/><path d="M231.02734,237.25c0,-0.41421 0.33579,-0.75 0.75,-0.75c0.41421,0 0.75,0.33579 0.75,0.75c0,0.41421 -0.33579,0.75 -0.75,0.75c-0.41421,0 -0.75,-0.33579 -0.75,-0.75z" fill="#00d039" fill-rule="nonzero" stroke="none" stroke-width="0.5" stroke-linecap="butt" stroke-linejoin="miter"/></g></g></svg>